<?xml version="1.0" encoding="UTF-8" standalone="no"?>
<svg
   xmlns:dc="http://purl.org/dc/elements/1.1/"
   xmlns:cc="http://creativecommons.org/ns#"
   xmlns:rdf="http://www.w3.org/1999/02/22-rdf-syntax-ns#"
   xmlns:svg="http://www.w3.org/2000/svg"
   xmlns="http://www.w3.org/2000/svg"
   viewBox="0 0 177.41333 154.21333"
   height="154.21333"
   width="177.41333"
   xml:space="preserve"
   id="svg2"
   version="1.1"><metadata
     id="metadata8"><rdf:RDF><cc:Work
         rdf:about=""><dc:format>image/svg+xml</dc:format><dc:type
           rdf:resource="http://purl.org/dc/dcmitype/StillImage" /></cc:Work></rdf:RDF></metadata><defs
     id="defs6" /><g
     transform="matrix(1.3333333,0,0,-1.3333333,0,154.21333)"
     id="g10"><g
       transform="scale(0.1)"
       id="g12"><path
         id="path14"
         style="fill:rgba(62,142,224,1);fill-opacity:1;fill-rule:nonzero;stroke:none"
         d="m 1293.84,994.777 c -5.92,10.603 -12.33,21.173 -19.58,31.683 -104.8,151.52 -236.55,144.55 -307.397,108.62 C 898.176,1100.2 854.727,1063.76 810.191,959.641 785.371,901.633 760.23,822.66 730.199,711.008 715.797,657.473 695.535,593.336 669.48,526.008 667.523,520.98 665.527,515.91 663.508,510.836 578.73,297.582 436.254,58.5391 236.746,24.1016 c -8.023,-1.3828 -16.18,-2.4219 -24.398,-3.1211 -0.879,-0.0899 -1.739,-0.1524 -2.602,-0.211 -7.269,-0.5586 -14.609,-0.8281 -22.035,-0.8281 -1.617,-0.0195 -3.215,-0.0625 -4.836,-0.0312 -6.836,0.1015 -13.73,0.4804 -20.684,1.1015 -1.953,0.1485 -3.875,0.2071 -5.851,0.418 -8.66,0.9297 -17.399,2.1211 -26.258,3.832 -1.066,0.1875 -2.121,0.3281 -3.184,0.5391 0,0 243.305,-126.4728 478.247,180.5972 56.281,73.536 104.558,154.524 148.054,235.157 138.153,256.078 227.586,508.578 367.471,507.5 46.8,-0.387 84.52,-14.559 113.94,-37.715 63.31,-49.832 87.97,-141.543 80.45,-229.031 18.64,82.546 29.35,202.117 -21.22,312.468" /><path
         id="path16"
         style="fill:rgba(62,142,224,1);fill-opacity:1;fill-rule:nonzero;stroke:none"
         d="m 1121.93,424.223 c -2.08,-0.852 -4.14,-1.535 -6.23,-2.317 -7.34,-2.89 -14.72,-5.508 -22.12,-7.812 -1.74,-0.547 -3.49,-1.004 -5.26,-1.512 -8.07,-2.371 -16.14,-4.414 -24.21,-6.144 -0.97,-0.184 -1.94,-0.391 -2.9,-0.586 -9.18,-1.856 -18.35,-3.34 -27.53,-4.391 -83.774,-9.672 -167.989,13.289 -248.985,56.258 -4.527,-8.574 -9.031,-17.149 -13.675,-25.774 -8.438,-15.644 -16.719,-30.535 -24.93,-45.105 253.074,-95.645 406.45,51.551 406.45,51.551 -1.08,-0.567 -2.18,-1.075 -3.29,-1.629 -9.07,-4.668 -18.21,-8.782 -27.32,-12.539" /><path
         id="path18"
         style="fill:rgba(62,142,224,1);fill-opacity:1;fill-rule:evenodd;stroke:none"
         d="M 12.5977,402.824 C -3.98438,344.191 -5.58984,283.645 16.2109,232.18 40.4063,175.109 102.035,146.359 161.543,149.262 c 27.242,1.316 58.082,7.328 83.473,17.461 27.644,11.054 54.082,25.363 79.726,41.386 20.949,13.106 41.028,27.293 59.356,42.118 2.793,2.363 5.554,4.765 8.328,7.207 11.035,9.804 22.23,20.695 33.488,32.445 C 392.418,276.754 354.762,259.105 315.273,247.711 209.855,217.277 76.7734,241.008 101.211,378.215 128.246,530.004 300.348,613.352 437.66,561.73 c 49.828,-18.71 70.184,-24.042 143.512,-77.019 14.351,24.043 22.769,53.035 34.683,80.352 -0.894,0.808 -1.769,1.601 -2.531,2.292 C 494.398,676.926 290.273,710.969 152.141,611.594 91.4414,567.922 36.4727,487.348 12.5977,402.824" /></g></g></svg>