<svg id="svg" version="1.1" width="400" height="256.8571428571429" viewBox="0 1 400 256.8571428571429" xmlns="http://www.w3.org/2000/svg" xmlns:xlink="http://www.w3.org/1999/xlink" >
	<g id="svgg">
		<path id="path0" d="M281.567 0.257 C 281.567 0.398,281.885 0.520,282.274 0.527 C 286.394 0.603,293.980 1.729,298.651 2.957 C 319.694 8.491,331.117 19.614,332.486 35.906 C 333.955 53.375,318.078 64.679,304.663 55.715 C 298.270 51.444,297.238 43.323,302.235 36.609 C 307.160 29.990,308.347 26.259,306.691 22.608 C 305.054 18.998,300.768 15.708,295.825 14.269 C 294.978 14.022,293.995 13.722,293.642 13.602 C 292.810 13.320,290.203 12.720,287.590 12.209 C 283.381 11.386,273.637 11.305,269.877 12.063 C 263.269 13.393,259.591 14.577,255.620 16.649 C 241.313 24.116,233.943 35.911,233.918 51.381 C 233.911 55.819,233.967 56.243,234.970 59.430 C 237.244 66.659,243.430 74.585,258.160 89.146 C 265.725 96.623,271.932 103.392,279.275 112.173 C 285.861 120.048,292.827 130.930,295.370 137.315 C 296.835 140.993,297.642 143.470,298.385 146.564 C 298.622 147.553,298.921 148.767,299.049 149.261 C 300.524 154.961,300.518 168.671,299.038 176.365 C 298.359 179.896,297.684 183.124,297.482 183.815 C 296.673 186.572,295.607 189.845,295.294 190.533 C 295.092 190.979,294.926 191.521,294.926 191.739 C 294.926 191.956,294.811 192.206,294.669 192.293 C 294.528 192.380,294.412 192.611,294.412 192.806 C 294.412 193.170,292.604 197.187,291.406 199.486 C 286.996 207.948,282.725 213.864,276.561 220.049 C 273.818 222.800,273.133 223.391,267.604 227.764 C 260.410 233.456,246.103 241.392,236.740 244.885 C 231.331 246.903,227.001 248.399,224.277 249.190 C 223.218 249.497,222.062 249.853,221.708 249.981 C 221.355 250.108,220.604 250.322,220.039 250.455 C 219.473 250.589,217.619 251.050,215.919 251.479 C 212.454 252.354,206.134 253.646,203.211 254.078 C 202.152 254.235,200.128 254.535,198.715 254.746 C 194.473 255.378,189.498 255.857,184.200 256.146 C 181.445 256.296,177.746 256.511,175.979 256.623 C 174.213 256.735,223.895 256.844,286.384 256.865 L 400.000 256.904 400.000 128.452 L 400.000 0.000 340.784 0.000 C 301.477 0.000,281.567 0.086,281.567 0.257 " stroke="none" fill="transparent" fill-rule="evenodd"></path>
		<path id="path1" d="M0.000 128.452 L 0.000 256.904 85.100 256.884 C 131.904 256.873,170.083 256.824,169.942 256.775 C 169.801 256.726,166.853 256.558,163.391 256.401 C 148.712 255.734,135.652 253.769,126.911 250.913 C 126.275 250.705,124.888 250.282,123.828 249.972 C 121.673 249.343,118.739 248.328,117.461 247.768 C 116.997 247.565,116.509 247.399,116.376 247.399 C 115.542 247.399,106.804 243.010,103.912 241.139 C 99.397 238.217,97.274 236.518,93.829 233.068 C 89.006 228.236,85.343 222.417,83.508 216.668 C 83.197 215.696,82.846 214.669,82.728 214.387 C 82.420 213.650,81.747 210.578,81.434 208.478 C 79.199 193.496,81.940 179.831,89.729 167.116 C 94.042 160.077,98.165 155.305,104.686 149.807 C 106.756 148.061,113.571 143.293,115.595 142.173 C 116.083 141.904,116.892 141.410,117.394 141.077 C 119.105 139.939,126.622 136.423,130.430 134.978 C 135.612 133.013,136.524 132.745,142.453 131.442 C 152.430 129.250,166.976 129.195,177.264 131.310 C 179.991 131.870,183.051 132.584,183.687 132.809 C 184.040 132.933,185.022 133.236,185.870 133.481 C 199.906 137.534,212.964 149.074,216.925 160.923 C 222.158 176.578,218.587 189.364,206.166 199.451 C 205.177 200.254,204.218 201.034,204.034 201.183 C 202.142 202.729,195.679 206.314,192.036 207.840 C 184.548 210.976,174.471 211.717,173.144 209.229 C 171.223 205.625,174.085 202.036,180.604 199.875 C 181.522 199.570,182.505 199.223,182.787 199.104 C 183.070 198.985,184.631 198.468,186.256 197.956 C 200.771 193.382,206.037 187.942,206.037 177.524 C 206.037 164.205,195.778 156.203,176.236 154.282 C 175.318 154.191,173.757 154.007,172.768 153.873 C 161.332 152.315,142.151 153.550,133.462 156.404 C 124.064 159.491,115.394 165.232,110.083 171.883 C 109.801 172.237,109.154 173.043,108.645 173.675 C 99.198 185.415,97.030 204.650,103.638 218.112 C 107.711 226.409,115.065 232.896,124.865 236.838 C 125.355 237.035,126.263 237.421,126.885 237.697 C 128.180 238.271,132.826 239.929,133.976 240.227 C 134.399 240.337,135.382 240.617,136.159 240.850 C 139.394 241.818,145.981 243.210,150.674 243.918 C 159.906 245.310,177.019 245.481,186.641 244.276 C 192.607 243.529,194.050 243.311,196.403 242.802 C 197.816 242.496,199.839 242.062,200.899 241.838 C 229.812 235.725,255.831 215.772,263.831 193.577 C 264.290 192.306,264.758 191.034,264.873 190.751 C 264.988 190.469,265.196 189.775,265.337 189.210 C 265.478 188.645,265.764 187.547,265.973 186.769 C 268.206 178.472,268.540 166.776,266.761 159.152 C 263.576 145.499,256.060 134.481,234.425 111.748 C 230.290 107.403,224.404 100.673,221.319 96.762 C 220.332 95.511,219.134 94.008,218.656 93.422 C 213.528 87.134,209.147 79.058,207.347 72.575 C 205.595 66.266,205.997 54.898,208.241 47.270 C 211.398 36.542,217.993 26.793,227.036 19.488 C 233.845 13.988,240.703 10.031,250.096 6.183 C 250.379 6.067,250.957 5.830,251.381 5.655 C 256.987 3.340,265.740 1.450,274.117 0.747 C 275.883 0.599,278.195 0.387,279.255 0.277 C 280.315 0.168,217.916 0.060,140.591 0.039 L 0.000 0.000 0.000 128.452 " stroke="none" fill="#ffffff" fill-rule="evenodd"></path>
		<path id="path2" d="M279.255 0.277 C 278.195 0.387,275.883 0.599,274.117 0.747 C 265.740 1.450,256.987 3.340,251.381 5.655 C 250.957 5.830,250.379 6.067,250.096 6.183 C 241.640 9.647,235.554 13.015,229.579 17.537 C 220.404 24.480,214.514 31.801,210.204 41.618 C 206.376 50.340,205.078 64.403,207.347 72.575 C 209.147 79.058,213.528 87.134,218.656 93.422 C 219.134 94.008,220.332 95.511,221.319 96.762 C 224.404 100.673,230.290 107.403,234.425 111.748 C 256.060 134.481,263.576 145.499,266.761 159.152 C 268.540 166.776,268.206 178.472,265.973 186.769 C 265.764 187.547,265.478 188.645,265.337 189.210 C 265.196 189.775,264.988 190.469,264.873 190.751 C 264.758 191.034,264.290 192.306,263.831 193.577 C 255.831 215.772,229.812 235.725,200.899 241.838 C 199.839 242.062,197.816 242.496,196.403 242.802 C 194.050 243.311,192.607 243.529,186.641 244.276 C 177.019 245.481,159.906 245.310,150.674 243.918 C 145.981 243.210,139.394 241.818,136.159 240.850 C 135.382 240.617,134.399 240.337,133.976 240.227 C 132.826 239.929,128.180 238.271,126.885 237.697 C 126.263 237.421,125.355 237.035,124.865 236.838 C 111.354 231.404,102.903 221.546,100.552 208.478 C 98.315 196.041,101.432 182.638,108.645 173.675 C 109.154 173.043,109.801 172.237,110.083 171.883 C 115.394 165.232,124.064 159.491,133.462 156.404 C 142.151 153.550,161.332 152.315,172.768 153.873 C 173.757 154.007,175.318 154.191,176.236 154.282 C 195.778 156.203,206.037 164.205,206.037 177.524 C 206.037 187.942,200.771 193.382,186.256 197.956 C 184.631 198.468,183.070 198.985,182.787 199.104 C 182.505 199.223,181.522 199.570,180.604 199.875 C 174.085 202.036,171.223 205.625,173.144 209.229 C 174.365 211.518,181.214 211.297,189.467 208.702 C 193.712 207.367,201.187 203.509,204.034 201.183 C 204.218 201.034,205.177 200.254,206.166 199.451 C 218.587 189.364,222.158 176.578,216.925 160.923 C 212.964 149.074,199.906 137.534,185.870 133.481 C 185.022 133.236,184.040 132.933,183.687 132.809 C 183.051 132.584,179.991 131.870,177.264 131.310 C 166.976 129.195,152.430 129.250,142.453 131.442 C 136.524 132.745,135.612 133.013,130.430 134.978 C 126.622 136.423,119.105 139.939,117.394 141.077 C 116.892 141.410,116.083 141.904,115.595 142.173 C 113.571 143.293,106.756 148.061,104.686 149.807 C 98.165 155.305,94.042 160.077,89.729 167.116 C 87.025 171.530,85.277 175.216,83.880 179.448 C 81.592 186.378,80.700 191.831,80.687 198.972 C 80.678 204.074,81.727 211.991,82.728 214.387 C 82.846 214.669,83.197 215.696,83.508 216.668 C 87.159 228.104,96.743 238.057,110.597 244.800 C 114.097 246.504,116.088 247.399,116.376 247.399 C 116.509 247.399,116.997 247.565,117.461 247.768 C 118.739 248.328,121.673 249.343,123.828 249.972 C 124.888 250.282,126.275 250.705,126.911 250.913 C 135.627 253.761,148.723 255.735,163.263 256.392 C 166.654 256.545,169.701 256.728,170.034 256.799 C 170.367 256.870,172.736 256.806,175.300 256.658 C 177.864 256.509,182.042 256.271,184.586 256.127 C 189.596 255.845,194.657 255.350,198.715 254.746 C 200.128 254.535,202.152 254.235,203.211 254.078 C 206.134 253.646,212.454 252.354,215.919 251.479 C 217.619 251.050,219.473 250.589,220.039 250.455 C 220.604 250.322,221.355 250.108,221.708 249.981 C 222.062 249.853,223.218 249.497,224.277 249.190 C 227.001 248.399,231.331 246.903,236.740 244.885 C 246.103 241.392,260.410 233.456,267.604 227.764 C 273.133 223.391,273.818 222.800,276.561 220.049 C 282.725 213.864,286.996 207.948,291.406 199.486 C 292.604 197.187,294.412 193.170,294.412 192.806 C 294.412 192.611,294.528 192.380,294.669 192.293 C 294.811 192.206,294.926 191.956,294.926 191.739 C 294.926 191.521,295.092 190.979,295.294 190.533 C 295.607 189.845,296.673 186.572,297.482 183.815 C 297.684 183.124,298.359 179.896,299.038 176.365 C 300.518 168.671,300.524 154.961,299.049 149.261 C 298.921 148.767,298.622 147.553,298.385 146.564 C 297.642 143.470,296.835 140.993,295.370 137.315 C 292.827 130.930,285.861 120.048,279.275 112.173 C 271.932 103.392,265.725 96.623,258.160 89.146 C 243.430 74.585,237.244 66.659,234.970 59.430 C 233.967 56.243,233.911 55.819,233.918 51.381 C 233.943 35.911,241.313 24.116,255.620 16.649 C 259.591 14.577,263.269 13.393,269.877 12.063 C 273.637 11.305,283.381 11.386,287.590 12.209 C 290.203 12.720,292.810 13.320,293.642 13.602 C 293.995 13.722,294.978 14.022,295.825 14.269 C 300.768 15.708,305.054 18.998,306.691 22.608 C 308.347 26.259,307.160 29.990,302.235 36.609 C 290.929 51.803,312.399 67.037,326.359 53.726 C 337.026 43.556,333.855 23.227,319.974 12.791 C 315.412 9.361,306.911 5.245,300.963 3.588 C 295.043 1.938,291.253 1.260,285.164 0.758 C 283.256 0.601,281.657 0.366,281.610 0.236 C 281.563 0.106,281.447 0.017,281.353 0.039 C 281.259 0.060,280.315 0.168,279.255 0.277 " stroke="#f3f4fb" fill="#f3f4fb" fill-rule="evenodd">
			
		</path>
	</g>
</svg>