<svg xmlns="http://www.w3.org/2000/svg" role="img" viewBox="1456.42 9.04 62.79 54.91"><title>Amesbury</title><g id="g14955" fill="#fefee9" fill-opacity="1" fill-rule="evenodd" stroke="#000" stroke-linecap="square" stroke-linejoin="bevel" stroke-opacity="1" stroke-width=".098" transform="translate(-216.714 -21.7) scale(2.264)"><path id="path14959" fill-rule="evenodd" d="M 762.414,14.1653 L 763.51,18.1644 L 766.225,27.686 L 765.142,32.3415 L 764.865,32.3539 L 764.481,32.3793 L 764.288,32.3988 L 764.072,32.4011 L 763.922,32.3905 L 763.6,32.3064 L 763.378,32.2262 L 763.233,32.1346 L 763.085,32.0372 L 762.949,31.92 L 762.848,31.7862 L 762.781,31.6616 L 762.725,31.5446 L 762.665,31.3589 L 762.627,31.1392 L 762.572,30.857 L 762.521,30.673 L 762.464,30.5049 L 762.406,30.3524 L 762.32,30.1593 L 762.24,30.0388 L 762.174,29.9616 L 762.097,29.8785 L 761.942,29.7714 L 761.86,29.7316 L 761.71,29.7012 L 761.545,29.6968 L 761.385,29.7216 L 761.222,29.7661 L 761.037,29.8231 L 760.889,29.8928 L 760.717,29.9672 L 760.558,30.0766 L 760.382,30.1963 L 760.116,30.4594 L 759.874,30.7437 L 759.551,31.195 L 759.143,31.8408 L 758.921,32.1563 L 758.689,32.454 L 758.553,32.5908 L 758.424,32.7469 L 758.307,32.8869 L 758.197,33.0151 L 758.106,33.1685 L 758.028,33.3727 L 757.917,33.7115 L 757.836,33.9945 L 757.748,34.2227 L 757.692,34.3457 L 757.648,34.4156 L 757.545,34.5475 L 757.371,34.7359 L 757.179,34.9209 L 756.988,35.1096 L 756.861,35.25 L 756.76,35.4174 L 756.642,35.6087 L 756.532,35.792 L 756.454,35.9254 L 756.377,36.0391 L 756.277,36.1356 L 756.113,36.2648 L 756.037,36.3091 L 755.541,36.5675 L 755.152,36.7663 L 754.965,36.8585 L 754.838,36.9084 L 754.658,36.9611 L 754.298,37.0334 L 754.084,37.0711 L 753.594,37.1478 L 752.811,37.2284 L 752.22,37.2778 L 751.582,37.3142 L 750.678,37.2575 L 750.142,37.1089 L 749.589,36.8778 L 749.245,36.6919 L 748.721,36.3852 L 745.977,28.6766 L 740.957,23.6992 L 739.609,22.3544 L 740.948,22.0848 L 749.159,20.4211 L 753.071,18.2333 L 758.658,14.7613 L 762.414,14.1653"/></g></svg>