<svg xmlns="http://www.w3.org/2000/svg" role="img" viewBox="566.94 359.06 51.24 107.12"><title>Amherst</title><g id="g14955" fill="#fefee9" fill-opacity="1" fill-rule="evenodd" stroke="#000" stroke-linecap="square" stroke-linejoin="bevel" stroke-opacity="1" stroke-width=".098" transform="translate(-216.714 -21.7) scale(2.264)"><path id="path15383" fill-rule="evenodd" d="M 361.793,169.157 L 363.275,178.234 L 364.833,189.387 L 365.962,197.512 L 367.844,212.506 L 364.443,212.773 L 364.088,212.826 L 363.902,212.843 L 363.017,213.369 L 361.839,213.575 L 361.124,213.921 L 360.305,214.391 L 359.17,213.409 L 358.908,213.025 L 358.806,213.105 L 358.497,213.399 L 357.638,213.267 L 356.997,212.955 L 356.472,213.082 L 353.19,214.35 L 352.362,214.015 L 351.58,214.579 L 350.687,213.813 L 349.688,213.603 L 349.057,208.108 L 348.878,208.158 L 348.673,208.201 L 348.325,208.278 L 349.74,194.431 L 349.492,194.432 L 349.596,192.642 L 349.85,192.609 L 350.193,189.212 L 351.012,180.163 L 347.123,180.598 L 347.901,171.29 L 351.279,170.757 L 359.307,169.553 L 361.793,169.157"/></g></svg>