<svg xmlns="http://www.w3.org/2000/svg" role="img" viewBox="675.21 77.46 47.65 37.33"><title>Andover</title><path fill-rule="evenodd" d="M693.222 80.0038l.872 7.1202 8.704-2.0514 4.25 1.6764 1.451.8013 1.091 1.98 8.392 14.9707 3.986 7.186-12.273 1.479-2.763.355-1.506-1.416-.5-.282-.731-1.556-.133-.503-.518-1.088-1.484-.721-.526.094-.541.688-.211 1.836-.308.813-.754 1.11-.059.107-.254 1.295-3.975-3.319-.207-.231-.084-.043.017-.061.095-.022.106.019.067.028.096-.003.019-.128.118.016.061.027.04-.043.003-.083.053-.057.077.006.077.057-.018.112.044.059.064-.018.095-.048.015-.08-.032-.091.014-.083.023-.053.051-.077.016-.065-.006-.072-.061-.053-.061-.034-.073-.025-.094-.068.011-.064.075-.047.102-.008.094-.034-.01-.065-.039-.061.007-.063.079-.025.021-.067-.021-.065-.056-.067-.047-.057-.075-.108.043-.055.061.004.081-.001.061-.027.015-.057-.006-.071-.008-.063.016-.085.056-.059.077-.061.065-.032.064-.025.099-.025.363-.075.108-.028.116-.024.055-.024.045-.038.002-.076-.01-.067.049-.075.027-.057.069-.085.094-.022.086-.028-.163-.121-4.406-2.858-15.297-9.8669-1.708-1.1017.152-.0996.158-.1181.082-.0829.073-.0769.243-.2913.13-.1596.132-.1261.163-.1459.242-.1555.165-.0711.16-.0397.128-.0045.077.0076.12.0269.206.0006.145-.0029.163-.0188.184-.0445.167-.0465.159-.0641.164-.0876.141-.0951.121-.1052.088-.0968.064-.093.064-.1183.065-.1757.048-.142.072-.3607.062-.325.064-.1991.16-.2961.121-.2092.151-.227.129-.1955.113-.1282.176-.1581.134-.1263.073-.0631.155-.1265.144-.1735.24-.292 1.194-1.9621.178-.3492.125-.2859.161-.4335.159-.467.207-.6128.106-.4651.031-.1652.031-.1753.018-.2873.011-.311.114-1.6949.047-.1733.093-.1972.125-.2346.604-1.0651.212-.3314.102-.1184.077-.079.119-.0871.167-.1089.131-.0891.192-.0755.251-.068.226-.0541.149-.0223.187-.0027.188.0072.171.019.183.0347.395.1106 1.718.5524.366.085.347.05.32.0188 1.1.0668.209.031.255.0738.208.066.195.0762.248.1092.163.0839.136.0703.263.1414"/></svg>