<svg xmlns="http://www.w3.org/2000/svg" role="img" viewBox="1560.33 1201.21 45.71 86.71"><title>Aquinnah</title><g id="g14955" fill="#fefee9" fill-opacity="1" fill-rule="evenodd" stroke="#000" stroke-linecap="square" stroke-linejoin="bevel" stroke-opacity="1" stroke-width=".098" transform="translate(-216.714 -21.7) scale(2.264)"><path id="path16197" d="M 800.414,549.601 L 799.778,550.423 L 799.72,550.493 L 799.884,555.454 L 795.823,553.904 L 795.83,555.743 L 795.733,555.675 L 795.312,555.253 L 795.193,555.065 L 794.684,554.518 L 794.002,553.84 L 792.979,552.989 L 792.336,552.301 L 791.764,551.66 L 791.367,551.287 L 790.764,550.802 L 790.366,550.209 L 789.977,549.786 L 789.769,549.432 L 789.252,548.743 L 789.132,548.524 L 788.925,548.251 L 788.544,547.852 L 788.313,547.586 L 788.13,547.291 L 787.971,547.084 L 787.685,546.789 L 787.024,545.912 L 786.96,545.765 L 786.698,545.444 L 786.039,544.802 L 785.76,544.37 L 785.711,544.176 L 785.702,543.972 L 785.771,543.812 L 785.865,543.71 L 786.201,543.486 L 786.295,543.353 L 786.403,543.154 L 786.546,542.335 L 786.663,542.096 L 786.85,541.923 L 786.975,541.835 L 787.109,541.835 L 787.401,541.925 L 788.016,541.967 L 788.732,541.868 L 789.173,541.871 L 789.779,541.931 L 790.29,541.87 L 790.683,541.756 L 791.075,541.574 L 791.593,541.261 L 792.063,541.083 L 792.543,540.979 L 793.48,541.002 L 794.009,541.163 L 794.451,541.364 L 794.57,541.395 L 794.979,541.414 L 795.666,541.621 L 796.077,541.823 L 797.755,542.819 L 798.987,543.382 L 799.461,543.545 L 800.092,543.641 L 800.777,543.637 L 801.24,543.552 L 801.955,543.302 L 802.245,543.16 L 802.95,542.671 L 803.419,542.236 L 803.808,541.744 L 803.871,541.752 L 804.061,541.876 L 804.316,542.204 L 804.341,542.299 L 804.286,542.403 L 804.097,542.387 L 803.813,542.389 L 803.712,542.438 L 803.704,542.51 L 803.879,542.744 L 804.249,542.64 L 804.375,542.661 L 804.222,543.214 L 804.175,543.284 L 804.052,543.672 L 803.922,544.122 L 803.839,544.531 L 803.636,544.76 L 803.645,544.887 L 803.819,545.037 L 803.851,545.114 L 803.837,545.263 L 803.751,545.312 L 803.546,545.346 L 803.436,545.321 L 803.247,545.339 L 802.908,545.256 L 802.176,545.255 L 801.679,545.186 L 801.158,545.08 L 800.646,545.039 L 800.418,545.071 L 799.978,545.207 L 799.892,545.281 L 799.792,545.548 L 799.714,546.517 L 799.677,546.872 L 799.554,547.297 L 799.575,547.914 L 799.633,548.25 L 799.558,548.748 L 799.592,549.045 L 799.492,549.244 L 799.493,549.408 L 799.564,549.48 L 799.722,549.469 L 799.855,549.428 L 799.966,549.438 L 800.021,549.467 L 800.203,549.57 L 800.414,549.601"/><path id="path16217" d="M 792.159,573.263 L 792.292,573.206 L 792.394,573.073 L 792.532,572.653 L 792.601,572.502 L 792.711,572.384 L 792.931,572.335 L 792.971,572.399 L 792.933,572.57 L 792.934,572.769 L 792.967,572.932 L 793.16,573.327 L 793.358,573.544 L 794.061,573.868 L 795.301,574.26 L 795.538,574.368 L 795.657,574.541 L 795.659,574.69 L 795.597,574.825 L 795.391,575.653 L 795.275,575.985 L 795.16,576.342 L 795.155,576.717 L 795.204,576.892 L 795.206,577.199 L 795.176,577.318 L 795.137,577.398 L 795.099,577.45 L 795.048,577.527 L 794.957,577.613 L 794.873,577.658 L 794.765,577.687 L 794.663,577.688 L 794.599,577.658 L 794.514,577.631 L 794.427,577.604 L 794.372,577.586 L 794.261,577.589 L 794.13,577.614 L 793.967,577.642 L 793.825,577.642 L 793.703,577.659 L 793.598,577.653 L 793.514,577.642 L 793.411,577.631 L 793.336,577.605 L 793.261,577.59 L 793.195,577.573 L 793.105,577.56 L 792.994,577.558 L 792.912,577.547 L 792.835,577.534 L 792.714,577.471 L 792.648,577.406 L 792.574,577.332 L 792.496,577.291 L 792.434,577.27 L 792.372,577.27 L 792.31,577.27 L 792.247,577.27 L 791.593,577.313 L 791.364,577.23 L 790.993,577.145 L 790.521,577.093 L 790.11,576.997 L 789.739,576.84 L 789.375,576.615 L 789.216,576.483 L 788.907,576.163 L 788.772,575.99 L 788.446,575.656 L 788.177,575.453 L 787.843,575.099 L 787.652,574.857 L 787.588,574.725 L 787.571,574.496 L 787.632,574.324 L 787.773,574.18 L 787.977,574.1 L 788.378,574.057 L 789.544,574.135 L 790.174,574.12 L 790.684,573.991 L 791.21,573.789 L 791.366,573.592 L 791.467,573.45 L 791.467,573.385 L 791.522,573.321 L 791.631,573.275 L 791.711,573.338 L 791.868,573.336 L 792.159,573.263"/></g></svg>