<svg xmlns="http://www.w3.org/2000/svg" role="img" viewBox="1345.77 361.39 41.41 32.09"><title>Arlington</title><g id="g14955" fill="#fefee9" fill-opacity="1" fill-rule="evenodd" stroke="#000" stroke-linecap="square" stroke-linejoin="bevel" stroke-opacity="1" stroke-width=".098" transform="translate(-216.714 -21.7) scale(2.264)"><path id="path15389" fill-rule="evenodd" d="M 703.472,169.753 L 704.105,172.777 L 704.569,174.002 L 704.617,174.12 L 704.684,174.207 L 704.794,174.296 L 704.942,174.361 L 705.086,174.405 L 705.198,174.448 L 705.306,174.483 L 705.352,174.52 L 705.366,174.597 L 705.347,174.668 L 705.294,174.788 L 705.273,174.89 L 705.26,175.012 L 705.264,175.146 L 705.316,175.37 L 705.381,175.464 L 705.453,175.537 L 705.577,175.68 L 705.676,175.803 L 705.757,175.978 L 706.021,176.394 L 706.086,176.48 L 706.181,176.576 L 706.25,176.623 L 706.327,176.666 L 706.396,176.707 L 706.51,176.748 L 706.894,176.829 L 706.955,176.836 L 707.035,176.824 L 707.615,176.735 L 707.674,176.741 L 707.741,176.754 L 707.8,176.778 L 707.937,176.803 L 707.956,176.924 L 707.96,176.997 L 707.924,177.253 L 707.901,177.405 L 707.882,177.609 L 707.86,177.785 L 707.874,178.013 L 707.926,178.201 L 707.986,178.4 L 708.012,178.512 L 708.026,178.618 L 708.037,178.724 L 708.017,178.805 L 707.977,178.894 L 707.866,179.138 L 707.719,179.426 L 707.622,179.572 L 707.534,179.684 L 707.475,179.828 L 707.45,179.954 L 707.416,180.135 L 707.405,180.244 L 707.401,180.368 L 707.41,180.585 L 707.399,180.769 L 707.366,180.946 L 707.287,181.147 L 707.183,181.346 L 707.092,181.518 L 707.027,181.632 L 706.931,181.721 L 706.819,181.793 L 706.716,181.86 L 706.588,181.91 L 706.474,181.92 L 706.187,181.976 L 705.983,182.074 L 705.844,182.169 L 705.754,182.266 L 705.693,182.368 L 705.647,182.484 L 705.475,182.668 L 705.281,182.874 L 705.257,182.943 L 705.25,183.009 L 702.965,181.735 L 702.921,181.807 L 702.767,181.734 L 702.531,181.622 L 702.271,181.485 L 701.897,181.218 L 701.757,181.237 L 701.597,181.266 L 701.438,181.245 L 701.184,181.072 L 700.945,180.891 L 700.993,180.832 L 700.926,180.785 L 700.816,180.713 L 700.667,180.645 L 700.54,180.605 L 700.338,180.552 L 699.95,180.233 L 699.854,180.203 L 699.919,180.138 L 699.665,180.034 L 699.131,179.778 L 698.3,179.361 L 697.787,179.114 L 697.245,178.866 L 696.986,178.77 L 696.786,178.686 L 696.547,178.607 L 696.347,178.556 L 695.891,178.457 L 695.624,178.402 L 695.38,178.339 L 695.223,178.311 L 695.017,178.24 L 694.823,178.158 L 694.503,178.026 L 694.205,177.888 L 693.919,177.756 L 693.576,177.589 L 693.022,177.29 L 692.753,177.144 L 692.483,176.998 L 692.224,176.873 L 691.971,176.759 L 691.69,176.649 L 691.066,176.434 L 690.827,176.345 L 690.668,176.301 L 690.556,176.271 L 690.911,175.722 L 691.669,174.689 L 692.733,173.308 L 694.38,170.979 L 695.206,169.622 L 703.472,169.753"/></g></svg>