<svg xmlns="http://www.w3.org/2000/svg" role="img" viewBox="892.02 143.77 78.71 96.46"><title>Ashburnham</title><path fill-rule="evenodd" d="M944.60027 147.65512l.91692 5.91267 12.9048 13.0232 2.73491 2.73605 2.33192-.36541 1.14106 3.57848-.1947.01358 3.62013 3.58618.7607 5.7132-1.23161 26.37198-.1698 3.69258-5.77094 3.09263-3.3711 1.71384-4.30838 2.25721.81504 2.01496-1.77045.75844.33054.81051-5.22984 2.18024-.42337-1.00975-1.80667.79467.37583.86258-8.84319 3.80126-.41657-.90334-.87164.3328.06112-.32148-8.76847 4.59592-10.32384 5.4087-2.73265-5.31814 1.0754-.61354-1.70705-3.94616.83315-.42563-1.03465-2.05571-2.4904.33734-9.56993-11.61432-1.55536-1.84516-5.87056-.18565.0249-1.80667 3.02471-65.04835 30.21987 1.1954 17.29017.6749" fill="#fefee9" fill-opacity="1" stroke="#000" stroke-linecap="square" stroke-linejoin="bevel" stroke-opacity="1" stroke-width=".22187199999999999"/></svg>