<svg xmlns="http://www.w3.org/2000/svg" role="img" viewBox="1159.29 475.29 63.05 49.80"><title>Ashland</title><g id="g14955" fill="#fefee9" fill-opacity="1" fill-rule="evenodd" stroke="#000" stroke-linecap="square" stroke-linejoin="bevel" stroke-opacity="1" stroke-width=".098" transform="translate(-216.714 -21.7) scale(2.264)"><path id="path15563" fill-rule="evenodd" d="M 614.933,220.14 L 624.207,223.856 L 634.839,231.358 L 635.029,233.841 L 635.089,235.091 L 634.648,237.943 L 622.624,240.501 L 620.508,240.949 L 617.703,240.332 L 617.78,234.934 L 614.321,233.848 L 614.138,233.848 L 608.389,232.115 L 608.529,228.22 L 608.647,228.219 L 608.748,228.207 L 608.842,228.194 L 608.919,228.171 L 608.976,228.154 L 609.026,228.105 L 609.062,228.056 L 609.114,227.99 L 609.167,227.941 L 609.221,227.912 L 609.288,227.889 L 609.355,227.878 L 609.432,227.851 L 609.538,227.831 L 609.658,227.832 L 609.772,227.843 L 609.908,227.856 L 610.002,227.859 L 610.091,227.852 L 610.185,227.835 L 610.276,227.824 L 610.39,227.823 L 610.472,227.851 L 610.586,227.911 L 610.818,228.067 L 610.926,228.163 L 610.984,228.234 L 611.06,228.305 L 611.116,228.363 L 611.175,228.407 L 611.236,228.415 L 611.307,228.402 L 611.4,228.366 L 611.475,228.353 L 611.572,228.405 L 611.564,228.489 L 611.538,228.544 L 611.525,228.632 L 611.558,228.684 L 611.609,228.738 L 611.667,228.77 L 611.682,228.839 L 611.719,228.906 L 611.805,228.932 L 611.899,228.974 L 611.972,228.999 L 612.052,229.017 L 612.149,229.038 L 612.318,229.02 L 612.371,228.995 L 612.48,228.939 L 612.579,228.898 L 612.638,228.856 L 612.676,228.207 L 612.704,225.971 L 614.329,221.784 L 614.933,220.14"/></g></svg>