<svg xmlns="http://www.w3.org/2000/svg" role="img" viewBox="209.74 427.49 98.28 85.91"><title>Becket</title><g id="g14955" fill="#fefee9" fill-opacity="1" fill-rule="evenodd" stroke="#000" stroke-linecap="square" stroke-linejoin="bevel" stroke-opacity="1" stroke-width=".098" transform="translate(-216.714 -21.7) scale(2.264)"><path id="path15491" fill-rule="evenodd" d="M 214.714,199.312 L 214.982,202.841 L 214.972,202.942 L 215.014,203.007 L 215.092,203.07 L 215.152,203.118 L 215.26,203.187 L 215.433,203.295 L 215.581,203.365 L 215.645,203.423 L 215.707,203.471 L 215.785,203.514 L 215.849,203.569 L 215.961,203.65 L 216.086,203.731 L 216.33,203.901 L 216.431,203.968 L 216.499,204.026 L 216.557,204.067 L 216.726,204.168 L 216.919,204.245 L 216.978,204.258 L 217.079,204.305 L 217.175,204.358 L 217.239,204.397 L 217.299,204.439 L 217.367,204.499 L 217.433,204.54 L 217.503,204.575 L 217.584,204.636 L 217.644,204.672 L 217.704,204.723 L 217.784,204.793 L 217.841,204.861 L 217.976,205.076 L 218.053,205.2 L 218.092,205.281 L 218.138,205.339 L 218.194,205.388 L 218.272,205.444 L 218.334,205.5 L 218.38,205.541 L 218.444,205.597 L 218.518,205.638 L 218.593,205.631 L 218.654,205.625 L 218.734,205.658 L 218.786,205.684 L 218.851,205.703 L 218.909,205.752 L 218.963,205.79 L 219.019,205.834 L 219.103,205.895 L 219.168,205.959 L 219.218,206.043 L 219.267,206.16 L 219.289,206.216 L 219.327,206.303 L 219.4,206.383 L 219.492,206.41 L 219.572,206.42 L 219.635,206.423 L 219.725,206.374 L 219.812,206.344 L 219.893,206.32 L 219.97,206.294 L 220.052,206.24 L 220.116,206.184 L 220.178,206.154 L 220.231,206.131 L 220.316,206.125 L 220.389,206.121 L 220.475,206.13 L 220.546,206.128 L 220.636,206.134 L 220.684,206.192 L 220.721,206.257 L 220.743,206.319 L 220.779,206.39 L 220.811,206.454 L 220.849,206.533 L 220.881,206.597 L 220.913,206.674 L 220.921,206.757 L 220.9,206.822 L 220.885,206.894 L 220.936,207.251 L 220.965,207.573 L 220.97,207.699 L 220.983,207.756 L 221,207.812 L 221.038,207.877 L 221.07,207.929 L 221.143,207.987 L 221.202,208.01 L 221.323,208.083 L 221.398,208.13 L 221.766,208.446 L 222.007,208.679 L 222.059,208.726 L 222.12,208.804 L 222.157,208.855 L 222.197,208.923 L 222.235,208.969 L 222.287,209.025 L 222.319,209.075 L 222.365,209.172 L 222.391,209.23 L 222.427,209.298 L 222.475,209.373 L 222.512,209.445 L 222.566,209.534 L 222.61,209.604 L 222.675,209.676 L 222.724,209.76 L 222.767,209.802 L 222.827,209.851 L 222.891,209.899 L 222.961,209.942 L 223.101,210.003 L 223.196,210.076 L 223.276,210.111 L 223.334,210.146 L 223.428,210.195 L 223.53,210.207 L 223.618,210.236 L 223.704,210.267 L 223.772,210.29 L 223.86,210.315 L 223.934,210.35 L 223.988,210.381 L 224.067,210.412 L 224.163,210.414 L 224.253,210.358 L 224.341,210.291 L 224.401,210.222 L 224.478,210.119 L 224.548,210.061 L 224.623,210.029 L 224.681,210.011 L 224.77,209.987 L 224.855,209.959 L 224.912,209.944 L 224.991,209.918 L 225.055,209.906 L 225.139,209.907 L 225.231,209.923 L 225.315,209.966 L 225.395,210.019 L 225.453,210.069 L 225.503,210.119 L 225.564,210.185 L 225.612,210.247 L 225.678,210.302 L 225.731,210.326 L 225.815,210.336 L 225.884,210.339 L 225.98,210.333 L 226.035,210.285 L 226.108,210.243 L 226.168,210.191 L 226.207,210.143 L 226.256,210.061 L 226.305,209.973 L 226.336,209.891 L 226.357,209.823 L 226.386,209.749 L 226.419,209.69 L 226.457,209.63 L 226.494,209.567 L 226.544,209.513 L 226.62,209.481 L 226.698,209.485 L 226.763,209.494 L 226.864,209.559 L 226.923,209.629 L 226.998,209.713 L 227.054,209.785 L 227.1,209.851 L 227.159,209.939 L 227.23,210.044 L 227.345,210.265 L 227.411,210.422 L 227.476,210.519 L 227.554,210.623 L 227.611,210.715 L 227.657,210.808 L 227.7,210.896 L 227.762,210.97 L 227.87,211.051 L 227.953,211.117 L 227.991,211.177 L 228.026,211.237 L 228.064,211.302 L 228.098,211.364 L 228.167,211.454 L 228.232,211.534 L 228.308,211.585 L 228.377,211.637 L 228.44,211.658 L 228.503,211.669 L 228.589,211.669 L 228.656,211.676 L 228.729,211.664 L 228.804,211.64 L 228.864,211.623 L 228.947,211.595 L 229.018,211.596 L 229.087,211.6 L 229.159,211.605 L 229.248,211.597 L 229.359,211.532 L 229.413,211.504 L 229.487,211.462 L 229.533,211.41 L 229.513,211.317 L 229.478,211.2 L 229.456,211.137 L 229.434,211.081 L 229.427,211 L 229.446,210.945 L 229.479,210.863 L 229.587,210.777 L 229.649,210.735 L 229.744,210.693 L 229.845,210.664 L 229.927,210.601 L 229.972,210.548 L 229.995,210.472 L 230.002,210.393 L 230.018,210.331 L 230.033,210.262 L 230.038,210.201 L 230.039,210.126 L 230.039,210.034 L 230.055,209.942 L 230.116,209.85 L 230.192,209.795 L 230.262,209.753 L 230.327,209.707 L 230.356,209.654 L 230.417,209.439 L 230.465,209.318 L 230.489,209.228 L 230.521,209.169 L 230.628,209.069 L 230.68,209.029 L 230.759,208.977 L 230.912,208.908 L 230.118,230.119 L 229.492,229.995 L 229.408,230.454 L 228.491,234.444 L 221.247,235.081 L 221.119,233.692 L 207.252,235.512 L 206.891,231.614 L 199.668,232.317 L 199.689,232.205 L 199.708,232.12 L 199.745,232.006 L 199.708,231.921 L 199.643,231.844 L 199.628,231.753 L 199.615,231.672 L 199.605,231.615 L 199.598,231.528 L 199.581,231.447 L 199.557,231.37 L 199.552,231.293 L 199.516,231.241 L 199.445,231.182 L 199.409,231.122 L 199.374,231.033 L 199.35,230.948 L 199.305,230.845 L 199.279,230.793 L 199.252,230.74 L 199.195,230.666 L 199.16,230.582 L 199.154,230.481 L 199.165,230.393 L 199.208,230.186 L 199.26,230.03 L 199.326,229.984 L 199.411,229.949 L 199.482,229.905 L 199.524,229.857 L 199.621,229.746 L 199.67,229.681 L 199.708,229.615 L 199.715,229.557 L 199.715,229.479 L 199.713,229.409 L 199.716,229.335 L 199.686,229.262 L 199.662,229.174 L 199.629,229.08 L 199.597,228.99 L 198.751,229.138 L 194.286,229.799 L 189.263,230.555 L 189.276,229.701 L 189.708,217.132 L 190.06,211.078 L 190.341,202.328 L 199.289,201.168 L 208.331,200.096 L 214.714,199.312"/></g></svg>