<svg xmlns="http://www.w3.org/2000/svg" role="img" viewBox="608.92 417.43 86.28 140.40"><title>Belchertown</title><g id="g14955" fill="#fefee9" fill-opacity="1" fill-rule="evenodd" stroke="#000" stroke-linecap="square" stroke-linejoin="bevel" stroke-opacity="1" stroke-width=".098" transform="translate(-216.714 -21.7) scale(2.264)"><path id="path15475" fill-rule="evenodd" d="M 395.74,201.568 L 395.791,201.627 L 395.828,201.672 L 395.843,201.746 L 395.844,201.833 L 395.897,201.869 L 395.956,201.865 L 395.997,201.817 L 396.088,201.77 L 396.112,201.849 L 396.087,201.917 L 396.043,201.991 L 396.051,202.072 L 396.111,202.118 L 396.17,202.11 L 396.229,202.103 L 396.242,202.182 L 396.179,202.244 L 396.174,202.317 L 396.231,202.366 L 396.311,202.399 L 396.372,202.437 L 396.373,202.501 L 396.336,202.552 L 396.255,202.579 L 396.213,202.638 L 396.279,202.717 L 396.371,202.751 L 396.424,202.787 L 396.362,202.83 L 396.291,202.849 L 396.328,202.91 L 396.337,203.002 L 396.354,203.089 L 396.417,203.151 L 396.46,203.2 L 396.498,203.253 L 396.536,203.195 L 396.521,203.126 L 396.569,203.089 L 396.621,203.156 L 396.668,203.202 L 396.703,203.275 L 396.646,203.298 L 396.68,203.389 L 396.733,203.43 L 396.796,203.413 L 396.831,203.476 L 396.828,203.553 L 396.847,203.632 L 396.77,203.677 L 396.789,203.734 L 396.694,203.81 L 396.751,203.879 L 396.821,203.935 L 396.84,204.002 L 396.775,204.035 L 396.712,204.005 L 396.68,204.071 L 396.657,204.152 L 396.595,204.09 L 396.53,204.107 L 396.561,204.169 L 396.57,204.238 L 396.522,204.312 L 396.478,204.363 L 396.432,204.429 L 396.412,204.518 L 396.381,204.626 L 396.384,204.687 L 396.395,204.764 L 396.438,204.86 L 396.512,204.92 L 396.582,204.976 L 396.627,205.073 L 396.644,205.14 L 396.667,205.195 L 396.7,205.251 L 396.782,205.34 L 396.791,205.405 L 396.706,205.406 L 396.651,205.36 L 396.595,205.326 L 396.57,205.381 L 396.542,205.456 L 396.487,205.41 L 396.443,205.368 L 396.411,205.425 L 396.388,205.496 L 396.336,205.562 L 396.401,205.616 L 396.46,205.64 L 396.506,205.69 L 396.447,205.772 L 396.387,205.815 L 396.324,205.875 L 396.268,205.912 L 396.199,205.968 L 396.155,206.043 L 396.241,206.093 L 396.329,206.101 L 396.39,206.137 L 396.413,206.228 L 396.42,206.299 L 396.455,206.368 L 396.474,206.443 L 396.387,206.501 L 396.315,206.524 L 396.345,206.575 L 396.373,206.648 L 396.444,206.712 L 396.524,206.724 L 396.595,206.735 L 396.612,206.794 L 396.584,206.856 L 396.649,206.906 L 396.743,206.954 L 396.762,207.015 L 396.701,207.038 L 396.614,207.028 L 396.535,207.056 L 396.478,207.097 L 396.392,207.151 L 396.339,207.226 L 396.238,207.207 L 396.142,207.208 L 396.075,207.241 L 396.023,207.286 L 395.973,207.342 L 395.953,207.415 L 396.023,207.479 L 396.094,207.505 L 396.14,207.57 L 396.12,207.656 L 396.121,207.749 L 396.15,207.822 L 396.153,207.883 L 396.092,207.913 L 396.033,207.949 L 396.083,208.006 L 396.146,208.022 L 396.199,208.062 L 396.202,208.146 L 396.251,208.206 L 396.284,208.261 L 396.252,208.31 L 396.164,208.382 L 396.093,208.452 L 396.039,208.542 L 395.982,208.68 L 395.948,208.744 L 395.916,208.813 L 395.839,208.847 L 395.741,208.843 L 395.714,208.917 L 395.698,208.992 L 395.741,209.031 L 395.798,208.989 L 395.873,209.013 L 395.878,209.074 L 395.826,209.146 L 395.751,209.215 L 395.705,209.307 L 395.779,209.374 L 395.815,209.481 L 395.838,209.554 L 395.821,209.658 L 395.775,209.725 L 395.722,209.777 L 395.703,209.881 L 395.759,209.953 L 395.826,210.004 L 395.869,210.048 L 395.874,210.125 L 395.837,210.282 L 395.793,210.388 L 395.766,210.445 L 395.709,210.501 L 395.62,210.528 L 395.527,210.553 L 395.456,210.623 L 395.441,210.686 L 395.438,210.757 L 395.456,210.82 L 395.466,210.917 L 395.369,210.983 L 395.3,211.035 L 395.252,211.08 L 395.236,211.141 L 395.279,211.181 L 395.332,211.227 L 395.372,211.286 L 395.371,211.38 L 395.335,211.469 L 395.291,211.557 L 395.241,211.659 L 395.258,211.714 L 395.319,211.705 L 395.4,211.7 L 395.385,211.778 L 395.303,211.779 L 395.243,211.799 L 395.19,211.849 L 395.157,211.926 L 395.141,211.989 L 395.052,212.01 L 394.979,211.997 L 394.899,212 L 394.849,212.047 L 394.864,212.106 L 394.814,212.159 L 394.75,212.147 L 394.698,212.186 L 394.727,212.253 L 394.746,212.316 L 394.739,212.381 L 394.802,212.439 L 394.777,212.523 L 394.72,212.582 L 394.604,212.569 L 394.533,212.548 L 394.472,212.544 L 394.403,212.549 L 394.33,212.562 L 394.3,212.661 L 394.348,212.73 L 394.393,212.801 L 394.424,212.86 L 394.355,212.876 L 394.287,212.922 L 394.359,212.982 L 394.418,213 L 394.467,213.034 L 394.52,213.087 L 394.569,213.149 L 394.629,213.202 L 394.676,213.268 L 394.716,213.359 L 394.72,213.431 L 394.723,213.516 L 394.75,213.583 L 394.81,213.621 L 394.862,213.588 L 394.931,213.557 L 394.988,213.57 L 395.021,213.633 L 395.012,213.715 L 395.033,213.778 L 395.106,213.832 L 395.151,213.878 L 395.146,213.952 L 395.133,214.023 L 395.16,214.102 L 395.21,214.213 L 395.241,214.303 L 395.284,214.387 L 395.36,214.423 L 395.451,214.438 L 395.507,214.477 L 395.589,214.525 L 395.684,214.545 L 395.772,214.57 L 395.833,214.596 L 395.917,214.628 L 395.974,214.662 L 396.027,214.698 L 396.054,214.765 L 396.002,214.859 L 395.934,214.949 L 395.878,215.074 L 395.828,215.158 L 395.797,215.258 L 395.773,215.366 L 395.746,215.513 L 395.731,215.608 L 395.726,215.745 L 395.766,215.846 L 395.826,215.923 L 395.897,215.961 L 396.005,215.97 L 396.115,215.969 L 396.206,215.977 L 396.318,216.014 L 396.394,216.038 L 396.49,216.094 L 396.581,216.084 L 396.64,216.085 L 396.701,216.084 L 396.776,216.121 L 396.779,216.181 L 396.708,216.207 L 396.627,216.226 L 396.518,216.259 L 396.469,216.304 L 396.444,216.367 L 396.394,216.478 L 396.366,216.584 L 396.343,216.668 L 396.331,216.757 L 396.314,216.826 L 396.294,216.904 L 396.289,216.977 L 396.287,217.042 L 396.341,217.121 L 396.4,217.151 L 396.529,217.193 L 396.594,217.211 L 396.683,217.238 L 396.749,217.27 L 396.808,217.3 L 396.874,217.369 L 396.953,217.426 L 397.033,217.435 L 397.122,217.42 L 397.207,217.434 L 397.309,217.451 L 397.333,217.587 L 397.304,217.754 L 397.267,218.166 L 397.257,218.367 L 397.251,218.567 L 397.241,218.653 L 397.22,218.736 L 397.135,219.014 L 397.079,219.24 L 396.99,219.487 L 396.95,219.642 L 396.927,219.728 L 396.907,219.819 L 396.892,219.93 L 396.875,220.027 L 396.861,220.097 L 396.826,220.217 L 396.738,220.417 L 396.723,220.517 L 396.702,220.605 L 396.715,220.722 L 396.724,220.781 L 396.751,220.856 L 396.809,220.941 L 396.894,221 L 396.99,221.027 L 397.127,221.071 L 397.192,221.099 L 397.247,221.135 L 397.319,221.167 L 397.378,221.183 L 397.479,221.188 L 397.569,221.206 L 397.664,221.221 L 397.728,221.237 L 397.785,221.257 L 397.85,221.291 L 397.934,221.341 L 398.071,221.429 L 398.294,221.604 L 398.417,221.743 L 398.532,221.854 L 398.636,221.915 L 398.724,221.95 L 398.844,221.966 L 398.96,221.969 L 399.029,221.96 L 399.177,221.977 L 399.249,222.009 L 399.344,222.037 L 399.422,222.085 L 399.489,222.133 L 399.551,222.179 L 399.598,222.242 L 399.646,222.327 L 399.694,222.426 L 399.8,222.535 L 399.852,222.64 L 399.87,222.797 L 399.843,222.931 L 399.822,223.088 L 399.787,223.284 L 399.768,223.414 L 399.756,223.599 L 399.744,223.819 L 399.752,224.036 L 399.755,224.199 L 399.777,224.282 L 399.835,224.412 L 399.909,224.501 L 399.985,224.573 L 400.087,224.637 L 400.252,224.711 L 400.358,224.743 L 400.466,224.795 L 400.643,224.84 L 400.823,224.887 L 400.947,224.901 L 401.034,224.906 L 401.093,224.92 L 401.189,224.961 L 401.255,225.008 L 401.345,225.074 L 401.406,225.147 L 401.448,225.209 L 401.501,225.264 L 401.533,225.381 L 401.572,225.446 L 401.587,225.515 L 401.589,225.588 L 401.588,225.653 L 401.577,225.765 L 401.372,226.424 L 401.303,226.609 L 401.217,226.773 L 401.177,226.844 L 401.087,226.967 L 401.012,227.029 L 400.974,227.09 L 400.926,227.149 L 400.857,227.298 L 400.831,227.384 L 400.836,227.463 L 400.833,227.53 L 400.858,227.605 L 400.883,227.666 L 400.928,227.732 L 400.967,227.791 L 400.994,227.862 L 401.02,227.973 L 401.037,228.057 L 401.044,228.169 L 401.039,228.262 L 401.042,228.327 L 401.02,228.404 L 401.004,228.478 L 400.958,228.541 L 400.886,228.574 L 400.819,228.569 L 400.753,228.565 L 400.668,228.554 L 400.595,228.532 L 400.524,228.529 L 400.398,228.536 L 400.263,228.637 L 400.168,228.751 L 400.11,228.815 L 400.062,228.88 L 400.01,228.964 L 399.978,229.023 L 399.966,229.098 L 399.959,229.188 L 399.989,229.283 L 400.026,229.346 L 400.051,229.4 L 400.094,229.457 L 400.176,229.521 L 400.227,229.563 L 400.181,229.615 L 400.055,229.614 L 399.99,229.614 L 399.907,229.619 L 399.85,229.65 L 399.826,229.709 L 399.803,229.797 L 399.816,229.88 L 399.894,229.924 L 400.091,230.004 L 400.163,230.037 L 400.218,230.068 L 400.264,230.15 L 400.287,230.227 L 400.262,230.349 L 400.252,230.419 L 400.257,230.508 L 400.322,230.676 L 400.345,230.796 L 400.344,230.912 L 400.334,231.042 L 400.37,231.2 L 400.42,231.324 L 400.452,231.462 L 400.563,231.812 L 400.684,232.183 L 400.701,232.262 L 400.706,232.339 L 400.736,232.435 L 400.749,232.567 L 400.737,232.794 L 400.731,232.873 L 400.732,232.936 L 400.726,233.018 L 400.713,233.107 L 400.707,233.187 L 400.687,233.264 L 400.67,233.339 L 400.648,233.394 L 400.637,233.453 L 400.639,233.567 L 400.645,233.642 L 400.646,233.704 L 400.674,233.763 L 400.71,233.823 L 400.748,233.912 L 400.816,234.01 L 400.87,234.093 L 400.938,234.183 L 400.979,234.253 L 401.001,234.32 L 400.992,234.405 L 400.931,234.454 L 400.864,234.477 L 400.793,234.492 L 400.738,234.515 L 400.68,234.545 L 400.643,234.602 L 400.627,234.665 L 400.608,234.742 L 400.594,234.807 L 400.596,234.87 L 400.608,234.937 L 400.634,235.01 L 400.657,235.064 L 400.675,235.125 L 400.688,235.202 L 400.709,235.371 L 400.725,235.47 L 400.726,235.571 L 400.727,235.641 L 400.701,235.747 L 400.712,235.811 L 400.741,235.909 L 400.807,235.996 L 400.931,236.155 L 400.958,236.225 L 400.99,236.384 L 401.114,237.005 L 401.128,237.096 L 401.141,237.194 L 401.151,237.297 L 401.134,237.401 L 401.104,237.487 L 401.075,237.595 L 401.061,237.693 L 401.064,237.821 L 401.068,237.914 L 401.107,237.959 L 401.098,238.026 L 401.095,238.104 L 401.055,238.197 L 401.028,238.259 L 400.988,238.333 L 400.942,238.386 L 400.888,238.441 L 400.83,238.518 L 400.8,238.591 L 400.788,238.685 L 400.823,238.776 L 400.81,238.86 L 400.783,238.957 L 400.77,239.027 L 400.771,239.11 L 400.81,239.378 L 400.821,239.48 L 400.83,239.542 L 400.831,239.609 L 400.84,239.67 L 400.846,239.764 L 400.839,239.835 L 400.824,239.953 L 400.787,240.057 L 400.731,240.149 L 400.595,240.277 L 400.543,240.345 L 400.507,240.394 L 400.469,240.457 L 400.448,240.512 L 400.455,240.604 L 400.473,240.703 L 400.49,240.776 L 400.479,240.872 L 400.448,240.958 L 400.379,241.081 L 400.355,241.134 L 400.294,241.271 L 400.259,241.371 L 400.212,241.513 L 400.183,241.605 L 400.148,241.717 L 400.146,241.779 L 400.137,241.862 L 400.126,241.921 L 400.136,242.029 L 400.159,242.11 L 400.207,242.186 L 400.263,242.267 L 400.309,242.334 L 400.359,242.394 L 400.415,242.464 L 400.434,242.529 L 400.448,242.643 L 400.433,242.749 L 400.41,242.829 L 400.384,242.914 L 400.331,243.017 L 400.326,243.092 L 400.306,243.148 L 400.265,243.247 L 400.221,243.333 L 400.173,243.379 L 400.095,243.421 L 399.985,243.457 L 399.886,243.462 L 399.816,243.471 L 399.59,243.457 L 399.434,243.447 L 399.23,243.46 L 398.983,243.502 L 398.812,243.541 L 398.711,243.564 L 398.656,243.586 L 398.587,243.621 L 398.521,243.664 L 398.466,243.696 L 398.4,243.737 L 398.348,243.787 L 398.307,243.836 L 398.251,243.91 L 398.216,243.963 L 398.164,244.058 L 398.128,244.115 L 398.094,244.174 L 398.02,244.243 L 397.959,244.272 L 397.873,244.34 L 397.81,244.386 L 397.746,244.462 L 397.718,244.523 L 397.703,244.58 L 397.692,244.737 L 397.684,244.865 L 397.7,244.965 L 397.751,245.145 L 397.835,245.498 L 397.844,245.559 L 397.845,245.655 L 397.822,245.787 L 397.795,245.859 L 397.759,245.93 L 397.731,245.984 L 397.697,246.037 L 397.648,246.127 L 397.624,246.191 L 397.601,246.266 L 397.585,246.34 L 397.564,246.415 L 397.542,246.476 L 397.5,246.516 L 397.423,246.569 L 397.359,246.59 L 397.3,246.583 L 397.187,246.566 L 397.085,246.553 L 397.027,246.562 L 396.945,246.561 L 396.848,246.571 L 396.783,246.62 L 396.766,246.694 L 396.767,246.761 L 396.762,246.856 L 396.74,246.915 L 396.713,246.969 L 396.659,247.073 L 396.581,247.155 L 396.489,247.262 L 396.427,247.338 L 396.364,247.41 L 396.308,247.474 L 396.23,247.54 L 396.161,247.582 L 396.064,247.656 L 395.973,247.641 L 395.904,247.648 L 395.828,247.628 L 395.748,247.556 L 395.684,247.514 L 395.632,247.427 L 395.594,247.318 L 395.558,247.233 L 395.539,247.178 L 395.504,247.104 L 395.429,247.015 L 395.374,246.975 L 395.29,246.931 L 395.235,246.912 L 395.178,246.888 L 395.112,246.875 L 395.019,246.876 L 394.952,246.903 L 394.885,246.951 L 394.835,247 L 394.793,247.047 L 394.747,247.107 L 394.681,247.183 L 394.658,247.271 L 394.594,247.338 L 394.55,247.437 L 394.48,247.519 L 394.421,247.66 L 394.376,247.801 L 394.345,247.862 L 394.293,247.93 L 394.252,247.979 L 394.214,248.024 L 394.168,248.069 L 394.12,248.107 L 394.043,248.152 L 393.952,248.182 L 393.881,248.193 L 393.785,248.151 L 393.74,248.101 L 393.67,248.051 L 393.557,248.022 L 393.47,247.997 L 393.394,247.971 L 393.33,247.891 L 393.335,247.823 L 393.373,247.776 L 393.421,247.731 L 393.478,247.722 L 393.541,247.689 L 393.613,247.651 L 393.651,247.6 L 393.64,247.511 L 393.574,247.479 L 393.468,247.466 L 393.337,247.386 L 393.28,247.367 L 393.207,247.38 L 393.152,247.397 L 393.089,247.43 L 393.041,247.473 L 392.995,247.511 L 392.945,247.58 L 392.904,247.687 L 392.892,247.76 L 392.886,247.853 L 392.877,247.986 L 392.947,248.714 L 392.952,248.775 L 392.951,248.842 L 392.948,248.916 L 392.961,248.995 L 393.029,249.089 L 393.112,249.164 L 393.201,249.254 L 393.245,249.323 L 393.285,249.421 L 393.294,249.48 L 393.318,249.604 L 393.329,249.689 L 393.347,249.77 L 393.374,249.843 L 393.398,249.91 L 393.428,250.015 L 393.447,250.105 L 393.454,250.182 L 393.455,250.249 L 393.45,250.324 L 393.451,250.397 L 393.452,250.46 L 393.435,250.519 L 393.421,250.587 L 393.392,250.646 L 393.313,250.7 L 393.232,250.705 L 393.181,250.734 L 393.142,250.818 L 393.141,250.916 L 393.177,251.017 L 393.263,251.046 L 393.383,251.059 L 393.448,251.046 L 393.531,251.035 L 393.61,251.012 L 393.689,250.986 L 393.764,250.979 L 393.845,250.99 L 393.899,251.014 L 393.991,251.101 L 394.055,251.163 L 394.121,251.246 L 394.162,251.316 L 394.187,251.379 L 394.19,251.444 L 394.201,251.519 L 394.209,251.627 L 394.242,251.714 L 394.282,251.791 L 394.325,251.864 L 394.32,251.941 L 394.292,251.999 L 394.229,252.026 L 394.136,252.011 L 394.08,251.985 L 393.997,251.941 L 393.933,251.911 L 393.862,251.892 L 393.789,251.891 L 393.734,251.926 L 393.688,251.998 L 393.677,252.1 L 393.682,252.222 L 393.802,252.662 L 393.828,252.815 L 393.866,252.993 L 393.892,253.137 L 393.917,253.219 L 393.948,253.286 L 394.002,253.352 L 394.086,253.422 L 394.19,253.431 L 394.365,253.434 L 394.426,253.43 L 394.463,253.434 L 394.512,253.438 L 394.541,253.446 L 394.541,253.458 L 394.257,253.5 L 390.346,254.104 L 384.938,254.768 L 382.937,238.894 L 371.913,240.354 L 370.736,232.483 L 367.844,212.506 L 365.962,197.512 L 382.035,195.196 L 382.986,202.853 L 386.023,202.344 L 385.993,201.94 L 389.375,201.512 L 390.846,201.536 L 395.74,201.568"/></g></svg>