<svg xmlns="http://www.w3.org/2000/svg" role="img" viewBox="1170.02 594.77 39.70 96.33"><title>Bellingham</title><g id="g14955" fill="#fefee9" fill-opacity="1" fill-rule="evenodd" stroke="#000" stroke-linecap="square" stroke-linejoin="bevel" stroke-opacity="1" stroke-width=".098" transform="translate(-216.714 -21.7) scale(2.264)"><path id="path15755" fill-rule="evenodd" d="M 629.197,273.523 L 629.129,273.574 L 629.068,273.584 L 628.964,273.584 L 628.885,273.633 L 628.845,273.688 L 628.81,273.78 L 628.894,273.839 L 628.955,273.843 L 629.026,273.889 L 629.031,273.963 L 628.974,274.044 L 628.941,274.119 L 628.994,274.172 L 629.013,274.316 L 628.964,274.353 L 628.901,274.41 L 628.926,274.492 L 628.999,274.496 L 629.085,274.524 L 629.04,274.614 L 628.981,274.644 L 628.9,274.665 L 628.841,275.562 L 628.746,276.863 L 628.586,279.565 L 627.931,284.77 L 626.526,291.074 L 626.087,294.906 L 625.694,294.911 L 625.516,298.181 L 625.805,298.162 L 625.852,301.962 L 625.815,304.756 L 625.535,307.887 L 624.961,313.799 L 614.663,314.003 L 614.651,297.607 L 614.639,288.517 L 614.656,288.414 L 614.678,288.334 L 614.703,288.243 L 614.716,288.16 L 614.715,288.082 L 614.697,287.983 L 614.671,287.856 L 614.668,287.779 L 614.67,287.684 L 614.679,287.58 L 614.702,287.476 L 614.75,287.393 L 614.84,287.194 L 614.883,287.116 L 614.917,287.026 L 614.925,286.969 L 614.891,286.918 L 614.82,286.869 L 614.818,286.808 L 614.833,286.739 L 614.862,286.672 L 614.903,286.613 L 614.968,286.553 L 615.011,286.512 L 615.075,286.429 L 615.108,286.354 L 615.117,286.275 L 615.135,286.218 L 615.174,286.169 L 615.226,286.101 L 615.236,286.04 L 615.255,285.969 L 615.296,285.918 L 615.333,285.833 L 615.338,285.762 L 615.344,285.699 L 615.339,285.609 L 615.316,285.556 L 615.291,285.485 L 615.301,285.408 L 615.251,285.369 L 615.239,285.298 L 615.255,285.235 L 615.199,285.191 L 615.11,285.14 L 615.071,285.089 L 615.074,285.012 L 615.06,284.949 L 614.976,284.928 L 614.893,284.891 L 614.9,284.824 L 614.955,284.806 L 614.955,284.739 L 614.9,284.714 L 614.809,284.679 L 614.75,284.64 L 614.688,284.593 L 614.588,284.551 L 614.525,284.543 L 614.45,284.532 L 614.299,284.491 L 614.247,284.252 L 613.848,282.975 L 613.794,282.91 L 613.739,282.887 L 613.669,282.838 L 613.666,282.775 L 613.682,282.706 L 613.707,282.647 L 613.736,282.568 L 613.681,282.513 L 613.628,282.47 L 613.592,282.413 L 613.58,282.338 L 613.533,282.258 L 613.413,282.178 L 613.412,282.113 L 613.418,282.044 L 613.418,281.971 L 613.406,281.912 L 613.417,281.851 L 613.46,281.778 L 613.515,281.728 L 613.566,281.665 L 613.63,281.548 L 613.675,281.491 L 613.734,281.473 L 613.808,281.412 L 613.839,281.354 L 613.892,281.269 L 613.972,281.176 L 614.007,281.111 L 614.026,281.003 L 613.961,280.946 L 613.888,280.879 L 613.86,280.783 L 613.86,280.708 L 613.858,280.647 L 613.832,280.565 L 613.81,280.486 L 613.812,280.412 L 613.835,280.347 L 613.86,280.262 L 613.874,280.183 L 613.842,280.112 L 613.791,280.042 L 613.767,279.963 L 613.809,279.883 L 613.835,279.827 L 613.827,279.768 L 614.321,279.295 L 616.754,277.059 L 616.975,276.873 L 619.718,274.706 L 628.856,273.19 L 628.89,273.261 L 628.939,273.344 L 629.017,273.389 L 629.084,273.419 L 629.147,273.478 L 629.197,273.523"/></g></svg>