<svg xmlns="http://www.w3.org/2000/svg" role="img" viewBox="1504.63 238.63 84.50 50.38"><title>Beverly</title><g id="g14955" fill="#fefee9" fill-opacity="1" fill-rule="evenodd" stroke="#000" stroke-linecap="square" stroke-linejoin="bevel" stroke-opacity="1" stroke-width=".098" transform="translate(-216.714 -21.7) scale(2.264)"><path id="path15215" d="M 761.097,115.81 L 766.464,115.946 L 773.297,115.907 L 783.251,115.949 L 785.229,118.527 L 787.108,120.349 L 787.445,119.832 L 788.905,119.515 L 789.693,118.127 L 790.505,119.426 L 793.698,123.209 L 793.756,123.279 L 793.798,123.328 L 793.801,123.408 L 793.859,123.494 L 793.909,123.731 L 793.92,123.792 L 793.956,123.862 L 794.004,123.935 L 794.029,123.995 L 794.036,124.084 L 794.021,124.143 L 793.992,124.206 L 793.962,124.303 L 793.945,124.634 L 793.967,124.766 L 793.948,124.965 L 793.75,124.935 L 793.428,125.062 L 792.658,125.274 L 792.229,125.712 L 792.214,125.861 L 792.089,125.939 L 791.869,125.989 L 791.83,126.077 L 791.72,126.118 L 791.569,125.982 L 791.506,125.867 L 791.34,125.853 L 791.254,125.893 L 791.129,126.058 L 790.729,126.249 L 790.564,126.363 L 790.307,126.625 L 790.041,126.862 L 789.643,127.293 L 789.121,127.941 L 788.792,128.236 L 788.557,128.355 L 787.599,128.687 L 787.199,128.885 L 786.776,129.205 L 786.635,129.287 L 786.368,129.36 L 786.116,129.383 L 785.824,129.261 L 785.635,129.295 L 785.4,129.367 L 785.273,129.29 L 785.076,129.252 L 784.886,129.112 L 784.752,129.097 L 784.618,129.129 L 784.438,129.24 L 784.313,129.359 L 784.188,129.533 L 784.008,129.699 L 783.788,129.734 L 783.671,129.806 L 783.576,129.83 L 783.529,129.782 L 783.503,129.5 L 783.361,129.502 L 783.086,129.606 L 782.82,129.843 L 782.656,129.932 L 782.459,129.941 L 782.395,129.785 L 782.285,129.785 L 782.018,129.889 L 781.846,130.111 L 781.563,130.178 L 781.366,130.125 L 781.256,130.116 L 781.201,130.142 L 781.162,130.206 L 781.163,130.386 L 781.125,130.504 L 780.984,130.648 L 780.78,130.719 L 780.638,130.649 L 780.598,130.554 L 780.565,130.422 L 780.36,130.4 L 780.275,130.511 L 780.085,130.489 L 780.006,130.435 L 779.966,130.365 L 779.973,130.222 L 780.004,130.159 L 779.995,129.992 L 780.128,129.914 L 780.127,129.827 L 779.914,129.687 L 779.63,129.674 L 778.751,130.091 L 778.556,130.242 L 778.424,130.488 L 778.425,130.653 L 778.458,130.77 L 778.429,131.062 L 778.313,131.323 L 778.037,131.381 L 777.927,131.325 L 777.91,131.152 L 777.838,131.089 L 777.782,130.988 L 777.727,130.959 L 777.586,131.022 L 777.556,131.29 L 777.455,131.417 L 777.173,131.623 L 777.002,131.877 L 776.869,131.955 L 776.735,131.95 L 776.671,131.815 L 776.669,131.604 L 776.7,131.47 L 776.642,131.14 L 776.436,131.078 L 776.209,131.128 L 776.059,131.191 L 775.981,131.262 L 775.903,131.295 L 775.8,131.233 L 775.664,131.029 L 775.434,130.803 L 775.268,130.749 L 775.204,130.553 L 775.03,130.524 L 774.936,130.548 L 774.779,130.643 L 774.021,131.382 L 773.413,132.039 L 773.036,132.455 L 772.515,133.501 L 772.32,133.72 L 772.234,133.779 L 772.036,133.701 L 771.83,133.465 L 771.68,133.38 L 771.616,133.239 L 771.521,133.208 L 771.198,133.192 L 771.025,133.188 L 770.884,133.323 L 770.805,133.347 L 770.616,133.315 L 770.49,133.356 L 770.42,133.42 L 770.247,133.49 L 770.011,133.445 L 769.853,133.462 L 769.72,133.549 L 769.657,133.536 L 769.57,133.433 L 769.561,133.29 L 769.49,133.252 L 769.158,133.138 L 769.095,133.003 L 769.101,132.839 L 769.156,132.735 L 769.328,132.646 L 769.399,132.569 L 769.382,132.443 L 769.326,132.286 L 769.333,132.221 L 769.419,132.119 L 769.568,132.031 L 769.772,131.817 L 769.96,131.681 L 769.967,131.579 L 769.95,131.375 L 769.996,131.153 L 770.089,130.958 L 770.293,130.837 L 770.284,130.704 L 770.133,130.578 L 770.169,130.028 L 770.238,129.704 L 770.332,129.561 L 770.393,129.38 L 770.534,129.254 L 770.534,129.158 L 770.486,129.042 L 770.366,128.875 L 770.302,128.688 L 769.826,128.212 L 769.77,127.95 L 769.534,127.954 L 769.486,128.001 L 769.479,128.085 L 769.377,128.151 L 769.243,128.145 L 769.18,128.113 L 769.031,128.13 L 768.866,128.265 L 768.883,128.342 L 769.041,128.421 L 769.207,128.577 L 769.366,128.774 L 769.665,128.818 L 770.037,129.083 L 770.204,129.286 L 770.197,129.429 L 769.947,129.768 L 769.879,130.179 L 769.84,130.249 L 769.628,130.299 L 769.668,130.369 L 769.81,130.495 L 769.834,130.55 L 769.827,130.69 L 769.757,130.794 L 769.663,130.84 L 769.513,130.842 L 769.483,130.985 L 769.53,131.049 L 769.492,131.214 L 769.461,131.284 L 769.203,131.632 L 769.031,131.721 L 768.582,131.707 L 768.416,131.668 L 768.322,131.708 L 768.315,131.78 L 768.418,131.851 L 768.749,131.965 L 768.774,132.107 L 768.538,132.266 L 768.515,132.323 L 768.429,132.418 L 768.264,132.417 L 768.2,132.357 L 768.168,132.221 L 768.105,132.136 L 767.813,132.089 L 767.678,131.966 L 767.552,131.973 L 767.451,132.125 L 767.356,132.087 L 767.34,131.982 L 767.393,131.785 L 767.44,131.7 L 767.439,131.604 L 767.36,131.557 L 767.211,131.583 L 767.11,131.797 L 767.047,131.811 L 766.976,131.782 L 766.936,131.703 L 766.911,131.561 L 766.7,131.682 L 766.652,131.627 L 766.649,131.147 L 766.687,130.987 L 766.687,130.879 L 766.6,130.894 L 766.444,131.053 L 766.381,131.201 L 766.287,131.241 L 766.121,131.079 L 765.948,131.112 L 765.679,130.915 L 765.584,130.868 L 765.364,130.872 L 765.183,130.905 L 764.985,130.817 L 764.781,130.842 L 764.624,130.924 L 764.491,131.028 L 764.341,131.076 L 764.121,131.02 L 764.001,130.85 L 764.008,130.713 L 764.148,130.461 L 764.147,130.328 L 764.068,130.258 L 763.987,130.243 L 764.698,127.453 L 764.708,122.149 L 761.097,115.81"/><path id="path15255" d="M 793.162,131.123 L 792.98,130.942 L 792.853,130.905 L 792.625,130.93 L 792.491,130.876 L 792.427,130.797 L 792.316,130.744 L 791.774,130.825 L 791.687,130.763 L 791.503,130.452 L 791.502,130.331 L 791.611,130.135 L 791.758,129.873 L 791.812,129.692 L 791.764,129.576 L 791.573,129.355 L 791.572,129.293 L 791.627,129.189 L 791.697,129.156 L 791.949,129.164 L 792.242,129.319 L 792.494,129.346 L 792.644,129.401 L 792.708,129.464 L 792.749,129.754 L 792.821,129.895 L 792.893,129.952 L 792.987,129.974 L 793.042,129.935 L 793.048,129.745 L 793.282,129.428 L 793.432,129.396 L 793.614,129.446 L 793.645,129.542 L 793.654,129.644 L 793.6,129.742 L 793.577,129.907 L 793.398,130.079 L 793.382,130.145 L 793.47,130.204 L 793.549,130.215 L 793.776,130.164 L 793.887,130.186 L 794.109,130.344 L 794.141,130.405 L 794.142,130.625 L 794.072,130.736 L 793.97,130.776 L 793.6,130.796 L 793.483,130.868 L 793.35,131.049 L 793.249,131.104 L 793.162,131.123"/><path id="path15265" d="M 792.83,131.951 L 792.767,131.922 L 792.711,131.818 L 792.702,131.71 L 792.725,131.653 L 792.929,131.471 L 793.305,131.332 L 793.385,131.364 L 793.385,131.466 L 793.324,131.704 L 793.128,131.759 L 792.94,131.92 L 792.83,131.951"/><path id="path15275" d="M 795.299,136.414 L 795.257,136.352 L 795.129,136.162 L 795.037,136.026 L 795.059,135.862 L 795.159,135.54 L 795.234,135.113 L 795.246,134.65 L 795.306,134.341 L 795.432,134.294 L 795.534,134.208 L 795.675,134.181 L 795.998,134.178 L 796.07,134.282 L 796.228,134.336 L 796.307,134.445 L 796.814,134.793 L 796.808,135.054 L 796.896,135.244 L 796.906,135.423 L 796.702,135.575 L 796.57,135.765 L 796.147,135.989 L 796.117,136.256 L 796.047,136.33 L 795.771,136.369 L 795.615,136.498 L 795.43,136.512 L 795.299,136.414"/></g></svg>