<svg xmlns="http://www.w3.org/2000/svg" role="img" viewBox="1349.83 394.96 110.21 132.21"><title>Boston</title><g id="g14955" fill="#fefee9" fill-opacity="1" fill-rule="evenodd" stroke="#000" stroke-linecap="square" stroke-linejoin="bevel" stroke-opacity="1" stroke-width=".098" transform="translate(-216.714 -21.7) scale(2.264)"><path id="path15447" fill-rule="evenodd" d="M 727.96,188.804 L 728.401,188.81 L 729.031,188.918 L 729.567,188.952 L 729.713,189.881 L 729.667,189.929 L 729.494,189.977 L 729.351,189.882 L 729.273,189.916 L 729.257,189.978 L 729.321,190.097 L 729.164,190.12 L 729.101,190.169 L 729.109,190.246 L 729.172,190.294 L 729.173,190.421 L 729.048,190.524 L 728.923,190.865 L 728.634,191.212 L 728.414,191.317 L 728.113,191.025 L 728.026,190.994 L 728.106,191.193 L 728.004,191.286 L 727.91,191.295 L 727.743,191.123 L 727.68,191.091 L 727.601,191.093 L 727.594,191.155 L 727.958,191.548 L 727.919,191.617 L 727.809,191.617 L 727.414,191.353 L 727.194,191.487 L 727.163,191.55 L 727.424,191.731 L 727.424,191.793 L 727.188,191.936 L 727.063,191.968 L 726.755,191.797 L 726.605,191.814 L 726.495,191.87 L 726.512,192.065 L 726.489,192.153 L 726.584,192.364 L 726.514,192.381 L 726.434,192.287 L 726.379,192.255 L 726.214,192.334 L 726.215,192.486 L 726.263,192.602 L 726.413,192.642 L 726.468,192.758 L 726.469,192.863 L 726.328,193.05 L 726.329,193.122 L 726.4,193.178 L 726.981,192.898 L 727.248,192.701 L 727.475,192.62 L 727.727,192.587 L 728.216,192.657 L 728.35,192.646 L 728.42,192.582 L 728.507,192.567 L 728.649,192.647 L 728.642,192.802 L 728.792,192.928 L 728.793,193.055 L 728.848,193.125 L 728.911,193.132 L 729.147,193.051 L 729.203,193.13 L 729.196,193.257 L 729.062,193.329 L 729.055,193.447 L 729.244,193.516 L 729.244,193.619 L 729.048,193.643 L 729.056,193.705 L 729.301,193.806 L 729.309,193.908 L 729.191,193.943 L 728.962,193.903 L 728.9,193.942 L 728.9,194.007 L 729.231,194.121 L 729.209,194.407 L 729.335,194.453 L 729.306,194.767 L 729.211,194.776 L 729.006,194.689 L 728.927,194.682 L 728.912,194.831 L 729.188,194.941 L 729.212,195.012 L 729.189,195.068 L 729.031,195.067 L 728.985,195.211 L 728.985,195.319 L 729.033,195.352 L 729.293,195.428 L 729.325,195.523 L 729.679,195.491 L 729.672,195.646 L 728.933,195.739 L 728.941,195.863 L 729.421,195.83 L 729.446,196.096 L 729.266,196.185 L 729.267,196.43 L 729.181,196.523 L 729.189,196.588 L 729.253,196.682 L 729.261,196.753 L 728.732,198.021 L 728.583,198.203 L 728.623,198.363 L 728.592,198.488 L 728.429,198.827 L 728.102,199.615 L 727.837,200.107 L 727.704,200.278 L 727.484,200.384 L 727.272,200.43 L 727.146,200.564 L 726.965,200.566 L 726.683,200.711 L 726.557,200.83 L 726.33,201.159 L 726.261,201.459 L 726.293,201.523 L 726.364,201.576 L 726.459,201.586 L 726.497,201.284 L 726.551,201.087 L 726.652,200.954 L 727.045,200.716 L 727.359,200.635 L 727.871,200.561 L 729.042,198.539 L 729.275,198.105 L 729.518,197.704 L 729.666,197.544 L 729.8,197.441 L 730.043,197.353 L 730.437,197.391 L 730.721,197.501 L 730.659,197.673 L 730.542,197.862 L 730.519,197.956 L 730.74,198.105 L 730.811,198.081 L 731,198.072 L 731.086,198.048 L 731.242,197.795 L 731.337,197.796 L 731.361,197.913 L 731.228,198.134 L 730.94,198.694 L 730.948,198.759 L 730.988,198.87 L 731.146,198.924 L 731.669,198.052 L 731.937,198.193 L 731.907,198.328 L 731.572,198.992 L 731.532,199.046 L 731.517,199.142 L 731.557,199.188 L 731.699,199.252 L 732.246,198.383 L 732.316,198.381 L 732.451,198.476 L 732.42,198.626 L 732.015,199.345 L 732.007,199.429 L 732.157,199.533 L 732.259,199.524 L 732.392,199.324 L 732.487,199.334 L 733.774,200.003 L 734.058,200.128 L 734.334,200.197 L 734.523,200.204 L 735.103,199.688 L 735.181,199.689 L 735.908,200.064 L 735.895,200.613 L 734.113,200.723 L 735.163,200.759 L 735.306,200.838 L 735.401,200.947 L 735.472,200.985 L 736.251,200.966 L 736.275,201.03 L 736.268,201.257 L 736.245,201.313 L 732.261,201.412 L 732.198,201.389 L 732.04,201.359 L 732.027,201.714 L 731.229,202.717 L 731.198,202.82 L 731.292,202.842 L 731.41,202.919 L 731.536,202.816 L 731.686,202.834 L 731.724,202.618 L 731.826,202.526 L 731.918,202.123 L 731.973,202.075 L 732.933,201.99 L 732.943,202.338 L 733.069,202.393 L 733.282,202.414 L 733.288,202.061 L 733.564,202.043 L 733.673,201.972 L 734.099,202 L 734.117,202.387 L 734.306,202.394 L 734.327,202.024 L 734.595,201.982 L 734.753,201.999 L 734.894,202.075 L 735.107,202.113 L 735.17,202.074 L 735.453,202.009 L 735.516,201.961 L 738.311,201.823 L 739.109,202.488 L 739.094,202.674 L 739.237,202.785 L 739.347,202.809 L 739.379,202.942 L 739.493,203.531 L 739.415,203.682 L 739.258,203.755 L 739.077,203.887 L 738.858,204.235 L 738.734,204.511 L 738.671,204.559 L 738.624,204.511 L 738.615,204.434 L 738.662,204.355 L 738.661,204.213 L 738.598,204.112 L 738.621,203.953 L 738.77,203.763 L 738.776,203.574 L 738.745,203.519 L 738.563,203.45 L 738.554,203.214 L 737.955,203.092 L 737.38,203.087 L 737.105,203.12 L 736.735,203.2 L 736.35,203.406 L 736.194,203.566 L 736.084,203.724 L 735.975,204.016 L 735.969,204.227 L 736.017,204.399 L 736.239,204.802 L 736.477,205.027 L 736.982,205.372 L 737.354,205.55 L 737.661,205.628 L 737.889,205.649 L 738.18,205.514 L 738.212,205.578 L 738.087,205.823 L 737.898,205.848 L 737.031,205.575 L 736.486,205.216 L 736.423,205.234 L 736.202,205.209 L 735.752,205.055 L 735.579,205.048 L 735.422,205.105 L 735.234,205.262 L 734.692,205.517 L 734.606,205.597 L 734.417,205.637 L 734.236,205.741 L 733.836,206.104 L 733.468,206.344 L 733.169,206.455 L 732.736,206.49 L 732.484,206.426 L 731.979,206.217 L 731.79,206.17 L 730.876,206.175 L 730.617,206.217 L 730.326,206.328 L 730.114,206.502 L 729.887,206.825 L 729.74,207.173 L 729.685,207.361 L 729.68,207.928 L 729.736,208.094 L 729.847,208.243 L 730.021,208.343 L 730.502,208.459 L 730.66,208.529 L 730.763,208.656 L 730.771,208.765 L 730.819,208.859 L 730.89,208.922 L 731.341,209.213 L 732.549,209.906 L 732.55,209.993 L 732.393,210.184 L 732.433,210.244 L 732.954,210.471 L 733.435,210.618 L 733.514,210.672 L 733.561,210.76 L 733.618,211.05 L 733.62,211.506 L 733.582,211.783 L 733.386,211.996 L 732.814,212.487 L 732.611,212.772 L 732.517,212.85 L 732.407,212.859 L 731.64,212.255 L 731.331,211.992 L 730.999,211.756 L 730.952,211.686 L 730.706,211.498 L 730.604,211.483 L 730.196,211.777 L 730.181,211.839 L 730.205,211.901 L 730.324,212.027 L 730.481,212.066 L 730.545,212.12 L 730.711,212.394 L 730.735,212.449 L 730.744,212.576 L 730.697,212.655 L 730.524,212.766 L 730.556,212.861 L 730.667,212.892 L 730.769,212.861 L 731.163,212.843 L 731.093,213.016 L 730.959,213.134 L 730.7,213.238 L 730.606,213.309 L 730.481,213.49 L 730.341,213.853 L 730.163,214.618 L 730.046,214.792 L 729.811,214.864 L 729.7,214.787 L 729.668,214.723 L 729.675,214.549 L 729.768,214.134 L 729.782,213.888 L 729.75,213.793 L 729.687,213.749 L 729.553,213.709 L 728.994,213.735 L 728.529,213.69 L 728.435,213.832 L 728.429,214.164 L 728.477,214.398 L 728.612,214.617 L 729.119,215.207 L 729.254,215.433 L 729.357,215.498 L 729.42,215.49 L 729.482,215.293 L 729.576,215.197 L 729.686,215.156 L 729.789,215.212 L 729.82,215.273 L 729.838,215.611 L 729.917,215.643 L 730.019,215.531 L 730.018,215.305 L 730.073,215.281 L 730.136,215.289 L 730.396,215.405 L 730.774,215.496 L 730.838,215.56 L 730.87,215.686 L 730.871,215.922 L 730.77,216.182 L 730.772,216.448 L 730.67,216.545 L 730.371,216.68 L 730.238,216.774 L 730.277,216.854 L 730.412,216.955 L 730.523,217.082 L 730.587,217.347 L 730.565,217.686 L 730.494,217.688 L 730.415,217.594 L 730.231,216.973 L 730.136,216.988 L 730.265,217.484 L 730.568,218.206 L 730.703,218.435 L 730.727,218.521 L 731.012,218.786 L 731.123,219.015 L 731.171,219.197 L 731.197,219.549 L 731.269,219.848 L 731.356,219.87 L 731.33,219.344 L 731.234,219.015 L 731.216,218.73 L 731.231,218.606 L 731.341,218.581 L 731.507,218.712 L 731.579,218.744 L 731.886,218.806 L 731.918,218.908 L 732.068,218.937 L 732.084,219.039 L 732.045,219.168 L 732.078,219.309 L 732.157,219.403 L 732.252,219.465 L 732.307,219.529 L 732.308,219.74 L 732.373,220.039 L 732.46,220.182 L 732.461,220.346 L 732.336,220.576 L 732.305,220.701 L 732.283,220.875 L 732.314,220.983 L 732.26,221.009 L 732.18,220.922 L 732.117,220.93 L 732.142,221.118 L 732.111,221.197 L 731.985,221.263 L 731.962,221.347 L 731.805,221.516 L 731.477,221.916 L 731.438,222.029 L 731.384,222.201 L 731.403,222.917 L 731.358,223.318 L 731.28,223.565 L 731.085,223.934 L 730.866,224.148 L 730.693,224.259 L 730.497,224.286 L 730.268,224.184 L 729.936,223.949 L 729.668,223.88 L 729.541,223.787 L 729.266,223.739 L 729.14,223.781 L 728.982,223.797 L 728.44,224.068 L 728.212,224.115 L 727.946,224.299 L 727.758,224.488 L 727.656,224.636 L 727.61,224.905 L 727.642,225.08 L 727.754,225.251 L 728.038,225.534 L 728.15,225.692 L 728.158,225.825 L 728.025,225.975 L 727.86,226.079 L 727.695,226.142 L 727.319,226.473 L 727.006,226.845 L 726.778,226.951 L 726.715,227.021 L 726.582,227.062 L 726.464,227.155 L 726.378,227.338 L 726.237,227.478 L 726.12,227.528 L 726.048,227.496 L 725.961,227.372 L 725.984,227.229 L 725.944,227.168 L 725.834,227.112 L 725.606,227.106 L 725.518,227.019 L 725.51,226.948 L 725.603,226.647 L 725.563,226.491 L 725.433,226.49 L 725.349,226.423 L 725.265,226.342 L 725.207,226.294 L 725.114,226.271 L 724.768,226.219 L 724.694,226.272 L 724.67,226.333 L 724.619,226.403 L 724.441,226.473 L 724.238,226.526 L 724.09,226.525 L 724.005,226.514 L 723.926,226.484 L 723.807,226.457 L 723.705,226.441 L 723.624,226.459 L 723.544,226.496 L 723.444,226.575 L 723.382,226.612 L 722.493,226.653 L 722.35,226.657 L 722.246,226.669 L 722.12,226.693 L 721.948,226.75 L 721.827,226.798 L 720.893,227.25 L 720.783,227.254 L 720.517,227.168 L 720.208,227.072 L 719.264,226.833 L 719.15,226.849 L 719.098,226.874 L 719.025,226.98 L 719.003,227.054 L 718.986,227.17 L 718.992,227.278 L 719.02,227.388 L 719.03,227.445 L 719.006,227.601 L 718.97,227.785 L 718.945,227.868 L 718.912,227.924 L 718.823,227.959 L 718.75,227.961 L 718.687,227.955 L 718.546,227.91 L 718.465,227.9 L 718.394,227.9 L 718.291,227.877 L 718.228,227.841 L 718.11,227.782 L 718.015,227.77 L 717.929,227.78 L 717.869,227.819 L 717.818,227.905 L 717.778,227.992 L 717.734,228.1 L 717.688,228.191 L 717.604,228.309 L 717.465,228.492 L 717.341,228.656 L 717.257,228.811 L 717.206,228.909 L 717.165,228.973 L 717.1,229.077 L 717.062,229.144 L 717.022,229.191 L 716.977,229.229 L 716.892,229.26 L 716.813,229.286 L 716.753,229.315 L 716.657,229.409 L 716.428,229.659 L 716.305,229.803 L 715.879,230.169 L 715.746,230.245 L 715.678,230.278 L 715.622,230.297 L 715.547,230.296 L 715.471,230.241 L 715.358,230.116 L 715.259,229.996 L 715.157,229.929 L 714.831,229.962 L 714.608,229.996 L 714.509,229.981 L 714.426,229.9 L 714.348,229.837 L 714.275,229.807 L 714.172,229.778 L 714.109,229.775 L 714.005,229.785 L 713.801,229.813 L 713.674,229.862 L 713.575,229.925 L 713.505,229.982 L 713.361,230.209 L 713.239,230.391 L 713.139,230.504 L 713.075,230.554 L 714.054,231.749 L 714.107,233.613 L 714.124,234.354 L 710.24,237.09 L 709.719,237.472 L 710.247,238.19 L 710.353,238.339 L 710.441,238.466 L 710.532,238.562 L 710.619,238.642 L 710.674,238.7 L 710.71,238.782 L 710.746,238.87 L 710.759,238.951 L 710.759,239.02 L 710.738,239.092 L 710.664,239.101 L 710.419,239.098 L 710.358,239.096 L 710.284,239.132 L 710.248,239.177 L 710.2,239.239 L 710.205,239.345 L 710.219,239.412 L 710.237,239.486 L 710.219,239.557 L 710.18,239.646 L 710.137,239.715 L 710.08,239.782 L 710.006,239.869 L 709.961,239.91 L 709.87,239.952 L 709.827,239.996 L 709.759,240.081 L 709.657,240.124 L 709.564,240.152 L 709.503,240.18 L 709.45,240.228 L 709.411,240.275 L 709.311,240.415 L 709.206,240.547 L 709.139,240.611 L 709.104,240.678 L 709.061,240.788 L 709.047,240.849 L 709.024,240.904 L 708.932,240.977 L 708.849,241.027 L 708.778,241.072 L 708.731,241.132 L 708.69,241.207 L 708.654,241.293 L 705.62,238.548 L 704.825,233.656 L 704.562,231.712 L 703.112,230.837 L 701.511,231.935 L 698.256,228.464 L 698.244,228.397 L 698.225,228.315 L 698.199,228.24 L 698.156,228.159 L 698.114,228.114 L 698.065,228.081 L 697.759,227.963 L 697.643,227.922 L 697.587,227.891 L 697.52,227.854 L 697.477,227.805 L 697.451,227.748 L 697.427,227.659 L 697.411,227.575 L 697.41,227.494 L 697.418,227.4 L 697.443,227.333 L 697.5,227.244 L 697.762,226.937 L 697.821,226.848 L 697.82,226.768 L 697.783,226.685 L 697.735,226.601 L 697.695,226.517 L 697.677,226.446 L 697.631,226.348 L 697.601,226.25 L 697.528,226.055 L 697.392,225.802 L 697.343,225.662 L 697.314,225.556 L 697.322,225.472 L 697.333,225.332 L 697.401,225.151 L 697.444,224.985 L 697.461,224.89 L 697.431,224.822 L 697.392,224.771 L 697.283,224.75 L 697.147,224.719 L 696.997,224.653 L 696.906,224.598 L 696.802,224.553 L 696.636,224.54 L 696.343,224.569 L 696.215,224.576 L 696.056,224.577 L 695.894,224.603 L 695.672,224.679 L 695.356,224.789 L 695.283,224.819 L 695.216,224.819 L 695.161,224.78 L 694.657,223.592 L 694.637,223.527 L 694.448,223.445 L 693.963,223.294 L 693.909,223.256 L 693.856,223.196 L 693.785,223.138 L 693.702,223.061 L 693.575,222.985 L 693.457,222.903 L 693.362,222.835 L 693.312,222.788 L 693.269,222.743 L 693.178,222.599 L 693.136,222.46 L 693.134,222.385 L 696.375,218.364 L 699.912,215.175 L 703.12,218.359 L 704.452,217.398 L 706.188,215.707 L 707.109,214.345 L 707.622,213.335 L 708.063,212.402 L 708.119,212.272 L 708.615,211.423 L 710.121,209.051 L 710.347,208.617 L 710.451,208.709 L 710.889,208.309 L 711.268,208.636 L 711.451,208.644 L 711.589,208.603 L 711.697,208.498 L 712.028,208.361 L 712.128,208.282 L 712.186,208.231 L 712.219,208.151 L 712.248,208.026 L 712.307,207.526 L 712.337,207.444 L 712.401,207.3 L 712.474,207.162 L 712.965,205.726 L 712.95,205.635 L 712.94,205.541 L 712.976,205.412 L 713.088,205.135 L 713.12,205.056 L 713.187,204.922 L 713.306,204.762 L 713.644,204.305 L 713.56,204.149 L 713.582,204.068 L 713.603,203.948 L 713.548,203.894 L 713.495,203.812 L 713.486,203.735 L 713.457,203.679 L 713.426,203.629 L 713.413,203.56 L 713.534,203.163 L 713.563,203.054 L 713.587,202.867 L 713.632,202.683 L 713.665,202.577 L 713.695,202.51 L 713.746,202.416 L 713.79,202.348 L 713.832,202.298 L 713.88,202.25 L 713.934,202.205 L 714.008,202.148 L 714.109,202.105 L 714.193,202.063 L 714.239,202.007 L 714.3,201.919 L 714.374,201.898 L 714.462,201.859 L 714.556,201.78 L 714.612,201.698 L 714.663,201.618 L 714.739,201.512 L 714.816,201.433 L 714.914,201.321 L 714.527,200.205 L 714.675,199.314 L 710.478,198.658 L 710.469,198.767 L 710.187,198.716 L 710.079,198.765 L 709.988,198.831 L 709.806,198.973 L 709.714,199.046 L 709.629,199.104 L 709.539,199.167 L 709.469,199.215 L 709.071,199.303 L 709.028,199.353 L 708.977,199.4 L 708.92,199.464 L 708.883,199.511 L 708.85,199.57 L 707.802,200.262 L 706.097,202.01 L 705.845,202.279 L 705.786,202.344 L 705.755,202.403 L 705.712,202.484 L 705.679,202.568 L 705.65,202.685 L 705.053,202.721 L 704.542,203.204 L 704.467,203.238 L 704.564,203.619 L 703.927,203.817 L 704.017,204.169 L 703.58,204.313 L 703.492,204.433 L 703.643,204.598 L 701.869,206.087 L 701.161,205.247 L 701.094,205.169 L 701.023,205.134 L 700.818,205.031 L 700.66,204.943 L 700.506,204.892 L 700.423,204.893 L 700.333,204.897 L 699.121,205.051 L 698.909,204.54 L 698.862,204.424 L 698.802,204.277 L 698.784,204.175 L 698.755,204.005 L 698.695,203.642 L 698.674,203.409 L 698.728,203.266 L 698.813,203.224 L 698.909,203.176 L 699.28,202.98 L 699.304,202.702 L 697.212,199.186 L 697.452,198.122 L 699.067,195.847 L 699.247,195.876 L 699.418,195.909 L 699.482,195.954 L 699.828,196.255 L 699.917,196.308 L 699.995,196.343 L 700.1,196.368 L 700.348,196.375 L 700.482,196.343 L 700.568,196.273 L 700.66,196.176 L 700.741,196.101 L 700.845,196.038 L 701.049,195.944 L 701.175,195.9 L 701.277,195.88 L 701.409,195.86 L 701.533,195.853 L 701.629,195.855 L 701.704,195.874 L 701.783,195.887 L 701.874,195.911 L 701.967,195.932 L 702.081,195.941 L 702.167,195.939 L 702.262,195.93 L 702.356,195.902 L 702.496,195.846 L 702.681,195.765 L 702.844,195.684 L 702.973,195.624 L 703.107,195.576 L 703.25,195.554 L 703.398,195.535 L 703.569,195.523 L 703.695,195.512 L 703.796,195.5 L 703.89,195.505 L 703.965,195.483 L 704.03,195.463 L 704.11,195.418 L 704.173,195.368 L 704.254,195.293 L 704.355,195.202 L 704.428,195.101 L 704.51,194.987 L 704.533,194.931 L 704.576,194.837 L 704.621,194.709 L 704.652,194.638 L 704.675,194.551 L 704.714,194.466 L 704.753,194.395 L 704.836,194.298 L 704.896,194.237 L 704.973,194.195 L 705.085,194.154 L 705.155,194.124 L 705.244,194.109 L 705.309,194.105 L 705.424,194.134 L 705.497,194.171 L 705.56,194.2 L 705.694,194.265 L 705.769,194.292 L 705.867,194.319 L 705.944,194.336 L 706.015,194.326 L 706.09,194.316 L 706.159,194.304 L 706.22,194.286 L 706.281,194.246 L 706.355,194.179 L 706.449,194.068 L 706.555,193.963 L 706.717,193.75 L 706.882,193.564 L 706.972,193.45 L 707.103,193.37 L 707.26,193.291 L 707.433,193.207 L 707.567,193.136 L 707.651,193.076 L 707.735,193.003 L 707.878,192.878 L 707.954,192.797 L 708.001,192.747 L 708.115,192.595 L 708.15,192.538 L 708.165,192.481 L 708.177,192.414 L 708.156,192.275 L 708.122,192.19 L 708.091,192.112 L 708.069,192.057 L 708.039,192.004 L 707.978,191.916 L 707.93,191.839 L 707.859,191.692 L 707.842,191.566 L 707.858,191.505 L 707.914,191.373 L 707.957,191.296 L 708.024,191.241 L 708.116,191.174 L 708.247,191.112 L 708.353,191.07 L 708.452,191.048 L 708.587,191.034 L 708.717,191.033 L 708.857,191.062 L 708.96,191.105 L 709.036,191.142 L 709.115,191.185 L 709.198,191.244 L 709.283,191.324 L 709.356,191.384 L 709.418,191.478 L 709.465,191.541 L 709.554,191.689 L 709.71,191.948 L 709.809,192.126 L 709.998,192.461 L 710.048,192.502 L 710.1,192.541 L 710.188,192.614 L 710.278,192.686 L 710.395,192.734 L 710.576,192.761 L 710.698,192.781 L 711.437,192.809 L 711.5,192.828 L 711.609,192.865 L 711.701,192.917 L 711.773,192.992 L 711.818,193.08 L 711.881,193.256 L 711.929,193.389 L 711.947,193.501 L 711.941,193.762 L 711.954,193.927 L 711.94,194.52 L 711.954,194.841 L 712.041,195.768 L 712.043,195.931 L 712.028,196.069 L 711.998,196.297 L 711.951,196.639 L 711.931,196.826 L 711.927,197.055 L 711.974,197.225 L 712.005,197.382 L 712.087,197.506 L 712.234,197.674 L 712.475,197.909 L 712.708,198.054 L 712.892,198.166 L 713.114,198.244 L 713.303,198.292 L 713.726,198.399 L 713.837,198.414 L 714.434,198.451 L 714.721,198.442 L 715.44,198.405 L 715.67,198.374 L 718.196,197.928 L 718.335,197.882 L 722.009,196.314 L 722.129,196.244 L 722.211,196.195 L 722.271,196.142 L 722.348,196.064 L 722.395,195.986 L 722.424,195.883 L 722.443,195.782 L 722.662,194.639 L 722.701,194.534 L 722.738,194.443 L 723.009,193.999 L 724.086,192.621 L 725.488,192.653 L 724.684,191.664 L 723.317,191.381 L 723.249,191.153 L 723.055,190.537 L 722.503,188.778 L 721.22,188.501 L 721.22,188.297 L 721.192,188.053 L 721.255,187.995 L 721.331,187.951 L 721.485,187.871 L 722.848,185.179 L 722.895,185.294 L 722.942,185.342 L 722.982,185.468 L 723.069,185.506 L 723.116,185.56 L 723.332,186.103 L 723.458,186.254 L 723.972,186.574 L 723.98,186.636 L 723.879,186.803 L 723.863,186.865 L 723.919,186.929 L 724.14,187.068 L 724.227,187.069 L 724.376,187.021 L 724.501,186.899 L 724.667,186.907 L 725.179,187.072 L 725.282,187.069 L 725.399,187.037 L 725.668,187.091 L 725.644,187.179 L 725.48,187.463 L 725.465,187.541 L 725.56,187.597 L 725.693,187.463 L 725.967,187.027 L 726.234,187.035 L 726.282,187.08 L 726.211,187.128 L 726.126,187.326 L 726.071,187.38 L 726.055,187.477 L 726.174,187.523 L 726.151,187.648 L 726.23,187.67 L 726.323,187.528 L 726.432,187.277 L 726.456,187.22 L 726.597,187.204 L 726.598,187.269 L 726.457,187.505 L 726.403,187.671 L 726.474,187.685 L 726.833,187.15 L 726.912,187.142 L 729.032,187.445 L 729.04,187.532 L 729.111,187.561 L 729.166,187.507 L 729.276,187.482 L 729.512,187.546 L 729.599,187.599 L 729.632,187.731 L 729.75,187.874 L 729.767,187.991 L 729.65,188.205 L 729.279,188.129 L 729.224,188.19 L 729.225,188.261 L 729.674,188.385 L 729.667,188.552 L 729.59,188.796 L 728.699,188.643 L 727.044,188.319 L 726.95,188.322 L 726.903,188.432 L 726.966,188.517 L 727.219,188.618 L 727.96,188.804"/></g></svg>