<svg xmlns="http://www.w3.org/2000/svg" role="img" viewBox="1396.65 125.65 96.07 94.07"><title>Boxford</title><g id="g14955" fill="#fefee9" fill-opacity="1" fill-rule="evenodd" stroke="#000" stroke-linecap="square" stroke-linejoin="bevel" stroke-opacity="1" stroke-width=".098" transform="translate(-216.714 -21.7) scale(2.264)"><path id="path15031" fill-rule="evenodd" d="M 726.144,67.5021 L 733.099,72.4346 L 734.516,77.0222 L 734.708,77.2436 L 735.144,78.0839 L 738.37,78.1604 L 739.922,78.1468 L 741.263,78.345 L 742.426,78.3952 L 747.144,80.4584 L 754.223,85.1264 L 750.226,87.204 L 750.012,88.2219 L 749.107,87.7895 L 751.344,96.0568 L 747.503,98.4515 L 747.27,98.9562 L 747.289,99.0467 L 747.321,99.1151 L 747.361,99.1776 L 747.403,99.2204 L 747.462,99.2687 L 747.514,99.3053 L 747.543,99.374 L 747.563,99.4287 L 747.636,99.4672 L 747.696,99.5077 L 747.738,99.5976 L 747.782,99.6522 L 747.815,99.7285 L 747.877,99.8025 L 747.932,99.8432 L 747.898,99.9301 L 747.936,99.9964 L 747.923,100.054 L 747.947,100.11 L 747.993,100.155 L 747.963,100.209 L 747.997,100.269 L 747.976,100.329 L 748.016,100.393 L 747.886,100.521 L 747.816,100.579 L 747.797,100.648 L 747.752,100.69 L 747.665,100.795 L 747.645,100.87 L 747.646,100.941 L 747.668,101 L 747.695,101.078 L 747.674,101.137 L 747.609,101.162 L 747.593,101.249 L 747.582,101.32 L 747.581,101.402 L 747.644,101.398 L 747.7,101.328 L 747.745,101.29 L 747.806,101.34 L 747.777,101.4 L 747.747,101.465 L 747.754,101.53 L 747.832,101.681 L 747.917,101.811 L 748.003,101.979 L 748.036,102.054 L 748.039,102.13 L 748.006,102.178 L 747.944,102.242 L 747.897,102.307 L 747.873,102.378 L 747.959,102.472 L 748.014,102.538 L 748.039,102.622 L 748.06,102.683 L 748.09,102.74 L 748.126,102.79 L 748.137,102.847 L 748.19,102.908 L 748.289,102.96 L 748.31,103.014 L 748.34,103.071 L 748.513,103.224 L 748.65,103.331 L 748.717,103.357 L 748.812,103.364 L 748.949,103.468 L 749.028,103.528 L 749.113,103.561 L 749.206,103.581 L 749.325,103.633 L 749.379,103.683 L 749.401,103.74 L 749.472,103.774 L 749.53,103.805 L 749.421,103.921 L 749.368,103.963 L 749.23,104.083 L 749.206,104.177 L 749.203,104.258 L 749.114,104.325 L 749.09,104.384 L 749.029,104.405 L 748.963,104.331 L 748.917,104.274 L 748.843,104.239 L 748.772,104.248 L 748.696,104.296 L 748.652,104.333 L 748.588,104.369 L 748.533,104.41 L 748.473,104.456 L 748.47,104.545 L 748.478,104.625 L 748.439,104.693 L 748.36,104.668 L 748.287,104.62 L 748.229,104.57 L 748.156,104.583 L 748.103,104.704 L 748.042,104.794 L 747.941,104.866 L 747.862,104.891 L 747.788,104.9 L 747.701,104.851 L 747.666,104.792 L 747.571,104.755 L 747.477,104.764 L 747.393,104.797 L 747.321,104.865 L 747.255,104.923 L 747.216,105.002 L 747.25,105.061 L 747.333,105.093 L 747.391,105.116 L 747.401,105.178 L 747.326,105.252 L 747.307,105.316 L 747.373,105.386 L 747.385,105.478 L 747.414,105.532 L 747.437,105.587 L 747.457,105.663 L 747.413,105.739 L 747.292,105.767 L 747.222,105.786 L 747.115,105.762 L 747.063,105.678 L 746.993,105.601 L 746.888,105.585 L 746.806,105.612 L 746.747,105.603 L 746.648,105.565 L 746.58,105.533 L 746.513,105.516 L 746.394,105.542 L 746.335,105.574 L 746.259,105.609 L 746.186,105.602 L 746.093,105.578 L 745.974,105.556 L 745.867,105.566 L 745.802,105.567 L 745.675,105.52 L 745.622,105.474 L 745.564,105.435 L 745.421,105.417 L 745.243,105.457 L 745.152,105.478 L 745.087,105.503 L 745.017,105.512 L 743.413,104.362 L 741.419,102.957 L 735.605,98.7219 L 730.922,88.0679 L 713.507,66.5927 L 716.251,66.5871 L 717.613,65.9764 L 718.231,65.9969 L 718.716,66.2739 L 719.768,66.1116 L 720.291,66.0773 L 722.294,66.8133 L 722.788,67.4407 L 726.144,67.5021"/></g></svg>