<svg xmlns="http://www.w3.org/2000/svg" role="img" viewBox="1431.07 691.20 93.86 67.36"><title>Bridgewater</title><g id="g14955" fill="#fefee9" fill-opacity="1" fill-rule="evenodd" stroke="#000" stroke-linecap="square" stroke-linejoin="bevel" stroke-opacity="1" stroke-width=".098" transform="translate(-216.714 -21.7) scale(2.264)"><path id="path15849" fill-rule="evenodd" d="M 768.471,320.674 L 768.314,323.418 L 767.923,325.328 L 765.427,326.226 L 765.374,326.272 L 765.356,326.391 L 765.334,326.499 L 765.28,326.604 L 765.237,326.666 L 765.211,326.721 L 765.182,326.783 L 765.169,326.85 L 765.166,326.937 L 765.171,327.017 L 765.186,327.098 L 765.243,327.257 L 765.297,327.364 L 765.395,327.465 L 765.643,327.673 L 765.765,327.788 L 765.886,327.916 L 766.056,328.137 L 766.126,328.266 L 766.175,328.36 L 766.176,328.491 L 766.16,328.574 L 766.124,328.709 L 766.104,328.87 L 766.092,329.032 L 766.111,329.116 L 766.225,329.258 L 766.349,329.414 L 766.445,329.579 L 766.49,329.692 L 766.495,329.781 L 766.474,330.417 L 766.455,330.61 L 766.405,330.714 L 766.365,330.778 L 766.303,330.86 L 766.242,330.929 L 766.186,330.987 L 766.098,331.02 L 766.004,331.049 L 765.92,331.077 L 765.859,331.096 L 765.76,331.099 L 765.654,331.098 L 765.57,331.131 L 765.534,331.235 L 765.551,331.314 L 765.696,331.493 L 765.748,331.581 L 765.783,331.671 L 765.745,331.813 L 765.712,331.865 L 765.66,331.903 L 765.325,332.021 L 765.213,332.086 L 765.121,332.128 L 765.049,332.141 L 764.99,332.14 L 764.934,332.097 L 764.873,332.06 L 764.793,332.105 L 764.719,332.167 L 764.639,332.266 L 764.593,332.395 L 764.563,332.45 L 764.536,332.549 L 764.561,332.619 L 764.661,332.64 L 764.789,332.65 L 764.857,332.692 L 764.865,332.773 L 764.825,332.815 L 764.748,332.845 L 764.676,332.862 L 764.593,332.873 L 764.434,332.853 L 764.248,332.796 L 764.161,332.74 L 764.068,332.686 L 763.988,332.636 L 763.927,332.613 L 763.803,332.58 L 763.706,332.557 L 763.633,332.554 L 763.543,332.565 L 763.447,332.57 L 763.37,332.563 L 763.277,332.545 L 763.2,332.516 L 763.158,332.442 L 763.174,332.339 L 763.197,332.27 L 763.189,332.211 L 763.143,332.165 L 763.082,332.15 L 763.011,332.156 L 762.942,332.181 L 762.88,332.221 L 762.819,332.271 L 762.761,332.343 L 762.709,332.422 L 762.653,332.531 L 762.611,332.632 L 762.552,332.755 L 762.502,332.905 L 762.48,333.013 L 762.459,333.236 L 762.45,333.323 L 762.418,333.445 L 762.372,333.515 L 762.314,333.561 L 762.243,333.587 L 762.147,333.592 L 762.058,333.576 L 761.986,333.521 L 761.931,333.457 L 761.857,333.391 L 761.803,333.354 L 761.748,333.328 L 761.407,333.257 L 761.214,333.206 L 761.074,333.186 L 760.948,333.168 L 760.828,333.17 L 760.745,333.187 L 760.631,333.221 L 760.471,333.318 L 760.256,333.431 L 760.114,333.533 L 760.022,333.627 L 759.937,333.738 L 759.761,333.947 L 759.685,334.052 L 759.618,334.212 L 759.585,334.449 L 759.563,334.679 L 759.516,334.851 L 759.444,334.992 L 759.356,335.156 L 759.257,335.291 L 759.183,335.371 L 759.137,335.433 L 759.104,335.512 L 759.08,335.642 L 759.068,335.934 L 759.035,336.137 L 758.996,336.324 L 758.951,336.51 L 758.892,336.701 L 758.865,336.875 L 758.862,336.961 L 758.882,337.182 L 758.919,337.297 L 758.972,337.456 L 759.039,337.804 L 759.046,337.939 L 759.024,338.01 L 758.99,338.188 L 758.847,338.569 L 758.743,338.758 L 758.645,338.991 L 758.602,339.153 L 758.573,339.346 L 758.568,339.467 L 758.527,339.605 L 758.485,339.727 L 758.421,339.854 L 758.292,340.054 L 758.198,340.225 L 758.106,340.425 L 758.044,340.524 L 757.939,340.663 L 757.818,340.739 L 757.715,340.809 L 757.641,340.877 L 757.577,340.937 L 757.501,341.025 L 757.451,341.163 L 757.42,341.307 L 757.345,341.533 L 757.269,341.726 L 757.202,341.869 L 757.095,342.014 L 756.995,342.145 L 756.915,342.223 L 756.849,342.287 L 756.769,342.39 L 756.68,342.525 L 756.591,342.626 L 756.505,342.694 L 756.441,342.717 L 756.37,342.722 L 756.295,342.683 L 756.246,342.591 L 756.218,342.503 L 756.177,342.37 L 756.123,342.29 L 756.043,342.214 L 755.974,342.164 L 755.875,342.106 L 755.744,342.076 L 755.585,342.053 L 755.404,342.055 L 755.282,342.074 L 755.164,342.099 L 755.056,342.111 L 754.942,342.096 L 754.826,342.066 L 754.703,342.04 L 754.562,342.036 L 754.406,342.052 L 754.294,342.069 L 754.181,342.11 L 754.066,342.171 L 753.986,342.234 L 753.887,342.257 L 753.765,342.224 L 753.615,342.169 L 753.461,342.11 L 753.354,342.072 L 753.269,342.021 L 753.17,341.956 L 753.096,341.886 L 753.033,341.826 L 752.971,341.754 L 752.911,341.686 L 752.861,341.637 L 752.8,341.597 L 752.65,341.553 L 752.392,341.537 L 752.202,341.51 L 751.999,341.469 L 751.786,341.411 L 751.597,341.35 L 751.458,341.297 L 751.304,341.203 L 751.157,341.075 L 751.059,340.962 L 750.945,340.849 L 750.83,340.741 L 750.757,340.679 L 750.675,340.636 L 750.567,340.616 L 750.37,340.589 L 750.246,340.569 L 750.163,340.553 L 750.064,340.509 L 749.896,340.428 L 749.777,340.361 L 749.632,340.278 L 749.567,340.239 L 749.502,340.209 L 749.39,340.21 L 749.226,340.323 L 749.052,340.408 L 748.951,340.411 L 748.845,340.397 L 748.721,340.365 L 748.559,340.31 L 748.406,340.218 L 748.266,340.143 L 748.141,340.083 L 748.036,340.061 L 747.903,340.057 L 747.785,340.108 L 747.64,340.184 L 747.482,340.281 L 747.39,340.332 L 747.254,340.424 L 747.078,340.513 L 746.783,340.708 L 746.678,340.79 L 746.623,340.82 L 746.523,340.845 L 746.403,340.886 L 746.295,340.905 L 746.195,340.924 L 746.129,340.937 L 746.074,340.981 L 746.004,341.068 L 745.957,341.273 L 745.974,341.521 L 745.959,341.708 L 745.947,341.867 L 745.892,342.055 L 745.836,342.187 L 745.725,342.426 L 745.584,342.664 L 745.494,342.822 L 745.407,342.961 L 745.343,343.038 L 745.264,343.081 L 745.188,343.103 L 745.111,343.108 L 745.015,343.095 L 744.938,343.057 L 744.845,343.014 L 744.728,342.932 L 744.611,342.877 L 744.451,342.831 L 744.191,342.769 L 744.041,342.749 L 743.936,342.71 L 743.825,342.648 L 743.694,342.56 L 743.587,342.491 L 743.466,342.374 L 743.381,342.305 L 743.327,342.269 L 743.264,342.242 L 743.182,342.352 L 743.162,342.494 L 743.13,342.625 L 743.084,342.805 L 743.079,342.911 L 743.096,343.016 L 743.133,343.153 L 743.158,343.245 L 743.178,343.332 L 743.209,343.423 L 743.204,343.533 L 743.133,343.636 L 743.076,343.672 L 743.025,343.711 L 742.957,343.738 L 742.843,343.759 L 742.797,343.815 L 739.964,340.189 L 731.345,333.28 L 729.915,332.333 L 728.667,325.6 L 741.841,320.215 L 742.697,319.715 L 742.977,319.521 L 744.992,318.187 L 748.007,316.968 L 747.8,315.731 L 754.47,317.506 L 757.237,317.226 L 757.646,317.049 L 758.191,316.882 L 758.21,316.976 L 759.114,316.788 L 759.463,316.785 L 759.809,316.806 L 760.136,316.827 L 760.475,316.818 L 761.29,316.468 L 761.535,316.372 L 761.63,316.394 L 761.816,316.466 L 763.078,317.05 L 763.177,317.123 L 763.323,317.267 L 763.419,317.376 L 763.718,317.791 L 763.727,318.259 L 763.709,318.367 L 763.676,318.596 L 764.288,319.354 L 764.41,319.523 L 764.474,319.686 L 764.525,319.814 L 764.629,320.076 L 764.749,320.335 L 764.807,320.396 L 764.885,320.429 L 765.249,320.546 L 765.342,320.557 L 765.439,320.549 L 765.988,320.755 L 766.052,320.768 L 766.143,320.764 L 766.248,320.764 L 766.356,320.759 L 766.499,320.743 L 766.767,320.694 L 767.161,320.632 L 768.471,320.674"/></g></svg>