<svg xmlns="http://www.w3.org/2000/svg" role="img" viewBox="1358.54 427.04 44.29 46.54"><title>Brookline</title><g id="g14955" fill="#fefee9" fill-opacity="1" fill-rule="evenodd" stroke="#000" stroke-linecap="square" stroke-linejoin="bevel" stroke-opacity="1" stroke-width=".098" transform="translate(-216.714 -21.7) scale(2.264)"><path id="path15489" fill-rule="evenodd" d="M 701.869,206.087 L 703.643,204.598 L 703.492,204.433 L 703.58,204.313 L 704.017,204.169 L 703.927,203.817 L 704.564,203.619 L 704.467,203.238 L 704.542,203.204 L 705.053,202.721 L 705.65,202.685 L 705.679,202.568 L 705.712,202.484 L 705.755,202.403 L 705.786,202.344 L 705.845,202.279 L 706.097,202.01 L 707.802,200.262 L 708.85,199.57 L 708.883,199.511 L 708.92,199.464 L 708.977,199.4 L 709.028,199.353 L 709.071,199.303 L 709.469,199.215 L 709.539,199.167 L 709.629,199.104 L 709.714,199.046 L 709.806,198.973 L 709.988,198.831 L 710.079,198.765 L 710.187,198.716 L 710.469,198.767 L 710.478,198.658 L 714.675,199.314 L 714.527,200.205 L 714.914,201.321 L 714.816,201.433 L 714.739,201.512 L 714.663,201.618 L 714.612,201.698 L 714.556,201.78 L 714.462,201.859 L 714.374,201.898 L 714.3,201.919 L 714.239,202.007 L 714.193,202.063 L 714.109,202.105 L 714.008,202.148 L 713.934,202.205 L 713.88,202.25 L 713.832,202.298 L 713.79,202.348 L 713.746,202.416 L 713.695,202.51 L 713.665,202.577 L 713.632,202.683 L 713.587,202.867 L 713.563,203.054 L 713.534,203.163 L 713.413,203.56 L 713.426,203.629 L 713.457,203.679 L 713.486,203.735 L 713.495,203.812 L 713.548,203.894 L 713.603,203.948 L 713.582,204.068 L 713.56,204.149 L 713.644,204.305 L 713.306,204.762 L 713.187,204.922 L 713.12,205.056 L 713.088,205.135 L 712.976,205.412 L 712.94,205.541 L 712.95,205.635 L 712.965,205.726 L 712.474,207.162 L 712.401,207.3 L 712.337,207.444 L 712.307,207.526 L 712.248,208.026 L 712.219,208.151 L 712.186,208.231 L 712.128,208.282 L 712.028,208.361 L 711.697,208.498 L 711.589,208.603 L 711.451,208.644 L 711.268,208.636 L 710.889,208.309 L 710.451,208.709 L 710.347,208.617 L 710.121,209.051 L 708.615,211.423 L 708.119,212.272 L 708.063,212.402 L 707.622,213.335 L 707.109,214.345 L 706.188,215.707 L 704.452,217.398 L 703.12,218.359 L 699.912,215.175 L 699.534,214.955 L 698.54,213.85 L 696.214,211.602 L 698.46,209.414 L 698.353,209.137 L 698.683,208.99 L 698.658,208.894 L 699.226,208.667 L 701.869,206.087"/></g></svg>