<svg xmlns="http://www.w3.org/2000/svg" role="img" viewBox="395.25 206.88 77.74 55.49"><title>Buckland</title><g id="g14955" fill="#fefee9" fill-opacity="1" fill-rule="evenodd" stroke="#000" stroke-linecap="square" stroke-linejoin="bevel" stroke-opacity="1" stroke-width=".098" transform="translate(-216.714 -21.7) scale(2.264)"><path id="path15179" fill-rule="evenodd" d="M 299.772,101.747 L 299.861,101.827 L 299.912,101.855 L 299.962,101.899 L 300.014,101.947 L 300.057,102.002 L 300.078,102.062 L 300.09,102.137 L 300.097,102.202 L 300.1,102.272 L 300.099,102.341 L 300.071,102.418 L 300.055,102.484 L 300.034,102.552 L 300.019,102.624 L 299.998,102.703 L 299.969,102.763 L 299.934,102.841 L 299.904,102.902 L 299.876,102.984 L 299.822,103.092 L 299.79,103.178 L 299.757,103.279 L 299.74,103.385 L 299.706,103.469 L 299.674,103.536 L 299.663,103.634 L 299.631,103.716 L 299.588,103.833 L 299.565,103.931 L 299.565,103.994 L 299.55,104.123 L 299.554,104.255 L 299.566,104.324 L 299.591,104.436 L 299.629,104.492 L 299.693,104.53 L 299.782,104.598 L 299.865,104.668 L 299.905,104.718 L 299.953,104.781 L 299.995,104.858 L 300.011,104.917 L 300.032,105.022 L 300.053,105.085 L 300.061,105.156 L 300.055,105.262 L 300.058,105.364 L 300.048,105.467 L 300.039,105.527 L 300.015,105.6 L 299.998,105.674 L 299.975,105.735 L 299.956,105.81 L 299.9,105.905 L 299.851,105.999 L 299.805,106.077 L 299.779,106.14 L 299.752,106.196 L 299.714,106.265 L 299.654,106.502 L 299.578,106.782 L 299.46,107.361 L 299.435,107.516 L 299.415,107.687 L 299.339,108.158 L 299.304,108.376 L 299.282,108.449 L 299.237,108.568 L 299.117,108.86 L 299.085,108.93 L 298.967,109.135 L 298.9,109.274 L 298.859,109.362 L 298.819,109.444 L 298.807,109.505 L 298.77,109.593 L 298.749,109.707 L 298.723,109.878 L 298.718,110.007 L 298.724,110.082 L 298.743,110.155 L 298.807,110.201 L 298.879,110.267 L 298.924,110.305 L 298.987,110.325 L 299.079,110.352 L 299.175,110.336 L 299.262,110.295 L 299.365,110.224 L 299.425,110.18 L 299.508,110.147 L 299.581,110.123 L 299.648,110.119 L 299.713,110.122 L 299.767,110.141 L 299.852,110.151 L 299.909,110.178 L 299.998,110.23 L 300.102,110.3 L 300.152,110.336 L 300.215,110.386 L 300.323,110.509 L 300.379,110.571 L 300.434,110.639 L 300.511,110.75 L 300.538,110.805 L 300.942,112.408 L 300.972,112.502 L 300.983,112.564 L 300.996,112.623 L 301.015,112.708 L 301.034,112.795 L 301.05,112.856 L 301.061,112.917 L 301.074,113.007 L 301.083,113.098 L 301.095,113.206 L 301.106,113.323 L 301.093,113.419 L 301.105,113.507 L 301.118,113.604 L 301.135,113.665 L 301.157,113.758 L 301.185,113.841 L 301.21,113.912 L 301.237,113.968 L 301.305,114.033 L 301.371,114.078 L 301.455,114.114 L 301.541,114.153 L 301.879,114.326 L 301.985,114.375 L 302.039,114.411 L 302.09,114.439 L 302.146,114.509 L 302.209,114.568 L 302.235,114.636 L 302.266,114.687 L 302.322,114.81 L 302.381,114.925 L 302.425,115.026 L 302.462,115.091 L 302.48,115.149 L 302.558,115.214 L 302.607,115.276 L 302.67,115.356 L 302.742,115.418 L 302.824,115.478 L 302.925,115.562 L 303.082,115.627 L 303.168,115.671 L 303.272,115.712 L 303.606,115.85 L 303.706,115.894 L 303.778,115.942 L 303.835,115.973 L 303.944,116.053 L 303.98,116.128 L 298.188,116.921 L 297.258,123.36 L 296.217,123.152 L 289.674,121.92 L 271.049,124.774 L 275.144,106.903 L 275.523,105.28 L 275.569,105.071 L 276.85,104.711 L 277.314,104.559 L 277.487,104.48 L 277.648,104.416 L 277.751,104.377 L 277.817,104.355 L 277.88,104.339 L 277.941,104.326 L 278.046,104.311 L 278.111,104.313 L 278.181,104.326 L 278.27,104.342 L 278.354,104.364 L 278.42,104.387 L 278.494,104.419 L 278.577,104.47 L 278.667,104.512 L 278.795,104.58 L 278.857,104.617 L 278.93,104.674 L 279.006,104.727 L 279.066,104.761 L 279.157,104.821 L 279.223,104.84 L 279.478,104.953 L 279.678,105.007 L 279.853,105.053 L 280.024,105.077 L 280.174,105.065 L 280.54,105.039 L 281.65,105.028 L 281.791,105.04 L 281.981,105.056 L 282.107,105.087 L 282.334,105.11 L 282.44,105.122 L 282.535,105.136 L 282.623,105.152 L 282.704,105.144 L 282.786,105.144 L 282.861,105.137 L 283.657,104.967 L 283.944,104.897 L 284.047,104.874 L 284.186,104.834 L 284.313,104.8 L 284.444,104.758 L 284.561,104.709 L 284.756,104.641 L 284.899,104.592 L 285.246,104.458 L 285.594,104.327 L 285.848,104.223 L 285.964,104.185 L 287.13,103.82 L 287.423,103.721 L 287.513,103.698 L 287.586,103.676 L 287.655,103.656 L 287.754,103.641 L 287.855,103.636 L 287.947,103.632 L 288.016,103.637 L 288.073,103.651 L 288.145,103.656 L 288.218,103.668 L 288.292,103.686 L 288.416,103.702 L 288.512,103.718 L 288.604,103.744 L 288.71,103.739 L 288.781,103.741 L 288.895,103.738 L 288.952,103.731 L 289.013,103.731 L 289.078,103.733 L 289.163,103.739 L 289.233,103.75 L 289.319,103.774 L 289.599,103.858 L 289.968,103.959 L 290.287,104.038 L 290.707,104.082 L 291.074,104.12 L 291.149,104.126 L 291.364,104.159 L 291.468,104.181 L 291.551,104.189 L 291.833,104.225 L 291.933,104.24 L 292.22,104.258 L 292.314,104.267 L 292.412,104.271 L 292.485,104.297 L 292.572,104.322 L 292.657,104.332 L 292.728,104.326 L 292.795,104.33 L 292.888,104.306 L 292.949,104.3 L 293.056,104.273 L 293.152,104.256 L 293.233,104.244 L 293.326,104.228 L 293.422,104.227 L 293.481,104.23 L 293.715,104.234 L 293.789,104.238 L 293.852,104.237 L 294.002,104.217 L 294.118,104.196 L 294.195,104.183 L 294.439,104.098 L 294.545,104.061 L 294.818,103.973 L 295,103.908 L 295.106,103.887 L 295.203,103.876 L 295.303,103.872 L 295.376,103.876 L 295.454,103.888 L 295.52,103.913 L 295.582,103.954 L 295.659,104.025 L 295.732,104.096 L 295.794,104.159 L 295.884,104.28 L 295.937,104.354 L 295.98,104.432 L 296.014,104.486 L 296.072,104.549 L 296.108,104.607 L 296.148,104.653 L 296.192,104.692 L 296.258,104.753 L 296.338,104.767 L 296.424,104.792 L 296.497,104.812 L 296.662,104.809 L 296.752,104.806 L 296.884,104.761 L 296.953,104.711 L 297.186,104.581 L 297.259,104.533 L 297.506,104.355 L 297.56,104.297 L 297.591,104.22 L 297.554,104.175 L 297.513,104.111 L 297.487,104.034 L 297.482,103.942 L 297.463,103.682 L 297.431,103.581 L 297.379,103.506 L 297.338,103.464 L 297.266,103.385 L 297.223,103.333 L 297.167,103.236 L 297.144,103.181 L 297.128,103.09 L 297.129,103.011 L 297.14,102.945 L 297.175,102.896 L 297.206,102.82 L 297.268,102.722 L 297.332,102.637 L 297.425,102.526 L 297.479,102.449 L 297.534,102.392 L 297.587,102.306 L 297.627,102.232 L 297.661,102.152 L 297.694,102.103 L 297.742,102.045 L 297.778,101.992 L 297.812,101.946 L 297.872,101.864 L 297.931,101.814 L 297.989,101.785 L 298.062,101.762 L 298.158,101.74 L 298.221,101.733 L 298.34,101.711 L 298.401,101.708 L 298.466,101.713 L 298.55,101.713 L 298.717,101.739 L 298.812,101.744 L 298.908,101.751 L 299.081,101.748 L 299.219,101.74 L 299.321,101.728 L 299.601,101.738 L 299.669,101.749 L 299.772,101.747"/></g></svg>