<svg xmlns="http://www.w3.org/2000/svg" role="img" viewBox="1230.53 262.03 57.07 49.95"><title>Carlisle</title><g id="g14955" fill="#fefee9" fill-opacity="1" fill-rule="evenodd" stroke="#000" stroke-linecap="square" stroke-linejoin="bevel" stroke-opacity="1" stroke-width=".098" transform="translate(-216.714 -21.7) scale(2.264)"><path id="path15247" fill-rule="evenodd" d="M 656.827,126.858 L 656.675,127.07 L 658.746,128.452 L 660.079,129.132 L 661.422,130.675 L 660.432,133.006 L 662.888,136.077 L 663.289,136.322 L 663.2,137.443 L 663.719,137.617 L 663.939,137.711 L 663.896,137.792 L 663.866,137.861 L 663.853,137.936 L 663.853,138.02 L 663.861,138.091 L 663.869,138.172 L 663.881,138.239 L 663.875,138.301 L 663.875,138.368 L 663.867,138.437 L 663.842,138.646 L 663.715,139.012 L 663.435,139.807 L 663.408,139.923 L 663.385,140.055 L 663.377,140.165 L 663.383,140.478 L 663.413,140.673 L 663.435,140.765 L 663.441,140.836 L 663.457,140.948 L 663.457,141.052 L 663.453,141.121 L 663.434,141.257 L 663.414,141.357 L 663.379,141.519 L 663.36,141.625 L 663.344,141.765 L 663.35,141.888 L 663.374,142.014 L 663.408,142.116 L 663.461,142.278 L 663.518,142.451 L 663.546,142.571 L 663.55,142.667 L 663.53,142.748 L 663.501,142.809 L 663.383,142.907 L 663.218,142.986 L 663.101,143.05 L 663.011,143.103 L 662.909,143.199 L 662.783,143.337 L 662.409,143.82 L 662.325,143.913 L 662.221,143.992 L 662.103,144.067 L 661.977,144.151 L 661.881,144.209 L 661.644,144.406 L 661.552,144.497 L 661.413,144.635 L 661.295,144.782 L 661.16,144.917 L 661.056,145.027 L 660.956,145.135 L 660.858,145.246 L 660.813,145.342 L 660.748,145.464 L 660.701,145.567 L 660.662,145.677 L 660.602,145.876 L 660.522,146.132 L 660.5,146.253 L 660.487,146.36 L 660.489,146.505 L 660.528,146.625 L 660.562,146.718 L 660.611,146.881 L 651.469,146.791 L 646.159,146.416 L 643.485,146.254 L 641.815,145.452 L 640.191,138.718 L 639.778,136.111 L 643.546,134.475 L 642.615,130.633 L 646.135,128.667 L 647.666,127.807 L 653.291,125.875 L 656.827,126.858"/></g></svg>