<svg xmlns="http://www.w3.org/2000/svg" role="img" viewBox="1431.24 378.56 26.26 24.07"><title>Chelsea</title><g id="g14955" fill="#fefee9" fill-opacity="1" fill-rule="evenodd" stroke="#000" stroke-linecap="square" stroke-linejoin="bevel" stroke-opacity="1" stroke-width=".098" transform="translate(-216.714 -21.7) scale(2.264)"><path id="path15419" fill-rule="evenodd" d="M 738.305,180.844 L 738.337,180.964 L 738.484,181.048 L 738.538,181.078 L 738.62,181.124 L 738.705,181.173 L 738.798,181.184 L 738.875,181.285 L 738.977,181.42 L 739.238,181.527 L 739.223,181.614 L 739.144,181.716 L 739.011,181.813 L 738.775,181.916 L 738.288,182.045 L 738.036,182.037 L 737.878,182.085 L 737.533,182.315 L 737.431,182.433 L 737.472,182.67 L 737.481,182.797 L 737.449,182.851 L 737.292,182.899 L 737.221,182.969 L 737.183,183.153 L 737.097,183.193 L 737.05,183.247 L 736.902,183.673 L 736.927,183.775 L 736.982,183.838 L 737.164,183.938 L 737.258,184.041 L 737.275,184.112 L 737.252,184.332 L 737.105,184.743 L 736.98,185.02 L 736.894,185.065 L 736.626,185.067 L 736.571,185.131 L 736.714,185.294 L 736.73,185.436 L 736.543,185.73 L 736.378,185.881 L 736.285,186.039 L 735.932,186.418 L 735.807,186.505 L 735.76,186.646 L 735.713,186.719 L 735.14,187.058 L 734.904,187.161 L 734.826,187.179 L 734.314,187.151 L 734.336,186.868 L 733.863,186.767 L 733.793,186.939 L 733.564,186.869 L 733.524,186.799 L 733.406,186.768 L 732.776,186.616 L 732.421,186.49 L 732.334,186.421 L 732.263,186.436 L 732.09,186.453 L 732.034,186.405 L 731.838,186.439 L 731.838,186.501 L 731.783,186.54 L 731.736,186.501 L 731.483,186.48 L 731.106,186.6 L 730.926,186.822 L 730.887,186.938 L 730.722,187.002 L 730.62,187.02 L 730.588,186.972 L 730.431,186.933 L 730.273,186.792 L 730.169,186.572 L 730.082,186.509 L 729.608,186.275 L 729.403,186.222 L 729.285,186.232 L 729.278,186.372 L 729.199,186.358 L 729.167,186.254 L 729.081,186.262 L 728.703,186.367 L 728.482,186.289 L 728.181,185.889 L 728.204,185.789 L 728.345,185.518 L 728.509,185.362 L 728.564,185.251 L 728.8,185.148 L 728.979,184.879 L 729.176,184.79 L 729.309,184.65 L 729.347,184.484 L 729.331,184.373 L 729.276,184.303 L 729.219,184.122 L 729.164,184.068 L 729.132,183.948 L 729.053,183.988 L 728.996,184.108 L 728.913,183.999 L 728.836,183.917 L 728.729,183.838 L 728.63,183.782 L 728.487,183.7 L 728.396,183.642 L 728.341,183.592 L 728.303,183.509 L 728.262,183.417 L 728.244,183.325 L 728.245,183.238 L 728.267,183.147 L 728.298,183.066 L 728.352,182.987 L 728.422,182.904 L 728.514,182.836 L 728.606,182.792 L 728.718,182.759 L 728.832,182.75 L 728.96,182.771 L 729.014,182.798 L 729.465,183.1 L 731.416,181.236 L 732.57,178.833 L 733.231,177.261 L 733.273,177.064 L 734.32,178.335 L 734.778,179.149 L 734.807,179.222 L 734.817,179.287 L 734.802,179.377 L 734.781,179.448 L 734.765,179.568 L 734.784,179.663 L 734.835,179.705 L 734.926,179.72 L 735.056,179.725 L 735.193,179.722 L 735.275,179.776 L 735.661,180.042 L 735.714,180.018 L 735.785,180.039 L 735.858,180.136 L 735.904,180.191 L 735.959,180.159 L 735.956,180.082 L 736.009,180.043 L 736.067,180.115 L 736.085,180.181 L 736.115,180.252 L 736.192,180.249 L 736.266,180.205 L 736.35,180.153 L 736.433,180.133 L 736.539,180.159 L 736.497,180.246 L 736.437,180.312 L 736.378,180.358 L 736.312,180.482 L 736.323,180.569 L 736.351,180.626 L 736.412,180.668 L 736.749,180.629 L 736.857,180.642 L 736.957,180.663 L 737.05,180.707 L 737.127,180.771 L 737.16,180.834 L 737.186,180.915 L 737.232,180.971 L 737.325,181.002 L 737.445,181.018 L 737.529,181.025 L 737.614,181.024 L 737.734,181.015 L 737.879,180.99 L 738.001,180.96 L 738.079,180.904 L 738.159,180.844 L 738.222,180.849 L 738.305,180.844"/></g></svg>