<svg xmlns="http://www.w3.org/2000/svg" role="img" viewBox="1219.38 191.38 74.62 84.37"><title>Chelmsford</title><g id="g14955" fill="#fefee9" fill-opacity="1" fill-rule="evenodd" stroke="#000" stroke-linecap="square" stroke-linejoin="bevel" stroke-opacity="1" stroke-width=".098" transform="translate(-216.714 -21.7) scale(2.264)"><path id="path15135" fill-rule="evenodd" d="M 644.451,96.499 L 644.51,96.5316 L 644.648,96.6575 L 644.748,96.7661 L 644.823,96.8773 L 644.912,97.0532 L 645.042,97.4274 L 645.129,97.7214 L 645.235,98.1117 L 645.344,98.4348 L 645.421,98.6702 L 645.551,98.9675 L 645.649,99.1648 L 645.722,99.2879 L 645.81,99.4203 L 646.027,99.6948 L 646.082,99.7535 L 646.513,100.043 L 646.706,100.163 L 646.898,100.261 L 647.065,100.336 L 647.234,100.386 L 647.364,100.43 L 647.618,100.469 L 647.821,100.486 L 647.988,100.493 L 648.1,100.487 L 648.242,100.481 L 648.36,100.465 L 648.571,100.427 L 649.812,104.429 L 650.316,104.718 L 657.982,108.8 L 658.571,108.763 L 658.729,109.343 L 658.615,109.464 L 659.142,111.091 L 660.021,110.969 L 660.279,110.373 L 660.2,108.652 L 666.013,108.267 L 665.97,108.351 L 665.941,108.416 L 665.904,108.507 L 665.872,108.588 L 665.855,108.661 L 665.833,108.767 L 665.817,108.852 L 665.812,108.927 L 665.82,108.988 L 665.836,109.102 L 665.859,109.192 L 665.905,109.288 L 665.942,109.373 L 665.977,109.436 L 666.019,109.506 L 666.064,109.627 L 666.078,109.695 L 666.088,109.754 L 666.147,110.116 L 666.159,110.23 L 666.16,110.441 L 666.172,110.524 L 666.21,110.817 L 666.237,110.975 L 666.281,111.057 L 666.34,111.142 L 666.438,111.273 L 666.544,111.397 L 656.827,126.858 L 653.291,125.875 L 647.666,127.807 L 646.135,128.667 L 642.615,130.633 L 637.185,104.732 L 635.117,94.8726 L 636.46,96.3755 L 636.542,96.8725 L 637.115,96.5585 L 638.237,96.8091 L 638.559,96.7588 L 638.882,97.2974 L 639.873,97.8928 L 640.023,97.7565 L 639.613,97.107 L 639.528,96.9468 L 639.408,96.7123 L 639.307,96.5228 L 639.266,96.4368 L 639.155,96.1391 L 639.067,95.9003 L 638.984,95.6003 L 639.788,95.3398 L 640.237,96.1206 L 640.372,96.2879 L 640.499,96.3863 L 640.653,96.4845 L 640.808,96.5845 L 640.879,96.6189 L 640.967,96.6569 L 641.04,96.6873 L 641.115,96.6979 L 641.253,96.7038 L 641.322,96.7165 L 641.413,96.6935 L 641.511,96.686 L 642.26,96.5248 L 642.983,96.3541 L 643.354,96.2972 L 643.502,96.2912 L 643.721,96.3133 L 644.053,96.3693 L 644.241,96.4059 L 644.451,96.499"/></g></svg>