<svg xmlns="http://www.w3.org/2000/svg" role="img" viewBox="361.32 353.57 78.48 80.73"><title>Chesterfield</title><path fill-rule="evenodd" d="M395.72517 356.26122l7.99418-.98484-1.12294 14.09566 11.61205-.89654-.6158 14.10924 6.23505-.98257-.19017 4.82911 18.60781-2.21872-1.59385 20.58429-.97805 13.12667-26.17863 3.8556.5026 11.01662-.19017-.16075-.12679-.11773-.13357-.13584-.16527-.0317-.2898.02718-.14263.04754-.15621.04075-.16075-.00679-.1132-.07924-.15395-.21508-.32149-.59317-.09961-.15395-.13132-.09962-.15848-.07924-.1698-.08376-.1132-.08604-.09508-.15848-.02717-.1698.0249-.1449-.00679-.18338-.01132-.13357-.12452-.17207-.11546-.09961-.2015-.10188-.18565-.05207-.17659-.07019-.16074.01132-.1698.0634-.15396.04075-.20828.03622-.14264.02038-.21508.0317-.21508.02716-.13584-.01585-.18338-.0249-.2581.00453-.36903.02716-.15621-.00226-.2264.01811-.2015.05434-.13131.07471-.13358.07245-.15848.0815-.18791.01132-.16754-.04528-.1879-.11773-.12-.10414-.16527-.15169-.20603-.19017-.10867-.10415-.11999-.07697-.1766-.0883-.13583-.05207-.21282-.02038-.1698.02717-.23772.01811-.2264.0317-.18791.04075-.2015.01811-.17885.04755-.20829-.08604-.17206-.07244-.14037-.06113-.14943-.10867-.163-.04076-.06566-.13357-.04075-.17433-.0068-.17433-.02263-.14263-.02944-.17433-.0498-.19244-.02717-.19697-.02264-.21734-.03849-.13131-2.21646.32149-1.4399 3.24204-.4528-.99616-.14942-.16753-.14037-.10867-.17433-.12452-.15169-.08604-.16753-.08376-.3215-.12679-.14262-.05886-.15396-.07471-.15395-.04755-.23545-.0317-.15622-.01131-.13358.00679-.16074.04528-.13131.07471-.1381.07245-.14943.05207-.21282-.03622-.27394-.09736-.58185-.29205-.40978-.26036-11.75469 1.53273-6.42297.7675-3.81031-27.4012-5.82527-43.18354 13.64513-1.83384 3.57712-.45732 15.45859-2.01496" fill="#fefee9" fill-opacity="1" stroke="#000" stroke-linecap="square" stroke-linejoin="bevel" stroke-opacity="1" stroke-width=".22187199999999999"/></svg>