<svg xmlns="http://www.w3.org/2000/svg" role="img" viewBox="517.90 526.90 69.69 76.57"><title>Chicopee</title><g id="g14955" fill="#fefee9" fill-opacity="1" fill-rule="evenodd" stroke="#000" stroke-linecap="square" stroke-linejoin="bevel" stroke-opacity="1" stroke-width=".098" transform="translate(-216.714 -21.7) scale(2.264)"><path id="path15669" fill-rule="evenodd" d="M 352.124,243.057 L 354.577,258.361 L 353.354,258.526 L 353.994,263.028 L 353.904,263.042 L 353.802,263.028 L 353.452,262.93 L 353.352,262.891 L 353.279,262.874 L 353.217,262.865 L 353.156,262.854 L 353.087,262.851 L 353.022,262.848 L 352.93,262.855 L 352.809,262.859 L 352.748,262.862 L 352.66,262.87 L 352.589,262.879 L 352.526,262.892 L 352.464,262.91 L 352.401,262.923 L 352.334,262.946 L 352.265,262.96 L 352.162,263.01 L 352.097,263.011 L 352.053,263.054 L 351.938,263.091 L 351.831,263.15 L 351.749,263.192 L 351.67,263.248 L 351.604,263.296 L 351.437,263.404 L 351.106,263.639 L 350.991,263.704 L 350.91,263.746 L 350.802,263.802 L 350.717,263.853 L 350.628,263.879 L 350.521,263.915 L 350.444,263.941 L 350.329,263.965 L 350.249,263.974 L 350.158,263.968 L 350.089,263.995 L 350.018,264.014 L 349.949,264.03 L 349.883,264.037 L 349.739,264.072 L 349.656,264.1 L 349.526,264.124 L 349.443,264.14 L 349.368,264.145 L 349.307,264.144 L 349.238,264.137 L 349.16,264.146 L 349.068,264.115 L 348.981,264.111 L 348.916,264.134 L 348.852,264.172 L 348.798,264.236 L 348.768,264.287 L 348.721,264.383 L 348.702,264.451 L 348.664,264.618 L 348.629,264.71 L 348.588,264.804 L 348.543,264.86 L 348.494,264.905 L 348.4,264.962 L 348.336,265.028 L 348.267,265.039 L 348.192,265.022 L 348.127,265.047 L 348.025,265.019 L 347.955,264.995 L 347.887,264.948 L 347.827,264.898 L 347.769,264.838 L 347.715,264.759 L 347.694,264.703 L 347.662,264.63 L 347.64,264.537 L 347.626,264.426 L 347.617,264.359 L 347.595,264.255 L 347.612,264.184 L 347.62,264.076 L 347.501,264.145 L 327.735,274.993 L 326.813,275.463 L 326.845,275.35 L 326.884,275.238 L 326.919,275.13 L 326.963,274.995 L 327.182,274.587 L 327.491,274.022 L 327.684,273.682 L 327.856,273.317 L 327.992,273.007 L 328.149,272.581 L 328.265,272.273 L 328.319,272.14 L 328.344,272.034 L 328.372,271.898 L 328.396,271.769 L 328.414,271.621 L 328.504,271.054 L 328.525,270.969 L 328.529,270.847 L 328.539,270.706 L 328.487,270.528 L 328.447,270.358 L 328.408,270.214 L 328.373,270.066 L 328.313,269.89 L 328.241,269.721 L 328.183,269.63 L 328.145,269.482 L 328.063,269.317 L 327.727,268.599 L 327.687,268.521 L 327.612,268.427 L 327.567,268.37 L 327.506,268.292 L 327.46,268.232 L 327.402,268.172 L 327.35,268.104 L 327.259,267.998 L 326.139,266.919 L 325.991,266.748 L 325.931,266.678 L 325.885,266.616 L 325.823,266.525 L 325.599,266.116 L 325.5,265.912 L 325.471,265.754 L 325.359,265.119 L 325.34,264.958 L 325.317,264.796 L 325.317,264.655 L 325.314,264.472 L 325.334,263.695 L 325.382,263.084 L 325.397,262.783 L 325.396,262.429 L 325.383,262.253 L 325.379,262.175 L 325.382,261.978 L 325.276,261.53 L 325.215,261.144 L 325.19,260.974 L 325.175,260.803 L 325.177,260.681 L 325.177,260.311 L 325.191,259.654 L 325.227,258.85 L 325.327,258.077 L 325.46,257.257 L 325.554,256.867 L 325.628,256.547 L 325.73,256.159 L 325.766,256.03 L 325.821,255.864 L 325.877,255.683 L 325.949,255.496 L 326.012,255.351 L 326.089,255.187 L 326.162,255.035 L 326.244,254.877 L 326.32,254.774 L 326.363,254.698 L 326.417,254.599 L 326.448,254.54 L 326.502,254.436 L 326.557,254.38 L 326.602,254.335 L 326.644,254.292 L 326.693,254.261 L 326.763,254.218 L 326.818,254.183 L 326.875,254.155 L 326.943,254.118 L 327.017,254.083 L 327.113,254.051 L 327.177,254.019 L 327.257,253.992 L 327.339,253.953 L 327.411,253.94 L 327.493,253.907 L 327.607,253.876 L 327.701,253.853 L 327.785,253.819 L 328.078,253.691 L 330.377,252.618 L 330.506,252.554 L 330.587,252.504 L 330.655,252.475 L 330.746,252.419 L 330.838,252.36 L 330.945,252.279 L 331.029,252.229 L 331.089,252.18 L 331.147,252.122 L 331.217,252.064 L 331.291,252.001 L 331.344,251.956 L 331.403,251.898 L 331.449,251.849 L 331.533,251.758 L 332.044,251.218 L 332.118,251.141 L 332.182,251.087 L 332.292,251 L 333.689,249.93 L 333.984,249.71 L 334.124,249.584 L 334.21,249.513 L 334.264,249.455 L 334.33,249.397 L 334.404,249.325 L 334.438,249.268 L 334.482,249.224 L 334.566,249.148 L 334.646,249.067 L 334.709,249.005 L 334.777,248.917 L 334.811,248.861 L 334.876,248.767 L 334.92,248.722 L 334.974,248.641 L 335.033,248.551 L 335.086,248.451 L 335.126,248.379 L 335.165,248.322 L 335.183,248.262 L 335.205,248.166 L 335.206,248.107 L 335.203,248.044 L 335.21,247.965 L 335.202,247.88 L 335.199,247.791 L 335.193,247.724 L 335.178,247.637 L 335.178,247.559 L 335.162,247.46 L 335.137,247.276 L 335.111,247.109 L 335.118,247.004 L 335.056,246.808 L 335.014,246.654 L 334.975,246.484 L 334.943,246.33 L 334.9,246.178 L 334.841,246.033 L 334.798,245.918 L 334.708,245.773 L 334.437,245.381 L 334.396,245.322 L 334.476,245.315 L 334.596,245.313 L 334.699,245.299 L 334.929,245.263 L 346.486,243.771 L 352.124,243.057"/></g></svg>