<svg xmlns="http://www.w3.org/2000/svg" role="img" viewBox="429.92 121.17 101.79 87.54"><title>Colrain</title><g id="g14955" fill="#fefee9" fill-opacity="1" fill-rule="evenodd" stroke="#000" stroke-linecap="square" stroke-linejoin="bevel" stroke-opacity="1" stroke-width=".098" transform="translate(-216.714 -21.7) scale(2.264)"><path id="path15021" fill-rule="evenodd" d="M 316.088,65.54 L 316.624,69.9557 L 316.635,70.0483 L 316.659,70.1647 L 316.677,70.2297 L 316.702,70.303 L 316.738,70.3822 L 316.762,70.467 L 316.814,70.5563 L 316.851,70.6315 L 316.887,70.6791 L 316.927,70.7467 L 316.958,70.7963 L 317.018,70.868 L 317.055,70.9195 L 317.105,70.9989 L 317.143,71.0663 L 317.16,71.1256 L 317.198,71.2342 L 317.212,71.3013 L 317.215,71.4254 L 317.197,71.549 L 317.19,71.6393 L 317.191,71.7239 L 317.192,71.7927 L 317.173,71.869 L 317.155,71.9947 L 317.166,72.0617 L 317.134,72.1281 L 317.112,72.2358 L 317.097,72.3302 L 317.063,72.4102 L 316.999,72.4625 L 316.938,72.4851 L 316.874,72.5059 L 316.795,72.5401 L 316.701,72.5564 L 316.645,72.5988 L 316.593,72.6786 L 316.568,72.7511 L 316.567,72.8278 L 316.569,72.9283 L 316.56,73.0126 L 316.553,73.0953 L 316.525,73.1576 L 316.463,73.196 L 316.375,73.2183 L 316.292,73.221 L 316.158,73.2231 L 316.052,73.2312 L 315.984,73.2698 L 315.954,73.338 L 315.941,73.4263 L 315.936,73.5108 L 315.921,73.5735 L 315.937,73.6781 L 315.94,73.7881 L 315.954,73.8573 L 315.99,73.9464 L 316.029,74.0176 L 316.091,74.0678 L 316.163,74.0727 L 316.38,74.0504 L 316.667,74.0428 L 316.726,74.0378 L 316.803,74.0428 L 316.899,74.0854 L 316.957,74.1356 L 317,74.1796 L 317.022,74.2388 L 317.027,74.3076 L 317.008,74.4372 L 316.999,74.5139 L 316.99,74.5943 L 316.971,74.6787 L 316.95,74.7572 L 316.935,74.8747 L 316.925,74.9849 L 316.929,75.0952 L 316.918,75.2248 L 316.909,75.3051 L 316.911,75.3997 L 316.913,75.5689 L 316.905,75.6611 L 316.926,75.7382 L 316.955,75.7936 L 316.995,75.8728 L 317.049,75.9486 L 317.114,76.0301 L 317.198,76.0865 L 317.291,76.1665 L 317.371,76.2405 L 317.453,76.2908 L 317.488,76.3387 L 317.534,76.3885 L 317.59,76.4367 L 317.637,76.4962 L 317.691,76.5483 L 317.741,76.6257 L 317.814,76.723 L 317.857,76.7788 L 317.909,76.8367 L 317.968,76.8729 L 318.028,76.8855 L 318.099,76.8845 L 318.172,76.8818 L 318.224,76.9296 L 318.233,77.0085 L 318.23,77.0753 L 318.235,77.1561 L 318.23,77.2485 L 318.238,77.3488 L 318.255,77.416 L 318.312,77.5051 L 318.349,77.553 L 318.421,77.6248 L 318.503,77.687 L 318.555,77.7486 L 318.599,77.8044 L 318.616,77.8873 L 318.632,77.9857 L 318.641,78.0647 L 318.653,78.165 L 318.679,78.2873 L 318.719,78.3508 L 318.884,78.6561 L 319.004,78.88 L 319.015,78.9509 L 319.008,79.0276 L 318.989,79.106 L 318.962,79.1978 L 318.943,79.284 L 318.948,79.3667 L 318.961,79.4378 L 318.995,79.5011 L 319.038,79.5608 L 319.106,79.6108 L 319.154,79.6468 L 319.207,79.6791 L 319.311,79.7299 L 319.457,79.7733 L 319.567,79.8004 L 319.667,79.849 L 319.796,79.8961 L 319.918,79.9135 L 320.044,80.0038 L 320.142,80.0288 L 320.271,80.07 L 320.336,80.1004 L 320.408,80.1506 L 320.497,80.2091 L 320.624,80.3112 L 320.662,80.3567 L 320.718,80.452 L 320.778,80.5432 L 320.82,80.605 L 320.841,80.672 L 320.837,80.7623 L 320.823,80.8231 L 320.782,80.8913 L 320.742,80.999 L 320.701,81.1024 L 320.662,81.22 L 320.617,81.3215 L 320.582,81.4213 L 320.533,81.5425 L 320.536,81.6211 L 320.582,81.661 L 320.67,81.7292 L 320.732,81.7577 L 320.832,81.7865 L 320.889,81.8032 L 320.946,81.8119 L 321.026,81.8346 L 321.142,81.8658 L 321.24,81.8871 L 321.312,81.9156 L 321.436,81.9528 L 321.514,81.9892 L 321.574,82.0548 L 321.604,82.1162 L 321.603,82.1989 L 321.602,82.3031 L 321.569,82.3872 L 321.508,82.4945 L 321.472,82.553 L 321.41,82.615 L 321.361,82.6595 L 321.295,82.6663 L 321.207,82.6611 L 321.138,82.6582 L 321.051,82.6824 L 320.996,82.719 L 320.95,82.7753 L 320.9,82.8257 L 320.862,82.8743 L 320.823,82.9565 L 320.785,83.0502 L 320.766,83.1089 L 320.753,83.2189 L 320.752,83.2819 L 320.752,83.384 L 320.799,83.4436 L 320.847,83.4818 L 320.981,83.5976 L 321.086,83.6778 L 321.371,83.9358 L 321.422,84.0013 L 321.468,84.0727 L 321.49,84.1636 L 321.503,84.2424 L 321.557,84.7191 L 321.571,84.796 L 321.596,84.8671 L 321.624,84.948 L 321.666,85.0255 L 321.717,85.0891 L 322,85.3194 L 322.078,85.3676 L 322.155,85.3943 L 322.203,85.4284 L 322.305,85.4555 L 322.43,85.4927 L 322.516,85.5293 L 322.579,85.5498 L 322.644,85.5686 L 322.698,85.593 L 322.771,85.6176 L 322.863,85.6583 L 322.947,85.699 L 322.999,85.743 L 323.093,85.7954 L 323.213,85.8817 L 323.289,85.9359 L 323.359,85.9802 L 323.414,86.0165 L 323.488,86.0707 L 323.574,86.1288 L 323.652,86.1792 L 323.708,86.2233 L 323.762,86.2654 L 323.821,86.3173 L 323.859,86.3711 L 323.975,86.5359 L 324.019,86.6072 L 324.061,86.665 L 324.102,86.7382 L 324.13,86.8056 L 324.159,86.8571 L 324.189,86.9127 L 324.247,87.0059 L 324.299,87.0833 L 324.361,87.1412 L 324.424,87.1658 L 324.521,87.2104 L 324.836,87.2112 L 325.011,87.2354 L 325.217,87.252 L 325.29,87.265 L 325.366,87.2838 L 325.43,87.3398 L 325.489,87.3721 L 325.531,87.4593 L 325.626,87.6613 L 325.664,87.7483 L 325.695,87.8155 L 325.743,87.891 L 325.779,87.9584 L 325.854,88.0559 L 325.905,88.1097 L 325.943,88.1576 L 325.996,88.2132 L 326.048,88.2631 L 326.098,88.3152 L 326.164,88.3869 L 326.224,88.4545 L 326.26,88.5299 L 326.293,88.5893 L 326.307,88.6703 L 326.291,88.7406 L 326.264,88.8091 L 326.283,88.8998 L 326.382,88.9426 L 326.469,88.9498 L 326.571,88.9533 L 326.634,88.9542 L 326.73,88.9713 L 326.814,89.0216 L 326.864,89.0815 L 326.888,89.1545 L 326.911,89.2355 L 326.916,89.324 L 326.916,89.4067 L 326.909,89.4931 L 326.9,89.55 L 326.872,89.6223 L 326.853,89.6967 L 326.822,89.7751 L 326.774,89.8491 L 326.692,89.9462 L 326.584,90.0409 L 326.469,90.1455 L 326.409,90.1958 L 326.365,90.252 L 326.349,90.3167 L 326.354,90.3796 L 326.433,90.4498 L 326.49,90.4819 L 327.509,90.8371 L 327.56,90.8654 L 327.624,90.8937 L 327.703,90.9206 L 327.757,90.9448 L 327.837,90.9814 L 327.904,91.0217 L 327.968,91.068 L 328.034,91.1102 L 328.087,91.1465 L 328.121,91.1941 L 328.17,91.2538 L 328.204,91.3547 L 328.232,91.4593 L 328.254,91.5244 L 328.294,91.6272 L 328.35,91.7146 L 328.38,91.7858 L 328.421,91.8593 L 328.431,91.9284 L 328.481,91.9881 L 328.496,92.053 L 328.509,92.1329 L 328.506,92.2298 L 328.49,92.2922 L 328.448,92.3673 L 328.393,92.4373 L 328.335,92.5225 L 328.272,92.6038 L 328.217,92.6774 L 328.184,92.7357 L 328.171,92.814 L 328.183,92.9029 L 328.199,92.9701 L 328.259,93.115 L 328.297,93.2711 L 328.33,93.3821 L 328.375,93.5148 L 328.433,93.5903 L 328.49,93.6614 L 328.535,93.7093 L 328.609,93.803 L 328.677,93.8475 L 328.753,93.894 L 328.812,93.9089 L 328.908,93.895 L 328.943,93.8342 L 329.018,93.796 L 329.103,93.8053 L 329.166,93.8103 L 329.244,93.8196 L 329.295,93.8539 L 329.318,93.937 L 329.342,94.0066 L 329.374,94.0978 L 329.432,94.2152 L 329.474,94.2867 L 329.531,94.3938 L 329.621,94.5898 L 329.67,94.677 L 329.675,94.7653 L 329.67,94.836 L 329.643,94.9022 L 329.601,94.9526 L 329.559,95.0148 L 329.512,95.0787 L 329.475,95.1819 L 329.414,95.3194 L 328.408,95.5422 L 326.259,95.8695 L 300.223,99.7399 L 296.545,100.29 L 292.317,100.916 L 290.75,90.9291 L 286.537,64.0644 L 297.05,64.5717 L 313.108,65.3719 L 316.088,65.54"/></g></svg>