<svg xmlns="http://www.w3.org/2000/svg" role="img" viewBox="1212.37 307.62 84.63 75.00"><title>Concord</title><g id="g14955" fill="#fefee9" fill-opacity="1" fill-rule="evenodd" stroke="#000" stroke-linecap="square" stroke-linejoin="bevel" stroke-opacity="1" stroke-width=".098" transform="translate(-216.714 -21.7) scale(2.264)"><path id="path15325" fill-rule="evenodd" d="M 643.485,146.254 L 646.159,146.416 L 651.469,146.791 L 660.611,146.881 L 660.637,147.097 L 660.618,147.282 L 660.589,147.435 L 660.559,147.622 L 660.552,147.734 L 660.524,147.872 L 660.497,148.004 L 660.483,148.153 L 660.459,148.379 L 660.433,148.672 L 660.422,148.928 L 660.425,149.195 L 660.418,149.34 L 660.407,149.419 L 660.378,149.578 L 660.381,149.882 L 660.404,150.304 L 660.399,150.385 L 660.376,150.546 L 660.32,150.792 L 660.273,151.034 L 660.243,151.188 L 660.256,151.568 L 660.254,151.672 L 660.233,151.792 L 660.192,151.918 L 660.143,152.066 L 660.128,152.206 L 660.117,152.267 L 660.127,152.336 L 660.143,152.405 L 660.214,152.507 L 660.293,152.587 L 660.472,152.756 L 660.596,152.869 L 660.687,152.977 L 660.725,153.04 L 660.751,153.116 L 660.768,153.191 L 660.775,153.268 L 660.765,153.35 L 660.746,153.412 L 660.713,153.463 L 660.652,153.524 L 660.568,153.601 L 660.413,153.695 L 660.289,153.74 L 660.232,153.758 L 660.116,153.775 L 660.02,153.789 L 659.939,153.819 L 659.874,153.846 L 659.721,154.477 L 660.012,154.521 L 660.866,155.787 L 660.831,155.844 L 661.643,156.632 L 662.732,155.86 L 663.489,156.533 L 664.055,156.45 L 664.693,156.937 L 664.936,156.812 L 665.484,157.08 L 667.783,159.378 L 667.891,159.94 L 664.579,160.814 L 664.609,161.129 L 664.361,161.083 L 663.963,163.966 L 663.945,164.043 L 663.454,163.976 L 662.73,163.914 L 662.521,163.815 L 662.098,163.541 L 661.694,163.238 L 656.172,169.205 L 651.79,172.942 L 651.728,173.048 L 651.52,173.706 L 651.308,174.618 L 651.281,174.699 L 651.201,174.784 L 651.001,174.97 L 650.948,175.049 L 650.816,175.304 L 650.767,175.375 L 650.704,175.406 L 650.633,175.405 L 650.56,175.374 L 650.111,175.151 L 649.612,174.992 L 649.501,174.957 L 649.397,174.968 L 649.317,174.988 L 648.997,175.086 L 648.856,175.152 L 648.801,175.184 L 648.75,175.247 L 648.723,175.377 L 648.714,175.478 L 648.706,175.647 L 648.717,175.856 L 648.724,175.97 L 648.755,176.094 L 648.793,176.212 L 648.825,176.34 L 648.849,176.444 L 648.872,176.585 L 648.872,176.701 L 648.86,176.76 L 648.827,176.818 L 648.794,176.873 L 648.738,176.985 L 648.697,177.086 L 648.673,177.149 L 648.658,177.206 L 648.627,177.3 L 648.602,177.42 L 648.584,177.487 L 648.534,177.576 L 648.481,177.633 L 648.229,177.846 L 646.201,176.804 L 632.014,169.415 L 642.723,147.769 L 643.485,146.254"/></g></svg>