<svg xmlns="http://www.w3.org/2000/svg" role="img" viewBox="440.82 238.82 72.97 113.10"><title>Conway</title><g id="g14955" fill="#fefee9" fill-opacity="1" fill-rule="evenodd" stroke="#000" stroke-linecap="square" stroke-linejoin="bevel" stroke-opacity="1" stroke-width=".098" transform="translate(-216.714 -21.7) scale(2.264)"><path id="path15217" fill-rule="evenodd" d="M 303.98,116.128 L 303.997,116.22 L 304.077,116.269 L 304.116,116.318 L 304.168,116.376 L 304.202,116.447 L 304.237,116.511 L 304.277,116.588 L 304.31,116.653 L 304.339,116.715 L 304.369,116.8 L 304.391,116.889 L 304.4,116.953 L 304.435,117.044 L 304.436,117.133 L 304.466,117.224 L 304.525,117.376 L 304.534,117.433 L 304.565,117.494 L 304.654,117.602 L 304.706,117.685 L 304.774,117.762 L 304.824,117.8 L 304.894,117.858 L 304.99,117.921 L 305.089,117.989 L 305.146,118.017 L 305.203,118.049 L 305.273,118.078 L 305.343,118.122 L 305.404,118.164 L 305.489,118.234 L 305.555,118.297 L 305.616,118.333 L 305.68,118.384 L 305.752,118.435 L 305.834,118.486 L 305.912,118.546 L 305.984,118.588 L 306.088,118.627 L 306.147,118.655 L 306.203,118.679 L 306.264,118.701 L 306.336,118.734 L 306.431,118.761 L 306.489,118.779 L 306.546,118.798 L 306.621,118.822 L 306.681,118.844 L 306.75,118.879 L 306.826,118.923 L 306.894,118.967 L 306.954,119.023 L 307.004,119.094 L 307.051,119.181 L 307.065,119.25 L 307.098,119.304 L 307.097,119.371 L 307.1,119.467 L 307.097,119.58 L 307.09,119.656 L 307.068,119.815 L 307.061,119.878 L 307.051,119.937 L 307.037,120.06 L 307.016,120.147 L 306.978,120.243 L 306.978,120.363 L 306.999,120.449 L 306.963,120.51 L 306.965,120.606 L 306.965,120.667 L 306.967,120.756 L 306.964,120.892 L 306.965,120.962 L 306.958,121.055 L 306.959,121.232 L 306.972,121.317 L 306.983,121.401 L 306.985,121.509 L 306.992,121.606 L 307.001,121.688 L 307.019,121.821 L 307.027,121.929 L 307.04,122.029 L 307.056,122.132 L 307.065,122.232 L 307.091,122.331 L 307.112,122.398 L 307.13,122.469 L 307.153,122.542 L 307.199,122.617 L 307.245,122.707 L 307.303,122.776 L 307.342,122.84 L 307.4,122.939 L 307.45,122.996 L 307.5,123.062 L 307.545,123.122 L 307.583,123.189 L 307.677,123.275 L 307.733,123.327 L 307.778,123.368 L 307.845,123.448 L 307.902,123.502 L 307.968,123.526 L 308.047,123.559 L 308.105,123.593 L 308.181,123.629 L 308.273,123.68 L 308.336,123.708 L 308.396,123.728 L 308.455,123.753 L 308.528,123.77 L 308.612,123.798 L 308.706,123.811 L 308.806,123.82 L 308.903,123.814 L 308.96,123.807 L 309.043,123.794 L 309.133,123.774 L 309.248,123.73 L 309.376,123.721 L 309.508,123.694 L 309.717,123.643 L 309.83,123.613 L 309.964,123.593 L 310.021,123.586 L 310.084,123.581 L 310.155,123.572 L 310.275,123.56 L 310.338,123.573 L 310.399,123.569 L 310.485,123.571 L 310.55,123.581 L 310.654,123.594 L 310.734,123.611 L 310.799,123.62 L 310.88,123.644 L 310.972,123.661 L 311.089,123.704 L 311.163,123.748 L 311.265,123.781 L 311.346,123.808 L 311.41,123.824 L 311.492,123.871 L 311.598,123.921 L 311.696,123.968 L 311.793,124.004 L 312.038,124.076 L 312.097,124.089 L 312.174,124.094 L 312.247,124.105 L 312.319,124.115 L 312.392,124.126 L 312.463,124.133 L 312.553,124.13 L 312.659,124.122 L 312.744,124.119 L 312.836,124.116 L 312.925,124.113 L 312.992,124.108 L 313.11,124.094 L 313.175,124.091 L 313.295,124.093 L 313.384,124.092 L 313.507,124.103 L 313.602,124.116 L 313.69,124.155 L 313.774,124.197 L 313.848,124.23 L 313.897,124.266 L 313.943,124.313 L 313.998,124.365 L 314.001,124.432 L 314.019,124.527 L 314.016,124.586 L 314.029,124.667 L 314.027,124.816 L 314.016,124.938 L 313.999,125.046 L 313.995,125.18 L 313.986,125.313 L 313.982,125.459 L 313.986,125.571 L 313.989,125.701 L 313.993,125.811 L 314.006,125.875 L 314.013,125.936 L 314.038,126.001 L 314.036,126.111 L 314.077,126.184 L 314.107,126.273 L 314.143,126.362 L 314.176,126.441 L 314.199,126.501 L 314.245,126.56 L 314.3,126.61 L 314.336,126.678 L 314.375,126.733 L 314.408,126.781 L 314.454,126.858 L 314.506,126.908 L 314.541,126.967 L 314.576,127.021 L 314.606,127.098 L 314.625,127.165 L 314.667,127.223 L 314.686,127.29 L 314.713,127.357 L 314.745,127.432 L 314.774,127.49 L 314.807,127.537 L 315.01,127.51 L 315.062,127.584 L 315.177,127.68 L 315.273,127.732 L 315.358,127.778 L 315.46,127.829 L 315.546,127.862 L 315.634,127.91 L 315.922,127.976 L 316.021,127.991 L 316.132,128.032 L 316.273,128.075 L 316.432,128.13 L 316.528,128.163 L 316.6,128.203 L 316.711,128.258 L 316.819,128.324 L 317.016,128.45 L 317.199,128.571 L 317.508,128.724 L 317.689,128.819 L 317.869,128.945 L 317.939,129.017 L 317.987,129.064 L 318.053,129.146 L 318.113,129.223 L 318.155,129.283 L 318.182,129.358 L 318.218,129.419 L 318.249,129.471 L 318.28,129.526 L 318.317,129.584 L 318.368,129.695 L 318.389,129.756 L 318.404,129.823 L 318.439,129.886 L 318.461,129.945 L 318.492,130.046 L 318.512,130.111 L 318.559,130.346 L 318.587,130.415 L 318.614,130.504 L 318.656,130.601 L 318.702,130.672 L 318.803,130.782 L 318.896,130.871 L 318.966,130.953 L 319.016,131.001 L 319.256,131.204 L 319.353,131.286 L 319.557,131.472 L 319.839,131.715 L 319.923,131.793 L 319.963,131.859 L 319.996,131.91 L 320.04,132.009 L 320.607,133.334 L 320.625,133.417 L 320.654,133.506 L 320.8,133.887 L 320.896,134.123 L 321.045,134.429 L 321.247,134.794 L 321.702,135.71 L 321.668,135.865 L 319.742,145.79 L 318.378,152.666 L 317.864,156.381 L 319.522,156.155 L 319.193,157.572 L 319.577,159.161 L 319.181,160.151 L 308.054,161.866 L 295.621,163.705 L 293.547,164.039 L 293.737,161.815 L 291.485,162.028 L 291.714,160.587 L 293.252,160.399 L 293.467,158.87 L 291.948,159.13 L 292.092,157.912 L 292.609,158.069 L 295.521,145.45 L 295.926,143.635 L 300.379,123.948 L 297.258,123.36 L 298.188,116.921 L 303.98,116.128"/></g></svg>