<svg xmlns="http://www.w3.org/2000/svg" role="img" viewBox="1458.93 222.37 56.88 58.63"><title>Danvers</title><g id="g14955" fill="#fefee9" fill-opacity="1" fill-rule="evenodd" stroke="#000" stroke-linecap="square" stroke-linejoin="bevel" stroke-opacity="1" stroke-width=".098" transform="translate(-216.714 -21.7) scale(2.264)"><path id="path15201" d="M 758.858,108.649 L 759.268,109.86 L 758.165,113.056 L 759.8,115.591 L 761.097,115.81 L 764.708,122.149 L 764.698,127.453 L 763.987,130.243 L 763.863,130.218 L 763.729,130.238 L 763.825,130.402 L 763.834,130.566 L 763.702,130.859 L 763.616,130.883 L 763.497,130.828 L 763.41,130.712 L 763.346,130.531 L 763.352,130.301 L 763.367,130.152 L 763.17,130.084 L 763.106,129.996 L 763.001,129.58 L 763.007,129.313 L 762.951,129.172 L 762.934,129.005 L 762.988,128.848 L 762.972,128.768 L 762.892,128.684 L 762.899,128.572 L 762.97,128.501 L 763.103,128.429 L 763.204,128.169 L 763.274,128.105 L 763.274,128.043 L 762.928,128.084 L 762.849,128.052 L 762.816,127.824 L 762.902,127.738 L 762.901,127.595 L 762.783,127.564 L 762.571,127.707 L 762.477,127.701 L 762.405,127.637 L 762.373,127.505 L 762.442,127.308 L 762.441,127.128 L 762.52,127.07 L 762.716,127.03 L 762.771,126.951 L 762.558,126.904 L 762.486,126.804 L 762.485,126.708 L 762.618,126.471 L 762.671,126.212 L 762.671,126.125 L 762.56,126.11 L 762.49,126.205 L 762.451,126.278 L 762.444,126.34 L 762.28,126.649 L 762.282,126.829 L 762.212,127.032 L 762.041,127.335 L 761.947,127.421 L 761.813,127.453 L 761.592,127.351 L 761.756,127.061 L 761.809,126.83 L 761.8,126.722 L 761.691,126.769 L 761.597,126.967 L 761.519,126.929 L 761.502,126.762 L 761.454,126.707 L 761.36,126.747 L 761.329,126.835 L 761.323,127.149 L 761.285,127.267 L 761.19,127.339 L 761.08,127.342 L 760.684,126.966 L 760.557,126.762 L 760.564,126.675 L 760.729,126.626 L 760.783,126.538 L 760.735,126.406 L 760.625,126.36 L 760.53,126.375 L 760.422,126.564 L 760.328,126.654 L 760.227,126.865 L 760.259,126.944 L 760.346,127.032 L 760.474,127.353 L 760.553,127.422 L 761.281,127.844 L 761.525,127.905 L 761.809,128.027 L 761.92,128.129 L 762,128.263 L 762.277,128.553 L 762.317,128.623 L 762.374,128.938 L 762.47,129.081 L 762.463,129.251 L 762.307,129.452 L 762.166,129.499 L 762.15,129.639 L 762.073,129.735 L 761.852,129.769 L 761.765,129.737 L 761.678,129.669 L 761.638,129.589 L 760.824,129.012 L 760.698,129.012 L 760.627,129.098 L 760.605,129.242 L 760.731,129.359 L 760.818,129.365 L 761.158,129.529 L 761.443,129.849 L 761.491,129.953 L 761.595,130.102 L 761.706,130.235 L 761.722,130.306 L 761.778,130.376 L 761.904,130.428 L 761.99,130.407 L 762.107,130.214 L 762.217,130.143 L 762.461,130.136 L 762.532,130.165 L 762.675,130.306 L 762.699,130.377 L 762.708,130.628 L 762.67,130.778 L 762.585,130.96 L 762.483,131.031 L 762.106,131.287 L 761.902,131.368 L 761.65,131.391 L 761.407,131.457 L 761.289,131.426 L 761.218,131.45 L 761.187,131.616 L 761.14,131.663 L 760.645,131.833 L 760.504,131.85 L 760.132,131.653 L 759.951,131.615 L 759.762,131.633 L 759.691,131.595 L 759.659,131.53 L 759.626,131.286 L 759.61,131.216 L 759.555,131.177 L 759.46,131.217 L 759.493,131.368 L 759.493,131.461 L 759.454,131.518 L 759.352,131.527 L 759.233,131.441 L 758.973,131.411 L 758.831,131.326 L 758.603,131.351 L 758.484,131.28 L 757.758,131.081 L 757.718,131.164 L 757.422,131.066 L 757.355,131.058 L 757.226,131.154 L 757.12,131.28 L 757.078,131.324 L 757.005,131.347 L 756.943,131.36 L 756.851,131.389 L 756.804,131.427 L 756.752,131.467 L 756.664,131.514 L 756.597,131.523 L 756.542,131.485 L 756.513,131.424 L 756.455,131.362 L 756.398,131.33 L 756.318,131.26 L 756.246,131.184 L 746.548,128.123 L 741.558,126.025 L 740.727,125.653 L 740.68,125.596 L 740.731,125.547 L 740.772,125.46 L 740.802,125.359 L 740.816,125.237 L 740.816,125.131 L 740.805,125.017 L 740.806,124.942 L 740.86,124.87 L 740.974,124.855 L 741.051,124.842 L 741.111,124.816 L 741.168,124.76 L 741.23,124.694 L 741.29,124.63 L 741.358,124.586 L 741.426,124.532 L 741.549,124.489 L 741.613,124.464 L 741.681,124.439 L 741.778,124.422 L 741.88,124.387 L 741.964,124.348 L 742.042,124.302 L 742.092,124.259 L 742.133,124.2 L 742.106,124.126 L 742.041,124.094 L 741.981,124.028 L 741.956,123.967 L 742.039,123.949 L 742.117,123.897 L 742.114,123.821 L 742.138,123.725 L 742.217,123.76 L 742.295,123.776 L 742.319,123.702 L 742.263,123.635 L 742.215,123.575 L 742.233,123.487 L 742.302,123.433 L 742.39,123.409 L 742.438,123.346 L 742.424,123.289 L 742.351,123.292 L 742.28,123.316 L 742.216,123.328 L 742.203,123.254 L 742.207,123.141 L 742.206,123.067 L 742.197,122.991 L 742.228,122.923 L 742.312,122.878 L 742.342,122.933 L 742.312,123.051 L 742.377,123.081 L 742.438,123.03 L 742.494,122.945 L 742.574,122.894 L 742.649,122.92 L 742.653,122.833 L 742.592,122.784 L 742.532,122.746 L 742.476,122.684 L 742.504,122.578 L 742.604,122.574 L 742.663,122.581 L 742.766,122.583 L 742.818,122.518 L 742.779,122.434 L 742.757,122.372 L 742.725,122.279 L 742.699,122.21 L 742.665,122.15 L 742.697,122.098 L 742.766,122.093 L 742.817,122.062 L 742.895,122.028 L 742.956,122.046 L 743.017,122.051 L 743.065,122.013 L 743.129,121.944 L 743.152,121.879 L 743.154,121.796 L 743.148,121.737 L 743.097,121.645 L 743.034,121.615 L 742.967,121.52 L 742.989,121.421 L 743.053,121.366 L 743.107,121.267 L 743.115,121.202 L 743.122,121.133 L 743.17,121.077 L 743.26,121.009 L 743.245,120.948 L 743.212,120.879 L 743.179,120.791 L 743.126,120.757 L 743.131,120.682 L 743.161,120.605 L 743.232,120.525 L 743.293,120.508 L 743.418,120.492 L 743.469,120.456 L 743.503,120.375 L 743.52,120.315 L 743.528,120.227 L 743.582,120.19 L 743.633,120.129 L 743.639,120.058 L 743.668,119.98 L 743.688,119.898 L 743.738,119.847 L 743.816,119.779 L 743.903,119.693 L 743.956,119.6 L 743.971,119.543 L 743.974,119.474 L 743.969,119.389 L 743.938,119.313 L 743.863,119.318 L 743.809,119.378 L 743.76,119.499 L 743.697,119.502 L 743.647,119.461 L 743.631,119.403 L 743.635,119.326 L 743.663,119.2 L 743.693,119.113 L 743.706,119.055 L 743.677,119.001 L 743.627,118.964 L 743.571,118.874 L 743.579,118.798 L 743.596,118.74 L 743.656,118.645 L 743.684,118.576 L 743.728,118.488 L 743.714,118.378 L 743.705,118.317 L 743.729,118.185 L 743.724,118.118 L 743.694,118.017 L 743.652,117.921 L 743.608,117.875 L 743.548,117.813 L 743.502,117.764 L 743.534,117.679 L 743.593,117.68 L 743.656,117.683 L 743.717,117.686 L 743.779,117.683 L 743.858,117.654 L 743.933,117.6 L 743.977,117.532 L 744.85,116.539 L 745.049,116.487 L 745.029,116.352 L 744.934,115.816 L 747.887,114.876 L 750.345,113.068 L 750.392,113.118 L 752.862,111.116 L 755.609,109.647 L 758.513,108.369 L 758.708,108.618 L 758.858,108.649"/><path id="path15271" d="M 763.472,132.978 L 761.197,132.271 L 761.214,132.182 L 761.293,132.112 L 761.576,132.007 L 761.638,131.918 L 761.677,131.809 L 761.825,131.649 L 761.99,131.564 L 762.344,131.544 L 762.439,131.591 L 762.675,131.55 L 762.777,131.534 L 763.062,131.659 L 763.323,131.862 L 763.781,132.088 L 764.089,132.147 L 764.231,132.273 L 764.24,132.406 L 764.202,132.581 L 764.188,132.95 L 764.157,133.004 L 764.123,133.182 L 763.472,132.978"/></g></svg>