<svg xmlns="http://www.w3.org/2000/svg" role="img" viewBox="1327.95 482.33 60.84 58.09"><title>Dedham</title><g id="g14955" fill="#fefee9" fill-opacity="1" fill-rule="evenodd" stroke="#000" stroke-linecap="square" stroke-linejoin="bevel" stroke-opacity="1" stroke-width=".098" transform="translate(-216.714 -21.7) scale(2.264)"><path id="path15575" fill-rule="evenodd" d="M 693.909,223.256 L 693.963,223.294 L 694.448,223.445 L 694.637,223.527 L 694.657,223.592 L 695.161,224.78 L 695.216,224.819 L 695.283,224.819 L 695.356,224.789 L 695.672,224.679 L 695.894,224.603 L 696.056,224.577 L 696.215,224.576 L 696.343,224.569 L 696.636,224.54 L 696.802,224.553 L 696.906,224.598 L 696.997,224.653 L 697.147,224.719 L 697.283,224.75 L 697.392,224.771 L 697.431,224.822 L 697.461,224.89 L 697.444,224.985 L 697.401,225.151 L 697.333,225.332 L 697.322,225.472 L 697.314,225.556 L 697.343,225.662 L 697.392,225.802 L 697.528,226.055 L 697.601,226.25 L 697.631,226.348 L 697.677,226.446 L 697.695,226.517 L 697.735,226.601 L 697.783,226.685 L 697.82,226.768 L 697.821,226.848 L 697.762,226.937 L 697.5,227.244 L 697.443,227.333 L 697.418,227.4 L 697.41,227.494 L 697.411,227.575 L 697.427,227.659 L 697.451,227.748 L 697.477,227.805 L 697.52,227.854 L 697.587,227.891 L 697.643,227.922 L 697.759,227.963 L 698.065,228.081 L 698.114,228.114 L 698.156,228.159 L 698.199,228.24 L 698.225,228.315 L 698.244,228.397 L 698.256,228.464 L 701.511,231.935 L 703.112,230.837 L 704.562,231.712 L 704.825,233.656 L 705.62,238.548 L 708.654,241.293 L 708.604,241.345 L 708.534,241.41 L 708.459,241.465 L 708.375,241.521 L 708.245,241.569 L 708.151,241.575 L 708.078,241.576 L 708.023,241.55 L 707.971,241.521 L 707.91,241.503 L 707.788,241.488 L 707.686,241.522 L 707.615,241.574 L 707.562,241.613 L 707.464,241.655 L 707.382,241.647 L 707.309,241.636 L 707.238,241.615 L 707.118,241.613 L 707.006,241.718 L 706.873,241.892 L 706.577,242.326 L 706.421,242.517 L 706.352,242.608 L 706.307,242.673 L 706.266,242.76 L 706.292,242.886 L 706.292,242.951 L 706.279,243.041 L 706.254,243.126 L 706.207,243.179 L 706.181,243.258 L 706.16,243.425 L 706.129,243.514 L 706.094,243.595 L 706.039,243.688 L 706.006,243.761 L 705.955,243.836 L 705.908,243.895 L 705.853,244.005 L 705.82,244.102 L 705.769,244.179 L 705.756,244.248 L 705.768,244.352 L 705.843,244.418 L 705.914,244.465 L 705.977,244.526 L 705.999,244.628 L 705.952,244.674 L 705.87,244.735 L 705.756,244.791 L 705.732,244.85 L 705.701,244.954 L 705.668,245.112 L 705.629,245.21 L 705.606,245.297 L 705.601,245.441 L 705.601,245.572 L 705.603,245.665 L 705.62,245.745 L 705.647,245.822 L 705.683,245.901 L 705.695,245.975 L 705.664,246.042 L 705.617,246.086 L 705.558,246.127 L 705.491,246.21 L 705.474,246.277 L 705.462,246.352 L 705.464,246.425 L 705.486,246.484 L 705.532,246.525 L 705.607,246.599 L 705.66,246.664 L 705.694,246.711 L 705.731,246.799 L 705.685,246.914 L 705.641,246.955 L 705.557,246.993 L 705.482,246.999 L 705.425,247.041 L 705.339,247.085 L 705.274,247.175 L 705.241,247.248 L 705.196,247.341 L 705.173,247.434 L 705.144,247.499 L 705.073,247.585 L 705.02,247.621 L 704.971,247.657 L 704.908,247.689 L 704.815,247.743 L 699.481,242.839 L 694.533,241.065 L 689.495,236.193 L 689.306,236.003 L 686.59,233.712 L 682.83,230.586 L 682.931,230.34 L 683.043,230.144 L 683.109,229.991 L 683.185,229.795 L 683.225,229.606 L 683.277,229.335 L 683.325,229.151 L 683.345,229.051 L 683.374,228.984 L 683.436,228.905 L 683.495,228.883 L 683.574,228.865 L 683.688,228.89 L 683.746,228.939 L 683.809,228.962 L 683.919,228.987 L 683.976,228.997 L 684.079,228.97 L 684.145,228.954 L 684.214,228.936 L 684.277,228.924 L 684.376,228.924 L 684.47,228.953 L 684.512,228.994 L 684.583,229.098 L 684.635,229.153 L 684.688,229.194 L 684.759,229.237 L 684.913,229.364 L 684.972,229.381 L 685.061,229.373 L 685.151,229.333 L 685.224,229.284 L 685.285,229.246 L 685.334,229.198 L 685.448,229.137 L 685.53,229.113 L 685.589,229.118 L 685.708,229.13 L 685.782,229.129 L 685.849,229.094 L 685.89,229.003 L 685.984,228.802 L 686.058,228.626 L 686.174,228.334 L 686.227,228.169 L 686.253,227.885 L 686.26,227.68 L 686.277,227.57 L 686.233,227.476 L 686.235,227.399 L 686.274,227.352 L 686.337,227.344 L 686.41,227.357 L 686.479,227.371 L 686.564,227.398 L 686.656,227.433 L 686.735,227.499 L 686.82,227.552 L 686.911,227.593 L 687.021,227.629 L 687.557,227.676 L 687.707,227.693 L 687.809,227.714 L 687.865,227.736 L 687.944,227.776 L 688.068,227.788 L 688.4,227.733 L 688.506,227.705 L 688.601,227.677 L 688.699,227.635 L 688.827,227.595 L 688.923,227.597 L 689.083,227.612 L 689.228,227.611 L 689.297,227.646 L 689.422,227.692 L 689.485,227.751 L 689.523,227.806 L 689.584,227.853 L 689.645,227.867 L 691.002,227.614 L 691.095,227.56 L 691.146,227.489 L 691.204,227.424 L 691.251,227.357 L 691.308,227.321 L 691.391,227.305 L 691.458,227.291 L 691.572,227.257 L 691.627,227.225 L 691.701,227.16 L 691.756,227.083 L 691.803,227.012 L 693.909,223.256"/></g></svg>