<svg xmlns="http://www.w3.org/2000/svg" role="img" viewBox="494.58 245.33 72.72 93.34"><title>Deerfield</title><g id="g14955" fill="#fefee9" fill-opacity="1" fill-rule="evenodd" stroke="#000" stroke-linecap="square" stroke-linejoin="bevel" stroke-opacity="1" stroke-width=".098" transform="translate(-216.714 -21.7) scale(2.264)"><path id="path15219" fill-rule="evenodd" d="M 324.979,119.068 L 326.744,118.849 L 328.055,121.425 L 328.113,121.447 L 328.207,121.48 L 328.311,121.503 L 328.38,121.487 L 328.447,121.481 L 328.578,121.479 L 328.641,121.497 L 328.716,121.519 L 328.763,121.56 L 328.803,121.607 L 328.904,121.677 L 328.975,121.706 L 329.039,121.723 L 329.141,121.736 L 329.215,121.736 L 329.324,121.76 L 329.396,121.789 L 329.47,121.818 L 329.554,121.849 L 329.646,121.87 L 329.736,121.879 L 329.846,121.867 L 329.911,121.874 L 329.972,121.859 L 330.033,121.831 L 330.095,121.798 L 330.172,121.782 L 330.256,121.781 L 330.313,121.805 L 330.377,121.859 L 330.42,121.922 L 330.46,121.982 L 330.515,122 L 330.584,122.013 L 330.654,122.051 L 330.718,122.097 L 330.792,122.135 L 330.859,122.127 L 330.93,122.108 L 330.998,122.083 L 331.075,122.059 L 331.187,122.019 L 331.272,121.998 L 331.355,121.984 L 331.434,121.964 L 331.552,121.979 L 331.699,121.979 L 331.857,121.958 L 331.977,121.965 L 332.089,121.932 L 332.192,121.888 L 332.273,121.848 L 332.394,121.773 L 332.505,121.676 L 332.587,121.598 L 332.671,121.524 L 332.75,121.463 L 332.826,121.391 L 332.915,121.355 L 332.99,121.332 L 333.11,121.316 L 333.201,121.301 L 333.279,121.298 L 333.399,121.294 L 333.51,121.303 L 333.574,121.316 L 333.635,121.34 L 333.69,121.378 L 333.761,121.442 L 333.849,121.529 L 333.889,121.597 L 333.922,121.646 L 333.933,121.721 L 333.941,121.829 L 333.968,121.895 L 333.98,121.983 L 334.017,122.07 L 334.055,122.118 L 334.117,122.223 L 334.181,122.283 L 334.35,122.473 L 334.429,122.549 L 334.577,122.657 L 334.645,122.723 L 334.707,122.806 L 334.759,122.892 L 334.827,122.949 L 334.911,122.988 L 334.966,123.006 L 335.015,123.044 L 335.089,123.096 L 335.165,123.158 L 335.221,123.196 L 335.304,123.226 L 335.39,123.233 L 335.514,123.241 L 335.595,123.214 L 335.678,123.17 L 335.728,123.139 L 335.791,123.108 L 335.855,123.052 L 335.891,122.992 L 335.941,122.906 L 335.972,122.82 L 336.007,122.712 L 336.024,122.614 L 336.042,122.531 L 336.071,122.455 L 336.105,122.391 L 336.149,122.34 L 336.189,122.285 L 336.228,122.217 L 336.274,122.149 L 336.345,122.089 L 336.42,122.058 L 336.484,122.037 L 336.568,122.019 L 336.653,122.002 L 336.829,121.983 L 337.53,121.907 L 337.821,121.891 L 337.943,121.879 L 338.107,121.853 L 338.296,121.822 L 338.4,121.806 L 338.7,121.778 L 338.802,121.763 L 339.157,121.719 L 339.244,121.688 L 339.319,121.676 L 339.41,121.632 L 339.499,121.574 L 339.537,121.521 L 339.585,121.443 L 339.633,121.371 L 339.66,121.302 L 339.703,121.167 L 339.733,121.089 L 339.815,120.874 L 339.84,120.76 L 339.915,120.464 L 339.926,120.354 L 339.945,120.24 L 339.958,120.136 L 339.952,120.049 L 339.946,119.901 L 339.936,119.748 L 339.932,119.606 L 339.927,119.402 L 339.932,119.284 L 339.929,119.215 L 339.929,119.089 L 339.884,118.964 L 340.098,118.996 L 340.161,118.98 L 340.222,118.974 L 340.339,118.935 L 340.392,118.902 L 340.479,118.868 L 340.542,118.845 L 340.629,118.821 L 340.73,118.801 L 340.805,118.794 L 340.874,118.785 L 340.952,118.784 L 341.035,118.789 L 341.098,118.802 L 341.192,118.831 L 341.27,118.86 L 341.364,118.9 L 341.462,118.919 L 341.54,118.932 L 341.638,118.953 L 341.742,118.979 L 341.842,119.009 L 341.911,119.044 L 341.977,119.069 L 342.026,119.101 L 342.088,119.139 L 342.156,119.179 L 342.221,119.21 L 342.309,119.25 L 342.41,119.305 L 342.692,119.415 L 343.024,119.564 L 343.206,119.645 L 343.354,119.722 L 343.438,119.761 L 343.522,119.811 L 343.585,119.851 L 343.643,119.888 L 343.686,119.933 L 343.752,119.981 L 343.873,120.08 L 343.964,120.164 L 344.018,120.241 L 344.065,120.281 L 344.093,120.339 L 344.149,120.428 L 344.182,120.488 L 344.204,120.547 L 344.237,120.61 L 344.26,120.666 L 344.269,120.733 L 344.283,120.798 L 344.29,120.908 L 344.29,121.012 L 344.297,121.076 L 344.311,121.182 L 344.326,121.288 L 344.364,121.529 L 344.384,121.646 L 344.412,121.74 L 344.463,121.885 L 344.493,121.974 L 344.556,122.109 L 345.113,123.217 L 345.145,123.294 L 345.181,123.377 L 345.198,123.458 L 345.226,123.562 L 345.248,123.661 L 345.321,124.05 L 345.361,124.34 L 345.387,124.448 L 345.419,124.636 L 345.42,124.728 L 345.419,124.829 L 345.407,125.497 L 345.412,125.865 L 345.417,126.204 L 345.419,126.769 L 345.423,126.877 L 345.432,126.968 L 345.429,127.041 L 345.436,127.113 L 345.421,127.198 L 345.415,127.3 L 345.408,127.412 L 345.353,127.522 L 345.322,127.637 L 345.283,127.731 L 345.243,127.839 L 345.203,127.968 L 345.136,128.113 L 345.086,128.214 L 344.93,128.537 L 344.792,128.804 L 344.607,129.103 L 344.485,129.272 L 344.402,129.432 L 344.232,129.753 L 344.042,130.11 L 343.752,130.74 L 343.691,130.869 L 343.659,130.959 L 343.635,131.09 L 343.612,131.198 L 343.5,131.493 L 343.459,131.615 L 343.432,131.687 L 343.407,131.772 L 343.351,131.857 L 343.222,132.108 L 342.957,132.596 L 342.708,133.086 L 342.532,133.467 L 342.363,133.854 L 342.211,134.187 L 342.09,134.504 L 342.016,134.784 L 342.006,134.916 L 341.996,135.063 L 342,135.199 L 342.016,135.315 L 342.07,135.558 L 342.097,135.679 L 342.13,135.862 L 342.139,136.063 L 342.187,136.406 L 342.437,137.531 L 342.448,137.6 L 342.492,137.664 L 342.558,137.744 L 342.614,137.807 L 342.665,137.853 L 342.693,137.905 L 342.741,137.986 L 342.782,138.077 L 342.916,138.451 L 343.053,138.792 L 343.082,138.922 L 343.106,139.04 L 343.142,139.137 L 343.396,139.43 L 343.609,139.667 L 343.692,139.771 L 343.924,140.073 L 344.261,140.555 L 344.523,140.849 L 344.79,141.145 L 344.979,141.393 L 345.069,141.534 L 345.131,141.633 L 345.167,141.701 L 345.196,141.76 L 345.219,141.818 L 345.279,141.889 L 345.295,141.998 L 345.316,142.081 L 345.349,142.182 L 345.386,142.277 L 345.423,142.417 L 345.449,142.486 L 345.452,142.549 L 345.461,142.616 L 345.482,142.672 L 345.464,142.736 L 345.456,142.829 L 345.427,142.997 L 345.4,143.078 L 345.387,143.143 L 345.372,143.225 L 345.338,143.309 L 345.283,143.428 L 345.248,143.524 L 345.216,143.587 L 345.203,143.644 L 345.132,143.769 L 345.078,143.86 L 345.03,143.934 L 344.952,144.039 L 344.099,144.932 L 343.764,145.29 L 343.321,145.72 L 342.975,145.997 L 342.871,146.089 L 342.818,146.14 L 342.623,146.36 L 342.524,146.466 L 342.454,146.566 L 342.4,146.665 L 342.349,146.743 L 342.326,146.798 L 342.278,146.862 L 342.239,146.919 L 342.201,146.993 L 342.178,147.056 L 342.154,147.13 L 342.064,147.414 L 342.024,147.494 L 342.022,147.644 L 342.002,147.799 L 341.997,147.867 L 341.944,148.16 L 341.81,148.921 L 341.743,149.278 L 341.737,149.359 L 341.734,149.447 L 341.715,149.534 L 341.678,149.606 L 341.632,149.668 L 341.574,149.719 L 341.537,149.771 L 341.499,149.818 L 341.451,149.866 L 341.409,149.934 L 341.384,150.019 L 341.371,150.101 L 341.358,150.16 L 341.357,150.233 L 341.349,150.335 L 341.353,150.717 L 341.361,151.059 L 341.362,151.325 L 341.317,151.721 L 341.361,151.769 L 341.368,151.832 L 341.39,151.935 L 341.388,152.026 L 341.368,152.082 L 341.311,152.205 L 341.24,152.348 L 341.14,152.551 L 340.958,152.865 L 340.735,153.198 L 340.686,153.262 L 340.637,153.292 L 340.52,153.358 L 340.423,153.401 L 340.367,153.43 L 340.306,153.445 L 340.205,153.508 L 340.117,153.568 L 340.042,153.641 L 339.572,154.232 L 339.399,154.454 L 339.329,154.571 L 339.282,154.652 L 339.242,154.715 L 339.174,154.783 L 339.112,154.856 L 339.032,154.936 L 338.982,154.984 L 338.948,155.031 L 338.906,155.083 L 338.689,155.361 L 338.472,155.659 L 338.355,155.84 L 338.274,155.961 L 338.179,156.128 L 338.059,156.4 L 338.03,156.476 L 338.013,156.545 L 337.909,156.799 L 337.825,156.998 L 337.622,157.495 L 331.474,158.392 L 331.023,155.932 L 327.77,156.305 L 327.79,156.587 L 327.584,156.616 L 325.798,156.837 L 325.595,155.25 L 319.522,156.155 L 317.864,156.381 L 318.378,152.666 L 319.742,145.79 L 321.668,135.865 L 321.702,135.71 L 321.247,134.794 L 321.045,134.429 L 320.896,134.123 L 320.8,133.887 L 320.654,133.506 L 320.625,133.417 L 320.607,133.334 L 320.04,132.009 L 319.996,131.91 L 319.963,131.859 L 319.923,131.793 L 319.839,131.715 L 319.557,131.472 L 319.353,131.286 L 319.256,131.204 L 319.016,131.001 L 318.966,130.953 L 318.896,130.871 L 318.803,130.782 L 318.702,130.672 L 318.656,130.601 L 318.614,130.504 L 318.587,130.415 L 318.559,130.346 L 318.512,130.111 L 318.492,130.046 L 318.461,129.945 L 318.439,129.886 L 318.404,129.823 L 318.389,129.756 L 318.368,129.695 L 318.317,129.584 L 318.28,129.526 L 318.249,129.471 L 318.218,129.419 L 318.182,129.358 L 318.155,129.283 L 318.113,129.223 L 318.053,129.146 L 317.987,129.064 L 317.939,129.017 L 317.869,128.945 L 317.689,128.819 L 317.508,128.724 L 317.199,128.571 L 317.016,128.45 L 316.819,128.324 L 316.711,128.258 L 316.6,128.203 L 316.528,128.163 L 316.432,128.13 L 316.273,128.075 L 316.132,128.032 L 316.021,127.991 L 315.922,127.976 L 315.634,127.91 L 315.546,127.862 L 315.46,127.829 L 315.358,127.778 L 315.273,127.732 L 315.177,127.68 L 315.062,127.584 L 315.01,127.51 L 315.77,127.408 L 320.148,126.792 L 321.056,122.221 L 324.406,121.827 L 324.979,119.068"/></g></svg>