<svg xmlns="http://www.w3.org/2000/svg" role="img" viewBox="1344.93 792.81 58.51 75.01"><title>Dighton</title><g id="g14955" fill="#fefee9" fill-opacity="1" fill-rule="evenodd" stroke="#000" stroke-linecap="square" stroke-linejoin="bevel" stroke-opacity="1" stroke-width=".098" transform="translate(-216.714 -21.7) scale(2.264)"><path id="path15877" d="M 714.702,369.876 L 714.742,370.018 L 714.94,370.127 L 714.972,370.34 L 714.894,370.42 L 714.423,370.706 L 714.227,370.87 L 713.916,371.605 L 713.858,371.801 L 713.823,371.921 L 713.802,372.038 L 713.789,372.112 L 713.806,372.218 L 713.779,372.517 L 713.834,372.622 L 713.907,372.858 L 714.081,373.045 L 714.145,373.273 L 714.162,373.604 L 713.998,373.857 L 713.999,373.95 L 714.134,374.139 L 714.205,374.304 L 714.238,374.542 L 714.325,374.682 L 714.634,374.995 L 714.698,375.161 L 714.801,375.325 L 714.913,375.719 L 714.925,376.389 L 714.886,376.489 L 714.881,376.964 L 714.834,377.161 L 714.702,377.434 L 714.451,377.696 L 714.231,377.801 L 713.807,377.867 L 713.469,378.072 L 713.296,378.229 L 713.242,378.342 L 713.228,378.758 L 713.127,378.962 L 712.727,379.319 L 712.665,379.438 L 712.608,379.728 L 712.558,379.99 L 712.573,380.045 L 712.527,380.186 L 712.528,380.406 L 712.639,380.627 L 712.64,380.76 L 712.704,380.957 L 712.847,381.194 L 712.859,382.053 L 713.019,382.39 L 713.027,382.451 L 713.09,382.53 L 713.163,382.971 L 713.369,383.111 L 713.362,383.301 L 713.268,383.474 L 713.253,383.608 L 713.151,383.75 L 713.137,383.965 L 713.075,384.081 L 713.075,384.168 L 712.973,384.264 L 712.628,384.438 L 712.557,384.534 L 712.363,384.992 L 712.292,385.087 L 712.254,385.253 L 712.225,385.781 L 712.155,386.031 L 712.094,386.346 L 711.853,386.945 L 711.846,387.128 L 711.864,387.646 L 711.881,387.735 L 711.96,387.845 L 711.969,387.962 L 711.914,388.19 L 711.915,388.333 L 711.939,388.388 L 712.114,388.584 L 712.163,388.93 L 711.998,389.056 L 711.912,389.245 L 711.913,389.428 L 711.945,389.489 L 711.914,389.725 L 711.608,389.806 L 711.617,390.137 L 711.563,390.381 L 711.415,390.556 L 711.298,390.785 L 711.307,390.996 L 711.308,391.287 L 711.09,391.681 L 711.067,391.918 L 711.013,391.684 L 710.917,391.688 L 710.804,391.689 L 710.813,391.877 L 703.513,392.183 L 698.917,392.262 L 698.189,387.597 L 697.734,384.487 L 697.556,383.122 L 693.111,382.924 L 690.76,362.787 L 690.462,360.475 L 694.787,361.37 L 701.449,362.749 L 709.295,364.377 L 709.284,364.592 L 709.291,364.77 L 709.292,364.9 L 709.31,364.987 L 709.378,365.102 L 709.428,365.151 L 709.487,365.192 L 709.589,365.218 L 709.682,365.239 L 709.759,365.252 L 709.824,365.259 L 709.919,365.256 L 710.033,365.257 L 710.131,365.251 L 710.275,365.238 L 710.415,365.248 L 710.486,365.273 L 710.555,365.326 L 710.589,365.39 L 710.701,365.606 L 710.749,365.666 L 710.809,365.692 L 710.976,365.592 L 711.067,365.594 L 711.122,365.629 L 711.183,365.658 L 711.27,365.727 L 711.312,365.785 L 711.376,365.873 L 711.416,365.959 L 711.454,366.033 L 711.513,366.167 L 711.504,366.299 L 711.452,366.387 L 711.386,366.443 L 711.344,366.515 L 711.322,366.72 L 711.324,366.981 L 711.357,367.143 L 711.414,367.336 L 711.51,367.65 L 711.548,367.864 L 711.548,368.009 L 711.563,368.129 L 711.678,368.391 L 711.794,368.556 L 711.885,368.644 L 711.961,368.763 L 712.029,368.817 L 712.188,368.844 L 712.639,368.91 L 712.757,368.928 L 712.83,368.966 L 712.859,369.086 L 712.92,369.192 L 712.977,369.261 L 713.183,369.501 L 713.243,369.579 L 713.324,369.586 L 713.384,369.559 L 713.442,369.505 L 713.517,369.455 L 713.599,369.423 L 713.687,369.416 L 713.772,369.43 L 713.872,369.468 L 713.96,369.51 L 714.06,369.554 L 714.185,369.572 L 714.315,369.611 L 714.416,369.647 L 714.499,369.709 L 714.57,369.775 L 714.638,369.833 L 714.702,369.876 M 712.282,379.952 L 712.289,379.809 L 712.179,379.843 L 712.045,379.881 L 711.951,379.971 L 711.946,380.585 L 711.994,380.645 L 711.979,380.829 L 712.042,380.883 L 712.105,380.866 L 712.151,380.576 L 712.087,380.401 L 712.102,380.307 L 712.282,379.952"/><path id="path15899" d="M 712.282,379.952 L 712.102,380.307 L 712.087,380.401 L 712.151,380.576 L 712.105,380.866 L 712.042,380.883 L 711.979,380.829 L 711.994,380.645 L 711.946,380.585 L 711.951,379.971 L 712.045,379.881 L 712.179,379.843 L 712.289,379.809 L 712.282,379.952"/></g></svg>