<svg xmlns="http://www.w3.org/2000/svg" role="img" viewBox="1241.63 126.50 84.37 71.87"><title>Dracut</title><g id="g14955" fill="#fefee9" fill-opacity="1" fill-rule="evenodd" stroke="#000" stroke-linecap="square" stroke-linejoin="bevel" stroke-opacity="1" stroke-width=".098" transform="translate(-216.714 -21.7) scale(2.264)"><path id="path15033" fill-rule="evenodd" d="M 676.344,66.2857 L 677.785,73.9836 L 677.81,74.0496 L 680.639,88.7898 L 680.705,89.3912 L 680.576,89.5867 L 680.425,89.8137 L 680.304,90.0229 L 680.144,90.319 L 680.08,90.5181 L 680.018,90.8431 L 679.946,91.2038 L 679.898,91.3458 L 679.833,91.5215 L 679.769,91.6398 L 679.705,91.7328 L 679.617,91.8296 L 679.496,91.9348 L 679.355,92.0299 L 679.191,92.1175 L 679.032,92.1816 L 678.865,92.2281 L 678.681,92.2726 L 678.518,92.2914 L 678.373,92.2943 L 678.167,92.2937 L 678.047,92.2668 L 677.97,92.2592 L 677.842,92.2637 L 677.682,92.3034 L 677.517,92.3745 L 677.275,92.53 L 677.112,92.6759 L 676.98,92.802 L 676.85,92.9616 L 676.607,93.2529 L 676.534,93.3298 L 676.452,93.4127 L 676.294,93.5308 L 676.142,93.6304 L 676.082,93.6569 L 676.003,93.6806 L 675.901,93.7044 L 675.805,93.7124 L 675.655,93.7124 L 675.559,93.7085 L 675.301,93.6517 L 674.674,93.5183 L 674.072,93.4559 L 673.946,93.4658 L 673.781,93.4836 L 672.305,93.7466 L 671.756,93.8474 L 671.624,93.8791 L 671.483,93.9184 L 671.323,93.9634 L 671.246,94.0004 L 671.069,94.0714 L 670.664,94.2667 L 670.421,94.4046 L 670.212,94.5288 L 670.083,94.6117 L 669.99,94.6886 L 668.358,96.5006 L 665.099,90.4327 L 650.352,94.5919 L 647.477,92.1241 L 648.135,90.4162 L 647.336,89.5088 L 646.813,91.2702 L 646.357,90.5782 L 646.073,89.3075 L 645.486,86.5061 L 644.945,84.742 L 646.068,82.8598 L 646.227,82.5811 L 646.164,81.1994 L 647.356,79.5048 L 657.252,79.8083 L 659.321,79.8833 L 666.379,79.8696 L 670.347,74.9809 L 673.106,69.8927 L 675.576,67.1452 L 676.344,66.2857"/></g></svg>