<svg xmlns="http://www.w3.org/2000/svg" role="img" viewBox="1588.99 622.87 111.02 84.02"><title>Duxbury</title><g id="g14955" fill="#fefee9" fill-opacity="1" fill-rule="evenodd" stroke="#000" stroke-linecap="square" stroke-linejoin="bevel" stroke-opacity="1" stroke-width=".098" transform="translate(-216.714 -21.7) scale(2.264)"><path id="path15777" d="M 826.553,297.502 L 826.611,297.586 L 826.738,297.672 L 827.257,297.635 L 827.526,297.717 L 827.669,297.828 L 827.804,297.982 L 827.941,298.272 L 827.958,298.47 L 827.891,298.913 L 827.957,299.156 L 827.966,299.258 L 828.014,299.337 L 828.244,299.529 L 828.522,299.778 L 828.697,300.015 L 828.746,300.156 L 828.748,300.361 L 828.613,300.284 L 828.55,300.283 L 828.527,300.346 L 828.235,300.28 L 827.716,300.385 L 827.449,300.411 L 827.269,300.491 L 827.08,300.494 L 826.85,300.364 L 826.865,300.261 L 826.824,300.151 L 826.839,300.023 L 826.986,299.724 L 827.124,299.314 L 827.13,299.162 L 827.088,298.902 L 827.064,298.816 L 827.008,298.731 L 826.785,298.474 L 826.297,298.5 L 826.14,298.552 L 825.537,298.895 L 825.383,299.117 L 825.328,299.307 L 825.159,299.756 L 825.048,299.694 L 824.881,299.469 L 824.707,299.4 L 824.635,299.337 L 824.595,299.251 L 824.485,299.298 L 824.456,299.479 L 824.456,299.565 L 824.567,299.637 L 824.569,299.81 L 824.618,299.936 L 824.532,300.047 L 824.556,300.102 L 824.729,300.091 L 824.784,300.043 L 824.774,299.848 L 824.598,299.543 L 824.653,299.501 L 824.811,299.54 L 824.845,299.846 L 825.083,300.04 L 825.138,300.017 L 825.192,299.891 L 825.238,299.757 L 825.43,299.273 L 825.844,298.877 L 826.039,298.747 L 826.306,298.659 L 826.535,298.664 L 826.701,298.718 L 826.827,298.826 L 826.852,298.891 L 826.863,299.284 L 826.81,299.45 L 826.646,299.616 L 826.397,299.965 L 826.407,300.122 L 826.487,300.294 L 826.735,300.625 L 826.737,300.891 L 826.778,301.048 L 826.953,301.204 L 827.189,301.266 L 827.41,301.272 L 828.171,301.004 L 828.392,300.986 L 828.566,301.117 L 828.639,301.282 L 828.663,301.347 L 828.768,301.682 L 829.38,302.213 L 829.546,302.298 L 829.949,302.404 L 830.265,302.519 L 830.619,302.58 L 831.288,302.557 L 831.66,302.704 L 831.905,302.741 L 831.932,303.149 L 831.753,303.403 L 831.261,303.777 L 831.128,303.905 L 830.604,304.255 L 830.408,304.304 L 830.195,304.332 L 829.927,304.256 L 829.642,304.125 L 829.325,303.852 L 829.174,303.757 L 828.858,303.683 L 828.504,303.671 L 828.149,303.62 L 828.078,303.588 L 827.974,303.464 L 827.973,303.352 L 828.035,303.266 L 828.026,303.062 L 827.834,302.841 L 827.58,302.616 L 827.477,302.569 L 827.287,302.414 L 827.216,302.4 L 826.863,302.528 L 826.982,302.668 L 826.969,302.907 L 826.694,303.011 L 826.758,303.096 L 826.829,303.103 L 827.143,302.998 L 827.338,302.815 L 827.44,302.781 L 827.503,302.804 L 827.583,302.898 L 827.592,303.04 L 827.47,303.435 L 827.432,303.641 L 827.512,303.679 L 827.583,303.788 L 827.665,304.034 L 827.801,304.284 L 827.803,304.458 L 827.756,304.521 L 827.63,304.544 L 827.497,304.616 L 827.229,304.627 L 827.293,304.752 L 827.648,304.788 L 827.658,304.993 L 827.549,305.089 L 827.526,305.176 L 827.417,305.279 L 827.314,305.303 L 827.19,305.472 L 827.151,305.519 L 827.178,305.887 L 827.013,305.92 L 826.998,305.977 L 827.284,306.21 L 827.293,306.321 L 827.233,306.643 L 827.258,306.8 L 827.236,306.981 L 827.129,307.275 L 827.069,307.621 L 827.064,307.938 L 827.18,308.542 L 827.189,308.613 L 827.134,308.708 L 826.923,308.897 L 826.877,308.985 L 826.914,309.521 L 827.034,309.803 L 827.044,309.992 L 826.966,310.062 L 826.793,310.098 L 826.667,310.083 L 826.431,310.155 L 826.315,310.304 L 826.197,310.379 L 825.985,310.364 L 825.946,310.492 L 825.807,310.713 L 825.65,310.823 L 825.512,311.15 L 825.528,311.252 L 825.687,311.39 L 825.705,311.572 L 825.643,311.673 L 825.448,311.875 L 825.017,312.092 L 825.08,312.146 L 825.333,312.166 L 825.451,312.203 L 825.515,312.291 L 825.531,312.378 L 825.792,312.429 L 825.855,312.477 L 826.068,312.536 L 826.172,312.616 L 826.245,312.875 L 826.316,312.975 L 826.341,313.046 L 826.31,313.164 L 826.314,313.583 L 826.386,313.612 L 826.448,313.533 L 826.446,313.343 L 826.422,313.266 L 826.434,312.863 L 826.649,312.373 L 826.64,312.178 L 826.544,312.084 L 826.52,312.014 L 826.572,311.714 L 826.73,311.697 L 826.77,311.82 L 827.041,312.135 L 827.113,312.291 L 827.122,312.368 L 827.234,312.567 L 827.307,312.779 L 827.363,312.935 L 827.396,313.005 L 827.502,313.405 L 827.543,313.609 L 827.54,314.09 L 827.607,314.491 L 827.711,314.686 L 827.739,315.111 L 827.716,315.207 L 827.352,315.857 L 827.15,316.117 L 826.931,316.325 L 826.555,316.541 L 825.214,317.12 L 824.971,317.17 L 824.765,317.086 L 824.598,316.952 L 824.343,316.655 L 824.112,316.281 L 823.802,316.017 L 823.658,315.782 L 823.499,315.656 L 823.356,315.468 L 823.308,315.383 L 823.139,315.031 L 823.051,314.857 L 823.034,314.764 L 822.944,314.395 L 823.005,314.198 L 823.027,313.999 L 822.97,313.811 L 823.053,313.501 L 823.06,313.306 L 822.923,313.08 L 822.976,312.818 L 823.015,312.715 L 823.029,312.575 L 822.825,312.609 L 822.778,312.74 L 822.44,312.775 L 822.442,312.933 L 822.333,313.101 L 822.329,313.455 L 822.109,313.545 L 821.992,313.669 L 821.749,313.775 L 821.656,313.887 L 821.649,314.076 L 821.573,314.295 L 821.424,314.408 L 821.18,314.403 L 820.943,314.317 L 820.784,314.179 L 820.775,314.021 L 820.656,313.888 L 820.628,313.449 L 820.548,313.417 L 820.519,313.613 L 820.364,313.937 L 820.366,314.08 L 820.335,314.152 L 820.085,314.367 L 819.765,314.596 L 819.531,314.845 L 819.454,315.009 L 819.352,315.114 L 819.195,315.147 L 819.124,315.114 L 819.052,315.03 L 818.957,315.008 L 818.919,315.117 L 818.962,315.473 L 818.908,315.63 L 818.862,315.708 L 818.643,315.876 L 818.431,315.91 L 818.281,315.881 L 817.693,316.146 L 817.607,316.232 L 817.467,316.463 L 817.311,316.638 L 817.139,316.742 L 817.013,316.764 L 816.879,316.734 L 816.784,316.675 L 816.656,316.502 L 816.523,316.512 L 816.517,316.769 L 816.37,317 L 816.355,317.134 L 816.387,317.204 L 816.658,317.463 L 816.684,317.769 L 816.63,317.904 L 816.647,318.17 L 813.998,318.078 L 813.888,317.628 L 813.871,317.558 L 813.818,317.511 L 813.718,317.428 L 813.557,317.162 L 813.465,316.978 L 813.392,316.817 L 813.336,316.751 L 813.256,316.665 L 813.238,316.606 L 813.242,316.478 L 813.302,316.192 L 813.378,315.979 L 813.394,315.831 L 811.787,313.39 L 811.516,312.948 L 806.825,312.279 L 801.799,311.557 L 801.731,311.543 L 801.635,311.425 L 801.585,311.363 L 801.608,311.302 L 801.644,311.24 L 801.635,311.175 L 801.653,311.087 L 801.708,311.033 L 801.764,310.975 L 801.814,310.693 L 801.861,310.56 L 801.87,310.481 L 801.843,310.364 L 801.892,310.274 L 801.917,310.18 L 801.953,310.106 L 801.993,310.037 L 802.037,309.94 L 802.116,309.844 L 802.211,309.746 L 802.249,309.661 L 802.284,309.566 L 802.355,309.435 L 802.448,309.368 L 802.544,309.314 L 802.554,309.219 L 802.567,309.142 L 802.591,309.069 L 802.614,308.878 L 802.613,308.711 L 802.623,308.596 L 802.673,308.416 L 802.711,308.343 L 802.797,308.322 L 802.858,308.329 L 802.986,308.338 L 803.069,308.367 L 803.153,308.399 L 803.291,308.424 L 803.357,308.413 L 803.482,308.37 L 803.618,308.33 L 803.702,308.295 L 803.791,308.235 L 803.865,308.159 L 804.008,307.997 L 804.098,307.88 L 804.181,307.754 L 804.23,307.649 L 804.275,307.493 L 804.292,307.386 L 804.295,307.323 L 804.281,307.255 L 804.224,307.15 L 804.136,306.988 L 804.07,306.873 L 804.043,306.812 L 804.009,306.756 L 803.923,306.71 L 803.861,306.654 L 803.775,306.553 L 803.753,306.49 L 803.677,306.426 L 803.593,306.351 L 803.508,306.335 L 803.435,306.318 L 803.36,306.331 L 803.294,306.338 L 803.236,306.312 L 803.179,306.277 L 803.121,306.229 L 803.045,306.189 L 802.944,306.12 L 802.858,306.058 L 802.812,306.014 L 802.78,305.943 L 802.774,305.868 L 802.758,305.808 L 802.778,305.743 L 802.793,305.683 L 802.823,305.598 L 802.848,305.47 L 802.816,305.411 L 802.766,305.361 L 802.697,305.242 L 802.668,305.156 L 802.638,305.093 L 802.609,304.994 L 802.563,304.955 L 802.542,304.884 L 802.506,304.751 L 802.458,304.695 L 802.37,304.63 L 802.251,304.572 L 802.202,304.532 L 802.161,304.466 L 802.122,304.366 L 802.091,304.272 L 802.091,304.18 L 802.099,304.057 L 802.072,303.973 L 802.001,303.935 L 801.915,303.879 L 801.861,303.786 L 801.84,303.715 L 801.835,303.556 L 801.716,303.581 L 798.56,303.063 L 806.508,285.692 L 819.761,294.7 L 819.754,295.024 L 819.77,295.203 L 819.823,295.38 L 819.91,295.534 L 820.004,295.663 L 820.096,295.794 L 820.191,295.872 L 820.259,295.91 L 820.352,295.96 L 820.436,295.971 L 823.864,299.131 L 826.553,297.502"/><path id="path15803" d="M 832.655,293.812 L 832.604,294.34 L 832.6,294.678 L 832.561,294.772 L 832.575,295.448 L 832.696,296.542 L 832.863,297.502 L 832.896,297.65 L 833.026,298.114 L 833.011,298.177 L 833.06,298.374 L 833.215,299.002 L 833.281,299.317 L 833.362,299.506 L 833.395,299.67 L 833.565,300.142 L 833.654,300.425 L 833.753,300.841 L 833.801,300.927 L 833.859,301.216 L 833.997,301.625 L 834.133,301.931 L 834.277,302.175 L 834.454,302.502 L 834.566,302.684 L 834.615,302.841 L 834.734,302.996 L 834.911,303.35 L 834.982,303.435 L 835.782,304.742 L 836.461,305.69 L 837.068,306.674 L 837.411,307.114 L 837.929,307.676 L 838.874,308.488 L 838.942,308.534 L 839.057,308.632 L 839.166,308.705 L 839.329,308.869 L 839.444,308.997 L 839.56,309.112 L 839.784,309.324 L 839.951,309.526 L 840.136,309.746 L 840.282,309.976 L 840.424,310.265 L 840.608,310.54 L 840.793,310.769 L 840.975,311.076 L 841.176,311.327 L 841.294,311.549 L 841.432,311.801 L 841.556,312.042 L 841.654,312.229 L 841.722,312.357 L 841.874,312.565 L 842.014,312.805 L 842.13,313.019 L 842.268,313.225 L 842.423,313.419 L 842.562,313.618 L 842.726,313.859 L 842.836,314.002 L 842.96,314.201 L 841.998,314.21 L 842.007,314.126 L 842.003,314.067 L 841.99,313.945 L 841.978,313.819 L 841.915,313.622 L 841.875,313.569 L 841.819,313.465 L 841.787,313.374 L 841.727,313.225 L 841.696,313.134 L 841.66,313.016 L 841.632,312.902 L 841.57,312.782 L 841.532,312.731 L 841.444,312.591 L 841.413,312.499 L 841.391,312.418 L 841.353,312.284 L 841.338,312.174 L 841.298,312.078 L 841.224,311.966 L 841.138,311.84 L 841.078,311.752 L 840.993,311.651 L 840.889,311.504 L 840.786,311.365 L 840.686,311.243 L 840.545,311.084 L 840.475,310.998 L 840.403,310.908 L 840.31,310.806 L 840.201,310.749 L 840.112,310.687 L 840.011,310.632 L 839.858,310.536 L 839.798,310.484 L 839.719,310.429 L 839.629,310.333 L 839.581,310.246 L 839.529,310.152 L 839.509,310.087 L 839.501,310.002 L 839.512,309.929 L 839.494,309.841 L 839.415,309.855 L 839.334,309.948 L 839.293,310 L 839.237,310.055 L 839.193,310.101 L 839.097,310.123 L 839.086,310.052 L 839.031,310.035 L 838.962,310.02 L 838.925,310.087 L 838.913,310.166 L 838.904,310.237 L 838.905,310.304 L 838.903,310.379 L 838.91,310.442 L 838.914,310.501 L 838.9,310.565 L 838.816,310.714 L 838.864,310.824 L 838.865,310.936 L 838.787,311.013 L 838.7,310.969 L 838.611,310.717 L 838.542,310.071 L 838.484,309.772 L 838.348,309.552 L 838.125,309.289 L 837.863,309.061 L 837.823,309.006 L 837.647,308.717 L 837.615,308.646 L 837.475,308.011 L 837.411,307.917 L 837.41,307.837 L 837.385,307.689 L 837.337,307.594 L 837.059,307.282 L 836.931,307.088 L 836.692,306.859 L 836.373,306.366 L 836.261,306.18 L 836.236,306.1 L 835.981,305.732 L 835.852,305.475 L 835.676,305.136 L 834.8,304.107 L 834.385,303.512 L 834.351,303.323 L 834.263,303.183 L 834.049,302.957 L 834.009,302.877 L 834.006,302.577 L 833.807,302.344 L 833.598,301.928 L 833.326,301.536 L 833.214,301.31 L 833.189,301.199 L 833.297,300.969 L 833.303,300.727 L 833.11,300.286 L 833.067,299.965 L 833.02,299.91 L 832.775,299.834 L 832.457,299.555 L 832.322,299.484 L 832.213,299.515 L 832.229,299.58 L 832.554,299.788 L 832.586,299.836 L 832.586,299.907 L 832.501,299.978 L 832.502,300.143 L 832.229,300.405 L 832.072,300.487 L 831.954,300.456 L 831.773,300.474 L 831.553,300.546 L 831.475,300.601 L 831.286,300.612 L 830.993,300.497 L 830.802,300.214 L 830.769,300.072 L 830.767,299.877 L 830.639,299.611 L 830.543,299.493 L 830.502,299.392 L 830.545,298.956 L 830.584,298.887 L 830.694,298.79 L 830.685,298.673 L 830.747,298.562 L 830.801,298.514 L 830.98,298.205 L 831.08,297.976 L 831.227,297.785 L 831.533,297.584 L 831.524,297.498 L 831.304,297.557 L 831.138,297.534 L 831.043,297.45 L 830.971,297.3 L 830.977,297.142 L 831.039,296.991 L 831.436,296.523 L 831.168,296.503 L 831.033,296.417 L 831.005,296.7 L 830.842,296.994 L 830.781,297.231 L 830.711,297.326 L 830.569,297.327 L 830.443,297.25 L 830.139,296.763 L 830.066,296.591 L 830.008,296.27 L 829.859,296.318 L 829.869,296.523 L 830.293,297.289 L 830.437,297.424 L 830.604,297.664 L 830.692,297.823 L 830.686,297.956 L 830.632,298.082 L 830.538,298.168 L 830.224,298.268 L 829.942,298.412 L 829.701,298.73 L 829.428,298.992 L 829.258,299.403 L 829.268,299.583 L 829.612,300.14 L 829.757,300.453 L 829.751,300.704 L 829.697,300.783 L 829.587,300.808 L 829.357,300.694 L 829.103,300.428 L 828.951,300.169 L 828.918,300.005 L 828.947,299.784 L 828.968,299.446 L 828.895,299.271 L 828.924,299.044 L 828.891,298.846 L 828.828,298.839 L 828.791,299.116 L 828.827,299.556 L 828.724,299.549 L 828.549,299.356 L 828.36,299.324 L 828.201,299.152 L 828.08,298.848 L 828.057,298.17 L 827.961,297.928 L 827.721,297.6 L 827.72,297.442 L 827.759,297.369 L 827.986,297.248 L 827.984,297.068 L 827.874,297.102 L 827.702,297.213 L 827.554,297.372 L 827.476,297.412 L 827.365,297.405 L 827.325,297.341 L 827.34,297.186 L 827.409,297.029 L 827.438,296.966 L 831.866,294.283 L 832.655,293.812"/><path id="path15813" d="M 827.182,297.121 L 827.153,297.415 L 826.965,297.504 L 826.792,297.537 L 826.736,297.505 L 826.677,297.427 L 827.182,297.121"/><path id="path15819" d="M 830.029,300.113 L 829.725,299.61 L 829.636,299.383 L 829.689,299.177 L 829.789,298.941 L 830,298.656 L 830.14,298.537 L 830.251,298.558 L 830.252,298.738 L 830.214,298.857 L 830.072,299.655 L 830.029,300.113"/><path id="path15823" d="M 830.447,300.178 L 830.384,300.133 L 830.365,299.864 L 830.388,299.786 L 830.483,299.777 L 830.554,299.886 L 830.548,300.045 L 830.51,300.164 L 830.447,300.178"/><path id="path15825" d="M 827.18,301.123 L 827.101,301.092 L 827.014,300.992 L 826.972,300.81 L 826.995,300.685 L 827.168,300.637 L 827.648,300.617 L 827.774,300.678 L 827.776,300.802 L 827.667,300.96 L 827.448,301.091 L 827.18,301.123"/><path id="path15829" d="M 830.492,301.563 L 830.183,301.401 L 829.984,301.175 L 829.896,301.044 L 829.919,300.941 L 830.059,300.844 L 830.185,300.803 L 830.256,300.835 L 830.406,300.834 L 830.581,300.974 L 830.652,301.074 L 830.677,301.17 L 830.679,301.396 L 830.586,301.523 L 830.492,301.563"/><path id="path15831" d="M 831.986,301.37 L 831.647,301.262 L 831.567,301.169 L 831.574,301.072 L 831.763,301.073 L 832.087,301.178 L 832.182,301.234 L 832.19,301.306 L 832.128,301.344 L 831.986,301.37"/><path id="path15839" d="M 842.96,314.201 L 843.097,314.328 L 843.234,314.499 L 843.326,314.64 L 843.445,314.807 L 843.569,314.958 L 843.754,315.213 L 843.886,315.365 L 844.025,315.539 L 844.184,315.688 L 844.323,315.819 L 844.506,315.984 L 844.659,316.095 L 844.821,316.197 L 844.927,316.275 L 845.024,316.377 L 845.125,316.492 L 845.219,316.565 L 845.322,316.669 L 845.428,316.767 L 845.511,316.849 L 845.594,316.888 L 845.636,316.945 L 845.658,317.028 L 845.647,317.152 L 845.619,317.27 L 845.588,317.405 L 845.545,317.531 L 845.428,317.64 L 845.336,317.724 L 845.228,317.792 L 845.093,317.834 L 844.975,317.86 L 844.865,317.867 L 844.733,317.866 L 844.606,317.837 L 844.511,317.793 L 844.465,317.73 L 844.429,317.625 L 844.44,317.523 L 844.461,317.412 L 844.484,317.329 L 844.391,317.342 L 844.268,317.275 L 844.148,317.27 L 844.085,317.265 L 844.002,317.236 L 843.948,317.204 L 843.878,317.144 L 843.813,317.087 L 843.763,316.993 L 843.685,316.821 L 843.621,316.743 L 843.573,316.659 L 843.482,316.57 L 843.375,316.5 L 843.287,316.447 L 843.182,316.397 L 843.097,316.326 L 842.998,316.272 L 842.914,316.221 L 842.798,316.163 L 842.677,316.112 L 842.578,316.06 L 842.479,316.044 L 842.396,316.025 L 842.271,316.026 L 842.197,316.048 L 842.092,316.082 L 841.946,316.127 L 841.811,316.171 L 841.716,316.225 L 841.559,316.301 L 841.441,316.357 L 841.329,316.442 L 841.14,316.536 L 840.953,316.65 L 840.845,316.736 L 840.641,316.834 L 840.448,316.932 L 840.32,317.015 L 840.143,317.113 L 840.004,317.224 L 839.894,317.304 L 839.752,317.41 L 839.629,317.511 L 839.466,317.66 L 839.397,317.731 L 839.229,317.896 L 839.076,318.039 L 838.99,318.162 L 838.894,318.293 L 838.814,318.382 L 838.615,318.545 L 838.521,318.67 L 838.41,318.753 L 838.217,318.983 L 838.101,319.194 L 837.777,319.908 L 837.739,320.064 L 837.537,320.343 L 837.076,320.725 L 836.849,320.822 L 836.731,320.853 L 836.298,320.86 L 835.817,320.815 L 835.587,320.654 L 835.475,320.434 L 835.48,320.149 L 835.51,320.015 L 835.642,319.763 L 835.798,319.653 L 835.947,319.596 L 836.175,319.561 L 836.365,319.621 L 836.809,319.924 L 836.982,319.922 L 837.1,319.881 L 837.26,319.393 L 837.29,319.197 L 837.252,318.759 L 837.025,318.607 L 836.872,318.317 L 836.855,318.16 L 836.933,318.111 L 837.203,318.329 L 837.321,318.351 L 837.401,318.413 L 837.487,318.383 L 837.587,318.119 L 837.939,317.849 L 838.18,317.547 L 838.71,316.992 L 838.963,316.862 L 838.984,316.795 L 838.997,316.689 L 839.091,316.633 L 839.174,316.642 L 839.232,316.63 L 839.273,316.58 L 839.398,316.487 L 839.512,316.375 L 839.614,316.325 L 839.681,316.26 L 839.734,316.212 L 839.771,316.165 L 839.83,316.081 L 839.93,316.075 L 840.039,316.098 L 840.078,316.048 L 840.105,315.977 L 840.155,315.941 L 840.21,315.917 L 840.295,315.919 L 840.381,315.912 L 840.488,315.872 L 840.544,315.759 L 840.593,315.717 L 840.662,315.733 L 840.73,315.734 L 840.875,315.682 L 840.93,315.638 L 840.985,315.591 L 841.056,315.561 L 841.149,315.544 L 841.207,315.469 L 841.332,315.462 L 841.329,315.399 L 841.406,315.32 L 841.389,315.178 L 841.453,315.071 L 841.532,314.999 L 841.64,314.928 L 841.75,314.895 L 841.843,314.897 L 841.934,314.933 L 842.001,314.953 L 842.069,314.984 L 842.144,314.985 L 842.08,314.895 L 842.028,314.811 L 841.982,314.754 L 841.938,314.669 L 841.888,314.527 L 841.893,314.454 L 841.92,314.379 L 841.95,314.316 L 841.998,314.21 L 842.96,314.201"/><path id="path15841" d="M 835.089,317.957 L 834.962,317.861 L 834.914,317.736 L 834.873,317.532 L 834.886,317.265 L 834.951,316.705 L 834.956,316.357 L 835.156,315.837 L 835.232,315.561 L 835.464,315.108 L 835.867,314.46 L 835.945,314.411 L 836.048,314.412 L 836.142,314.449 L 836.246,314.552 L 836.342,314.747 L 836.425,315.194 L 836.422,315.691 L 836.352,316.589 L 836.253,317.014 L 836.215,317.071 L 836.114,317.229 L 835.713,317.368 L 835.59,317.579 L 835.56,317.785 L 835.458,317.881 L 835.247,317.955 L 835.089,317.957"/></g></svg>