<svg xmlns="http://www.w3.org/2000/svg" role="img" viewBox="837.07 509.19 37.37 61.62"><title>East Brookfield</title><g id="g14955" fill="#fefee9" fill-opacity="1" fill-rule="evenodd" stroke="#000" stroke-linecap="square" stroke-linejoin="bevel" stroke-opacity="1" stroke-width=".098" transform="translate(-216.714 -21.7) scale(2.264)"><path id="path15639" fill-rule="evenodd" d="M 467.615,239.566 L 467.746,239.603 L 467.819,239.639 L 467.918,239.692 L 468.192,239.835 L 468.286,239.864 L 468.554,239.868 L 468.762,239.86 L 468.943,239.863 L 474.827,240.322 L 476.435,235.373 L 478.571,235.096 L 481.101,256.234 L 481.304,258.446 L 481.412,259.019 L 478.622,259.445 L 467.6,261.173 L 467.649,261.001 L 467.704,260.817 L 467.752,260.648 L 467.794,260.509 L 467.829,260.319 L 467.827,260.222 L 467.8,260.096 L 467.781,260.025 L 467.761,259.961 L 467.721,259.89 L 467.663,259.796 L 467.611,259.728 L 467.527,259.601 L 467.467,259.511 L 467.406,259.416 L 467.363,259.356 L 467.31,259.261 L 467.255,259.151 L 467.222,259.092 L 467.19,259.005 L 467.173,258.89 L 467.167,258.756 L 467.167,258.646 L 467.184,258.498 L 467.198,258.371 L 467.216,258.233 L 467.252,258.088 L 467.31,257.928 L 467.369,257.74 L 467.419,257.569 L 467.471,257.462 L 467.542,257.361 L 467.58,257.314 L 467.62,257.272 L 467.673,257.209 L 467.715,257.163 L 467.761,257.116 L 467.815,257.058 L 467.859,257.018 L 467.953,256.95 L 468.005,256.92 L 468.055,256.885 L 468.099,256.831 L 468.176,256.734 L 468.231,256.64 L 468.254,256.542 L 468.235,256.438 L 468.204,256.362 L 468.151,256.275 L 468.129,256.192 L 468.129,256.091 L 468.148,256.001 L 470.745,249.564 L 466.051,245.553 L 466.11,245.45 L 466.165,245.368 L 466.235,245.3 L 466.282,245.212 L 466.317,245.154 L 466.366,245.084 L 466.398,245.011 L 466.435,244.965 L 466.493,244.901 L 466.552,244.813 L 466.541,244.736 L 466.552,244.673 L 466.607,244.619 L 466.622,244.557 L 466.682,244.51 L 466.643,244.455 L 466.599,244.391 L 466.59,244.326 L 466.637,244.26 L 466.654,244.171 L 466.667,244.108 L 466.7,244.05 L 466.713,243.985 L 466.745,243.933 L 466.813,243.894 L 466.867,243.866 L 466.913,243.817 L 466.917,243.731 L 466.987,243.651 L 466.999,243.553 L 467.065,243.568 L 467.14,243.595 L 467.192,243.556 L 467.234,243.598 L 467.307,243.606 L 467.354,243.542 L 467.395,243.44 L 467.4,243.367 L 467.386,243.282 L 467.404,243.178 L 467.429,243.108 L 467.461,243.047 L 467.502,242.987 L 467.553,242.87 L 467.591,242.77 L 467.596,242.669 L 467.616,242.567 L 467.647,242.503 L 467.636,242.436 L 467.562,242.383 L 467.526,242.308 L 467.438,242.157 L 467.368,242.124 L 467.325,242.183 L 467.252,242.168 L 467.212,242.11 L 467.191,242.052 L 467.163,241.981 L 467.125,241.894 L 467.094,241.787 L 467.053,241.625 L 467.034,241.508 L 467.039,241.434 L 467.095,241.393 L 467.178,241.385 L 467.237,241.378 L 467.295,241.359 L 467.349,241.327 L 467.409,241.278 L 467.469,241.213 L 467.519,241.168 L 467.493,241.107 L 467.454,241.051 L 467.438,240.972 L 467.447,240.895 L 467.45,240.828 L 467.458,240.738 L 467.489,240.658 L 467.543,240.592 L 467.608,240.492 L 467.63,240.4 L 467.613,240.323 L 467.579,240.226 L 467.552,240.109 L 467.532,239.989 L 467.555,239.919 L 467.566,239.856 L 467.548,239.798 L 467.559,239.726 L 467.606,239.644 L 467.615,239.566"/></g></svg>