<svg xmlns="http://www.w3.org/2000/svg" role="img" viewBox="1468.71 644.96 56.96 60.71"><title>East Bridgewater</title><g id="g14955" fill="#fefee9" fill-opacity="1" fill-rule="evenodd" stroke="#000" stroke-linecap="square" stroke-linejoin="bevel" stroke-opacity="1" stroke-width=".098" transform="translate(-216.714 -21.7) scale(2.264)"><path id="path15805" fill-rule="evenodd" d="M 765.996,298.187 L 768.269,310.718 L 768.875,310.831 L 768.816,311.082 L 769.068,311.399 L 769.045,312.734 L 768.809,313.766 L 768.373,318.377 L 768.434,319.353 L 768.471,320.674 L 767.161,320.632 L 766.767,320.694 L 766.499,320.743 L 766.356,320.759 L 766.248,320.764 L 766.143,320.764 L 766.052,320.768 L 765.988,320.755 L 765.439,320.549 L 765.342,320.557 L 765.249,320.546 L 764.885,320.429 L 764.807,320.396 L 764.749,320.335 L 764.629,320.076 L 764.525,319.814 L 764.474,319.686 L 764.41,319.523 L 764.288,319.354 L 763.676,318.596 L 763.709,318.367 L 763.727,318.259 L 763.718,317.791 L 763.419,317.376 L 763.323,317.267 L 763.177,317.123 L 763.078,317.05 L 761.816,316.466 L 761.63,316.394 L 761.535,316.372 L 761.29,316.468 L 760.475,316.818 L 760.136,316.827 L 759.809,316.806 L 759.463,316.785 L 759.114,316.788 L 758.21,316.976 L 758.191,316.882 L 757.646,317.049 L 757.237,317.226 L 754.47,317.506 L 747.8,315.731 L 745.769,303.536 L 745.034,299.083 L 747.357,295.819 L 748.779,295.035 L 755.017,298.554 L 760.604,296.703 L 764.765,297.066 L 765.996,298.187"/></g></svg>