<svg xmlns="http://www.w3.org/2000/svg" role="img" viewBox="594.25 200.00 84.63 53.88"><title>Erving</title><g id="g14955" fill="#fefee9" fill-opacity="1" fill-rule="evenodd" stroke="#000" stroke-linecap="square" stroke-linejoin="bevel" stroke-opacity="1" stroke-width=".098" transform="translate(-216.714 -21.7) scale(2.264)"><path id="path15165" fill-rule="evenodd" d="M 391.265,98.7221 L 391.885,100.834 L 392.704,103.617 L 394.286,109.033 L 394.844,113.769 L 394.857,113.914 L 394.75,113.92 L 394.664,113.907 L 394.497,113.845 L 394.431,113.809 L 394.349,113.74 L 394.263,113.68 L 394.127,113.587 L 393.933,113.449 L 393.626,113.236 L 393.458,113.147 L 393.256,113.021 L 393.105,112.924 L 392.943,112.837 L 392.869,112.803 L 392.809,112.777 L 392.752,112.754 L 392.615,112.712 L 392.532,112.685 L 392.467,112.655 L 392.412,112.636 L 392.276,112.595 L 392.184,112.575 L 392.123,112.564 L 392.056,112.56 L 391.983,112.536 L 391.905,112.524 L 391.758,112.499 L 391.563,112.541 L 391.462,112.556 L 391.377,112.574 L 391.302,112.584 L 391.241,112.606 L 391.145,112.654 L 391.093,112.692 L 391.045,112.728 L 390.969,112.801 L 390.899,112.853 L 390.794,112.91 L 390.726,112.94 L 390.655,112.96 L 390.596,112.973 L 390.521,112.973 L 390.452,112.969 L 390.387,112.966 L 390.326,112.953 L 390.26,112.936 L 390.193,112.919 L 390.123,112.902 L 390.065,112.865 L 389.99,112.871 L 389.893,112.861 L 389.752,112.868 L 389.682,112.886 L 389.56,112.913 L 389.443,112.934 L 389.366,112.95 L 389.299,112.981 L 389.192,113.016 L 389.138,113.054 L 389.08,113.08 L 389.018,113.111 L 388.965,113.143 L 388.885,113.19 L 388.801,113.259 L 388.675,113.329 L 388.613,113.373 L 388.553,113.425 L 388.495,113.477 L 388.441,113.509 L 388.384,113.52 L 388.328,113.562 L 388.268,113.581 L 388.158,113.608 L 388.028,113.605 L 387.909,113.559 L 387.839,113.51 L 387.765,113.46 L 387.696,113.397 L 387.638,113.355 L 387.58,113.308 L 387.516,113.264 L 387.462,113.207 L 387.38,113.156 L 387.326,113.11 L 387.235,113.043 L 387.163,112.99 L 387.074,112.953 L 387.015,112.932 L 386.958,112.915 L 386.89,112.898 L 386.833,112.885 L 386.772,112.876 L 386.654,112.862 L 386.582,112.852 L 386.464,112.84 L 386.395,112.837 L 386.313,112.837 L 386.245,112.843 L 386.157,112.84 L 386.059,112.843 L 385.954,112.847 L 385.862,112.853 L 385.775,112.859 L 385.657,112.854 L 385.578,112.851 L 385.496,112.845 L 385.429,112.842 L 385.36,112.84 L 385.258,112.834 L 385.197,112.831 L 385.077,112.826 L 384.971,112.83 L 384.874,112.84 L 384.776,112.84 L 384.686,112.818 L 384.604,112.785 L 384.526,112.734 L 384.486,112.688 L 384.425,112.588 L 384.373,112.522 L 384.333,112.472 L 384.289,112.43 L 384.176,112.355 L 384.134,112.311 L 384.09,112.251 L 384.018,112.188 L 383.557,111.653 L 383.405,111.499 L 383.263,111.358 L 383.186,111.278 L 383.018,111.087 L 382.922,110.997 L 382.787,110.852 L 382.731,110.804 L 382.652,110.743 L 382.439,110.589 L 382.111,110.362 L 381.828,110.143 L 381.757,110.081 L 381.678,110.008 L 381.635,109.968 L 381.591,109.92 L 381.551,109.876 L 381.514,109.83 L 381.476,109.778 L 381.438,109.734 L 381.384,109.652 L 381.344,109.61 L 381.254,109.567 L 381.141,109.521 L 381.03,109.485 L 380.972,109.508 L 380.848,109.511 L 380.736,109.516 L 380.622,109.514 L 380.511,109.521 L 380.405,109.531 L 380.301,109.533 L 380.206,109.539 L 380.123,109.543 L 380.035,109.553 L 379.911,109.558 L 379.822,109.554 L 379.737,109.56 L 379.641,109.546 L 379.545,109.554 L 379.444,109.57 L 379.363,109.572 L 379.279,109.566 L 379.165,109.56 L 379.088,109.552 L 379.009,109.559 L 378.923,109.561 L 378.844,109.547 L 378.771,109.552 L 378.699,109.534 L 378.61,109.534 L 378.506,109.558 L 378.388,109.618 L 378.338,109.657 L 378.268,109.718 L 378.208,109.772 L 378.149,109.839 L 378.089,109.919 L 378.026,109.992 L 377.854,110.189 L 377.792,110.28 L 377.73,110.391 L 377.677,110.484 L 377.628,110.578 L 377.575,110.667 L 377.535,110.775 L 377.501,110.892 L 377.447,111.011 L 377.42,111.101 L 377.382,111.192 L 377.349,111.274 L 377.312,111.346 L 377.281,111.416 L 377.246,111.494 L 377.207,111.564 L 377.168,111.652 L 377.097,111.737 L 377.023,111.806 L 376.938,111.889 L 376.811,111.981 L 376.706,112.069 L 376.604,112.154 L 376.499,112.212 L 376.407,112.263 L 376.336,112.287 L 376.233,112.321 L 376.135,112.366 L 376.056,112.398 L 375.982,112.435 L 375.917,112.462 L 375.855,112.488 L 375.767,112.543 L 375.69,112.597 L 375.666,112.671 L 375.664,112.761 L 375.643,112.82 L 375.654,112.903 L 375.67,113.029 L 375.68,113.128 L 375.702,113.226 L 375.725,113.347 L 375.752,113.473 L 375.771,113.592 L 375.782,113.7 L 375.794,113.805 L 375.799,113.915 L 375.787,114.017 L 375.754,114.093 L 375.716,114.139 L 375.664,114.184 L 375.592,114.235 L 375.516,114.275 L 375.454,114.309 L 375.351,114.362 L 375.201,114.449 L 375.078,114.531 L 374.991,114.604 L 374.919,114.662 L 374.837,114.733 L 374.774,114.812 L 374.724,114.882 L 374.657,114.965 L 374.602,115.048 L 374.555,115.124 L 374.523,115.18 L 374.458,115.275 L 374.428,115.359 L 374.39,115.418 L 374.339,115.48 L 374.299,115.53 L 374.232,115.591 L 374.182,115.622 L 374.129,115.646 L 374.053,115.676 L 373.988,115.698 L 373.911,115.716 L 373.853,115.735 L 373.765,115.751 L 373.701,115.771 L 373.612,115.812 L 373.564,115.849 L 373.48,115.882 L 373.394,115.965 L 373.33,116.027 L 373.271,116.081 L 373.185,116.152 L 373.121,116.229 L 373.064,116.31 L 372.989,116.423 L 372.924,116.508 L 372.867,116.585 L 372.793,116.662 L 372.708,116.747 L 372.622,116.826 L 372.54,116.895 L 372.436,116.976 L 372.193,117.167 L 372.019,117.315 L 371.941,117.386 L 371.849,117.445 L 371.787,117.499 L 371.733,117.539 L 371.681,117.587 L 371.619,117.617 L 371.545,117.657 L 371.448,117.685 L 371.393,117.707 L 371.286,117.742 L 371.183,117.768 L 371.121,117.79 L 371.066,117.806 L 370.987,117.836 L 370.907,117.882 L 370.817,117.937 L 370.771,118.001 L 370.718,118.082 L 370.683,118.139 L 370.626,118.234 L 370.577,118.312 L 370.514,118.391 L 370.444,118.441 L 370.347,118.49 L 370.271,118.533 L 370.19,118.553 L 370.131,118.573 L 370.071,118.598 L 370.023,118.632 L 369.957,118.704 L 369.904,118.775 L 369.822,118.843 L 369.779,118.897 L 369.727,118.954 L 369.664,119.024 L 369.625,119.135 L 369.628,119.246 L 369.62,119.359 L 369.579,119.441 L 369.524,119.507 L 369.446,119.556 L 369.333,119.623 L 369.261,119.671 L 369.175,119.718 L 369.048,119.778 L 368.967,119.81 L 368.855,119.865 L 368.738,119.925 L 368.631,119.966 L 368.506,120.005 L 368.395,120.056 L 368.339,120.085 L 368.267,120.123 L 368.213,120.165 L 368.141,120.207 L 368.062,120.241 L 367.989,120.318 L 367.933,120.366 L 367.864,120.408 L 367.798,120.452 L 367.708,120.509 L 367.626,120.568 L 367.558,120.622 L 367.49,120.663 L 367.401,120.709 L 367.3,120.742 L 367.22,120.772 L 367.155,120.796 L 367.069,120.835 L 366.964,120.873 L 366.871,120.902 L 366.747,120.911 L 366.663,120.955 L 366.604,120.965 L 366.539,120.958 L 366.474,120.955 L 366.408,120.948 L 366.277,120.913 L 366.175,120.876 L 366.119,120.837 L 366.057,120.8 L 365.973,120.736 L 365.923,120.692 L 365.856,120.607 L 365.798,120.492 L 365.731,120.389 L 365.709,120.327 L 365.688,120.27 L 365.654,120.2 L 365.629,120.111 L 365.596,120.057 L 365.56,119.995 L 365.454,119.899 L 365.346,119.786 L 365.254,119.69 L 365.187,119.618 L 365.027,119.453 L 364.944,119.377 L 364.805,119.264 L 364.745,119.207 L 364.692,119.179 L 364.593,119.149 L 364.513,119.12 L 364.404,119.114 L 364.316,119.125 L 364.232,119.147 L 364.133,119.187 L 364.06,119.211 L 364.008,119.261 L 363.946,119.275 L 363.906,119.323 L 363.83,119.371 L 363.758,119.334 L 363.654,119.348 L 363.576,119.376 L 363.509,119.394 L 363.422,119.414 L 363.351,119.426 L 363.256,119.445 L 363.173,119.457 L 363.106,119.46 L 363.011,119.458 L 362.929,119.445 L 362.862,119.455 L 362.801,119.456 L 362.718,119.454 L 362.56,119.409 L 362.475,119.394 L 362.412,119.382 L 362.322,119.308 L 362.273,119.251 L 362.233,119.196 L 362.193,119.128 L 362.137,119.07 L 362.095,119.012 L 362.045,118.959 L 361.972,118.891 L 361.92,118.837 L 361.856,118.772 L 361.699,118.651 L 361.64,118.612 L 361.555,118.549 L 361.489,118.513 L 361.416,118.499 L 361.309,118.495 L 361.236,118.505 L 361.173,118.509 L 361.103,118.533 L 361.014,118.586 L 360.955,118.636 L 360.903,118.667 L 360.816,118.702 L 360.758,118.724 L 360.7,118.743 L 360.629,118.767 L 360.54,118.792 L 360.464,118.824 L 360.355,118.853 L 360.289,118.877 L 360.224,118.892 L 360.151,118.91 L 360.078,118.926 L 360.009,118.926 L 359.924,118.925 L 359.762,118.934 L 359.605,118.87 L 359.397,118.752 L 359.203,118.643 L 359.035,118.517 L 358.953,118.389 L 359.129,118.199 L 359.229,118.092 L 359.377,117.961 L 359.472,117.861 L 359.537,117.805 L 359.589,117.748 L 359.66,117.65 L 359.7,117.595 L 359.728,117.539 L 359.787,117.48 L 359.865,117.398 L 359.924,117.31 L 359.982,117.24 L 360.03,117.182 L 360.093,117.095 L 360.164,117.018 L 360.215,116.952 L 360.267,116.882 L 360.325,116.801 L 360.367,116.743 L 360.397,116.659 L 360.413,116.569 L 360.405,116.482 L 360.389,116.421 L 360.34,116.318 L 360.303,116.236 L 360.284,116.146 L 360.277,116.086 L 360.275,116.025 L 360.285,115.943 L 360.294,115.884 L 360.311,115.827 L 360.333,115.743 L 360.355,115.655 L 360.395,115.574 L 360.426,115.507 L 360.471,115.427 L 360.523,115.352 L 360.58,115.27 L 360.626,115.212 L 360.662,115.139 L 360.735,115.045 L 360.786,114.965 L 360.851,114.893 L 360.899,114.823 L 360.936,114.757 L 360.987,114.713 L 361.047,114.659 L 361.106,114.567 L 361.133,114.497 L 361.111,114.398 L 361.054,114.327 L 360.992,114.283 L 360.923,114.241 L 360.867,114.177 L 360.836,114.075 L 360.833,114.01 L 360.833,113.949 L 360.844,113.875 L 360.858,113.818 L 360.886,113.691 L 360.904,113.629 L 360.916,113.513 L 360.914,113.445 L 360.91,113.337 L 360.883,113.234 L 360.86,113.171 L 360.813,113.125 L 360.629,112.926 L 360.711,112.862 L 360.743,112.792 L 360.801,112.712 L 360.84,112.644 L 360.894,112.562 L 360.941,112.492 L 360.997,112.412 L 361.066,112.315 L 361.136,112.217 L 361.187,112.135 L 361.246,112.03 L 361.297,111.926 L 361.351,111.817 L 361.393,111.741 L 361.446,111.658 L 361.503,111.561 L 361.541,111.487 L 361.591,111.439 L 361.643,111.383 L 361.732,111.309 L 361.771,111.256 L 361.845,111.179 L 361.903,111.11 L 361.943,111.059 L 361.989,110.991 L 362.042,110.922 L 362.095,110.834 L 362.133,110.764 L 362.182,110.684 L 362.229,110.601 L 362.282,110.519 L 369.642,109.802 L 369.186,105.122 L 375.133,103.437 L 391.265,98.7221"/></g></svg>