<svg xmlns="http://www.w3.org/2000/svg" role="img" viewBox="1564.88 173.75 57.12 64.74"><title>Essex</title><g id="g14955" fill="#fefee9" fill-opacity="1" fill-rule="evenodd" stroke="#000" stroke-linecap="square" stroke-linejoin="bevel" stroke-opacity="1" stroke-width=".098" transform="translate(-216.714 -21.7) scale(2.264)"><path id="path15095" d="M 795.721,89.0681 L 795.721,89.1801 L 795.807,89.1466 L 796.102,88.5546 L 796.164,88.5157 L 796.353,88.4822 L 796.886,88.1934 L 797.332,87.8451 L 797.589,87.543 L 797.699,87.487 L 797.865,87.5005 L 798.197,87.6644 L 798.465,87.7091 L 798.49,87.8573 L 798.31,87.9929 L 798.193,88.2073 L 798.123,88.2622 L 797.737,88.3046 L 797.698,88.3522 L 797.699,88.433 L 797.762,88.4713 L 798.022,88.3985 L 798.14,88.4136 L 798.126,88.6001 L 798.237,88.7828 L 798.308,88.7561 L 798.331,88.7026 L 798.337,88.3799 L 798.524,88.1634 L 798.656,87.9269 L 798.782,87.9354 L 799.295,88.1126 L 799.539,88.155 L 799.682,88.2654 L 799.982,88.334 L 800.061,88.3875 L 800.196,88.5542 L 800.229,88.6556 L 800.182,88.7501 L 800.19,88.8119 L 800.372,88.8188 L 800.496,88.6197 L 800.574,88.5583 L 800.589,88.4557 L 800.675,88.3848 L 800.849,88.3983 L 800.959,88.4665 L 801.022,88.4522 L 801.037,88.3803 L 800.932,88.0516 L 800.86,87.8769 L 800.781,87.777 L 800.686,87.8013 L 800.553,87.9263 L 800.428,87.9519 L 800.199,87.9398 L 800.152,87.8978 L 800.182,87.8041 L 800.424,87.5362 L 800.463,87.4018 L 800.525,87.3378 L 800.611,87.3043 L 801.54,87.283 L 801.651,87.3107 L 801.794,87.4614 L 801.857,87.438 L 801.856,87.3171 L 801.878,87.1457 L 801.917,87.0516 L 802.176,86.9602 L 802.31,86.9901 L 802.547,87.0916 L 802.611,87.1705 L 802.706,87.3754 L 802.954,87.7961 L 803.2,88.0805 L 803.391,88.2269 L 803.699,88.3418 L 803.96,88.5138 L 804.855,88.7937 L 805.188,89.1843 L 805.287,89.3005 L 805.262,89.4632 L 805.178,89.773 L 805.101,89.9552 L 804.868,90.2413 L 804.841,90.3176 L 804.756,90.5559 L 804.655,90.6644 L 804.482,90.7223 L 804.253,90.67 L 803.978,90.7496 L 803.9,90.7891 L 803.847,91.0822 L 803.691,91.3194 L 803.519,91.4083 L 803.377,91.4312 L 803.101,91.3867 L 802.369,91.4238 L 802.211,91.3634 L 802.037,91.2321 L 801.918,91.1674 L 801.721,91.1391 L 801.453,91.1254 L 801.335,91.07 L 801.113,90.8687 L 801.042,90.846 L 800.898,90.658 L 800.59,90.5493 L 800.503,90.4495 L 800.445,90.1658 L 800.452,89.9144 L 800.537,89.7383 L 800.669,89.5946 L 800.731,89.4844 L 800.738,89.36 L 800.644,89.3689 L 800.495,89.4728 L 800.4,89.4166 L 800.33,89.49 L 800.316,89.6858 L 800.262,89.858 L 800.264,90.1743 L 800.241,90.2371 L 799.844,89.8394 L 799.812,89.7534 L 799.67,89.7143 L 799.704,89.9831 L 799.776,90.1393 L 799.943,90.3111 L 800.038,90.4447 L 800.22,90.5694 L 800.348,90.7488 L 800.356,90.8104 L 800.338,90.8861 L 800.285,90.9392 L 800.208,90.97 L 800.002,90.8552 L 799.947,90.7823 L 799.922,90.6806 L 799.882,90.6353 L 799.819,90.6342 L 799.772,90.676 L 799.625,90.9191 L 799.335,91.1106 L 799.257,91.2216 L 799.188,91.45 L 799.118,91.5389 L 798.922,91.5881 L 798.827,91.5414 L 798.708,91.4395 L 798.612,91.2747 L 798.65,91.1496 L 798.688,90.9593 L 798.594,90.9528 L 798.375,91.1672 L 798.131,91.193 L 798.076,91.2319 L 798.077,91.3094 L 798.14,91.3508 L 798.376,91.3872 L 798.409,91.4484 L 798.419,91.7488 L 798.216,91.9472 L 798.146,92.0673 L 798.123,92.1918 L 798.163,92.2775 L 798.299,92.444 L 798.317,92.7878 L 798.318,92.8529 L 798.036,93.1685 L 798.029,93.2554 L 798.203,93.2936 L 798.321,93.2314 L 798.672,92.8487 L 798.677,92.47 L 798.715,92.2891 L 798.691,92.2341 L 798.532,92.0928 L 798.531,91.9689 L 798.586,91.9208 L 798.664,91.8873 L 798.965,92.1142 L 799.225,92.1283 L 799.242,92.2457 L 799.195,92.3245 L 799.251,92.4436 L 799.353,92.4035 L 799.376,92.3067 L 799.462,92.2141 L 799.469,92.1179 L 799.429,92.0072 L 799.451,91.8207 L 799.81,91.4533 L 799.936,91.4124 L 800.047,91.4742 L 800.08,91.6809 L 800.191,91.8296 L 800.248,92.0264 L 800.446,92.2346 L 800.558,92.402 L 800.787,92.4944 L 800.851,92.5482 L 800.923,92.7601 L 801.083,92.9943 L 801.359,93.1504 L 801.653,93.3774 L 801.859,93.6039 L 801.907,93.6955 L 801.917,93.9 L 801.965,93.9638 L 801.981,94.0344 L 801.692,94.2882 L 801.583,94.4464 L 801.49,94.6601 L 801.462,95.1261 L 801.408,95.2828 L 801.307,95.3884 L 801.134,95.4678 L 801.024,95.4928 L 800.858,95.3675 L 800.714,95.1329 L 800.695,94.7612 L 800.756,94.4927 L 800.628,94.2826 L 800.383,94.141 L 800.193,93.9636 L 800.083,93.9638 L 800.044,94.0424 L 800.03,94.3343 L 799.985,94.5621 L 800.026,94.8059 L 800.067,94.9257 L 800.092,95.0893 L 800.124,95.1596 L 800.195,95.2321 L 800.259,95.3574 L 800.472,95.3944 L 800.504,95.4554 L 800.655,95.6216 L 800.656,95.7456 L 800.562,95.8414 L 800.642,95.96 L 800.902,95.9896 L 801.005,96.0361 L 801.034,95.75 L 801.121,95.7504 L 801.232,95.8372 L 801.333,95.7318 L 801.459,95.7155 L 801.522,95.7479 L 801.523,95.8192 L 801.555,95.9112 L 801.557,96.15 L 801.597,96.2418 L 801.592,96.543 L 801.632,96.6379 L 801.635,97.0131 L 801.794,97.1946 L 801.867,97.4995 L 801.91,97.9324 L 801.834,98.3285 L 801.772,98.4079 L 801.529,98.4708 L 801.426,98.4243 L 801.307,98.4185 L 801.174,98.4908 L 801.072,98.4999 L 800.953,98.4228 L 800.935,98.1381 L 800.981,98.0343 L 800.973,97.9415 L 800.713,97.912 L 800.452,97.8204 L 800.461,97.9072 L 800.604,98.0796 L 800.731,98.1627 L 800.765,98.5805 L 800.719,98.6996 L 800.713,98.92 L 800.682,98.9923 L 800.588,99.085 L 800.047,99.3028 L 799.954,99.4234 L 799.713,99.874 L 799.668,100.142 L 799.513,100.497 L 799.499,100.64 L 799.555,100.868 L 799.532,100.921 L 799.391,100.978 L 799.029,101.036 L 798.936,101.132 L 798.835,101.352 L 798.821,101.541 L 798.79,101.614 L 798.656,101.661 L 798.317,101.507 L 798.118,101.342 L 798.07,101.241 L 797.999,101.172 L 797.723,101.133 L 797.597,101.143 L 797.55,101.213 L 797.567,101.309 L 797.686,101.448 L 797.986,101.51 L 798.689,101.827 L 799.138,101.808 L 799.177,101.729 L 799.127,101.43 L 799.134,101.327 L 799.189,101.279 L 799.228,101.225 L 799.55,101.166 L 799.691,101.087 L 799.738,100.968 L 799.82,100.535 L 799.819,100.392 L 799.968,100.257 L 799.991,100.195 L 799.973,99.8879 L 800.011,99.7132 L 800.089,99.5867 L 800.182,99.5065 L 800.348,99.4519 L 800.623,99.4159 L 800.77,99.1478 L 800.864,99.0769 L 801.115,98.964 L 801.255,98.8048 L 801.342,98.7742 L 801.421,98.8183 L 801.445,98.9231 L 801.516,98.9365 L 801.743,98.7531 L 801.861,98.7062 L 801.896,99.099 L 801.787,99.2262 L 801.71,99.4953 L 801.547,99.7885 L 801.543,100.26 L 801.615,100.37 L 801.717,100.336 L 801.74,100.226 L 801.707,100.054 L 801.744,99.8106 L 801.962,99.5869 L 801.984,99.2731 L 802.296,98.994 L 802.288,98.9074 L 802.153,98.8059 L 802.121,98.7418 L 802.103,98.4817 L 802.267,98.3312 L 802.33,98.2456 L 802.368,98.1265 L 802.367,97.9374 L 802.326,97.8051 L 802.239,97.6713 L 802.292,97.434 L 802.283,97.2916 L 802.195,97.1671 L 802.179,97.09 L 802.241,96.9393 L 802.382,96.8978 L 802.389,96.7332 L 802.552,96.5484 L 802.811,96.4136 L 802.998,96.2004 L 803.177,95.8445 L 803.247,95.7897 L 803.373,95.7953 L 803.484,95.8416 L 803.602,95.8412 L 803.836,95.5644 L 804.269,95.505 L 804.394,95.5108 L 804.497,95.5728 L 804.514,95.6747 L 804.726,95.6745 L 804.812,95.5075 L 804.902,95.5079 L 805.272,95.4661 L 805.516,95.5023 L 805.634,95.4306 L 805.607,95.0994 L 805.622,95.0306 L 805.716,94.9254 L 805.817,94.8947 L 806.038,94.9003 L 806.172,94.9305 L 806.331,95.0872 L 806.497,95.1629 L 806.553,95.2172 L 806.594,95.405 L 806.502,95.6685 L 806.332,95.9371 L 806.325,96.0863 L 806.452,96.1477 L 806.515,96.211 L 806.72,96.2236 L 806.877,96.222 L 806.941,96.2697 L 806.927,96.4655 L 807.014,96.5374 L 807.313,96.4386 L 807.368,96.5021 L 807.388,96.9265 L 807.523,97.0683 L 807.713,97.1372 L 807.793,97.1498 L 807.628,97.52 L 807.464,97.5076 L 807.371,97.5568 L 807.403,97.6271 L 807.545,97.7081 L 807.449,97.9244 L 804.976,102.248 L 803.992,103.922 L 802.997,105.657 L 805.076,110.365 L 806.025,112.686 L 805.068,112.786 L 798.972,113.236 L 792.032,114.384 L 791.996,111.991 L 789.814,110.136 L 788.146,106.23 L 787.56,105.204 L 787.6,104.108 L 788.348,104.048 L 789.151,103.973 L 788.987,100.432 L 788.794,98.7438 L 787.825,98.4871 L 788.432,96.6472 L 788.252,96.629 L 788.157,96.5796 L 788.031,96.4816 L 788.114,96.3896 L 788.206,96.3741 L 788.324,96.3561 L 788.399,96.2976 L 788.46,96.2592 L 788.53,96.242 L 788.597,96.2251 L 788.674,96.1705 L 788.74,96.126 L 788.797,96.1014 L 788.863,96.0686 L 788.964,96.0214 L 789.024,95.9712 L 789.104,95.893 L 789.214,95.8044 L 789.315,95.7338 L 789.424,95.6687 L 789.479,95.5517 L 789.489,95.4885 L 789.502,95.3661 L 789.528,95.2516 L 789.57,95.1858 L 789.633,95.1139 L 789.715,95.0533 L 789.769,94.9952 L 789.814,94.9078 L 789.878,94.828 L 789.945,94.7717 L 790.062,94.6986 L 790.108,94.6132 L 790.069,94.5648 L 790.102,94.5051 L 790.122,94.4457 L 790.089,94.3814 L 790.14,94.3273 L 790.117,94.2706 L 790.068,94.1989 L 790.08,94.116 L 790.11,94.0189 L 790.146,93.9239 L 790.241,93.863 L 790.329,93.8634 L 790.395,93.815 L 790.465,93.8472 L 790.537,93.832 L 790.615,93.7774 L 790.649,93.828 L 790.658,93.8968 L 790.638,93.9638 L 790.699,93.9746 L 790.743,93.9285 L 790.795,93.8743 L 790.87,93.8613 L 790.912,93.8171 L 791.009,93.8173 L 791.061,93.7633 L 791.138,93.7757 L 791.184,93.7137 L 791.139,93.6457 L 791.077,93.57 L 791.099,93.491 L 791.088,93.4321 L 791.14,93.3741 L 791.24,93.3823 L 791.307,93.3848 L 791.343,93.3133 L 791.317,93.2607 L 791.236,93.2603 L 791.181,93.2376 L 791.195,93.1764 L 791.289,93.1747 L 791.366,93.1615 L 791.451,93.1756 L 791.532,93.1073 L 791.576,93.065 L 791.67,93.1006 L 791.746,93.0639 L 791.788,93.0059 L 791.847,92.9341 L 791.899,92.9903 L 791.932,93.0427 L 791.96,93.0974 L 791.992,93.2186 L 792.048,93.2531 L 792.15,93.2316 L 792.212,93.2008 L 792.28,93.1502 L 792.361,93.0505 L 792.461,92.9385 L 792.522,92.9688 L 792.522,93.0633 L 792.476,93.1152 L 792.416,93.1655 L 792.408,93.2325 L 792.464,93.3162 L 792.537,93.3147 L 792.606,93.3529 L 792.703,93.3432 L 792.77,93.3519 L 792.84,93.3288 L 792.931,93.2759 L 792.966,93.3501 L 792.958,93.4172 L 792.945,93.5039 L 792.959,93.5706 L 792.993,93.6349 L 793.039,93.6852 L 793.104,93.6899 L 793.18,93.6234 L 793.19,93.5525 L 793.181,93.4582 L 793.204,93.3633 L 793.26,93.3093 L 793.319,93.3141 L 793.381,93.3385 L 793.484,93.3778 L 793.562,93.3529 L 793.584,93.2835 L 793.577,93.207 L 793.516,93.1175 L 793.421,93.0681 L 793.204,93.0151 L 793.074,92.9428 L 793.036,92.8785 L 793.035,92.8136 L 793.055,92.7444 L 793.132,92.6544 L 793.232,92.629 L 793.302,92.6081 L 793.497,92.6108 L 793.551,92.5378 L 793.515,92.4934 L 793.433,92.4363 L 793.379,92.4001 L 793.293,92.3601 L 793.21,92.3185 L 793.145,92.2174 L 793.124,92.1548 L 793.16,92.0499 L 793.246,92.0266 L 793.318,92.0233 L 793.413,92.0216 L 793.474,92.0539 L 793.561,92.1349 L 793.597,92.1835 L 793.651,92.2296 L 793.724,92.2755 L 793.815,92.2955 L 793.933,92.3051 L 794.048,92.2282 L 794.161,92.161 L 794.274,92.1099 L 794.341,92.0417 L 794.368,91.9861 L 794.374,91.8779 L 794.33,91.7624 L 794.272,91.7341 L 794.209,91.7177 L 794.15,91.7225 L 794.093,91.7316 L 794.01,91.7626 L 793.855,91.8246 L 793.785,91.8414 L 793.676,91.7826 L 793.658,91.6964 L 793.643,91.5275 L 793.621,91.3783 L 793.587,91.2511 L 793.517,91.0911 L 793.5,91.0322 L 793.494,90.9103 L 793.562,90.8737 L 793.635,90.8705 L 793.735,90.8509 L 793.855,90.8604 L 793.863,90.9665 L 793.837,91.0515 L 793.805,91.1643 L 793.796,91.2766 L 793.852,91.315 L 793.94,91.3016 L 794.018,91.2824 L 794.104,91.2689 L 794.177,91.2755 L 794.274,91.2993 L 794.363,91.325 L 794.477,91.3072 L 794.529,91.2571 L 794.623,91.1472 L 794.711,91.0353 L 794.79,90.9435 L 794.832,90.8619 L 794.839,90.7378 L 794.733,90.732 L 794.624,90.7635 L 794.477,90.8015 L 794.337,90.7786 L 794.304,90.7242 L 794.266,90.6618 L 794.26,90.5499 L 794.274,90.3843 L 794.304,90.3072 L 794.395,90.2051 L 794.499,90.0968 L 794.638,89.9407 L 794.677,89.8613 L 794.704,89.8059 L 794.688,89.6901 L 794.647,89.5983 L 794.623,89.5004 L 794.637,89.4116 L 794.652,89.3503 L 794.695,89.2707 L 794.762,89.2303 L 794.833,89.2349 L 794.913,89.2471 L 795.036,89.2645 L 795.177,89.2756 L 795.311,89.2868 L 795.409,89.2831 L 795.484,89.2661 L 795.589,89.2207 L 795.655,89.1683 L 795.721,89.0681"/><path id="path15097" d="M 799.775,88.0921 L 799.688,88.0202 L 799.686,87.8157 L 799.466,87.819 L 799.237,87.8196 L 799.119,87.7673 L 798.991,87.5478 L 799.069,87.443 L 799.377,87.5054 L 799.527,87.5753 L 799.937,87.6716 L 799.961,87.7268 L 799.962,87.792 L 799.907,87.8556 L 799.901,88.0047 L 799.775,88.0921"/><path id="path15103" d="M 804.855,88.7937 L 805.232,88.825 L 805.446,89.005 L 805.574,89.1686 L 805.544,89.3277 L 805.466,89.3674 L 805.378,89.2893 L 805.346,89.2188 L 805.298,89.1582 L 805.188,89.1843 L 804.855,88.7937"/><path id="path15105" d="M 811.18,89.5312 L 811.302,89.5543 L 811.549,89.8138 L 811.565,89.8752 L 811.59,90.0327 L 811.492,90.4513 L 811.519,90.7732 L 811.489,90.9167 L 811.387,91.0345 L 811.199,91.0992 L 810.485,91.093 L 811.18,89.5312"/><path id="path15113" d="M 805.325,91.1585 L 805.334,91.2451 L 805.154,91.3651 L 805.062,91.6007 L 804.89,91.7607 L 804.751,91.8928 L 804.682,92.1058 L 804.58,92.2019 L 804.165,92.4562 L 803.868,92.7348 L 803.5,93.0061 L 803.343,93.0543 L 803.256,93.0569 L 803.145,92.9703 L 803.074,92.8826 L 802.971,92.8204 L 802.877,92.8231 L 802.751,92.8704 L 802.563,92.9658 L 802.208,92.8833 L 801.812,92.6439 L 801.708,92.5012 L 801.519,92.4074 L 801.321,92.2521 L 800.868,91.8004 L 800.836,91.7454 L 800.851,91.5869 L 800.881,91.375 L 800.943,91.3421 L 801.109,91.4116 L 801.511,91.4089 L 801.74,91.5325 L 802.184,91.8914 L 802.515,92.0057 L 803.012,92.0251 L 803.218,92.1585 L 803.423,92.1866 L 803.715,92.271 L 803.919,92.2401 L 803.681,92.0363 L 803.664,91.8939 L 803.711,91.8091 L 803.962,91.727 L 804.259,91.4237 L 804.377,91.3456 L 804.675,91.2251 L 804.885,91.1838 L 804.994,91.1217 L 805.151,91.0798 L 805.269,91.1011 L 805.325,91.1585"/><path id="path15117" d="M 806.789,91.9309 L 806.791,92.0735 L 806.721,92.1688 L 806.525,92.2552 L 806.447,92.3352 L 806.393,92.5012 L 806.307,92.5719 L 806.308,92.668 L 806.371,92.6662 L 806.465,92.5703 L 806.543,92.5556 L 806.67,92.6108 L 806.718,92.7024 L 806.72,92.9722 L 806.872,93.1601 L 806.858,93.3467 L 806.837,93.5924 L 806.751,93.6941 L 806.485,93.8324 L 806.415,94.005 L 806.251,94.165 L 806.207,94.4083 L 806.129,94.4883 L 805.862,94.6326 L 805.225,94.6485 L 805.003,94.5402 L 804.9,94.4377 L 804.837,94.3765 L 804.891,94.3039 L 805,94.1774 L 804.999,94.0749 L 804.951,94.005 L 804.894,93.9729 L 804.728,93.9095 L 804.672,93.8305 L 804.584,93.5727 L 804.48,93.4549 L 804.377,93.3865 L 804.29,93.2744 L 804.25,93.1824 L 804.224,92.9939 L 804.255,92.8969 L 804.333,92.8264 L 804.632,92.7462 L 804.773,92.6737 L 804.844,92.6809 L 804.901,92.8866 L 805.082,92.9153 L 805.199,92.8281 L 805.198,92.7195 L 805.048,92.665 L 805.038,92.4917 L 805.14,92.3954 L 805.368,92.3545 L 805.611,92.2482 L 805.689,92.1682 L 805.735,92.0584 L 805.734,91.9406 L 805.63,91.7357 L 805.605,91.6185 L 805.675,91.5172 L 805.872,91.4897 L 805.998,91.5201 L 806.328,91.5009 L 806.392,91.555 L 806.417,91.6659 L 806.496,91.7287 L 806.568,91.8289 L 806.694,91.8593 L 806.789,91.9309"/><path id="path15127" d="M 802.06,95.0806 L 801.957,95.0432 L 802.05,94.8546 L 802.05,94.7831 L 801.774,94.723 L 801.71,94.6754 L 801.796,94.4929 L 801.952,94.3114 L 802.251,94.3304 L 802.315,94.4495 L 802.583,94.5191 L 802.568,94.6033 L 802.279,94.86 L 802.17,95.0029 L 802.06,95.0806"/><path id="path15129" d="M 800.431,95.222 L 800.352,95.1809 L 800.24,95.0167 L 800.232,94.9146 L 800.2,94.8596 L 800.182,94.547 L 800.488,94.5038 L 800.552,94.5886 L 800.553,94.7159 L 800.468,94.889 L 800.461,94.9853 L 800.516,95.0612 L 800.525,95.1261 L 800.486,95.1893 L 800.431,95.222"/><path id="path15131" d="M 802.392,96.2122 L 802.281,96.1442 L 802.288,95.9702 L 802.332,95.6462 L 802.583,95.5118 L 802.583,95.4093 L 802.809,95.1391 L 803.263,94.8338 L 803.507,94.7771 L 803.814,94.8145 L 803.925,94.9012 L 803.942,95.0589 L 803.919,95.1215 L 803.802,95.3049 L 803.653,95.3744 L 803.291,95.4101 L 803.149,95.3801 L 803.095,95.4655 L 803.009,95.5083 L 802.69,96.0855 L 802.565,96.179 L 802.392,96.2122"/><path id="path15137" d="M 808.499,95.5602 L 808.115,96.4243 L 808.122,96.2253 L 808.153,96.1624 L 808.159,96.038 L 808.119,95.9679 L 808.041,95.9981 L 807.931,96.1006 L 807.926,96.2685 L 807.848,96.4196 L 807.851,96.7268 L 807.757,96.7667 L 807.67,96.6949 L 807.659,96.419 L 807.689,96.2693 L 807.673,96.1984 L 807.546,96.0967 L 807.521,96.0198 L 807.552,95.9476 L 807.693,95.8689 L 807.692,95.7977 L 807.637,95.7589 L 807.346,95.8389 L 807.118,95.8426 L 806.952,95.7638 L 806.959,95.6797 L 807.036,95.5439 L 807.043,95.4476 L 807.16,95.3138 L 807.278,95.2669 L 807.482,95.2392 L 807.575,95.0409 L 807.677,95.0411 L 807.836,95.1356 L 807.978,95.1718 L 808.184,95.2898 L 808.499,95.5602"/></g></svg>