<svg xmlns="http://www.w3.org/2000/svg" role="img" viewBox="1512.20 948.08 63.34 80.34"><title>Fairhaven</title><g id="g14955" fill="#fefee9" fill-opacity="1" fill-rule="evenodd" stroke="#000" stroke-linecap="square" stroke-linejoin="bevel" stroke-opacity="1" stroke-width=".098" transform="translate(-216.714 -21.7) scale(2.264)"><path id="path16027" d="M 779.797,429.086 L 783.244,441.575 L 783.768,447.176 L 783.61,447.023 L 783.458,446.814 L 783.188,446.515 L 783.03,446.423 L 782.881,446.456 L 782.622,446.559 L 782.497,446.678 L 782.466,446.744 L 782.491,446.907 L 782.611,447.245 L 782.645,447.551 L 782.615,447.716 L 782.537,447.749 L 782.095,447.66 L 781.921,447.55 L 781.826,447.448 L 781.72,447.079 L 781.584,446.788 L 781.322,446.538 L 781.18,446.446 L 781.084,446.337 L 781.036,446.274 L 780.942,446.274 L 780.927,446.392 L 781.182,446.784 L 781.183,446.902 L 781.129,446.95 L 781.05,446.949 L 780.797,446.82 L 780.663,446.852 L 780.657,447.001 L 780.696,447.081 L 780.816,447.179 L 781.106,447.109 L 781.185,447.116 L 781.217,447.171 L 781.131,447.297 L 781.014,447.344 L 780.928,447.43 L 780.921,447.573 L 781.008,447.676 L 781.079,447.652 L 781.101,447.493 L 781.196,447.525 L 781.229,447.617 L 781.23,447.871 L 781.059,448.13 L 780.924,447.976 L 780.748,447.606 L 780.461,447.208 L 780.387,446.829 L 780.385,446.507 L 780.51,446.46 L 780.588,446.293 L 780.712,446.088 L 780.708,445.576 L 780.659,445.302 L 780.564,445.231 L 780.493,445.279 L 780.432,445.507 L 780.434,445.839 L 780.404,445.979 L 780.279,446.122 L 780.153,446.138 L 780.127,445.842 L 780.024,445.683 L 779.991,445.511 L 779.863,445.322 L 779.8,445.299 L 779.73,445.354 L 779.651,445.372 L 779.429,445.186 L 779.216,445.078 L 779.09,445.078 L 778.996,445.124 L 778.886,445.251 L 778.739,445.522 L 778.66,445.546 L 778.549,445.444 L 778.486,445.452 L 778.44,445.602 L 778.394,445.656 L 778.126,445.683 L 778.108,445.47 L 777.982,445.346 L 777.965,445.157 L 777.979,444.984 L 778.057,444.919 L 778.199,444.896 L 778.333,444.917 L 778.395,444.894 L 778.355,444.777 L 778.016,444.762 L 777.945,444.718 L 777.959,444.519 L 778.021,444.424 L 778.012,444.282 L 777.932,444.104 L 777.898,443.724 L 777.873,443.653 L 777.755,443.53 L 777.659,443.483 L 777.589,443.491 L 777.55,443.539 L 777.535,443.626 L 777.607,443.76 L 777.56,443.845 L 777.561,443.926 L 777.743,444.128 L 777.784,444.316 L 777.738,444.411 L 777.605,444.483 L 777.63,444.665 L 777.733,444.836 L 777.695,444.948 L 777.683,445.476 L 777.66,445.545 L 777.654,445.774 L 777.761,446.236 L 777.888,446.471 L 778.172,446.565 L 778.212,446.62 L 778.245,446.783 L 778.184,446.99 L 777.911,447.308 L 777.912,447.456 L 778.023,447.596 L 778.118,447.605 L 778.266,447.406 L 778.353,447.413 L 778.393,447.498 L 778.461,448.129 L 778.587,448.128 L 778.681,448.094 L 778.744,448.151 L 778.785,448.243 L 778.754,448.362 L 778.747,448.446 L 778.803,448.531 L 778.906,448.627 L 779.008,448.64 L 779.134,448.515 L 779.244,448.512 L 779.49,448.787 L 779.6,448.793 L 779.726,448.762 L 779.923,448.753 L 780.01,448.862 L 780.13,449.088 L 780.265,449.183 L 780.628,449.327 L 780.684,449.397 L 780.704,449.942 L 780.787,450.476 L 780.954,450.648 L 780.932,450.894 L 780.962,451.609 L 781.066,451.898 L 781.1,452.182 L 781.291,452.418 L 781.427,452.643 L 781.681,452.94 L 781.753,453.105 L 782.197,453.418 L 782.237,453.472 L 782.242,454.142 L 782.212,454.36 L 782.104,454.63 L 782.122,454.905 L 782.179,455.087 L 782.196,455.26 L 782.056,455.521 L 782.028,455.866 L 782.06,456.017 L 782.124,456.062 L 782.218,456.087 L 782.352,456.015 L 782.477,455.887 L 782.579,455.878 L 782.682,455.98 L 782.73,456.091 L 782.693,456.293 L 782.511,456.289 L 781.983,456.143 L 781.879,456.041 L 781.855,455.98 L 781.907,455.56 L 781.953,455.388 L 781.819,455.388 L 781.546,455.753 L 781.556,455.964 L 781.604,456.021 L 781.667,456.097 L 781.716,456.207 L 781.702,456.508 L 781.571,456.822 L 781.573,457.067 L 781.441,457.344 L 781.45,457.477 L 781.521,457.54 L 781.773,457.507 L 781.813,457.562 L 781.807,457.829 L 781.848,457.992 L 781.844,458.426 L 781.877,458.608 L 781.94,458.669 L 782.042,458.653 L 782.175,458.534 L 782.189,458.32 L 782.299,458.305 L 782.489,458.389 L 782.576,458.365 L 782.606,458.246 L 782.574,458.169 L 782.573,458.011 L 782.635,457.979 L 782.715,458.026 L 782.811,458.302 L 783.283,458.232 L 783.274,458.13 L 783.067,457.764 L 783.056,457.473 L 783.094,457.221 L 783.07,457.157 L 782.935,457.009 L 782.934,456.937 L 783.068,456.952 L 783.307,457.258 L 783.547,457.735 L 783.643,457.884 L 783.715,458.049 L 783.81,458.143 L 784.911,457.946 L 785.107,457.847 L 785.232,457.723 L 785.348,457.509 L 785.416,457.169 L 785.588,456.916 L 785.71,456.465 L 785.708,456.23 L 785.62,456.074 L 785.541,456.049 L 785.313,456.124 L 785.212,456.226 L 785.064,456.416 L 784.978,456.45 L 784.741,456.395 L 784.677,456.31 L 784.676,456.151 L 784.871,455.938 L 785.004,455.881 L 785.327,455.857 L 785.452,455.791 L 785.53,455.689 L 785.521,455.522 L 785.457,455.375 L 785.464,455.263 L 785.597,455.191 L 785.676,455.208 L 785.796,455.393 L 785.844,455.513 L 785.877,455.741 L 786.012,455.889 L 786.243,456.217 L 786.338,456.289 L 786.503,456.238 L 786.685,456.31 L 786.787,456.276 L 786.864,456.022 L 786.855,455.827 L 786.798,455.615 L 786.827,455.307 L 786.814,454.765 L 786.877,454.707 L 786.94,454.715 L 787.019,454.803 L 787.124,455.038 L 787.411,455.498 L 787.609,455.694 L 787.705,455.843 L 787.785,456.039 L 787.92,456.196 L 788.181,456.313 L 788.324,456.405 L 788.592,456.505 L 788.648,456.591 L 788.705,456.772 L 788.816,456.93 L 789.022,457.107 L 789.008,457.259 L 788.977,457.359 L 788.775,457.638 L 788.783,457.755 L 788.832,457.856 L 788.833,458.077 L 788.685,458.282 L 788.864,459.006 L 788.937,459.187 L 788.948,459.54 L 789.004,459.634 L 789.115,459.737 L 789.469,459.717 L 789.54,459.758 L 789.667,459.913 L 789.801,459.937 L 789.895,459.903 L 789.997,459.801 L 790.178,459.736 L 790.302,459.584 L 790.428,459.577 L 790.539,459.655 L 790.642,459.779 L 790.894,459.746 L 790.927,459.879 L 790.835,460.22 L 790.828,460.344 L 790.79,460.488 L 790.696,460.58 L 790.061,460.918 L 789.873,461.091 L 789.671,461.376 L 789.509,461.827 L 789.473,462.135 L 789.517,462.813 L 789.495,462.891 L 789.424,462.946 L 788.927,462.824 L 788.288,462.728 L 787.791,462.55 L 787.617,462.456 L 787.387,462.255 L 787.26,462.091 L 787.204,462.012 L 786.232,460.627 L 785.673,459.679 L 785.641,459.624 L 785.584,459.381 L 785.48,459.238 L 785.352,459.003 L 785.28,458.745 L 785.27,458.54 L 785.23,458.408 L 785.15,458.352 L 784.78,458.269 L 783.954,458.386 L 783.875,458.426 L 783.876,458.503 L 783.932,458.598 L 783.996,458.739 L 784.163,458.957 L 784.228,459.154 L 784.205,459.288 L 784.134,459.274 L 784.079,459.226 L 784.03,459.094 L 783.911,458.93 L 783.396,458.524 L 782.846,458.655 L 782.635,458.884 L 782.424,459.113 L 782.252,459.249 L 782.057,459.487 L 782.05,459.605 L 782.114,459.677 L 782.107,459.811 L 782.06,459.849 L 782.037,459.977 L 781.867,460.404 L 781.595,460.734 L 781.486,460.964 L 781.37,461.153 L 781.325,461.539 L 781.329,462.029 L 781.354,462.186 L 781.4,462.941 L 781.369,463.014 L 781.22,463.123 L 781.055,463.11 L 780.865,463.062 L 780.715,462.962 L 780.508,462.713 L 780.331,462.266 L 780.291,462.171 L 780.205,461.187 L 780.148,461.077 L 779.917,460.749 L 779.86,460.521 L 779.813,460.442 L 779.634,459.737 L 779.63,459.272 L 779.566,459.147 L 779.439,458.974 L 779.042,458.598 L 778.67,458.342 L 778.558,458.147 L 778.516,457.801 L 778.475,457.629 L 778.228,457.363 L 777.974,457.104 L 777.91,456.957 L 777.925,456.783 L 777.971,456.71 L 778.316,456.505 L 778.411,456.502 L 778.435,456.557 L 778.381,456.739 L 778.382,456.81 L 778.446,456.944 L 778.479,457.154 L 778.599,457.374 L 778.696,457.672 L 778.759,457.735 L 778.901,457.719 L 778.9,457.585 L 778.82,457.467 L 778.814,456.704 L 778.609,456.657 L 778.544,456.47 L 778.643,456.021 L 778.64,455.698 L 778.456,455.267 L 778.439,455.186 L 778.31,454.741 L 778.213,454.48 L 777.917,453.884 L 777.89,453.516 L 777.786,453.265 L 777.65,453.076 L 777.554,452.896 L 777.473,452.551 L 777.25,452.167 L 777.131,452.075 L 777.082,451.862 L 777.088,451.704 L 777.135,451.594 L 777.125,451.405 L 777.093,451.341 L 777.068,451.177 L 777.073,450.774 L 777.141,450.418 L 777.138,450.08 L 777.033,449.721 L 777.04,449.649 L 777.203,449.341 L 777.193,449.065 L 776.943,448.378 L 776.816,448.199 L 776.34,447.775 L 776.166,447.7 L 776.054,447.573 L 775.73,447.412 L 774.777,447.033 L 774.587,446.871 L 774.499,446.759 L 774.223,446.59 L 773.804,446.404 L 773.528,446.356 L 773.417,446.238 L 773.165,446.193 L 772.857,445.991 L 772.541,445.867 L 772.438,445.743 L 772.351,445.711 L 772.226,445.854 L 772.061,445.856 L 771.926,445.776 L 771.753,445.762 L 771.81,445.999 L 771.811,446.195 L 771.733,446.306 L 771.704,446.685 L 771.502,447.063 L 771.401,447.354 L 771.285,447.522 L 771.215,447.781 L 771.083,447.996 L 770.817,448.273 L 770.772,448.428 L 770.71,448.491 L 770.262,448.675 L 770.184,448.764 L 768.995,448.755 L 768.491,448.819 L 768.357,448.712 L 768.301,448.633 L 767.751,448.717 L 767.679,448.583 L 767.686,448.511 L 767.788,448.449 L 768.314,448.327 L 768.377,448.257 L 768.423,448.129 L 768.353,447.098 L 768.265,446.943 L 768.147,446.918 L 767.903,446.959 L 767.879,446.796 L 768.138,446.754 L 768.27,446.493 L 768.277,446.313 L 768.197,446.173 L 768.15,446.134 L 768.077,445.944 L 767.856,445.748 L 767.785,445.716 L 767.612,445.759 L 767.297,445.69 L 767.177,445.486 L 767.128,445.28 L 767.089,445.234 L 766.931,445.226 L 766.898,444.967 L 767.039,444.904 L 767.031,444.802 L 766.857,444.733 L 766.865,444.661 L 767.226,444.548 L 767.294,444.177 L 767.191,444.038 L 767.198,443.951 L 767.379,443.871 L 767.362,443.729 L 767.116,443.448 L 766.814,443.016 L 766.711,442.945 L 766.679,442.874 L 766.677,442.598 L 766.952,442.494 L 766.991,442.447 L 766.983,442.354 L 766.919,442.229 L 766.8,442.055 L 766.703,441.717 L 766.631,441.592 L 766.622,441.443 L 766.59,441.348 L 766.487,441.261 L 765.935,441.091 L 765.777,440.984 L 765.697,440.891 L 765.688,440.723 L 765.797,440.55 L 765.82,440.425 L 765.788,440.324 L 765.701,440.205 L 765.518,440.024 L 765.36,439.97 L 765.046,439.979 L 764.824,439.871 L 764.667,439.832 L 764.515,439.582 L 764.427,439.402 L 764.426,439.238 L 764.496,439.087 L 764.676,438.858 L 764.793,438.824 L 764.999,438.933 L 765.361,438.829 L 765.36,438.742 L 765.178,438.562 L 765.098,438.468 L 764.573,438.372 L 764.546,438.236 L 764.607,438.048 L 764.73,438.062 L 765.127,438.107 L 765.15,437.942 L 764.803,437.866 L 764.809,437.63 L 765.139,437.58 L 765.163,437.508 L 765.153,437.313 L 765.475,437.145 L 765.569,437.05 L 765.608,436.955 L 765.606,436.701 L 765.636,436.552 L 765.635,436.325 L 765.924,436.001 L 765.915,435.827 L 765.844,435.826 L 765.695,435.924 L 765.374,436.193 L 765.178,436.28 L 765.114,436.145 L 765.128,435.887 L 765.107,435.06 L 765.136,434.964 L 771.711,433.443 L 775.613,431.345 L 779.797,429.086"/><path id="path16049" d="M 766.136,442.887 L 766.224,443.108 L 765.808,443.281 L 765.408,443.522 L 765.086,443.587 L 764.92,443.555 L 764.801,443.468 L 764.516,443.117 L 764.452,443.001 L 764.458,442.731 L 764.591,442.55 L 764.763,442.493 L 765.094,442.499 L 765.197,442.57 L 765.253,442.72 L 765.254,442.782 L 765.325,442.923 L 765.42,442.939 L 765.797,442.748 L 766.04,442.691 L 766.136,442.887"/><path id="path16055" d="M 766.002,444.238 L 766.168,444.17 L 766.341,444.096 L 766.443,444.121 L 766.515,444.191 L 766.539,444.271 L 766.508,444.396 L 766.415,444.562 L 766.313,444.593 L 766.084,444.507 L 765.995,444.415 L 766.002,444.238"/><path id="path16067" d="M 779.841,448.355 L 779.834,448.501 L 779.708,448.508 L 779.613,448.486 L 779.589,448.356 L 779.588,448.285 L 779.484,448.08 L 779.293,447.807 L 779.363,447.774 L 779.568,447.758 L 779.679,447.805 L 779.72,448.008 L 779.824,448.235 L 779.841,448.355"/><path id="path16075" d="M 783.158,455.455 L 783.095,455.426 L 783.079,455.361 L 783.275,455.327 L 783.354,455.272 L 783.425,455.258 L 783.418,455.429 L 783.158,455.455"/></g></svg>