<svg xmlns="http://www.w3.org/2000/svg" role="img" viewBox="1647.26 963.63 115.24 116.74"><title>Falmouth</title><g id="g14955" fill="#fefee9" fill-opacity="1" fill-rule="evenodd" stroke="#000" stroke-linecap="square" stroke-linejoin="bevel" stroke-opacity="1" stroke-width=".098" transform="translate(-216.714 -21.7) scale(2.264)"><path id="path16039" d="M 854.797,440.59 L 854.871,440.619 L 862.149,443.407 L 863.777,446.943 L 863.929,447.555 L 866.007,456.225 L 872.711,458.11 L 873.186,458.246 L 873.131,458.379 L 873.086,458.431 L 873.058,458.501 L 873.062,458.646 L 873.038,458.791 L 873.01,458.863 L 872.965,458.907 L 872.879,458.955 L 872.801,458.988 L 872.723,459.034 L 872.694,459.106 L 872.643,459.189 L 872.608,459.295 L 872.612,459.38 L 872.557,459.445 L 872.523,459.783 L 872.47,459.88 L 872.418,459.986 L 872.385,460.067 L 872.367,460.155 L 872.342,460.234 L 872.307,460.335 L 872.244,460.459 L 872.213,460.581 L 872.194,460.679 L 872.182,460.776 L 872.189,460.858 L 872.191,460.949 L 872.14,461.083 L 872.117,461.159 L 872.094,461.291 L 872.072,461.399 L 872.045,461.472 L 872.016,461.524 L 871.983,461.596 L 871.932,461.657 L 871.889,461.707 L 871.841,461.756 L 871.795,461.809 L 871.73,461.898 L 871.695,461.947 L 871.667,461.999 L 871.64,462.066 L 871.621,462.148 L 871.611,462.215 L 871.599,462.292 L 871.582,462.394 L 871.543,462.502 L 871.506,462.583 L 871.459,462.652 L 871.414,462.739 L 871.375,462.806 L 871.332,462.885 L 871.285,463.022 L 871.252,463.091 L 871.213,463.2 L 871.204,463.261 L 871.216,463.326 L 871.267,463.363 L 871.354,463.398 L 871.421,463.425 L 871.442,463.504 L 871.393,463.575 L 871.34,463.612 L 871.148,463.698 L 871.062,463.733 L 870.993,463.777 L 870.942,463.871 L 870.923,464.005 L 870.892,464.168 L 870.861,464.385 L 870.826,464.568 L 870.757,464.851 L 870.724,464.971 L 870.696,465.056 L 870.667,465.123 L 870.608,465.208 L 870.146,465.642 L 869.991,465.798 L 869.775,466.013 L 869.615,466.184 L 869.573,466.226 L 869.538,466.281 L 869.491,466.383 L 869.472,466.476 L 869.445,466.623 L 869.447,466.732 L 869.457,466.82 L 869.468,466.895 L 869.472,466.956 L 869.445,467.05 L 869.398,467.113 L 869.297,467.161 L 869.189,467.13 L 869.13,467.083 L 869.023,466.987 L 868.775,466.915 L 868.521,466.509 L 868.439,466.248 L 868.206,465.827 L 868.046,465.608 L 868.053,465.546 L 868.187,465.48 L 868.249,465.416 L 868.434,465.054 L 868.597,464.869 L 868.627,464.689 L 868.898,464.274 L 869.054,464.186 L 869.077,464.133 L 869.044,463.935 L 869.058,463.77 L 868.89,463.623 L 868.773,463.649 L 868.688,463.766 L 868.531,463.885 L 868.462,463.996 L 868.404,464.509 L 868.335,464.644 L 868.118,464.93 L 868.11,465.008 L 868.214,465.157 L 868.161,465.276 L 868.059,465.347 L 867.933,465.366 L 867.665,465.29 L 867.513,465.093 L 867.495,464.867 L 867.564,464.685 L 867.754,464.115 L 867.775,463.901 L 867.724,463.502 L 867.62,463.329 L 867.412,463.111 L 867.294,463.065 L 867.145,463.122 L 866.925,463.147 L 866.53,463.081 L 866.152,463.077 L 865.916,463.142 L 865.682,463.32 L 865.62,463.415 L 865.6,463.713 L 865.445,464.651 L 865.392,464.836 L 865.236,465.032 L 865.214,465.104 L 865.119,465.135 L 864.979,465.288 L 864.879,465.486 L 864.571,466.119 L 864.306,466.35 L 864.05,466.714 L 863.847,466.869 L 863.776,466.852 L 863.875,465.851 L 864.02,465.446 L 864.429,464.687 L 864.498,464.499 L 864.622,464.29 L 864.831,463.258 L 864.814,463.131 L 864.688,463.181 L 864.603,463.267 L 864.56,463.632 L 864.491,463.86 L 864.206,464.43 L 864.169,464.62 L 864.008,465.053 L 863.623,465.845 L 863.565,466.257 L 863.473,466.455 L 863.413,466.745 L 863.392,467.037 L 863.323,467.244 L 863.428,467.408 L 863.468,467.525 L 863.486,467.651 L 863.457,467.879 L 863.396,468.076 L 863.265,468.337 L 863.039,468.561 L 863.025,468.741 L 862.963,468.83 L 862.439,469.834 L 861.726,470.906 L 861.626,471.151 L 861.564,471.209 L 861.423,471.272 L 861.281,471.288 L 861.194,471.204 L 861.145,471.038 L 861.134,470.803 L 861.329,470.611 L 861.375,470.47 L 861.296,470.469 L 861.163,470.56 L 861.084,470.568 L 861.012,470.45 L 861.01,470.239 L 861.079,470.032 L 861.074,469.644 L 861.144,469.574 L 861.142,469.308 L 861.196,469.213 L 861.272,468.99 L 861.294,468.816 L 861.401,468.546 L 861.312,468.304 L 861.358,468.25 L 861.388,468.131 L 861.489,467.958 L 861.504,467.886 L 861.65,467.615 L 861.703,467.378 L 862.188,466.359 L 862.256,466.136 L 862.254,465.941 L 862.183,465.965 L 861.922,466.549 L 861.626,466.853 L 861.43,466.871 L 861.35,466.777 L 861.338,466.445 L 861.435,465.949 L 861.432,465.664 L 861.345,465.611 L 861.09,466.077 L 861.162,466.872 L 861.259,467.139 L 861.271,467.455 L 861.027,468.244 L 860.677,468.58 L 860.599,468.681 L 860.604,469.115 L 860.677,469.296 L 860.679,469.516 L 860.633,469.62 L 860.619,469.754 L 860.55,469.92 L 860.378,470.071 L 860.34,470.19 L 860.492,470.424 L 860.493,470.527 L 860.377,470.645 L 860.244,470.804 L 860.277,470.899 L 860.45,470.928 L 860.436,471.006 L 860.305,471.301 L 860.291,471.441 L 860.109,472.123 L 860.111,472.278 L 860.231,472.436 L 860.24,472.538 L 860.147,472.695 L 860.11,472.876 L 860.317,473.097 L 860.311,473.23 L 860.067,473.318 L 860.005,473.366 L 859.699,473.506 L 859.447,473.522 L 859.377,473.561 L 858.937,473.677 L 858.812,473.767 L 858.576,473.799 L 858.475,473.842 L 858.223,473.859 L 858.16,473.882 L 857.806,473.911 L 857.602,473.951 L 857.327,474.065 L 857.17,474.066 L 857.021,474.101 L 856.864,474.149 L 856.469,474.074 L 855.745,474.129 L 855.179,474.214 L 854.652,474.26 L 854.619,474.128 L 854.674,474.055 L 855.144,473.837 L 855.41,473.504 L 855.071,473.659 L 854.953,473.665 L 854.848,473.417 L 854.861,473.172 L 854.899,473.068 L 854.905,472.904 L 854.825,472.801 L 854.603,472.671 L 854.61,472.522 L 854.664,472.474 L 854.869,472.48 L 854.892,472.414 L 854.863,471.919 L 854.822,471.786 L 854.826,471.485 L 854.855,471.233 L 854.942,469.873 L 854.979,469.617 L 855.133,469.303 L 855.145,469.001 L 855.207,468.875 L 855.213,468.686 L 855.297,468.504 L 855.327,468.292 L 855.489,468.061 L 855.603,467.651 L 855.57,467.55 L 855.59,467.217 L 855.652,467.138 L 855.729,466.909 L 855.83,466.773 L 855.852,466.608 L 855.849,466.388 L 855.815,466.153 L 855.869,466.018 L 855.874,465.804 L 855.913,465.71 L 855.911,465.583 L 855.863,465.46 L 855.914,465.121 L 855.812,465.121 L 855.514,465.322 L 855.516,465.495 L 855.573,465.621 L 855.574,465.723 L 855.489,465.865 L 855.516,466.156 L 855.409,466.519 L 855.395,466.637 L 855.257,466.945 L 855.196,467.12 L 855.184,467.49 L 855.132,467.743 L 855.093,467.815 L 855.025,468.106 L 854.795,468.611 L 854.742,468.796 L 854.503,469.277 L 854.442,469.506 L 854.453,469.75 L 854.51,469.907 L 854.512,470.121 L 854.452,470.374 L 854.455,470.671 L 854.387,470.934 L 854.3,471.578 L 854.202,471.997 L 854.205,472.319 L 854.356,472.405 L 854.365,472.492 L 854.28,472.618 L 854.012,472.66 L 853.903,472.71 L 853.857,472.813 L 853.85,472.922 L 853.899,473.079 L 853.9,473.206 L 853.785,473.507 L 853.717,473.751 L 853.767,473.988 L 853.816,474.111 L 853.951,474.212 L 854.116,474.242 L 854.155,474.141 L 854.408,474.264 L 854.41,474.469 L 853.883,474.506 L 853.648,474.587 L 853.532,474.832 L 853.328,474.851 L 853.021,474.931 L 852.771,475.093 L 852.607,475.142 L 852.544,475.196 L 852.395,475.247 L 852.278,475.319 L 852.12,475.336 L 852.088,475.256 L 852.054,475.037 L 852.045,474.91 L 851.925,474.771 L 852.183,474.58 L 852.284,474.469 L 852.338,474.355 L 852.336,474.17 L 852.247,473.98 L 852.135,473.753 L 852.05,473.266 L 852.077,472.84 L 852.068,472.692 L 852.028,472.603 L 852.094,472.226 L 852.084,472.012 L 851.987,471.81 L 851.945,471.535 L 851.913,471.487 L 851.779,471.472 L 851.777,471.323 L 852.004,470.448 L 852.211,469.98 L 852.304,469.853 L 852.35,469.709 L 852.377,469.253 L 852.488,468.694 L 852.672,468.18 L 852.833,467.831 L 852.903,467.752 L 853.027,467.515 L 853.124,467.097 L 853.221,466.542 L 853.311,466.18 L 853.502,465.61 L 853.676,464.947 L 853.727,464.57 L 853.702,464.466 L 853.623,464.493 L 853.239,465.313 L 853.087,465.83 L 852.877,466.05 L 852.723,466.414 L 852.71,466.675 L 852.744,466.872 L 852.746,467.108 L 852.6,467.376 L 852.321,467.79 L 852.362,467.932 L 852.45,468.025 L 852.233,468.351 L 851.968,468.588 L 851.174,468.763 L 851.134,468.709 L 851.133,468.628 L 851.195,468.558 L 851.195,468.471 L 850.995,468.238 L 850.979,468.152 L 850.995,467.537 L 850.797,467.388 L 850.724,467.226 L 850.644,467.123 L 850.51,467.117 L 850.528,467.306 L 850.612,467.793 L 850.615,468.054 L 850.586,468.235 L 850.587,468.368 L 850.754,468.531 L 850.849,468.577 L 850.913,468.647 L 850.922,468.78 L 851.066,468.937 L 851.098,469.032 L 851.069,469.222 L 850.977,469.436 L 850.697,469.77 L 850.504,470.11 L 850.515,470.401 L 850.539,470.472 L 850.795,470.831 L 850.789,470.955 L 850.664,471.098 L 850.618,471.227 L 850.644,471.375 L 850.949,471.893 L 850.974,472.057 L 850.747,472.138 L 850.684,472.217 L 850.671,472.416 L 850.809,472.775 L 850.842,472.932 L 850.81,473.578 L 850.915,473.804 L 851.075,474.017 L 851.083,474.094 L 850.903,474.193 L 850.857,474.287 L 850.852,474.594 L 850.981,474.86 L 851.061,474.929 L 851.21,474.881 L 851.865,475.064 L 851.886,475.479 L 851.768,475.489 L 850.488,475.126 L 850.33,475.118 L 849.819,475.195 L 849.434,475.225 L 849.3,475.201 L 848.599,475.218 L 848.497,475.258 L 848.144,475.324 L 847.885,475.437 L 847.619,475.622 L 847.565,475.716 L 847.237,475.949 L 846.572,476.319 L 846.36,476.4 L 845.982,476.411 L 845.073,476.114 L 845.064,475.981 L 845.465,475.873 L 845.698,475.603 L 846.352,474.967 L 846.367,474.839 L 846.324,474.574 L 846.409,474.398 L 846.546,473.997 L 846.616,473.908 L 846.714,473.52 L 846.727,473.278 L 846.662,473.082 L 846.497,473.083 L 846.458,473.153 L 846.46,473.32 L 846.362,473.739 L 846.132,474.235 L 845.684,475.101 L 845.452,475.44 L 845.164,475.774 L 845.015,475.809 L 844.88,475.745 L 844.81,475.747 L 844.759,476.204 L 844.697,476.222 L 844.538,476.105 L 844.356,476.036 L 844.057,476.048 L 843.468,476.242 L 842.785,476.361 L 842.659,476.417 L 842.589,476.518 L 842.495,476.552 L 842.392,476.499 L 842.314,476.53 L 842.023,476.535 L 841.606,476.625 L 841.056,476.703 L 840.601,476.84 L 840.268,476.978 L 839.979,477.154 L 839.782,477.197 L 839.492,477.308 L 839.311,477.319 L 839.24,477.343 L 839.194,477.397 L 838.989,477.44 L 838.958,477.503 L 838.762,477.537 L 838.51,477.618 L 838.464,477.663 L 838.252,477.738 L 838.229,477.81 L 837.97,477.882 L 837.954,477.945 L 837.492,478.185 L 836.835,478.641 L 836.507,478.911 L 836.304,479.109 L 836.21,479.159 L 836.156,479.269 L 835.681,479.794 L 835.191,480.429 L 834.711,481.323 L 834.578,481.467 L 834.454,481.657 L 834.447,481.719 L 834.323,481.887 L 834.3,481.98 L 834.214,482.107 L 834.192,482.216 L 834.037,482.478 L 833.945,482.747 L 833.735,483.048 L 833.627,483.256 L 833.589,483.381 L 833.092,484.174 L 833.016,484.409 L 833.029,484.976 L 833.095,485.259 L 833.003,485.56 L 832.918,485.686 L 832.8,485.773 L 832.667,485.799 L 832.572,485.731 L 832.406,485.661 L 832.223,485.536 L 831.944,485.2 L 831.834,485.138 L 831.478,484.975 L 831.091,484.933 L 830.926,484.885 L 830.712,484.771 L 830.489,484.514 L 830.267,484.343 L 830.272,484.058 L 830.212,483.57 L 830.272,483.233 L 830.232,483.178 L 830.098,483.133 L 829.861,483.118 L 829.665,483.127 L 829.602,483.169 L 829.595,483.262 L 829.621,483.466 L 829.645,483.521 L 829.663,483.843 L 829.641,483.924 L 829.571,484.01 L 829.375,484.13 L 829.36,484.249 L 829.465,484.475 L 829.53,484.712 L 829.532,484.876 L 829.494,485.011 L 829.455,485.058 L 829.392,485.091 L 829.313,485.084 L 829.087,484.48 L 828.759,483.931 L 828.764,483.664 L 828.779,483.562 L 828.754,483.395 L 828.61,483.185 L 828.617,483.052 L 828.648,482.989 L 828.631,482.868 L 828.519,482.754 L 828.109,482.607 L 827.744,482.389 L 827.641,482.274 L 827.631,482.131 L 827.638,482.029 L 827.7,481.918 L 827.691,481.838 L 827.58,481.73 L 827.359,481.637 L 827.059,481.578 L 826.894,481.57 L 826.562,481.496 L 826.317,481.413 L 826.089,481.373 L 825.931,481.328 L 825.875,481.243 L 825.796,481.205 L 825.716,481.173 L 825.465,481.224 L 825.355,481.28 L 825.208,481.455 L 825.13,481.587 L 825.133,481.91 L 825.166,482.045 L 825.238,482.155 L 825.239,482.313 L 825.004,482.456 L 825.076,482.55 L 825.501,482.482 L 825.556,482.505 L 825.542,482.664 L 825.371,482.926 L 825.333,483.129 L 825.405,483.232 L 825.66,483.466 L 825.7,483.537 L 825.757,483.749 L 825.743,483.898 L 825.672,483.938 L 825.601,483.93 L 825.443,483.82 L 825.26,483.612 L 825.117,483.532 L 824.842,483.599 L 824.755,483.592 L 824.629,483.537 L 824.51,483.438 L 824.469,483.343 L 824.45,482.95 L 824.345,482.714 L 824.45,482.106 L 824.433,481.186 L 824.517,480.886 L 824.768,480.813 L 824.862,480.748 L 825.024,480.424 L 825.157,480.29 L 825.225,479.997 L 825.295,479.926 L 825.452,479.885 L 825.562,479.891 L 825.744,479.954 L 825.967,480.195 L 826.023,480.311 L 826.025,480.445 L 826.065,480.515 L 826.2,480.666 L 826.422,480.812 L 826.557,480.922 L 826.693,481.117 L 826.882,481.201 L 827.126,481.185 L 827.252,481.144 L 827.323,481.136 L 827.95,480.86 L 828.013,480.812 L 828.026,480.529 L 828.174,480.363 L 828.251,480.181 L 828.336,480.092 L 828.493,480.038 L 828.745,480.027 L 828.831,479.978 L 828.901,479.874 L 829.144,479.69 L 829.198,479.611 L 829.197,479.456 L 829.068,479.181 L 829.044,479.101 L 829.041,478.825 L 829.11,478.596 L 829.264,478.251 L 829.528,477.893 L 829.574,477.733 L 829.595,477.429 L 829.695,477.237 L 830.002,477.193 L 830.136,477.242 L 830.279,477.39 L 830.28,477.492 L 830.203,477.634 L 830.191,478.004 L 830.231,478.099 L 830.295,478.184 L 830.35,478.216 L 830.515,478.183 L 830.931,477.982 L 831.552,477.865 L 832.19,477.883 L 832.354,477.817 L 832.566,477.683 L 832.62,477.604 L 832.612,477.533 L 832.484,477.385 L 832.452,477.305 L 832.451,477.178 L 832.544,477.091 L 832.639,477.067 L 832.805,477.152 L 832.956,477.253 L 833.089,477.197 L 833.08,477.094 L 833.048,477.008 L 833.062,476.844 L 833.309,476.384 L 833.314,476.005 L 833.336,475.871 L 833.312,475.795 L 833.193,475.699 L 832.774,475.618 L 832.657,475.643 L 832.594,475.713 L 832.588,475.903 L 832.661,476.083 L 832.647,476.233 L 832.553,476.313 L 831.925,476.539 L 831.854,476.594 L 831.713,476.651 L 831.556,476.661 L 831.083,476.579 L 831.003,476.507 L 831.002,476.429 L 831.458,476.308 L 831.646,476.163 L 831.755,476.035 L 831.947,475.571 L 832.141,475.246 L 832.217,474.952 L 832.31,474.757 L 832.457,474.48 L 832.729,474.115 L 832.859,473.773 L 832.802,472.752 L 832.768,472.483 L 832.757,472.151 L 832.682,471.667 L 832.592,471.369 L 832.559,471.171 L 832.598,470.274 L 832.754,470.145 L 832.792,470.051 L 832.787,469.474 L 832.823,469.191 L 832.866,468.663 L 832.912,468.528 L 832.997,468.401 L 833.154,468.313 L 833.775,468.23 L 833.924,468.157 L 834.048,467.992 L 834.125,467.73 L 834.184,467.374 L 834.219,466.896 L 834.318,466.586 L 834.444,466.529 L 834.837,466.441 L 835.119,466.287 L 835.582,466.143 L 835.77,466.013 L 835.933,465.751 L 836.032,465.453 L 836.143,464.712 L 836.237,464.647 L 836.364,464.734 L 836.505,464.699 L 836.764,464.579 L 836.867,464.601 L 837.017,464.677 L 837.303,464.982 L 837.525,465.09 L 837.597,465.2 L 837.535,465.326 L 837.798,465.672 L 837.933,465.764 L 838.035,465.755 L 838.066,465.667 L 838.055,465.395 L 837.991,465.213 L 837.903,465.089 L 837.728,464.964 L 837.688,464.878 L 837.482,464.76 L 837.323,464.613 L 836.968,464.505 L 836.865,464.437 L 836.7,464.46 L 836.59,464.541 L 836.457,464.536 L 836.218,464.31 L 836.097,464.019 L 835.941,463.32 L 835.931,462.318 L 835.938,462.153 L 836.068,461.775 L 836.191,461.504 L 836.179,461.089 L 836.21,460.97 L 836.367,460.929 L 836.514,460.707 L 836.513,460.533 L 836.229,460.536 L 836.167,460.584 L 836.112,460.678 L 835.924,460.737 L 835.877,460.775 L 835.95,460.95 L 835.885,461.594 L 835.854,461.66 L 835.855,461.753 L 835.824,461.831 L 835.755,461.942 L 835.684,461.975 L 835.516,461.732 L 835.428,461.551 L 835.258,461.051 L 835.097,460.736 L 835.024,460.478 L 834.836,459.748 L 834.794,459.455 L 834.614,458.797 L 834.613,458.703 L 834.459,458.193 L 834.12,457.322 L 833.444,455.863 L 833.291,455.486 L 833.188,455.418 L 833.074,454.968 L 833.072,454.794 L 833.15,454.739 L 833.505,454.76 L 833.953,454.716 L 834.22,454.634 L 834.455,454.537 L 834.605,454.551 L 834.811,454.623 L 835.104,454.8 L 835.113,454.924 L 835.051,455.013 L 835.101,455.318 L 835.046,455.413 L 834.882,455.464 L 834.344,456.02 L 834.344,456.106 L 834.776,456.804 L 834.921,457.11 L 835.087,457.226 L 835.284,457.208 L 835.606,457.062 L 835.717,457.189 L 835.702,457.289 L 835.713,457.558 L 835.778,457.776 L 835.764,457.96 L 835.725,458.054 L 835.726,458.125 L 835.79,458.185 L 835.845,458.218 L 836.057,458.193 L 836.285,458.072 L 836.339,457.968 L 836.345,457.819 L 836.177,457.554 L 836.072,457.272 L 835.993,457.193 L 835.85,457.108 L 835.802,456.982 L 835.933,456.745 L 835.939,456.572 L 835.884,456.486 L 835.622,456.267 L 835.55,456.174 L 835.533,456.072 L 835.556,456.015 L 835.713,455.927 L 836.066,455.799 L 836.088,455.618 L 836.274,455.355 L 836.705,455.051 L 836.696,454.989 L 836.537,454.842 L 836.536,454.74 L 836.606,454.645 L 836.619,454.353 L 836.738,454.405 L 836.926,454.381 L 837.083,454.246 L 837.302,454.15 L 837.325,454.013 L 837.293,453.961 L 837.213,453.914 L 837.071,453.884 L 837.008,453.79 L 836.967,453.664 L 836.911,453.64 L 836.825,453.68 L 836.598,453.817 L 836.299,453.851 L 836.166,453.901 L 836.112,454.027 L 836.075,454.248 L 835.912,454.547 L 835.874,454.675 L 835.781,454.824 L 835.703,454.863 L 835.608,454.872 L 835.575,454.724 L 835.845,454.059 L 835.967,453.659 L 835.965,453.485 L 835.941,453.405 L 835.742,453.234 L 835.56,453.165 L 835.442,453.144 L 835.356,453.168 L 835.333,453.231 L 835.381,453.341 L 835.375,453.536 L 834.907,453.975 L 834.796,453.969 L 834.669,453.836 L 834.445,453.467 L 834.31,453.335 L 834.183,453.264 L 834.049,453.228 L 833.884,453.292 L 833.783,453.412 L 833.752,453.491 L 833.642,453.491 L 833.3,453.132 L 833.244,453.006 L 833.25,452.873 L 833.297,452.816 L 833.572,452.721 L 833.745,452.719 L 833.927,452.779 L 834.124,452.77 L 834.272,452.682 L 834.405,452.538 L 834.535,452.168 L 834.607,451.404 L 834.645,451.347 L 834.945,451.338 L 835.023,451.258 L 835.022,451.187 L 834.856,451.092 L 834.704,450.889 L 834.589,450.418 L 834.602,450.089 L 834.74,449.716 L 834.88,449.557 L 835.796,448.928 L 836.133,448.838 L 836.318,448.38 L 836.451,448.308 L 836.458,448.211 L 836.299,448.024 L 836.242,447.861 L 836.234,447.771 L 836.086,447.148 L 835.804,446.506 L 835.421,445.918 L 834.925,445.095 L 834.622,444.76 L 834.51,444.565 L 834.525,444.446 L 834.618,444.345 L 834.752,444.328 L 835.234,444.494 L 835.565,444.525 L 835.636,444.547 L 835.684,444.602 L 835.694,444.868 L 835.624,444.963 L 835.649,445.074 L 835.894,445.213 L 836.218,445.25 L 836.329,445.327 L 836.393,445.437 L 836.583,445.618 L 836.68,445.798 L 836.682,446.008 L 836.792,445.993 L 837.003,445.857 L 837.082,445.91 L 837.169,445.895 L 837.255,445.806 L 837.244,445.493 L 837.298,445.364 L 837.687,444.866 L 837.815,444.729 L 837.669,444.699 L 837.544,444.764 L 837.216,445.09 L 837.148,445.344 L 836.969,445.551 L 836.874,445.59 L 836.788,445.59 L 836.661,445.457 L 836.588,445.239 L 836.389,445.068 L 836.261,444.87 L 836.167,444.895 L 836.121,445.008 L 836.019,445.063 L 835.948,445.062 L 835.852,444.938 L 835.848,444.482 L 835.752,444.373 L 835.498,444.161 L 835.426,443.967 L 835.414,443.58 L 835.349,443.343 L 834.982,442.796 L 834.981,442.703 L 835.16,442.558 L 835.191,442.464 L 835.149,442.174 L 834.968,442.176 L 834.929,442.223 L 834.931,442.434 L 834.837,442.53 L 834.554,442.603 L 833.925,442.712 L 833.682,442.793 L 833.581,442.896 L 833.441,443.173 L 833.113,443.344 L 832.964,443.484 L 832.894,443.517 L 832.823,443.504 L 832.767,443.456 L 832.742,443.345 L 832.773,443.226 L 832.873,443.053 L 833.108,442.838 L 833.326,442.655 L 833.554,441.764 L 833.504,441.44 L 833.342,440.946 L 833.356,440.821 L 833.387,440.749 L 833.465,440.685 L 833.749,440.676 L 834.182,440.757 L 834.442,440.746 L 835.178,440.321 L 835.568,439.925 L 836.038,439.676 L 836.156,439.645 L 836.314,439.649 L 836.906,439.778 L 837.268,439.752 L 837.441,439.756 L 837.566,439.678 L 837.951,439.549 L 838.202,439.42 L 838.365,439.282 L 838.599,438.981 L 839.187,438.75 L 839.455,438.683 L 839.548,438.627 L 839.744,438.445 L 840.006,437.836 L 840.098,437.637 L 840.2,437.52 L 840.278,437.425 L 840.322,437.226 L 840.377,437.18 L 840.754,437.11 L 841.172,437.154 L 841.458,437.357 L 841.709,437.306 L 841.912,437.092 L 842.051,436.877 L 842.153,436.806 L 842.263,436.803 L 842.437,436.872 L 842.539,436.841 L 842.617,436.746 L 842.64,436.674 L 842.63,436.507 L 842.576,436.391 L 843.057,436.303 L 854.797,440.59 M 857.645,473.581 L 857.936,473.538 L 858.07,473.599 L 858.267,473.606 L 858.55,473.508 L 858.745,473.372 L 858.871,473.402 L 858.966,473.409 L 859.099,473.321 L 859.105,473.197 L 859.081,473.126 L 859.071,472.904 L 859.11,472.581 L 858.867,472.971 L 858.696,473.159 L 858.601,473.178 L 858.53,473.13 L 858.45,473.005 L 858.447,472.785 L 858.562,472.484 L 858.473,472.257 L 858.472,472.155 L 858.645,472.122 L 858.691,472.083 L 858.697,471.869 L 858.765,471.601 L 858.77,471.303 L 858.822,471.087 L 858.915,470.883 L 858.888,470.648 L 858.816,470.489 L 858.807,470.402 L 858.924,470.324 L 859.04,470.094 L 859.115,469.816 L 859.215,469.596 L 859.3,469.367 L 859.333,468.799 L 859.261,468.689 L 859.244,468.603 L 859.392,468.443 L 859.394,467.941 L 859.369,467.846 L 859.17,467.582 L 859.12,467.391 L 859.077,467.085 L 858.995,466.755 L 859.016,466.494 L 859.054,466.375 L 859.178,466.179 L 859.208,466.083 L 859.284,465.798 L 859.298,465.618 L 859.273,465.532 L 859.265,464.791 L 859.178,464.799 L 859.11,465.006 L 859.107,465.462 L 859.132,465.564 L 859.134,465.753 L 859.104,465.903 L 858.62,466.335 L 858.559,466.492 L 858.507,466.785 L 858.51,467.077 L 858.656,467.46 L 858.793,467.71 L 858.939,468.072 L 858.998,468.439 L 858.975,468.511 L 858.972,468.912 L 858.864,469.175 L 858.763,469.271 L 858.535,469.281 L 858.441,469.327 L 858.434,469.399 L 858.667,469.829 L 858.692,469.971 L 858.67,470.09 L 858.476,470.384 L 858.462,470.573 L 858.425,470.729 L 858.347,470.84 L 858.186,471.183 L 858.092,471.294 L 857.99,471.35 L 857.793,471.353 L 857.643,471.211 L 857.445,471.118 L 857.412,471.063 L 857.325,470.988 L 857.173,470.754 L 857.073,470.297 L 856.986,470.266 L 856.942,470.543 L 857.008,470.817 L 856.972,471.11 L 857.108,471.289 L 857.211,471.388 L 857.306,471.435 L 857.331,471.49 L 857.343,471.868 L 857.328,471.987 L 857.18,472.13 L 857.165,472.224 L 857.213,472.263 L 857.316,472.278 L 857.479,472.118 L 857.597,472.087 L 857.908,472.407 L 857.908,472.491 L 857.87,472.588 L 857.397,473.216 L 857.39,473.284 L 857.588,473.409 L 857.645,473.581"/><path id="path16083" d="M 857.645,473.581 L 857.588,473.409 L 857.39,473.284 L 857.397,473.216 L 857.87,472.588 L 857.908,472.491 L 857.908,472.407 L 857.597,472.087 L 857.479,472.118 L 857.316,472.278 L 857.213,472.263 L 857.165,472.224 L 857.18,472.13 L 857.328,471.987 L 857.343,471.868 L 857.331,471.49 L 857.306,471.435 L 857.211,471.388 L 857.108,471.289 L 856.972,471.11 L 857.008,470.817 L 856.942,470.543 L 856.986,470.266 L 857.073,470.297 L 857.173,470.754 L 857.325,470.988 L 857.412,471.063 L 857.445,471.118 L 857.643,471.211 L 857.793,471.353 L 857.99,471.35 L 858.092,471.294 L 858.186,471.183 L 858.347,470.84 L 858.425,470.729 L 858.462,470.573 L 858.476,470.384 L 858.67,470.09 L 858.692,469.971 L 858.667,469.829 L 858.434,469.399 L 858.441,469.327 L 858.535,469.281 L 858.763,469.271 L 858.864,469.175 L 858.972,468.912 L 858.975,468.511 L 858.998,468.439 L 858.939,468.072 L 858.793,467.71 L 858.656,467.46 L 858.51,467.077 L 858.507,466.785 L 858.559,466.492 L 858.62,466.335 L 859.104,465.903 L 859.134,465.753 L 859.132,465.564 L 859.107,465.462 L 859.11,465.006 L 859.178,464.799 L 859.265,464.791 L 859.273,465.532 L 859.298,465.618 L 859.284,465.798 L 859.208,466.083 L 859.178,466.179 L 859.054,466.375 L 859.016,466.494 L 858.995,466.755 L 859.077,467.085 L 859.12,467.391 L 859.17,467.582 L 859.369,467.846 L 859.394,467.941 L 859.392,468.443 L 859.244,468.603 L 859.261,468.689 L 859.333,468.799 L 859.3,469.367 L 859.215,469.596 L 859.115,469.816 L 859.04,470.094 L 858.924,470.324 L 858.807,470.402 L 858.816,470.489 L 858.888,470.648 L 858.915,470.883 L 858.822,471.087 L 858.77,471.303 L 858.765,471.601 L 858.697,471.869 L 858.691,472.083 L 858.645,472.122 L 858.472,472.155 L 858.473,472.257 L 858.562,472.484 L 858.447,472.785 L 858.45,473.005 L 858.53,473.13 L 858.601,473.178 L 858.696,473.159 L 858.867,472.971 L 859.11,472.581 L 859.071,472.904 L 859.081,473.126 L 859.105,473.197 L 859.099,473.321 L 858.966,473.409 L 858.871,473.402 L 858.745,473.372 L 858.55,473.508 L 858.267,473.606 L 858.07,473.599 L 857.936,473.538 L 857.645,473.581"/><path id="path16085" d="M 860.382,472.552 L 860.397,472.49 L 860.491,472.44 L 860.641,472.455 L 860.965,472.569 L 861.25,472.716 L 861.47,472.713 L 861.595,472.641 L 861.803,472.182 L 861.927,472.029 L 862.035,471.778 L 862.095,471.547 L 862.099,471.218 L 862.17,471.16 L 862.225,471.183 L 862.367,471.167 L 862.453,471.118 L 862.592,470.897 L 862.712,470.391 L 862.774,470.249 L 862.978,470.16 L 863.087,470.042 L 863.146,469.748 L 863.185,469.654 L 863.348,469.488 L 863.486,469.14 L 863.78,468.607 L 864.006,468.393 L 864.325,468.067 L 864.559,467.905 L 864.785,467.635 L 864.784,467.567 L 864.658,467.599 L 864.339,467.884 L 864.198,467.975 L 864.111,467.968 L 863.69,467.617 L 863.962,467.33 L 864.442,466.578 L 864.777,466.243 L 864.839,466.117 L 864.909,466.037 L 865.152,465.916 L 865.236,465.733 L 865.242,465.584 L 865.273,465.527 L 865.446,465.519 L 865.581,465.54 L 865.919,465.537 L 865.912,465.599 L 865.717,465.822 L 865.524,466.109 L 865.407,466.228 L 865.222,466.537 L 865.216,466.773 L 865.38,467.339 L 865.437,468.221 L 865.461,468.313 L 865.701,468.57 L 865.678,468.651 L 865.434,468.662 L 865.214,468.742 L 864.862,468.92 L 864.612,469.151 L 864.474,469.443 L 864.392,469.836 L 864.374,470.373 L 864.351,470.467 L 863.931,470.913 L 863.893,471.001 L 863.667,471.231 L 863.434,471.533 L 863.428,471.716 L 863.342,471.818 L 863.328,471.936 L 863.266,472.015 L 862.802,472.106 L 862.623,472.276 L 862.537,472.306 L 862.457,472.237 L 862.431,471.971 L 862.391,471.917 L 862.32,471.925 L 861.994,472.394 L 861.98,472.478 L 862.059,472.55 L 862.272,472.587 L 862.429,472.576 L 862.625,472.487 L 863.011,472.451 L 863.073,472.427 L 863.032,472.214 L 863.479,472.083 L 863.566,472.09 L 863.812,472.278 L 864.129,472.461 L 864.929,472.832 L 865.041,472.981 L 865.186,473.343 L 865.425,474.269 L 865.215,474.545 L 864.831,474.014 L 864.441,473.656 L 863.847,473.316 L 863.507,473.171 L 862.781,472.997 L 862.418,472.946 L 861.078,472.892 L 860.438,472.637 L 860.382,472.552"/><path id="path16109" d="M 826.011,483.171 L 825.956,483.132 L 825.931,483.015 L 825.866,482.769 L 826.11,482.774 L 826.253,482.962 L 826.239,483.065 L 826.153,483.161 L 826.011,483.171"/><path id="path16111" d="M 826.002,483.894 L 825.939,483.871 L 825.93,483.753 L 825.984,483.618 L 826.046,483.555 L 826.212,483.602 L 826.535,483.574 L 826.59,483.591 L 826.622,483.662 L 826.591,483.715 L 826.434,483.773 L 826.073,483.839 L 826.002,483.894"/></g></svg>