<svg xmlns="http://www.w3.org/2000/svg" role="img" viewBox="1197.62 591.99 59.52 85.02"><title>Franklin</title><g id="g14955" fill="#fefee9" fill-opacity="1" fill-rule="evenodd" stroke="#000" stroke-linecap="square" stroke-linejoin="bevel" stroke-opacity="1" stroke-width=".098" transform="translate(-216.714 -21.7) scale(2.264)"><path id="path15753" fill-rule="evenodd" d="M 644.886,274.157 L 644.782,274.182 L 644.714,274.237 L 644.696,274.3 L 644.711,274.406 L 644.726,274.477 L 644.797,274.57 L 644.873,274.63 L 644.878,274.705 L 644.836,274.785 L 644.755,274.83 L 644.68,274.842 L 644.603,274.859 L 644.528,274.892 L 644.526,274.967 L 644.521,275.067 L 644.423,275.205 L 644.572,275.261 L 644.645,275.324 L 644.729,275.39 L 644.768,275.459 L 644.785,275.534 L 644.796,275.609 L 644.788,275.672 L 644.799,275.73 L 644.859,275.846 L 644.896,275.905 L 644.918,275.963 L 644.933,276.038 L 644.934,276.19 L 644.933,276.265 L 645.16,276.849 L 646.362,279.243 L 648.098,282.985 L 650.272,289.11 L 648.736,293.66 L 646.388,298.51 L 642.852,305.798 L 625.535,307.887 L 625.815,304.756 L 625.852,301.962 L 625.805,298.162 L 625.516,298.181 L 625.694,294.911 L 626.087,294.906 L 626.526,291.074 L 627.931,284.77 L 628.586,279.565 L 628.746,276.863 L 628.841,275.562 L 628.9,274.665 L 628.981,274.644 L 629.04,274.614 L 629.085,274.524 L 628.999,274.496 L 628.926,274.492 L 628.901,274.41 L 628.964,274.353 L 629.013,274.316 L 628.994,274.172 L 628.941,274.119 L 628.974,274.044 L 629.031,273.963 L 629.026,273.889 L 628.955,273.843 L 628.894,273.839 L 628.81,273.78 L 628.845,273.688 L 628.885,273.633 L 628.964,273.584 L 629.068,273.584 L 629.129,273.574 L 629.197,273.523 L 629.281,273.478 L 629.357,273.433 L 629.432,273.423 L 629.499,273.421 L 629.582,273.432 L 629.652,273.443 L 629.749,273.436 L 629.808,273.422 L 629.873,273.43 L 629.983,273.458 L 630.181,273.519 L 630.299,273.555 L 630.37,273.598 L 630.417,273.632 L 630.474,273.669 L 630.556,273.704 L 630.663,273.738 L 630.724,273.734 L 630.808,273.727 L 630.865,273.715 L 630.948,273.705 L 630.962,273.629 L 630.925,273.552 L 630.913,273.489 L 630.908,273.371 L 630.939,273.292 L 631.008,273.312 L 631.043,273.385 L 631.096,273.444 L 631.157,273.407 L 631.189,273.332 L 631.209,273.251 L 631.16,273.218 L 631.067,273.168 L 631.132,273.123 L 631.166,273.07 L 631.225,273.002 L 631.275,272.959 L 631.324,272.872 L 631.358,272.778 L 631.417,272.725 L 631.486,272.687 L 631.517,272.636 L 631.551,272.526 L 631.579,272.467 L 631.646,272.41 L 631.719,272.385 L 631.811,272.354 L 631.866,272.308 L 631.898,272.222 L 631.951,272.116 L 632.04,272.083 L 632.103,272.069 L 632.178,272.067 L 632.26,272.146 L 632.321,272.236 L 632.399,272.3 L 632.5,272.359 L 632.628,272.367 L 632.72,272.326 L 632.803,272.281 L 632.874,272.247 L 632.939,272.228 L 633.017,272.214 L 633.102,272.208 L 633.163,272.22 L 633.289,272.218 L 633.387,272.172 L 633.46,272.136 L 633.533,272.101 L 633.634,272.068 L 633.74,272.048 L 633.854,272.043 L 633.944,272.07 L 634.023,272.11 L 634.121,272.155 L 634.216,272.177 L 634.304,272.177 L 634.402,272.173 L 634.513,272.14 L 634.617,272.117 L 634.743,272.081 L 634.879,272.086 L 634.92,272.15 L 634.925,272.247 L 634.876,272.312 L 634.799,272.345 L 634.74,272.376 L 634.669,272.408 L 634.616,272.471 L 634.574,272.575 L 634.604,272.644 L 634.665,272.642 L 634.718,272.603 L 634.763,272.554 L 634.824,272.559 L 634.858,272.613 L 634.861,272.672 L 634.855,272.772 L 634.871,272.888 L 634.928,272.955 L 634.987,272.959 L 635.04,272.931 L 635.087,272.894 L 635.168,272.827 L 635.29,272.727 L 635.511,272.541 L 635.726,272.372 L 635.828,272.309 L 635.923,272.304 L 635.984,272.335 L 636.003,272.422 L 636.017,272.518 L 636.001,272.644 L 635.973,272.762 L 635.939,272.827 L 635.898,272.892 L 635.799,272.984 L 635.75,273.074 L 635.745,273.147 L 635.757,273.23 L 635.796,273.405 L 635.886,273.517 L 636.169,273.795 L 636.257,273.87 L 636.355,273.917 L 636.432,273.929 L 636.552,273.927 L 636.65,273.882 L 636.698,273.837 L 636.755,273.747 L 636.804,273.694 L 636.915,273.629 L 637.009,273.678 L 637.056,273.712 L 637.113,273.743 L 637.206,273.771 L 637.302,273.781 L 637.367,273.773 L 637.426,273.759 L 637.489,273.73 L 637.605,273.679 L 637.672,273.63 L 637.806,273.477 L 637.962,273.257 L 638.104,273.051 L 638.191,272.966 L 638.248,272.943 L 638.301,272.915 L 638.356,272.888 L 638.421,272.859 L 638.488,272.827 L 638.555,272.778 L 638.624,272.717 L 638.676,272.652 L 638.731,272.562 L 638.828,272.305 L 638.872,272.198 L 638.907,272.128 L 638.945,272.081 L 639.012,271.989 L 639.175,271.881 L 639.285,271.9 L 639.394,271.944 L 639.498,272.001 L 639.555,272.021 L 639.655,272.044 L 639.763,272.068 L 639.883,272.096 L 639.952,272.118 L 640.03,272.157 L 640.087,272.195 L 640.14,272.232 L 640.215,272.297 L 640.293,272.356 L 640.366,272.416 L 640.413,272.479 L 640.45,272.543 L 640.538,272.622 L 643.666,273.335 L 643.921,273.385 L 644.059,273.393 L 644.105,273.324 L 644.144,273.281 L 644.231,273.254 L 644.341,273.262 L 644.398,273.274 L 644.382,273.335 L 644.317,273.37 L 644.228,273.443 L 644.202,273.543 L 644.196,273.61 L 644.204,273.684 L 644.269,273.767 L 644.333,273.785 L 644.406,273.844 L 644.372,273.899 L 644.298,273.895 L 644.19,273.862 L 644.109,273.887 L 644.097,273.958 L 644.142,274.038 L 644.199,274.08 L 644.27,274.084 L 644.289,274.027 L 644.353,273.966 L 644.437,273.974 L 644.52,274.022 L 644.6,274.096 L 644.692,274.163 L 644.751,274.122 L 644.82,274.105 L 644.886,274.157"/></g></svg>