<svg xmlns="http://www.w3.org/2000/svg" role="img" viewBox="1395.44 841.44 126.62 87.37"><title>Freetown</title><g id="g14955" fill="#fefee9" fill-opacity="1" fill-rule="evenodd" stroke="#000" stroke-linecap="square" stroke-linejoin="bevel" stroke-opacity="1" stroke-width=".098" transform="translate(-216.714 -21.7) scale(2.264)"><path id="path15913" d="M 733.505,382.763 L 739.207,388.552 L 736.246,395.694 L 743.137,394.601 L 746.648,394.013 L 763.104,391.254 L 766.911,400.813 L 765.945,401.101 L 765.979,401.171 L 762.134,402.504 L 762.065,402.561 L 762.031,402.621 L 762.031,402.688 L 762.048,402.79 L 762.064,402.87 L 762.103,402.951 L 762.143,403.045 L 762.203,403.128 L 762.273,403.181 L 762.318,403.231 L 762.366,403.27 L 762.41,403.311 L 762.446,403.38 L 762.502,403.428 L 762.567,403.491 L 762.639,403.552 L 762.739,403.586 L 762.802,403.608 L 762.91,403.654 L 762.972,403.684 L 763.022,403.728 L 763.089,403.877 L 760.636,405.46 L 757.803,407.313 L 752.042,411.058 L 743.273,416.732 L 740.104,418.772 L 740.63,406.926 L 734.977,405.621 L 734.768,405.569 L 713.174,400.449 L 713.489,400.354 L 714,400.315 L 714.213,400.234 L 714.471,399.988 L 714.533,399.877 L 714.863,399.626 L 715.623,398.856 L 715.724,398.621 L 715.692,398.572 L 715.559,398.613 L 714.477,399.516 L 714.272,399.494 L 714.193,399.416 L 714.176,399.264 L 714.637,398.624 L 714.856,398.24 L 714.847,398.072 L 714.807,397.916 L 714.751,397.799 L 714.703,397.689 L 714.577,397.556 L 714.482,397.5 L 714.277,397.453 L 714.08,397.354 L 713.96,397.14 L 713.81,396.961 L 713.809,396.881 L 713.888,396.786 L 714.131,396.62 L 714.43,396.516 L 714.516,396.42 L 714.521,395.989 L 714.473,395.822 L 714.457,395.761 L 714.37,395.54 L 714.369,395.447 L 714.563,394.902 L 714.884,394.514 L 714.993,394.223 L 715.29,393.898 L 715.673,393.4 L 715.893,393.216 L 716.136,392.989 L 716.502,392.215 L 716.697,391.906 L 716.709,391.158 L 716.811,391.016 L 717.305,390.589 L 717.478,390.546 L 717.698,390.546 L 717.919,390.577 L 718.069,390.647 L 718.394,391.038 L 718.434,391.158 L 718.727,391.549 L 718.877,391.644 L 719.161,391.688 L 719.184,391.53 L 719.041,391.273 L 718.827,390.991 L 718.779,390.918 L 718.73,390.628 L 718.753,390.503 L 718.824,390.414 L 718.846,390.085 L 718.703,389.99 L 718.552,389.74 L 718.535,389.399 L 718.597,389.171 L 718.699,389.038 L 719.302,388.577 L 719.365,388.562 L 719.507,388.577 L 719.728,388.694 L 720.251,389.275 L 720.464,389.399 L 720.661,389.446 L 720.93,389.695 L 721.27,389.906 L 721.357,389.999 L 721.358,390.275 L 721.32,390.394 L 721.281,390.535 L 721.164,390.718 L 721.165,391.016 L 721.135,391.277 L 721.034,391.404 L 720.908,391.436 L 720.773,391.35 L 720.663,391.344 L 720.545,391.381 L 720.506,391.485 L 720.602,391.603 L 720.602,391.746 L 720.556,391.887 L 720.682,392.01 L 720.691,392.208 L 720.786,392.311 L 720.904,392.311 L 720.968,392.371 L 721.015,392.481 L 721.087,392.529 L 721.213,392.544 L 721.26,392.592 L 721.292,392.662 L 721.285,392.78 L 721.035,393.135 L 721.035,393.262 L 721.115,393.396 L 721.115,393.505 L 720.927,393.752 L 720.913,394.081 L 720.828,394.27 L 720.837,394.459 L 720.986,394.411 L 721.104,394.333 L 721.158,394.254 L 721.188,393.89 L 721.25,393.789 L 721.407,393.654 L 721.406,393.512 L 721.445,393.408 L 721.602,393.221 L 721.593,393.047 L 721.553,392.912 L 721.529,392.717 L 721.543,392.565 L 721.487,392.315 L 721.416,392.221 L 721.084,392.032 L 720.996,391.877 L 721.043,391.798 L 721.177,391.701 L 721.279,391.593 L 721.388,391.379 L 721.432,390.844 L 721.511,390.82 L 721.582,390.905 L 721.647,391.194 L 721.765,391.29 L 721.915,391.258 L 722.59,390.937 L 722.677,390.876 L 722.769,390.467 L 722.768,390.309 L 722.72,390.254 L 722.563,390.277 L 722.5,390.317 L 722.398,390.279 L 722.358,390.159 L 722.38,389.845 L 722.34,389.679 L 721.983,389.265 L 721.959,389.169 L 721.855,388.881 L 721.768,388.738 L 721.696,388.485 L 721.75,388.384 L 721.71,388.218 L 721.457,387.891 L 721.353,387.692 L 721.304,387.253 L 721.262,386.755 L 721.51,386.022 L 721.446,385.773 L 721.335,385.81 L 721.172,386.237 L 721.086,386.363 L 720.945,386.451 L 720.858,386.444 L 720.732,386.358 L 720.629,386.193 L 720.555,386.188 L 720.48,386.026 L 720.414,385.889 L 720.343,385.76 L 720.247,385.619 L 720.191,385.502 L 720.133,385.392 L 720.061,385.36 L 719.935,385.316 L 719.841,385.297 L 719.752,385.292 L 719.674,385.346 L 719.634,385.42 L 719.605,385.497 L 719.567,385.56 L 719.495,385.64 L 719.427,385.692 L 719.337,385.74 L 719.275,385.682 L 719.169,385.653 L 719.025,385.584 L 718.976,385.455 L 719.022,385.38 L 719.035,385.301 L 719.001,385.242 L 719.006,385.15 L 718.96,385.111 L 718.89,385.053 L 718.931,384.985 L 718.94,384.91 L 718.917,384.846 L 718.984,384.821 L 719.028,384.768 L 718.984,384.7 L 718.97,384.619 L 719.026,384.589 L 719.025,384.504 L 718.966,384.473 L 718.992,384.393 L 718.98,384.336 L 718.942,384.271 L 718.933,384.169 L 718.956,384.11 L 720.157,382.41 L 733.505,382.763 M 723.194,390.495 L 723.258,390.62 L 723.575,390.943 L 723.749,391.083 L 723.836,391.239 L 723.923,391.302 L 724.08,391.3 L 724.331,390.97 L 724.409,390.912 L 724.645,390.896 L 724.905,390.95 L 725.094,390.932 L 725.165,390.887 L 725.204,390.814 L 725.172,390.704 L 724.896,390.721 L 724.66,390.669 L 724.479,390.684 L 724.29,390.773 L 724.133,390.781 L 723.872,390.649 L 723.532,390.414 L 723.249,390.416 L 723.194,390.495"/><path id="path15927" d="M 723.194,390.495 L 723.249,390.416 L 723.532,390.414 L 723.872,390.649 L 724.133,390.781 L 724.29,390.773 L 724.479,390.684 L 724.66,390.669 L 724.896,390.721 L 725.172,390.704 L 725.204,390.814 L 725.165,390.887 L 725.094,390.932 L 724.905,390.95 L 724.645,390.896 L 724.409,390.912 L 724.331,390.97 L 724.08,391.3 L 723.923,391.302 L 723.836,391.239 L 723.749,391.083 L 723.575,390.943 L 723.258,390.62 L 723.194,390.495"/></g></svg>