<svg xmlns="http://www.w3.org/2000/svg" role="img" viewBox="857.72 209.09 73.81 79.56"><title>Gardner</title><g id="g14955" fill="#fefee9" fill-opacity="1" fill-rule="evenodd" stroke="#000" stroke-linecap="square" stroke-linejoin="bevel" stroke-opacity="1" stroke-width=".098" transform="translate(-216.714 -21.7) scale(2.264)"><path id="path15183" fill-rule="evenodd" d="M 490.627,102.709 L 490.616,103.507 L 493.209,103.589 L 493.896,104.404 L 498.123,109.534 L 499.223,109.385 L 499.68,110.293 L 499.312,110.481 L 500.066,112.224 L 499.591,112.495 L 500.798,114.844 L 505.358,112.455 L 506.491,114.706 L 499.188,126.752 L 496.086,130.492 L 497.236,131.549 L 493.884,135.04 L 493.111,135.134 L 491.995,136.415 L 487.033,131.797 L 486.591,131.401 L 480.084,125.627 L 483.166,124.045 L 483.125,123.913 L 483.08,123.846 L 483.02,123.763 L 482.965,123.684 L 482.897,123.583 L 482.848,123.5 L 482.803,123.451 L 482.729,123.366 L 482.639,123.314 L 482.535,123.28 L 482.273,123.196 L 482.15,123.152 L 482.081,123.11 L 482.044,123.051 L 482.06,122.974 L 482.108,122.912 L 482.169,122.845 L 482.228,122.8 L 482.286,122.767 L 482.345,122.748 L 482.404,122.728 L 482.479,122.68 L 482.57,122.631 L 482.631,122.557 L 482.671,122.488 L 482.706,122.435 L 482.748,122.363 L 482.814,122.271 L 482.867,122.166 L 482.907,122.07 L 482.923,122 L 482.902,121.945 L 482.826,121.871 L 482.761,121.804 L 482.732,121.751 L 482.707,121.656 L 482.701,121.591 L 482.68,121.499 L 482.639,121.416 L 482.612,121.323 L 482.591,121.266 L 482.573,121.209 L 482.495,121.079 L 482.429,121.037 L 482.354,121.025 L 482.24,121.012 L 482.167,121.018 L 482.074,121.082 L 482.048,121.145 L 482.025,121.208 L 481.998,121.282 L 481.949,121.365 L 481.878,121.423 L 481.815,121.464 L 481.688,121.534 L 481.584,121.581 L 481.483,121.622 L 481.347,121.684 L 481.233,121.74 L 481.154,121.799 L 481.116,121.864 L 481.078,121.93 L 481.048,121.981 L 480.991,122.046 L 480.916,122.079 L 480.812,122.086 L 480.71,122.087 L 480.652,122.097 L 480.56,122.118 L 480.44,122.141 L 480.324,122.144 L 480.249,122.14 L 480.176,122.106 L 480.094,122.046 L 480.014,121.999 L 479.945,121.979 L 479.884,121.97 L 479.799,121.954 L 479.734,121.95 L 479.654,121.92 L 479.579,121.888 L 479.509,121.868 L 479.448,121.862 L 479.389,121.861 L 479.28,121.894 L 479.198,121.913 L 479.103,121.901 L 479.046,121.85 L 479.031,121.775 L 479.037,121.694 L 479.052,121.606 L 479.066,121.496 L 479.106,121.39 L 479.12,121.283 L 479.042,121.275 L 478.953,121.281 L 478.863,121.286 L 478.788,121.272 L 478.713,121.228 L 478.655,121.135 L 478.667,121.023 L 478.687,120.968 L 478.743,120.884 L 478.804,120.802 L 478.838,120.755 L 478.866,120.692 L 478.902,120.619 L 478.922,120.557 L 478.944,120.488 L 478.934,120.431 L 478.864,120.383 L 478.783,120.361 L 478.712,120.319 L 478.656,120.278 L 478.603,120.222 L 478.54,120.155 L 478.468,120.078 L 478.417,120.022 L 478.341,119.955 L 478.264,119.899 L 478.156,119.86 L 478.082,119.834 L 477.983,119.853 L 477.945,119.947 L 477.941,120.018 L 477.935,120.081 L 477.922,120.165 L 477.894,120.234 L 477.851,120.33 L 477.819,120.393 L 477.787,120.461 L 477.725,120.548 L 477.628,120.706 L 477.589,120.761 L 477.522,120.798 L 477.405,120.839 L 477.325,120.839 L 477.301,120.779 L 477.337,120.717 L 477.394,120.666 L 477.452,120.589 L 477.458,120.499 L 477.419,120.436 L 477.362,120.39 L 477.3,120.372 L 477.207,120.376 L 477.101,120.383 L 477.028,120.355 L 476.944,120.342 L 476.871,120.354 L 476.78,120.334 L 476.728,120.257 L 476.681,120.189 L 476.618,120.12 L 476.544,120.077 L 476.45,119.995 L 476.361,119.954 L 476.289,119.91 L 476.283,119.835 L 476.3,119.747 L 476.343,119.68 L 476.401,119.619 L 476.433,119.533 L 476.415,119.452 L 476.384,119.385 L 476.365,119.283 L 476.354,119.214 L 476.354,119.088 L 476.39,119.023 L 476.416,118.933 L 476.444,118.843 L 476.433,118.786 L 476.398,118.722 L 476.355,118.675 L 476.298,118.61 L 476.281,118.515 L 476.332,118.411 L 476.366,118.35 L 476.461,118.243 L 476.548,118.184 L 476.605,118.149 L 476.662,118.128 L 476.724,118.079 L 476.795,118.038 L 476.868,118.009 L 476.925,117.998 L 477.031,117.945 L 477.075,117.874 L 477.135,117.769 L 477.159,117.706 L 477.134,117.607 L 477.087,117.57 L 477.038,117.526 L 477.002,117.467 L 476.981,117.408 L 476.962,117.329 L 476.947,117.256 L 476.945,117.191 L 476.922,117.104 L 476.834,117.07 L 476.721,117.052 L 476.629,117 L 476.563,116.943 L 476.369,116.708 L 476.332,116.643 L 476.325,116.582 L 476.333,116.511 L 476.349,116.428 L 476.385,116.277 L 476.412,116.146 L 476.422,116.031 L 476.435,115.912 L 476.423,115.827 L 476.406,115.717 L 477.858,115.074 L 475.312,112.313 L 478.139,109.907 L 487.186,104.638 L 487.613,104.374 L 490.627,102.709"/></g></svg>