<svg xmlns="http://www.w3.org/2000/svg" role="img" viewBox="509.86 186.23 67.04 72.54"><title>Greenfield</title><g id="g14955" fill="#fefee9" fill-opacity="1" fill-rule="evenodd" stroke="#000" stroke-linecap="square" stroke-linejoin="bevel" stroke-opacity="1" stroke-width=".098" transform="translate(-216.714 -21.7) scale(2.264)"><path id="path15121" fill-rule="evenodd" d="M 349.761,92.6288 L 349.715,92.754 L 349.684,92.8498 L 349.668,92.9224 L 349.66,93.0148 L 349.659,93.0975 L 349.623,93.3941 L 349.626,93.4729 L 349.625,93.5516 L 349.639,93.6502 L 349.646,93.7369 L 349.654,93.8491 L 349.661,93.9298 L 349.674,93.9971 L 349.704,94.0683 L 349.739,94.1239 L 349.785,94.166 L 349.816,94.2156 L 349.87,94.2617 L 349.907,94.3194 L 349.906,94.3922 L 349.711,94.6587 L 349.689,94.7136 L 349.652,94.7839 L 349.621,94.872 L 349.61,94.9505 L 349.611,95.0331 L 349.62,95.1081 L 349.636,95.193 L 349.651,95.2778 L 349.656,95.3407 L 349.649,95.4114 L 349.642,95.498 L 349.664,95.5751 L 349.689,95.6541 L 349.709,95.7233 L 349.724,95.7885 L 349.745,95.8538 L 349.761,95.917 L 349.77,95.9821 L 349.779,96.0589 L 349.78,96.124 L 349.773,96.1907 L 349.743,96.2474 L 349.691,96.3076 L 349.615,96.3439 L 349.531,96.3406 L 349.478,96.3141 L 349.422,96.266 L 349.328,96.2567 L 349.284,96.2974 L 349.24,96.3361 L 349.184,96.3824 L 349.113,96.4365 L 349.035,96.4746 L 348.95,96.5343 L 348.878,96.5746 L 348.797,96.593 L 348.715,96.5938 L 348.634,96.5808 L 348.544,96.5577 L 348.464,96.5467 L 348.387,96.5434 L 348.325,96.5976 L 348.279,96.6737 L 348.247,96.7243 L 348.208,96.7867 L 348.16,96.843 L 348.108,96.9327 L 348.076,96.9873 L 348.013,97.0869 L 347.955,97.1783 L 347.903,97.2504 L 347.849,97.3106 L 347.791,97.3608 L 347.743,97.4053 L 347.665,97.4632 L 347.602,97.5134 L 347.569,97.57 L 347.549,97.6248 L 347.536,97.6856 L 347.535,97.7623 L 347.543,97.8923 L 347.534,97.963 L 347.535,98.0575 L 347.543,98.1462 L 347.554,98.2212 L 347.573,98.2843 L 347.583,98.3475 L 347.576,98.4398 L 347.565,98.5262 L 347.542,98.6459 L 347.541,98.705 L 347.571,98.7959 L 347.601,98.891 L 347.626,98.9601 L 347.656,99.0591 L 347.686,99.1244 L 347.744,99.204 L 347.798,99.2896 L 347.844,99.3649 L 347.908,99.4583 L 347.962,99.5164 L 348.032,99.5784 L 348.092,99.6226 L 348.132,99.7097 L 348.117,99.7766 L 348.083,99.8507 L 348.052,99.9367 L 348.009,100.017 L 347.963,100.122 L 347.91,100.192 L 347.89,100.261 L 347.846,100.321 L 347.793,100.407 L 347.747,100.491 L 347.708,100.553 L 347.678,100.626 L 347.62,100.686 L 347.57,100.724 L 347.487,100.743 L 347.422,100.761 L 347.37,100.794 L 347.32,100.864 L 347.274,100.927 L 347.234,101.003 L 347.181,101.081 L 347.131,101.133 L 347.086,101.17 L 347.042,101.216 L 347.011,101.271 L 347.016,101.344 L 346.984,101.406 L 346.963,101.475 L 346.95,101.549 L 346.986,101.64 L 347.056,101.716 L 347.098,101.796 L 347.101,101.873 L 347.096,101.935 L 347.077,102.026 L 347.052,102.096 L 347.02,102.155 L 346.988,102.211 L 346.943,102.305 L 346.903,102.367 L 346.878,102.432 L 346.858,102.5 L 346.888,102.584 L 346.952,102.622 L 347.009,102.646 L 347.069,102.677 L 347.126,102.688 L 347.226,102.699 L 347.303,102.704 L 347.388,102.703 L 347.472,102.732 L 347.538,102.802 L 347.55,102.879 L 347.539,102.967 L 347.515,103.044 L 347.489,103.113 L 347.279,103.337 L 347.244,103.392 L 347.211,103.468 L 347.209,103.564 L 347.247,103.699 L 347.266,103.807 L 347.282,103.884 L 347.302,104.01 L 347.328,104.109 L 347.326,104.172 L 347.307,104.329 L 347.292,104.433 L 347.281,104.511 L 347.271,104.582 L 347.261,104.652 L 347.284,104.743 L 347.32,104.846 L 347.373,104.919 L 347.416,104.979 L 347.418,105.042 L 347.418,105.124 L 347.389,105.191 L 347.354,105.292 L 347.352,105.387 L 347.344,105.475 L 347.33,105.583 L 347.319,105.64 L 347.311,105.717 L 347.296,105.773 L 347.285,105.84 L 347.27,105.901 L 347.234,105.953 L 347.207,106.016 L 347.152,106.129 L 347.11,106.199 L 347.03,106.267 L 346.972,106.307 L 346.912,106.353 L 346.834,106.417 L 346.78,106.471 L 346.718,106.545 L 346.686,106.606 L 346.635,106.721 L 346.603,106.791 L 346.578,106.856 L 346.54,106.938 L 346.517,107.014 L 346.486,107.084 L 346.479,107.171 L 346.484,107.234 L 346.473,107.315 L 346.437,107.387 L 346.399,107.436 L 346.343,107.486 L 346.283,107.545 L 346.212,107.521 L 346.125,107.522 L 345.974,107.551 L 345.821,107.601 L 345.736,107.643 L 345.624,107.677 L 345.481,107.738 L 345.371,107.786 L 345.272,107.83 L 345.125,107.905 L 345.042,107.955 L 344.913,108.032 L 344.804,108.114 L 344.718,108.201 L 344.541,108.366 L 344.434,108.453 L 344.304,108.595 L 344.185,108.68 L 344.063,108.755 L 343.965,108.817 L 343.867,108.861 L 343.754,108.928 L 343.623,109.011 L 343.553,109.067 L 343.323,109.239 L 343.246,109.313 L 343.072,109.472 L 342.849,109.747 L 342.769,109.862 L 342.637,109.998 L 342.438,110.184 L 342.241,110.374 L 342.032,110.601 L 341.884,110.776 L 341.664,111.043 L 341.545,111.156 L 341.477,111.255 L 341.391,111.362 L 341.335,111.454 L 341.202,111.649 L 341.098,111.797 L 340.988,111.937 L 340.896,112.064 L 340.82,112.161 L 340.756,112.27 L 340.695,112.393 L 340.653,112.479 L 340.58,112.6 L 340.526,112.672 L 340.486,112.717 L 340.393,112.797 L 340.312,112.86 L 340.246,112.909 L 340.149,112.968 L 340.006,113.059 L 339.901,113.111 L 339.796,113.162 L 339.702,113.197 L 339.589,113.221 L 339.437,113.254 L 339.349,113.265 L 339.264,113.289 L 339.179,113.296 L 339.096,113.342 L 339.044,113.381 L 339.006,113.437 L 338.964,113.497 L 338.93,113.57 L 338.887,113.668 L 338.796,113.891 L 338.763,114 L 338.7,114.279 L 338.689,114.389 L 338.648,114.664 L 338.637,114.772 L 338.608,115.007 L 338.607,115.123 L 338.604,115.204 L 338.601,115.265 L 338.604,115.338 L 338.617,115.401 L 338.636,115.48 L 338.695,115.577 L 338.765,115.641 L 338.826,115.675 L 338.908,115.715 L 339.013,115.762 L 339.07,115.785 L 339.15,115.823 L 339.271,115.886 L 339.328,115.947 L 339.354,116.015 L 339.389,116.174 L 339.476,116.795 L 339.492,116.933 L 339.489,117.008 L 339.49,117.096 L 339.487,117.159 L 339.459,117.34 L 339.446,117.461 L 339.438,117.552 L 339.433,117.658 L 339.435,117.782 L 339.438,117.886 L 339.461,117.939 L 339.487,118.021 L 339.489,118.084 L 339.505,118.157 L 339.51,118.241 L 339.539,118.322 L 339.577,118.421 L 339.628,118.526 L 339.663,118.595 L 339.707,118.667 L 339.753,118.777 L 339.789,118.839 L 339.838,118.922 L 339.884,118.964 L 339.929,119.089 L 339.929,119.215 L 339.932,119.284 L 339.927,119.402 L 339.932,119.606 L 339.936,119.748 L 339.946,119.901 L 339.952,120.049 L 339.958,120.136 L 339.945,120.24 L 339.926,120.354 L 339.915,120.464 L 339.84,120.76 L 339.815,120.874 L 339.733,121.089 L 339.703,121.167 L 339.66,121.302 L 339.633,121.371 L 339.585,121.443 L 339.537,121.521 L 339.499,121.574 L 339.41,121.632 L 339.319,121.676 L 339.244,121.688 L 339.157,121.719 L 338.802,121.763 L 338.7,121.778 L 338.4,121.806 L 338.296,121.822 L 338.107,121.853 L 337.943,121.879 L 337.821,121.891 L 337.53,121.907 L 336.829,121.983 L 336.653,122.002 L 336.568,122.019 L 336.484,122.037 L 336.42,122.058 L 336.345,122.089 L 336.274,122.149 L 336.228,122.217 L 336.189,122.285 L 336.149,122.34 L 336.105,122.391 L 336.071,122.455 L 336.042,122.531 L 336.024,122.614 L 336.007,122.712 L 335.972,122.82 L 335.941,122.906 L 335.891,122.992 L 335.855,123.052 L 335.791,123.108 L 335.728,123.139 L 335.678,123.17 L 335.595,123.214 L 335.514,123.241 L 335.39,123.233 L 335.304,123.226 L 335.221,123.196 L 335.165,123.158 L 335.089,123.096 L 335.015,123.044 L 334.966,123.006 L 334.911,122.988 L 334.827,122.949 L 334.759,122.892 L 334.707,122.806 L 334.645,122.723 L 334.577,122.657 L 334.429,122.549 L 334.35,122.473 L 334.181,122.283 L 334.117,122.223 L 334.055,122.118 L 334.017,122.07 L 333.98,121.983 L 333.968,121.895 L 333.941,121.829 L 333.933,121.721 L 333.922,121.646 L 333.889,121.597 L 333.849,121.529 L 333.761,121.442 L 333.69,121.378 L 333.635,121.34 L 333.574,121.316 L 333.51,121.303 L 333.399,121.294 L 333.279,121.298 L 333.201,121.301 L 333.11,121.316 L 332.99,121.332 L 332.915,121.355 L 332.826,121.391 L 332.75,121.463 L 332.671,121.524 L 332.587,121.598 L 332.505,121.676 L 332.394,121.773 L 332.273,121.848 L 332.192,121.888 L 332.089,121.932 L 331.977,121.965 L 331.857,121.958 L 331.699,121.979 L 331.552,121.979 L 331.434,121.964 L 331.355,121.984 L 331.272,121.998 L 331.187,122.019 L 331.075,122.059 L 330.998,122.083 L 330.93,122.108 L 330.859,122.127 L 330.792,122.135 L 330.718,122.097 L 330.654,122.051 L 330.584,122.013 L 330.515,122 L 330.46,121.982 L 330.42,121.922 L 330.377,121.859 L 330.313,121.805 L 330.256,121.781 L 330.172,121.782 L 330.095,121.798 L 330.033,121.831 L 329.972,121.859 L 329.911,121.874 L 329.846,121.867 L 329.736,121.879 L 329.646,121.87 L 329.554,121.849 L 329.47,121.818 L 329.396,121.789 L 329.324,121.76 L 329.215,121.736 L 329.141,121.736 L 329.039,121.723 L 328.975,121.706 L 328.904,121.677 L 328.803,121.607 L 328.763,121.56 L 328.716,121.519 L 328.641,121.497 L 328.578,121.479 L 328.447,121.481 L 328.38,121.487 L 328.311,121.503 L 328.207,121.48 L 328.113,121.447 L 328.055,121.425 L 326.744,118.849 L 324.979,119.068 L 321.622,119.413 L 324.848,102.821 L 326.259,95.8695 L 328.408,95.5422 L 329.414,95.3194 L 338.281,94.1075 L 348.985,92.5205 L 348.849,92.7053 L 349.609,92.6342 L 349.761,92.6288"/></g></svg>