<svg xmlns="http://www.w3.org/2000/svg" role="img" viewBox="1425.98 89.17 59.28 54.28"><title>Groveland</title><g id="g14955" fill="#fefee9" fill-opacity="1" fill-rule="evenodd" stroke="#000" stroke-linecap="square" stroke-linejoin="bevel" stroke-opacity="1" stroke-width=".098" transform="translate(-216.714 -21.7) scale(2.264)"><path id="path14985" fill-rule="evenodd" d="M 735.631,49.5427 L 741.131,53.3917 L 741.895,53.9131 L 749.343,58.4917 L 751.247,60.0121 L 749.8,60.484 L 748.601,60.9273 L 747.939,61.3033 L 747.645,61.4815 L 746.284,61.799 L 745.067,62.6503 L 741.192,64.8973 L 738.683,66.4885 L 738.218,66.849 L 736.159,67.0737 L 734.237,67.8411 L 732.303,67.5455 L 733.099,72.4346 L 726.144,67.5021 L 726.342,66.8982 L 727.679,64.9316 L 728.798,62.7731 L 729.749,61.7779 L 729.783,61.4067 L 729.876,60.3405 L 730.219,60.0441 L 730.238,59.979 L 730.307,59.9548 L 730.403,59.948 L 730.485,59.9021 L 730.502,59.8173 L 730.449,59.7509 L 730.393,59.6743 L 730.381,59.5899 L 730.239,59.016 L 730.507,58.935 L 730.658,58.8866 L 730.78,58.8343 L 730.879,58.7822 L 730.985,58.7086 L 731.094,58.6249 L 731.176,58.5534 L 731.289,58.4599 L 731.403,58.3545 L 731.486,58.2358 L 732.689,56.0162 L 733.388,54.8072 L 733.755,54.2528 L 733.92,54.0388 L 734.151,53.714 L 734.34,53.4209 L 734.487,53.1893 L 734.755,52.7401 L 734.854,52.5462 L 734.915,52.4079 L 734.971,52.2754 L 735.07,52.0323 L 735.153,51.819 L 735.233,51.5523 L 735.335,51.207 L 735.382,51.0137 L 735.42,50.8361 L 735.473,50.5558 L 735.524,50.2284 L 735.567,49.9129 L 735.631,49.5427"/></g></svg>