<svg xmlns="http://www.w3.org/2000/svg" role="img" viewBox="512.92 363.67 67.29 114.79"><title>Hadley</title><g id="g14955" fill="#fefee9" fill-opacity="1" fill-rule="evenodd" stroke="#000" stroke-linecap="square" stroke-linejoin="bevel" stroke-opacity="1" stroke-width=".098" transform="translate(-216.714 -21.7) scale(2.264)"><path id="path15395" fill-rule="evenodd" d="M 347.901,171.29 L 347.123,180.598 L 351.012,180.163 L 350.193,189.212 L 349.85,192.609 L 349.596,192.642 L 349.492,194.432 L 349.74,194.431 L 348.325,208.278 L 348.673,208.201 L 348.878,208.158 L 349.057,208.108 L 349.688,213.603 L 348.481,213.639 L 347.285,213.076 L 342.074,213.634 L 340.971,213.375 L 339.076,213.827 L 336.184,214.748 L 334.272,216.787 L 332.683,218.777 L 332.56,218.949 L 332.501,218.949 L 330.487,219.907 L 330.331,219.875 L 330.193,219.865 L 330.084,219.83 L 329.962,219.78 L 329.843,219.698 L 329.785,219.658 L 329.716,219.604 L 329.615,219.487 L 329.549,219.411 L 329.474,219.284 L 329.347,219.106 L 329.117,218.73 L 329.098,218.641 L 329.084,218.535 L 329.071,218.416 L 329.056,218.308 L 329.059,218.249 L 329.053,218.163 L 329.075,218.06 L 329.098,217.974 L 329.124,217.912 L 329.147,217.825 L 329.197,217.745 L 329.248,217.667 L 329.455,217.403 L 329.768,217.011 L 329.825,216.925 L 329.853,216.868 L 329.922,216.731 L 329.975,216.627 L 330.049,216.505 L 330.142,216.335 L 330.192,216.259 L 330.271,216.159 L 332.142,213.685 L 332.422,213.346 L 332.587,213.162 L 332.951,212.665 L 333.327,212.154 L 333.408,212.012 L 333.512,211.854 L 333.582,211.717 L 333.865,211.217 L 334.316,210.357 L 334.508,209.914 L 334.856,209.131 L 334.888,209.08 L 334.954,208.981 L 334.99,208.932 L 335.024,208.878 L 335.058,208.813 L 335.126,208.749 L 335.2,208.673 L 335.299,208.604 L 335.358,208.573 L 335.467,208.505 L 335.515,208.469 L 335.572,208.444 L 335.636,208.411 L 335.719,208.377 L 335.798,208.315 L 335.881,208.296 L 335.956,208.254 L 336.037,208.223 L 336.127,208.147 L 336.21,208.089 L 336.317,208.028 L 336.401,207.932 L 336.496,207.859 L 336.564,207.759 L 336.602,207.709 L 336.64,207.66 L 336.677,207.584 L 336.769,207.463 L 336.821,207.395 L 336.857,207.33 L 336.913,207.199 L 336.948,207.103 L 336.96,207.034 L 336.975,206.976 L 336.997,206.911 L 336.992,206.84 L 337.013,206.756 L 337.026,206.697 L 337.036,206.636 L 337.041,206.577 L 337.039,206.518 L 337.023,206.394 L 337.016,206.329 L 336.991,206.272 L 336.903,206.068 L 336.841,205.94 L 336.758,205.831 L 336.698,205.757 L 336.589,205.634 L 336.433,205.471 L 336.361,205.404 L 336.305,205.352 L 336.241,205.302 L 336.164,205.244 L 336.116,205.212 L 336.057,205.178 L 335.998,205.144 L 335.928,205.125 L 335.871,205.103 L 335.779,205.08 L 335.657,205.073 L 335.525,205.056 L 335.389,205.076 L 335.141,205.079 L 335.064,205.082 L 334.944,205.083 L 334.881,205.052 L 334.807,205.034 L 334.618,205.016 L 333.741,204.945 L 333.574,204.912 L 333.112,204.828 L 332.753,204.733 L 332.355,204.626 L 331.134,204.001 L 330.106,203.337 L 328.886,202.384 L 328.688,202.194 L 328.581,202.085 L 328.533,201.993 L 328.483,201.892 L 328.467,201.769 L 328.452,201.645 L 328.438,201.518 L 328.408,201.391 L 328.377,201.271 L 328.327,201.116 L 328.294,200.974 L 328.268,200.908 L 328.228,200.826 L 328.159,200.731 L 328.106,200.646 L 328.049,200.577 L 327.984,200.511 L 327.896,200.439 L 327.825,200.387 L 327.739,200.321 L 327.648,200.264 L 327.577,200.219 L 327.449,200.156 L 327.362,200.116 L 327.282,200.091 L 327.185,200.054 L 327.023,200.016 L 326.792,199.975 L 326.61,199.945 L 326.292,199.88 L 325.977,199.794 L 325.924,199.768 L 325.846,199.745 L 325.741,199.748 L 325.659,199.725 L 325.592,199.718 L 325.494,199.716 L 325.369,199.693 L 325.288,199.668 L 325.138,199.605 L 325.058,199.574 L 324.999,199.55 L 324.909,199.521 L 324.848,199.51 L 324.739,199.489 L 324.509,199.446 L 324.413,199.443 L 324.346,199.438 L 324.285,199.427 L 324.203,199.436 L 324.14,199.441 L 324.045,199.475 L 323.958,199.501 L 323.836,199.527 L 323.759,199.534 L 323.68,199.529 L 323.59,199.52 L 323.537,199.489 L 323.475,199.441 L 323.421,199.366 L 323.369,199.329 L 323.346,199.272 L 323.318,199.179 L 323.305,199.086 L 323.311,198.968 L 323.321,198.839 L 323.32,198.772 L 323.339,198.688 L 323.356,198.621 L 323.369,198.535 L 323.396,198.451 L 323.419,198.368 L 323.449,198.286 L 323.49,198.188 L 323.535,198.098 L 323.597,197.993 L 323.668,197.888 L 323.734,197.773 L 323.826,197.678 L 323.928,197.587 L 324.009,197.527 L 324.067,197.469 L 324.169,197.392 L 324.272,197.319 L 324.352,197.259 L 324.415,197.224 L 324.476,197.194 L 324.581,197.168 L 324.652,197.136 L 324.765,197.115 L 324.873,197.099 L 324.936,197.094 L 325.017,197.086 L 325.123,197.071 L 325.216,197.057 L 325.32,197.041 L 325.44,197.027 L 325.537,197.016 L 325.62,197.002 L 325.724,196.99 L 325.86,196.974 L 325.947,196.967 L 326.051,196.953 L 326.114,196.948 L 326.212,196.95 L 326.293,196.955 L 326.366,196.964 L 326.452,196.969 L 326.527,196.968 L 326.609,196.973 L 326.696,196.978 L 326.778,196.989 L 326.866,197.016 L 326.998,197.042 L 327.066,197.053 L 328.631,197.379 L 328.984,197.425 L 329.32,197.48 L 329.726,197.531 L 331.442,197.75 L 331.808,197.791 L 331.985,197.795 L 332.28,197.805 L 332.534,197.798 L 332.67,197.787 L 332.863,197.77 L 332.946,197.763 L 333.021,197.76 L 333.108,197.743 L 333.216,197.73 L 333.301,197.72 L 333.392,197.709 L 333.484,197.688 L 333.556,197.667 L 333.727,197.638 L 333.814,197.617 L 333.94,197.587 L 334.013,197.564 L 334.096,197.548 L 334.203,197.519 L 334.272,197.5 L 334.357,197.487 L 334.495,197.442 L 334.551,197.425 L 334.63,197.4 L 334.726,197.37 L 334.8,197.337 L 334.928,197.277 L 335.049,197.214 L 335.156,197.14 L 335.232,197.092 L 335.305,197.04 L 335.377,196.983 L 335.456,196.918 L 335.53,196.857 L 335.59,196.785 L 335.665,196.715 L 335.727,196.639 L 335.797,196.55 L 335.859,196.485 L 335.921,196.388 L 335.979,196.314 L 336.039,196.212 L 336.107,196.116 L 336.144,196.036 L 336.196,195.899 L 336.248,195.691 L 336.321,195.521 L 336.371,195.419 L 336.451,195.145 L 336.511,194.87 L 336.543,194.69 L 336.559,194.495 L 336.574,194.269 L 336.569,193.97 L 336.563,193.819 L 336.541,193.71 L 336.496,193.334 L 336.448,193.087 L 336.369,192.701 L 336.339,192.598 L 336.307,192.511 L 336.255,192.373 L 336.198,192.241 L 336.107,191.998 L 335.983,191.648 L 335.866,191.299 L 335.748,190.93 L 335.652,190.563 L 335.593,190.178 L 335.558,189.938 L 335.539,189.792 L 335.531,189.676 L 335.527,189.534 L 335.515,189.399 L 335.519,189.277 L 335.529,189.117 L 335.539,189.032 L 335.618,188.487 L 335.638,188.36 L 335.673,188.217 L 335.719,188.056 L 335.797,187.748 L 335.874,187.49 L 335.918,187.315 L 335.952,187.19 L 335.97,187.064 L 335.985,186.998 L 336.027,186.821 L 336.121,186.457 L 336.233,186.106 L 336.347,185.74 L 336.568,185.128 L 336.613,185.028 L 336.631,184.901 L 336.667,184.809 L 336.745,184.649 L 336.785,184.604 L 336.809,184.547 L 336.86,184.481 L 336.912,184.401 L 336.963,184.298 L 336.988,184.18 L 337.013,184.114 L 337.018,184.053 L 337.021,183.972 L 337.003,183.87 L 336.987,183.803 L 336.968,183.733 L 336.948,183.676 L 336.913,183.603 L 336.875,183.539 L 336.847,183.464 L 336.821,183.371 L 336.023,181.934 L 335.966,181.725 L 335.971,181.648 L 335.986,181.583 L 336.021,181.487 L 336.053,181.435 L 336.092,181.357 L 336.163,181.23 L 336.193,181.167 L 336.24,181.099 L 336.286,181.033 L 336.332,180.973 L 336.368,180.926 L 336.412,180.887 L 336.503,180.857 L 336.62,180.83 L 336.679,180.809 L 336.761,180.812 L 336.828,180.799 L 336.921,180.791 L 337.035,180.787 L 337.104,180.792 L 337.172,180.793 L 337.241,180.802 L 337.368,180.824 L 337.435,180.827 L 337.533,180.879 L 337.603,180.9 L 337.675,180.927 L 337.796,180.994 L 337.889,181.052 L 337.965,181.101 L 338.029,181.174 L 338.093,181.235 L 338.209,181.319 L 338.297,181.374 L 338.355,181.394 L 338.453,181.423 L 338.514,181.434 L 338.588,181.445 L 338.657,181.436 L 338.791,181.417 L 338.894,181.401 L 338.979,181.37 L 339.044,181.35 L 339.097,181.321 L 339.147,181.289 L 339.219,181.237 L 339.282,181.183 L 339.33,181.148 L 339.412,181.074 L 339.484,181.013 L 339.544,180.915 L 339.587,180.855 L 339.621,180.79 L 339.663,180.73 L 339.708,180.646 L 339.751,180.564 L 339.794,180.435 L 339.827,180.314 L 339.837,180.208 L 339.862,180.127 L 339.871,180.039 L 339.871,179.96 L 339.999,178.762 L 339.993,178.61 L 339.988,178.477 L 339.985,178.38 L 339.956,178.13 L 339.935,177.999 L 339.888,177.733 L 339.87,177.631 L 339.804,177.323 L 339.619,176.627 L 339.595,176.542 L 339.426,176.175 L 339.313,175.938 L 339.234,175.71 L 339.185,175.483 L 339.071,175.1 L 338.459,172.723 L 338.885,172.669 L 347.901,171.29"/></g></svg>