<svg xmlns="http://www.w3.org/2000/svg" role="img" viewBox="1513.24 624.61 49.15 65.65"><title>Hanson</title><g id="g14955" fill="#fefee9" fill-opacity="1" fill-rule="evenodd" stroke="#000" stroke-linecap="square" stroke-linejoin="bevel" stroke-opacity="1" stroke-width=".098" transform="translate(-216.714 -21.7) scale(2.264)"><path id="path15779" fill-rule="evenodd" d="M 782.671,286.655 L 782.57,286.741 L 782.494,286.844 L 782.433,286.881 L 782.351,286.926 L 782.274,287.004 L 782.199,287.088 L 782.121,287.15 L 782.061,287.206 L 782.023,287.256 L 781.986,287.31 L 781.954,287.379 L 781.936,287.458 L 781.929,287.535 L 781.944,287.606 L 781.973,287.678 L 782.022,287.766 L 782.06,287.824 L 782.107,287.908 L 782.169,288 L 782.214,288.058 L 782.238,288.113 L 782.271,288.169 L 782.317,288.244 L 782.366,288.331 L 782.414,288.395 L 782.452,288.444 L 782.527,288.522 L 782.582,288.562 L 782.652,288.614 L 782.698,288.666 L 782.731,288.729 L 782.721,288.843 L 782.455,292.735 L 783.002,294.627 L 783.942,297.291 L 783.481,298.22 L 783.247,298.497 L 783.738,298.879 L 784.317,298.919 L 781.99,300.366 L 782.102,300.586 L 782.125,300.67 L 782.112,300.751 L 782.088,300.824 L 782.048,300.9 L 781.992,300.97 L 781.924,301.044 L 781.874,301.103 L 781.836,301.161 L 781.785,301.26 L 781.754,301.316 L 781.712,301.423 L 781.7,301.48 L 781.676,301.585 L 781.685,301.646 L 781.682,301.748 L 781.651,301.851 L 781.662,301.91 L 781.711,302.017 L 781.686,302.083 L 781.654,302.191 L 781.664,302.278 L 781.694,302.336 L 781.683,302.482 L 781.691,302.618 L 781.718,302.716 L 781.773,302.795 L 781.847,302.865 L 781.902,302.988 L 781.906,303.126 L 781.957,303.229 L 782.007,303.284 L 782.053,303.334 L 782.031,303.429 L 783.271,303.84 L 782.942,304.364 L 782.277,304.623 L 785.251,312.558 L 781.226,313.89 L 778.437,313.754 L 777.34,312.076 L 774.733,311.482 L 769.604,310.303 L 769.045,312.734 L 769.068,311.399 L 768.816,311.082 L 768.875,310.831 L 768.269,310.718 L 765.996,298.187 L 764.722,290.377 L 767.404,289.856 L 771.249,289.112 L 774.487,288.485 L 774.57,288.82 L 774.663,288.865 L 774.758,288.928 L 774.88,288.987 L 775.064,289.042 L 775.361,289.145 L 775.55,289.215 L 775.725,289.313 L 775.803,289.275 L 775.843,289.216 L 775.889,289.169 L 775.942,289.134 L 776.015,289.099 L 776.093,289.089 L 776.187,289.087 L 776.277,289.079 L 776.315,289.013 L 776.375,288.856 L 776.47,288.684 L 776.605,288.553 L 776.672,288.471 L 776.755,288.261 L 776.814,288.171 L 776.916,288.143 L 776.977,288.146 L 777.076,288.186 L 777.132,288.257 L 777.141,288.34 L 777.176,288.418 L 777.233,288.462 L 777.299,288.506 L 777.366,288.523 L 777.474,288.528 L 777.567,288.541 L 777.64,288.569 L 777.688,288.606 L 777.72,288.656 L 777.733,288.717 L 777.806,288.726 L 777.834,288.641 L 777.886,288.598 L 777.925,288.545 L 777.941,288.432 L 778.014,288.382 L 778.073,288.355 L 778.134,288.329 L 778.21,288.302 L 778.278,288.258 L 778.369,288.164 L 778.491,288.016 L 778.611,287.906 L 778.668,287.884 L 778.791,287.843 L 778.908,287.809 L 779.003,287.784 L 779.071,287.75 L 779.17,287.679 L 779.306,287.567 L 779.382,287.503 L 779.438,287.425 L 779.509,287.328 L 779.541,287.263 L 779.558,287.18 L 779.544,287.085 L 779.526,287.031 L 779.501,286.978 L 779.505,286.856 L 779.569,286.768 L 779.607,286.719 L 779.64,286.665 L 779.686,286.609 L 779.74,286.565 L 779.828,286.487 L 779.886,286.417 L 779.978,286.421 L 780.073,286.479 L 780.139,286.496 L 780.223,286.5 L 780.318,286.499 L 780.397,286.55 L 780.528,286.601 L 780.632,286.584 L 780.696,286.557 L 780.743,286.521 L 780.789,286.46 L 780.863,286.397 L 780.946,286.337 L 781.069,286.28 L 781.171,286.227 L 781.266,286.18 L 781.389,286.125 L 781.484,286.157 L 781.565,286.197 L 781.646,286.237 L 781.759,286.272 L 781.878,286.311 L 781.969,286.357 L 782.129,286.421 L 782.211,286.524 L 782.275,286.573 L 782.348,286.603 L 782.443,286.625 L 782.55,286.649 L 782.671,286.655"/></g></svg>