<svg xmlns="http://www.w3.org/2000/svg" role="img" viewBox="1969.71 904.21 86.45 62.08"><title>Harwich</title><g id="g14955" fill="#fefee9" fill-opacity="1" fill-rule="evenodd" stroke="#000" stroke-linecap="square" stroke-linejoin="bevel" stroke-opacity="1" stroke-width=".098" transform="translate(-216.714 -21.7) scale(2.264)"><path id="path15965" fill-rule="evenodd" d="M 1003.1,409.798 L 1003.17,409.912 L 1003.12,410.032 L 1003.11,410.309 L 1002.99,410.492 L 1002.84,410.841 L 1002.72,411.095 L 1002.59,411.623 L 1002.45,412.006 L 1002.42,412.484 L 1002.44,412.698 L 1002.21,413.325 L 1002.18,413.521 L 1002.11,413.61 L 1002.05,413.627 L 1002.01,413.579 L 1001.94,413.268 L 1001.94,413.156 L 1001.98,413.03 L 1002.12,412.847 L 1002.2,412.665 L 1002.18,412.522 L 1002.06,412.368 L 1001.86,412.361 L 1001.76,412.442 L 1001.67,412.577 L 1001.43,412.827 L 1001.4,412.914 L 1001.52,413.038 L 1001.77,413.167 L 1001.82,413.513 L 1002.07,414.265 L 1002,414.674 L 1002.06,414.998 L 1002.19,415.127 L 1002.31,415.213 L 1002.39,415.338 L 1002.51,415.422 L 1002.59,415.429 L 1002.6,415.28 L 1002.81,415.036 L 1002.66,415.578 L 1002.59,415.667 L 1002.49,415.721 L 1002.43,415.753 L 1002.36,415.768 L 1002.29,415.78 L 1002.16,415.849 L 1002.07,415.909 L 1002,415.958 L 1001.88,416.05 L 1001.79,416.127 L 1001.74,416.192 L 1001.69,416.262 L 1001.64,416.336 L 1001.58,416.401 L 1001.52,416.452 L 1001.47,416.484 L 1001.4,416.521 L 1001.35,416.613 L 1001.2,416.801 L 1001.09,416.892 L 1000.98,416.981 L 1000.88,417.061 L 1000.78,417.144 L 1000.69,417.232 L 1000.54,417.414 L 1000.45,417.524 L 1000.28,417.706 L 1000.18,417.846 L 1000.11,417.938 L 1000.06,417.994 L 999.994,418.068 L 999.856,418.148 L 999.799,418.18 L 999.749,418.228 L 999.663,418.35 L 999.609,418.442 L 999.561,418.5 L 999.513,418.554 L 999.461,418.614 L 999.37,418.682 L 999.268,418.733 L 999.165,418.791 L 999.034,418.83 L 998.948,418.856 L 998.769,418.96 L 998.566,419.089 L 998.444,419.194 L 998.242,419.408 L 997.701,419.875 L 997.623,419.818 L 997.5,419.734 L 997.416,419.684 L 997.282,419.683 L 997.165,419.711 L 996.946,419.797 L 996.473,419.993 L 996.389,420.013 L 996.32,420.018 L 995.861,419.895 L 995.408,419.803 L 995.096,419.744 L 994.98,419.746 L 994.864,419.772 L 994.389,419.915 L 994.264,419.955 L 994.148,419.981 L 994.067,419.984 L 993.033,427.443 L 992.667,428.066 L 992.563,428.117 L 992.477,428.134 L 992.409,428.199 L 992.384,428.292 L 992.33,428.387 L 992.271,428.461 L 992.26,428.544 L 992.235,428.645 L 992.197,428.712 L 992.123,428.806 L 992.071,428.921 L 992.051,429.018 L 992.032,429.096 L 992.004,429.147 L 991.954,429.217 L 991.875,429.307 L 991.827,429.387 L 991.815,429.476 L 991.789,429.569 L 991.755,429.628 L 991.692,429.736 L 991.599,429.84 L 991.556,429.914 L 991.522,429.991 L 991.507,430.062 L 991.485,430.149 L 991.528,430.217 L 991.549,430.292 L 991.519,430.363 L 991.568,430.47 L 991.611,430.546 L 991.616,430.853 L 991.675,431.155 L 991.63,431.268 L 990.697,431.24 L 990.438,431.316 L 990.147,431.327 L 989.967,431.379 L 989.647,431.54 L 989.46,431.679 L 989.288,431.737 L 988.683,431.847 L 988.597,431.912 L 987.908,432.096 L 987.003,432.145 L 986.878,432.21 L 986.405,432.187 L 986.106,432.224 L 985.744,432.237 L 985.673,432.205 L 985.671,432.081 L 985.777,431.842 L 986.086,431.467 L 986.303,431.266 L 986.323,431.029 L 986.398,430.832 L 986.396,430.705 L 985.892,430.707 L 985.877,431.235 L 985.786,431.473 L 985.701,431.528 L 985.444,432.156 L 985.359,432.252 L 985.195,432.34 L 984.678,432.507 L 984.517,432.313 L 984.419,432.133 L 984.411,432.071 L 984.457,432.021 L 984.715,431.908 L 984.784,431.803 L 984.788,431.592 L 984.707,431.458 L 984.587,431.334 L 984.436,431.267 L 984.287,431.269 L 984.123,431.373 L 984.069,431.446 L 984.065,431.644 L 984.106,431.767 L 984.235,431.94 L 984.261,432.064 L 984.416,432.363 L 984.459,432.588 L 984.491,432.643 L 984.546,433.107 L 984.539,433.178 L 984.413,433.172 L 983.921,432.929 L 983.208,432.696 L 982.671,432.587 L 982.065,432.63 L 981.702,432.572 L 980.868,432.643 L 980.295,432.738 L 979.132,432.877 L 979.062,432.91 L 978.504,432.982 L 978.524,432.761 L 978.57,432.695 L 978.584,432.632 L 978.708,432.489 L 978.705,432.291 L 978.67,432.118 L 978.597,432.002 L 978.585,431.751 L 978.552,431.625 L 978.343,431.387 L 978.272,431.354 L 978.202,431.403 L 977.977,431.642 L 977.995,431.753 L 978.099,431.837 L 978.1,431.939 L 977.866,432.055 L 977.734,432.152 L 977.577,432.169 L 977.546,432.225 L 977.54,432.319 L 977.409,432.487 L 977.348,432.622 L 977.341,432.703 L 977.476,432.724 L 977.59,432.491 L 977.994,432.188 L 978.096,432.154 L 978.159,432.167 L 978.279,432.244 L 978.476,432.288 L 978.54,432.336 L 978.542,432.454 L 978.388,432.66 L 978.336,432.826 L 978.251,433.433 L 977.242,433.363 L 976.912,433.385 L 975.007,433.906 L 974.694,434.021 L 974.64,434.084 L 974.357,434.13 L 974.06,434.259 L 973.667,434.314 L 973.503,434.387 L 973.324,434.532 L 973.313,434.802 L 972.934,434.736 L 972.549,434.79 L 971.891,435.005 L 971.781,434.999 L 971.778,434.85 L 971.86,434.565 L 971.922,434.517 L 972.196,434.425 L 972.321,434.307 L 972.41,434.004 L 972.404,433.666 L 972.603,433.3 L 972.709,433.064 L 972.705,432.857 L 972.658,432.821 L 972.557,432.932 L 972.521,433.129 L 972.229,433.534 L 972.202,433.827 L 972.136,434.095 L 971.997,434.264 L 971.787,434.419 L 971.68,434.617 L 971.613,434.836 L 971.596,435.271 L 971.516,435.642 L 971.145,435.616 L 971.01,435.616 L 970.92,435.208 L 969.143,428.239 L 966.557,418.273 L 968.968,417.376 L 976.238,414.714 L 976.699,411.57 L 978.61,411.231 L 978.67,411.163 L 978.731,411.144 L 978.792,411.137 L 979.067,411.206 L 979.276,411.272 L 979.506,411.348 L 979.856,411.516 L 980.035,411.613 L 980.224,411.728 L 980.413,411.858 L 980.796,412.122 L 981.518,412.617 L 981.645,412.565 L 981.864,412.46 L 982.207,412.318 L 982.346,412.266 L 982.515,412.212 L 982.724,412.157 L 982.973,412.117 L 983.313,412.084 L 983.478,412.074 L 983.75,412.065 L 984.024,412.073 L 984.258,412.088 L 984.503,412.115 L 984.633,412.14 L 984.787,412.173 L 985.031,412.231 L 985.234,412.278 L 985.756,412.396 L 986.284,412.516 L 986.696,412.568 L 987.075,412.604 L 987.372,412.608 L 987.829,412.579 L 987.939,412.571 L 988.052,412.542 L 988.144,412.516 L 988.263,412.457 L 989.682,411.889 L 989.832,411.801 L 989.816,411.676 L 989.797,411.524 L 989.788,411.345 L 989.853,411.35 L 989.91,411.363 L 990.015,411.377 L 990.102,411.387 L 990.222,411.39 L 990.336,411.376 L 990.441,411.341 L 990.5,411.304 L 990.576,411.252 L 990.645,411.193 L 990.796,411.011 L 990.897,410.891 L 991.045,410.753 L 991.109,410.742 L 991.19,410.748 L 991.311,410.763 L 991.473,410.8 L 991.582,410.831 L 991.691,410.876 L 991.858,410.967 L 991.939,411.017 L 992.039,411.088 L 992.157,411.206 L 992.279,411.373 L 992.35,411.492 L 992.404,411.552 L 992.516,411.664 L 992.716,411.737 L 992.78,411.743 L 992.85,411.738 L 992.917,411.725 L 992.972,411.704 L 993.071,411.659 L 993.103,411.58 L 993.161,411.523 L 993.22,411.508 L 993.301,411.507 L 993.358,411.518 L 993.419,411.538 L 993.493,411.552 L 993.587,411.551 L 993.701,411.519 L 993.78,411.456 L 994.034,411.213 L 994.114,411.096 L 994.097,411.014 L 994.042,410.916 L 994.005,410.83 L 993.992,410.771 L 994.018,410.694 L 994.066,410.644 L 994.148,410.619 L 994.231,410.605 L 994.305,410.571 L 994.371,410.518 L 994.417,410.468 L 994.522,410.387 L 994.581,410.376 L 994.65,410.371 L 1001.08,409.951 L 1003.1,409.798"/></g></svg>