<svg xmlns="http://www.w3.org/2000/svg" role="img" viewBox="495.10 367.60 59.17 59.67"><title>Hatfield</title><g id="g14955" fill="#fefee9" fill-opacity="1" fill-rule="evenodd" stroke="#000" stroke-linecap="square" stroke-linejoin="bevel" stroke-opacity="1" stroke-width=".098" transform="translate(-216.714 -21.7) scale(2.264)"><path id="path15397" fill-rule="evenodd" d="M 338.459,172.723 L 339.071,175.1 L 339.185,175.483 L 339.234,175.71 L 339.313,175.938 L 339.426,176.175 L 339.595,176.542 L 339.619,176.627 L 339.804,177.323 L 339.87,177.631 L 339.888,177.733 L 339.935,177.999 L 339.956,178.13 L 339.985,178.38 L 339.988,178.477 L 339.993,178.61 L 339.999,178.762 L 339.871,179.96 L 339.871,180.039 L 339.862,180.127 L 339.837,180.208 L 339.827,180.314 L 339.794,180.435 L 339.751,180.564 L 339.708,180.646 L 339.663,180.73 L 339.621,180.79 L 339.587,180.855 L 339.544,180.915 L 339.484,181.013 L 339.412,181.074 L 339.33,181.148 L 339.282,181.183 L 339.219,181.237 L 339.147,181.289 L 339.097,181.321 L 339.044,181.35 L 338.979,181.37 L 338.894,181.401 L 338.791,181.417 L 338.657,181.436 L 338.588,181.445 L 338.514,181.434 L 338.453,181.423 L 338.355,181.394 L 338.297,181.374 L 338.209,181.319 L 338.093,181.235 L 338.029,181.174 L 337.965,181.101 L 337.889,181.052 L 337.796,180.994 L 337.675,180.927 L 337.603,180.9 L 337.533,180.879 L 337.435,180.827 L 337.368,180.824 L 337.241,180.802 L 337.172,180.793 L 337.104,180.792 L 337.035,180.787 L 336.921,180.791 L 336.828,180.799 L 336.761,180.812 L 336.679,180.809 L 336.62,180.83 L 336.503,180.857 L 336.412,180.887 L 336.368,180.926 L 336.332,180.973 L 336.286,181.033 L 336.24,181.099 L 336.193,181.167 L 336.163,181.23 L 336.092,181.357 L 336.053,181.435 L 336.021,181.487 L 335.986,181.583 L 335.971,181.648 L 335.966,181.725 L 336.023,181.934 L 336.821,183.371 L 336.847,183.464 L 336.875,183.539 L 336.913,183.603 L 336.948,183.676 L 336.968,183.733 L 336.987,183.803 L 337.003,183.87 L 337.021,183.972 L 337.018,184.053 L 337.013,184.114 L 336.988,184.18 L 336.963,184.298 L 336.912,184.401 L 336.86,184.481 L 336.809,184.547 L 336.785,184.604 L 336.745,184.649 L 336.667,184.809 L 336.631,184.901 L 336.613,185.028 L 336.568,185.128 L 336.347,185.74 L 336.233,186.106 L 336.121,186.457 L 336.027,186.821 L 335.985,186.998 L 335.97,187.064 L 335.952,187.19 L 335.918,187.315 L 335.874,187.49 L 335.797,187.748 L 335.719,188.056 L 335.673,188.217 L 335.638,188.36 L 335.618,188.487 L 335.539,189.032 L 335.529,189.117 L 335.519,189.277 L 335.515,189.399 L 335.527,189.534 L 335.531,189.676 L 335.539,189.792 L 335.558,189.938 L 335.593,190.178 L 335.652,190.563 L 335.748,190.93 L 335.866,191.299 L 335.983,191.648 L 336.107,191.998 L 336.198,192.241 L 336.255,192.373 L 336.307,192.511 L 336.339,192.598 L 336.369,192.701 L 336.448,193.087 L 336.496,193.334 L 336.541,193.71 L 336.563,193.819 L 336.569,193.97 L 336.574,194.269 L 336.559,194.495 L 336.543,194.69 L 336.511,194.87 L 336.451,195.145 L 336.371,195.419 L 336.321,195.521 L 336.248,195.691 L 336.196,195.899 L 336.144,196.036 L 336.107,196.116 L 336.039,196.212 L 335.979,196.314 L 335.921,196.388 L 335.859,196.485 L 335.797,196.55 L 335.727,196.639 L 335.665,196.715 L 335.59,196.785 L 335.53,196.857 L 335.456,196.918 L 335.377,196.983 L 335.305,197.04 L 335.232,197.092 L 335.156,197.14 L 335.049,197.214 L 334.928,197.277 L 334.8,197.337 L 334.726,197.37 L 334.63,197.4 L 334.551,197.425 L 334.495,197.442 L 334.357,197.487 L 334.272,197.5 L 334.203,197.519 L 334.096,197.548 L 334.013,197.564 L 333.94,197.587 L 333.814,197.617 L 333.727,197.638 L 333.556,197.667 L 333.484,197.688 L 333.392,197.709 L 333.301,197.72 L 333.216,197.73 L 333.108,197.743 L 333.021,197.76 L 332.946,197.763 L 332.863,197.77 L 332.67,197.787 L 332.534,197.798 L 332.28,197.805 L 331.985,197.795 L 331.808,197.791 L 331.442,197.75 L 329.726,197.531 L 329.32,197.48 L 328.984,197.425 L 328.631,197.379 L 327.066,197.053 L 326.998,197.042 L 326.866,197.016 L 326.778,196.989 L 326.696,196.978 L 326.609,196.973 L 326.527,196.968 L 326.452,196.969 L 326.366,196.964 L 326.293,196.955 L 326.212,196.95 L 326.114,196.948 L 326.051,196.953 L 325.947,196.967 L 325.86,196.974 L 325.724,196.99 L 325.62,197.002 L 325.537,197.016 L 325.44,197.027 L 325.32,197.041 L 325.216,197.057 L 325.123,197.071 L 325.017,197.086 L 324.936,197.094 L 324.873,197.099 L 324.765,197.115 L 324.652,197.136 L 324.091,195.514 L 324.379,195.465 L 323.168,188.883 L 314.968,190.027 L 315.073,188.755 L 315.958,176.882 L 326.169,175.407 L 326.172,175.232 L 327.34,175.171 L 327.938,175.168 L 337.299,172.51 L 338.459,172.723"/></g></svg>