<svg xmlns="http://www.w3.org/2000/svg" role="img" viewBox="1500.93 485.80 64.77 94.77"><title>Hingham</title><g id="g14955" fill="#fefee9" fill-opacity="1" fill-rule="evenodd" stroke="#000" stroke-linecap="square" stroke-linejoin="bevel" stroke-opacity="1" stroke-width=".098" transform="translate(-216.714 -21.7) scale(2.264)"><path id="path15579" d="M 781.785,229.612 L 781.724,229.89 L 781.676,230.023 L 781.557,230.384 L 781.425,230.804 L 781.271,231.197 L 781.221,231.359 L 781.181,231.425 L 781.158,231.559 L 781.143,231.688 L 781.117,231.781 L 780.997,231.974 L 780.913,232.099 L 780.802,232.196 L 780.742,232.368 L 780.718,232.457 L 780.718,232.569 L 780.754,232.694 L 780.82,232.857 L 780.876,233.011 L 780.88,233.198 L 780.886,233.475 L 780.865,233.735 L 780.858,233.887 L 780.735,234.021 L 780.629,234.144 L 782.678,235.075 L 782.705,235.501 L 779.58,236.826 L 782.906,245.908 L 786.461,250.109 L 783.428,252.219 L 780.028,253.707 L 775.338,256.54 L 774.334,257.301 L 770.317,260.279 L 769.485,260.896 L 761.489,265.2 L 763.877,241.866 L 763.762,241.785 L 763.671,241.718 L 763.546,241.665 L 763.469,241.676 L 763.41,241.661 L 763.335,241.664 L 763.284,241.694 L 763.225,241.703 L 763.144,241.723 L 763.095,241.776 L 762.983,241.742 L 762.932,241.683 L 762.944,241.622 L 762.912,241.535 L 762.826,241.525 L 762.767,241.568 L 762.716,241.619 L 762.635,241.658 L 762.51,241.616 L 762.418,241.621 L 762.277,241.672 L 762.001,241.689 L 761.82,241.791 L 761.64,241.793 L 761.617,241.728 L 761.586,241.634 L 761.559,241.556 L 761.572,241.381 L 761.581,241.267 L 761.599,241.185 L 761.62,241.086 L 761.6,240.981 L 761.659,240.902 L 761.72,240.885 L 761.854,240.847 L 761.908,240.767 L 761.944,240.659 L 761.993,240.514 L 762.095,240.365 L 762.061,240.112 L 761.926,239.886 L 761.979,239.587 L 761.946,239.349 L 761.927,238.884 L 761.94,238.468 L 762.01,238.364 L 762.112,238.287 L 762.387,238.204 L 762.749,238.147 L 762.764,238.06 L 762.661,237.951 L 762.456,237.842 L 762.463,237.684 L 762.556,237.557 L 762.76,237.415 L 762.861,237.272 L 762.555,237.346 L 762.263,237.206 L 762.121,237.223 L 761.964,237.373 L 761.856,237.571 L 761.761,237.633 L 761.604,237.635 L 761.281,237.582 L 761.123,237.512 L 760.941,237.381 L 760.853,237.223 L 760.91,236.247 L 760.899,235.838 L 760.835,235.728 L 760.678,235.761 L 760.569,235.894 L 760.498,235.949 L 760.107,235.96 L 760.06,235.894 L 759.955,235.761 L 759.813,235.481 L 759.723,235.445 L 759.69,235.238 L 759.675,234.71 L 759.828,234.632 L 759.812,234.536 L 759.748,234.458 L 759.679,234.357 L 759.771,234.271 L 759.896,234.159 L 759.935,234.071 L 759.942,233.915 L 759.615,233.362 L 759.559,233.206 L 759.565,233.007 L 759.675,232.92 L 760.037,232.894 L 760.131,232.863 L 760.202,232.783 L 760.296,232.759 L 760.494,232.986 L 760.55,233.158 L 760.583,233.361 L 760.6,233.508 L 760.468,233.729 L 760.461,233.934 L 760.517,234.075 L 760.667,234.037 L 760.745,233.941 L 760.768,233.839 L 760.892,233.639 L 760.993,233.352 L 761.031,233.178 L 761.102,233.163 L 761.122,233.327 L 761.187,233.36 L 761.253,233.327 L 761.252,233.168 L 761.171,232.981 L 761.194,232.853 L 761.351,232.681 L 762.026,232.385 L 762.718,232.197 L 763.182,232.165 L 763.3,232.187 L 763.45,232.17 L 763.85,231.891 L 764.012,231.489 L 764.057,231.088 L 764.127,230.993 L 764.134,230.859 L 764.039,230.756 L 763.842,230.797 L 763.579,230.824 L 763.801,230.568 L 763.799,230.292 L 763.933,230.158 L 763.915,229.852 L 763.866,229.623 L 763.897,229.53 L 764.007,229.427 L 764.211,229.393 L 764.715,229.381 L 765.196,229.457 L 765.431,229.273 L 765.713,229.116 L 765.98,229.049 L 766.398,229.025 L 766.658,229.091 L 767.171,229.318 L 767.432,229.373 L 767.762,229.369 L 767.857,229.338 L 768.186,229.121 L 768.531,228.946 L 768.775,228.92 L 769.107,229.022 L 769.351,229.003 L 769.359,229.074 L 769.226,229.202 L 769.078,229.516 L 768.687,229.946 L 768.508,230.262 L 768.416,230.569 L 768.67,230.884 L 768.679,231.032 L 768.506,231.096 L 768.285,230.972 L 768.095,230.808 L 768.008,230.801 L 768.009,230.934 L 768.104,231.027 L 768.113,231.161 L 768.333,231.154 L 768.396,231.208 L 768.445,231.38 L 768.706,231.608 L 768.848,231.669 L 769.086,231.833 L 769.57,232.343 L 769.618,232.577 L 769.714,232.717 L 769.888,232.892 L 769.818,232.987 L 769.81,233.071 L 770.001,233.298 L 770.057,233.382 L 770.318,233.632 L 770.658,233.842 L 770.778,234.062 L 770.811,234.321 L 770.859,234.431 L 770.978,234.549 L 771.136,234.64 L 771.443,234.631 L 771.428,234.821 L 771.515,234.821 L 771.538,234.74 L 771.601,234.726 L 771.656,234.78 L 771.845,234.684 L 771.884,234.637 L 771.899,234.478 L 771.985,234.438 L 772.08,234.516 L 772.394,234.405 L 772.323,234.311 L 772.33,234.217 L 772.393,234.194 L 772.448,234.233 L 772.504,234.324 L 772.622,234.373 L 772.826,234.268 L 772.834,234.206 L 772.691,234.039 L 772.698,233.977 L 772.785,233.937 L 772.864,234 L 772.966,234.022 L 773.092,233.919 L 773.066,233.526 L 773.135,233.27 L 773.165,233.121 L 773.243,233.025 L 773.392,232.946 L 773.495,232.928 L 773.574,233 L 773.66,232.976 L 773.862,232.548 L 773.577,232.259 L 773.505,232.164 L 773.504,231.929 L 773.643,231.472 L 773.829,231.054 L 774.143,230.877 L 774.257,230.816 L 774.255,230.667 L 774.192,230.557 L 774.14,230.53 L 773.264,230.261 L 773.027,230.073 L 772.82,229.806 L 772.803,229.493 L 772.942,229.083 L 772.949,228.915 L 772.709,228.445 L 772.581,228.085 L 772.556,227.872 L 772.665,227.698 L 772.9,227.508 L 772.93,227.309 L 772.882,227.208 L 772.764,227.106 L 772.282,226.968 L 772.022,226.836 L 771.792,226.673 L 771.578,226.412 L 771.49,226.21 L 771.497,226.092 L 771.536,226.013 L 771.731,225.831 L 771.794,225.711 L 771.917,225.332 L 771.995,225.206 L 772.152,225.08 L 772.301,225.023 L 772.506,225.039 L 772.711,225.113 L 773.082,225.295 L 773.312,225.527 L 773.368,225.637 L 773.385,225.835 L 773.37,225.922 L 773.143,226.087 L 773.239,226.419 L 773.287,226.56 L 773.399,226.811 L 773.4,226.991 L 773.095,227.192 L 773.096,227.316 L 773.144,227.411 L 773.246,227.514 L 774.116,227.997 L 774.306,228.144 L 774.377,228.16 L 774.424,228.097 L 774.423,228.01 L 774.523,227.719 L 774.625,227.7 L 774.712,227.763 L 774.775,227.755 L 774.877,227.659 L 774.891,227.478 L 774.993,227.407 L 775.024,227.313 L 775.165,227.21 L 775.267,227.185 L 775.378,227.287 L 775.482,227.489 L 775.61,227.749 L 775.605,228.127 L 775.467,228.544 L 775.42,228.607 L 775.453,228.764 L 775.643,228.874 L 775.634,229.758 L 775.635,229.826 L 775.557,229.962 L 775.542,230.033 L 775.613,230.047 L 775.739,230.015 L 775.591,230.283 L 775.603,230.733 L 775.784,230.817 L 775.856,230.961 L 775.936,231.061 L 776.117,231.028 L 776.157,231.092 L 776.157,231.185 L 776.095,231.258 L 775.765,231.292 L 775.765,231.361 L 775.884,231.447 L 775.932,231.517 L 775.965,231.776 L 776.083,231.776 L 776.129,231.62 L 776.255,231.594 L 776.325,231.524 L 776.355,231.318 L 776.353,231.018 L 776.305,230.892 L 776.201,230.758 L 776.192,230.585 L 776.215,230.46 L 776.332,230.342 L 776.401,230.207 L 776.551,230.19 L 776.615,230.269 L 776.703,230.48 L 776.757,230.361 L 777.134,230.297 L 777.324,230.403 L 777.357,230.498 L 777.391,230.844 L 777.463,231.01 L 777.431,231.954 L 777.473,232.207 L 777.45,232.3 L 777.444,232.53 L 777.483,232.575 L 777.642,232.639 L 777.633,232.553 L 777.577,232.418 L 777.642,231.684 L 777.57,231.553 L 777.577,231.434 L 777.686,231.267 L 777.732,231.157 L 777.795,231.093 L 778.045,230.965 L 778.045,230.862 L 777.73,230.875 L 777.619,230.844 L 777.634,230.763 L 777.86,230.471 L 777.947,230.422 L 778.332,230.42 L 778.411,230.442 L 778.554,230.559 L 778.712,230.604 L 778.807,230.685 L 778.941,230.65 L 778.995,230.596 L 779.2,230.577 L 779.333,230.468 L 779.512,230.267 L 779.661,230.179 L 780.299,230.176 L 780.426,230.315 L 780.505,230.316 L 780.575,230.276 L 780.662,230.283 L 780.805,230.384 L 780.867,230.351 L 780.95,230.212 L 780.98,230.161 L 781.015,230.102 L 781.054,230.036 L 781.106,229.949 L 781.297,229.979 L 781.321,229.923 L 781.509,229.796 L 781.532,229.667 L 781.59,229.65 L 781.648,229.622 L 781.721,229.608 L 781.785,229.612"/><path id="path15591" d="M 764.663,227.5 L 764.497,227.369 L 764.126,227.29 L 764.11,227.157 L 763.998,226.983 L 764.036,226.796 L 764.209,226.732 L 764.445,226.676 L 764.517,226.754 L 764.737,226.822 L 764.817,226.925 L 764.849,227.042 L 764.929,227.145 L 764.929,227.238 L 764.75,227.46 L 764.663,227.5"/><path id="path15605" d="M 770.853,229.938 L 770.647,229.82 L 770.631,229.703 L 770.685,229.633 L 770.692,229.469 L 770.755,229.442 L 770.913,229.45 L 771.142,229.527 L 771.166,229.644 L 771.089,229.857 L 770.971,229.929 L 770.853,229.938"/><path id="path15611" d="M 770.945,230.773 L 770.858,230.695 L 770.865,230.617 L 770.943,230.544 L 771.266,230.447 L 771.462,230.454 L 771.589,230.525 L 771.59,230.642 L 771.527,230.713 L 770.945,230.773"/><path id="path15615" d="M 770.214,230.934 L 769.575,230.869 L 769.591,230.782 L 769.849,230.632 L 769.936,230.623 L 770.331,230.769 L 770.355,230.88 L 770.292,230.92 L 770.214,230.934"/></g></svg>