<svg xmlns="http://www.w3.org/2000/svg" role="img" viewBox="1131.20 578.08 43.72 47.97"><title>Hopedale</title><g id="g14955" fill="#fefee9" fill-opacity="1" fill-rule="evenodd" stroke="#000" stroke-linecap="square" stroke-linejoin="bevel" stroke-opacity="1" stroke-width=".098" transform="translate(-216.714 -21.7) scale(2.264)"><path id="path15735" fill-rule="evenodd" d="M 598.559,265.398 L 598.606,265.701 L 598.562,265.803 L 598.564,265.878 L 598.577,265.967 L 598.597,266.049 L 598.599,266.134 L 598.575,266.297 L 598.561,266.39 L 598.593,266.492 L 598.59,266.563 L 598.533,266.581 L 598.474,266.57 L 598.397,266.56 L 598.328,266.502 L 598.25,266.538 L 598.233,266.607 L 598.243,266.672 L 598.247,266.747 L 598.212,266.798 L 598.165,266.853 L 598.126,266.901 L 598.019,266.996 L 597.988,267.136 L 604.127,272.313 L 604.383,272.431 L 606.824,274.726 L 608.924,276.875 L 609.238,277.179 L 611.439,277.239 L 611.622,277.24 L 611.642,277.317 L 611.672,277.368 L 611.753,277.452 L 611.83,277.499 L 611.856,277.569 L 611.912,277.64 L 611.985,277.714 L 612.052,277.785 L 612.105,277.82 L 612.151,277.915 L 612.153,278.015 L 612.201,278.076 L 612.285,278.126 L 612.354,278.162 L 612.411,278.224 L 612.406,278.328 L 612.375,278.417 L 612.344,278.494 L 612.38,278.586 L 612.386,278.645 L 612.436,278.711 L 612.491,278.811 L 612.537,278.884 L 612.592,278.939 L 612.661,278.978 L 612.724,279.025 L 612.765,279.078 L 612.842,279.144 L 612.929,279.191 L 612.994,279.21 L 613.05,279.222 L 613.145,279.233 L 613.22,279.254 L 613.273,279.29 L 613.332,279.336 L 613.387,279.399 L 613.427,279.442 L 613.501,279.454 L 613.574,279.43 L 613.646,279.433 L 613.711,279.476 L 613.759,279.566 L 613.779,279.637 L 613.827,279.768 L 613.835,279.827 L 613.809,279.883 L 613.767,279.963 L 613.791,280.042 L 613.842,280.112 L 613.874,280.183 L 613.86,280.262 L 613.835,280.347 L 613.812,280.412 L 613.81,280.486 L 613.832,280.565 L 613.858,280.647 L 613.86,280.708 L 613.86,280.783 L 613.888,280.879 L 613.961,280.946 L 614.026,281.003 L 614.007,281.111 L 613.972,281.176 L 613.892,281.269 L 613.839,281.354 L 613.808,281.412 L 613.734,281.473 L 613.675,281.491 L 613.63,281.548 L 613.566,281.665 L 613.515,281.728 L 613.46,281.778 L 613.417,281.851 L 613.406,281.912 L 613.418,281.971 L 613.418,282.044 L 613.412,282.113 L 613.413,282.178 L 613.533,282.258 L 613.58,282.338 L 613.592,282.413 L 613.628,282.47 L 613.681,282.513 L 613.736,282.568 L 613.707,282.647 L 613.682,282.706 L 613.666,282.775 L 613.669,282.838 L 613.739,282.887 L 613.794,282.91 L 613.848,282.975 L 614.247,284.252 L 612.186,284.64 L 612.007,284.696 L 611.901,284.75 L 611.744,284.821 L 611.403,284.995 L 611.039,285.162 L 609.922,285.597 L 609.839,285.637 L 609.774,285.663 L 609.682,285.681 L 609.515,285.68 L 609.427,285.677 L 609.311,285.652 L 608.647,285.463 L 608.589,285.433 L 608.501,285.371 L 608.397,285.309 L 608.312,285.24 L 608.264,285.165 L 608.229,285.106 L 608.169,285.008 L 608.128,284.959 L 608.061,284.913 L 606.699,284.135 L 606.651,283.924 L 606.313,283.27 L 605.618,282.437 L 605.362,282.161 L 605.115,281.79 L 604.847,281.174 L 604.361,280.434 L 604.159,280.109 L 604.031,279.879 L 603.491,279.156 L 602.764,278.509 L 602.759,278.417 L 601.718,277.918 L 601.352,277.688 L 601.229,277.538 L 601.153,277.409 L 600.958,276.946 L 600.923,276.867 L 600.789,276.541 L 600.377,275.965 L 600.176,275.898 L 599.837,275.66 L 599.599,275.396 L 599.354,275.154 L 599.072,274.68 L 598.898,274.433 L 598.558,274.13 L 598.038,273.302 L 596.416,270.814 L 595.848,270.924 L 595.892,267.657 L 598.559,265.398"/></g></svg>