<svg xmlns="http://www.w3.org/2000/svg" role="img" viewBox="353.87 425.50 61.51 104.13"><title>Huntington</title><g id="g14955" fill="#fefee9" fill-opacity="1" fill-rule="evenodd" stroke="#000" stroke-linecap="square" stroke-linejoin="bevel" stroke-opacity="1" stroke-width=".098" transform="translate(-216.714 -21.7) scale(2.264)"><path id="path15487" fill-rule="evenodd" d="M 276.816,200.749 L 278.104,228.926 L 278.209,231.258 L 278.282,233.017 L 266.97,234.409 L 265.199,237.214 L 264.433,239.319 L 264.104,240.129 L 263.109,242.611 L 262.482,242.135 L 252.957,234.61 L 256.401,230.906 L 261.197,225.752 L 260.417,202.591 L 260.333,200.023 L 263.17,199.684 L 268.362,199.007 L 268.543,199.122 L 268.8,199.251 L 268.921,199.294 L 269.015,199.31 L 269.081,199.287 L 269.142,199.255 L 269.2,199.222 L 269.271,199.202 L 269.33,199.199 L 269.399,199.204 L 269.503,199.218 L 269.571,199.239 L 269.639,199.272 L 269.702,199.298 L 269.844,199.354 L 269.918,199.391 L 269.985,199.429 L 270.062,199.484 L 270.124,199.532 L 270.19,199.606 L 270.39,200.046 L 271.026,198.614 L 272.005,198.472 L 272.022,198.53 L 272.032,198.626 L 272.044,198.713 L 272.066,198.798 L 272.079,198.875 L 272.089,198.938 L 272.092,199.015 L 272.11,199.092 L 272.139,199.151 L 272.211,199.169 L 272.277,199.217 L 272.339,199.244 L 272.415,199.276 L 272.507,199.314 L 272.586,199.293 L 272.675,199.285 L 272.758,199.267 L 272.858,199.253 L 272.963,199.245 L 273.038,199.233 L 273.132,199.242 L 273.192,199.265 L 273.27,199.304 L 273.323,199.338 L 273.371,199.384 L 273.462,199.468 L 273.535,199.535 L 273.588,199.581 L 273.671,199.633 L 273.745,199.653 L 273.828,199.648 L 273.898,199.612 L 273.957,199.58 L 274.015,199.547 L 274.104,199.523 L 274.204,199.515 L 274.273,199.516 L 274.436,199.504 L 274.55,199.502 L 274.631,199.513 L 274.691,199.52 L 274.786,199.508 L 274.881,199.494 L 274.944,199.485 L 275.036,199.469 L 275.104,199.451 L 275.179,199.423 L 275.25,199.418 L 275.328,199.449 L 275.41,199.472 L 275.499,199.517 L 275.55,199.561 L 275.605,199.637 L 275.61,199.696 L 275.613,199.777 L 275.602,199.841 L 275.614,199.916 L 275.656,199.986 L 275.706,200.024 L 275.781,200.061 L 275.851,200.096 L 275.909,200.14 L 275.953,200.208 L 276.095,200.47 L 276.163,200.565 L 276.213,200.6 L 276.284,200.603 L 276.353,200.585 L 276.416,200.564 L 276.544,200.552 L 276.617,200.566 L 276.676,200.626 L 276.732,200.678 L 276.816,200.749"/></g></svg>