<svg xmlns="http://www.w3.org/2000/svg" role="img" viewBox="1478.35 121.97 144.30 87.67"><title>Ipswich</title><g id="g14955" fill="#fefee9" fill-opacity="1" fill-rule="evenodd" stroke="#000" stroke-linecap="square" stroke-linejoin="bevel" stroke-opacity="1" stroke-width=".098" transform="translate(-216.714 -21.7) scale(2.264)"><path id="path15025" d="M 794.911,64.7718 L 794.974,64.9072 L 795.046,65.1129 L 795.15,65.2989 L 795.431,66.0382 L 795.512,66.3055 L 795.682,66.7595 L 795.746,66.9251 L 795.778,67.0359 L 796.028,67.7263 L 796.108,67.876 L 796.116,67.9378 L 796.997,69.7724 L 797.358,70.5497 L 797.519,70.9668 L 797.944,71.925 L 798.161,72.4954 L 798.466,73.2493 L 798.515,73.4214 L 799.116,74.725 L 799.237,75.0471 L 799.391,75.635 L 799.417,75.8793 L 799.423,76.6358 L 799.322,76.7939 L 799.157,76.9291 L 798.993,77.0269 L 798.765,77.0989 L 798.428,77.2578 L 797.583,77.928 L 797.264,78.4182 L 797.202,78.5596 L 797.062,78.7653 L 796.968,78.8209 L 796.81,78.8069 L 796.692,78.7608 L 796.454,78.4949 L 795.961,78.0258 L 795.874,77.8702 L 795.807,77.4534 L 795.821,77.2266 L 795.859,77.0424 L 795.857,76.7912 L 796.019,76.3491 L 796.03,75.8215 L 795.94,75.3435 L 795.312,74.6611 L 794.974,74.7424 L 794.777,74.6987 L 794.737,74.6347 L 794.744,74.5104 L 794.846,74.4453 L 795.003,74.388 L 795.302,74.401 L 795.95,74.6638 L 796.14,74.8195 L 796.314,74.8827 L 796.502,74.8089 L 796.58,74.7134 L 796.642,74.5472 L 796.641,74.454 L 796.625,74.3214 L 796.687,74.2419 L 796.686,74.155 L 796.567,74.0531 L 796.567,73.9818 L 796.613,73.9123 L 796.707,73.8474 L 796.73,73.7443 L 796.816,73.6179 L 796.815,73.5557 L 796.563,73.588 L 796.43,73.6601 L 796.305,73.8344 L 796.314,73.9615 L 796.34,74.1497 L 796.277,74.1982 L 796.159,74.2233 L 795.386,74.0386 L 795.283,73.9394 L 795.181,73.9454 L 795.102,73.988 L 795.016,74.0961 L 794.953,74.1226 L 794.859,74.1131 L 794.78,74.0287 L 794.699,73.8575 L 794.68,73.461 L 794.733,73.1956 L 794.732,73.0128 L 794.667,72.8409 L 794.673,72.5957 L 794.892,72.4063 L 794.962,72.2955 L 794.968,72.0815 L 795.007,71.9933 L 795.242,71.8345 L 795.492,71.5726 L 795.593,71.4303 L 795.695,71.3836 L 795.853,71.4132 L 795.94,71.5004 L 796.027,71.4731 L 796.018,71.371 L 795.93,71.2774 L 795.922,71.2156 L 795.811,71.1074 L 795.943,70.8616 L 795.926,70.7442 L 795.863,70.6809 L 795.681,70.6117 L 795.594,70.54 L 795.385,70.0562 L 795.187,69.8821 L 794.847,69.6502 L 794.671,69.398 L 794.606,69.1642 L 794.431,68.9678 L 794.321,68.906 L 794.453,68.722 L 794.46,68.6444 L 794.381,68.5754 L 794.279,68.5754 L 794.217,68.7881 L 794.101,68.9558 L 794.101,69.0738 L 794.181,69.121 L 794.307,69.1421 L 794.426,69.2193 L 794.529,69.337 L 794.595,69.7291 L 794.659,69.8637 L 794.842,70.0351 L 795.317,70.3466 L 795.388,70.4469 L 795.392,70.8964 L 795.346,71.0156 L 795.355,71.2356 L 795.27,71.4026 L 795.161,71.5298 L 794.959,71.8614 L 794.834,71.9645 L 794.708,71.9899 L 794.644,71.936 L 794.573,71.9195 L 794.55,71.9759 L 794.551,72.1092 L 794.569,72.329 L 794.429,72.575 L 794.44,72.8818 L 794.512,73.0472 L 794.505,73.1652 L 794.442,73.2043 L 794.339,73.1174 L 794.219,72.907 L 794.099,72.6717 L 793.988,72.5231 L 793.908,72.3362 L 793.568,72.2905 L 793.513,72.2579 L 793.542,71.9128 L 793.438,71.795 L 793.35,71.5215 L 793.128,71.3267 L 792.914,71.1841 L 792.398,70.6937 L 792.224,70.5997 L 792.128,70.4196 L 792.101,70.0264 L 792.061,69.9253 L 792.076,69.8286 L 792.138,69.7337 L 792.288,69.6952 L 792.334,69.6008 L 792.341,69.4424 L 792.293,69.3476 L 792.115,68.8133 L 792.122,68.7416 L 792.169,68.6565 L 792.288,68.7027 L 792.423,68.8816 L 792.51,68.8822 L 792.58,68.7778 L 792.807,68.7369 L 793.042,68.5159 L 793.309,68.4491 L 793.332,68.3151 L 793.032,68.2463 L 792.82,68.3426 L 792.687,68.4396 L 792.561,68.4092 L 792.568,68.2913 L 792.614,68.1781 L 792.574,68.0458 L 792.472,68.0706 L 792.426,68.3077 L 792.316,68.2831 L 792.282,67.9554 L 792.249,67.8756 L 792.194,67.8277 L 792.06,67.7975 L 792.059,67.6891 L 792.371,67.3478 L 792.418,67.2534 L 792.417,67.1727 L 792.258,67.0162 L 792.25,66.6849 L 794.911,64.7718"/><path id="path15039" d="M 787.172,69.0281 L 787.204,69.1451 L 787.102,69.1791 L 787.016,69.1693 L 786.857,69.084 L 786.14,68.9814 L 786.061,68.9184 L 786.084,68.8559 L 786.186,68.8156 L 786.185,68.7379 L 786.083,68.7069 L 785.87,68.7629 L 785.485,68.8053 L 785.343,68.7815 L 785.279,68.6874 L 785.412,68.5469 L 785.419,68.4752 L 785.285,68.4298 L 785.12,68.4534 L 784.803,68.2424 L 784.865,68.1661 L 784.873,68.0791 L 784.778,68.0385 L 784.605,68.0251 L 784.502,68.0807 L 784.337,68.0824 L 784.084,67.9753 L 783.595,67.8843 L 783.516,67.8215 L 783.523,67.7439 L 783.617,67.6542 L 783.963,67.5879 L 784.112,67.5248 L 784.277,67.3989 L 784.442,67.3567 L 784.835,67.3141 L 785.127,67.3427 L 785.545,67.4264 L 785.789,67.4965 L 786.208,67.7043 L 786.438,67.8527 L 786.573,67.9852 L 786.803,68.242 L 786.964,68.6186 L 786.998,68.9279 L 787.038,68.9887 L 787.172,69.0281"/><path id="path15043" d="M 784.077,78.7227 L 784.729,78.5763 L 784.823,78.4742 L 784.83,78.3467 L 784.782,78.2861 L 784.781,78.2055 L 784.859,78.1505 L 785.174,78.0854 L 785.26,78.0362 L 785.479,77.7817 L 785.581,77.7414 L 785.793,77.7164 L 785.934,77.644 L 786.115,77.651 L 786.233,77.5793 L 786.351,77.6037 L 786.336,77.6973 L 786.282,77.8011 L 786.29,77.8691 L 786.393,77.9405 L 786.426,78.0668 L 786.489,78.0649 L 786.544,78.0014 L 786.542,77.7656 L 786.62,77.6794 L 786.761,77.576 L 786.775,77.4019 L 786.837,77.3225 L 786.844,77.2448 L 786.553,77.2783 L 786.521,77.1768 L 786.607,77.103 L 786.905,76.9825 L 787.212,76.9889 L 787.298,76.9335 L 787.322,76.8553 L 787.289,76.6889 L 787.027,76.4857 L 787.034,76.4233 L 787.105,76.3437 L 787.254,76.2556 L 787.394,76.0964 L 787.505,76.1119 L 787.805,76.2424 L 787.978,76.2279 L 788.253,76.1051 L 788.425,75.9945 L 788.574,75.8847 L 788.683,75.7479 L 788.697,75.5025 L 788.662,75.1097 L 788.701,75.0311 L 788.826,74.9125 L 788.951,74.856 L 789.108,74.7986 L 789.399,74.7434 L 789.918,74.5887 L 790.224,74.5236 L 790.445,74.5513 L 791.2,74.4294 L 791.61,74.4887 L 792.21,74.7097 L 792.756,75.0378 L 792.859,75.1401 L 792.9,75.2972 L 792.885,75.4465 L 792.738,75.7456 L 792.717,76.0129 L 792.929,76.0594 L 793.128,76.224 L 793.168,76.3096 L 793.216,76.4601 L 793.328,76.6554 L 793.362,76.8839 L 793.466,77.2065 L 793.491,77.3391 L 793.485,77.5657 L 793.517,77.6392 L 793.993,78.019 L 794.097,78.2144 L 794.099,78.4438 L 794.029,78.6816 L 794.182,78.9935 L 794.277,79.0899 L 794.578,79.2269 L 794.712,79.353 L 794.817,79.6447 L 794.811,79.8465 L 794.725,79.9978 L 794.6,80.1318 L 794.436,80.205 L 793.995,80.2645 L 793.815,80.4001 L 793.666,80.4572 L 793.571,80.3393 L 793.436,80.2842 L 793.174,79.9941 L 793.094,79.8291 L 793.1,79.6272 L 793.123,79.5707 L 793.201,79.4661 L 793.366,79.3807 L 793.774,79.2815 L 793.876,79.2259 L 793.9,79.1383 L 793.859,78.9906 L 793.693,78.8808 L 793.543,78.8823 L 793.473,78.9836 L 793.261,79.027 L 793.018,79.1769 L 792.846,79.3278 L 792.367,79.4599 L 792.131,79.4855 L 791.885,79.3841 L 791.711,79.2342 L 791.496,78.9057 L 791.377,78.7728 L 791.219,78.7372 L 791.054,78.7607 L 790.864,78.6516 L 790.501,78.6158 L 790.281,78.6316 L 790.131,78.5555 L 789.871,78.5259 L 789.302,78.2481 L 789.166,77.9979 L 789.055,78.0043 L 789.16,78.2958 L 789.327,78.4521 L 789.904,78.7235 L 789.936,78.8712 L 790.22,78.9094 L 790.268,78.9638 L 790.269,79.1221 L 790.309,79.2077 L 790.436,79.2691 L 790.687,79.2058 L 790.806,79.2581 L 791.018,79.264 L 791.372,79.2226 L 791.476,79.3623 L 791.603,79.529 L 791.438,79.537 L 790.934,79.5025 L 790.659,79.5757 L 790.274,79.7671 L 790.093,79.6979 L 789.652,79.7266 L 789.605,79.7899 L 789.598,79.9081 L 789.772,79.9526 L 789.905,79.8802 L 790.047,79.8637 L 790.276,80.0028 L 790.277,80.0989 L 790.121,80.2089 L 789.752,80.409 L 789.658,80.5049 L 789.51,80.6085 L 789.242,80.6412 L 789.093,80.7048 L 788.999,80.7849 L 788.992,80.9279 L 789.095,80.9744 L 789.197,80.9186 L 789.246,81.0817 L 789.285,81.1363 L 789.396,81.1826 L 789.434,81.0728 L 789.426,80.9552 L 789.481,80.9165 L 789.811,80.8663 L 789.898,80.9134 L 790.016,80.9099 L 790.15,80.8781 L 790.157,80.7848 L 790.093,80.6284 L 790.108,80.563 L 790.186,80.5388 L 790.25,80.6021 L 790.282,80.6664 L 790.291,80.8615 L 790.145,81.3031 L 789.913,81.7627 L 789.867,81.975 L 789.907,82.0606 L 789.924,82.2028 L 789.854,82.2919 L 789.389,82.2313 L 789.089,82.234 L 788.901,82.2735 L 788.517,82.5145 L 788.313,82.6012 L 788.023,82.7928 L 787.734,83.1178 L 787.648,83.1761 L 787.476,83.3642 L 787.273,83.4943 L 786.927,83.5821 L 786.81,83.6942 L 786.685,83.8746 L 786.513,84.0038 L 786.382,84.2868 L 786.319,84.3135 L 786.246,84.108 L 785.647,84.0357 L 785.371,83.9416 L 785.252,83.8488 L 785.212,83.7851 L 785.149,83.7558 L 785.046,83.7557 L 784.891,84.0489 L 784.728,84.2771 L 784.281,84.4702 L 784.218,84.5744 L 784.142,84.8497 L 783.956,85.2614 L 783.659,85.5464 L 783.503,85.6502 L 783.377,85.6756 L 783.282,85.5824 L 783.218,85.5501 L 783.148,85.6296 L 783.158,85.8807 L 783.19,85.9355 L 783.167,85.992 L 783.207,86.1397 L 783.341,86.117 L 783.412,86.1646 L 783.491,86.1468 L 783.529,85.9719 L 784.13,85.2905 L 784.447,84.6575 L 784.557,84.5395 L 784.824,84.4262 L 784.878,84.3718 L 785.017,84.0481 L 785.111,83.9742 L 785.222,83.9832 L 785.42,84.1853 L 785.554,84.2401 L 785.743,84.2624 L 785.815,84.341 L 785.996,84.3387 L 786.045,84.5109 L 785.826,84.6848 L 785.881,84.7638 L 786.101,84.6612 L 786.345,84.6354 L 786.54,84.4373 L 786.846,84.2296 L 787.175,84.0834 L 787.316,83.9025 L 787.456,83.7991 L 787.622,83.7973 L 787.732,83.8374 L 787.874,83.8269 L 787.944,83.7721 L 788.007,83.7795 L 788.174,83.9017 L 788.182,83.9728 L 788.293,84.0844 L 788.318,84.1457 L 788.373,84.2153 L 788.422,84.3565 L 788.54,84.3344 L 788.602,84.2459 L 788.585,84.1128 L 788.409,83.7677 L 788.29,83.6193 L 788.313,83.541 L 788.642,83.3793 L 789.067,83.3667 L 789.098,83.2571 L 789.034,83.1877 L 788.884,83.1178 L 788.969,82.9199 L 789.055,82.8242 L 789.323,82.8224 L 789.41,82.8602 L 789.559,82.8278 L 789.7,82.7647 L 789.858,82.8252 L 789.993,82.9917 L 790.112,83.0688 L 790.121,83.1616 L 789.996,83.2894 L 789.997,83.3762 L 790.077,83.5321 L 790.156,83.5794 L 790.242,83.555 L 790.272,83.3588 L 790.555,83.3628 L 790.76,83.2978 L 790.917,83.3148 L 791.02,83.3925 L 791.053,83.4845 L 791.202,83.4521 L 791.185,83.3657 L 791.074,83.2575 L 791.034,83.1223 L 790.994,83.0767 L 790.703,83.1258 L 790.586,83.1821 L 790.467,83.167 L 790.404,83.0975 L 790.403,82.9857 L 790.457,82.9067 L 790.834,82.7093 L 790.896,82.6361 L 790.965,82.3519 L 791.111,81.9351 L 791.054,81.7538 L 791.026,81.1621 L 790.881,80.8252 L 790.722,80.52 L 790.712,80.3216 L 790.774,80.205 L 790.891,80.0993 L 791.048,80.02 L 791.402,79.9631 L 791.725,79.9751 L 791.883,80.0202 L 792.169,80.2878 L 792.122,80.373 L 791.877,80.3213 L 791.602,80.3542 L 791.531,80.3315 L 791.382,80.3639 L 791.351,80.4361 L 791.391,80.4907 L 791.548,80.5202 L 791.918,80.4874 L 792.029,80.6021 L 792.077,80.6968 L 792.228,80.7822 L 792.511,80.7954 L 792.872,80.6825 L 793.054,80.6957 L 793.125,80.7369 L 793.157,80.8134 L 793.119,81.0195 L 793.216,81.3174 L 793.225,81.4288 L 792.966,81.6101 L 792.889,81.7149 L 792.907,82.099 L 792.884,82.1553 L 792.878,82.3448 L 792.957,82.3518 L 793.096,82.0746 L 793.212,81.7114 L 793.305,81.6403 L 793.534,81.5996 L 793.675,81.6449 L 793.684,81.7067 L 793.614,81.7802 L 793.614,81.8514 L 793.773,81.9274 L 794.214,82.026 L 794.649,82.2828 L 794.808,82.4302 L 794.787,82.7471 L 794.875,82.9429 L 794.852,83.0678 L 794.878,83.2811 L 794.88,83.5476 L 794.787,83.6838 L 794.882,83.8081 L 794.945,83.825 L 795.135,83.8628 L 795.117,83.5933 L 795.139,83.4905 L 795.137,83.1463 L 795.183,83.0735 L 795.19,82.9865 L 795.088,82.9181 L 795.107,82.4585 L 795.075,82.3727 L 794.782,82.1395 L 794.353,81.7333 L 793.99,81.6014 L 793.887,81.4774 L 793.839,81.3765 L 793.664,81.2049 L 793.546,81.1278 L 793.56,81.0466 L 793.607,80.9926 L 794.238,81.042 L 794.34,81.0422 L 794.614,80.8355 L 794.834,80.8072 L 794.953,80.8378 L 795.237,80.938 L 795.678,80.9744 L 796.041,81.0972 L 796.436,81.1721 L 797.262,81.1261 L 797.412,81.1493 L 798.175,81.1206 L 798.546,81.1716 L 798.838,81.2405 L 799.131,81.3962 L 799.297,81.5588 L 799.433,81.7625 L 799.861,82.153 L 800.146,82.3399 L 800.717,82.8224 L 801.042,83.0423 L 801.342,83.1792 L 801.729,83.2794 L 802.201,83.2437 L 802.469,83.273 L 803.7,83.593 L 804.298,83.5877 L 804.812,83.7802 L 805.192,83.8161 L 805.326,83.8711 L 805.588,84.0743 L 805.89,84.3476 L 806.453,84.7745 L 806.954,85.2343 L 808.054,86.5853 L 808.324,86.8908 L 808.975,87.4268 L 809.413,87.9598 L 809.517,88.1614 L 810.051,88.7724 L 810.227,89.1082 L 810.355,89.2814 L 810.515,89.5961 L 810.658,89.7191 L 810.726,89.4286 L 810.797,89.4017 L 811.074,89.5113 L 811.18,89.5312 L 810.485,91.093 L 809.986,91.0885 L 809.797,91.026 L 809.686,90.9485 L 809.463,90.6667 L 809.359,90.5673 L 809.151,90.2601 L 809.015,90.0035 L 808.81,89.9103 L 808.508,89.6835 L 808.239,89.5208 L 808.23,89.3815 L 808.088,89.3424 L 807.978,89.3829 L 807.779,89.2275 L 807.503,89.096 L 806.926,88.9052 L 806.466,88.618 L 806.166,88.4408 L 806.006,88.284 L 805.793,88.1603 L 805.097,87.8581 L 804.852,87.7895 L 804.505,87.6975 L 804.347,87.6369 L 804.188,87.4711 L 803.856,87.4035 L 803.325,86.9849 L 803.032,86.6957 L 802.874,86.6169 L 802.621,86.5468 L 802.463,86.4709 L 802.154,86.1978 L 801.617,86.0215 L 801.325,85.9618 L 800.915,85.915 L 800.752,86.1617 L 800.533,86.4164 L 800.363,86.7256 L 800.316,86.7734 L 800.198,86.78 L 800.031,86.633 L 799.731,86.5085 L 799.596,86.3202 L 799.516,86.2822 L 799.383,86.308 L 799.384,86.4257 L 799.424,86.4868 L 799.7,86.6026 L 799.772,86.6748 L 799.954,86.7998 L 799.963,86.9328 L 799.861,86.9948 L 799.664,87.0223 L 799.074,87.0335 L 798.807,87.2028 L 798.666,87.241 L 798.587,87.1813 L 798.429,87.1428 L 797.759,87.0849 L 797.507,87.0862 L 797.233,87.2464 L 796.997,87.2875 L 796.903,87.3586 L 796.872,87.4153 L 797.062,87.5151 L 797.063,87.633 L 796.614,88.1093 L 796.434,88.1885 L 796.335,88.266 L 796.193,88.1922 L 796.099,88.2073 L 795.95,88.3359 L 795.898,88.483 L 795.866,88.5709 L 795.833,88.6647 L 795.77,88.8392 L 795.721,88.9769 L 795.721,89.0681 L 795.655,89.1683 L 795.589,89.2207 L 795.484,89.2661 L 795.409,89.2831 L 795.311,89.2868 L 795.177,89.2756 L 795.036,89.2645 L 794.913,89.2471 L 794.833,89.2349 L 794.762,89.2303 L 794.695,89.2707 L 794.652,89.3503 L 794.637,89.4116 L 794.623,89.5004 L 794.647,89.5983 L 794.688,89.6901 L 794.704,89.8059 L 794.677,89.8613 L 794.638,89.9407 L 794.499,90.0968 L 794.395,90.2051 L 794.304,90.3072 L 794.274,90.3843 L 794.26,90.5499 L 794.266,90.6618 L 794.304,90.7242 L 794.337,90.7786 L 794.477,90.8015 L 794.624,90.7635 L 794.733,90.732 L 794.839,90.7378 L 794.832,90.8619 L 794.79,90.9435 L 794.711,91.0353 L 794.623,91.1472 L 794.529,91.2571 L 794.477,91.3072 L 794.363,91.325 L 794.274,91.2993 L 794.177,91.2755 L 794.104,91.2689 L 794.018,91.2824 L 793.94,91.3016 L 793.852,91.315 L 793.796,91.2766 L 793.805,91.1643 L 793.837,91.0515 L 793.863,90.9665 L 793.855,90.8604 L 793.735,90.8509 L 793.635,90.8705 L 793.562,90.8737 L 793.494,90.9103 L 793.5,91.0322 L 793.517,91.0911 L 793.587,91.2511 L 793.621,91.3783 L 793.643,91.5275 L 793.658,91.6964 L 793.676,91.7826 L 793.785,91.8414 L 793.855,91.8246 L 794.01,91.7626 L 794.093,91.7316 L 794.15,91.7225 L 794.209,91.7177 L 794.272,91.7341 L 794.33,91.7624 L 794.374,91.8779 L 794.368,91.9861 L 794.341,92.0417 L 794.274,92.1099 L 794.161,92.161 L 794.048,92.2282 L 793.933,92.3051 L 793.815,92.2955 L 793.724,92.2755 L 793.651,92.2296 L 793.597,92.1835 L 793.561,92.1349 L 793.474,92.0539 L 793.413,92.0216 L 793.318,92.0233 L 793.246,92.0266 L 793.16,92.0499 L 793.124,92.1548 L 793.145,92.2174 L 793.21,92.3185 L 793.293,92.3601 L 793.379,92.4001 L 793.433,92.4363 L 793.515,92.4934 L 793.551,92.5378 L 793.497,92.6108 L 793.302,92.6081 L 793.232,92.629 L 793.132,92.6544 L 793.055,92.7444 L 793.035,92.8136 L 793.036,92.8785 L 793.074,92.9428 L 793.204,93.0151 L 793.421,93.0681 L 793.516,93.1175 L 793.577,93.207 L 793.584,93.2835 L 793.562,93.3529 L 793.484,93.3778 L 793.381,93.3385 L 793.319,93.3141 L 793.26,93.3093 L 793.204,93.3633 L 793.181,93.4582 L 793.19,93.5525 L 793.18,93.6234 L 793.104,93.6899 L 793.039,93.6852 L 792.993,93.6349 L 792.959,93.5706 L 792.945,93.5039 L 792.958,93.4172 L 792.966,93.3501 L 792.931,93.2759 L 792.84,93.3288 L 792.77,93.3519 L 792.703,93.3432 L 792.606,93.3529 L 792.537,93.3147 L 792.464,93.3162 L 792.408,93.2325 L 792.416,93.1655 L 792.476,93.1152 L 792.522,93.0633 L 792.522,92.9688 L 792.461,92.9385 L 792.361,93.0505 L 792.28,93.1502 L 792.212,93.2008 L 792.15,93.2316 L 792.048,93.2531 L 791.992,93.2186 L 791.96,93.0974 L 791.932,93.0427 L 791.899,92.9903 L 791.847,92.9341 L 791.788,93.0059 L 791.746,93.0639 L 791.67,93.1006 L 791.576,93.065 L 791.532,93.1073 L 791.451,93.1756 L 791.366,93.1615 L 791.289,93.1747 L 791.195,93.1764 L 791.181,93.2376 L 791.236,93.2603 L 791.317,93.2607 L 791.343,93.3133 L 791.307,93.3848 L 791.24,93.3823 L 791.14,93.3741 L 791.088,93.4321 L 791.099,93.491 L 791.077,93.57 L 791.139,93.6457 L 791.184,93.7137 L 791.138,93.7757 L 791.061,93.7633 L 791.009,93.8173 L 790.912,93.8171 L 790.87,93.8613 L 790.795,93.8743 L 790.743,93.9285 L 790.699,93.9746 L 790.638,93.9638 L 790.658,93.8968 L 790.649,93.828 L 790.615,93.7774 L 790.537,93.832 L 790.465,93.8472 L 790.395,93.815 L 790.329,93.8634 L 790.241,93.863 L 790.146,93.9239 L 790.11,94.0189 L 790.08,94.116 L 790.068,94.1989 L 790.117,94.2706 L 790.14,94.3273 L 790.089,94.3814 L 790.122,94.4457 L 790.102,94.5051 L 790.069,94.5648 L 790.108,94.6132 L 790.062,94.6986 L 789.945,94.7717 L 789.878,94.828 L 789.814,94.9078 L 789.769,94.9952 L 789.715,95.0533 L 789.633,95.1139 L 789.57,95.1858 L 789.528,95.2516 L 789.502,95.3661 L 789.489,95.4885 L 789.479,95.5517 L 789.424,95.6687 L 789.315,95.7338 L 789.214,95.8044 L 789.104,95.893 L 789.024,95.9712 L 788.964,96.0214 L 788.863,96.0686 L 788.797,96.1014 L 788.74,96.126 L 788.674,96.1705 L 788.597,96.2251 L 788.53,96.242 L 788.46,96.2592 L 788.399,96.2976 L 788.324,96.3561 L 788.206,96.3741 L 788.114,96.3896 L 788.031,96.4816 L 788.157,96.5796 L 788.252,96.629 L 788.432,96.6472 L 787.825,98.4871 L 786.621,98.166 L 786.641,98.504 L 786.643,98.6002 L 786.633,98.695 L 786.624,98.7581 L 786.608,98.8234 L 786.546,98.9543 L 786.409,99.1083 L 786.282,99.2563 L 786.223,99.3382 L 786.179,99.4078 L 786.139,99.4833 L 786.042,99.4438 L 785.993,99.5767 L 785.96,99.7029 L 785.952,99.8075 L 785.965,99.9451 L 786.01,100.035 L 786.045,100.111 L 786.077,100.163 L 786.106,100.247 L 786.094,100.326 L 786.051,100.429 L 785.993,100.511 L 785.987,100.572 L 785.981,100.773 L 785.98,100.944 L 783.785,99.4682 L 783.708,99.3615 L 783.678,99.3107 L 783.656,99.2305 L 783.632,99.1778 L 783.553,99.0752 L 783.509,99.0128 L 783.49,98.9502 L 783.535,98.8689 L 783.582,98.8129 L 783.643,98.8156 L 783.709,98.8755 L 783.778,98.9037 L 783.859,98.9041 L 783.869,98.8449 L 783.823,98.7848 L 783.836,98.7275 L 783.807,98.6651 L 783.782,98.5907 L 783.839,98.4972 L 783.899,98.4548 L 783.946,98.4205 L 784.008,98.3624 L 784.036,98.2909 L 784.074,98.243 L 784.128,98.2774 L 784.176,98.243 L 784.251,98.2318 L 784.236,98.1671 L 784.215,98.1106 L 784.224,98.0395 L 784.256,97.9798 L 784.3,97.9083 L 784.302,97.8452 L 784.26,97.7968 L 784.177,97.7826 L 784.125,97.6951 L 784.153,97.6099 L 784.22,97.5438 L 784.236,97.4607 L 784.204,97.4084 L 784.149,97.3424 L 784.166,97.2752 L 784.166,97.1985 L 784.147,97.132 L 784.144,97.065 L 784.156,96.9664 L 784.206,96.9124 L 784.235,96.8607 L 784.225,96.7685 L 784.187,96.72 L 784.149,96.6263 L 784.146,96.5575 L 784.156,96.4725 L 784.124,96.4142 L 784.07,96.3662 L 784.012,96.3278 L 783.991,96.273 L 783.994,96.2081 L 783.893,96.0762 L 783.74,95.9729 L 783.61,95.9557 L 783.479,95.9857 L 783.375,96.013 L 783.312,96.0301 L 783.259,96.0074 L 783.214,95.9394 L 783.124,95.9253 L 783.06,95.891 L 782.964,95.9007 L 782.904,95.9315 L 782.796,95.9648 L 782.772,96.0657 L 782.779,96.1324 L 782.722,96.1984 L 782.659,96.1976 L 782.596,96.2164 L 782.524,96.218 L 782.481,96.1696 L 782.441,96.2253 L 782.352,96.1878 L 782.341,96.1151 L 782.278,96.1045 L 782.197,96.1058 L 782.162,96.2089 L 782.127,96.2745 L 782.058,96.3348 L 781.968,96.3501 L 781.897,96.3714 L 781.835,96.4001 L 781.769,96.4367 L 781.712,96.4692 L 781.651,96.4781 L 781.551,96.488 L 781.416,96.4923 L 781.313,96.4923 L 781.209,96.4924 L 781.097,96.4944 L 781.013,96.4862 L 780.936,96.468 L 780.818,96.4032 L 780.685,96.4491 L 780.621,96.4915 L 780.559,96.5261 L 780.459,96.5399 L 780.362,96.6104 L 780.292,96.6728 L 780.26,96.7324 L 780.248,96.7937 L 780.243,96.8665 L 780.224,96.9219 L 780.161,96.986 L 780.102,97.0187 L 780.065,97.1295 L 779.435,97.6097 L 779.36,97.6955 L 779.159,97.7584 L 779.007,97.8161 L 778.944,97.8412 L 778.889,97.8127 L 778.814,97.8375 L 778.712,97.8198 L 778.656,97.7856 L 778.564,97.795 L 778.475,97.8716 L 778.389,97.9066 L 778.213,97.9355 L 777.876,98.0143 L 777.793,98.0848 L 777.465,98.4451 L 776.008,96.8731 L 776.841,93.1231 L 776.867,93.0024 L 776.746,92.997 L 776.679,92.9823 L 776.613,92.9521 L 776.561,92.8841 L 776.514,92.8142 L 776.46,92.7561 L 776.412,92.7216 L 776.349,92.7148 L 776.186,92.7334 L 775.997,92.784 L 775.854,92.8179 L 775.681,92.8304 L 775.479,92.8769 L 775.254,92.9472 L 775.11,92.9984 L 775,93.0135 L 774.909,93.0065 L 774.84,92.9877 L 774.751,92.9337 L 774.694,92.8595 L 774.633,92.754 L 774.586,92.6621 L 774.522,92.5724 L 774.455,92.4929 L 774.391,92.4287 L 774.328,92.4076 L 774.267,92.4103 L 774.216,92.4498 L 774.147,92.5325 L 774.04,92.6763 L 773.965,92.7865 L 773.896,92.881 L 773.821,92.9562 L 773.755,93.0117 L 773.683,93.0517 L 773.591,93.0861 L 773.524,93.0968 L 773.434,93.1057 L 773.361,93.0989 L 773.284,93.0861 L 773.127,93.0524 L 772.959,93.0534 L 772.863,93.0763 L 772.74,93.1349 L 772.646,93.1874 L 772.57,93.2455 L 772.519,93.2953 L 772.483,93.343 L 772.464,93.4179 L 772.471,93.483 L 772.493,93.5376 L 772.538,93.6354 L 772.55,93.6984 L 772.518,93.8266 L 772.474,93.8921 L 772.434,93.9674 L 772.383,93.9977 L 772.314,94.0066 L 772.208,94.0374 L 772.113,94.1135 L 772.063,94.1731 L 772.014,94.2328 L 771.928,94.2793 L 771.797,94.2909 L 771.639,94.2535 L 771.433,94.1697 L 771.208,94.0761 L 771.041,93.9878 L 770.881,93.8937 L 770.681,93.798 L 770.534,93.7073 L 770.417,93.6203 L 770.236,93.483 L 770.15,93.3699 L 770.138,93.2953 L 770.162,93.1731 L 770.207,93.0621 L 770.259,92.9453 L 770.297,92.8111 L 770.317,92.7458 L 770.288,92.6263 L 770.233,92.5758 L 770.11,92.5321 L 769.99,92.514 L 769.887,92.5114 L 769.778,92.5504 L 769.684,92.5908 L 769.584,92.6395 L 769.498,92.6739 L 769.432,92.6925 L 769.288,92.6925 L 769.162,92.6588 L 768.994,92.6098 L 768.802,92.5258 L 768.535,92.4132 L 768.353,92.335 L 768.223,92.2914 L 768.079,92.2617 L 767.976,92.2534 L 767.835,92.2709 L 767.604,92.329 L 767.457,92.3842 L 767.328,92.4115 L 767.235,92.4126 L 767.143,92.408 L 767.028,92.3859 L 766.945,92.3495 L 766.852,92.2997 L 766.686,92.1878 L 766.559,92.1206 L 766.486,92.0919 L 766.395,92.0793 L 766.31,92.0865 L 766.201,92.1252 L 766.097,92.1798 L 766.025,92.2279 L 765.937,92.2546 L 765.866,92.2713 L 765.729,92.279 L 765.719,92.1021 L 765.365,91.5066 L 762.466,91.9522 L 761.388,88.739 L 757.488,91.0537 L 750.012,88.2219 L 750.226,87.204 L 754.223,85.1264 L 771.427,76.1826 L 772.755,73.9156 L 772.983,74.0339 L 775.59,75.2201 L 775.543,75.038 L 775.52,74.9776 L 775.487,74.9055 L 775.483,74.7893 L 775.508,74.7359 L 775.544,74.6702 L 775.582,74.5927 L 775.62,74.5311 L 775.663,74.487 L 775.723,74.4503 L 775.769,74.4161 L 775.821,74.358 L 775.84,74.2849 L 775.82,74.2065 L 775.795,74.1186 L 775.794,74.0595 L 775.81,73.9921 L 775.84,73.8952 L 775.882,73.8491 L 775.984,73.8257 L 776.059,73.8359 L 776.144,73.8718 L 776.25,73.915 L 776.311,73.9374 L 776.377,73.9047 L 776.51,73.8433 L 776.602,73.8297 L 776.68,73.8245 L 776.745,73.835 L 776.842,73.8687 L 776.931,73.8826 L 777.017,73.8635 L 777.097,73.8009 L 777.149,73.7292 L 777.218,73.5723 L 777.272,73.4178 L 777.28,73.3252 L 777.261,73.239 L 777.189,73.1832 L 777.126,73.1727 L 777.008,73.1846 L 776.881,73.191 L 776.808,73.1884 L 776.699,73.1747 L 776.632,73.1464 L 776.508,73.0226 L 776.497,72.962 L 776.499,72.895 L 776.537,72.798 L 776.608,72.6885 L 776.664,72.6323 L 776.767,72.589 L 776.851,72.5403 L 776.907,72.4999 L 776.976,72.4258 L 776.993,72.3664 L 776.999,72.2738 L 776.965,72.121 L 776.948,71.9914 L 776.957,71.9263 L 776.977,71.8649 L 777.021,71.7894 L 777.084,71.6995 L 777.123,71.6536 L 777.149,71.5961 L 777.16,71.5211 L 777.154,71.4367 L 777.12,71.3231 L 777.074,71.2513 L 776.998,71.1798 L 776.926,71.1083 L 776.884,71.0107 L 776.879,70.9222 L 776.899,70.849 L 776.955,70.787 L 777.048,70.744 L 777.111,70.725 L 777.172,70.7279 L 777.255,70.7363 L 777.355,70.7481 L 777.437,70.7289 L 777.5,70.6923 L 777.552,70.6342 L 777.586,70.5588 L 777.582,70.4821 L 777.567,70.4215 L 777.525,70.3436 L 777.46,70.2602 L 777.377,70.1796 L 777.591,70.2243 L 777.691,69.9733 L 777.769,69.8935 L 778.098,69.7006 L 778.465,69.3207 L 778.7,69.1927 L 778.803,69.1991 L 779.056,69.393 L 779.285,69.5104 L 779.451,69.4993 L 779.569,69.4522 L 779.678,69.3653 L 779.928,69.0943 L 779.982,69.0306 L 780.201,68.7451 L 780.373,68.6343 L 780.679,68.5291 L 780.978,68.4954 L 781.089,68.5264 L 781.262,68.5181 L 781.388,68.4772 L 781.552,68.3823 L 781.638,68.2773 L 781.816,67.8814 L 781.988,67.7708 L 782.436,67.6892 L 783.138,67.808 L 783.218,67.8955 L 783.227,68.0596 L 783.149,68.1799 L 783.159,68.4772 L 783.238,68.509 L 783.318,68.6091 L 783.345,69.1139 L 783.41,69.2948 L 783.514,69.4592 L 783.516,69.695 L 783.586,69.7021 L 783.737,69.7813 L 784.007,70.0775 L 784.322,70.0835 L 784.749,70.2538 L 784.907,70.3702 L 784.947,70.4868 L 785.003,70.5193 L 785.263,70.524 L 785.412,70.5536 L 785.801,70.9669 L 785.849,71.0555 L 785.89,71.2435 L 786.082,71.6441 L 786.162,71.7378 L 786.194,71.8393 L 786.205,72.1554 L 786.294,72.4288 L 786.341,72.4832 L 786.35,72.5791 L 786.279,72.6029 L 786.232,72.564 L 786.208,72.4935 L 786.096,72.3664 L 785.978,72.3296 L 785.813,72.3313 L 785.718,72.3776 L 785.767,72.5033 L 785.956,72.5349 L 786.051,72.5973 L 786.131,72.7065 L 786.179,72.9037 L 786.205,73.1077 L 786.159,73.3292 L 786.066,73.5398 L 785.824,73.7019 L 785.871,73.7411 L 785.895,73.8023 L 785.891,74.2367 L 785.861,74.4174 L 785.87,74.6125 L 786.061,74.824 L 786.11,74.99 L 786.261,75.1841 L 786.238,75.2652 L 786.073,75.2734 L 785.907,75.3156 L 785.665,75.4808 L 785.563,75.6081 L 785.501,75.7338 L 785.443,76.3342 L 785.412,76.4127 L 785.35,76.4859 L 784.88,76.7883 L 784.652,76.8198 L 784.581,76.791 L 784.485,76.6635 L 784.476,76.4995 L 784.545,76.2554 L 784.794,75.8603 L 784.84,75.7256 L 784.845,75.3625 L 784.786,74.8896 L 784.666,74.7103 L 784.421,74.6245 L 784.208,74.4788 L 783.94,74.4341 L 783.877,74.5352 L 783.783,74.5534 L 783.61,74.5152 L 783.24,74.5108 L 783.137,74.5511 L 783.17,74.7144 L 783.1,74.8188 L 783.109,74.9363 L 783.188,74.9681 L 783.243,74.9418 L 783.305,74.8623 L 783.454,74.7742 L 783.643,74.7436 L 784.013,74.7793 L 784.132,74.8408 L 784.402,75.1306 L 784.49,75.2956 L 784.546,75.3497 L 784.594,75.4661 L 784.595,75.6244 L 784.479,75.8945 L 784.315,76.0669 L 784.08,76.1886 L 784.033,76.2581 L 784.053,76.7538 L 784.165,76.9583 L 784.276,77.1009 L 784.45,77.1857 L 784.734,77.2392 L 784.978,77.1481 L 785.346,76.9264 L 785.44,76.8924 L 785.441,77.0197 L 785.247,77.3201 L 784.925,77.5344 L 784.02,77.583 L 783.776,77.522 L 783.61,77.5237 L 783.319,77.5727 L 783.367,77.6674 L 783.769,77.6866 L 784.163,77.7772 L 784.62,77.7823 L 785.013,77.6932 L 785.014,77.7552 L 784.669,77.939 L 784.591,78.0498 L 784.232,78.3924 L 783.91,78.5197 L 783.729,78.553 L 783.508,78.4604 L 783.374,78.455 L 783.232,78.5027 L 783.154,78.5733 L 783.179,78.6998 L 783.344,78.6576 L 783.462,78.6727 L 783.541,78.751 L 783.589,78.8364 L 783.607,79.0653 L 783.671,79.2557 L 783.735,79.2943 L 783.854,79.4179 L 783.886,79.5285 L 783.934,79.5769 L 784.012,79.5496 L 784.043,79.4804 L 783.987,79.3239 L 783.939,79.1672 L 783.921,78.867 L 783.967,78.788 L 784.077,78.7227"/><path id="path15045" d="M 784.214,68.3592 L 784.016,68.2254 L 783.557,68.0652 L 783.573,68.0028 L 783.959,68.0627 L 784.307,68.2727 L 784.284,68.3571 L 784.214,68.3592"/><path id="path15047" d="M 787.177,69.704 L 787.233,69.7986 L 787.251,70.0742 L 787.308,70.271 L 787.317,70.4289 L 787.286,70.4918 L 787.168,70.5325 L 787.089,70.4759 L 787.103,70.3206 L 786.954,70.3063 L 786.789,70.426 L 786.814,70.5338 L 786.823,70.6762 L 786.784,70.7394 L 786.604,70.8843 L 786.455,70.9228 L 786.289,70.8223 L 786.272,70.7607 L 786.319,70.688 L 786.507,70.5925 L 786.538,70.5048 L 786.498,70.4595 L 786.435,70.4581 L 786.317,70.5081 L 786.176,70.5155 L 785.986,70.4064 L 785.677,70.1116 L 785.344,69.9167 L 784.784,69.7968 L 784.398,69.7587 L 784.327,69.7112 L 784.342,69.5867 L 784.474,69.4277 L 784.449,69.2549 L 784.386,69.2566 L 784.284,69.3496 L 784.153,69.6264 L 784.011,69.6524 L 783.916,69.59 L 783.646,69.2444 L 783.55,69.0736 L 783.509,68.9384 L 783.515,68.6963 L 783.609,68.6252 L 783.601,68.5541 L 783.411,68.4605 L 783.34,68.3974 L 783.323,68.2957 L 783.378,68.2227 L 783.472,68.1921 L 783.63,68.1996 L 784.025,68.3927 L 784.309,68.4989 L 785.171,68.9729 L 785.566,69.1038 L 785.842,69.1265 L 786.465,69.2787 L 786.75,69.4408 L 786.939,69.5034 L 787.177,69.704"/><path id="path15049" d="M 785.012,68.7139 L 784.473,68.3949 L 784.473,68.3329 L 784.575,68.3174 L 785.097,68.6027 L 785.082,68.6901 L 785.012,68.7139"/><path id="path15053" d="M 790.981,71.6726 L 790.751,71.5428 L 790.616,71.3236 L 790.607,71.2029 L 790.465,71.2069 L 790.266,70.9555 L 790.21,70.8455 L 790.21,70.7835 L 790.238,70.3733 L 790.324,70.3553 L 790.826,71.007 L 790.914,71.169 L 791.104,71.309 L 791.279,71.5767 L 791.636,71.898 L 791.867,72.1549 L 791.939,72.3573 L 792.137,72.5531 L 792.202,72.7807 L 792.179,72.8373 L 791.839,72.6891 L 791.522,72.4164 L 791.474,72.3248 L 791.48,72.064 L 791.377,71.9554 L 791.179,71.8527 L 790.981,71.6726"/><path id="path15061" d="M 787.354,71.0822 L 787.472,71.1593 L 787.497,71.292 L 787.577,71.4572 L 787.594,71.5591 L 787.626,71.6635 L 787.691,71.9437 L 787.709,72.1884 L 787.662,72.2827 L 787.459,72.4594 L 787.288,72.728 L 787.226,72.8849 L 787.149,73.0114 L 787.087,73.1714 L 786.923,73.2973 L 786.852,73.2899 L 786.804,73.2355 L 786.756,73.1191 L 786.754,72.8898 L 786.8,72.7487 L 786.791,72.5754 L 786.743,72.4247 L 786.703,72.3794 L 786.616,72.3945 L 786.618,72.5525 L 786.642,72.6139 L 786.588,72.8667 L 786.55,72.9454 L 786.568,73.2861 L 786.458,73.2706 L 786.434,73.1691 L 786.439,72.8681 L 786.493,72.6711 L 786.411,72.2703 L 786.383,71.7439 L 786.31,71.5072 L 786.214,71.3518 L 786.182,71.2472 L 786.228,71.1529 L 786.41,71.1908 L 786.481,71.2385 L 786.584,71.2912 L 786.757,71.2581 L 786.913,71.1635 L 787.015,71.1078 L 787.173,71.0597 L 787.354,71.0822"/><path id="path15065" d="M 787.91,72.6507 L 788.052,72.7147 L 788.132,72.8239 L 788.189,73.0922 L 788.285,73.3343 L 788.468,73.577 L 788.461,73.6394 L 788.375,73.7194 L 787.992,74.0533 L 787.906,74.0775 L 787.842,74.0299 L 787.732,74.0393 L 787.772,74.1404 L 787.836,74.2284 L 787.844,74.2904 L 787.704,74.4713 L 787.697,74.5428 L 787.642,74.6375 L 787.236,75.028 L 787.111,75.1558 L 786.961,75.1476 L 786.874,75.1256 L 786.686,75.1434 L 786.583,75.0814 L 786.535,74.9557 L 786.377,74.917 L 786.146,74.5888 L 786.114,74.5028 L 786.129,74.4219 L 786.183,74.3427 L 786.395,74.2869 L 786.411,74.2305 L 786.205,74.1776 L 786.18,73.9272 L 786.313,73.8147 L 786.359,73.6581 L 786.429,73.5537 L 786.531,73.5446 L 786.565,73.767 L 786.471,73.8999 L 786.472,73.996 L 786.701,74.0885 L 786.741,74.1649 L 786.836,74.221 L 786.993,74.1883 L 787.087,74.0988 L 787.133,73.9578 L 787.132,73.84 L 787.155,73.7618 L 787.255,73.5232 L 787.277,73.2401 L 787.331,73.0898 L 787.541,72.8663 L 787.698,72.7408 L 787.91,72.6507"/><path id="path15071" d="M 786.021,76.7637 L 785.966,76.7063 L 785.949,76.589 L 786.152,76.304 L 786.158,76.1549 L 786.025,76.1556 L 786.007,75.9825 L 786.172,75.8566 L 786.4,75.8529 L 786.856,75.7464 L 786.912,75.8502 L 786.881,75.9689 L 786.578,76.4433 L 786.312,76.6651 L 786.132,76.7449 L 786.021,76.7637"/><path id="path15085" d="M 790.263,82.2952 L 790.169,82.2638 L 790.089,82.1546 L 790.08,81.9595 L 790.117,81.8001 L 790.234,81.533 L 790.364,81.0889 L 790.458,81.0271 L 790.513,81.0565 L 790.515,81.2921 L 790.685,81.7802 L 790.687,82.0252 L 790.648,82.1505 L 790.531,82.2377 L 790.263,82.2952"/></g></svg>