<svg xmlns="http://www.w3.org/2000/svg" role="img" viewBox="1441.87 771.74 87.52 104.39"><title>Lakeville</title><g id="g14955" fill="#fefee9" fill-opacity="1" fill-rule="evenodd" stroke="#000" stroke-linecap="square" stroke-linejoin="bevel" stroke-opacity="1" stroke-width=".098" transform="translate(-216.714 -21.7) scale(2.264)"><path id="path15871" fill-rule="evenodd" d="M 746.018,351.95 L 746.083,351.884 L 746.145,351.797 L 746.248,351.705 L 746.338,351.634 L 746.41,351.582 L 746.483,351.48 L 746.567,351.391 L 746.642,351.391 L 746.69,351.469 L 746.704,351.526 L 746.772,351.602 L 746.844,351.694 L 746.903,351.699 L 746.945,351.757 L 746.964,351.839 L 747.021,351.899 L 747.106,351.904 L 747.228,351.933 L 747.296,351.977 L 747.338,352.018 L 747.378,352.076 L 747.435,352.132 L 747.51,352.162 L 747.614,352.239 L 747.632,352.308 L 747.656,352.368 L 747.7,352.431 L 747.756,352.502 L 747.783,352.59 L 747.829,352.662 L 747.877,352.707 L 747.969,352.721 L 748.059,352.677 L 748.124,352.625 L 748.195,352.614 L 748.282,352.656 L 748.345,352.71 L 748.393,352.78 L 748.412,352.845 L 748.467,352.903 L 748.509,352.959 L 748.459,352.999 L 748.55,353.045 L 748.547,353.114 L 748.599,353.188 L 748.652,353.236 L 748.704,353.301 L 748.772,353.378 L 748.777,353.469 L 748.862,353.532 L 748.948,353.496 L 749.009,353.485 L 749.065,353.506 L 749.136,353.531 L 749.206,353.471 L 749.261,353.5 L 749.333,353.55 L 749.417,353.539 L 749.539,353.53 L 749.659,353.505 L 749.784,353.48 L 749.865,353.449 L 749.98,353.396 L 750.088,353.397 L 750.163,353.412 L 750.221,353.443 L 750.286,353.495 L 750.36,353.547 L 750.467,353.597 L 750.557,353.598 L 750.704,353.576 L 750.799,353.56 L 750.895,353.529 L 750.969,353.491 L 751.053,353.476 L 751.197,353.496 L 751.257,353.532 L 751.322,353.602 L 751.524,353.82 L 751.687,354.001 L 751.84,354.151 L 751.88,354.207 L 751.905,354.266 L 751.914,354.352 L 751.953,354.505 L 752.003,354.611 L 752.031,354.669 L 752.115,354.739 L 752.19,354.793 L 752.244,354.858 L 752.272,354.915 L 752.283,354.975 L 752.26,355.042 L 752.228,355.171 L 752.28,355.215 L 763.574,361.085 L 764.246,361.693 L 764.291,361.956 L 764.335,362.154 L 764.352,362.268 L 764.369,362.397 L 764.379,362.503 L 764.373,362.655 L 764.358,362.803 L 764.329,362.94 L 764.306,363.07 L 764.309,363.202 L 764.31,363.287 L 764.322,363.345 L 764.38,363.379 L 764.511,363.403 L 764.618,363.423 L 764.694,363.451 L 764.753,363.504 L 764.784,363.584 L 764.822,363.666 L 764.876,363.743 L 764.964,363.825 L 765.051,363.891 L 765.135,363.964 L 765.166,364.014 L 765.168,364.077 L 765.138,364.174 L 765.111,364.256 L 765.058,364.312 L 765.009,364.373 L 764.954,364.427 L 764.896,364.463 L 764.844,364.506 L 764.798,364.546 L 764.733,364.652 L 764.709,364.706 L 764.653,364.796 L 764.591,364.848 L 764.522,364.879 L 764.412,364.947 L 764.352,364.992 L 764.308,365.033 L 764.256,365.111 L 764.24,365.186 L 764.314,365.298 L 764.595,365.469 L 764.639,365.509 L 764.635,365.571 L 764.581,365.606 L 764.498,365.649 L 764.461,365.729 L 764.488,365.787 L 764.642,365.816 L 764.708,365.844 L 764.73,365.93 L 764.7,365.982 L 764.647,366.054 L 764.627,366.171 L 764.669,366.251 L 764.779,366.244 L 764.856,366.257 L 764.911,366.273 L 764.995,366.304 L 765.028,366.354 L 764.99,366.422 L 764.863,366.448 L 764.793,366.473 L 764.775,366.533 L 764.795,366.662 L 764.825,366.831 L 764.852,366.893 L 764.919,366.944 L 764.983,366.98 L 765.079,366.993 L 765.179,366.976 L 765.245,366.998 L 765.258,367.139 L 765.235,367.222 L 765.187,367.334 L 765.156,367.402 L 765.038,367.46 L 764.961,367.48 L 764.928,367.621 L 764.924,367.688 L 764.885,367.764 L 764.767,367.771 L 764.567,367.708 L 764.508,367.696 L 764.404,367.713 L 764.312,367.81 L 764.08,368.092 L 764.073,368.171 L 764.111,368.217 L 764.149,368.277 L 764.167,368.371 L 764.236,368.458 L 764.278,368.539 L 764.272,368.665 L 764.244,368.753 L 764.2,368.912 L 764.191,369.069 L 764.177,369.139 L 764.105,369.306 L 764.051,369.4 L 764.029,369.482 L 763.997,369.583 L 763.949,369.689 L 763.899,369.8 L 763.84,369.963 L 763.807,370.09 L 763.786,370.187 L 763.771,370.292 L 763.786,370.388 L 770.113,378.168 L 770.23,378.31 L 770.279,378.397 L 770.318,378.512 L 770.342,378.604 L 770.346,378.69 L 770.335,378.789 L 770.313,378.884 L 770.268,379.041 L 770.242,379.162 L 769.198,382.623 L 769.027,383.146 L 769.659,390.176 L 763.104,391.254 L 746.648,394.013 L 743.137,394.601 L 736.246,395.694 L 739.207,388.552 L 733.505,382.763 L 740.973,375.166 L 743.011,373.159 L 743.808,372.358 L 743.919,372.265 L 744.043,372.143 L 744.736,371.589 L 745.095,371.348 L 745.299,371.211 L 745.435,371.142 L 745.495,371.094 L 745.6,370.99 L 745.811,370.76 L 745.997,370.503 L 746.041,370.409 L 745.985,370.371 L 746.374,369.887 L 746.422,369.788 L 747.236,369.297 L 748.061,368.924 L 748.46,368.671 L 748.716,368.417 L 748.919,368.147 L 749.611,367.381 L 749.226,365.455 L 748.751,363.04 L 748.692,362.498 L 746.018,351.95"/></g></svg>