<svg xmlns="http://www.w3.org/2000/svg" role="img" viewBox="112.74 369.24 67.89 71.89"><title>Lenox</title><path fill-rule="evenodd" d="M137.0043 370.74402l26.33032 5.93395 15.86159 3.81937-4.31745 18.51725-1.72064 1.12747-3.93936 2.73944 1.09804 5.30908-1.18634-1.8678-.68372-1.02106.08603.57053-.01811.18565-.06113.15848-.12226.1879-.06565.19018-.05887.13584-.08377.15848-.0317.15622-.03622.20376-.0498.15395.0317.30338.04074.163.05434.31244.05207.32149.01585.14716.02264.75844.01585.23319.00453.14263.1132.09735.18112-.0815.10867-.07245.10414-.09509.12679-.06792.14716.03849.07924.12226-.01812.17885-.17206.33055-.11094.29884-.24224.5479-.19244.52977-.1698.47317-.38488 1.1569-.05887.21735.01359.16527.06565.16528.11773.1381.21055.11546.09962.0883.11773.10867.07018.13131.03622.1449.0317.17886-.0249.26715-.09283.29205-.1381.3464-.0634.17659-.07244.163-.04302.13811-.0317.19018-.01584.22187-.00453.15169.01358.16527.0951.09282.14715-.00226.1132-.17433.09056-.13131.14716-.10188.64977-.20603.16074-.01358.12905.04302.10867.12678-.04075.14716-.08377.163-.08603.15849-.11093.19244-.0883.10414-.11094.1132-.1381.1698-.14263.1698-.07245.10867-.0815.1766-.0634.21281-.12225.21961-.11094.1132-.19017.11094-.17433.06112-.53657.09736-.2513.06565-.13584.02264-.14264.03623-.16753.09282-.1766.11094-.15621.15621-.2196.23999-.13811.15168-.14263.16075-.06113.12452-.1132.18338-.10188.14037-.0815.12226-.09283.1132-.15395.19696-.06113.14943-.07018.15395-.06566.13131.01811.14263.0883.12.0815.16527.03396.2196-.00453.14264-.02264.14716-.02264.16753-.05207.13358-.06113.15848.02717.26262.03623.15848.05886.12452.09282.19924.12452.18112.10415.11546.10188.11773.02717.19244-.04755.25357-.06339.17206-.0883.17886-.07924.1313-.1064.1449-.14037.17433-.09735.14943-.01812.56147.00227 1.13426.01585.92371.03396.20603.04528.16527.04301.163.04981.12906.14716 9.16014-3.40958-.17206-16.57022-.5411-.02717 1.71838-1.8429-.00453.33508 1.23614-4.36047-.09056.52525-22.44303-24.62779-.29885-1.31312-13.13799 2.45644-.15848.01811-4.65931.05434-2.43833 4.9808.21508-1.12521-10.874 7.05689.10189 1.73196-11.39245 6.81917 1.7614.77428-5.5853" fill="#fefee9" fill-opacity="1" stroke="#000" stroke-linecap="square" stroke-linejoin="bevel" stroke-opacity="1" stroke-width=".22187199999999999"/></svg>