<svg xmlns="http://www.w3.org/2000/svg" role="img" viewBox="1303.56 318.94 57.51 68.38"><title>Lexington</title><g id="g14955" fill="#fefee9" fill-opacity="1" fill-rule="evenodd" stroke="#000" stroke-linecap="square" stroke-linejoin="bevel" stroke-opacity="1" stroke-width=".098" transform="translate(-216.714 -21.7) scale(2.264)"><path id="path15337" fill-rule="evenodd" d="M 680.18,151.129 L 687.545,159.301 L 687.612,159.265 L 687.668,159.22 L 687.709,159.139 L 687.746,159.054 L 687.842,158.985 L 687.876,158.937 L 688.03,157.751 L 689.533,159.422 L 688.856,160.213 L 691.433,163.086 L 691.836,163.658 L 692.234,163.826 L 693.08,164.735 L 693.301,164.954 L 693.867,165.843 L 694.145,166.432 L 694.335,166.632 L 694.829,166.759 L 695.133,167.094 L 696.293,168.273 L 695.206,169.622 L 694.38,170.979 L 692.733,173.308 L 691.669,174.689 L 690.911,175.722 L 690.556,176.271 L 690.411,176.497 L 687.858,180.043 L 678.081,175.735 L 673.549,173.774 L 673.796,171.854 L 673.791,171.701 L 673.343,169.378 L 673.083,168.228 L 672.128,161.62 L 674.961,155.913 L 676.208,155.136 L 677.38,152.887 L 678.024,152.474 L 680.18,151.129"/></g></svg>