<svg xmlns="http://www.w3.org/2000/svg" role="img" viewBox="1249.59 337.71 60.33 60.45"><title>Lincoln</title><g id="g14955" fill="#fefee9" fill-opacity="1" fill-rule="evenodd" stroke="#000" stroke-linecap="square" stroke-linejoin="bevel" stroke-opacity="1" stroke-width=".098" transform="translate(-216.714 -21.7) scale(2.264)"><path id="path15357" fill-rule="evenodd" d="M 667.783,159.378 L 669.511,161.101 L 669.79,161.63 L 670.039,161.461 L 670.086,161.516 L 670.204,161.48 L 670.376,161.631 L 670.758,161.413 L 670.785,161.277 L 672.128,161.62 L 673.083,168.228 L 673.343,169.378 L 673.791,171.701 L 673.796,171.854 L 673.549,173.774 L 672.404,176.417 L 672.634,176.502 L 671.73,178.776 L 669.937,177.994 L 668.764,180.786 L 669.996,181.255 L 669.588,182.274 L 669.491,182.525 L 666.904,181.426 L 662.67,182.311 L 662.097,183.628 L 661.77,183.468 L 661.339,184.433 L 661.497,184.532 L 660.778,184.88 L 660.7,184.898 L 660.483,184.763 L 660.149,184.666 L 659.728,184.71 L 656.408,183.531 L 656.896,182.402 L 648.229,177.846 L 648.481,177.633 L 648.534,177.576 L 648.584,177.487 L 648.602,177.42 L 648.627,177.3 L 648.658,177.206 L 648.673,177.149 L 648.697,177.086 L 648.738,176.985 L 648.794,176.873 L 648.827,176.818 L 648.86,176.76 L 648.872,176.701 L 648.872,176.585 L 648.849,176.444 L 648.825,176.34 L 648.793,176.212 L 648.755,176.094 L 648.724,175.97 L 648.717,175.856 L 648.706,175.647 L 648.714,175.478 L 648.723,175.377 L 648.75,175.247 L 648.801,175.184 L 648.856,175.152 L 648.997,175.086 L 649.317,174.988 L 649.397,174.968 L 649.501,174.957 L 649.612,174.992 L 650.111,175.151 L 650.56,175.374 L 650.633,175.405 L 650.704,175.406 L 650.767,175.375 L 650.816,175.304 L 650.948,175.049 L 651.001,174.97 L 651.201,174.784 L 651.281,174.699 L 651.308,174.618 L 651.52,173.706 L 651.728,173.048 L 651.79,172.942 L 656.172,169.205 L 661.694,163.238 L 662.098,163.541 L 662.521,163.815 L 662.73,163.914 L 663.454,163.976 L 663.945,164.043 L 663.963,163.966 L 664.361,161.083 L 664.609,161.129 L 664.579,160.814 L 667.891,159.94 L 667.783,159.378"/></g></svg>