<svg xmlns="http://www.w3.org/2000/svg" role="img" viewBox="1147.93 251.56 68.51 62.63"><title>Littleton</title><g id="g14955" fill="#fefee9" fill-opacity="1" fill-rule="evenodd" stroke="#000" stroke-linecap="square" stroke-linejoin="bevel" stroke-opacity="1" stroke-width=".098" transform="translate(-216.714 -21.7) scale(2.264)"><path id="path15225" fill-rule="evenodd" d="M 614.676,121.369 L 618.326,122.424 L 619.268,127.82 L 632.422,137.888 L 630.743,140.19 L 628.466,144.7 L 620.931,147.756 L 614.308,144.69 L 614.176,144.645 L 613.505,145.467 L 611.881,144.379 L 611.263,144.771 L 610.418,143.894 L 609.656,142.49 L 606.608,141.025 L 606.191,140.825 L 604.295,133.022 L 603.415,130.499 L 605.76,129.687 L 605.74,129.569 L 605.804,129.476 L 605.846,129.429 L 605.898,129.375 L 605.971,129.32 L 606.03,129.29 L 606.159,129.183 L 606.647,128.809 L 606.688,128.726 L 606.69,128.626 L 606.756,128.57 L 606.851,128.57 L 606.935,128.546 L 607.002,128.508 L 607.092,128.46 L 607.139,128.399 L 607.153,128.342 L 607.206,128.297 L 607.314,128.243 L 607.396,128.148 L 607.415,128.036 L 607.492,128.018 L 607.561,128.039 L 607.588,127.96 L 607.645,127.907 L 607.703,127.875 L 607.701,127.802 L 607.76,127.761 L 607.825,127.729 L 607.933,127.659 L 607.958,127.579 L 607.94,127.494 L 607.941,127.398 L 608.026,127.299 L 608.161,127.298 L 608.293,127.197 L 608.896,125.686 L 611.26,123.938 L 612.564,122.974 L 613.415,121.853 L 614.311,121.506 L 614.676,121.369"/></g></svg>