<svg xmlns="http://www.w3.org/2000/svg" role="img" viewBox="528.98 641.29 46.48 39.04"><title>Longmeadow</title><path fill-rule="evenodd" d="M571.86437 649.27942l.63618 5.3204 1.96742 17.53241-10.43025 1.33803-13.51608 1.70252-5.48794 4.20652-14.38092-.52752-.58412-4.53252-.06112-1.39463.02943-.55468.06792-3.26016.03396-.9305.05207-.59317.09282-.56374.07698-.85805.2264-2.667.39167-1.73648.2898-.86032.28526-.75844.29885-.67241 1.33802-2.76887 1.48518-3.12206.89202-1.54405 1.88818-3.396 2.29343-4.08878.10188-.18565.18112-.26036.18565-.24677 1.0686-1.52368 30.57759 6.94596" fill="#fefee9" fill-opacity="1" stroke="#000" stroke-linecap="square" stroke-linejoin="bevel" stroke-opacity="1" stroke-width=".22187199999999999"/></svg>