<svg xmlns="http://www.w3.org/2000/svg" role="img" viewBox="1454.33 301.45 54.09 54.34"><title>Lynn</title><g id="g14955" fill="#fefee9" fill-opacity="1" fill-rule="evenodd" stroke="#000" stroke-linecap="square" stroke-linejoin="bevel" stroke-opacity="1" stroke-width=".098" transform="translate(-216.714 -21.7) scale(2.264)"><path id="path15315" fill-rule="evenodd" d="M 744.861,143.354 L 750.638,147.352 L 752.486,148.585 L 754.319,149.185 L 758.378,150.515 L 761.497,158.697 L 761.437,158.739 L 760.522,159.722 L 760.109,160.261 L 760.102,160.364 L 760.159,160.771 L 760.018,160.797 L 759.741,160.616 L 759.599,160.561 L 759.473,160.612 L 759.348,160.69 L 759.176,160.912 L 759.066,160.999 L 758.901,161.001 L 758.752,161.039 L 758.603,161.152 L 758.47,161.327 L 758.198,161.896 L 758.076,162.262 L 757.802,162.164 L 757.037,162.75 L 757.014,162.588 L 757.068,162.463 L 757.075,162.326 L 757.003,162.17 L 756.97,161.972 L 756.545,161.923 L 756.377,161.599 L 756.361,161.513 L 756.259,161.507 L 756.213,161.806 L 756.072,161.893 L 755.946,161.879 L 755.891,161.855 L 755.864,161.36 L 755.824,161.234 L 755.737,161.234 L 755.557,161.329 L 755.534,161.463 L 755.253,161.819 L 755.245,161.906 L 755.207,162.024 L 755.445,162.275 L 755.022,162.672 L 754.944,162.705 L 754.856,162.643 L 754.786,162.626 L 754.685,162.831 L 754.678,162.958 L 754.687,163.203 L 754.656,163.272 L 754.444,163.353 L 754.311,163.533 L 754.256,163.55 L 754.161,163.386 L 754.082,163.354 L 753.995,163.428 L 753.996,163.496 L 754.154,163.621 L 754.147,163.693 L 751.077,166.258 L 750.746,166.228 L 750.47,166.152 L 750.32,166.12 L 750.242,166.128 L 750.116,166.194 L 750.076,166.09 L 749.88,166.219 L 749.715,166.212 L 749.525,166.149 L 749.462,166.033 L 749.548,165.99 L 749.69,166.101 L 749.777,166.086 L 749.863,166.012 L 750.099,165.94 L 750.097,165.76 L 749.814,165.855 L 749.752,165.935 L 749.649,165.811 L 749.648,165.715 L 749.608,165.567 L 749.434,165.488 L 749.261,165.531 L 749.111,165.498 L 749.071,165.437 L 748.969,165.421 L 748.795,165.336 L 748.646,165.338 L 747.815,164.736 L 747.625,164.571 L 747.198,164.299 L 746.953,164.197 L 746.495,164.059 L 746.045,163.756 L 745.981,163.606 L 745.98,163.528 L 746.215,163.354 L 746.758,163.217 L 746.836,163.177 L 747.031,162.874 L 747.046,162.78 L 747.172,162.755 L 747.281,162.575 L 747.501,162.463 L 747.618,162.345 L 747.689,162.302 L 747.87,162.294 L 748.05,162.158 L 747.947,162.096 L 747.938,161.979 L 747.836,161.979 L 747.711,162.106 L 747.617,162.156 L 747.301,162.134 L 747.246,161.993 L 747.183,161.992 L 747.121,162.158 L 747.05,162.207 L 747.018,162.121 L 747.018,162.003 L 746.931,162.027 L 746.908,162.127 L 746.948,162.207 L 746.925,162.365 L 746.679,162.004 L 746.426,161.933 L 746.339,161.88 L 746.244,161.722 L 746.203,161.528 L 746.085,161.482 L 745.675,161.444 L 745.517,161.359 L 745.399,161.328 L 745.366,161.177 L 745.168,161.031 L 745.089,161.006 L 744.806,161.048 L 744.791,161.11 L 744.972,161.158 L 744.949,161.251 L 744.839,161.283 L 744.833,161.543 L 744.822,161.643 L 744.71,161.656 L 744.675,161.547 L 744.704,161.459 L 744.667,161.387 L 744.471,161.298 L 741.711,151.84 L 740.788,148.69 L 739.22,147.426 L 738.591,146.909 L 741.125,145.049 L 741.67,145.029 L 742.322,145.015 L 742.727,145.519 L 744.499,144.225 L 743.892,143.783 L 743.691,143.627 L 743.344,143.341 L 743.297,143.252 L 743.4,143.249 L 743.485,143.281 L 743.576,143.31 L 743.68,143.332 L 743.761,143.356 L 743.842,143.372 L 743.925,143.39 L 744.016,143.402 L 744.116,143.408 L 744.244,143.411 L 744.368,143.405 L 744.514,143.4 L 744.655,143.396 L 744.779,143.38 L 744.861,143.354"/></g></svg>