<svg xmlns="http://www.w3.org/2000/svg" role="img" viewBox="1417.36 252.86 53.40 59.15"><title>Lynnfield</title><g id="g14955" fill="#fefee9" fill-opacity="1" fill-rule="evenodd" stroke="#000" stroke-linecap="square" stroke-linejoin="bevel" stroke-opacity="1" stroke-width=".098" transform="translate(-216.714 -21.7) scale(2.264)"><path id="path15227" fill-rule="evenodd" d="M 732.634,124.944 L 733.392,129.854 L 740.174,139.565 L 741.645,140.745 L 744.861,143.354 L 744.779,143.38 L 744.655,143.396 L 744.514,143.4 L 744.368,143.405 L 744.244,143.411 L 744.116,143.408 L 744.016,143.402 L 743.925,143.39 L 743.842,143.372 L 743.761,143.356 L 743.68,143.332 L 743.576,143.31 L 743.485,143.281 L 743.4,143.249 L 743.297,143.252 L 743.344,143.341 L 743.691,143.627 L 743.892,143.783 L 744.499,144.225 L 742.727,145.519 L 742.322,145.015 L 741.67,145.029 L 741.125,145.049 L 738.591,146.909 L 732.392,145.712 L 732.408,145.647 L 732.485,145.567 L 732.498,145.508 L 732.515,145.427 L 732.555,145.322 L 732.601,145.213 L 732.651,145.132 L 732.658,145.067 L 732.606,145.021 L 732.529,144.996 L 732.454,144.958 L 732.459,144.897 L 732.485,144.814 L 732.511,144.709 L 732.471,144.647 L 732.409,144.567 L 732.371,144.504 L 732.342,144.42 L 732.355,144.355 L 732.303,144.281 L 732.229,144.219 L 732.213,144.16 L 732.149,144.084 L 732.081,144.028 L 732.112,143.951 L 732.183,143.824 L 732.201,143.751 L 732.202,143.631 L 732.181,143.517 L 732.207,143.402 L 732.209,143.251 L 732.145,143.167 L 731.935,142.922 L 731.832,142.783 L 731.768,142.66 L 731.689,142.535 L 731.627,142.577 L 731.566,142.559 L 731.488,142.516 L 731.481,142.414 L 731.539,142.354 L 731.622,142.251 L 731.665,142.174 L 731.707,142.09 L 731.759,142.021 L 731.75,141.94 L 731.693,141.781 L 731.619,141.737 L 731.483,141.68 L 731.36,141.613 L 731.3,141.558 L 731.256,141.504 L 731.23,141.433 L 731.187,141.216 L 731.184,141.103 L 731.19,140.967 L 731.154,140.901 L 731.112,140.852 L 731.018,140.773 L 730.931,140.697 L 730.924,140.638 L 730.939,140.571 L 730.987,140.49 L 731.027,140.42 L 731.108,140.278 L 731.097,140.185 L 731.078,140.123 L 731.062,140.046 L 731.086,139.959 L 731.158,139.907 L 731.235,139.885 L 731.305,139.864 L 731.355,139.787 L 731.414,139.64 L 731.485,139.487 L 731.567,139.461 L 731.645,139.397 L 731.654,139.332 L 731.653,139.263 L 731.635,139.184 L 731.596,139.114 L 731.519,139.052 L 731.426,139.002 L 731.348,138.966 L 731.3,138.882 L 731.277,138.79 L 731.221,138.68 L 731.15,138.593 L 731.079,138.527 L 731.025,138.474 L 726.861,139.181 L 726.755,139.212 L 726.683,139.248 L 726.624,139.271 L 726.532,139.276 L 726.476,139.253 L 726.411,139.216 L 726.352,139.211 L 726.291,139.198 L 726.225,139.164 L 726.177,139.115 L 726.113,139.055 L 726.067,139.009 L 725.997,139.029 L 725.901,139.054 L 725.808,139.04 L 725.702,139.179 L 725.633,139.18 L 725.547,139.132 L 725.435,139.088 L 725.354,139.063 L 725.253,139.057 L 725.181,139.083 L 725.094,139.122 L 725.025,139.089 L 724.936,139.038 L 724.833,138.99 L 724.738,138.973 L 724.63,138.967 L 724.301,139.007 L 722.34,136.855 L 723.363,128.299 L 724.884,126.132 L 726.909,122.054 L 726.949,121.999 L 727.02,121.956 L 727.04,121.879 L 727.13,121.858 L 727.189,121.842 L 727.204,121.913 L 727.169,121.976 L 727.17,122.059 L 727.226,122.085 L 727.27,122.156 L 727.35,122.115 L 727.434,122.063 L 727.507,122.095 L 727.584,122.205 L 727.654,122.33 L 727.732,122.364 L 727.803,122.377 L 727.879,122.462 L 727.879,122.527 L 727.797,122.55 L 727.764,122.608 L 727.836,122.646 L 727.934,122.617 L 728.028,122.642 L 728.045,122.706 L 728.019,122.803 L 728.082,122.812 L 728.138,122.735 L 728.207,122.744 L 728.255,122.804 L 728.342,122.836 L 728.396,122.883 L 728.43,122.937 L 728.501,122.942 L 728.542,122.898 L 728.614,122.856 L 728.689,122.897 L 728.791,122.972 L 728.846,122.989 L 728.954,122.993 L 729.017,122.953 L 729.144,122.867 L 729.294,122.741 L 729.524,122.606 L 729.716,122.509 L 729.792,122.486 L 729.943,122.437 L 730.035,122.394 L 730.093,122.337 L 730.112,122.248 L 730.168,122.168 L 730.224,122.13 L 730.307,122.117 L 730.372,122.169 L 730.448,122.234 L 730.557,122.289 L 730.638,122.288 L 730.724,122.263 L 730.789,122.249 L 730.882,122.269 L 730.941,122.306 L 731.049,122.412 L 731.121,122.484 L 731.157,122.541 L 731.195,122.621 L 731.203,122.725 L 731.206,122.836 L 731.223,122.932 L 731.346,122.958 L 731.81,122.973 L 731.855,122.908 L 731.919,122.832 L 732.007,122.805 L 732.084,122.847 L 732.202,122.97 L 732.294,123.093 L 732.358,123.188 L 732.38,123.284 L 732.634,124.944"/></g></svg>