<svg xmlns="http://www.w3.org/2000/svg" role="img" viewBox="1519.43 287.36 52.59 44.59"><title>Marblehead</title><g id="g14955" fill="#fefee9" fill-opacity="1" fill-rule="evenodd" stroke="#000" stroke-linecap="square" stroke-linejoin="bevel" stroke-opacity="1" stroke-width=".098" transform="translate(-216.714 -21.7) scale(2.264)"><path id="path15283" d="M 782.984,137.396 L 782.983,137.231 L 782.888,137.194 L 782.848,137.105 L 783.012,137.026 L 783.162,137.055 L 783.226,137.103 L 783.226,137.199 L 783.118,137.395 L 782.984,137.396"/><path id="path15287" d="M 794.054,138.235 L 793.967,138.166 L 793.95,137.946 L 793.917,137.882 L 793.9,137.724 L 793.963,137.669 L 794.137,137.692 L 794.154,137.887 L 794.234,138.028 L 794.132,138.195 L 794.054,138.235"/><path id="path15289" d="M 788.97,138.608 L 788.851,138.466 L 788.85,138.333 L 789.281,138.062 L 789.47,138.06 L 789.479,138.178 L 789.252,138.401 L 789.12,138.576 L 788.97,138.608"/><path id="path15293" d="M 794.561,139.547 L 794.299,139.248 L 794.511,139.232 L 794.7,139.27 L 794.741,139.433 L 794.702,139.521 L 794.561,139.547"/><path id="path15295" d="M 770.68,147.963 L 771.127,147.757 L 771.374,147.512 L 771.506,147.388 L 771.764,147.231 L 771.927,147.04 L 772.226,146.911 L 772.47,146.903 L 772.587,146.801 L 772.767,146.619 L 772.94,146.601 L 773.122,146.67 L 773.162,146.74 L 773.195,146.969 L 773.321,146.968 L 773.344,146.84 L 773.398,146.746 L 773.578,146.683 L 773.514,146.508 L 773.364,146.399 L 773.3,146.274 L 773.299,146.014 L 773.259,145.912 L 773.25,145.733 L 773.359,145.59 L 773.512,145.366 L 773.622,145.264 L 773.96,145.183 L 773.991,145.12 L 773.988,144.819 L 774.043,144.709 L 774.04,144.402 L 774.125,144.266 L 774.642,143.822 L 774.688,143.672 L 774.708,143.277 L 774.747,143.183 L 775.206,142.555 L 775.245,142.461 L 775.386,142.342 L 775.724,142.332 L 775.787,142.299 L 775.77,142.197 L 775.785,142.023 L 775.791,141.756 L 775.703,141.622 L 775.694,141.514 L 775.74,141.385 L 776.006,141.086 L 776.28,140.926 L 776.279,140.793 L 776.192,140.752 L 776.136,140.682 L 776.127,140.524 L 776.305,140.131 L 776.492,139.893 L 776.586,139.843 L 776.783,139.819 L 776.893,139.865 L 777.092,140.092 L 777.353,140.209 L 777.518,140.213 L 777.613,140.188 L 777.785,140.072 L 777.894,139.889 L 778.027,139.841 L 778.153,139.862 L 778.351,140.002 L 778.509,140.016 L 778.815,139.92 L 778.979,139.785 L 779.145,139.799 L 779.169,139.9 L 779.014,140.122 L 779.061,140.201 L 779.338,140.286 L 779.417,140.38 L 779.718,140.505 L 780.079,140.46 L 780.206,140.5 L 780.293,140.584 L 780.351,140.883 L 780.548,140.955 L 780.62,141.039 L 780.706,141.046 L 780.964,140.846 L 781.35,140.757 L 781.569,140.63 L 781.821,140.582 L 781.924,140.666 L 781.925,140.799 L 781.972,140.863 L 782.075,140.91 L 782.078,141.257 L 781.961,141.437 L 781.773,141.517 L 781.585,141.678 L 781.46,141.734 L 781.388,141.625 L 781.278,141.616 L 781.207,141.643 L 780.855,141.951 L 780.824,142.014 L 780.849,142.18 L 780.889,142.226 L 781.11,142.319 L 781.111,142.421 L 780.908,142.557 L 780.916,142.706 L 781.122,142.777 L 781.193,142.837 L 781.288,142.884 L 781.344,142.972 L 781.353,143.081 L 781.251,143.202 L 781.228,143.28 L 781.276,143.356 L 781.285,143.529 L 781.192,143.61 L 781.193,143.768 L 781.195,144.06 L 781.322,144.152 L 781.401,144.168 L 781.587,143.905 L 781.698,143.883 L 782.076,143.965 L 782.077,144.108 L 781.93,144.422 L 781.82,144.463 L 781.631,144.419 L 781.514,144.506 L 781.289,144.894 L 781.266,145.059 L 781.063,145.218 L 781.042,145.525 L 780.964,145.636 L 780.846,145.733 L 780.618,145.743 L 780.508,145.789 L 780.469,145.852 L 780.423,146.018 L 780.322,146.155 L 780.001,146.409 L 779.813,146.511 L 779.743,146.591 L 779.351,147.15 L 779.323,147.285 L 779.418,147.316 L 779.654,147.331 L 779.655,147.449 L 779.608,147.503 L 779.585,147.575 L 779.548,147.827 L 779.454,147.948 L 779.282,148.018 L 779.227,148.091 L 779.228,148.249 L 779.134,148.295 L 779.074,148.573 L 779.004,148.706 L 778.879,148.802 L 778.627,148.804 L 778.557,148.954 L 778.552,149.318 L 778.39,149.695 L 778.383,149.822 L 778.581,150.024 L 778.684,150.033 L 779.116,149.943 L 779.95,149.865 L 780.471,149.946 L 780.635,149.867 L 780.674,149.773 L 780.713,149.7 L 780.838,149.604 L 781.009,149.329 L 781.039,149.179 L 781.033,148.463 L 781.056,148.329 L 781.266,147.987 L 781.531,147.694 L 781.616,147.487 L 781.884,147.501 L 782.229,147.379 L 782.465,147.338 L 782.627,147.17 L 782.778,147 L 782.903,146.897 L 783.308,146.342 L 783.242,145.997 L 783.265,145.934 L 783.43,145.765 L 783.468,145.671 L 783.648,145.498 L 783.679,145.432 L 783.715,145.102 L 783.967,145.06 L 784.133,145.176 L 784.291,145.169 L 784.433,145.261 L 784.457,145.316 L 784.491,145.625 L 784.555,145.725 L 784.588,145.836 L 784.59,146.097 L 784.535,146.191 L 784.363,146.302 L 784.293,146.444 L 784.106,146.604 L 783.996,146.747 L 783.92,147.106 L 783.881,147.178 L 783.866,147.303 L 783.914,147.36 L 783.915,147.462 L 783.782,147.556 L 783.697,147.714 L 783.645,148.181 L 783.679,148.431 L 783.694,149.289 L 783.648,149.495 L 783.649,149.62 L 783.526,149.952 L 783.489,150.235 L 783.404,150.427 L 783.286,150.474 L 783.089,150.411 L 782.744,150.605 L 782.595,150.77 L 782.527,151.039 L 782.472,151.072 L 782.228,151.067 L 782.165,151.106 L 782.065,151.422 L 782.002,151.461 L 781.884,151.424 L 781.55,151.046 L 781.336,150.767 L 781.161,150.546 L 780.907,150.414 L 780.757,150.363 L 780.631,150.354 L 780.442,150.245 L 780.441,150.136 L 780.149,150.083 L 779.928,150.068 L 778.843,150.205 L 778.387,150.293 L 777.986,150.448 L 777.72,150.592 L 777.313,150.855 L 777.062,151.086 L 776.876,151.34 L 776.75,151.443 L 776.624,151.465 L 776.515,151.571 L 776.358,151.634 L 776.131,151.817 L 776.124,151.911 L 776.235,152.004 L 776.252,152.099 L 776.095,152.194 L 775.986,152.306 L 775.86,152.393 L 775.736,152.592 L 775.32,152.825 L 775.227,152.896 L 775.149,153.062 L 775.024,153.094 L 774.889,153.039 L 774.756,153.065 L 774.472,153.027 L 774.353,152.98 L 774.259,152.99 L 774.173,153.039 L 774.182,153.265 L 774.152,153.346 L 773.996,153.574 L 773.8,153.766 L 773.683,153.791 L 773.539,153.752 L 773.359,153.81 L 773.256,153.903 L 773.249,153.968 L 773.407,154.054 L 773.376,154.169 L 773.219,154.186 L 772.841,154.105 L 772.73,154.111 L 772.59,154.27 L 772.394,154.422 L 772.284,154.541 L 767.319,152.554 L 768.514,152.119 L 769.415,151.141 L 769.602,150.664 L 769.373,149.635 L 769.432,149.622 L 769.513,149.636 L 769.511,149.577 L 769.504,149.514 L 769.573,149.493 L 769.664,149.472 L 769.747,149.472 L 769.816,149.494 L 769.866,149.461 L 769.857,149.396 L 769.848,149.333 L 769.871,149.249 L 769.931,149.168 L 770.01,149.151 L 770.037,149.078 L 770.085,149.039 L 770.333,148.921 L 770.393,148.876 L 770.435,148.831 L 770.456,148.77 L 770.476,148.68 L 770.524,148.595 L 770.579,148.545 L 770.735,148.303 L 770.68,147.963"/><path id="path15305" d="M 789.271,143.662 L 789.192,143.655 L 789.041,143.406 L 788.923,143.397 L 788.812,143.335 L 788.573,143.084 L 788.461,142.873 L 787.962,142.404 L 787.89,142.288 L 787.873,142.202 L 787.905,142.146 L 788.093,142.081 L 788.202,141.963 L 788.336,141.962 L 788.432,142.204 L 788.638,142.335 L 788.655,142.43 L 788.758,142.57 L 788.775,142.641 L 788.902,142.814 L 789.193,142.796 L 789.241,142.85 L 789.25,143.024 L 789.211,143.103 L 789.212,143.214 L 789.417,143.258 L 789.419,143.394 L 789.364,143.48 L 789.341,143.583 L 789.271,143.662"/><path id="path15307" d="M 781.674,142.944 L 781.571,142.866 L 781.625,142.71 L 781.616,142.583 L 781.569,142.535 L 781.419,142.474 L 781.355,142.364 L 781.377,142.261 L 781.58,142.007 L 781.761,141.992 L 781.833,142.148 L 781.976,142.296 L 781.931,142.58 L 781.963,142.644 L 781.949,142.849 L 781.847,142.92 L 781.674,142.944"/><path id="path15313" d="M 781.759,143.702 L 781.656,143.621 L 781.671,143.521 L 781.749,143.426 L 781.788,143.338 L 781.874,143.242 L 781.991,143.202 L 782.078,143.208 L 782.158,143.318 L 782.158,143.429 L 782.05,143.619 L 781.987,143.658 L 781.759,143.702"/><path id="path15317" d="M 789.417,144.204 L 789.234,143.93 L 789.218,143.859 L 789.257,143.812 L 789.453,143.794 L 789.604,143.929 L 789.605,144.093 L 789.535,144.173 L 789.417,144.204"/><path id="path15323" d="M 785.796,146.321 L 785.63,146.212 L 785.645,146.093 L 785.793,145.912 L 785.887,145.847 L 786.021,145.862 L 786.055,146.224 L 785.977,146.313 L 785.796,146.321"/><path id="path15341" d="M 784.011,153.43 L 783.695,153.383 L 783.576,153.291 L 783.513,153.181 L 783.533,152.725 L 783.618,152.536 L 783.717,152.195 L 783.795,152.1 L 783.929,152.058 L 783.954,152.231 L 784.066,152.492 L 784.075,152.665 L 783.974,152.721 L 783.698,152.716 L 783.684,152.918 L 783.779,153.021 L 784.032,153.184 L 784.057,153.255 L 784.011,153.43"/><path id="path15347" d="M 776.675,155.703 L 776.612,155.702 L 776.484,155.461 L 776.49,155.271 L 776.608,155.237 L 776.742,155.286 L 776.822,155.395 L 776.815,155.482 L 776.675,155.703"/></g></svg>