<svg xmlns="http://www.w3.org/2000/svg" role="img" viewBox="1579.29 884.16 55.92 76.05"><title>Marion</title><g id="g14955" fill="#fefee9" fill-opacity="1" fill-rule="evenodd" stroke="#000" stroke-linecap="square" stroke-linejoin="bevel" stroke-opacity="1" stroke-width=".098" transform="translate(-216.714 -21.7) scale(2.264)"><path id="path15943" d="M 800.046,401.296 L 799.684,402.285 L 799.659,402.417 L 799.587,403.032 L 799.577,403.237 L 799.584,403.366 L 799.59,403.474 L 799.591,403.541 L 799.556,403.703 L 799.523,403.863 L 799.392,404.305 L 799.312,404.653 L 799.28,404.856 L 799.294,405.017 L 799.317,405.109 L 799.328,405.169 L 799.732,406.442 L 799.846,406.46 L 800.011,406.97 L 800.071,407.103 L 800.149,407.226 L 800.228,407.459 L 800.266,407.516 L 800.324,407.609 L 800.446,407.746 L 800.609,407.895 L 800.797,408.026 L 800.891,408.141 L 801.266,408.573 L 801.303,408.661 L 801.317,408.718 L 801.336,408.808 L 801.347,408.905 L 801.348,408.995 L 801.34,409.1 L 801.328,409.236 L 801.312,409.372 L 801.246,409.733 L 801.211,409.898 L 801.177,410.129 L 801.14,410.447 L 801.139,410.531 L 801.146,410.618 L 801.248,410.614 L 801.313,410.592 L 801.41,410.542 L 801.417,410.478 L 801.499,410.41 L 801.582,410.411 L 801.652,410.383 L 801.738,410.362 L 801.761,410.417 L 801.739,410.527 L 801.688,410.573 L 801.626,410.608 L 801.613,410.667 L 801.623,410.724 L 801.697,410.782 L 801.78,410.826 L 801.849,410.864 L 801.956,410.912 L 802.045,410.917 L 802.143,410.896 L 802.231,410.891 L 802.365,410.889 L 802.463,410.874 L 802.602,410.85 L 802.812,410.775 L 802.868,410.76 L 802.913,410.716 L 802.969,410.659 L 803.027,410.589 L 803.13,410.34 L 803.178,410.27 L 803.264,410.235 L 803.329,410.235 L 803.396,410.22 L 803.462,410.16 L 803.52,410.09 L 803.653,409.888 L 803.67,409.823 L 803.724,409.722 L 803.776,409.666 L 803.806,409.559 L 803.832,409.464 L 803.883,409.405 L 803.967,409.376 L 804.029,409.363 L 804.066,409.312 L 804.055,409.235 L 804.048,409.131 L 804.095,409.073 L 804.161,409.037 L 804.241,409.018 L 804.337,408.989 L 804.392,408.965 L 804.449,408.943 L 804.509,408.928 L 804.586,408.937 L 804.642,408.956 L 804.713,409.016 L 804.767,409.047 L 804.861,409.037 L 804.91,408.994 L 804.995,408.92 L 805.119,408.794 L 805.109,408.733 L 805.08,408.68 L 805.002,408.536 L 804.953,408.454 L 804.931,408.383 L 804.924,408.305 L 804.931,408.218 L 804.949,408.145 L 804.988,408.069 L 805.028,408.016 L 805.081,407.964 L 805.137,407.928 L 805.198,407.901 L 805.257,407.897 L 805.351,407.864 L 805.45,407.825 L 805.609,407.77 L 805.74,407.745 L 805.87,407.937 L 805.856,408.111 L 806.014,408.19 L 806.101,408.274 L 806.126,408.338 L 806.316,408.531 L 806.682,408.986 L 807.206,409.445 L 807.585,409.657 L 807.679,409.658 L 807.844,409.641 L 807.992,409.506 L 808.079,409.498 L 808.166,409.56 L 808.684,410.193 L 808.693,410.357 L 808.647,410.414 L 808.458,410.488 L 808.397,410.661 L 808.367,410.888 L 808.433,411.109 L 808.958,411.733 L 808.967,411.844 L 809.223,412.212 L 809.461,412.382 L 809.856,412.575 L 809.886,412.363 L 809.853,412.262 L 809.86,412.103 L 809.93,412.048 L 810.244,411.974 L 810.354,411.98 L 810.759,412.306 L 810.966,412.558 L 811.093,412.635 L 811.356,412.9 L 811.498,412.992 L 811.861,413.084 L 811.894,413.185 L 812.077,413.372 L 812.093,413.458 L 812.292,413.694 L 812.411,413.818 L 812.624,413.818 L 812.859,413.702 L 812.922,413.704 L 812.955,413.79 L 812.974,414.127 L 813.014,414.222 L 813.04,414.472 L 813.089,414.67 L 813.217,414.843 L 813.218,414.985 L 813.25,415.056 L 813.409,415.218 L 813.562,415.335 L 813.679,415.474 L 813.784,415.71 L 813.856,415.844 L 814.051,416.465 L 814.123,416.565 L 814.534,416.711 L 814.654,416.875 L 814.865,417.526 L 815,417.73 L 815.088,417.824 L 815.397,418.01 L 815.879,418.25 L 816.457,418.488 L 816.693,418.54 L 816.71,418.676 L 816.798,418.831 L 817.093,419.151 L 817.26,419.395 L 817.35,419.708 L 817.352,419.904 L 817.298,420.063 L 816.989,420.655 L 816.948,421.28 L 816.823,421.429 L 816.731,421.649 L 815.967,421.659 L 815.642,421.473 L 815.134,421.066 L 814.889,420.968 L 814.756,421.024 L 814.544,421.043 L 814.338,420.941 L 813.87,420.545 L 813.443,420.44 L 813.001,420.26 L 812.842,420.091 L 812.731,420.045 L 812.636,420.045 L 812.637,420.156 L 812.693,420.248 L 813.241,420.694 L 813.4,420.878 L 813.427,421.209 L 813.406,421.408 L 813.43,421.463 L 813.628,421.625 L 813.835,421.892 L 814.058,422.118 L 814.138,422.249 L 814.206,422.752 L 814.279,423.005 L 814.534,423.341 L 814.55,423.403 L 814.607,423.482 L 814.774,423.685 L 815.115,424.013 L 815.25,424.074 L 815.344,424.074 L 815.58,424.03 L 815.667,424.062 L 816.041,424.404 L 816.343,424.724 L 816.558,425.047 L 816.568,425.18 L 816.545,425.252 L 816.185,425.483 L 815.944,425.824 L 815.898,426.006 L 815.918,426.47 L 816.047,426.752 L 816.311,427.144 L 816.226,427.308 L 816.118,427.634 L 816.144,427.776 L 816.239,427.875 L 816.469,428.039 L 816.541,428.158 L 816.72,428.754 L 816.705,428.863 L 816.486,429 L 816.407,429.014 L 816.193,428.838 L 815.972,428.767 L 815.91,428.831 L 815.902,428.902 L 815.982,428.99 L 816.203,429.064 L 816.291,429.222 L 816.295,429.607 L 816.454,429.819 L 816.552,430.139 L 816.546,430.338 L 816.412,430.354 L 816.113,430.31 L 815.876,430.218 L 815.622,430.055 L 815.51,429.906 L 815.396,429.466 L 815.377,429.135 L 815.329,429.027 L 815.122,428.801 L 814.884,428.637 L 814.717,428.49 L 814.653,428.38 L 814.422,428.136 L 814.159,427.753 L 813.856,427.418 L 813.387,426.873 L 813.06,426.52 L 812.894,426.388 L 811.994,426.16 L 811.764,425.996 L 811.432,425.876 L 810.876,425.328 L 810.613,425.031 L 810.218,424.854 L 810.154,424.778 L 810.096,424.464 L 809.864,424.086 L 809.855,423.962 L 809.947,423.748 L 810.041,423.709 L 810.066,423.81 L 810.122,423.92 L 810.265,424.059 L 810.987,424.58 L 811.313,424.899 L 811.719,425.359 L 811.863,425.643 L 811.998,425.797 L 812.449,426.023 L 812.496,425.975 L 812.522,425.36 L 812.472,425.163 L 812.314,425.025 L 812.297,424.939 L 812.226,424.866 L 812.028,424.767 L 811.948,424.698 L 811.869,424.573 L 811.795,424.321 L 811.596,424.023 L 811.579,423.952 L 811.475,423.803 L 811.386,423.551 L 811.384,423.362 L 811.344,423.199 L 811.208,423.051 L 811.144,422.947 L 811.009,422.762 L 810.842,422.662 L 810.604,422.433 L 810.54,422.286 L 810.252,421.823 L 809.687,421.238 L 809.535,421.004 L 809.225,420.709 L 809.161,420.605 L 809.073,420.378 L 808.96,420.205 L 808.873,420.161 L 808.724,420.168 L 808.709,420.281 L 808.917,420.646 L 808.944,420.977 L 808.977,421.135 L 809.185,421.473 L 809.188,421.755 L 809.157,421.843 L 809.071,421.913 L 808.945,421.939 L 808.819,421.893 L 808.54,421.541 L 808.262,421.307 L 808.009,421.144 L 807.779,420.95 L 807.041,420.224 L 806.857,419.848 L 806.751,419.494 L 806.623,419.234 L 806.48,419.04 L 806.123,418.744 L 806.003,418.555 L 806.002,418.36 L 806.096,418.233 L 806.426,418.189 L 806.535,418.081 L 806.556,417.764 L 806.602,417.582 L 806.358,417.593 L 806.271,417.505 L 806.245,417.28 L 806.267,417.009 L 806.328,416.781 L 806.186,416.776 L 806.028,416.768 L 806.042,416.548 L 806.033,416.421 L 805.739,416.039 L 805.705,415.764 L 805.703,415.448 L 805.896,415.054 L 805.91,414.763 L 805.869,414.621 L 805.783,414.636 L 805.738,414.954 L 805.7,415.088 L 805.536,415.254 L 805.41,415.311 L 805.323,415.285 L 804.936,415.086 L 804.802,415.093 L 805.056,415.343 L 805.295,415.633 L 805.415,415.884 L 805.505,416.269 L 805.537,416.333 L 805.537,416.42 L 805.609,416.582 L 805.765,417.306 L 805.792,417.693 L 805.761,417.747 L 805.659,417.833 L 805.668,417.929 L 805.787,418.053 L 805.787,418.133 L 805.686,418.189 L 805.497,418.192 L 805.007,418.014 L 804.803,418.054 L 804.622,418.127 L 804.426,418.278 L 804.316,418.263 L 804.276,418.147 L 804.432,418.018 L 804.326,417.562 L 804.231,417.429 L 804.159,417.4 L 804.034,417.437 L 803.901,417.596 L 803.838,417.583 L 803.751,417.526 L 803.757,417.284 L 803.787,417.156 L 803.794,417.032 L 803.667,416.828 L 803.603,416.796 L 803.548,416.853 L 803.568,417.284 L 803.404,417.49 L 803.415,417.883 L 803.496,418.104 L 803.491,418.483 L 803.531,418.584 L 803.738,418.81 L 803.732,419.015 L 803.835,419.148 L 803.964,419.47 L 803.965,419.573 L 803.998,419.801 L 804.054,419.886 L 804.157,419.964 L 804.276,420.168 L 804.35,420.507 L 804.421,420.592 L 804.666,420.637 L 804.714,420.707 L 804.747,420.96 L 804.795,421.046 L 805.095,421.13 L 805.207,421.279 L 805.626,421.573 L 805.849,421.865 L 805.842,421.967 L 805.788,422.068 L 805.829,422.234 L 805.877,422.351 L 806.123,422.61 L 806.203,422.759 L 806.285,423.126 L 806.444,423.354 L 806.437,423.512 L 806.281,423.678 L 806.087,423.987 L 806.033,424.113 L 806.011,424.278 L 806.092,424.617 L 806.061,424.68 L 805.817,424.715 L 805.747,424.825 L 805.733,424.944 L 805.797,425.106 L 805.916,425.217 L 806.01,425.23 L 806.073,425.175 L 806.112,425.097 L 806.19,425.042 L 806.451,425.174 L 806.72,425.383 L 806.879,425.539 L 806.967,425.673 L 806.977,425.94 L 806.931,426.183 L 806.861,426.272 L 806.736,426.297 L 806.665,426.265 L 806.381,426.276 L 806.333,426.228 L 806.346,425.89 L 806.228,425.828 L 806.173,425.892 L 806.154,426.45 L 806.194,426.545 L 806.329,426.718 L 806.522,427.116 L 806.617,427.209 L 806.688,427.225 L 806.743,427.171 L 806.82,426.974 L 806.914,426.965 L 806.932,427.184 L 806.987,427.232 L 807.121,427.253 L 807.223,427.228 L 807.295,427.26 L 807.303,427.363 L 807.164,427.646 L 807.158,427.9 L 807.207,428.144 L 807.296,428.37 L 807.447,428.58 L 807.847,428.989 L 808.173,429.262 L 808.437,429.747 L 808.963,430.42 L 809.171,430.739 L 809.173,430.888 L 809.118,430.977 L 809.104,431.117 L 809.123,431.426 L 809.164,431.651 L 809.134,431.755 L 809.079,431.834 L 808.985,431.858 L 808.843,431.797 L 808.486,431.55 L 808.208,431.285 L 807.865,430.799 L 807.714,430.507 L 807.292,429.849 L 807.086,429.663 L 806.92,429.6 L 806.66,429.586 L 805.893,429.193 L 805.648,429.116 L 805.514,429.102 L 805.388,429.133 L 805.294,429.182 L 805.225,429.364 L 805.147,429.419 L 804.864,429.461 L 804.746,429.58 L 804.535,429.722 L 804.37,429.755 L 804.212,429.741 L 804.029,429.56 L 803.951,429.532 L 803.896,429.617 L 803.825,429.625 L 803.556,429.456 L 803.43,429.463 L 803.423,429.59 L 803.448,429.667 L 803.535,429.786 L 803.883,429.902 L 804.079,429.853 L 804.316,429.952 L 804.317,430.063 L 804.267,430.203 L 798.397,431.238 L 794.011,426.898 L 794.984,418.98 L 795.648,412.716 L 795.754,412.686 L 795.828,412.662 L 795.91,412.633 L 795.971,412.601 L 796.019,412.532 L 796.067,412.442 L 796.123,412.367 L 796.169,412.285 L 796.172,412.219 L 796.214,412.133 L 796.267,412.095 L 796.246,412.036 L 796.226,411.962 L 796.284,411.918 L 796.313,411.858 L 796.345,411.779 L 796.393,411.722 L 796.462,411.673 L 796.582,411.562 L 796.714,411.418 L 796.756,411.36 L 796.779,411.289 L 796.786,411.217 L 796.31,410.52 L 796.391,407.596 L 798.282,406.152 L 797.858,405.341 L 797.859,405.181 L 798.055,402.886 L 799.718,400.813 L 800.046,401.296"/><path id="path16007" d="M 806.11,418.068 L 806.055,418.036 L 805.998,417.839 L 806.037,417.776 L 806.107,417.727 L 806.163,417.769 L 806.165,418.035 L 806.11,418.068"/><path id="path16013" d="M 808.231,422.977 L 808.286,422.953 L 808.348,422.849 L 808.354,422.691 L 808.36,422.587 L 808.489,422.793 L 808.467,422.967 L 808.421,423.046 L 808.122,423.16 L 807.8,423.2 L 807.593,423.202 L 807.505,423.156 L 807.41,423.071 L 807.37,422.992 L 807.369,422.797 L 807.454,422.645 L 807.753,422.531 L 807.832,422.406 L 807.918,422.375 L 807.958,422.42 L 807.951,422.492 L 807.896,422.546 L 807.897,422.611 L 807.976,422.705 L 808.018,422.93 L 808.066,422.979 L 808.231,422.977"/><path id="path16015" d="M 809.565,423.335 L 809.479,423.334 L 809.264,423.164 L 809.279,423.092 L 809.522,422.917 L 809.593,422.909 L 809.586,422.996 L 809.531,423.066 L 809.548,423.152 L 809.673,423.127 L 809.791,423.065 L 809.816,423.182 L 809.699,423.278 L 809.565,423.335"/><path id="path16013" d="M 808.231,422.977 L 808.286,422.953 L 808.348,422.849 L 808.354,422.691 L 808.36,422.587 L 808.489,422.793 L 808.467,422.967 L 808.421,423.046 L 808.122,423.16 L 807.8,423.2 L 807.593,423.202 L 807.505,423.156 L 807.41,423.071 L 807.37,422.992 L 807.369,422.797 L 807.454,422.645 L 807.753,422.531 L 807.832,422.406 L 807.918,422.375 L 807.958,422.42 L 807.951,422.492 L 807.896,422.546 L 807.897,422.611 L 807.976,422.705 L 808.018,422.93 L 808.066,422.979 L 808.231,422.977"/><path id="path16015" d="M 809.565,423.335 L 809.479,423.334 L 809.264,423.164 L 809.279,423.092 L 809.522,422.917 L 809.593,422.909 L 809.586,422.996 L 809.531,423.066 L 809.548,423.152 L 809.673,423.127 L 809.791,423.065 L 809.816,423.182 L 809.699,423.278 L 809.565,423.335"/><path id="path16029" d="M 804.822,430.241 L 804.719,430.154 L 804.711,430.092 L 804.892,430.065 L 805.025,429.971 L 805.151,429.977 L 805.128,430.08 L 805.05,430.175 L 804.948,430.231 L 804.822,430.241"/><path id="path16031" d="M 816.17,433.01 L 816.106,432.931 L 816.105,432.782 L 816.183,432.718 L 816.317,432.773 L 816.381,432.882 L 816.39,432.975 L 816.17,433.01"/></g></svg>