<svg xmlns="http://www.w3.org/2000/svg" role="img" viewBox="1099.26 404.13 90.61 57.86"><title>Marlborough</title><g id="g14955" fill="#fefee9" fill-opacity="1" fill-rule="evenodd" stroke="#000" stroke-linecap="square" stroke-linejoin="bevel" stroke-opacity="1" stroke-width=".098" transform="translate(-216.714 -21.7) scale(2.264)"><path id="path15455" fill-rule="evenodd" d="M 620.465,188.922 L 620.038,190.814 L 618.436,198.386 L 617.549,206.283 L 614.348,206.731 L 614.282,206.715 L 612.213,207.002 L 609.957,206.168 L 601.137,207.549 L 596.537,209.641 L 592.383,212.877 L 590.605,210.55 L 589.303,209.391 L 588.127,207.345 L 587.269,206.22 L 587.695,205.695 L 587.576,203.998 L 587.456,203.979 L 587.021,203.784 L 586.063,203.408 L 585.862,203.321 L 585.686,203.204 L 584.485,202.322 L 584.174,202.159 L 583.767,201.692 L 583.372,201.033 L 582.394,199.87 L 582.065,199.517 L 582.347,199.274 L 582.396,199.227 L 586.129,196.833 L 587.842,193.457 L 607.578,190.801 L 614.32,189.828 L 620.465,188.922"/></g></svg>