<svg xmlns="http://www.w3.org/2000/svg" role="img" viewBox="1732.85 942.10 58.94 112.06"><title>Mashpee</title><g id="g14955" fill="#fefee9" fill-opacity="1" fill-rule="evenodd" stroke="#000" stroke-linecap="square" stroke-linejoin="bevel" stroke-opacity="1" stroke-width=".098" transform="translate(-216.714 -21.7) scale(2.264)"><path id="path16025" d="M 882.943,433.962 L 884.973,436.397 L 886.162,438.627 L 884.871,441.364 L 884.494,441.604 L 884.502,441.752 L 884.48,441.929 L 884.503,442.016 L 884.531,442.088 L 884.65,442.624 L 884.393,442.547 L 884.312,442.524 L 884.221,442.511 L 884.062,442.561 L 883.132,443.102 L 881.118,443.27 L 880.8,444.205 L 881.115,444.398 L 881.167,444.441 L 881.213,444.495 L 881.267,444.55 L 881.309,444.593 L 881.378,444.641 L 881.489,444.705 L 881.543,444.743 L 882.639,444.407 L 882.664,444.493 L 882.838,444.428 L 883.03,444.343 L 883.184,444.263 L 883.353,444.168 L 883.738,443.929 L 883.786,444.011 L 883.831,444.158 L 884.413,443.958 L 884.541,443.919 L 884.615,443.903 L 884.687,444.008 L 884.715,444.329 L 884.727,444.596 L 884.756,444.688 L 884.806,444.739 L 884.873,444.801 L 884.923,444.858 L 884.933,444.989 L 884.93,445.094 L 884.945,445.157 L 884.991,445.29 L 885.006,445.371 L 884.997,445.471 L 884.978,445.528 L 884.957,445.588 L 884.951,445.684 L 884.986,445.841 L 885.016,445.918 L 885.056,445.965 L 885.112,446.055 L 885.135,446.125 L 885.156,446.241 L 885.171,446.351 L 885.172,446.448 L 885.15,446.56 L 885.146,446.71 L 885.153,446.796 L 885.203,446.892 L 885.253,446.996 L 885.303,447.086 L 885.336,447.162 L 885.344,447.223 L 885.341,447.286 L 885.384,447.429 L 885.407,447.518 L 885.429,447.6 L 885.482,447.674 L 885.536,447.774 L 885.592,447.854 L 885.616,447.919 L 885.615,448.019 L 885.65,448.107 L 885.678,448.164 L 885.661,448.243 L 885.647,448.336 L 885.681,448.432 L 885.686,448.542 L 885.683,448.611 L 885.67,448.672 L 885.602,448.752 L 885.526,448.81 L 885.47,448.872 L 885.445,448.941 L 885.46,449.017 L 885.499,449.159 L 885.498,449.261 L 885.457,449.344 L 885.38,449.418 L 885.294,449.484 L 885.255,449.56 L 885.26,449.64 L 885.299,449.793 L 885.31,449.864 L 885.311,449.939 L 885.306,450.012 L 885.306,450.073 L 885.296,450.16 L 885.271,450.243 L 885.252,450.337 L 885.026,450.27 L 884.597,450.016 L 884.503,449.993 L 884.432,450.027 L 884.347,450.122 L 884.304,450.446 L 884.25,450.547 L 884.164,450.62 L 883.984,450.716 L 883.68,450.932 L 883.675,451.193 L 883.542,451.296 L 883.252,451.373 L 883.182,451.427 L 883.225,451.718 L 883.156,451.862 L 883.152,452.151 L 883.137,452.232 L 883.044,452.349 L 882.936,452.557 L 882.94,452.886 L 882.739,453.158 L 882.676,453.191 L 882.545,453.356 L 882.485,453.594 L 882.157,453.842 L 882.064,453.984 L 882.076,454.291 L 882.133,454.448 L 882.177,454.787 L 882.146,454.866 L 882.014,454.984 L 881.521,455.234 L 881.389,455.427 L 881.391,455.583 L 881.448,455.733 L 881.442,455.851 L 881.302,456.019 L 881.195,456.286 L 881.174,456.445 L 881.263,456.681 L 881.266,456.901 L 881.213,457.073 L 881.056,457.109 L 880.614,457.004 L 880.432,456.919 L 880.009,456.507 L 879.921,456.351 L 879.871,456.179 L 879.817,455.666 L 879.76,455.453 L 879.814,455.374 L 880.033,455.253 L 880.056,455.19 L 880.03,454.986 L 879.925,454.822 L 879.559,454.535 L 879.479,454.441 L 879.333,454.052 L 879.262,453.43 L 879.275,453.2 L 879.344,453.034 L 879.341,452.839 L 879.149,452.606 L 879.117,452.517 L 879.107,452.343 L 878.942,451.796 L 878.79,451.617 L 878.79,451.552 L 878.709,451.366 L 878.534,451.275 L 878.454,451.181 L 878.32,451.141 L 878.25,451.236 L 878.235,451.302 L 878.498,451.527 L 878.706,451.791 L 878.819,452.017 L 878.824,452.451 L 878.873,452.583 L 879.113,452.858 L 879.146,452.95 L 879.055,453.26 L 879.036,453.62 L 879.071,453.879 L 879.089,454.108 L 879.179,454.351 L 879.181,454.503 L 879.214,454.62 L 879.542,455.063 L 879.508,455.457 L 879.549,455.624 L 879.638,455.841 L 879.658,456.142 L 879.718,456.527 L 879.848,456.825 L 880.055,457.026 L 880.555,457.381 L 881.295,457.955 L 881.383,458.064 L 881.394,458.324 L 881.332,458.419 L 880.68,458.568 L 880.501,458.713 L 880.355,458.959 L 880.302,459.14 L 880.044,459.269 L 879.815,459.282 L 879.483,459.192 L 879.413,459.237 L 879.376,459.387 L 879.394,459.554 L 879.442,459.624 L 879.5,459.868 L 879.502,460.047 L 879.464,460.135 L 879.324,460.263 L 879.231,460.406 L 879.201,460.549 L 879.047,460.786 L 879.046,461.394 L 879.079,461.455 L 879.221,461.51 L 879.386,461.499 L 879.527,461.433 L 879.636,461.346 L 879.735,461.039 L 879.843,460.893 L 879.93,460.863 L 880.001,460.907 L 880.106,461.087 L 880.256,461.117 L 880.333,461.031 L 880.363,460.912 L 880.276,460.26 L 880.229,460.228 L 880.055,460.214 L 880.035,459.852 L 880.547,459.862 L 880.822,459.81 L 881.051,459.872 L 881.218,460.019 L 881.229,460.239 L 881.286,460.364 L 881.373,460.387 L 881.45,460.322 L 881.441,460.214 L 881.281,459.971 L 881.183,459.729 L 881.189,459.595 L 881.346,459.507 L 881.384,459.379 L 881.379,459.041 L 881.482,459.025 L 881.568,459.054 L 881.768,459.287 L 881.771,459.516 L 881.68,459.77 L 881.659,459.975 L 882.019,460.411 L 882.028,460.538 L 881.951,460.671 L 881.81,460.721 L 881.732,460.823 L 881.56,460.865 L 881.505,460.923 L 881.499,461.031 L 881.39,461.174 L 881.415,461.26 L 881.573,461.339 L 881.634,461.139 L 881.758,461.021 L 881.845,460.996 L 881.9,461.035 L 882.044,461.223 L 882.386,461.486 L 882.452,461.698 L 882.678,462.119 L 882.694,462.212 L 882.633,462.325 L 882.634,462.403 L 882.848,462.511 L 883.082,462.957 L 883.21,463.09 L 883.266,463.216 L 883.284,463.379 L 883.333,463.496 L 883.428,463.583 L 883.562,463.588 L 883.64,463.549 L 883.811,463.327 L 884.191,462.857 L 884.361,462.594 L 884.638,462.118 L 884.909,461.729 L 885.001,461.515 L 885.022,461.319 L 884.941,461.129 L 884.956,461.02 L 885.188,460.756 L 885.257,460.621 L 885.293,460.325 L 885.363,460.283 L 885.459,460.361 L 885.515,460.446 L 885.518,460.666 L 885.427,460.945 L 885.012,461.782 L 884.52,462.701 L 883.63,463.959 L 883.6,464.077 L 883.286,464.781 L 882.675,465.686 L 882.45,465.941 L 881.661,467.071 L 880.714,468.224 L 880.449,468.424 L 880.278,468.599 L 879.401,469.642 L 879.068,470.077 L 878.858,470.315 L 878.446,470.668 L 877.899,471.054 L 876.968,471.49 L 876.468,471.812 L 876.272,471.901 L 875.886,471.912 L 875.509,472.004 L 875.212,472.143 L 874.712,472.502 L 874.493,472.592 L 874.241,472.618 L 873.5,472.509 L 872.88,472.66 L 872.314,472.75 L 871.04,472.921 L 868.95,473.348 L 868.236,473.521 L 866.986,473.74 L 866.374,473.944 L 865.85,474.232 L 865.794,474.193 L 865.73,474.059 L 865.711,473.768 L 865.677,473.61 L 865.683,473.406 L 865.744,473.28 L 866.016,472.922 L 866.134,472.85 L 866.338,472.81 L 866.765,472.962 L 867.049,473.006 L 867.513,473.002 L 867.796,472.966 L 868.032,472.894 L 868.235,472.764 L 868.508,472.502 L 868.671,472.271 L 868.734,472.262 L 868.66,472.035 L 868.665,471.703 L 868.725,471.521 L 868.769,471.222 L 868.776,470.397 L 868.846,470.299 L 868.955,470.243 L 869.309,470.161 L 869.653,469.928 L 869.888,469.862 L 870.038,469.901 L 870.125,469.877 L 870.232,469.623 L 870.622,469.212 L 870.76,468.956 L 870.917,468.843 L 871.001,468.63 L 871.007,468.512 L 871.18,468.432 L 871.178,468.234 L 871.495,467.735 L 871.589,467.673 L 871.817,467.638 L 871.855,467.504 L 871.782,467.369 L 871.797,467.276 L 871.891,467.18 L 872.024,467.139 L 872.252,467.114 L 872.33,467.065 L 872.423,466.892 L 872.445,466.748 L 872.269,466.537 L 872.274,466.285 L 872.398,466.111 L 872.413,465.968 L 872.491,465.938 L 872.609,465.943 L 872.807,466.012 L 872.89,466.064 L 873.016,466.114 L 873.165,466.233 L 873.191,466.297 L 873.191,466.42 L 873.179,466.542 L 873.127,466.665 L 873.016,466.837 L 873.013,467.108 L 872.812,467.324 L 872.742,467.403 L 872.671,467.56 L 872.663,467.721 L 872.674,467.782 L 872.762,467.905 L 872.823,467.978 L 873.153,468.199 L 873.302,468.272 L 873.445,468.298 L 873.547,468.296 L 873.628,468.296 L 873.695,468.281 L 873.765,468.231 L 874.011,467.683 L 874.189,467.12 L 874.215,466.764 L 874.226,466.653 L 874.048,466.539 L 873.961,466.519 L 873.914,466.837 L 873.827,466.91 L 873.739,466.887 L 873.593,466.787 L 873.556,466.493 L 873.637,466.37 L 873.655,466.233 L 873.625,466.149 L 873.512,465.976 L 873.424,465.854 L 873.328,465.793 L 873.24,465.833 L 873.179,465.953 L 873.004,465.88 L 872.911,465.807 L 872.946,465.743 L 873.162,465.661 L 873.331,465.661 L 873.471,465.693 L 873.625,465.661 L 873.672,465.723 L 873.716,465.807 L 873.803,465.772 L 873.844,465.62 L 873.602,465.425 L 873.611,465.364 L 873.783,465.291 L 873.783,465.168 L 873.646,465.072 L 873.302,465.02 L 873.322,464.923 L 873.407,464.827 L 873.576,464.754 L 873.506,464.629 L 873.424,464.579 L 873.302,464.655 L 873.03,464.433 L 872.943,464.407 L 872.733,464.471 L 872.771,464.556 L 873.059,464.69 L 873.13,464.754 L 873.13,464.874 L 872.952,464.999 L 872.796,465.011 L 872.727,465.202 L 872.657,465.281 L 872.563,465.346 L 872.375,465.401 L 872.266,465.491 L 872.205,465.744 L 871.808,466.14 L 871.63,466.388 L 871.64,466.576 L 871.491,466.674 L 871.39,466.767 L 871.282,466.944 L 871.364,467.233 L 871.373,467.381 L 871.327,467.516 L 870.832,468.262 L 870.731,468.467 L 870.671,468.667 L 870.57,468.794 L 869.75,469.432 L 869.569,469.459 L 869.442,469.373 L 869.433,469.286 L 869.488,469.254 L 869.517,469.017 L 869.88,468.377 L 870.059,468.145 L 870.205,467.812 L 870.133,467.783 L 869.993,467.909 L 869.792,468.218 L 869.388,468.72 L 869.295,468.909 L 868.552,470.106 L 868.397,470.275 L 868.255,470.282 L 868.246,470.189 L 868.423,469.855 L 868.67,469.287 L 868.786,469.104 L 868.909,468.874 L 868.977,468.645 L 869.031,468.541 L 869.069,468.376 L 869.066,468.094 L 868.966,467.582 L 868.795,467.118 L 868.775,466.915 L 869.023,466.987 L 869.13,467.083 L 869.189,467.13 L 869.297,467.161 L 869.398,467.113 L 869.445,467.05 L 869.472,466.956 L 869.468,466.895 L 869.457,466.82 L 869.447,466.732 L 869.445,466.623 L 869.472,466.476 L 869.491,466.383 L 869.538,466.281 L 869.573,466.226 L 869.615,466.184 L 869.775,466.013 L 869.991,465.798 L 870.146,465.642 L 870.608,465.208 L 870.667,465.123 L 870.696,465.056 L 870.724,464.971 L 870.757,464.851 L 870.826,464.568 L 870.861,464.385 L 870.892,464.168 L 870.923,464.005 L 870.942,463.871 L 870.993,463.777 L 871.062,463.733 L 871.148,463.698 L 871.34,463.612 L 871.393,463.575 L 871.442,463.504 L 871.421,463.425 L 871.354,463.398 L 871.267,463.363 L 871.216,463.326 L 871.204,463.261 L 871.213,463.2 L 871.252,463.091 L 871.285,463.022 L 871.332,462.885 L 871.375,462.806 L 871.414,462.739 L 871.459,462.652 L 871.506,462.583 L 871.543,462.502 L 871.582,462.394 L 871.599,462.292 L 871.611,462.215 L 871.621,462.148 L 871.64,462.066 L 871.667,461.999 L 871.695,461.947 L 871.73,461.898 L 871.795,461.809 L 871.841,461.756 L 871.889,461.707 L 871.932,461.657 L 871.983,461.596 L 872.016,461.524 L 872.045,461.472 L 872.072,461.399 L 872.094,461.291 L 872.117,461.159 L 872.14,461.083 L 872.191,460.949 L 872.189,460.858 L 872.182,460.776 L 872.194,460.679 L 872.213,460.581 L 872.244,460.459 L 872.307,460.335 L 872.342,460.234 L 872.367,460.155 L 872.385,460.067 L 872.418,459.986 L 872.47,459.88 L 872.523,459.783 L 872.557,459.445 L 872.612,459.38 L 872.608,459.295 L 872.643,459.189 L 872.694,459.106 L 872.723,459.034 L 872.801,458.988 L 872.879,458.955 L 872.965,458.907 L 873.01,458.863 L 873.038,458.791 L 873.062,458.646 L 873.058,458.501 L 873.086,458.431 L 873.131,458.379 L 873.186,458.246 L 872.711,458.11 L 866.007,456.225 L 863.929,447.555 L 863.777,446.943 L 862.149,443.407 L 862.463,442.937 L 862.587,442.762 L 862.688,442.642 L 862.84,442.457 L 862.973,442.203 L 863.06,442.061 L 863.117,441.979 L 863.2,441.91 L 863.296,441.841 L 863.409,441.775 L 863.859,441.521 L 863.951,441.446 L 864.354,441.053 L 864.715,440.703 L 866.367,438.814 L 866.961,437.238 L 867.154,437.02 L 867.204,436.917 L 867.316,436.674 L 867.354,436.566 L 867.512,435.927 L 867.64,435.473 L 867.822,434.86 L 867.984,434.377 L 868.047,434.145 L 868.063,434.06 L 868.064,433.968 L 868.06,433.875 L 868.067,433.769 L 868.093,433.593 L 868.256,432.619 L 868.29,432.476 L 868.351,432.266 L 868.834,430.653 L 869.21,430.167 L 869.279,430.067 L 869.335,429.951 L 872.399,431.47 L 872.925,431.727 L 872.941,431.598 L 873.006,431.539 L 873.063,431.528 L 873.141,431.516 L 873.241,431.501 L 873.363,431.486 L 873.478,431.454 L 873.535,431.387 L 873.608,431.324 L 873.696,431.28 L 873.799,431.242 L 873.861,431.159 L 873.881,431.084 L 873.901,430.772 L 873.909,430.654 L 873.872,430.547 L 873.85,430.447 L 873.832,430.339 L 873.828,430.257 L 873.84,430.178 L 873.858,430.086 L 873.87,430.007 L 873.874,429.946 L 873.864,429.87 L 873.849,429.77 L 873.847,429.64 L 873.8,429.586 L 873.082,429.216 L 872.955,427.347 L 877.901,426.75 L 878.535,427.664 L 878.585,428.53 L 878.637,428.602 L 878.68,428.667 L 878.717,428.731 L 878.745,428.805 L 878.773,428.936 L 878.77,429.033 L 878.756,429.092 L 878.729,429.19 L 878.692,429.344 L 878.681,429.439 L 878.68,429.589 L 878.487,429.6 L 877.035,433.063 L 876.888,433.392 L 877.345,435.058 L 878.684,435.493 L 878.756,435.293 L 878.828,435.174 L 878.893,435.049 L 878.995,434.867 L 879.076,434.724 L 879.146,434.589 L 879.215,434.443 L 879.291,434.261 L 879.322,434.168 L 879.383,434.049 L 879.453,433.958 L 879.516,433.9 L 879.604,433.716 L 879.656,433.461 L 879.704,433.305 L 882.943,433.962"/><path id="path16077" d="M 881.557,458.133 L 881.501,458.054 L 881.474,457.81 L 881.418,457.749 L 881.417,457.616 L 881.519,457.607 L 881.677,457.652 L 881.757,457.73 L 881.782,457.847 L 881.698,458.061 L 881.62,458.131 L 881.557,458.133"/><path id="path16081" d="M 883.669,463.281 L 883.229,462.767 L 883.156,462.592 L 882.988,462.383 L 882.979,462.287 L 883.041,462.208 L 883.071,462.114 L 882.882,462.101 L 882.779,462.033 L 882.723,461.954 L 882.721,461.82 L 882.776,461.772 L 882.774,461.676 L 882.711,461.638 L 882.431,461.249 L 882.161,461.133 L 882.033,460.947 L 882.054,460.764 L 882.123,460.582 L 882.356,460.305 L 882.37,460.193 L 882.211,460.061 L 882.021,460.002 L 882.186,459.969 L 882.376,460.06 L 882.488,460.177 L 882.691,460.677 L 882.964,461.091 L 883.211,461.316 L 883.339,461.514 L 883.507,461.683 L 883.752,462.389 L 883.803,462.663 L 883.808,463.082 L 883.763,463.254 L 883.669,463.281"/></g></svg>