<svg xmlns="http://www.w3.org/2000/svg" role="img" viewBox="1374.91 347.73 46.80 46.61"><title>Medford</title><g id="g14955" fill="#fefee9" fill-opacity="1" fill-rule="evenodd" stroke="#000" stroke-linecap="square" stroke-linejoin="bevel" stroke-opacity="1" stroke-width=".098" transform="translate(-216.714 -21.7) scale(2.264)"><path id="path15369" d="M 719.842,166.591 L 719.269,171.952 L 718.986,171.939 L 718.914,172.784 L 719.823,175.813 L 720.36,176.377 L 720.467,176.464 L 720.562,176.509 L 720.672,176.561 L 720.763,176.627 L 720.841,176.687 L 720.898,176.72 L 720.959,176.747 L 721.032,176.762 L 721.484,176.757 L 721.855,177.098 L 721.993,177.288 L 722.08,177.332 L 722.2,177.386 L 722.301,177.429 L 722.389,177.426 L 722.48,177.423 L 722.528,177.511 L 722.552,177.568 L 722.649,177.638 L 722.718,177.653 L 722.793,177.634 L 722.904,177.6 L 722.98,177.585 L 722.989,177.642 L 723.037,177.737 L 722.999,177.983 L 722.97,178.461 L 722.923,178.605 L 722.958,178.767 L 722.913,178.853 L 722.918,178.918 L 722.928,178.983 L 722.951,179.038 L 723.012,179.068 L 723.179,179.367 L 723.244,179.672 L 723.246,180.208 L 723.237,180.54 L 723.203,180.646 L 723.092,180.721 L 722.897,181.217 L 722.82,181.292 L 722.73,181.374 L 722.667,181.407 L 722.528,181.479 L 722.458,181.574 L 722.42,181.648 L 722.383,181.722 L 722.346,181.794 L 722.318,181.851 L 722.31,181.961 L 722.306,182.049 L 722.298,182.226 L 722.285,182.519 L 722.268,182.579 L 722.244,182.661 L 722.21,182.779 L 722.174,182.906 L 721.975,182.623 L 721.935,182.451 L 721.934,182.253 L 721.697,182.027 L 721.673,181.972 L 721.522,181.846 L 721.388,181.76 L 721.246,181.746 L 720.955,181.754 L 720.789,181.669 L 720.702,181.631 L 720.624,181.758 L 720.569,181.803 L 720.459,181.797 L 720.372,181.725 L 720.3,181.529 L 720.15,181.39 L 720.157,181.254 L 720.227,181.143 L 720.243,181.034 L 720.211,180.979 L 720.03,180.941 L 719.919,180.848 L 719.879,180.713 L 719.784,180.737 L 719.826,181.053 L 719.794,181.122 L 719.788,181.382 L 719.686,181.469 L 719.308,181.558 L 719.08,181.629 L 718.915,181.606 L 718.781,181.561 L 718.496,181.364 L 717.935,180.919 L 717.91,180.725 L 717.957,180.667 L 718.091,180.651 L 718.154,180.612 L 718.146,180.535 L 717.956,180.463 L 717.814,180.315 L 717.687,180.111 L 717.521,180.048 L 717.293,180.048 L 717.175,179.996 L 717.119,179.948 L 717.103,179.79 L 716.865,179.524 L 716.486,179.362 L 716.24,178.938 L 716.192,178.843 L 716.135,178.535 L 716.14,177.828 L 716.028,177.552 L 715.719,177.115 L 715.608,177.019 L 715.498,177.003 L 715.546,177.169 L 715.902,177.578 L 715.974,177.733 L 715.97,178.599 L 716.042,178.789 L 716.043,178.851 L 716.09,178.914 L 716.138,179.08 L 716.614,179.674 L 716.882,179.8 L 716.977,179.949 L 717.207,180.215 L 717.389,180.3 L 717.531,180.41 L 717.563,180.49 L 717.579,180.669 L 717.502,180.861 L 717.684,181.072 L 717.717,181.456 L 718.319,182.129 L 718.462,182.367 L 718.343,182.347 L 718.25,182.326 L 718.158,182.304 L 718.047,182.268 L 717.946,182.221 L 717.806,182.122 L 717.239,181.658 L 716.17,183.351 L 715.26,182.932 L 713.021,181.879 L 712.727,181.727 L 712.685,181.678 L 712.471,181.308 L 712.431,181.257 L 712.391,181.187 L 712.368,181.107 L 712.344,181.001 L 712.331,180.882 L 712.324,180.738 L 712.339,180.281 L 711.318,179.807 L 711.278,179.881 L 710.703,179.607 L 710.742,179.512 L 710.161,179.217 L 710.315,178.903 L 709.988,178.744 L 709.666,178.601 L 709.534,178.877 L 709.083,178.381 L 709.36,177.8 L 708.611,177.453 L 709.363,176.277 L 709.309,176.047 L 709.304,175.799 L 709.007,175.847 L 708.893,175.877 L 708.779,175.919 L 708.668,175.963 L 708.542,176.031 L 708.397,176.106 L 708.277,176.172 L 708.204,176.195 L 708.15,176.318 L 708.157,176.495 L 708.165,176.644 L 708.148,176.725 L 708.071,176.784 L 707.937,176.803 L 707.8,176.778 L 707.741,176.754 L 707.674,176.741 L 707.615,176.735 L 707.035,176.824 L 706.955,176.836 L 706.894,176.829 L 706.51,176.748 L 706.396,176.707 L 706.327,176.666 L 706.25,176.623 L 706.181,176.576 L 706.086,176.48 L 706.021,176.394 L 705.757,175.978 L 705.676,175.803 L 705.577,175.68 L 705.453,175.537 L 705.381,175.464 L 705.316,175.37 L 705.264,175.146 L 705.26,175.012 L 705.273,174.89 L 705.294,174.788 L 705.347,174.668 L 705.366,174.597 L 705.352,174.52 L 705.306,174.483 L 705.198,174.448 L 705.086,174.405 L 704.942,174.361 L 704.794,174.296 L 704.684,174.207 L 704.617,174.12 L 704.569,174.002 L 704.105,172.777 L 703.472,169.753 L 708.792,169.838 L 709.189,168.91 L 709.31,168.668 L 709.939,168.531 L 710.539,168.351 L 710.485,168.145 L 710.051,166.836 L 710.727,165.263 L 711.216,163.637 L 714.88,165.123 L 717.509,165.926 L 719.842,166.591"/><path id="path15435" d="M 719.977,181.389 L 719.928,181.146 L 719.975,181.092 L 720.094,181.107 L 720.078,181.185 L 720.031,181.248 L 719.977,181.389"/></g></svg>