<svg xmlns="http://www.w3.org/2000/svg" role="img" viewBox="1258.20 533.20 51.09 54.47"><title>Medfield</title><g id="g14955" fill="#fefee9" fill-opacity="1" fill-rule="evenodd" stroke="#000" stroke-linecap="square" stroke-linejoin="bevel" stroke-opacity="1" stroke-width=".098" transform="translate(-216.714 -21.7) scale(2.264)"><path id="path15671" fill-rule="evenodd" d="M 655.569,245.803 L 672.792,245.624 L 673.55,247.702 L 673.164,250.871 L 671.62,257.336 L 671.797,268.695 L 664.467,268.411 L 655.289,268.484 L 655.302,268.42 L 655.324,268.361 L 655.367,268.274 L 655.387,268.194 L 655.385,268.117 L 655.385,268.056 L 655.423,267.946 L 655.47,267.891 L 655.561,267.838 L 655.632,267.781 L 655.707,267.712 L 655.811,267.638 L 655.89,267.577 L 655.963,267.532 L 656.036,267.477 L 656.09,267.432 L 656.139,267.363 L 656.139,267.292 L 656.113,267.223 L 656.159,267.172 L 656.238,267.147 L 656.33,267.133 L 656.423,267.11 L 656.504,267.076 L 656.573,267.031 L 656.646,266.974 L 656.695,266.909 L 656.729,266.817 L 656.747,266.705 L 656.762,266.632 L 656.753,266.545 L 656.721,266.425 L 656.696,266.368 L 656.67,266.281 L 656.653,266.142 L 656.651,266.081 L 656.679,265.988 L 656.714,265.933 L 656.799,265.835 L 656.99,265.642 L 657.055,265.621 L 657.117,265.666 L 657.172,265.686 L 657.27,265.698 L 657.345,265.651 L 657.357,265.578 L 657.314,265.531 L 657.184,265.497 L 657.062,265.39 L 657.001,265.31 L 656.946,265.237 L 656.94,265.138 L 656.96,265.081 L 657.003,264.983 L 657.029,264.912 L 657.057,264.79 L 657.092,264.704 L 657.151,264.68 L 657.189,264.729 L 657.218,264.796 L 657.273,264.869 L 657.334,264.925 L 657.399,264.931 L 657.458,264.901 L 657.508,264.852 L 657.53,264.76 L 657.508,264.647 L 657.447,264.588 L 657.374,264.563 L 657.25,264.535 L 657.209,264.478 L 657.221,264.417 L 657.29,264.379 L 657.376,264.368 L 657.447,264.34 L 657.443,264.273 L 657.361,264.252 L 657.27,264.251 L 657.177,264.247 L 657.107,264.2 L 657.114,264.141 L 657.16,264.086 L 657.223,264.045 L 657.296,263.974 L 657.334,263.897 L 657.342,263.824 L 657.389,263.732 L 657.43,263.657 L 657.462,263.523 L 657.456,263.464 L 657.423,263.405 L 657.362,263.415 L 657.291,263.464 L 657.094,263.605 L 657.015,263.589 L 656.989,263.513 L 656.993,263.442 L 656.997,263.361 L 656.994,263.272 L 656.992,263.208 L 656.956,263.129 L 656.921,263.044 L 656.935,262.969 L 656.982,262.93 L 657.028,262.869 L 657.03,262.802 L 656.994,262.743 L 656.919,262.76 L 656.84,262.813 L 656.771,262.79 L 656.73,262.736 L 656.695,262.654 L 656.715,262.555 L 656.784,262.483 L 656.861,262.426 L 656.938,262.363 L 657.005,262.365 L 657.074,262.351 L 657.135,262.322 L 657.202,262.273 L 657.249,262.228 L 657.334,262.132 L 657.374,262.029 L 657.332,261.962 L 657.257,261.937 L 657.169,261.968 L 657.106,262.007 L 657.025,262.05 L 656.946,262.02 L 657.001,261.93 L 657.064,261.853 L 657.106,261.81 L 657.143,261.749 L 657.104,261.696 L 657.021,261.692 L 656.921,261.67 L 656.889,261.619 L 656.893,261.556 L 656.935,261.497 L 657.012,261.454 L 657.091,261.411 L 657.146,261.336 L 657.183,261.269 L 657.237,261.181 L 657.312,261.149 L 657.402,261.136 L 657.515,261.126 L 657.576,261.142 L 657.658,261.152 L 657.728,261.099 L 657.793,261.038 L 657.905,260.944 L 657.986,260.893 L 658.043,260.81 L 658.077,260.753 L 658.1,260.694 L 658.132,260.637 L 658.223,260.559 L 658.304,260.526 L 658.4,260.542 L 658.461,260.565 L 658.528,260.581 L 658.631,260.609 L 658.684,260.566 L 658.708,260.495 L 658.798,260.38 L 658.83,260.501 L 658.838,260.582 L 658.879,260.639 L 658.938,260.678 L 659.025,260.655 L 659.072,260.61 L 659.147,260.579 L 659.184,260.634 L 659.184,260.742 L 659.245,260.782 L 659.302,260.758 L 659.324,260.703 L 659.316,260.634 L 659.297,260.522 L 659.303,260.455 L 659.366,260.42 L 659.433,260.457 L 659.504,260.509 L 659.569,260.546 L 659.64,260.54 L 659.659,260.468 L 659.608,260.416 L 659.512,260.377 L 659.453,260.31 L 659.472,260.223 L 659.518,260.182 L 659.595,260.149 L 659.666,260.137 L 659.768,260.133 L 659.827,260.135 L 659.896,260.147 L 659.971,260.165 L 660.083,260.205 L 660.162,260.225 L 660.235,260.217 L 660.282,260.158 L 660.31,260.066 L 660.316,259.963 L 660.381,259.959 L 660.436,260.013 L 660.484,260.066 L 660.562,260.068 L 660.602,260.015 L 660.612,259.948 L 660.61,259.871 L 660.596,259.81 L 660.579,259.733 L 660.555,259.676 L 660.526,259.568 L 660.508,259.47 L 660.494,259.347 L 660.526,259.229 L 660.556,259.135 L 660.607,258.989 L 660.639,258.887 L 660.686,258.801 L 660.737,258.736 L 660.753,258.673 L 660.73,258.608 L 660.696,258.529 L 660.663,258.466 L 660.592,258.411 L 660.523,258.367 L 660.441,258.322 L 660.354,258.316 L 660.295,258.371 L 660.251,258.465 L 660.237,258.538 L 660.184,258.569 L 660.117,258.534 L 660.066,258.478 L 660.082,258.386 L 660.106,258.309 L 660.131,258.242 L 660.169,258.164 L 660.21,258.103 L 660.248,258.054 L 660.22,257.983 L 660.149,257.951 L 660.049,257.945 L 659.98,257.923 L 659.913,257.903 L 659.844,257.858 L 659.807,257.797 L 659.763,257.728 L 659.712,257.671 L 659.679,257.615 L 659.604,257.503 L 659.522,257.452 L 659.462,257.44 L 659.37,257.436 L 659.145,257.433 L 659.003,257.443 L 658.936,257.413 L 658.863,257.34 L 658.822,257.269 L 658.781,257.178 L 658.753,257.127 L 658.681,257.084 L 658.614,257.017 L 658.622,256.96 L 658.647,256.898 L 658.657,256.832 L 658.663,256.749 L 658.681,256.686 L 658.744,256.647 L 658.754,256.582 L 658.705,256.525 L 658.614,256.507 L 658.536,256.511 L 658.451,256.526 L 658.356,256.565 L 658.303,256.538 L 658.289,256.429 L 658.299,256.347 L 658.276,256.238 L 658.211,256.224 L 658.14,256.238 L 658.083,256.254 L 657.99,256.283 L 657.919,256.285 L 657.854,256.251 L 657.854,256.192 L 657.88,256.119 L 657.921,256.017 L 657.967,255.98 L 658.022,255.948 L 658.067,255.887 L 658.113,255.846 L 658.119,255.777 L 658.081,255.73 L 658.01,255.685 L 657.924,255.676 L 657.792,255.66 L 657.599,255.619 L 657.548,255.542 L 657.54,255.485 L 657.544,255.418 L 657.552,255.347 L 657.558,255.268 L 657.493,255.209 L 657.434,255.172 L 657.391,255.13 L 657.335,255.073 L 657.269,255.012 L 657.213,254.967 L 657.166,254.926 L 657.056,254.896 L 656.991,254.894 L 656.92,254.915 L 656.805,254.941 L 656.734,254.972 L 656.652,255.004 L 656.583,255.023 L 656.48,255.041 L 656.407,255.005 L 656.356,254.94 L 656.339,254.885 L 656.309,254.796 L 656.284,254.684 L 656.28,254.546 L 656.266,254.253 L 656.261,254.168 L 656.204,254.084 L 656.123,254.04 L 656.05,254.04 L 655.971,254.048 L 655.879,254.055 L 655.745,254.073 L 655.626,254.086 L 655.549,254.09 L 655.461,254.147 L 655.427,254.214 L 655.417,254.279 L 655.327,254.3 L 655.285,254.229 L 655.279,254.164 L 655.297,254.058 L 655.329,253.983 L 655.321,253.891 L 655.286,253.804 L 655.294,253.747 L 655.292,253.672 L 655.266,253.58 L 655.28,253.487 L 655.3,253.389 L 655.273,253.304 L 655.221,253.259 L 655.154,253.233 L 655.151,253.164 L 655.214,253.135 L 655.308,253.111 L 655.362,253.074 L 655.391,253.007 L 655.342,252.96 L 655.267,252.946 L 655.2,252.952 L 655.137,252.979 L 655.078,252.999 L 655.023,252.953 L 654.997,252.886 L 655.013,252.806 L 655.043,252.737 L 655.094,252.696 L 655.175,252.674 L 655.252,252.676 L 655.313,252.68 L 655.392,252.686 L 655.451,252.685 L 655.514,252.663 L 655.549,252.616 L 655.567,252.529 L 655.548,252.445 L 655.493,252.397 L 655.367,252.356 L 655.304,252.291 L 655.284,252.222 L 655.296,252.165 L 655.257,252.078 L 655.166,252.064 L 655.119,252.021 L 655.105,251.924 L 655.091,251.832 L 655.042,251.794 L 654.975,251.796 L 654.894,251.794 L 654.833,251.756 L 654.76,251.723 L 654.656,251.691 L 654.579,251.699 L 654.493,251.72 L 654.429,251.695 L 654.402,251.592 L 654.414,251.504 L 654.436,251.439 L 654.489,251.328 L 654.491,251.262 L 654.473,251.204 L 654.403,251.153 L 654.308,251.117 L 654.227,251.133 L 654.172,251.18 L 654.148,251.261 L 654.142,251.353 L 654.148,251.438 L 654.142,251.55 L 654.093,251.599 L 654.008,251.572 L 653.955,251.544 L 653.864,251.443 L 653.849,251.341 L 653.857,251.282 L 653.9,251.195 L 653.967,251.101 L 654.017,251.026 L 654.036,250.959 L 654.064,250.831 L 654.072,250.737 L 654.064,250.629 L 654.003,250.583 L 653.952,250.556 L 653.868,250.512 L 653.801,250.471 L 653.742,250.427 L 653.671,250.384 L 653.602,250.329 L 653.56,250.271 L 653.527,250.181 L 653.5,250.1 L 653.466,250.025 L 653.395,249.934 L 653.384,249.846 L 653.413,249.771 L 653.457,249.641 L 653.465,249.555 L 653.443,249.482 L 653.382,249.454 L 653.319,249.46 L 653.26,249.469 L 653.138,249.499 L 653.065,249.516 L 652.958,249.498 L 652.891,249.469 L 652.815,249.417 L 652.624,249.299 L 652.51,249.239 L 652.458,249.178 L 652.399,249.121 L 652.331,249.062 L 652.258,248.989 L 652.187,248.902 L 652.122,248.807 L 652.051,248.709 L 652.026,248.652 L 651.994,248.59 L 652.004,248.508 L 652.032,248.453 L 652.067,248.396 L 652.127,248.296 L 652.131,248.219 L 652.125,248.15 L 652.143,248.083 L 652.157,247.988 L 652.133,247.874 L 652.104,247.813 L 652.086,247.736 L 652.096,247.634 L 652.134,247.297 L 652.15,247.164 L 652.168,247.097 L 652.219,246.993 L 652.371,246.713 L 652.561,246.356 L 652.61,246.287 L 652.896,246.071 L 653.285,245.771 L 653.356,245.743 L 653.44,245.755 L 653.507,245.781 L 653.58,245.817 L 653.659,245.846 L 653.777,245.882 L 653.84,245.898 L 653.97,245.926 L 654.09,245.954 L 654.311,246.027 L 654.565,246.089 L 654.736,246.15 L 654.929,246.241 L 655.085,246.305 L 655.15,246.326 L 655.235,246.303 L 655.258,246.246 L 655.29,246.167 L 655.353,246.094 L 655.412,246 L 655.468,245.914 L 655.523,245.851 L 655.569,245.803"/></g></svg>