<svg xmlns="http://www.w3.org/2000/svg" role="img" viewBox="1428.59 27.77 50.83 43.33"><title>Merrimac</title><g id="g14955" fill="#fefee9" fill-opacity="1" fill-rule="evenodd" stroke="#000" stroke-linecap="square" stroke-linejoin="bevel" stroke-opacity="1" stroke-width=".098" transform="translate(-216.714 -21.7) scale(2.264)"><path id="path14961" fill-rule="evenodd" d="M 739.609,22.3544 L 740.957,23.6992 L 745.977,28.6766 L 748.721,36.3852 L 748.456,36.1945 L 748.303,36.0893 L 748.169,36.0073 L 748.02,35.9355 L 747.892,35.8809 L 747.759,35.8501 L 747.349,35.7852 L 746.943,35.7362 L 746.608,35.6936 L 746.294,35.6682 L 746.07,35.6746 L 745.878,35.6864 L 745.533,35.7364 L 745.273,35.8104 L 745.062,35.8599 L 744.683,35.9186 L 744.423,35.9754 L 744.154,36.0695 L 743.924,36.1673 L 743.562,36.3512 L 743.304,36.4778 L 743.137,36.5379 L 742.98,36.578 L 742.755,36.6128 L 742.54,36.6144 L 742.393,36.6078 L 742.243,36.6194 L 742.159,36.6326 L 741.968,36.6942 L 741.808,36.7726 L 741.662,36.8606 L 741.525,36.9716 L 741.359,37.1288 L 741.176,37.3361 L 741.038,37.4887 L 740.972,37.5656 L 740.886,37.6687 L 740.832,37.7459 L 740.779,37.8211 L 740.727,37.9044 L 740.694,37.9796 L 740.671,38.0487 L 740.648,38.1374 L 740.623,38.2244 L 740.608,38.3112 L 740.599,38.4117 L 740.592,38.5792 L 740.58,38.7328 L 740.575,38.8963 L 740.578,39.0224 L 740.593,39.17 L 740.604,39.3137 L 740.619,39.4435 L 740.639,39.5516 L 740.668,39.6816 L 740.682,39.7679 L 740.712,39.8584 L 740.764,39.9899 L 740.842,40.1685 L 740.944,40.3785 L 741.031,40.5365 L 735.588,37.4676 L 727.219,32.7827 L 729.509,27.4658 L 731.229,25.6164 L 732.009,24.7945 L 732.939,23.7926 L 736.73,22.9347 L 739.609,22.3544"/></g></svg>