<svg xmlns="http://www.w3.org/2000/svg" role="img" viewBox="1312.42 81.17 84.28 101.40"><title>Methuen</title><path fill-rule="evenodd" d="M1356.11623 83.34054l29.86895 25.70886.00453.30745.00227.23681.06112.47091.39847 1.3403.48223 1.0523.22414.47499 1.36066 2.57824.09962.16957.26488.35953.26263.30315.35771.2359 1.34029.97579.45506.42269.15169.18678.19923.21757.15622.22232 1.3018 1.87776.6226.9296.43016.68984.11546.36043.13131.29387.0815.25334.07925.3387.06792.3156.02717.26715.00679.20036.00905.23636-.01132.17546-.03622.20309-.07924.3525-.1449.44148-.09508.2642-.14716.3344-.12226.21463-1.1003 1.68917-1.76592 2.2246-1.03465 1.1225-.54563.5411-.21508.34955-.22187.47975-.26489.60222-.23772.4691-.19017.37582-.40752.60223-2.20514 2.99414-.5411.6758-.36676.3824-.45733.44034-.163.17455-.19018.25946-.09962.13086-19.92094-.65135-1.00068-.67966-.73128 1.0736-10.98719 8.8296 1.34482 10.99035-.59543-.32013-.3079-.15916-.36904-.18995-.56147-.24722-.44148-.17252-.47091-.14942-.57732-.16709-.47318-.07018-2.4904-.15124-.72448-.04256-.7856-.1132-.82863-.19244-3.88955-1.25063-.89428-.2504-.41432-.07856-.38714-.04302-.42563-.0163-.42337.00611-.33734.05049-.51166.12248-.56826.15395-.4347.17094-.29658.20172-.37808.24655-.26942.1972-.17433.17885-.23093.26806-.47996.75029-1.36746 2.41138-.283.53114-.21055.44646-.10641.39235-.2581 3.83725-.0249.7041-.04075.65045-.07019.39688-.07018.37402-.23998 1.05298-.46865 1.38738-.35998 1.05729-.3645.98144-.283.64728-.403.79059-2.70321 4.4422-.54336.66108-.32602.3928-.35092.2864-.16527.14286-.30337.28594-.39847.35794-.25583.29025-.14942-1.36157-6.40486-33.37182-.0566-.14942-3.26242-17.42805 3.19676-2.7657 2.33419-1.91987 4.62761-1.84357 7.81986-1.25585 24.218 7.00369-.63618-9.92742-2.09193-31.64438 2.1191-2.67718" fill="#fefee9" fill-opacity="1" stroke="#000" stroke-linecap="square" stroke-linejoin="bevel" stroke-opacity="1" stroke-width=".22187199999999999"/></svg>