<svg xmlns="http://www.w3.org/2000/svg" role="img" viewBox="1426.22 200.40 57.13 63.51"><title>Middleton</title><g id="g14955" fill="#fefee9" fill-opacity="1" fill-rule="evenodd" stroke="#000" stroke-linecap="square" stroke-linejoin="bevel" stroke-opacity="1" stroke-width=".098" transform="translate(-216.714 -21.7) scale(2.264)"><path id="path15163" fill-rule="evenodd" d="M 735.605,98.7219 L 741.419,102.957 L 743.413,104.362 L 745.017,105.512 L 745.087,105.503 L 745.152,105.478 L 745.243,105.457 L 745.421,105.417 L 745.564,105.435 L 745.622,105.474 L 745.675,105.52 L 745.802,105.567 L 745.867,105.566 L 745.974,105.556 L 746.093,105.578 L 746.186,105.602 L 746.259,105.609 L 746.335,105.574 L 746.394,105.542 L 746.513,105.516 L 746.58,105.533 L 746.648,105.565 L 746.747,105.603 L 746.806,105.612 L 746.888,105.585 L 746.993,105.601 L 747.063,105.678 L 747.115,105.762 L 747.222,105.786 L 747.292,105.767 L 747.413,105.739 L 745.803,107.301 L 745.779,107.402 L 745.723,107.526 L 745.707,107.625 L 745.69,107.724 L 745.652,107.799 L 745.568,107.895 L 745.532,107.955 L 745.549,108.035 L 745.562,108.127 L 745.507,108.167 L 745.463,108.217 L 745.45,108.28 L 745.418,108.367 L 745.326,108.406 L 745.301,108.464 L 745.217,108.607 L 745.175,108.682 L 745.109,108.719 L 745.07,108.781 L 745.079,108.857 L 745.146,108.964 L 745.21,109.009 L 745.238,109.097 L 745.269,109.147 L 745.321,109.198 L 745.403,109.285 L 745.489,109.366 L 745.568,109.449 L 745.686,109.569 L 745.733,109.635 L 745.767,109.698 L 745.834,109.795 L 745.868,109.858 L 745.874,109.976 L 745.857,110.039 L 745.869,110.153 L 745.912,110.248 L 745.931,110.323 L 745.918,110.4 L 745.982,110.468 L 746.057,110.498 L 746.19,110.555 L 746.215,110.613 L 746.282,110.736 L 746.329,110.773 L 746.459,110.857 L 746.567,110.881 L 746.64,110.886 L 746.752,110.897 L 746.837,110.943 L 746.884,111.005 L 746.934,111.052 L 746.995,111.098 L 747.083,111.142 L 747.17,111.178 L 747.249,111.196 L 747.325,111.205 L 747.434,111.222 L 747.533,111.252 L 747.608,111.277 L 747.705,111.352 L 747.784,111.463 L 747.856,111.536 L 747.897,111.638 L 747.912,111.703 L 747.978,111.784 L 748.003,111.862 L 748.039,111.921 L 748.087,111.953 L 748.156,111.976 L 748.288,111.991 L 748.36,111.959 L 748.472,111.933 L 748.541,111.966 L 748.624,111.952 L 748.684,111.949 L 748.753,111.96 L 748.835,112 L 748.885,112.05 L 749.201,112.378 L 749.227,112.446 L 749.209,112.513 L 749.265,112.564 L 749.361,112.646 L 749.895,112.978 L 749.984,113.022 L 750.076,113.014 L 750.131,112.992 L 750.228,113.01 L 750.293,113.028 L 750.345,113.068 L 747.887,114.876 L 744.934,115.816 L 745.029,116.352 L 745.049,116.487 L 744.85,116.539 L 743.977,117.532 L 743.933,117.6 L 743.858,117.654 L 743.779,117.683 L 743.717,117.686 L 743.656,117.683 L 743.593,117.68 L 743.534,117.679 L 743.502,117.764 L 743.548,117.813 L 743.608,117.875 L 743.652,117.921 L 743.694,118.017 L 743.724,118.118 L 743.729,118.185 L 743.705,118.317 L 743.714,118.378 L 743.728,118.488 L 743.684,118.576 L 743.656,118.645 L 743.596,118.74 L 743.579,118.798 L 743.571,118.874 L 743.627,118.964 L 743.677,119.001 L 743.706,119.055 L 743.693,119.113 L 743.663,119.2 L 743.635,119.326 L 743.631,119.403 L 743.647,119.461 L 743.697,119.502 L 743.76,119.499 L 743.809,119.378 L 743.863,119.318 L 743.938,119.313 L 743.969,119.389 L 743.974,119.474 L 743.971,119.543 L 743.956,119.6 L 743.903,119.693 L 743.816,119.779 L 743.738,119.847 L 743.688,119.898 L 743.668,119.98 L 743.639,120.058 L 743.633,120.129 L 743.582,120.19 L 743.528,120.227 L 743.52,120.315 L 743.503,120.375 L 743.469,120.456 L 743.418,120.492 L 743.293,120.508 L 743.232,120.525 L 743.161,120.605 L 743.131,120.682 L 743.126,120.757 L 743.179,120.791 L 743.212,120.879 L 743.245,120.948 L 743.26,121.009 L 743.17,121.077 L 743.122,121.133 L 743.115,121.202 L 743.107,121.267 L 743.053,121.366 L 742.989,121.421 L 742.967,121.52 L 743.034,121.615 L 743.097,121.645 L 743.148,121.737 L 743.154,121.796 L 743.152,121.879 L 743.129,121.944 L 743.065,122.013 L 743.017,122.051 L 742.956,122.046 L 742.895,122.028 L 742.817,122.062 L 742.766,122.093 L 742.697,122.098 L 742.665,122.15 L 742.699,122.21 L 742.725,122.279 L 742.757,122.372 L 742.779,122.434 L 742.818,122.518 L 742.766,122.583 L 742.663,122.581 L 742.604,122.574 L 742.504,122.578 L 742.476,122.684 L 742.532,122.746 L 742.592,122.784 L 742.653,122.833 L 742.649,122.92 L 742.574,122.894 L 742.494,122.945 L 742.438,123.03 L 742.377,123.081 L 742.312,123.051 L 742.342,122.933 L 742.312,122.878 L 742.228,122.923 L 742.197,122.991 L 742.206,123.067 L 742.207,123.141 L 742.203,123.254 L 742.216,123.328 L 742.28,123.316 L 742.351,123.292 L 742.424,123.289 L 742.438,123.346 L 742.39,123.409 L 742.302,123.433 L 742.233,123.487 L 742.215,123.575 L 742.263,123.635 L 742.319,123.702 L 742.295,123.776 L 742.217,123.76 L 742.138,123.725 L 742.114,123.821 L 742.117,123.897 L 742.039,123.949 L 741.956,123.967 L 741.981,124.028 L 742.041,124.094 L 742.106,124.126 L 742.133,124.2 L 742.092,124.259 L 742.042,124.302 L 741.964,124.348 L 741.88,124.387 L 741.778,124.422 L 741.681,124.439 L 741.613,124.464 L 741.549,124.489 L 741.426,124.532 L 741.358,124.586 L 741.29,124.63 L 741.23,124.694 L 741.168,124.76 L 741.111,124.816 L 741.051,124.842 L 740.974,124.855 L 740.86,124.87 L 740.806,124.942 L 740.805,125.017 L 740.816,125.131 L 740.816,125.237 L 740.802,125.359 L 740.772,125.46 L 740.731,125.547 L 740.68,125.596 L 740.588,125.557 L 740.555,125.463 L 740.542,125.335 L 740.542,125.203 L 740.543,125.122 L 740.514,125.054 L 740.362,125.024 L 740.168,125.049 L 739.983,125.071 L 739.724,125.126 L 739.581,125.177 L 739.508,125.203 L 739.438,125.257 L 739.384,125.297 L 739.31,125.351 L 739.215,125.367 L 739.13,125.291 L 739.089,125.215 L 739.047,125.16 L 738.915,125.116 L 738.847,125.06 L 738.724,124.979 L 738.595,124.9 L 738.508,124.858 L 738.391,124.801 L 738.294,124.743 L 738.19,124.66 L 738.089,124.598 L 737.976,124.523 L 737.875,124.438 L 737.795,124.358 L 737.709,124.288 L 737.635,124.23 L 737.596,124.188 L 737.548,124.125 L 737.405,124.084 L 737.261,124.078 L 737.118,124.072 L 737.013,124.063 L 736.861,124.044 L 736.708,124.024 L 736.587,124 L 736.498,123.974 L 736.437,123.943 L 736.344,123.915 L 736.228,123.887 L 736.101,123.859 L 736.044,123.834 L 736.01,123.785 L 735.961,123.666 L 735.942,123.562 L 735.939,123.474 L 735.874,123.386 L 735.771,123.328 L 735.684,123.288 L 735.577,123.25 L 735.498,123.237 L 735.43,123.238 L 735.344,123.275 L 735.284,123.395 L 735.259,123.469 L 735.17,123.555 L 735.052,123.56 L 734.873,123.57 L 734.66,123.559 L 734.528,123.545 L 734.363,123.526 L 734.256,123.49 L 734.147,123.456 L 734.045,123.434 L 733.96,123.427 L 733.834,125.031 L 732.634,124.944 L 732.38,123.284 L 734.202,121.953 L 732.725,118.049 L 726.266,110.898 L 726.412,109.958 L 727.259,104.456 L 727.407,103.584 L 735.605,98.7219"/></g></svg>