<svg xmlns="http://www.w3.org/2000/svg" role="img" viewBox="1461.97 724.73 144.30 139.68"><title>Middleborough</title><g id="g14955" fill="#fefee9" fill-opacity="1" fill-rule="evenodd" stroke="#000" stroke-linecap="square" stroke-linejoin="bevel" stroke-opacity="1" stroke-width=".098" transform="translate(-216.714 -21.7) scale(2.264)"><path id="path15861" fill-rule="evenodd" d="M 778.45,334.79 L 782.368,338.98 L 786.422,344.154 L 790.193,348.967 L 793.651,362.13 L 793.417,362.189 L 791.267,362.74 L 791.949,364.409 L 793.931,366.588 L 794.589,366.94 L 795.048,366.935 L 795.875,368.253 L 795.975,369.809 L 795.692,370.51 L 795.793,371.063 L 796.538,372.086 L 796.815,372.086 L 796.902,372.14 L 796.927,372.204 L 796.964,372.284 L 796.996,372.337 L 797.017,372.407 L 797.004,372.496 L 796.972,372.57 L 796.986,372.634 L 797.005,372.701 L 796.955,372.778 L 796.95,372.847 L 796.882,372.917 L 796.83,372.981 L 796.776,373.021 L 796.836,373.071 L 796.842,373.144 L 796.842,373.221 L 796.914,373.206 L 796.979,373.163 L 797.046,373.174 L 797.08,373.239 L 797.165,373.289 L 797.194,373.379 L 797.183,373.444 L 797.245,373.46 L 797.258,373.551 L 797.241,373.626 L 797.26,373.696 L 797.298,373.757 L 797.352,373.803 L 797.404,373.832 L 797.411,373.932 L 797.394,373.991 L 797.413,374.06 L 797.398,374.119 L 797.373,374.196 L 797.353,374.259 L 797.422,374.319 L 797.47,374.352 L 797.51,374.418 L 797.426,374.463 L 797.351,374.551 L 797.316,374.6 L 797.3,374.705 L 797.28,374.778 L 797.231,374.828 L 797.179,374.884 L 797.18,374.954 L 797.177,375.031 L 797.164,375.096 L 797.129,375.215 L 797.241,375.469 L 797.306,375.484 L 797.363,375.475 L 797.442,375.48 L 797.502,375.55 L 797.555,375.588 L 797.646,375.591 L 797.73,375.597 L 797.8,375.636 L 797.813,375.745 L 797.798,375.805 L 797.827,375.857 L 797.901,375.842 L 798.026,375.931 L 798.134,376.044 L 798.206,376.099 L 798.252,376.142 L 798.292,376.228 L 798.307,376.291 L 798.359,376.365 L 798.405,376.283 L 798.418,376.185 L 798.47,376.137 L 798.594,376.157 L 798.655,376.175 L 798.711,376.22 L 798.778,376.321 L 798.891,376.396 L 798.95,376.427 L 799.043,376.429 L 799.123,376.414 L 799.196,376.437 L 799.267,376.438 L 799.33,376.443 L 799.388,376.483 L 799.403,376.569 L 799.457,376.624 L 799.525,376.603 L 799.503,376.527 L 799.563,376.506 L 799.621,376.572 L 799.637,376.735 L 799.668,376.821 L 799.651,376.886 L 799.635,376.967 L 799.677,377.008 L 799.748,377.015 L 799.776,377.099 L 799.801,377.173 L 799.872,377.149 L 799.898,377.056 L 799.932,377.004 L 800.019,377.008 L 800.098,377 L 800.151,377.032 L 800.24,377.039 L 800.296,377 L 800.374,376.948 L 800.451,376.937 L 800.528,376.95 L 800.608,376.968 L 800.672,377.015 L 800.702,377.069 L 800.763,377.151 L 800.85,377.185 L 800.989,377.142 L 801.063,377.095 L 801.169,377.082 L 801.358,377.087 L 801.48,377.101 L 801.535,377.121 L 801.575,377.17 L 801.608,377.258 L 801.629,377.317 L 801.675,377.395 L 801.648,377.46 L 801.616,377.547 L 801.671,377.684 L 801.711,377.734 L 801.744,377.799 L 801.774,377.873 L 801.813,377.934 L 802.105,379.107 L 803.979,384.573 L 801.762,384.879 L 775.304,389.248 L 769.659,390.176 L 769.027,383.146 L 769.198,382.623 L 770.242,379.162 L 770.268,379.041 L 770.313,378.884 L 770.335,378.789 L 770.346,378.69 L 770.342,378.604 L 770.318,378.512 L 770.279,378.397 L 770.23,378.31 L 770.113,378.168 L 763.786,370.388 L 763.771,370.292 L 763.786,370.187 L 763.807,370.09 L 763.84,369.963 L 763.899,369.8 L 763.949,369.689 L 763.997,369.583 L 764.029,369.482 L 764.051,369.4 L 764.105,369.306 L 764.177,369.139 L 764.191,369.069 L 764.2,368.912 L 764.244,368.753 L 764.272,368.665 L 764.278,368.539 L 764.236,368.458 L 764.167,368.371 L 764.149,368.277 L 764.111,368.217 L 764.073,368.171 L 764.08,368.092 L 764.312,367.81 L 764.404,367.713 L 764.508,367.696 L 764.567,367.708 L 764.767,367.771 L 764.885,367.764 L 764.924,367.688 L 764.928,367.621 L 764.961,367.48 L 765.038,367.46 L 765.156,367.402 L 765.187,367.334 L 765.235,367.222 L 765.258,367.139 L 765.245,366.998 L 765.179,366.976 L 765.079,366.993 L 764.983,366.98 L 764.919,366.944 L 764.852,366.893 L 764.825,366.831 L 764.795,366.662 L 764.775,366.533 L 764.793,366.473 L 764.863,366.448 L 764.99,366.422 L 765.028,366.354 L 764.995,366.304 L 764.911,366.273 L 764.856,366.257 L 764.779,366.244 L 764.669,366.251 L 764.627,366.171 L 764.647,366.054 L 764.7,365.982 L 764.73,365.93 L 764.708,365.844 L 764.642,365.816 L 764.488,365.787 L 764.461,365.729 L 764.498,365.649 L 764.581,365.606 L 764.635,365.571 L 764.639,365.509 L 764.595,365.469 L 764.314,365.298 L 764.24,365.186 L 764.256,365.111 L 764.308,365.033 L 764.352,364.992 L 764.412,364.947 L 764.522,364.879 L 764.591,364.848 L 764.653,364.796 L 764.709,364.706 L 764.733,364.652 L 764.798,364.546 L 764.844,364.506 L 764.896,364.463 L 764.954,364.427 L 765.009,364.373 L 765.058,364.312 L 765.111,364.256 L 765.138,364.174 L 765.168,364.077 L 765.166,364.014 L 765.135,363.964 L 765.051,363.891 L 764.964,363.825 L 764.876,363.743 L 764.822,363.666 L 764.784,363.584 L 764.753,363.504 L 764.694,363.451 L 764.618,363.423 L 764.511,363.403 L 764.38,363.379 L 764.322,363.345 L 764.31,363.287 L 764.309,363.202 L 764.306,363.07 L 764.329,362.94 L 764.358,362.803 L 764.373,362.655 L 764.379,362.503 L 764.369,362.397 L 764.352,362.268 L 764.335,362.154 L 764.291,361.956 L 764.246,361.693 L 763.574,361.085 L 752.28,355.215 L 752.228,355.171 L 752.26,355.042 L 752.283,354.975 L 752.272,354.915 L 752.244,354.858 L 752.19,354.793 L 752.115,354.739 L 752.031,354.669 L 752.003,354.611 L 751.953,354.505 L 751.914,354.352 L 751.905,354.266 L 751.88,354.207 L 751.84,354.151 L 751.687,354.001 L 751.524,353.82 L 751.322,353.602 L 751.257,353.532 L 751.197,353.496 L 751.053,353.476 L 750.969,353.491 L 750.895,353.529 L 750.799,353.56 L 750.704,353.576 L 750.557,353.598 L 750.467,353.597 L 750.36,353.547 L 750.286,353.495 L 750.221,353.443 L 750.163,353.412 L 750.088,353.397 L 749.98,353.396 L 749.865,353.449 L 749.784,353.48 L 749.659,353.505 L 749.539,353.53 L 749.417,353.539 L 749.333,353.55 L 749.261,353.5 L 749.206,353.471 L 749.136,353.531 L 749.065,353.506 L 749.009,353.485 L 748.948,353.496 L 748.862,353.532 L 748.777,353.469 L 748.772,353.378 L 748.704,353.301 L 748.652,353.236 L 748.599,353.188 L 748.547,353.114 L 748.55,353.045 L 748.459,352.999 L 748.509,352.959 L 748.467,352.903 L 748.412,352.845 L 748.393,352.78 L 748.345,352.71 L 748.282,352.656 L 748.195,352.614 L 748.124,352.625 L 748.059,352.677 L 747.969,352.721 L 747.877,352.707 L 747.829,352.662 L 747.783,352.59 L 747.756,352.502 L 747.7,352.431 L 747.656,352.368 L 747.632,352.308 L 747.614,352.239 L 747.51,352.162 L 747.435,352.132 L 747.378,352.076 L 747.338,352.018 L 747.296,351.977 L 747.228,351.933 L 747.106,351.904 L 747.021,351.899 L 746.964,351.839 L 746.945,351.757 L 746.903,351.699 L 746.844,351.694 L 746.772,351.602 L 746.704,351.526 L 746.69,351.469 L 746.642,351.391 L 746.567,351.391 L 746.483,351.48 L 746.41,351.582 L 746.338,351.634 L 746.248,351.705 L 746.145,351.797 L 746.083,351.884 L 746.018,351.95 L 745.883,352.007 L 745.801,352.007 L 745.682,351.971 L 745.609,351.964 L 745.526,351.912 L 745.477,351.877 L 745.442,351.797 L 745.408,351.728 L 745.349,351.692 L 745.302,351.733 L 745.229,351.707 L 745.173,351.662 L 745.063,351.695 L 744.981,351.71 L 744.964,351.772 L 744.9,351.83 L 744.851,351.873 L 744.776,351.853 L 744.713,351.83 L 744.644,351.813 L 744.609,351.737 L 744.683,351.671 L 744.775,351.599 L 744.839,351.529 L 744.893,351.46 L 744.934,351.386 L 744.986,351.285 L 745.022,351.186 L 745.045,351.097 L 745.071,350.986 L 745.085,350.846 L 745.12,350.652 L 745.132,350.487 L 745.116,350.32 L 745.105,350.198 L 745.057,349.964 L 745.009,349.709 L 744.97,349.418 L 744.945,349.112 L 744.884,348.81 L 744.848,348.626 L 744.814,348.557 L 744.774,348.511 L 744.721,348.47 L 744.64,348.434 L 744.576,348.407 L 744.507,348.396 L 744.395,348.409 L 744.3,348.462 L 744.273,348.529 L 744.258,348.629 L 744.253,348.732 L 744.239,348.804 L 744.182,348.844 L 744.111,348.845 L 744.007,348.825 L 743.908,348.785 L 743.811,348.727 L 743.755,348.673 L 743.683,348.585 L 743.601,348.472 L 743.535,348.363 L 743.48,348.228 L 743.441,348.069 L 743.425,347.848 L 743.426,347.617 L 743.453,347.368 L 743.509,347.024 L 743.552,346.767 L 743.548,346.63 L 743.546,346.568 L 743.517,346.474 L 743.49,346.38 L 743.457,346.241 L 743.46,346.142 L 743.461,346.047 L 743.491,345.96 L 743.539,345.877 L 743.596,345.804 L 743.668,345.737 L 743.761,345.656 L 743.831,345.564 L 743.857,345.471 L 743.862,345.353 L 743.857,345.245 L 743.849,345.13 L 743.816,345.001 L 743.748,344.815 L 743.655,344.631 L 743.556,344.456 L 743.495,344.396 L 743.402,344.343 L 743.263,344.283 L 742.819,344.098 L 742.741,344 L 742.741,343.908 L 742.797,343.815 L 742.843,343.759 L 742.957,343.738 L 743.025,343.711 L 743.076,343.672 L 743.133,343.636 L 743.204,343.533 L 743.209,343.423 L 743.178,343.332 L 743.158,343.245 L 743.133,343.153 L 743.096,343.016 L 743.079,342.911 L 743.084,342.805 L 743.13,342.625 L 743.162,342.494 L 743.182,342.352 L 743.264,342.242 L 743.327,342.269 L 743.381,342.305 L 743.466,342.374 L 743.587,342.491 L 743.694,342.56 L 743.825,342.648 L 743.936,342.71 L 744.041,342.749 L 744.191,342.769 L 744.451,342.831 L 744.611,342.877 L 744.728,342.932 L 744.845,343.014 L 744.938,343.057 L 745.015,343.095 L 745.111,343.108 L 745.188,343.103 L 745.264,343.081 L 745.343,343.038 L 745.407,342.961 L 745.494,342.822 L 745.584,342.664 L 745.725,342.426 L 745.836,342.187 L 745.892,342.055 L 745.947,341.867 L 745.959,341.708 L 745.974,341.521 L 745.957,341.273 L 746.004,341.068 L 746.074,340.981 L 746.129,340.937 L 746.195,340.924 L 746.295,340.905 L 746.403,340.886 L 746.523,340.845 L 746.623,340.82 L 746.678,340.79 L 746.783,340.708 L 747.078,340.513 L 747.254,340.424 L 747.39,340.332 L 747.482,340.281 L 747.64,340.184 L 747.785,340.108 L 747.903,340.057 L 748.036,340.061 L 748.141,340.083 L 748.266,340.143 L 748.406,340.218 L 748.559,340.31 L 748.721,340.365 L 748.845,340.397 L 748.951,340.411 L 749.052,340.408 L 749.226,340.323 L 749.39,340.21 L 749.502,340.209 L 749.567,340.239 L 749.632,340.278 L 749.777,340.361 L 749.896,340.428 L 750.064,340.509 L 750.163,340.553 L 750.246,340.569 L 750.37,340.589 L 750.567,340.616 L 750.675,340.636 L 750.757,340.679 L 750.83,340.741 L 750.945,340.849 L 751.059,340.962 L 751.157,341.075 L 751.304,341.203 L 751.458,341.297 L 751.597,341.35 L 751.786,341.411 L 751.999,341.469 L 752.202,341.51 L 752.392,341.537 L 752.65,341.553 L 752.8,341.597 L 752.861,341.637 L 752.911,341.686 L 752.971,341.754 L 753.033,341.826 L 753.096,341.886 L 753.17,341.956 L 753.269,342.021 L 753.354,342.072 L 753.461,342.11 L 753.615,342.169 L 753.765,342.224 L 753.887,342.257 L 753.986,342.234 L 754.066,342.171 L 754.181,342.11 L 754.294,342.069 L 754.406,342.052 L 754.562,342.036 L 754.703,342.04 L 754.826,342.066 L 754.942,342.096 L 755.056,342.111 L 755.164,342.099 L 755.282,342.074 L 755.404,342.055 L 755.585,342.053 L 755.744,342.076 L 755.875,342.106 L 755.974,342.164 L 756.043,342.214 L 756.123,342.29 L 756.177,342.37 L 756.218,342.503 L 756.246,342.591 L 756.295,342.683 L 756.37,342.722 L 756.441,342.717 L 756.505,342.694 L 756.591,342.626 L 756.68,342.525 L 756.769,342.39 L 756.849,342.287 L 756.915,342.223 L 756.995,342.145 L 757.095,342.014 L 757.202,341.869 L 757.269,341.726 L 757.345,341.533 L 757.42,341.307 L 757.451,341.163 L 757.501,341.025 L 757.577,340.937 L 757.641,340.877 L 757.715,340.809 L 757.818,340.739 L 757.939,340.663 L 758.044,340.524 L 758.106,340.425 L 758.198,340.225 L 758.292,340.054 L 758.421,339.854 L 758.485,339.727 L 758.527,339.605 L 758.568,339.467 L 758.573,339.346 L 758.602,339.153 L 758.645,338.991 L 758.743,338.758 L 758.847,338.569 L 758.99,338.188 L 759.024,338.01 L 759.046,337.939 L 759.039,337.804 L 758.972,337.456 L 758.919,337.297 L 758.882,337.182 L 758.862,336.961 L 758.865,336.875 L 758.892,336.701 L 758.951,336.51 L 758.996,336.324 L 759.035,336.137 L 759.068,335.934 L 759.08,335.642 L 759.104,335.512 L 759.137,335.433 L 759.183,335.371 L 759.257,335.291 L 759.356,335.156 L 759.444,334.992 L 759.516,334.851 L 759.563,334.679 L 759.585,334.449 L 759.618,334.212 L 759.685,334.052 L 759.761,333.947 L 759.937,333.738 L 760.022,333.627 L 760.114,333.533 L 760.256,333.431 L 760.471,333.318 L 760.631,333.221 L 760.745,333.187 L 760.828,333.17 L 760.948,333.168 L 761.074,333.186 L 761.214,333.206 L 761.407,333.257 L 761.748,333.328 L 761.803,333.354 L 761.857,333.391 L 761.931,333.457 L 761.986,333.521 L 762.058,333.576 L 762.147,333.592 L 762.243,333.587 L 762.314,333.561 L 762.372,333.515 L 762.418,333.445 L 762.45,333.323 L 762.459,333.236 L 762.48,333.013 L 762.502,332.905 L 762.552,332.755 L 762.611,332.632 L 762.653,332.531 L 762.709,332.422 L 762.761,332.343 L 762.819,332.271 L 762.88,332.221 L 762.942,332.181 L 763.011,332.156 L 763.082,332.15 L 763.143,332.165 L 763.189,332.211 L 763.197,332.27 L 763.174,332.339 L 763.158,332.442 L 763.2,332.516 L 763.277,332.545 L 763.37,332.563 L 763.447,332.57 L 763.543,332.565 L 763.633,332.554 L 763.706,332.557 L 763.803,332.58 L 763.927,332.613 L 763.988,332.636 L 764.068,332.686 L 764.161,332.74 L 764.248,332.796 L 764.434,332.853 L 764.593,332.873 L 764.676,332.862 L 764.748,332.845 L 764.825,332.815 L 764.865,332.773 L 764.857,332.692 L 764.789,332.65 L 764.661,332.64 L 764.561,332.619 L 764.536,332.549 L 764.563,332.45 L 764.593,332.395 L 764.639,332.266 L 764.719,332.167 L 764.793,332.105 L 764.873,332.06 L 764.934,332.097 L 764.99,332.14 L 765.049,332.141 L 765.121,332.128 L 765.213,332.086 L 765.325,332.021 L 765.66,331.903 L 765.712,331.865 L 765.745,331.813 L 765.783,331.671 L 765.748,331.581 L 765.696,331.493 L 765.551,331.314 L 765.534,331.235 L 765.57,331.131 L 765.654,331.098 L 765.76,331.099 L 765.859,331.096 L 765.92,331.077 L 766.004,331.049 L 766.098,331.02 L 766.186,330.987 L 774.916,336.269 L 776.355,337.137 L 778.45,334.79"/></g></svg>