<svg xmlns="http://www.w3.org/2000/svg" role="img" viewBox="296.69 115.88 58.50 33.88"><title>Monroe</title><g id="g14955" fill="#fefee9" fill-opacity="1" fill-rule="evenodd" stroke="#000" stroke-linecap="square" stroke-linejoin="bevel" stroke-opacity="1" stroke-width=".098" transform="translate(-216.714 -21.7) scale(2.264)"><path id="path15011" fill-rule="evenodd" d="M 227.735,61.3266 L 228.829,61.3886 L 233.666,61.6295 L 251.275,62.4227 L 252.097,62.4616 L 252.04,62.5773 L 252.018,62.6749 L 251.955,62.9803 L 251.844,64.7379 L 251.827,64.8456 L 251.797,64.9432 L 251.755,65.0465 L 251.697,65.1747 L 251.62,65.2555 L 251.445,65.4203 L 251.294,65.5543 L 251.115,65.6777 L 250.99,65.7475 L 250.856,65.8325 L 250.775,65.9034 L 250.705,65.9607 L 250.524,66.094 L 250.46,66.1532 L 250.409,66.2051 L 250.334,66.3057 L 250.299,66.3814 L 250.255,66.4786 L 250.237,66.5726 L 250.216,66.6704 L 250.2,66.7665 L 250.185,66.831 L 250.157,66.9209 L 250.116,66.9887 L 250.063,67.0442 L 249.999,67.0859 L 249.898,67.1229 L 249.84,67.1607 L 249.662,67.188 L 249.535,67.2201 L 249.422,67.2567 L 249.357,67.2767 L 249.3,67.2929 L 249.232,67.3346 L 249.175,67.3882 L 249.138,67.4661 L 249.119,67.5205 L 249.089,67.6596 L 249.038,67.7508 L 248.986,67.9304 L 248.969,68.0559 L 248.939,68.2223 L 248.899,68.3827 L 248.864,68.4625 L 248.814,68.5458 L 248.761,68.6192 L 248.694,68.6963 L 248.628,68.7476 L 248.532,68.8082 L 248.466,68.8636 L 248.392,68.9169 L 248.312,68.9562 L 248.206,68.9672 L 248.128,68.9399 L 248.005,68.8956 L 247.788,68.7821 L 247.684,68.7125 L 247.454,68.6145 L 247.328,68.5601 L 247.244,68.5326 L 247.177,68.527 L 247.099,68.5173 L 246.984,68.5301 L 246.877,68.5727 L 246.792,68.606 L 246.71,68.663 L 246.651,68.7067 L 246.56,68.736 L 246.465,68.7631 L 246.247,68.7716 L 246.026,68.7838 L 245.941,68.8073 L 245.763,68.8462 L 245.674,68.8754 L 245.584,68.9204 L 245.522,68.9818 L 245.489,69.036 L 245.461,69.0964 L 245.432,69.1663 L 245.415,69.227 L 245.385,69.307 L 245.36,69.3851 L 245.341,69.4908 L 245.309,69.6 L 245.279,69.7488 L 245.263,69.8507 L 245.253,69.9212 L 245.255,69.9863 L 245.246,70.051 L 245.253,70.1494 L 245.287,70.2625 L 245.338,70.3659 L 245.435,70.6181 L 245.468,70.7211 L 245.477,70.8159 L 245.486,70.928 L 245.51,71.0034 L 245.536,71.071 L 245.642,71.3569 L 245.685,71.4444 L 245.734,71.5263 L 245.764,71.586 L 245.782,71.6435 L 245.799,71.7423 L 245.815,71.8194 L 245.822,71.9081 L 245.82,71.9868 L 245.818,72.0575 L 245.811,72.1162 L 245.806,72.2262 L 245.79,72.3065 L 245.784,72.377 L 245.778,72.4851 L 245.781,72.5777 L 245.806,72.8398 L 245.825,72.9289 L 245.824,73.0371 L 245.819,73.2198 L 245.829,73.3184 L 245.834,73.4701 L 245.844,73.5568 L 245.857,73.6456 L 245.888,73.7486 L 245.929,73.8323 L 245.982,73.9043 L 246.012,73.9563 L 246.103,74.0372 L 245.843,74.1331 L 233.839,75.2098 L 233.432,75.1513 L 227.31,74.5672 L 227.735,61.3266"/></g></svg>