<svg xmlns="http://www.w3.org/2000/svg" role="img" viewBox="656.09 572.09 72.83 105.95"><title>Monson</title><g id="g14955" fill="#fefee9" fill-opacity="1" fill-rule="evenodd" stroke="#000" stroke-linecap="square" stroke-linejoin="bevel" stroke-opacity="1" stroke-width=".098" transform="translate(-216.714 -21.7) scale(2.264)"><path id="path15727" fill-rule="evenodd" d="M 415.787,269.509 L 416.213,275.971 L 416.772,287.17 L 416.43,308.151 L 391.7,307.548 L 389.922,292.733 L 388.748,283.253 L 387.745,275.703 L 386.472,266.368 L 386.463,266.3 L 387.059,266.367 L 387.198,266.373 L 387.283,266.375 L 387.366,266.354 L 387.462,266.356 L 387.557,266.341 L 387.624,266.325 L 387.691,266.327 L 387.807,266.317 L 387.895,266.317 L 387.964,266.329 L 388.037,266.335 L 388.119,266.365 L 388.186,266.394 L 388.298,266.422 L 388.361,266.444 L 388.454,266.462 L 388.544,266.474 L 388.607,266.484 L 388.702,266.448 L 389.285,266.26 L 389.549,266.158 L 389.653,266.115 L 389.761,266.086 L 390.184,266.017 L 391.553,265.936 L 391.665,265.919 L 391.74,265.895 L 391.814,265.866 L 392.154,265.688 L 392.537,265.502 L 392.599,265.44 L 392.657,265.394 L 392.703,265.349 L 392.782,265.281 L 393.033,264.994 L 393.307,264.724 L 393.602,264.47 L 393.692,264.412 L 395.158,263.634 L 395.235,263.604 L 395.328,263.579 L 395.399,263.565 L 395.484,263.55 L 395.547,263.541 L 395.641,263.542 L 395.728,263.555 L 395.801,263.562 L 395.877,263.565 L 395.946,263.57 L 396.086,263.573 L 396.177,263.559 L 396.277,263.536 L 396.366,263.502 L 396.435,263.483 L 396.493,263.466 L 396.719,263.644 L 396.802,263.621 L 396.88,263.524 L 396.918,263.463 L 397.006,263.504 L 397.065,263.52 L 397.147,263.505 L 397.201,263.467 L 397.279,263.385 L 397.38,263.318 L 397.444,263.281 L 397.505,263.258 L 397.617,263.271 L 397.687,263.329 L 397.77,263.452 L 397.792,263.549 L 397.771,263.649 L 397.784,263.73 L 397.864,263.776 L 397.951,263.755 L 397.995,263.717 L 398.041,263.648 L 398.083,263.602 L 398.117,263.549 L 398.153,263.5 L 398.219,263.424 L 398.275,263.387 L 398.343,263.386 L 398.416,263.421 L 398.486,263.492 L 398.542,263.568 L 398.569,263.621 L 398.591,263.73 L 398.598,263.801 L 398.595,263.893 L 398.6,263.958 L 398.612,264.029 L 398.656,264.116 L 398.729,264.174 L 398.829,264.193 L 398.908,264.174 L 398.996,264.148 L 399.062,264.129 L 399.174,264.091 L 399.289,264.071 L 399.375,264.066 L 399.446,264.076 L 399.558,264.082 L 399.682,264.091 L 399.859,264.117 L 399.941,264.13 L 400.047,264.147 L 400.104,264.173 L 400.174,264.193 L 400.249,264.23 L 400.34,264.284 L 400.401,264.338 L 400.492,264.427 L 400.535,264.473 L 400.602,264.557 L 400.647,264.636 L 400.673,264.693 L 400.74,264.846 L 400.777,264.891 L 400.833,264.947 L 400.896,265.005 L 400.967,265.102 L 401.019,265.195 L 401.051,265.274 L 401.082,265.355 L 401.186,265.699 L 401.301,266.064 L 401.382,266.359 L 401.416,266.424 L 401.449,266.487 L 401.522,266.587 L 401.571,266.628 L 401.629,266.686 L 401.698,266.705 L 401.778,266.733 L 401.874,266.75 L 401.984,266.759 L 402.536,266.809 L 402.621,266.84 L 402.681,266.884 L 402.736,266.926 L 402.776,266.999 L 402.801,267.078 L 402.821,267.133 L 402.836,267.191 L 402.873,267.264 L 402.902,267.315 L 402.934,267.375 L 402.977,267.43 L 403.051,267.512 L 403.125,267.542 L 403.209,267.555 L 403.308,267.539 L 403.368,267.492 L 403.445,267.448 L 403.51,267.456 L 403.572,267.503 L 403.638,267.57 L 403.746,267.709 L 403.894,267.982 L 403.9,268.132 L 403.93,268.247 L 403.968,268.328 L 404.021,268.358 L 404.11,268.373 L 404.208,268.395 L 404.262,268.441 L 404.313,268.491 L 404.359,268.529 L 404.47,268.605 L 404.541,268.594 L 404.601,268.552 L 404.641,268.487 L 404.703,268.378 L 404.794,268.204 L 404.865,268.083 L 404.925,268.009 L 404.994,267.964 L 405.083,267.952 L 405.169,267.949 L 405.236,267.975 L 405.31,268.015 L 405.352,268.093 L 405.625,268.481 L 405.675,268.573 L 405.671,268.665 L 405.666,268.749 L 405.652,268.81 L 405.647,268.905 L 405.611,269.06 L 405.604,269.144 L 405.601,269.219 L 405.665,269.312 L 405.741,269.378 L 405.823,269.426 L 405.915,269.482 L 406.041,269.562 L 406.1,269.589 L 406.161,269.609 L 406.237,269.614 L 406.334,269.607 L 406.423,269.587 L 406.486,269.55 L 406.585,269.498 L 406.661,269.425 L 406.901,269.244 L 407.006,269.187 L 407.073,269.154 L 407.202,269.098 L 407.297,269.09 L 407.371,269.091 L 407.44,269.099 L 407.526,269.134 L 407.608,269.153 L 407.673,269.173 L 407.763,269.182 L 407.863,269.213 L 407.965,269.228 L 408.132,269.253 L 408.242,269.276 L 408.329,269.275 L 408.415,269.29 L 408.476,269.301 L 408.588,269.322 L 408.654,269.332 L 408.767,269.318 L 408.892,269.326 L 408.981,269.319 L 409.044,269.286 L 409.111,269.271 L 409.2,269.26 L 409.263,269.24 L 409.36,269.207 L 409.464,269.185 L 409.573,269.168 L 409.675,269.174 L 409.752,269.182 L 409.844,269.205 L 409.955,269.242 L 410.01,269.264 L 410.059,269.318 L 410.113,269.396 L 410.143,269.449 L 410.201,269.54 L 410.244,269.615 L 410.296,269.669 L 410.37,269.698 L 410.463,269.699 L 410.552,269.649 L 410.598,269.608 L 410.657,269.56 L 410.764,269.492 L 410.857,269.481 L 410.916,269.478 L 411.018,269.491 L 411.112,269.545 L 411.168,269.611 L 411.195,269.665 L 411.256,269.764 L 411.322,269.861 L 411.359,269.916 L 411.405,269.964 L 411.492,270.05 L 411.559,270.084 L 411.628,270.095 L 411.704,270.098 L 411.791,270.11 L 411.883,270.121 L 412.105,270.134 L 412.177,270.151 L 412.252,270.177 L 412.319,270.192 L 412.411,270.179 L 412.486,270.154 L 412.569,270.15 L 412.671,270.168 L 412.741,270.217 L 412.79,270.256 L 412.846,270.306 L 412.897,270.364 L 412.983,270.398 L 413.104,270.41 L 413.175,270.409 L 413.802,270.355 L 413.896,270.335 L 413.983,270.288 L 414.021,270.242 L 414.062,270.156 L 414.091,270.075 L 414.082,269.977 L 414.089,269.872 L 414.118,269.812 L 414.148,269.761 L 414.231,269.685 L 414.303,269.641 L 414.36,269.616 L 414.415,269.599 L 414.484,269.592 L 414.597,269.576 L 414.665,269.582 L 414.779,269.615 L 414.871,269.642 L 414.981,269.661 L 415.056,269.656 L 415.119,269.635 L 415.21,269.597 L 415.277,269.574 L 415.443,269.541 L 415.544,269.504 L 415.607,269.489 L 415.678,269.486 L 415.787,269.509"/></g></svg>