<svg xmlns="http://www.w3.org/2000/svg" role="img" viewBox="134.38 502.13 77.87 76.50"><title>Monterey</title><path fill-rule="evenodd" d="M156.59017 503.85364l4.09331 2.6919 30.15874 19.76924 19.81906 13.3893-.17206 14.27678-3.06999 12.28447.29432 4.31745-11.93807.94635.21508 1.75007-22.17135 3.77409-12.80519-16.1378-1.45122.16528-12.7599 1.76139-.22188-.07924-.15395-.03396-.20376-.09735-.19017-.07698-.12452-.04075-.15622-.10188-.12-.09962-.1381-.16527-.12678-.1698-.43922-.49581-.17659-.2581-.15848-.1449-.1132-.1132-.17659-.06565-.14716-.0249-.1766-.09736-.19696-.09056-.1766-.0883-.23092-.0566-.18338-.01358-.16075.00227h-.16753l-.29206.0249-.16754-.05207-.10867-.08603-.13131-.12452-.1449-.09962-.14263-.06566-.14037-.06565-.14263-.04755-.1449-.04301-.15621-.02943-.17206-.01812-.15396-.11772-.15621-.02264-.22187-.0068-.26263-.04301-.29885-.0317-.21281-.05433-.29885-.12679-.12678-.13584-.17886-.16753-.30338-.2513-.52524-.39394-1.60518-1.04597-.72674-9.1126.61128-13.20365 19.92999-31.3564" fill="#fefee9" fill-opacity="1" stroke="#000" stroke-linecap="square" stroke-linejoin="bevel" stroke-opacity="1" stroke-width=".22187199999999999"/></svg>