<svg xmlns="http://www.w3.org/2000/svg" role="img" viewBox="1866.07 1164.32 217.62 128.87"><title>Nantucket</title><g id="g14955" fill="#fefee9" fill-opacity="1" fill-rule="evenodd" stroke="#000" stroke-linecap="square" stroke-linejoin="bevel" stroke-opacity="1" stroke-width=".098" transform="translate(-216.714 -21.7) scale(2.264)"><path id="path16193" d="M 987.343,559.289 L 987.91,559.279 L 988.468,559.197 L 988.829,559.091 L 989.041,559.094 L 989.563,559.172 L 990.343,559.208 L 990.611,559.25 L 991.016,559.446 L 991.159,559.476 L 991.812,559.472 L 992.141,559.373 L 992.789,559.016 L 993.42,558.594 L 994.224,558.164 L 994.74,557.926 L 995.442,557.53 L 995.813,557.129 L 995.934,556.837 L 996.375,556.38 L 996.996,555.841 L 997.161,555.784 L 997.715,555.972 L 997.859,556.08 L 998.084,556.352 L 998.125,556.444 L 998.118,556.531 L 998.055,556.524 L 997.745,556.334 L 997.655,556.169 L 997.198,556.146 L 996.736,556.271 L 996.62,556.432 L 996.624,556.652 L 996.877,557.166 L 996.895,557.317 L 996.873,557.386 L 996.892,557.6 L 996.949,557.716 L 996.955,558.048 L 997.036,558.172 L 997.156,558.281 L 997.334,558.57 L 997.413,559.086 L 997.464,559.292 L 997.466,559.41 L 997.361,559.726 L 997.363,559.853 L 997.459,559.922 L 997.593,559.912 L 997.615,559.84 L 997.564,559.612 L 997.837,559.467 L 997.927,559.204 L 997.94,559.008 L 997.986,558.945 L 998.26,558.838 L 998.314,558.765 L 998.333,558.504 L 998.545,558.445 L 998.582,558.36 L 998.645,558.293 L 998.879,558.221 L 998.926,558.17 L 998.931,558.021 L 998.821,558.055 L 998.674,558.153 L 998.478,558.211 L 998.059,558.146 L 997.823,558.184 L 997.822,558.066 L 997.889,557.881 L 997.886,557.676 L 997.654,557.469 L 997.668,557.397 L 997.854,557.221 L 998.05,557.138 L 998.072,557.02 L 998.295,556.718 L 998.451,556.661 L 998.792,556.803 L 999.186,556.789 L 999.303,556.739 L 999.573,556.836 L 999.754,556.819 L 999.91,556.73 L 1000,556.728 L 1000.03,556.91 L 1000.07,556.955 L 1000.24,556.944 L 1000.28,556.676 L 1000.39,556.627 L 1000.61,556.623 L 1000.73,556.551 L 1000.8,556.463 L 1000.86,556.321 L 1000.89,556.162 L 1000.87,555.958 L 1000.72,555.631 L 1000.58,555.504 L 1000.28,555.392 L 999.763,555.503 L 999.662,555.578 L 999.554,555.705 L 999.38,555.691 L 999.009,555.618 L 998.821,555.67 L 998.338,556.007 L 998.125,555.964 L 997.901,555.803 L 997.751,555.742 L 997.498,555.675 L 997.369,555.545 L 997.263,555.319 L 997.095,555.137 L 996.626,554.453 L 996.443,554.291 L 996.125,554.17 L 995.966,554.057 L 995.879,554.025 L 995.774,553.861 L 995.569,553.423 L 995.397,553.034 L 994.934,552.167 L 994.949,552.111 L 995.082,552.101 L 995.438,552.174 L 996.297,552.23 L 997.533,552.153 L 997.807,552.096 L 998.159,551.955 L 998.58,551.71 L 999.08,551.466 L 999.863,551.14 L 1000.04,551.032 L 1000.18,550.904 L 1000.7,550.557 L 1001.41,550.161 L 1002.03,549.898 L 1002.39,549.655 L 1002.84,549.189 L 1003.09,548.846 L 1003.38,548.354 L 1003.43,548.092 L 1003.51,548.028 L 1003.57,547.818 L 1003.63,547.602 L 1003.68,547.391 L 1003.71,547.14 L 1003.73,546.869 L 1003.73,546.638 L 1003.69,546.484 L 1003.63,546.206 L 1003.58,545.999 L 1003.47,545.752 L 1003.18,545.373 L 1002.9,545.015 L 1002.37,544.463 L 1001.08,543.4 L 1001.09,543.338 L 1001.23,543.256 L 1001.31,543.145 L 1001.55,543.141 L 1001.56,543.085 L 1001.53,543.036 L 1001.39,543.009 L 1001.35,542.883 L 1001.49,542.755 L 1001.49,542.693 L 1001.4,542.717 L 1001.33,542.781 L 1001.22,542.782 L 1001.22,542.704 L 1001.06,542.802 L 1001.02,542.7 L 1001.15,542.501 L 1001.24,542.452 L 1001.24,542.365 L 1001.19,542.271 L 1001.03,542.164 L 1000.86,541.986 L 1000.69,541.919 L 1000.65,541.83 L 1000.59,541.792 L 1000.37,541.901 L 1000.2,542.067 L 1000.21,542.194 L 1000.34,542.326 L 1000.33,542.429 L 1000.12,542.345 L 999.732,541.991 L 999.343,541.797 L 998.831,541.824 L 998.345,541.957 L 998.211,541.945 L 998.084,541.868 L 998.089,541.741 L 998.22,541.582 L 998.283,541.564 L 998.354,541.593 L 998.48,541.546 L 998.523,541.294 L 998.677,541.078 L 998.779,541.069 L 998.929,541.121 L 999.339,541.146 L 999.464,541.065 L 999.789,540.705 L 999.821,540.285 L 999.742,540.256 L 999.748,540.16 L 999.855,539.971 L 999.86,539.806 L 999.954,539.757 L 1000.15,539.754 L 1000.18,539.58 L 1000.06,539.171 L 999.997,539.039 L 999.901,538.977 L 999.791,538.955 L 999.673,538.99 L 999.549,539.118 L 999.38,539.389 L 999.256,539.47 L 999.179,539.572 L 999.143,539.793 L 999.141,540.1 L 999.11,540.179 L 998.924,540.342 L 998.872,540.508 L 998.704,540.832 L 998.472,541.081 L 998.308,541.17 L 998.256,541.367 L 998.147,541.457 L 997.928,541.556 L 997.931,541.727 L 997.878,541.824 L 997.867,542.107 L 997.39,542.319 L 997.07,542.515 L 996.931,542.633 L 996.746,542.859 L 996.385,543.456 L 996.118,543.941 L 995.922,544.465 L 995.737,545.633 L 995.745,546.135 L 995.709,546.317 L 995.611,546.549 L 995.548,546.588 L 995.43,546.598 L 995.154,546.531 L 994.988,546.527 L 994.659,546.636 L 994.456,546.731 L 994.324,546.869 L 994.21,547.061 L 994.068,547.543 L 994.026,547.842 L 994.036,548.44 L 994.114,548.85 L 994.172,549.013 L 994.279,549.32 L 994.145,549.321 L 993.939,549.237 L 993.599,549.151 L 993.449,549.143 L 992.767,549.296 L 992.447,549.507 L 992.153,549.788 L 991.661,550.522 L 991.601,550.663 L 991.452,551.211 L 991.456,551.406 L 991.714,552.276 L 991.717,552.44 L 991.576,552.451 L 991.22,552.371 L 991.086,552.366 L 990.647,552.484 L 990.296,552.687 L 990.18,552.799 L 989.617,553.516 L 989.533,553.683 L 989.488,553.848 L 989.221,554.349 L 989.109,554.722 L 989.099,555.044 L 989.013,555.078 L 988.789,554.886 L 988.56,554.803 L 988.363,554.799 L 987.907,554.862 L 987.703,554.942 L 987.275,555.25 L 986.904,555.667 L 986.686,556.253 L 986.644,556.567 L 986.536,557.191 L 986.484,557.335 L 986.271,557.338 L 986.246,557.268 L 986.371,557.217 L 986.402,557.139 L 986.407,557.005 L 986.473,556.737 L 986.491,556.364 L 986.428,556.375 L 986.218,556.537 L 986.143,556.765 L 986.067,556.907 L 986.005,556.971 L 985.926,556.951 L 985.921,556.675 L 985.756,556.686 L 985.694,556.75 L 985.665,556.915 L 985.507,556.895 L 985.506,556.824 L 985.426,556.721 L 985.355,556.723 L 985.246,556.804 L 985.208,556.867 L 985.114,556.916 L 985.037,556.996 L 985.031,557.108 L 985.184,557.308 L 985.153,557.374 L 985.051,557.383 L 984.806,557.347 L 984.593,557.344 L 984.256,557.403 L 984.076,557.461 L 983.755,557.616 L 983.569,557.777 L 983.446,557.929 L 983.193,558.367 L 983.011,558.754 L 982.944,559.007 L 982.975,559.897 L 983,559.967 L 983.012,560.252 L 982.958,560.291 L 982.824,560.27 L 982.511,559.975 L 982.471,559.899 L 982.469,559.787 L 982.556,559.794 L 982.709,560.019 L 982.851,560.034 L 982.873,559.925 L 982.799,559.734 L 982.795,559.508 L 982.763,559.459 L 982.558,559.487 L 982.487,559.443 L 982.241,559.366 L 982.116,559.416 L 982.072,559.628 L 982.128,559.667 L 982.201,559.777 L 982.329,559.878 L 982.306,559.941 L 982.015,559.953 L 981.665,559.73 L 981.418,559.61 L 981.094,559.551 L 980.158,559.135 L 980.039,559.058 L 979.793,558.975 L 979.64,558.787 L 979.638,558.648 L 980.149,558.624 L 981.351,558.421 L 981.892,558.284 L 982.244,558.138 L 982.93,557.708 L 983.28,557.459 L 985.091,556.482 L 985.597,556.167 L 986.351,555.571 L 987.251,554.738 L 988.351,553.649 L 991.096,550.647 L 991.451,550.218 L 993.612,547.094 L 994.461,545.646 L 995.031,544.391 L 995.175,544.068 L 995.332,543.567 L 995.562,542.72 L 995.78,542.096 L 995.822,541.825 L 996.123,540.508 L 996.499,539.445 L 996.834,537.826 L 996.88,537.288 L 997.016,536.484 L 997.052,535.372 L 997.032,534.647 L 996.894,533.956 L 996.637,533.188 L 996.498,532.867 L 996.133,532.26 L 996.005,532.121 L 995.782,531.942 L 995.605,531.736 L 995.356,531.433 L 994.92,530.816 L 994.486,530.289 L 994.149,529.939 L 994.014,529.847 L 993.69,529.797 L 993.019,529.715 L 992.285,529.587 L 992.055,529.519 L 991.618,529.265 L 991.218,528.895 L 990.493,527.94 L 990.21,527.517 L 990.162,527.431 L 990.117,527.101 L 990.054,526.653 L 990.057,525.915 L 990.111,525.857 L 990.93,526.308 L 990.978,526.372 L 991.074,526.409 L 991.481,526.763 L 991.784,527.003 L 992.57,527.817 L 993.044,528.359 L 993.59,528.972 L 994.915,530.509 L 995.293,530.976 L 995.999,531.727 L 996.731,532.674 L 996.9,532.861 L 997.174,533.244 L 997.569,533.803 L 998.112,534.693 L 998.495,535.442 L 998.658,535.753 L 999.69,537.69 L 999.814,537.993 L 1000.11,538.565 L 1000.2,538.736 L 1000.44,539.166 L 1001.08,540.431 L 1001.25,540.774 L 1001.58,541.304 L 1001.96,542.031 L 1002.12,542.445 L 1003.22,544.472 L 1003.43,544.88 L 1003.46,544.943 L 1003.56,545.137 L 1003.61,545.241 L 1003.72,545.455 L 1003.92,545.833 L 1004.12,546.165 L 1004.25,546.441 L 1004.44,546.723 L 1004.64,547.014 L 1004.81,547.294 L 1004.87,547.494 L 1005.02,547.809 L 1005.14,547.99 L 1005.26,548.146 L 1005.38,548.328 L 1005.45,548.603 L 1005.61,548.937 L 1005.79,549.306 L 1005.91,549.535 L 1005.99,549.719 L 1006.13,550.058 L 1006.32,550.454 L 1006.47,550.785 L 1006.56,551.024 L 1006.69,551.288 L 1006.85,551.547 L 1006.96,551.753 L 1007.06,551.958 L 1007.13,552.19 L 1007.23,552.41 L 1007.4,552.73 L 1007.54,553.075 L 1007.69,553.404 L 1007.9,553.732 L 1008.13,554.1 L 1008.42,554.495 L 1008.63,554.786 L 1008.8,555.113 L 1009,555.463 L 1009.21,555.744 L 1009.43,556.05 L 1009.68,556.405 L 1009.83,556.653 L 1010.07,557.011 L 1010.25,557.299 L 1010.48,557.697 L 1010.61,557.91 L 1010.73,558.155 L 1010.82,558.331 L 1010.96,558.551 L 1011.12,558.782 L 1011.23,559.024 L 1011.37,559.237 L 1011.46,559.444 L 1011.59,559.712 L 1011.67,559.916 L 1011.71,560.021 L 1011.85,560.216 L 1011.96,560.4 L 1012.1,560.674 L 1012.24,560.917 L 1012.34,561.141 L 1012.47,561.443 L 1012.6,561.721 L 1012.69,561.916 L 1012.81,562.213 L 1012.89,562.407 L 1013.02,562.663 L 1013.16,562.935 L 1013.32,563.257 L 1013.44,563.518 L 1013.53,563.745 L 1013.6,563.914 L 1013.66,564.039 L 1013.79,564.278 L 1013.9,564.508 L 1013.97,564.69 L 1014.03,564.948 L 1014.08,565.183 L 1014.14,565.474 L 1014.19,565.834 L 1014.21,566.176 L 1014.25,566.556 L 1014.25,567.016 L 1014.27,567.534 L 1014.26,568.03 L 1014.23,568.464 L 1014.2,568.837 L 1014.11,569.369 L 1014.01,569.849 L 1013.93,570.203 L 1013.8,570.606 L 1013.73,570.872 L 1013.7,571.099 L 1013.6,571.474 L 1013.47,571.816 L 1013.34,572.241 L 1013.3,572.468 L 1013.23,572.641 L 1013.17,572.799 L 1013.11,573.032 L 1013.05,573.159 L 1013.01,573.237 L 1012.97,573.335 L 1012.97,573.479 L 1012.95,573.597 L 1012.88,573.73 L 1012.68,573.924 L 1012.5,574.086 L 1012.32,574.256 L 1012.19,574.397 L 1012.01,574.528 L 1011.83,574.681 L 1011.62,574.799 L 1011.33,574.989 L 1010.99,575.194 L 1010.84,575.272 L 1010.48,575.455 L 1010.16,575.623 L 1009.83,575.782 L 1009.47,575.951 L 1009.13,576.093 L 1008.79,576.222 L 1008.57,576.326 L 1008.36,576.416 L 1008.18,576.508 L 1007.91,576.637 L 1007.63,576.761 L 1007.3,576.895 L 1007.11,576.992 L 1006.88,577.104 L 1006.6,577.226 L 1006.4,577.275 L 1006.24,577.346 L 1006.12,577.379 L 1005.95,577.466 L 1005.75,577.564 L 1005.46,577.683 L 1005.27,577.751 L 1005.11,577.8 L 1005,577.835 L 1004.84,577.883 L 1004.73,577.93 L 1004.68,577.967 L 1004.46,578.061 L 1004.18,578.156 L 1004.04,578.176 L 1003.5,578.341 L 1002.87,578.424 L 1001.83,578.606 L 1000.77,578.82 L 999.96,578.881 L 999.18,578.873 L 998.518,578.805 L 997.932,578.689 L 997.483,578.64 L 996.905,578.477 L 996.116,578.394 L 994.007,578.037 L 992.987,577.803 L 991.613,577.598 L 990.169,577.426 L 988.868,577.327 L 988.435,577.368 L 988.001,577.287 L 986.684,577.198 L 984.422,577.118 L 982.254,576.967 L 981.633,577.047 L 980.794,577.236 L 980.073,577.468 L 979.776,577.623 L 979.434,577.865 L 978.708,578.249 L 978.181,578.295 L 977.18,578.235 L 976.401,578.288 L 976.235,578.243 L 974.665,578.118 L 973.717,577.963 L 973.061,577.824 L 972.167,577.524 L 971.547,577.272 L 968.886,576.308 L 967.818,575.991 L 966.979,575.767 L 965.282,575.479 L 964.625,575.284 L 963.368,574.936 L 962.148,574.475 L 961.513,574.168 L 960.61,573.844 L 959.477,573.38 L 958.764,573.125 L 958.501,572.915 L 957.129,572.282 L 956.62,571.959 L 954.968,571.08 L 953.373,570.285 L 952.292,569.647 L 951.293,569.192 L 950.014,568.494 L 949.88,568.442 L 949.485,568.376 L 948.993,568.17 L 948.642,567.892 L 947.848,567.441 L 947.179,566.964 L 947.186,566.899 L 947.264,566.859 L 947.351,566.866 L 947.541,566.935 L 947.803,567.064 L 947.953,567.084 L 948.417,567.04 L 949.102,567.044 L 949.284,567.089 L 949.633,567.265 L 949.712,567.272 L 949.845,567.246 L 950.134,567.092 L 950.204,566.994 L 950.532,566.817 L 950.726,566.641 L 951.088,566.602 L 951.236,566.53 L 951.415,566.363 L 951.516,566.314 L 951.611,566.342 L 951.613,566.453 L 951.482,566.637 L 951.062,567.006 L 951.065,567.17 L 950.972,567.275 L 950.973,567.369 L 951.037,567.416 L 951.337,567.451 L 951.354,567.553 L 951.285,567.632 L 950.918,567.835 L 950.896,567.938 L 950.952,567.999 L 951.148,567.956 L 951.895,567.385 L 952.326,567.23 L 952.559,567.022 L 952.597,566.933 L 952.659,566.879 L 952.777,566.854 L 952.878,566.773 L 952.924,566.685 L 953.002,566.621 L 953.174,566.573 L 953.221,566.515 L 953.235,566.413 L 953.762,565.892 L 953.824,565.822 L 953.958,565.796 L 954.012,565.733 L 954.049,565.604 L 954.04,565.533 L 954,565.488 L 953.842,565.458 L 953.757,565.532 L 953.689,565.751 L 953.526,565.874 L 953.223,566.162 L 953.106,566.227 L 952.869,566.222 L 952.744,566.262 L 952.651,566.374 L 952.584,566.621 L 952.522,566.675 L 952.325,566.647 L 952.207,566.681 L 952.013,566.864 L 951.631,567.123 L 951.505,567.102 L 951.526,566.974 L 951.612,566.863 L 951.665,566.737 L 951.82,566.593 L 952.023,566.47 L 952.486,565.864 L 952.564,565.824 L 952.813,565.6 L 953.218,565.318 L 953.505,565.006 L 953.782,564.585 L 953.879,564.254 L 953.899,564.049 L 953.852,563.538 L 953.825,563.3 L 953.7,562.901 L 953.594,562.603 L 953.285,562.016 L 953.108,561.783 L 953.004,561.683 L 952.6,561.478 L 952.212,561.356 L 952.007,561.368 L 951.718,561.528 L 951.711,561.6 L 951.762,561.788 L 951.692,561.892 L 951.161,562.193 L 950.473,562.501 L 950.308,562.521 L 950.103,562.484 L 949.952,562.423 L 949.833,562.331 L 949.712,562.182 L 949.663,562.081 L 949.588,561.776 L 949.591,561.491 L 949.629,561.388 L 949.714,561.276 L 949.964,561.117 L 952.215,560.562 L 952.536,560.447 L 952.614,560.342 L 952.619,560.153 L 952.555,560.084 L 952.64,559.994 L 953.135,559.918 L 953.754,559.72 L 953.927,559.715 L 954.354,559.836 L 954.791,560.081 L 955.486,560.219 L 956.014,560.228 L 956.347,560.355 L 956.568,560.383 L 957.04,560.353 L 958.486,560.181 L 959.282,560.176 L 961.685,560.243 L 962.882,560.248 L 963.686,560.281 L 966.103,560.276 L 967.638,560.228 L 969.724,560.102 L 970.409,560.148 L 971.275,560.125 L 972.337,560.039 L 972.635,559.977 L 973.54,559.914 L 974.709,559.66 L 975.116,559.533 L 975.414,559.403 L 976.062,559.068 L 976.412,558.85 L 976.53,558.825 L 976.557,559.013 L 976.784,559.404 L 976.787,559.584 L 976.75,559.734 L 976.746,559.988 L 976.922,560.141 L 977.692,560.5 L 978.531,560.73 L 978.968,560.919 L 979.134,560.964 L 979.836,561.03 L 979.978,561.076 L 980.186,561.237 L 980.251,561.369 L 980.214,561.512 L 980.122,561.648 L 979.603,561.695 L 978.74,561.9 L 978.686,562.003 L 978.546,562.097 L 978.462,562.218 L 978.456,562.385 L 978.324,562.442 L 978.36,562.701 L 978.392,562.756 L 978.894,562.652 L 978.927,562.738 L 978.922,562.865 L 978.584,562.956 L 978.436,563.022 L 978.424,563.252 L 978.511,563.249 L 978.934,563.147 L 978.943,563.212 L 979.148,563.2 L 979.181,563.301 L 978.899,563.377 L 978.829,563.417 L 978.853,563.503 L 979.074,563.499 L 979.091,563.595 L 978.958,563.658 L 978.96,563.729 L 979.031,563.777 L 979.322,563.709 L 979.324,563.833 L 979.011,564.004 L 978.973,564.076 L 978.967,564.188 L 979.082,564.451 L 979.395,564.787 L 979.562,564.909 L 979.832,565.038 L 979.833,565.103 L 979.779,565.172 L 979.781,565.284 L 979.901,565.377 L 980.066,565.372 L 980.296,565.44 L 980.495,565.539 L 980.63,565.622 L 980.755,565.597 L 980.832,565.455 L 980.91,565.422 L 981.085,565.513 L 981.195,565.497 L 981.288,565.417 L 982.089,564.851 L 982.484,564.396 L 982.778,564.139 L 983.012,563.983 L 983.484,563.449 L 984.151,562.375 L 984.28,562.135 L 984.596,561.683 L 984.818,561.348 L 984.935,561.236 L 985.013,561.202 L 985.258,561.245 L 985.362,561.322 L 985.614,561.38 L 985.829,561.458 L 985.877,561.503 L 985.878,561.605 L 985.848,561.668 L 985.67,561.853 L 985.594,562.004 L 985.603,562.106 L 985.744,562.049 L 985.869,561.968 L 986.125,561.728 L 986.097,561.475 L 986.119,561.406 L 986.329,561.26 L 986.429,561.083 L 986.539,560.618 L 986.646,560.404 L 986.679,560.05 L 986.813,559.58 L 986.95,559.279 L 986.979,559.169 L 987.065,559.145 L 987.216,559.203 L 987.343,559.289 M 993.402,529.542 L 993.378,529.472 L 993.08,529.114 L 993.056,529.053 L 993.052,528.855 L 992.939,528.669 L 992.708,528.523 L 992.462,528.431 L 992.178,528.368 L 992.049,528.226 L 991.962,528.182 L 991.726,528.201 L 991.653,528.108 L 991.24,527.893 L 991.13,527.881 L 991.052,527.93 L 991.053,528.023 L 991.259,528.097 L 991.3,528.152 L 991.302,528.294 L 991.241,528.383 L 991.265,528.444 L 991.377,528.516 L 991.605,528.494 L 991.7,528.531 L 991.702,528.633 L 991.601,528.732 L 991.594,528.795 L 991.795,529.003 L 991.969,529.103 L 992.349,529.176 L 992.557,529.409 L 992.747,529.422 L 992.834,529.481 L 993.039,529.447 L 993.222,529.569 L 993.402,529.542 M 987.322,559.873 L 987.212,559.904 L 987.187,559.833 L 987.069,559.846 L 987.071,559.954 L 987.112,560.049 L 987.232,560.133 L 987.28,560.203 L 987.29,560.336 L 987.378,560.367 L 987.487,560.318 L 987.609,560.088 L 987.654,559.953 L 987.604,559.765 L 987.556,559.732 L 987.485,559.735 L 987.4,559.839 L 987.322,559.873"/><path id="path16195" d="M 993.402,529.542 L 993.222,529.569 L 993.039,529.447 L 992.834,529.481 L 992.747,529.422 L 992.557,529.409 L 992.349,529.176 L 991.969,529.103 L 991.795,529.003 L 991.594,528.795 L 991.601,528.732 L 991.702,528.633 L 991.7,528.531 L 991.605,528.494 L 991.377,528.516 L 991.265,528.444 L 991.241,528.383 L 991.302,528.294 L 991.3,528.152 L 991.259,528.097 L 991.053,528.023 L 991.052,527.93 L 991.13,527.881 L 991.24,527.893 L 991.653,528.108 L 991.726,528.201 L 991.962,528.182 L 992.049,528.226 L 992.178,528.368 L 992.462,528.431 L 992.708,528.523 L 992.939,528.669 L 993.052,528.855 L 993.056,529.053 L 993.08,529.114 L 993.378,529.472 L 993.402,529.542"/><path id="path16199" d="M 1000.89,543.263 L 1000.33,542.702 L 1000.33,542.6 L 1000.42,542.622 L 1000.63,542.823 L 1000.86,542.994 L 1001.02,542.998 L 1001.12,542.974 L 1001.14,543.122 L 1000.97,543.245 L 1000.89,543.263"/><path id="path16201" d="M 925.11,547.775 L 925.093,547.673 L 924.99,547.574 L 924.863,547.503 L 924.734,547.318 L 924.615,547.271 L 924.245,547.236 L 924.125,547.096 L 924.106,546.914 L 923.994,546.768 L 923.898,546.691 L 923.788,546.66 L 923.607,546.693 L 923.482,546.752 L 923.237,546.738 L 922.963,546.789 L 922.916,546.837 L 922.747,547.146 L 922.726,547.314 L 922.855,547.565 L 923.184,547.952 L 923.414,548.122 L 923.827,548.352 L 924.111,548.365 L 924.183,548.459 L 924.381,548.574 L 924.406,548.661 L 924.313,548.716 L 924.108,548.728 L 923.918,548.659 L 923.291,548.321 L 923.005,548.121 L 922.774,547.911 L 922.317,547.335 L 922.067,546.952 L 922.017,546.733 L 921.871,546.418 L 921.875,546.191 L 921.928,546.025 L 921.998,545.403 L 922.147,545.305 L 922.413,545.239 L 922.815,545.218 L 923.233,545.249 L 924.685,545.529 L 925.182,545.562 L 925.671,545.65 L 926.366,545.735 L 927.004,545.732 L 927.562,545.654 L 927.664,545.685 L 927.91,545.823 L 928.377,545.928 L 928.464,545.987 L 928.474,546.108 L 928.413,546.249 L 928.257,546.399 L 927.937,546.57 L 927.43,546.907 L 927.174,547.243 L 927.065,547.315 L 926.32,547.523 L 926.093,547.65 L 925.694,547.792 L 925.342,548.01 L 925.06,548.114 L 924.635,548.121 L 924.097,547.963 L 924.002,547.879 L 923.992,547.745 L 924.086,547.727 L 924.3,547.857 L 924.419,547.863 L 924.567,547.76 L 924.732,547.743 L 924.766,547.921 L 924.9,547.927 L 925.056,547.848 L 925.11,547.775"/><path id="path16203" d="M 926.012,549.151 L 925.491,549.07 L 925.023,548.863 L 924.752,548.582 L 924.742,548.449 L 924.836,548.45 L 925.115,548.674 L 925.441,548.857 L 925.638,548.919 L 925.977,548.906 L 926.196,548.807 L 926.274,548.737 L 926.217,548.617 L 926.232,548.539 L 926.318,548.506 L 926.42,548.512 L 926.776,548.657 L 927.116,548.7 L 927.101,548.762 L 927,548.852 L 926.727,549.021 L 926.382,549.127 L 926.177,549.146 L 926.012,549.151"/><path id="path16207" d="M 932.461,555.854 L 932.593,555.726 L 932.906,555.637 L 933.101,555.485 L 933.459,555.14 L 934.328,554.798 L 935.327,554.729 L 935.628,554.804 L 935.945,554.965 L 937.021,555.312 L 938.756,556.065 L 939.44,556.355 L 939.63,556.48 L 940.101,556.873 L 940.47,557.293 L 940.656,557.635 L 940.705,557.708 L 940.838,558.194 L 940.77,558.376 L 940.645,558.417 L 940.581,558.369 L 940.562,558.174 L 940.418,558.017 L 940.416,557.868 L 940.244,557.445 L 939.946,557.01 L 939.077,556.338 L 938.975,556.338 L 938.992,556.443 L 938.962,556.506 L 938.867,556.53 L 938.759,556.56 L 938.91,556.758 L 939.115,557.243 L 939.174,557.548 L 939.17,557.778 L 939.175,558.069 L 939.23,558.098 L 939.49,558.112 L 939.688,558.156 L 940.05,558.18 L 939.958,558.341 L 939.944,558.443 L 940.008,558.497 L 940.118,558.51 L 940.212,558.439 L 940.338,558.42 L 940.442,558.513 L 940.735,558.665 L 941.026,559.104 L 941.188,559.425 L 941.341,559.65 L 941.358,559.751 L 941.327,560.28 L 941.392,560.43 L 941.332,560.565 L 940.942,560.837 L 940.581,560.922 L 940.18,560.992 L 939.512,561.049 L 939.276,561.053 L 938.832,560.988 L 938.367,560.915 L 938.06,560.936 L 937.455,561.068 L 937.188,561.073 L 936.627,560.978 L 936.336,560.989 L 936.225,560.961 L 936.042,560.79 L 935.939,560.753 L 935.774,560.779 L 935.727,560.833 L 935.864,560.997 L 936.221,561.228 L 936.364,561.283 L 936.642,561.452 L 936.873,561.643 L 937.166,561.821 L 937.239,561.915 L 937.272,562.01 L 937.285,562.435 L 936.919,562.101 L 936.472,561.714 L 935.868,561.335 L 935.303,560.926 L 934.507,560.276 L 934.116,559.912 L 933.956,559.725 L 933.321,558.813 L 933.038,558.312 L 932.853,558.008 L 932.586,557.532 L 932.438,557.099 L 932.318,556.897 L 931.734,556.297 L 931.494,556.003 L 931.443,555.72 L 931.41,554.529 L 931.441,554.43 L 931.525,554.294 L 931.626,554.188 L 931.774,554.085 L 931.853,554.092 L 932.146,554.204 L 932.211,554.314 L 932.172,554.377 L 931.984,554.451 L 931.798,554.676 L 931.76,554.761 L 931.725,555.048 L 931.696,555.234 L 931.699,555.433 L 931.883,555.642 L 932.009,555.672 L 932.389,555.847 L 932.461,555.854 M 933.168,556.311 L 933.437,556.394 L 933.715,556.562 L 934.597,556.558 L 934.682,556.469 L 934.759,556.333 L 934.796,556.146 L 934.786,556.013 L 934.745,555.924 L 934.547,555.84 L 934.475,555.765 L 934.458,555.669 L 934.52,555.584 L 934.51,555.457 L 934.462,555.377 L 934.28,555.327 L 934.065,555.116 L 933.962,555.069 L 933.836,555.11 L 933.439,555.457 L 933.09,555.814 L 933.083,555.917 L 933.179,555.979 L 933.168,556.311"/><path id="path16209" d="M 933.168,556.311 L 933.179,555.979 L 933.083,555.917 L 933.09,555.814 L 933.439,555.457 L 933.836,555.11 L 933.962,555.069 L 934.065,555.116 L 934.28,555.327 L 934.462,555.377 L 934.51,555.457 L 934.52,555.584 L 934.458,555.669 L 934.475,555.765 L 934.547,555.84 L 934.745,555.924 L 934.786,556.013 L 934.796,556.146 L 934.759,556.333 L 934.682,556.469 L 934.597,556.558 L 933.715,556.562 L 933.437,556.394 L 933.168,556.311"/><path id="path16211" d="M 987.322,559.873 L 987.4,559.839 L 987.485,559.735 L 987.556,559.732 L 987.604,559.765 L 987.654,559.953 L 987.609,560.088 L 987.487,560.318 L 987.378,560.367 L 987.29,560.336 L 987.28,560.203 L 987.232,560.133 L 987.112,560.049 L 987.071,559.954 L 987.069,559.846 L 987.187,559.833 L 987.212,559.904 L 987.322,559.873"/><path id="path16213" d="M 938.654,562.274 L 938.85,562.271 L 938.98,562.293 L 939.057,562.213 L 939.151,562.188 L 939.248,562.337 L 939.259,562.526 L 939.214,562.667 L 939.152,562.747 L 939.066,562.755 L 938.855,562.616 L 938.655,562.367 L 938.654,562.274"/><path id="path16215" d="M 947.443,566.171 L 946.789,566.166 L 945.265,565.928 L 944.473,565.61 L 943.627,564.924 L 943.467,564.727 L 942.991,564.53 L 942.76,564.369 L 942.68,564.251 L 942.679,564.173 L 942.771,564.068 L 943.288,563.842 L 943.343,563.865 L 943.432,563.971 L 943.457,564.107 L 943.522,564.198 L 943.593,564.255 L 944.012,564.327 L 944.766,564.723 L 945.361,564.976 L 946.114,565.286 L 946.714,565.386 L 947.497,565.602 L 947.568,565.65 L 947.689,565.798 L 947.871,565.864 L 947.975,565.951 L 947.984,566.069 L 947.686,566.158 L 947.443,566.171"/></g></svg>