<svg xmlns="http://www.w3.org/2000/svg" role="img" viewBox="1228.80 441.92 60.53 69.03"><title>Natick</title><g id="g14955" fill="#fefee9" fill-opacity="1" fill-rule="evenodd" stroke="#000" stroke-linecap="square" stroke-linejoin="bevel" stroke-opacity="1" stroke-width=".098" transform="translate(-216.714 -21.7) scale(2.264)"><path id="path15511" fill-rule="evenodd" d="M 657.965,205.71 L 658.296,209.331 L 658.311,211.878 L 657.686,212.123 L 659.221,217.404 L 663.161,226.707 L 664.479,233.783 L 664.601,234.423 L 657.085,234.178 L 657.008,234.174 L 656.974,234.274 L 656.962,234.373 L 656.955,234.459 L 656.966,234.526 L 656.985,234.65 L 654.763,233.802 L 654.472,233.675 L 654.649,232.642 L 653.825,232.516 L 652.969,232.225 L 652.352,231.798 L 652.12,231.852 L 652.076,231.799 L 651.977,231.757 L 651.914,231.716 L 651.897,231.658 L 651.824,231.605 L 651.752,231.563 L 651.683,231.497 L 651.614,231.482 L 651.54,231.434 L 651.52,231.355 L 651.48,231.287 L 651.442,231.24 L 651.456,231.157 L 651.469,231.061 L 651.427,230.967 L 651.367,230.924 L 651.274,230.882 L 651.179,230.834 L 651.098,230.762 L 650.968,230.667 L 650.92,230.595 L 650.882,230.527 L 650.87,230.454 L 650.862,230.338 L 650.894,230.218 L 650.921,230.113 L 650.922,230.042 L 650.909,229.954 L 650.884,229.773 L 650.856,229.62 L 650.837,229.475 L 650.788,229.349 L 650.783,229.257 L 650.774,229.175 L 646.285,227.397 L 645.691,227.148 L 642.224,226.312 L 640.815,225.987 L 640.476,223.874 L 639.922,223.322 L 639.104,218.944 L 642.946,215.929 L 645.447,211.582 L 646.259,212.752 L 646.555,213.2 L 646.651,213.224 L 646.79,213.239 L 646.966,213.216 L 647.055,213.195 L 647.137,213.16 L 647.242,213.11 L 647.308,213.063 L 647.354,213.004 L 647.404,212.92 L 647.465,212.796 L 647.562,212.607 L 647.667,212.396 L 647.786,212.212 L 648.897,211.144 L 649.127,211.185 L 650.006,210.716 L 650.722,210.708 L 651.08,210.711 L 651.191,210.724 L 653.56,211.513 L 655.435,208.607 L 656.648,205.449 L 657.965,205.71"/></g></svg>