<svg xmlns="http://www.w3.org/2000/svg" role="img" viewBox="758.50 415.37 104.26 71.89"><title>New Braintree</title><g id="g14955" fill="#fefee9" fill-opacity="1" fill-rule="evenodd" stroke="#000" stroke-linecap="square" stroke-linejoin="bevel" stroke-opacity="1" stroke-width=".098" transform="translate(-216.714 -21.7) scale(2.264)"><path id="path15471" fill-rule="evenodd" d="M 454.877,194.004 L 457.79,196.666 L 475.931,213.233 L 456.396,215.328 L 454.588,217.792 L 453.358,219.36 L 451.953,222.556 L 449.143,223.926 L 449.373,219.079 L 445.121,220.027 L 445.077,218.814 L 444.313,218.831 L 444.311,218.991 L 442.83,218.921 L 442.852,218.039 L 443.224,216.752 L 432.541,217.818 L 431.716,217.891 L 434.03,213.781 L 433.576,212.217 L 433.513,211.973 L 433.596,211.979 L 433.71,211.996 L 433.798,212.009 L 433.883,212.019 L 433.956,212.045 L 434.101,212.086 L 434.164,212.112 L 434.232,212.148 L 434.328,212.236 L 434.409,212.226 L 434.488,212.166 L 434.577,212.108 L 434.658,212.079 L 434.735,212.066 L 434.865,212.051 L 435.101,212.032 L 435.229,212.021 L 435.31,212.026 L 435.404,212.029 L 435.471,212.051 L 435.524,212.075 L 435.638,212.131 L 435.988,212.309 L 436.852,212.736 L 436.981,212.841 L 437.012,212.932 L 437.027,213.011 L 437.026,213.082 L 437.011,213.196 L 436.95,213.282 L 436.902,213.364 L 436.889,213.444 L 436.875,213.509 L 436.88,213.574 L 436.826,213.684 L 436.815,213.755 L 436.832,213.837 L 436.857,213.904 L 436.896,213.982 L 436.943,214.035 L 436.989,214.087 L 437.044,214.121 L 437.111,214.184 L 437.171,214.212 L 437.307,214.271 L 437.367,214.285 L 437.493,214.315 L 437.554,214.324 L 437.7,214.353 L 437.916,214.378 L 438.018,214.367 L 438.13,214.36 L 438.434,214.351 L 438.583,214.335 L 438.662,214.298 L 438.821,214.199 L 438.896,214.149 L 439.114,213.977 L 439.257,213.882 L 439.382,213.789 L 439.451,213.705 L 439.462,213.644 L 439.443,213.583 L 439.376,213.514 L 439.302,213.422 L 439.24,213.388 L 439.102,213.322 L 439.024,213.274 L 438.971,213.227 L 438.963,213.134 L 439.022,213.103 L 439.118,213.1 L 439.18,213.071 L 439.212,213.005 L 439.207,212.916 L 439.195,212.839 L 439.153,212.772 L 439.089,212.683 L 439.06,212.62 L 439.088,212.508 L 439.127,212.398 L 439.155,212.345 L 439.286,212.146 L 439.35,212.054 L 439.379,211.969 L 439.419,211.879 L 439.485,211.779 L 439.578,211.654 L 439.678,211.561 L 439.725,211.52 L 439.787,211.471 L 439.89,211.411 L 439.957,211.378 L 440.034,211.357 L 440.189,211.335 L 440.355,211.278 L 440.425,211.198 L 440.465,211.147 L 440.511,211.078 L 440.601,210.931 L 440.631,210.873 L 440.653,210.759 L 440.668,210.657 L 440.713,210.521 L 440.764,210.471 L 440.82,210.432 L 440.885,210.407 L 440.956,210.411 L 441.028,210.416 L 441.088,210.399 L 441.19,210.36 L 441.24,210.284 L 441.288,210.229 L 441.314,210.151 L 441.291,210.078 L 441.261,209.989 L 441.236,209.893 L 441.229,209.836 L 441.216,209.753 L 441.221,209.621 L 441.261,209.486 L 441.29,209.417 L 441.366,209.288 L 441.495,209.08 L 441.585,208.979 L 441.648,208.96 L 441.704,208.901 L 441.755,208.87 L 441.803,208.837 L 441.835,208.782 L 441.884,208.736 L 441.967,208.691 L 442.013,208.637 L 442.091,208.58 L 442.224,208.449 L 442.369,208.293 L 442.446,208.219 L 442.486,208.171 L 442.514,208.118 L 442.495,208.039 L 442.462,207.97 L 442.41,207.879 L 442.377,207.829 L 442.352,207.762 L 442.333,207.666 L 442.338,207.579 L 442.34,207.512 L 442.341,207.447 L 442.342,207.376 L 442.362,207.292 L 442.384,207.223 L 442.437,207.112 L 442.478,207.071 L 442.544,207.026 L 442.674,206.95 L 442.728,206.919 L 442.76,206.868 L 442.782,206.804 L 442.803,206.706 L 442.791,206.623 L 442.843,206.559 L 442.871,206.506 L 442.917,206.421 L 442.955,206.355 L 443.035,206.281 L 443.084,206.238 L 443.328,206.047 L 443.424,205.948 L 443.489,205.858 L 443.53,205.75 L 443.544,205.66 L 443.597,205.548 L 443.703,205.301 L 443.749,205.258 L 443.806,205.235 L 443.873,205.226 L 443.96,205.205 L 444.009,205.172 L 444.065,205.125 L 444.12,205.077 L 444.204,205.013 L 444.336,204.949 L 444.494,204.887 L 444.587,204.815 L 444.627,204.737 L 444.669,204.662 L 444.692,204.576 L 444.689,204.491 L 444.774,204.453 L 444.878,204.411 L 444.964,204.307 L 444.921,204.256 L 444.806,204.166 L 444.726,204.096 L 444.693,204.049 L 444.668,203.996 L 444.629,203.889 L 444.62,203.789 L 444.631,203.712 L 444.638,203.641 L 444.67,203.573 L 444.7,203.49 L 444.74,203.441 L 444.817,203.383 L 444.888,203.366 L 444.949,203.349 L 445.024,203.324 L 445.097,203.281 L 445.19,203.229 L 445.266,203.184 L 445.349,203.126 L 445.395,203.087 L 445.458,203.04 L 445.514,202.978 L 445.591,202.912 L 445.657,202.826 L 445.689,202.769 L 445.747,202.644 L 445.776,202.477 L 445.785,202.4 L 445.777,202.321 L 445.767,202.213 L 445.747,202.152 L 445.729,202.044 L 445.71,201.947 L 445.72,201.882 L 445.739,201.788 L 445.767,201.735 L 445.799,201.672 L 445.841,201.624 L 445.897,201.551 L 445.982,201.442 L 446.001,201.363 L 445.996,201.277 L 445.984,201.22 L 446.016,201.171 L 446.078,201.136 L 446.147,201.107 L 446.22,201.086 L 446.305,201.055 L 446.405,201.026 L 446.467,201.006 L 446.589,200.981 L 446.664,200.993 L 446.764,201.024 L 446.856,201.003 L 446.943,200.98 L 447.012,200.959 L 447.084,200.909 L 447.138,200.823 L 447.25,200.607 L 447.304,200.507 L 447.389,200.441 L 447.45,200.412 L 447.62,200.366 L 447.708,200.387 L 447.773,200.409 L 447.85,200.427 L 447.918,200.45 L 448.015,200.456 L 448.141,200.456 L 448.243,200.453 L 448.33,200.451 L 448.42,200.44 L 448.537,200.426 L 448.62,200.403 L 448.78,200.324 L 448.916,200.307 L 449.008,200.327 L 449.063,200.354 L 449.108,200.393 L 449.188,200.443 L 449.28,200.523 L 449.472,200.751 L 449.584,200.828 L 449.655,200.851 L 449.737,200.851 L 449.82,200.852 L 449.905,200.827 L 449.968,200.798 L 450.061,200.766 L 450.122,200.75 L 450.228,200.753 L 450.316,200.793 L 450.401,200.826 L 450.49,200.801 L 450.697,200.669 L 450.714,200.569 L 450.677,200.513 L 450.595,200.406 L 450.6,200.316 L 450.65,200.234 L 450.704,200.209 L 450.763,200.133 L 450.77,200.068 L 450.696,199.703 L 450.67,199.602 L 450.676,199.544 L 450.724,199.457 L 450.78,199.391 L 450.849,199.362 L 450.914,199.357 L 450.973,199.367 L 451.036,199.374 L 451.115,199.394 L 451.22,199.458 L 451.322,199.522 L 451.381,199.548 L 451.469,199.552 L 451.547,199.5 L 451.59,199.451 L 451.646,199.383 L 451.688,199.293 L 451.715,199.163 L 451.724,199.098 L 451.726,199.012 L 451.725,198.937 L 451.697,198.823 L 451.672,198.764 L 451.645,198.686 L 451.608,198.6 L 451.564,198.485 L 451.549,198.418 L 451.526,198.347 L 451.505,198.245 L 451.487,198.071 L 451.5,197.967 L 451.52,197.867 L 451.547,197.765 L 451.576,197.639 L 451.624,197.529 L 451.692,197.428 L 451.763,197.373 L 451.813,197.323 L 451.878,197.256 L 451.91,197.202 L 451.938,197.133 L 451.974,197.074 L 452.003,197.01 L 452.013,196.927 L 452.018,196.842 L 452.024,196.784 L 452.023,196.719 L 452.022,196.642 L 452.013,196.557 L 452.039,196.43 L 452.075,196.363 L 452.117,196.287 L 452.175,196.214 L 452.239,196.154 L 452.302,196.086 L 452.366,196.035 L 452.443,195.975 L 452.55,195.881 L 452.61,195.854 L 452.661,195.825 L 452.722,195.8 L 452.811,195.77 L 452.892,195.774 L 452.974,195.791 L 453.045,195.805 L 453.12,195.827 L 453.243,195.84 L 453.316,195.815 L 453.405,195.794 L 453.478,195.785 L 453.571,195.76 L 454.084,195.604 L 454.151,195.567 L 454.244,195.503 L 454.308,195.45 L 454.372,195.382 L 454.417,195.333 L 454.453,195.278 L 454.501,195.2 L 454.585,195.091 L 454.668,195.025 L 454.788,194.996 L 454.821,194.936 L 454.845,194.865 L 454.866,194.784 L 454.88,194.685 L 454.866,194.624 L 454.853,194.567 L 454.81,194.477 L 454.739,194.366 L 454.724,194.279 L 454.756,194.216 L 454.877,194.004"/></g></svg>