<svg xmlns="http://www.w3.org/2000/svg" role="img" viewBox="659.42 268.42 88.91 199.16"><title>New Salem</title><g id="g14955" fill="#fefee9" fill-opacity="1" fill-rule="evenodd" stroke="#000" stroke-linecap="square" stroke-linejoin="bevel" stroke-opacity="1" stroke-width=".098" transform="translate(-216.714 -21.7) scale(2.264)"><path id="path15263" fill-rule="evenodd" d="M 417.842,130.665 L 418.367,135.435 L 423.308,141.013 L 424.502,142.338 L 423.285,143.578 L 419.895,146.919 L 412.555,153.909 L 414.478,167.147 L 414.347,167.293 L 414.082,167.496 L 413.999,167.556 L 413.917,167.606 L 413.858,167.639 L 413.781,167.664 L 413.724,167.731 L 413.672,167.813 L 413.614,167.876 L 413.549,167.942 L 413.481,168.012 L 413.429,168.077 L 413.423,168.163 L 413.461,168.239 L 413.512,168.326 L 413.497,168.386 L 413.473,168.441 L 413.441,168.494 L 413.378,168.494 L 413.298,168.44 L 413.226,168.416 L 413.135,168.417 L 413.064,168.434 L 412.981,168.441 L 412.846,168.409 L 412.75,168.384 L 412.665,168.37 L 412.596,168.393 L 412.562,168.454 L 412.587,168.54 L 412.658,168.594 L 412.724,168.658 L 412.767,168.717 L 412.785,168.792 L 412.846,168.814 L 412.931,168.811 L 412.972,168.855 L 412.991,168.941 L 413.027,168.991 L 413.08,169.066 L 413.024,169.139 L 412.947,169.179 L 412.86,169.242 L 412.822,169.297 L 412.782,169.371 L 412.763,169.497 L 412.76,169.635 L 412.761,169.767 L 412.742,169.824 L 412.677,169.864 L 412.605,169.844 L 412.583,169.783 L 412.56,169.716 L 412.51,169.587 L 412.454,169.534 L 412.358,169.527 L 412.275,169.58 L 412.25,169.638 L 412.277,169.698 L 412.37,169.74 L 412.439,169.841 L 412.452,169.928 L 412.448,170.008 L 412.425,170.118 L 412.404,170.221 L 412.39,170.28 L 412.35,170.34 L 412.293,170.366 L 412.249,170.438 L 412.252,170.501 L 412.232,170.564 L 412.2,170.664 L 412.228,170.757 L 412.243,170.849 L 412.231,170.928 L 412.191,170.989 L 412.116,171.016 L 412.042,171.064 L 411.976,171.064 L 411.878,171.034 L 411.817,170.966 L 411.756,171.019 L 411.7,171.085 L 411.658,171.14 L 411.61,171.207 L 411.59,171.262 L 411.517,171.359 L 411.467,171.394 L 411.386,171.455 L 411.318,171.541 L 411.272,171.619 L 411.242,171.676 L 411.2,171.753 L 411.147,171.811 L 411.082,171.822 L 411.034,171.867 L 410.925,171.923 L 410.868,171.931 L 410.783,171.976 L 410.724,172.034 L 410.786,172.086 L 410.859,172.098 L 410.904,172.138 L 410.84,172.216 L 410.753,172.249 L 410.589,172.293 L 410.522,172.304 L 410.451,172.335 L 410.392,172.381 L 410.34,172.462 L 410.253,172.514 L 410.188,172.519 L 410.141,172.486 L 410.058,172.509 L 410.067,172.573 L 410.082,172.656 L 410.097,172.743 L 410.072,172.829 L 410.003,172.854 L 409.936,172.869 L 409.846,172.884 L 409.771,172.886 L 409.718,172.924 L 409.645,172.916 L 409.61,172.859 L 409.543,172.866 L 409.513,172.93 L 409.528,173.011 L 409.582,173.077 L 409.69,173.099 L 409.765,173.12 L 409.826,173.152 L 409.837,173.217 L 409.862,173.28 L 409.881,173.363 L 409.908,173.414 L 409.936,173.501 L 409.943,173.586 L 409.943,173.662 L 409.895,173.729 L 409.822,173.722 L 409.734,173.743 L 409.764,173.802 L 409.803,173.866 L 409.75,173.908 L 409.714,173.967 L 409.662,174.024 L 409.605,174.065 L 409.602,174.151 L 409.623,174.232 L 409.561,174.286 L 409.498,174.294 L 409.419,174.309 L 409.363,174.285 L 409.294,174.265 L 409.191,174.321 L 409.125,174.287 L 409.049,174.339 L 408.98,174.378 L 408.924,174.311 L 408.831,174.278 L 408.712,174.264 L 408.541,174.372 L 408.446,174.521 L 408.432,174.58 L 408.437,174.662 L 408.469,174.743 L 408.504,174.81 L 408.537,174.888 L 408.571,174.972 L 408.6,175.047 L 408.596,175.124 L 408.511,175.178 L 408.451,175.213 L 408.388,175.277 L 408.35,175.338 L 408.382,175.413 L 408.411,175.466 L 408.448,175.53 L 408.477,175.601 L 408.439,175.659 L 408.358,175.696 L 408.269,175.723 L 408.195,175.728 L 408.128,175.735 L 408.088,175.788 L 408.145,175.83 L 408.205,175.874 L 408.258,175.945 L 408.269,176.024 L 408.268,176.112 L 408.242,176.171 L 408.158,176.235 L 408.08,176.23 L 407.996,176.196 L 407.927,176.208 L 407.891,176.276 L 407.878,176.418 L 407.886,176.528 L 407.907,176.638 L 407.902,176.746 L 407.888,176.805 L 407.856,176.887 L 407.825,176.95 L 407.797,177.036 L 407.745,177.122 L 407.721,177.197 L 407.748,177.252 L 407.817,177.249 L 407.899,177.236 L 407.92,177.319 L 407.896,177.371 L 407.843,177.434 L 407.799,177.483 L 407.739,177.526 L 407.641,177.519 L 407.537,177.508 L 407.491,177.586 L 407.483,177.655 L 407.49,177.75 L 407.454,177.985 L 407.441,178.05 L 407.396,178.113 L 407.36,178.18 L 407.328,178.23 L 407.323,178.313 L 407.411,178.334 L 407.478,178.309 L 407.554,178.26 L 407.573,178.323 L 407.529,178.4 L 407.514,178.472 L 407.461,178.531 L 407.391,178.558 L 407.33,178.569 L 407.253,178.606 L 407.16,178.668 L 407.126,178.723 L 407.073,178.778 L 407,178.797 L 406.925,178.832 L 406.83,178.909 L 406.797,178.984 L 406.769,179.07 L 406.708,179.02 L 406.636,178.967 L 406.596,179.037 L 406.607,179.163 L 406.638,179.242 L 406.69,179.306 L 406.731,179.357 L 406.764,179.428 L 406.73,179.489 L 406.715,179.568 L 406.732,179.647 L 406.814,179.718 L 406.827,179.805 L 406.85,179.882 L 406.875,179.972 L 406.882,180.049 L 406.83,180.133 L 406.755,180.142 L 406.692,180.183 L 406.709,180.264 L 406.69,180.344 L 406.689,180.429 L 406.717,180.48 L 406.728,180.553 L 406.761,180.614 L 406.697,180.645 L 406.658,180.602 L 406.604,180.554 L 406.541,180.563 L 406.501,180.657 L 406.508,180.724 L 406.57,180.833 L 406.612,180.894 L 406.675,180.96 L 406.694,181.031 L 406.652,181.101 L 406.628,181.154 L 406.631,181.217 L 406.57,181.25 L 406.513,181.238 L 406.485,181.308 L 406.496,181.389 L 406.513,181.468 L 406.492,181.533 L 406.409,181.567 L 406.343,181.567 L 406.272,181.572 L 406.224,181.642 L 406.268,181.729 L 406.317,181.789 L 406.356,181.854 L 406.386,181.927 L 406.327,181.97 L 406.384,182.006 L 406.456,182.042 L 406.512,182.119 L 406.514,182.192 L 406.509,182.291 L 406.559,182.354 L 406.618,182.425 L 406.588,182.49 L 406.501,182.527 L 406.428,182.558 L 406.353,182.604 L 406.266,182.654 L 406.204,182.678 L 406.155,182.722 L 406.119,182.779 L 406.183,182.831 L 406.264,182.814 L 406.335,182.811 L 406.393,182.864 L 406.361,182.925 L 406.329,182.982 L 406.288,183.027 L 406.209,183.028 L 406.15,182.992 L 406.091,182.974 L 406.022,183.018 L 406.023,183.127 L 406.084,183.186 L 406.156,183.263 L 406.21,183.325 L 406.263,183.384 L 406.309,183.434 L 406.37,183.476 L 406.464,183.536 L 406.548,183.589 L 406.602,183.667 L 406.637,183.746 L 406.591,183.818 L 406.531,183.888 L 406.466,183.925 L 406.401,183.985 L 406.361,184.06 L 406.348,184.123 L 406.373,184.209 L 406.412,184.257 L 406.468,184.308 L 406.525,184.334 L 406.598,184.345 L 406.679,184.312 L 406.769,184.327 L 406.818,184.376 L 406.827,184.451 L 406.832,184.557 L 406.827,184.62 L 406.841,184.677 L 406.893,184.745 L 406.855,184.809 L 406.783,184.795 L 406.754,184.722 L 406.737,184.649 L 406.674,184.572 L 406.592,184.598 L 406.577,184.713 L 406.596,184.779 L 406.599,184.844 L 406.663,184.92 L 406.702,184.977 L 406.745,185.044 L 406.782,185.095 L 406.832,185.155 L 406.901,185.193 L 406.977,185.217 L 407.058,185.259 L 407.144,185.315 L 407.218,185.386 L 407.278,185.442 L 407.347,185.48 L 407.415,185.508 L 407.474,185.602 L 407.357,185.628 L 407.294,185.662 L 407.223,185.687 L 407.279,185.788 L 407.363,185.836 L 407.4,185.899 L 407.321,185.912 L 407.251,185.884 L 407.174,185.834 L 407.119,185.816 L 407.062,185.867 L 407.106,185.932 L 407.161,185.968 L 407.206,186.008 L 407.269,186.061 L 407.262,186.124 L 407.203,186.147 L 407.165,186.198 L 407.106,186.243 L 407.054,186.299 L 407.008,186.336 L 406.972,186.387 L 406.926,186.468 L 406.92,186.546 L 406.979,186.561 L 407.026,186.594 L 406.999,186.657 L 406.954,186.72 L 406.848,186.866 L 406.796,186.943 L 406.77,186.996 L 406.707,187.04 L 406.629,186.982 L 406.56,186.954 L 406.495,187.013 L 406.46,187.093 L 406.535,187.117 L 406.613,187.126 L 406.668,187.15 L 406.723,187.214 L 406.696,187.294 L 406.657,187.355 L 406.595,187.372 L 406.487,187.373 L 406.403,187.343 L 406.345,187.397 L 406.331,187.478 L 406.356,187.565 L 406.402,187.65 L 406.451,187.707 L 406.517,187.749 L 406.548,187.809 L 406.512,187.883 L 406.505,187.972 L 406.514,188.031 L 406.555,188.09 L 406.602,188.148 L 406.635,188.201 L 406.64,188.266 L 406.575,188.278 L 406.553,188.338 L 406.594,188.392 L 406.634,188.479 L 406.661,188.568 L 406.734,188.525 L 406.805,188.479 L 406.875,188.56 L 406.87,188.658 L 406.809,188.713 L 406.746,188.762 L 406.664,188.81 L 406.609,188.863 L 406.555,188.919 L 406.523,188.968 L 406.505,189.053 L 406.537,189.126 L 406.602,189.19 L 406.666,189.222 L 406.735,189.234 L 406.82,189.258 L 406.886,189.308 L 406.921,189.368 L 406.896,189.45 L 406.843,189.503 L 406.782,189.536 L 406.74,189.592 L 406.747,189.671 L 406.765,189.785 L 406.791,189.883 L 406.808,189.964 L 406.77,190.016 L 406.809,190.072 L 406.775,190.16 L 406.678,190.196 L 406.63,190.251 L 406.633,190.345 L 406.72,190.354 L 406.793,190.323 L 406.846,190.298 L 406.907,190.287 L 406.986,190.323 L 407.038,190.419 L 407.091,190.473 L 407.136,190.614 L 407.165,190.726 L 407.162,190.816 L 407.073,190.828 L 407.016,190.786 L 406.967,190.821 L 406.947,190.88 L 406.974,190.968 L 406.913,190.997 L 406.266,191.093 L 406.268,191.179 L 406.295,191.274 L 406.267,191.37 L 406.184,191.434 L 406.148,191.492 L 406.139,191.57 L 406.117,191.641 L 406.06,191.613 L 405.996,191.589 L 405.926,191.659 L 405.983,191.753 L 406.104,191.865 L 406.176,191.912 L 406.243,191.897 L 406.322,191.849 L 406.385,191.871 L 406.479,191.921 L 406.532,191.959 L 406.581,192.006 L 406.63,192.077 L 406.645,192.166 L 406.654,192.27 L 406.655,192.343 L 406.705,192.43 L 406.75,192.489 L 406.787,192.544 L 406.834,192.637 L 406.851,192.698 L 406.876,192.794 L 406.9,192.865 L 406.928,192.917 L 406.951,192.97 L 407.035,193.028 L 407.09,193.058 L 407.172,193.115 L 407.197,193.2 L 407.216,193.295 L 407.25,193.391 L 407.283,193.476 L 407.28,193.551 L 407.262,193.614 L 407.24,193.669 L 407.204,193.733 L 407.126,193.801 L 407.069,193.848 L 406.973,193.91 L 406.892,193.953 L 406.819,194.015 L 406.746,194.058 L 406.682,194.136 L 406.656,194.201 L 406.645,194.295 L 406.684,194.386 L 406.85,194.706 L 406.88,194.832 L 406.867,194.97 L 406.855,195.027 L 406.862,195.092 L 406.884,195.203 L 406.913,195.293 L 406.96,195.335 L 406.996,195.422 L 406.985,195.532 L 406.969,195.605 L 406.933,195.689 L 406.873,195.742 L 406.811,195.702 L 406.751,195.52 L 406.718,195.461 L 406.658,195.425 L 406.593,195.434 L 406.537,195.473 L 406.481,195.563 L 406.445,195.675 L 406.418,195.781 L 406.419,195.862 L 406.41,195.976 L 406.421,196.069 L 406.44,196.142 L 406.451,196.199 L 406.498,196.286 L 406.548,196.35 L 406.573,196.425 L 406.584,196.504 L 406.515,196.568 L 406.445,196.668 L 406.409,196.74 L 406.404,196.815 L 406.403,196.878 L 406.444,196.971 L 406.516,197.031 L 406.606,197.075 L 406.68,197.127 L 406.707,197.215 L 406.714,197.308 L 406.723,197.383 L 406.748,197.436 L 406.795,197.535 L 406.804,197.598 L 406.801,197.673 L 406.789,197.753 L 406.79,197.842 L 406.772,197.945 L 406.745,198.049 L 406.715,198.108 L 406.698,198.192 L 406.67,198.253 L 406.624,198.349 L 406.562,198.451 L 406.516,198.546 L 406.454,198.634 L 406.41,198.703 L 406.36,198.801 L 406.331,198.863 L 406.307,198.946 L 406.265,199.034 L 406.248,199.13 L 406.223,199.248 L 406.21,199.374 L 406.199,199.52 L 406.2,199.653 L 406.21,199.787 L 406.215,199.88 L 406.224,199.966 L 406.238,200.027 L 406.262,200.132 L 406.273,200.201 L 406.286,200.303 L 406.265,200.419 L 406.241,200.484 L 406.255,200.636 L 406.121,200.699 L 406.095,200.778 L 406.09,200.845 L 406.089,200.914 L 406.081,200.992 L 406.092,201.079 L 406.087,201.158 L 406.104,201.219 L 406.132,201.368 L 406.14,201.433 L 406.149,201.506 L 406.152,201.597 L 406.151,201.664 L 406.151,201.728 L 406.144,201.787 L 406.128,201.872 L 406.105,201.956 L 406.081,202.035 L 406.037,202.105 L 405.932,202.122 L 405.877,202.1 L 405.81,202.074 L 405.734,202.02 L 405.638,201.972 L 405.542,201.965 L 405.457,201.986 L 405.38,202.025 L 404.954,202.658 L 404.828,202.848 L 404.779,202.922 L 404.717,203.014 L 404.678,203.108 L 404.581,203.199 L 404.456,203.318 L 404.281,203.521 L 404.179,203.658 L 404.105,203.775 L 404.035,203.871 L 404.003,203.951 L 403.967,204.043 L 403.946,204.112 L 403.941,204.196 L 403.949,204.255 L 403.984,204.313 L 404.032,204.378 L 404.097,204.42 L 404.13,204.503 L 404.15,204.599 L 404.134,204.713 L 404.125,204.776 L 404.114,204.86 L 404.084,204.911 L 404.05,204.968 L 403.963,205 L 403.849,205.007 L 403.747,204.997 L 403.672,204.996 L 403.582,204.993 L 403.51,205.032 L 403.468,205.099 L 403.438,205.153 L 403.41,205.214 L 403.384,205.312 L 403.363,205.389 L 403.347,205.455 L 403.318,205.549 L 403.286,205.624 L 403.238,205.718 L 403.192,205.841 L 403.183,205.922 L 403.202,206.024 L 403.258,206.102 L 403.355,206.199 L 403.437,206.296 L 403.48,206.357 L 403.538,206.434 L 403.565,206.511 L 403.572,206.596 L 403.514,206.684 L 403.484,206.745 L 403.425,206.817 L 403.375,206.862 L 403.331,206.903 L 403.264,206.947 L 403.208,206.97 L 403.139,206.984 L 403.085,206.883 L 403.067,206.688 L 403.064,206.605 L 403.061,206.538 L 403.036,206.477 L 403.005,206.412 L 402.922,206.39 L 402.857,206.397 L 402.788,206.43 L 402.728,206.5 L 402.689,206.553 L 402.664,206.612 L 402.64,206.669 L 402.617,206.792 L 402.617,206.875 L 402.628,206.948 L 402.672,207.09 L 402.714,207.181 L 402.749,207.277 L 402.775,207.362 L 402.808,207.472 L 402.838,207.589 L 402.854,207.752 L 402.857,207.892 L 402.846,208.041 L 402.854,208.228 L 402.872,208.427 L 402.865,208.523 L 402.866,208.596 L 402.854,208.657 L 402.829,208.728 L 402.799,208.832 L 402.78,208.914 L 402.74,209.006 L 402.686,209.065 L 402.668,209.133 L 402.632,209.186 L 402.576,209.251 L 402.494,209.25 L 402.439,209.218 L 402.44,209.132 L 402.446,209.051 L 402.451,208.953 L 402.379,208.86 L 402.285,208.835 L 402.186,208.835 L 402.086,208.841 L 402.029,208.857 L 401.916,208.862 L 401.802,208.883 L 401.678,208.915 L 401.565,208.947 L 401.488,208.982 L 401.431,209.006 L 401.367,209.044 L 401.317,209.091 L 401.28,209.138 L 401.244,209.193 L 401.203,209.281 L 401.11,209.388 L 401.022,209.451 L 400.977,209.49 L 400.943,209.558 L 400.944,209.657 L 400.952,209.781 L 400.944,209.873 L 400.913,209.938 L 400.868,210 L 400.853,210.106 L 400.872,210.195 L 400.885,210.272 L 400.858,210.348 L 400.799,210.409 L 400.716,210.43 L 400.601,210.451 L 400.513,210.452 L 400.445,210.477 L 400.327,210.539 L 400.248,210.576 L 400.168,210.611 L 400.091,210.628 L 400.03,210.641 L 399.912,210.654 L 399.786,210.653 L 399.689,210.666 L 399.618,210.667 L 399.546,210.667 L 399.396,210.654 L 399.323,210.641 L 399.25,210.635 L 399.183,210.636 L 399.106,210.651 L 399.047,210.671 L 398.99,210.706 L 398.92,210.803 L 398.688,211.398 L 398.653,211.516 L 398.609,211.571 L 398.544,211.635 L 398.496,211.674 L 398.428,211.723 L 398.371,211.762 L 398.319,211.793 L 398.236,211.883 L 398.17,211.961 L 398.148,212.039 L 398.096,212.114 L 398.062,212.163 L 397.967,212.229 L 397.51,212.41 L 397.439,212.427 L 397.352,212.429 L 397.282,212.398 L 397.219,212.349 L 397.172,212.289 L 397.132,212.222 L 397.105,212.169 L 397.052,212.097 L 396.972,212.034 L 396.915,212.014 L 396.831,212.007 L 396.773,212.014 L 396.714,212.022 L 396.666,212.074 L 396.64,212.143 L 396.657,212.244 L 396.705,212.327 L 396.73,212.38 L 396.769,212.459 L 396.816,212.513 L 396.908,212.565 L 396.995,212.55 L 397.062,212.558 L 397.12,212.61 L 397.11,212.679 L 397.078,212.733 L 397.033,212.816 L 396.966,212.831 L 396.885,212.844 L 396.805,212.841 L 396.714,212.84 L 396.614,212.838 L 396.527,212.839 L 396.423,212.846 L 396.349,212.9 L 396.296,212.933 L 396.293,213.012 L 396.334,213.055 L 396.403,213.103 L 396.493,213.112 L 396.57,213.071 L 396.622,213.034 L 396.695,213 L 396.758,213.008 L 396.834,213.038 L 396.899,213.116 L 396.955,213.181 L 397.01,213.254 L 397.075,213.373 L 397.112,213.509 L 397.119,213.591 L 397.12,213.674 L 397.115,213.749 L 397.109,213.814 L 397.09,213.871 L 397.046,213.974 L 397.014,214.029 L 396.976,214.08 L 396.905,214.148 L 396.819,214.204 L 396.736,214.235 L 396.664,214.235 L 396.593,214.189 L 396.562,214.112 L 396.574,213.74 L 396.585,213.638 L 396.591,213.569 L 396.574,213.486 L 396.555,213.419 L 396.516,213.372 L 396.437,213.367 L 396.337,213.408 L 396.277,213.439 L 396.208,213.473 L 396.121,213.496 L 395.99,213.572 L 395.921,213.617 L 395.863,213.687 L 395.768,213.806 L 395.668,213.976 L 395.451,214.438 L 395.36,214.423 L 395.284,214.387 L 395.241,214.303 L 395.21,214.213 L 395.16,214.102 L 395.133,214.023 L 395.146,213.952 L 395.151,213.878 L 395.106,213.832 L 395.033,213.778 L 395.012,213.715 L 395.021,213.633 L 394.988,213.57 L 394.931,213.557 L 394.862,213.588 L 394.81,213.621 L 394.75,213.583 L 394.723,213.516 L 394.72,213.431 L 394.716,213.359 L 394.676,213.268 L 394.629,213.202 L 394.569,213.149 L 394.52,213.087 L 394.467,213.034 L 394.418,213 L 394.359,212.982 L 394.287,212.922 L 394.355,212.876 L 394.424,212.86 L 394.393,212.801 L 394.348,212.73 L 394.3,212.661 L 394.33,212.562 L 394.403,212.549 L 394.472,212.544 L 394.533,212.548 L 394.604,212.569 L 394.72,212.582 L 394.777,212.523 L 394.802,212.439 L 394.739,212.381 L 394.746,212.316 L 394.727,212.253 L 394.698,212.186 L 394.75,212.147 L 394.814,212.159 L 394.864,212.106 L 394.849,212.047 L 394.899,212 L 394.979,211.997 L 395.052,212.01 L 395.141,211.989 L 395.157,211.926 L 395.19,211.849 L 395.243,211.799 L 395.303,211.779 L 395.385,211.778 L 395.4,211.7 L 395.319,211.705 L 395.258,211.714 L 395.241,211.659 L 395.291,211.557 L 395.335,211.469 L 395.371,211.38 L 395.372,211.286 L 395.332,211.227 L 395.279,211.181 L 395.236,211.141 L 395.252,211.08 L 395.3,211.035 L 395.369,210.983 L 395.466,210.917 L 395.456,210.82 L 395.438,210.757 L 395.441,210.686 L 395.456,210.623 L 395.527,210.553 L 395.62,210.528 L 395.709,210.501 L 395.766,210.445 L 395.793,210.388 L 395.837,210.282 L 395.874,210.125 L 395.869,210.048 L 395.826,210.004 L 395.759,209.953 L 395.703,209.881 L 395.722,209.777 L 395.775,209.725 L 395.821,209.658 L 395.838,209.554 L 395.815,209.481 L 395.779,209.374 L 395.705,209.307 L 395.751,209.215 L 395.826,209.146 L 395.878,209.074 L 395.873,209.013 L 395.798,208.989 L 395.741,209.031 L 395.698,208.992 L 395.714,208.917 L 395.741,208.843 L 395.839,208.847 L 395.916,208.813 L 395.948,208.744 L 395.982,208.68 L 396.039,208.542 L 396.093,208.452 L 396.164,208.382 L 396.252,208.31 L 396.284,208.261 L 396.251,208.206 L 396.202,208.146 L 396.199,208.062 L 396.146,208.022 L 396.083,208.006 L 396.033,207.949 L 396.092,207.913 L 396.153,207.883 L 396.15,207.822 L 396.121,207.749 L 396.12,207.656 L 396.14,207.57 L 396.094,207.505 L 396.023,207.479 L 395.953,207.415 L 395.973,207.342 L 396.023,207.286 L 396.075,207.241 L 396.142,207.208 L 396.238,207.207 L 396.339,207.226 L 396.392,207.151 L 396.478,207.097 L 396.535,207.056 L 396.614,207.028 L 396.701,207.038 L 396.762,207.015 L 396.743,206.954 L 396.649,206.906 L 396.584,206.856 L 396.612,206.794 L 396.595,206.735 L 396.524,206.724 L 396.444,206.712 L 396.373,206.648 L 396.345,206.575 L 396.315,206.524 L 396.387,206.501 L 396.474,206.443 L 396.455,206.368 L 396.42,206.299 L 396.413,206.228 L 396.39,206.137 L 396.329,206.101 L 396.241,206.093 L 396.155,206.043 L 396.199,205.968 L 396.268,205.912 L 396.324,205.875 L 396.387,205.815 L 396.447,205.772 L 396.506,205.69 L 396.46,205.64 L 396.401,205.616 L 396.336,205.562 L 396.388,205.496 L 396.411,205.425 L 396.443,205.368 L 396.487,205.41 L 396.542,205.456 L 396.57,205.381 L 396.595,205.326 L 396.651,205.36 L 396.706,205.406 L 396.791,205.405 L 396.782,205.34 L 396.7,205.251 L 396.667,205.195 L 396.644,205.14 L 396.627,205.073 L 396.582,204.976 L 396.512,204.92 L 396.438,204.86 L 396.395,204.764 L 396.384,204.687 L 396.381,204.626 L 396.412,204.518 L 396.432,204.429 L 396.478,204.363 L 396.522,204.312 L 396.57,204.238 L 396.561,204.169 L 396.53,204.107 L 396.595,204.09 L 396.657,204.152 L 396.68,204.071 L 396.712,204.005 L 396.775,204.035 L 396.84,204.002 L 396.821,203.935 L 396.751,203.879 L 396.694,203.81 L 396.789,203.734 L 396.77,203.677 L 396.847,203.632 L 396.828,203.553 L 396.831,203.476 L 396.796,203.413 L 396.733,203.43 L 396.68,203.389 L 396.646,203.298 L 396.703,203.275 L 396.668,203.202 L 396.621,203.156 L 396.569,203.089 L 396.521,203.126 L 396.536,203.195 L 396.498,203.253 L 396.46,203.2 L 396.417,203.151 L 396.354,203.089 L 396.337,203.002 L 396.328,202.91 L 396.291,202.849 L 396.362,202.83 L 396.424,202.787 L 396.371,202.751 L 396.279,202.717 L 396.213,202.638 L 396.255,202.579 L 396.336,202.552 L 396.373,202.501 L 396.372,202.437 L 396.311,202.399 L 396.231,202.366 L 396.174,202.317 L 396.179,202.244 L 396.242,202.182 L 396.229,202.103 L 396.17,202.11 L 396.111,202.118 L 396.051,202.072 L 396.043,201.991 L 396.087,201.917 L 396.112,201.849 L 396.088,201.77 L 395.997,201.817 L 395.956,201.865 L 395.897,201.869 L 395.844,201.833 L 395.843,201.746 L 395.828,201.672 L 395.791,201.627 L 395.74,201.568 L 395.735,201.504 L 395.73,201.446 L 395.687,201.396 L 395.687,201.311 L 395.727,201.268 L 395.759,201.202 L 395.746,201.123 L 395.639,201.083 L 395.552,201.048 L 395.513,200.993 L 395.561,200.922 L 395.642,200.884 L 395.714,200.839 L 395.77,200.895 L 395.84,200.868 L 395.844,200.805 L 395.829,200.716 L 395.781,200.655 L 395.738,200.613 L 395.63,200.559 L 395.582,200.606 L 395.523,200.672 L 395.45,200.685 L 395.44,200.62 L 395.482,200.552 L 395.459,200.496 L 395.389,200.478 L 395.332,200.458 L 395.287,200.41 L 395.25,200.337 L 395.182,200.287 L 395.119,200.245 L 395.103,200.17 L 395.046,200.115 L 394.993,200.09 L 394.831,199.955 L 394.74,199.875 L 394.713,199.796 L 394.69,199.731 L 394.708,199.658 L 394.795,199.63 L 394.832,199.709 L 394.934,199.739 L 394.974,199.694 L 394.964,199.621 L 394.938,199.554 L 394.889,199.503 L 394.864,199.439 L 394.845,199.335 L 394.878,199.26 L 394.941,199.212 L 394.991,199.177 L 395.032,199.126 L 395.092,199.071 L 395.069,198.998 L 394.987,198.992 L 394.924,198.971 L 394.873,198.926 L 394.848,198.845 L 394.867,198.756 L 394.914,198.69 L 394.964,198.738 L 395.028,198.779 L 395.084,198.737 L 395.069,198.662 L 395.042,198.561 L 394.995,198.508 L 394.916,198.515 L 394.843,198.534 L 394.778,198.565 L 394.723,198.543 L 394.72,198.48 L 394.75,198.423 L 394.794,198.362 L 394.855,198.347 L 394.937,198.379 L 395.004,198.376 L 395.05,198.323 L 395.149,198.273 L 395.246,198.248 L 395.307,198.245 L 395.427,198.234 L 395.49,198.199 L 395.505,198.127 L 395.427,198.032 L 395.381,197.909 L 395.456,197.888 L 395.443,197.817 L 395.384,197.746 L 395.328,197.716 L 395.202,197.679 L 395.175,197.599 L 395.146,197.518 L 395.136,197.384 L 395.131,197.288 L 395.194,197.282 L 395.265,197.275 L 395.31,197.081 L 395.249,197.029 L 395.212,196.984 L 395.283,196.935 L 395.327,196.875 L 395.282,196.817 L 395.22,196.793 L 395.179,196.742 L 395.177,196.681 L 395.091,196.69 L 395.032,196.675 L 395.036,196.599 L 394.996,196.522 L 394.921,196.478 L 394.878,196.409 L 394.934,196.358 L 394.944,196.299 L 394.904,196.214 L 394.887,196.144 L 394.878,196.045 L 394.934,195.95 L 395.015,195.891 L 395.041,195.838 L 395.101,195.745 L 395.097,195.678 L 395.096,195.575 L 395.132,195.513 L 395.17,195.462 L 395.244,195.388 L 395.289,195.347 L 395.31,195.273 L 395.301,195.198 L 395.311,195.103 L 395.334,195.017 L 395.291,194.948 L 395.239,194.884 L 395.206,194.834 L 395.197,194.777 L 395.208,194.708 L 395.204,194.631 L 395.205,194.557 L 395.2,194.494 L 395.179,194.415 L 395.15,194.338 L 395.094,194.253 L 395.052,194.128 L 395.076,194.07 L 395.106,193.993 L 395.101,193.914 L 395.065,193.845 L 395.044,193.754 L 394.974,193.693 L 394.89,193.635 L 394.834,193.56 L 394.827,193.461 L 394.884,193.425 L 394.92,193.348 L 394.941,193.281 L 394.995,193.223 L 395.056,193.16 L 395.123,193.184 L 395.183,193.24 L 395.258,193.229 L 395.332,193.188 L 395.37,193.133 L 395.378,193.063 L 395.399,192.935 L 395.479,192.843 L 395.555,192.755 L 395.581,192.675 L 395.497,192.639 L 395.42,192.614 L 395.339,192.594 L 395.233,192.589 L 395.156,192.571 L 395.033,192.485 L 394.988,192.434 L 394.902,192.348 L 394.835,192.234 L 394.777,192.149 L 394.704,192.075 L 394.623,192.008 L 394.529,191.946 L 394.466,191.883 L 394.458,191.786 L 394.468,191.687 L 394.454,191.583 L 394.402,191.506 L 394.384,191.411 L 394.465,191.38 L 394.53,191.373 L 394.532,191.314 L 394.47,191.256 L 394.499,191.17 L 394.487,191.105 L 394.461,191.043 L 394.392,191.055 L 394.308,191.038 L 394.335,190.973 L 394.258,190.931 L 394.172,190.911 L 394.114,190.877 L 394.04,190.823 L 393.967,190.753 L 393.93,190.702 L 393.898,190.652 L 393.858,190.585 L 393.768,190.456 L 393.712,190.349 L 393.684,190.262 L 393.66,190.201 L 393.663,190.14 L 393.669,190.077 L 393.681,189.961 L 393.683,189.862 L 393.666,189.758 L 393.646,189.699 L 393.59,189.66 L 393.642,189.551 L 393.704,189.454 L 393.673,189.393 L 393.582,189.324 L 393.591,189.255 L 393.664,189.259 L 393.741,189.235 L 393.761,189.162 L 393.754,189.073 L 393.708,188.949 L 393.699,188.878 L 393.688,188.815 L 393.685,188.754 L 393.694,188.646 L 393.721,188.573 L 393.729,188.509 L 393.669,188.471 L 393.626,188.417 L 393.558,188.399 L 393.516,188.464 L 393.544,188.531 L 393.561,188.608 L 393.531,188.658 L 393.456,188.713 L 393.4,188.76 L 393.316,188.759 L 393.228,188.731 L 393.156,188.661 L 393.126,188.61 L 393.097,188.535 L 393.077,188.462 L 393.052,188.397 L 393.039,188.328 L 393.022,188.143 L 393.023,187.989 L 393.011,187.842 L 393.01,187.775 L 393.003,187.706 L 393.02,187.6 L 393.07,187.518 L 393.147,187.446 L 393.224,187.405 L 393.31,187.404 L 393.385,187.402 L 393.449,187.458 L 393.508,187.474 L 393.567,187.471 L 393.626,187.465 L 393.691,187.434 L 393.754,187.386 L 393.767,187.317 L 393.683,187.261 L 393.585,187.235 L 393.515,187.214 L 393.454,187.202 L 393.401,187.176 L 393.311,187.116 L 393.221,186.992 L 393.115,186.796 L 392.931,186.471 L 392.911,186.302 L 392.918,186.237 L 392.975,186.161 L 393.06,186.124 L 393.311,186.028 L 393.401,185.981 L 393.474,185.942 L 393.536,185.894 L 393.627,185.835 L 393.674,185.793 L 393.75,185.714 L 393.778,185.604 L 393.767,185.516 L 393.745,185.417 L 393.712,185.37 L 393.681,185.294 L 393.639,185.211 L 393.57,185.195 L 393.472,185.157 L 393.408,185.123 L 393.349,185.099 L 393.251,185.035 L 393.208,184.989 L 393.192,184.892 L 393.191,184.767 L 393.196,184.654 L 393.212,184.595 L 393.246,184.509 L 393.294,184.419 L 393.334,184.346 L 393.339,184.274 L 393.274,184.224 L 393.168,184.209 L 393.086,184.189 L 393.029,184.174 L 393.01,184.109 L 393.029,184.033 L 393.049,183.948 L 393.081,183.876 L 393.026,183.834 L 392.964,183.843 L 392.887,183.837 L 392.805,183.785 L 392.762,183.704 L 392.753,183.642 L 392.752,183.538 L 392.841,183.543 L 392.916,183.516 L 392.899,183.415 L 392.888,183.358 L 392.855,183.281 L 392.814,183.23 L 392.779,183.158 L 392.802,183.064 L 392.873,183.021 L 392.932,182.983 L 392.872,182.943 L 392.827,182.866 L 392.813,182.763 L 392.766,182.725 L 392.694,182.672 L 392.655,182.614 L 392.628,182.541 L 392.627,182.48 L 392.568,182.422 L 392.504,182.337 L 392.6,182.255 L 392.616,182.181 L 392.637,182.09 L 392.712,182.02 L 392.742,181.964 L 392.74,181.851 L 392.736,181.773 L 392.69,181.692 L 392.598,181.693 L 392.517,181.686 L 392.473,181.635 L 392.463,181.576 L 392.46,181.517 L 392.48,181.456 L 392.507,181.387 L 392.523,181.309 L 392.532,181.232 L 392.48,181.159 L 392.412,181.076 L 392.381,181.014 L 392.4,180.944 L 392.438,180.844 L 392.494,180.746 L 392.554,180.658 L 392.575,180.537 L 392.586,180.45 L 392.597,180.392 L 392.643,180.301 L 392.691,180.247 L 392.739,180.2 L 392.792,180.169 L 392.877,180.133 L 392.968,180.098 L 393.031,180.091 L 393.094,180.05 L 393.119,179.973 L 393.104,179.912 L 393.05,179.831 L 392.885,179.545 L 392.852,179.471 L 392.82,179.419 L 392.799,179.346 L 392.798,179.28 L 392.799,179.203 L 392.755,179.138 L 392.686,179.11 L 392.63,179.045 L 392.618,178.962 L 392.595,178.903 L 392.541,178.84 L 392.502,178.797 L 392.448,178.769 L 392.406,178.688 L 392.384,178.59 L 392.292,178.436 L 392.254,178.346 L 392.194,178.32 L 392.107,178.307 L 392.045,178.303 L 391.987,178.246 L 391.936,178.2 L 391.888,178.141 L 391.884,178.069 L 391.923,177.928 L 392.009,177.862 L 392.086,177.819 L 392.136,177.761 L 392.219,177.736 L 392.275,177.678 L 392.323,177.566 L 392.313,177.49 L 392.277,177.413 L 392.231,177.354 L 392.182,177.307 L 392.116,177.261 L 392.059,177.194 L 392.005,177.129 L 391.941,177.066 L 391.887,177.046 L 391.828,177.006 L 391.778,176.955 L 391.724,176.917 L 391.662,176.864 L 391.62,176.807 L 391.574,176.724 L 391.532,176.655 L 391.45,176.59 L 391.418,176.541 L 391.363,176.491 L 391.335,176.405 L 391.352,176.331 L 391.407,176.227 L 391.451,176.147 L 391.503,176.085 L 391.551,176.013 L 391.589,175.966 L 391.657,175.896 L 391.693,175.837 L 391.729,175.749 L 391.746,175.674 L 391.772,175.608 L 391.775,175.525 L 391.752,175.468 L 391.708,175.409 L 391.664,175.348 L 391.6,175.275 L 391.525,175.231 L 391.437,175.202 L 391.349,175.19 L 391.28,175.188 L 391.216,175.152 L 391.24,175.095 L 391.272,175.028 L 391.261,174.961 L 391.208,174.91 L 391.123,174.848 L 391.086,174.79 L 391.044,174.734 L 391.004,174.675 L 390.965,174.629 L 390.913,174.553 L 390.895,174.486 L 390.892,174.403 L 390.906,174.332 L 390.928,174.272 L 390.937,174.213 L 390.947,174.134 L 390.94,174.071 L 390.918,173.953 L 390.727,173.209 L 390.7,173.109 L 390.685,173.043 L 390.669,172.968 L 390.656,172.901 L 390.627,172.804 L 390.616,172.737 L 390.612,172.621 L 390.619,172.56 L 390.649,172.46 L 390.678,172.378 L 390.701,172.298 L 390.734,172.23 L 390.81,172.16 L 390.833,172.098 L 390.881,172.057 L 390.941,171.985 L 390.996,171.906 L 391.038,171.863 L 391.088,171.793 L 391.119,171.725 L 391.14,171.666 L 391.149,171.603 L 391.151,171.503 L 391.146,171.438 L 391.141,171.377 L 391.12,171.257 L 391.106,171.174 L 391.086,171.067 L 391.07,170.974 L 391.042,170.885 L 391.031,170.824 L 391.024,170.767 L 390.975,170.691 L 390.932,170.641 L 390.888,170.603 L 390.839,170.569 L 390.735,170.47 L 390.742,170.411 L 390.731,170.335 L 390.711,170.163 L 390.726,170.075 L 390.745,169.998 L 390.773,169.9 L 390.812,169.777 L 390.818,169.689 L 390.829,169.618 L 390.838,169.473 L 390.836,169.372 L 390.83,169.264 L 390.826,169.162 L 390.833,169.083 L 390.846,169.008 L 390.865,168.93 L 390.889,168.824 L 390.897,168.73 L 390.908,168.647 L 390.907,168.572 L 390.885,168.517 L 390.813,168.435 L 390.736,168.381 L 390.644,168.33 L 390.549,168.261 L 390.451,168.208 L 390.383,168.166 L 390.327,168.115 L 390.271,168.067 L 390.22,168.019 L 390.172,167.979 L 390.101,167.97 L 390.053,168.01 L 390.003,168.072 L 389.921,168.037 L 389.866,167.936 L 389.837,167.878 L 389.77,167.804 L 389.69,167.726 L 389.66,167.661 L 389.689,167.588 L 389.754,167.477 L 389.827,167.473 L 389.897,167.427 L 389.933,167.38 L 389.952,167.3 L 389.997,167.212 L 390.027,167.069 L 390.039,166.988 L 390.029,166.884 L 390.008,166.817 L 389.992,166.72 L 389.986,166.647 L 389.955,166.52 L 389.942,166.452 L 389.928,166.371 L 389.909,166.311 L 389.899,166.238 L 389.893,166.152 L 389.888,166.09 L 389.865,166.033 L 389.863,165.938 L 389.894,165.866 L 389.897,165.791 L 389.928,165.715 L 389.946,165.605 L 390.017,165.579 L 390.081,165.555 L 390.148,165.53 L 390.213,165.451 L 390.258,165.369 L 390.303,165.277 L 390.334,165.178 L 390.331,165.109 L 390.26,165.04 L 390.211,164.984 L 390.161,164.928 L 390.111,164.87 L 390.079,164.817 L 390.031,164.755 L 390.016,164.674 L 390.036,164.57 L 390.038,164.48 L 390.041,164.411 L 390.058,164.338 L 390.077,164.252 L 390.079,164.167 L 390.055,164.09 L 390.019,164.013 L 389.977,163.943 L 389.926,163.889 L 389.914,163.832 L 389.907,163.761 L 389.871,163.695 L 389.812,163.606 L 389.744,163.557 L 389.671,163.516 L 389.637,163.467 L 389.565,163.393 L 389.526,163.293 L 389.511,163.22 L 389.499,163.141 L 389.494,163.076 L 389.488,162.994 L 389.483,162.923 L 389.402,162.862 L 389.33,162.829 L 389.274,162.756 L 389.271,162.683 L 389.285,162.598 L 389.32,162.522 L 389.311,162.447 L 389.312,162.373 L 389.345,162.306 L 389.393,162.274 L 389.437,162.225 L 389.466,162.173 L 389.463,162.094 L 389.447,162.029 L 389.422,161.971 L 389.388,161.898 L 389.378,161.825 L 389.364,161.722 L 389.359,161.661 L 389.338,161.545 L 389.323,161.474 L 389.284,161.345 L 389.266,161.25 L 389.246,161.167 L 389.255,161.09 L 389.278,161.02 L 389.34,160.966 L 389.388,160.926 L 389.441,160.87 L 389.499,160.806 L 389.559,160.724 L 389.597,160.624 L 389.626,160.529 L 389.639,160.466 L 389.668,160.403 L 389.674,160.293 L 389.612,160.245 L 389.538,160.2 L 389.474,160.128 L 389.432,160.045 L 389.367,159.967 L 389.295,159.909 L 389.243,159.823 L 389.229,159.754 L 389.215,159.663 L 389.204,159.586 L 389.229,159.506 L 389.325,159.449 L 389.383,159.402 L 389.406,159.346 L 389.388,159.251 L 389.346,159.148 L 389.281,159.05 L 389.245,159 L 389.15,158.928 L 389.052,158.902 L 388.973,158.907 L 388.91,158.872 L 388.785,158.817 L 388.953,158.804 L 391.309,158.857 L 392.845,158.888 L 392.953,146.657 L 392.964,145.84 L 395.567,146.242 L 396.093,129.943 L 398.741,130.031 L 417.842,130.665"/></g></svg>