<svg xmlns="http://www.w3.org/2000/svg" role="img" viewBox="1476.61 897.86 50.66 124.41"><title>New Bedford</title><g id="g14955" fill="#fefee9" fill-opacity="1" fill-rule="evenodd" stroke="#000" stroke-linecap="square" stroke-linejoin="bevel" stroke-opacity="1" stroke-width=".098" transform="translate(-216.714 -21.7) scale(2.264)"><path id="path15951" d="M 757.803,407.313 L 762.865,427.487 L 762.915,427.545 L 763.128,427.554 L 763.206,427.58 L 763.431,427.766 L 763.726,427.994 L 763.919,428.324 L 763.965,428.403 L 764.019,428.923 L 764.11,428.899 L 764.138,428.991 L 764.198,429.061 L 764.266,429.115 L 764.355,429.165 L 764.434,429.211 L 764.49,429.259 L 764.528,429.31 L 764.559,429.402 L 764.584,429.506 L 764.601,429.63 L 764.567,429.845 L 764.497,429.946 L 764.483,430.217 L 764.547,430.326 L 764.67,431.024 L 764.765,431.173 L 764.768,431.535 L 764.698,431.686 L 764.363,432.192 L 764.356,432.397 L 764.06,432.855 L 764.053,432.957 L 764.133,433.163 L 764.143,433.491 L 764.089,433.651 L 764.083,433.816 L 764.171,434.114 L 764.215,434.689 L 764.303,434.987 L 764.337,435.34 L 764.307,435.514 L 764.268,435.593 L 764.166,435.664 L 763.899,435.712 L 763.63,435.605 L 763.56,435.614 L 763.136,435.862 L 763.129,435.939 L 763.24,436.082 L 763.422,436.166 L 763.454,436.221 L 763.422,436.275 L 763.218,436.396 L 763.227,436.488 L 763.495,436.471 L 763.621,436.517 L 763.849,436.47 L 763.92,436.518 L 763.898,436.801 L 764.009,436.893 L 764.137,437.24 L 764.107,437.436 L 764.155,437.553 L 764.211,437.616 L 764.447,437.656 L 764.449,437.86 L 764.339,437.901 L 764.276,437.962 L 764.34,438.025 L 764.302,438.333 L 763.98,438.382 L 763.981,438.531 L 763.848,438.675 L 763.725,439.075 L 763.6,439.29 L 763.663,439.322 L 763.672,439.455 L 763.635,439.778 L 763.596,439.873 L 763.494,439.934 L 763.417,440.166 L 763.331,440.283 L 763.411,440.455 L 763.388,440.567 L 763.295,440.725 L 763.288,440.843 L 763.345,441.086 L 763.306,441.196 L 763.173,441.324 L 763.183,441.574 L 763.285,441.599 L 763.632,441.667 L 763.575,442.62 L 762.939,442.781 L 762.964,442.97 L 763.546,442.872 L 763.578,442.933 L 763.748,444.9 L 763.906,444.902 L 764.37,444.842 L 764.411,445.039 L 764.421,445.33 L 763.846,445.406 L 763.72,445.437 L 763.737,445.601 L 763.935,445.695 L 764.439,445.668 L 764.447,445.795 L 763.842,445.868 L 763.874,445.994 L 764.448,445.937 L 764.504,445.991 L 764.504,446.053 L 764.245,446.095 L 764.222,446.316 L 764.041,446.324 L 764.043,446.482 L 764.499,446.494 L 764.5,446.661 L 764.335,446.709 L 764.376,446.944 L 764.557,446.957 L 764.582,447.068 L 764.456,447.118 L 764.473,447.242 L 764.772,447.218 L 764.804,447.313 L 764.946,447.302 L 765.017,447.397 L 765.332,448.465 L 765.412,448.683 L 765.405,448.841 L 765.366,448.888 L 765.343,448.951 L 765.345,449.289 L 765.223,449.913 L 765.233,450.132 L 765.398,450.149 L 765.485,450.212 L 765.572,450.219 L 765.705,450.137 L 766.111,449.592 L 766.189,449.528 L 766.611,449.063 L 766.917,448.825 L 767.176,448.703 L 767.412,448.662 L 767.436,448.726 L 767.437,448.859 L 766.99,449.108 L 766.684,449.368 L 766.528,449.549 L 766.434,449.623 L 765.81,450.46 L 765.74,450.632 L 765.733,450.775 L 765.766,451.004 L 765.83,451.138 L 765.933,451.237 L 766.629,451.707 L 766.796,451.894 L 766.946,452.011 L 766.979,452.246 L 767.027,452.406 L 767.155,452.616 L 767.346,453.007 L 767.56,453.212 L 767.734,453.296 L 767.774,453.36 L 767.924,453.477 L 767.91,453.713 L 768.101,454.033 L 768.222,454.389 L 768.264,454.853 L 768.385,455.246 L 768.617,455.723 L 768.682,456.062 L 768.73,456.157 L 768.716,456.424 L 768.764,456.621 L 768.868,456.903 L 768.846,457.006 L 768.674,457.203 L 768.558,457.47 L 768.466,457.904 L 768.411,457.983 L 768.404,458.085 L 768.405,458.151 L 768.556,458.472 L 768.684,458.66 L 769.056,459.065 L 769.082,459.334 L 769.249,459.577 L 769.265,459.67 L 769.149,459.878 L 769,459.997 L 768.771,460.028 L 768.677,459.997 L 768.598,459.943 L 768.597,459.779 L 768.51,459.722 L 767.035,459.409 L 766.814,459.316 L 766.553,459.147 L 766.482,459.059 L 766.346,458.753 L 766.162,458.392 L 766.017,457.866 L 765.968,457.629 L 765.809,457.293 L 765.674,457.191 L 765.861,456.984 L 765.884,456.835 L 765.836,456.647 L 765.764,456.482 L 765.565,456.23 L 765.303,455.878 L 765.237,455.446 L 765.125,455.173 L 765.006,455.022 L 764.949,454.834 L 764.783,454.638 L 764.774,454.458 L 764.614,454.159 L 764.604,453.837 L 764.572,453.695 L 764.294,453.359 L 763.993,453.101 L 763.731,452.771 L 763.683,452.639 L 763.657,452.339 L 763.577,452.174 L 763.436,452.184 L 761.603,452.526 L 761.462,452.614 L 761.376,452.718 L 761.377,452.883 L 761.458,453.135 L 761.39,453.599 L 761.05,454.259 L 760.886,454.285 L 760.72,453.334 L 760.59,453.476 L 760.267,453.722 L 759.777,452.197 L 756.325,449.953 L 755.638,448.519 L 753.712,444.493 L 753.539,443.36 L 751.139,440.47 L 749.087,430.169 L 752.042,411.058 L 757.803,407.313"/><path id="path16051" d="M 764.051,444.175 L 763.854,444.169 L 763.852,443.979 L 763.765,443.855 L 763.756,443.737 L 763.787,443.64 L 763.794,443.476 L 763.825,443.413 L 764.084,443.325 L 764.124,443.41 L 764.18,443.499 L 764.261,443.782 L 764.051,444.175"/><path id="path16069" d="M 766.591,448.456 L 766.608,448.542 L 766.75,448.628 L 766.743,448.721 L 766.617,448.824 L 766.484,448.819 L 766.357,448.692 L 766.316,448.458 L 766.299,448.339 L 766.361,448.263 L 766.493,447.986 L 766.58,447.937 L 766.621,448.237 L 766.591,448.456"/></g></svg>