<svg xmlns="http://www.w3.org/2000/svg" role="img" viewBox="124.59 555.34 80.08 106.08"><title>New Marlborough</title><path fill-rule="evenodd" d="M136.77564 557.52629l1.60518 1.04597.52524.39393.30338.2513.17886.16754.12678.13584.29885.12679.21281.05433.29885.0317.26263.04301.22187.0068.15621.02264.15396.11772.17206.01812.15622.02943.1449.04301.14262.04755.14037.06565.14263.06566.1449.09962.13131.12452.10867.08603.16754.05207.29206-.0249h.16753l.16075-.00227.18338.01359.23093.0566.17659.0883.19697.09055.17659.09735.14716.0249.1766.06566.1132.1132.15847.1449.1766.2581.43921.49581.12678.1698.1381.16527.12.09962.15622.10188.12452.04075.19017.07698.20376.09735.15395.03396.22188.07924 12.7599-1.7614 1.45122-.16526 12.80519 16.13779 22.17135-3.77409 1.75913 22.22795 4.79741 63.81537-35.28896-2.01949-9.65596-.59996-27.10688-1.70026-3.68352-46.59312 7.79948-10.77664-.32376-3.4209-2.39984-26.64502 5.6985.14037-.81052-10.18121" fill="#fefee9" fill-opacity="1" stroke="#000" stroke-linecap="square" stroke-linejoin="bevel" stroke-opacity="1" stroke-width=".22187199999999999"/></svg>