<svg xmlns="http://www.w3.org/2000/svg" role="img" viewBox="1240.94 584.63 61.69 54.94"><title>Norfolk</title><g id="g14955" fill="#fefee9" fill-opacity="1" fill-rule="evenodd" stroke="#000" stroke-linecap="square" stroke-linejoin="bevel" stroke-opacity="1" stroke-width=".098" transform="translate(-216.714 -21.7) scale(2.264)"><path id="path15747" fill-rule="evenodd" d="M 664.467,268.411 L 664.486,268.519 L 664.519,268.607 L 664.539,268.671 L 664.588,268.705 L 664.669,268.748 L 664.74,268.738 L 664.791,268.61 L 664.839,268.575 L 664.902,268.611 L 664.935,268.674 L 664.951,268.735 L 664.982,268.824 L 665.033,268.867 L 665.128,268.848 L 665.207,268.866 L 665.26,268.907 L 665.286,268.96 L 665.258,269.013 L 665.24,269.07 L 665.299,269.096 L 665.384,269.122 L 665.437,269.157 L 665.433,269.23 L 665.39,269.285 L 665.354,269.334 L 665.364,269.391 L 665.334,269.462 L 665.318,269.535 L 665.387,269.596 L 665.411,269.667 L 665.405,269.73 L 665.351,269.769 L 665.326,269.874 L 665.292,269.933 L 665.298,269.996 L 665.337,270.051 L 665.357,270.12 L 665.349,270.181 L 665.408,270.248 L 665.451,270.301 L 665.465,270.39 L 665.431,270.484 L 665.378,270.543 L 665.344,270.631 L 665.311,270.704 L 665.356,270.761 L 665.384,270.846 L 665.374,270.931 L 665.421,271.01 L 665.466,271.061 L 665.537,271.061 L 665.594,271.097 L 665.598,271.175 L 665.58,271.23 L 665.517,271.258 L 665.499,271.352 L 665.556,271.404 L 665.641,271.459 L 665.696,271.538 L 665.692,271.634 L 665.656,271.715 L 665.648,271.778 L 665.664,271.878 L 665.682,271.986 L 665.685,272.046 L 665.656,272.128 L 665.593,272.136 L 665.526,272.13 L 665.502,272.204 L 665.419,272.198 L 665.352,272.171 L 665.319,272.241 L 665.275,272.287 L 665.263,272.371 L 665.198,272.436 L 665.117,272.444 L 665.098,272.529 L 665.072,272.587 L 665.084,272.656 L 664.993,272.694 L 664.91,272.715 L 664.896,272.802 L 664.951,272.874 L 664.981,272.94 L 665.462,275.354 L 665.703,276.309 L 665.358,276.513 L 665.494,276.814 L 666.166,278.386 L 666.356,279.253 L 666.501,279.752 L 670.525,289.412 L 669.446,291.069 L 669.289,291.521 L 661.397,288.893 L 650.272,289.11 L 648.098,282.985 L 646.362,279.243 L 645.16,276.849 L 644.933,276.265 L 644.934,276.19 L 644.933,276.038 L 644.918,275.963 L 644.896,275.905 L 644.859,275.846 L 644.799,275.73 L 644.788,275.672 L 644.796,275.609 L 644.785,275.534 L 644.768,275.459 L 644.729,275.39 L 644.645,275.324 L 644.572,275.261 L 644.423,275.205 L 644.521,275.067 L 644.526,274.967 L 644.528,274.892 L 644.603,274.859 L 644.68,274.842 L 644.755,274.83 L 644.836,274.785 L 644.878,274.705 L 644.873,274.63 L 644.797,274.57 L 644.726,274.477 L 644.711,274.406 L 644.696,274.3 L 644.714,274.237 L 644.782,274.182 L 644.886,274.157 L 644.977,274.122 L 645.046,274.069 L 645.107,274.04 L 645.221,274.022 L 645.292,273.973 L 645.235,273.922 L 645.184,273.881 L 645.114,273.838 L 645.049,273.755 L 644.992,273.656 L 644.969,273.584 L 644.959,273.505 L 644.969,273.43 L 644.995,273.324 L 645.013,273.249 L 645.052,273.188 L 645.115,273.141 L 645.204,273.155 L 645.288,273.224 L 645.345,273.26 L 645.418,273.307 L 645.51,273.321 L 645.575,273.309 L 645.67,273.282 L 645.735,273.27 L 645.853,273.245 L 645.924,273.235 L 646.017,273.198 L 646.087,273.279 L 646.167,273.328 L 646.228,273.359 L 646.337,273.435 L 646.379,273.48 L 646.444,273.522 L 646.534,273.571 L 646.625,273.615 L 646.732,273.685 L 646.864,273.763 L 646.975,273.846 L 647.074,273.922 L 647.126,273.992 L 647.169,274.036 L 647.231,274.051 L 647.296,274.05 L 647.362,274.013 L 647.425,273.943 L 647.492,273.906 L 647.589,273.892 L 647.675,273.907 L 647.754,273.922 L 647.823,273.951 L 647.896,273.971 L 648.013,273.933 L 648.114,273.901 L 648.214,273.863 L 648.295,273.844 L 648.364,273.841 L 648.411,273.877 L 648.429,273.942 L 648.423,274.003 L 648.425,274.086 L 648.423,274.173 L 648.429,274.238 L 648.443,274.301 L 648.445,274.392 L 648.443,274.453 L 648.478,274.513 L 648.547,274.482 L 648.589,274.433 L 648.634,274.342 L 648.731,274.278 L 648.808,274.249 L 648.905,274.186 L 648.96,274.143 L 649.041,274.1 L 649.124,274.124 L 649.162,274.19 L 649.17,274.247 L 649.179,274.32 L 649.193,274.389 L 649.24,274.454 L 649.325,274.468 L 649.392,274.425 L 649.432,274.366 L 649.454,274.278 L 649.464,274.219 L 649.497,274.112 L 649.537,274.032 L 649.592,273.965 L 649.657,273.9 L 649.715,273.828 L 649.748,273.751 L 649.807,273.677 L 649.89,273.636 L 649.939,273.594 L 649.953,273.508 L 649.965,273.451 L 650.379,273.592 L 652.962,271.544 L 653.953,269.583 L 654.047,269.544 L 654.12,269.497 L 654.175,269.455 L 654.237,269.398 L 654.333,269.316 L 654.396,269.236 L 654.432,269.155 L 654.452,269.1 L 654.497,269.007 L 654.554,268.954 L 654.643,268.909 L 654.74,268.876 L 654.797,268.856 L 654.858,268.841 L 654.933,268.823 L 655.013,268.802 L 655.073,268.782 L 655.163,268.741 L 655.215,268.672 L 655.262,268.585 L 655.289,268.484 L 664.467,268.411"/></g></svg>