<svg xmlns="http://www.w3.org/2000/svg" role="img" viewBox="805.14 459.64 62.84 63.96"><title>North Brookfield</title><g id="g14955" fill="#fefee9" fill-opacity="1" fill-rule="evenodd" stroke="#000" stroke-linecap="square" stroke-linejoin="bevel" stroke-opacity="1" stroke-width=".098" transform="translate(-216.714 -21.7) scale(2.264)"><path id="path15545" fill-rule="evenodd" d="M 475.931,213.233 L 478.353,233.42 L 478.571,235.096 L 476.435,235.373 L 474.827,240.322 L 468.943,239.863 L 468.762,239.86 L 468.554,239.868 L 468.286,239.864 L 468.192,239.835 L 467.918,239.692 L 467.819,239.639 L 467.746,239.603 L 467.615,239.566 L 467.533,239.559 L 467.444,239.579 L 467.374,239.586 L 467.079,239.648 L 466.727,239.74 L 466.526,239.79 L 466.374,239.843 L 466.294,239.892 L 460.876,239.972 L 457.828,237.266 L 456.268,235.822 L 457.102,233.283 L 457.35,232.495 L 454.506,228.859 L 454.515,228.263 L 456.369,223.402 L 454.543,223.035 L 451.953,222.556 L 453.358,219.36 L 454.588,217.792 L 456.396,215.328 L 475.931,213.233"/></g></svg>