<svg xmlns="http://www.w3.org/2000/svg" role="img" viewBox="1374.87 122.24 76.02 111.02"><title>North Andover</title><g id="g14955" fill="#fefee9" fill-opacity="1" fill-rule="evenodd" stroke="#000" stroke-linecap="square" stroke-linejoin="bevel" stroke-opacity="1" stroke-width=".098" transform="translate(-216.714 -21.7) scale(2.264)"><path id="path15023" fill-rule="evenodd" d="M 711.741,64.5946 L 713.507,66.5927 L 730.922,88.0679 L 735.605,98.7219 L 727.407,103.584 L 727.259,104.456 L 726.412,109.958 L 721.968,111.687 L 717.982,104.501 L 709.59,89.5303 L 708.499,87.5503 L 707.048,86.749 L 707.269,85.7811 L 707.044,85.4731 L 706.745,85.0888 L 706.477,84.7615 L 706.232,84.4419 L 706.126,84.3205 L 706.037,84.2323 L 705.943,84.1539 L 705.89,84.1049 L 705.939,84.0675 L 705.997,84.0456 L 706.058,84.0354 L 706.162,83.9643 L 706.16,83.8639 L 706.085,83.8405 L 706.016,83.8527 L 705.952,83.8688 L 705.848,83.8868 L 705.771,83.8655 L 705.763,83.8085 L 705.802,83.7336 L 705.875,83.6801 L 706.008,83.6028 L 706.039,83.5476 L 706.098,83.4824 L 706.143,83.4192 L 706.095,83.3468 L 706.019,83.3667 L 705.96,83.3551 L 705.889,83.3415 L 705.824,83.3439 L 705.766,83.3696 L 705.695,83.4388 L 705.634,83.4194 L 705.663,83.3406 L 705.718,83.173 L 705.735,83.0903 L 705.833,83.0545 L 705.867,83.1449 L 705.938,83.1622 L 705.969,83.0894 L 705.986,83.0183 L 706.014,82.9315 L 705.982,82.8373 L 705.882,82.7864 L 705.807,82.7258 L 705.799,82.6588 L 705.86,82.6349 L 705.948,82.6483 L 706.03,82.6165 L 706.056,82.5317 L 706.091,82.4666 L 706.169,82.3973 L 706.22,82.3281 L 706.206,82.2572 L 706.239,82.141 L 706.243,82.0542 L 706.192,81.9874 L 706.176,81.8931 L 706.14,81.8143 L 706.069,81.7556 L 706.079,81.6825 L 706.131,81.576 L 706.155,81.495 L 706.156,81.3966 L 706.137,81.3356 L 706.062,81.2531 L 705.95,81.2062 L 705.881,81.244 L 705.786,81.2767 L 705.814,81.1419 L 705.771,81.0829 L 705.716,81.0478 L 705.641,81.0184 L 705.568,80.999 L 705.474,80.9777 L 705.425,80.9364 L 705.377,80.8775 L 705.246,80.8268 L 705.153,80.7956 L 705.053,80.7803 L 705.002,80.7116 L 705.021,80.6228 L 705.105,80.5947 L 705.192,80.6163 L 705.192,80.5512 L 705.156,80.5039 L 705.123,80.4371 L 705.103,80.3445 L 705.097,80.2579 L 705.085,80.189 L 705.065,80.0884 L 704.996,80.0394 L 704.911,80.0594 L 704.853,80.0911 L 704.778,80.1369 L 704.719,80.1016 L 704.743,80.0324 L 704.776,79.9633 L 704.803,79.8922 L 704.761,79.7998 L 704.691,79.7349 L 704.6,79.6586 L 704.531,79.6904 L 704.487,79.7812 L 704.465,79.8444 L 704.438,79.9135 L 704.361,79.959 L 704.275,79.9358 L 704.216,79.9302 L 704.132,79.9935 L 704.108,80.0468 L 704.06,80.0981 L 704.028,80.0392 L 704.059,79.9602 L 704.1,79.9009 L 704.118,79.8417 L 704.174,79.7272 L 704.259,79.6954 L 704.325,79.6933 L 704.408,79.6278 L 704.403,79.5507 L 704.366,79.5056 L 704.333,79.4585 L 704.271,79.4153 L 704.201,79.3663 L 704.179,79.2954 L 704.232,79.2381 L 704.335,79.1825 L 704.386,79.1271 L 704.423,79.058 L 704.476,79.0281 L 704.535,79.0318 L 704.632,79.0572 L 704.688,79.0686 L 704.753,79.0764 L 704.826,79.076 L 704.891,79.062 L 704.948,78.9966 L 704.904,78.8709 L 705.045,78.8149 L 705.094,78.7831 L 705.168,78.6626 L 705.209,78.5697 L 705.193,78.4653 L 705.234,78.278 L 705.24,78.1734 L 705.145,77.9746 L 705.066,77.8195 L 705.052,77.7052 L 705.116,77.6537 L 705.203,77.6572 L 705.291,77.6746 L 705.387,77.6918 L 705.478,77.6777 L 705.57,77.6576 L 705.723,77.5524 L 705.83,77.4495 L 705.918,77.3527 L 706.083,77.2179 L 706.212,77.1445 L 706.285,77.0397 L 706.359,76.9233 L 706.404,76.8148 L 706.431,76.7396 L 706.474,76.588 L 706.516,76.4303 L 706.557,76.2903 L 706.624,76.1367 L 706.692,75.9986 L 706.788,75.8508 L 706.973,75.5254 L 707.055,75.3541 L 707.121,75.1848 L 707.172,75.0001 L 707.207,74.8288 L 707.23,74.6189 L 707.247,74.4755 L 707.245,74.3421 L 707.234,74.1009 L 707.212,73.9735 L 707.188,73.7837 L 707.144,73.572 L 707.099,73.4174 L 707.025,73.214 L 706.96,73.0007 L 706.905,72.807 L 706.879,72.674 L 706.855,72.4937 L 706.848,72.2624 L 706.85,72.0704 L 706.867,71.9191 L 706.888,71.7582 L 706.934,71.6147 L 706.979,71.4808 L 707.045,71.3631 L 707.089,71.3053 L 707.173,71.1907 L 707.245,71.1136 L 707.447,70.9191 L 707.609,70.7502 L 707.848,70.4517 L 708.822,69.1292 L 709.002,68.8632 L 709.086,68.6972 L 709.191,68.49 L 709.308,68.224 L 709.406,68.0121 L 709.501,67.8577 L 709.742,67.6187 L 710.199,67.1229 L 710.979,66.1403 L 711.465,65.3942 L 711.519,65.2994 L 711.584,65.1517 L 711.626,65.035 L 711.69,64.84 L 711.725,64.6843 L 711.741,64.5946"/></g></svg>