<svg xmlns="http://www.w3.org/2000/svg" role="img" viewBox="454.45 403.95 93.73 74.61"><title>Northampton</title><g id="g14955" fill="#fefee9" fill-opacity="1" fill-rule="evenodd" stroke="#000" stroke-linecap="square" stroke-linejoin="bevel" stroke-opacity="1" stroke-width=".098" transform="translate(-216.714 -21.7) scale(2.264)"><path id="path15453" fill-rule="evenodd" d="M 297.34,192.762 L 314.968,190.027 L 323.168,188.883 L 324.379,195.465 L 324.091,195.514 L 324.652,197.136 L 324.581,197.168 L 324.476,197.194 L 324.415,197.224 L 324.352,197.259 L 324.272,197.319 L 324.169,197.392 L 324.067,197.469 L 324.009,197.527 L 323.928,197.587 L 323.826,197.678 L 323.734,197.773 L 323.668,197.888 L 323.597,197.993 L 323.535,198.098 L 323.49,198.188 L 323.449,198.286 L 323.419,198.368 L 323.396,198.451 L 323.369,198.535 L 323.356,198.621 L 323.339,198.688 L 323.32,198.772 L 323.321,198.839 L 323.311,198.968 L 323.305,199.086 L 323.318,199.179 L 323.346,199.272 L 323.369,199.329 L 323.421,199.366 L 323.475,199.441 L 323.537,199.489 L 323.59,199.52 L 323.68,199.529 L 323.759,199.534 L 323.836,199.527 L 323.958,199.501 L 324.045,199.475 L 324.14,199.441 L 324.203,199.436 L 324.285,199.427 L 324.346,199.438 L 324.413,199.443 L 324.509,199.446 L 324.739,199.489 L 324.848,199.51 L 324.909,199.521 L 324.999,199.55 L 325.058,199.574 L 325.138,199.605 L 325.288,199.668 L 325.369,199.693 L 325.494,199.716 L 325.592,199.718 L 325.659,199.725 L 325.741,199.748 L 325.846,199.745 L 325.924,199.768 L 325.977,199.794 L 326.292,199.88 L 326.61,199.945 L 326.792,199.975 L 327.023,200.016 L 327.185,200.054 L 327.282,200.091 L 327.362,200.116 L 327.449,200.156 L 327.577,200.219 L 327.648,200.264 L 327.739,200.321 L 327.825,200.387 L 327.896,200.439 L 327.984,200.511 L 328.049,200.577 L 328.106,200.646 L 328.159,200.731 L 328.228,200.826 L 328.268,200.908 L 328.294,200.974 L 328.327,201.116 L 328.377,201.271 L 328.408,201.391 L 328.438,201.518 L 328.452,201.645 L 328.467,201.769 L 328.483,201.892 L 328.533,201.993 L 328.581,202.085 L 328.688,202.194 L 328.886,202.384 L 330.106,203.337 L 331.134,204.001 L 332.355,204.626 L 332.753,204.733 L 333.112,204.828 L 333.574,204.912 L 333.741,204.945 L 334.618,205.016 L 334.807,205.034 L 334.881,205.052 L 334.944,205.083 L 335.064,205.082 L 335.141,205.079 L 335.389,205.076 L 335.525,205.056 L 335.657,205.073 L 335.779,205.08 L 335.871,205.103 L 335.928,205.125 L 335.998,205.144 L 336.057,205.178 L 336.116,205.212 L 336.164,205.244 L 336.241,205.302 L 336.305,205.352 L 336.361,205.404 L 336.433,205.471 L 336.589,205.634 L 336.698,205.757 L 336.758,205.831 L 336.841,205.94 L 336.903,206.068 L 336.991,206.272 L 337.016,206.329 L 337.023,206.394 L 337.039,206.518 L 337.041,206.577 L 337.036,206.636 L 337.026,206.697 L 337.013,206.756 L 336.992,206.84 L 336.997,206.911 L 336.975,206.976 L 336.96,207.034 L 336.948,207.103 L 336.913,207.199 L 336.857,207.33 L 336.821,207.395 L 336.769,207.463 L 336.677,207.584 L 336.64,207.66 L 336.602,207.709 L 336.564,207.759 L 336.496,207.859 L 336.401,207.932 L 336.317,208.028 L 336.21,208.089 L 336.127,208.147 L 336.037,208.223 L 335.956,208.254 L 335.881,208.296 L 335.798,208.315 L 335.719,208.377 L 335.636,208.411 L 335.572,208.444 L 335.515,208.469 L 335.467,208.505 L 335.358,208.573 L 335.299,208.604 L 335.2,208.673 L 335.126,208.749 L 335.058,208.813 L 335.024,208.878 L 334.99,208.932 L 334.954,208.981 L 334.888,209.08 L 334.856,209.131 L 334.508,209.914 L 334.316,210.357 L 333.865,211.217 L 333.582,211.717 L 333.512,211.854 L 333.408,212.012 L 333.327,212.154 L 332.951,212.665 L 332.587,213.162 L 332.422,213.346 L 332.142,213.685 L 330.271,216.159 L 330.192,216.259 L 330.142,216.335 L 330.049,216.505 L 329.975,216.627 L 329.922,216.731 L 329.853,216.868 L 329.825,216.925 L 329.768,217.011 L 329.455,217.403 L 329.248,217.667 L 329.197,217.745 L 329.147,217.825 L 329.124,217.912 L 329.098,217.974 L 329.075,218.06 L 329.053,218.163 L 328.418,218.162 L 328.307,218.176 L 328.202,218.18 L 328.091,218.198 L 328.003,218.229 L 327.66,218.356 L 327.596,218.396 L 327.506,218.468 L 327.383,218.557 L 326.776,218.851 L 326.037,219.412 L 325.965,219.501 L 325.921,219.571 L 325.874,219.628 L 325.789,219.691 L 325.729,219.734 L 325.683,219.772 L 325.612,219.83 L 325.542,219.869 L 325.483,219.893 L 325.404,219.918 L 325.301,219.94 L 325.24,219.937 L 325.14,219.932 L 325.042,219.918 L 324.983,219.919 L 324.924,219.911 L 324.852,219.91 L 324.785,219.903 L 324.712,219.898 L 324.496,219.869 L 324.424,219.862 L 324.326,219.843 L 324.245,219.814 L 324.173,219.79 L 324.116,219.763 L 324.048,219.727 L 323.974,219.677 L 323.926,219.641 L 323.869,219.598 L 323.825,219.554 L 323.774,219.505 L 323.705,219.423 L 323.633,219.329 L 323.581,219.264 L 323.47,219.063 L 322.653,220.159 L 322.297,218.765 L 321.904,218.631 L 321.255,217.984 L 320.606,217.491 L 317.624,218.553 L 317.708,218.354 L 314.66,217.987 L 314.643,217.394 L 298.054,219.792 L 297.34,192.762"/></g></svg>