<svg xmlns="http://www.w3.org/2000/svg" role="img" viewBox="1324.50 534.63 50.37 51.87"><title>Norwood</title><g id="g14955" fill="#fefee9" fill-opacity="1" fill-rule="evenodd" stroke="#000" stroke-linecap="square" stroke-linejoin="bevel" stroke-opacity="1" stroke-width=".098" transform="translate(-216.714 -21.7) scale(2.264)"><path id="path15673" fill-rule="evenodd" d="M 702.526,251.977 L 702.413,252.032 L 702.347,252.093 L 702.314,252.198 L 702.29,252.278 L 702.271,252.337 L 702.216,252.405 L 702.155,252.425 L 702.072,252.447 L 701.964,252.484 L 701.896,252.508 L 701.815,252.55 L 701.766,252.641 L 701.739,252.8 L 701.738,252.906 L 701.73,252.989 L 701.707,253.07 L 701.67,253.153 L 701.631,253.224 L 701.588,253.295 L 701.546,253.366 L 701.478,253.523 L 701.439,253.677 L 701.408,253.778 L 701.369,253.896 L 701.328,253.987 L 701.307,254.093 L 701.276,254.286 L 701.253,254.359 L 701.239,254.441 L 701.244,254.526 L 701.24,254.622 L 701.233,254.711 L 701.217,254.788 L 701.205,254.855 L 701.17,254.924 L 701.137,254.975 L 701.084,255.024 L 701.017,255.078 L 700.943,255.123 L 700.89,255.163 L 700.802,255.224 L 700.735,255.301 L 700.682,255.364 L 700.637,255.428 L 700.588,255.503 L 700.535,255.603 L 700.516,255.668 L 700.508,255.747 L 700.507,255.904 L 700.517,255.995 L 700.509,256.077 L 700.476,256.137 L 700.441,256.184 L 700.376,256.232 L 700.294,256.305 L 700.214,256.407 L 700.169,256.49 L 700.129,256.567 L 700.092,256.624 L 700.041,256.725 L 699.995,256.804 L 699.953,256.871 L 699.938,256.932 L 699.895,256.972 L 699.873,257.064 L 699.915,257.164 L 700.033,257.193 L 700.096,257.214 L 700.15,257.252 L 700.17,257.358 L 700.168,257.434 L 700.15,257.498 L 700.108,257.578 L 700.005,257.63 L 699.945,257.697 L 699.925,257.786 L 699.874,257.847 L 699.794,257.901 L 699.741,257.924 L 699.625,257.935 L 699.524,257.963 L 699.434,257.961 L 699.353,257.958 L 699.247,258.031 L 699.22,258.104 L 699.228,258.198 L 699.28,258.265 L 699.333,258.288 L 699.417,258.315 L 699.489,258.384 L 699.523,258.547 L 699.55,258.637 L 699.572,258.708 L 699.614,258.753 L 699.716,258.822 L 699.823,258.898 L 699.925,258.951 L 700.028,259.025 L 700.089,259.087 L 700.135,259.132 L 700.157,259.239 L 700.122,259.315 L 699.933,259.393 L 699.841,259.429 L 699.809,259.5 L 699.835,259.596 L 699.906,259.667 L 700.021,259.719 L 700.157,259.76 L 700.226,259.793 L 700.309,259.873 L 700.327,259.989 L 700.291,260.056 L 700.27,260.116 L 700.272,260.182 L 700.239,260.234 L 700.186,260.303 L 700.054,260.323 L 699.958,260.284 L 699.855,260.304 L 699.797,260.314 L 699.734,260.305 L 699.667,260.299 L 699.586,260.327 L 699.488,260.363 L 699.427,260.359 L 699.362,260.336 L 699.285,260.293 L 699.226,260.268 L 699.155,260.254 L 699.102,260.278 L 699.008,260.43 L 698.989,260.501 L 698.983,260.596 L 699.029,260.747 L 699.124,260.953 L 699.193,261.118 L 699.253,261.216 L 699.332,261.296 L 699.377,261.349 L 699.401,261.438 L 699.384,261.522 L 699.329,261.554 L 699.213,261.576 L 699.071,261.573 L 699.008,261.579 L 698.939,261.56 L 698.876,261.544 L 698.801,261.509 L 698.699,261.555 L 698.686,261.659 L 698.668,261.718 L 698.617,261.77 L 698.525,261.802 L 698.434,261.816 L 698.295,261.842 L 698.212,261.89 L 698.197,261.996 L 698.223,262.063 L 698.247,262.151 L 698.155,262.258 L 698.062,262.272 L 697.966,262.227 L 697.926,262.143 L 697.904,262.056 L 697.859,262.001 L 697.776,262.016 L 697.698,262.132 L 697.702,262.209 L 697.708,262.364 L 697.736,262.417 L 697.758,262.488 L 697.819,262.57 L 697.766,262.659 L 697.656,262.693 L 697.367,262.645 L 697.255,262.636 L 697.178,262.634 L 697.115,262.687 L 697.121,262.75 L 697.177,262.845 L 697.219,262.907 L 697.213,262.976 L 697.156,263.02 L 697.058,263.028 L 696.971,262.999 L 696.896,262.982 L 696.857,263.033 L 696.893,263.137 L 696.893,263.202 L 696.873,263.271 L 696.84,263.318 L 696.758,263.324 L 696.665,263.263 L 696.637,263.061 L 696.638,262.89 L 696.644,262.817 L 696.588,262.704 L 696.521,262.688 L 696.441,262.68 L 696.381,262.687 L 696.305,262.715 L 696.207,262.774 L 696.148,262.812 L 696.053,262.846 L 695.977,262.85 L 695.721,262.78 L 695.477,262.732 L 695.317,262.713 L 695.231,262.706 L 695.118,262.685 L 694.919,262.648 L 694.807,262.607 L 694.695,262.604 L 694.571,262.575 L 694.468,262.552 L 694.382,262.584 L 694.302,262.729 L 694.228,262.913 L 694.179,263.045 L 694.107,263.203 L 694.083,263.271 L 694.07,263.337 L 694.08,263.413 L 694.11,263.476 L 694.14,263.529 L 694.169,263.619 L 694.16,263.718 L 694.133,263.818 L 694.099,263.887 L 694.068,264 L 694.071,264.064 L 694.041,264.181 L 694.022,264.24 L 693.961,264.272 L 693.912,264.313 L 694.392,267.026 L 692.463,268.202 L 690.399,264.664 L 690.327,264.686 L 690.256,264.694 L 690.173,264.673 L 690.092,264.638 L 690.016,264.654 L 689.921,264.623 L 689.951,264.57 L 689.946,264.505 L 689.87,264.493 L 689.795,264.456 L 689.791,264.395 L 689.773,264.332 L 689.682,264.354 L 688.097,262.357 L 687.74,262.144 L 687.818,262.012 L 687.605,261.736 L 687.4,261.652 L 686.379,261.794 L 686.224,261.76 L 685.933,261.802 L 685.436,260.921 L 684.538,260.996 L 682.395,257.365 L 682.303,257.379 L 682.242,257.387 L 682.205,257.452 L 682.126,257.476 L 682.069,257.484 L 681.988,257.5 L 681.922,257.522 L 681.855,257.455 L 681.811,257.412 L 681.742,257.363 L 681.632,257.387 L 681.551,257.387 L 681.515,257.309 L 681.481,257.173 L 681.465,257.104 L 681.441,257.037 L 681.378,256.953 L 681.321,256.906 L 681.224,256.854 L 688.228,247.929 L 691.286,246.442 L 691.379,246.443 L 691.947,246.226 L 693.558,246.313 L 693.613,246.222 L 694.777,246.495 L 696.436,246.694 L 700.359,250.2 L 700.501,250.386 L 700.657,250.539 L 702.526,251.977"/></g></svg>