<svg xmlns="http://www.w3.org/2000/svg" role="img" viewBox="1525.52 546.90 83.33 72.83"><title>Norwell</title><g id="g14955" fill="#fefee9" fill-opacity="1" fill-rule="evenodd" stroke="#000" stroke-linecap="square" stroke-linejoin="bevel" stroke-opacity="1" stroke-width=".098" transform="translate(-216.714 -21.7) scale(2.264)"><path id="path15685" fill-rule="evenodd" d="M 783.428,252.219 L 789.898,251.933 L 799.041,255.886 L 805.621,262.673 L 805.514,262.708 L 805.38,262.763 L 805.285,262.818 L 805.214,262.879 L 805.156,262.971 L 805.121,263.047 L 805.098,263.134 L 805.091,263.221 L 805.13,263.401 L 805.15,263.503 L 805.158,263.623 L 805.158,263.686 L 805.13,263.807 L 805.088,263.913 L 805.007,264.033 L 804.915,264.16 L 804.838,264.229 L 804.791,264.278 L 804.686,264.338 L 804.624,264.366 L 804.564,264.387 L 804.489,264.393 L 804.387,264.389 L 804.204,264.319 L 804.043,264.263 L 803.928,264.235 L 803.869,264.223 L 803.794,264.219 L 803.682,264.234 L 803.612,264.268 L 803.551,264.333 L 803.508,264.387 L 803.46,264.481 L 803.433,264.566 L 803.404,264.792 L 803.379,264.881 L 803.332,264.961 L 803.293,265.012 L 803.222,265.079 L 803.121,265.119 L 803.048,265.109 L 802.961,265.051 L 802.87,264.953 L 802.808,264.87 L 802.758,264.758 L 802.691,264.608 L 802.649,264.538 L 802.566,264.474 L 802.479,264.449 L 802.385,264.45 L 802.324,264.456 L 802.239,264.493 L 802.177,264.546 L 802.118,264.613 L 802.074,264.693 L 802.02,264.799 L 801.971,264.938 L 801.936,265.095 L 801.919,265.241 L 801.905,265.427 L 801.886,265.571 L 801.844,265.694 L 801.775,265.824 L 801.704,265.954 L 801.612,266.038 L 801.545,266.097 L 801.475,266.132 L 801.411,266.156 L 801.319,266.147 L 801.231,266.116 L 801.113,266.047 L 800.922,265.916 L 800.835,265.832 L 800.759,265.783 L 800.685,265.752 L 800.598,265.739 L 800.468,265.745 L 800.32,265.779 L 800.143,265.835 L 800.088,265.854 L 799.974,265.846 L 799.848,265.791 L 799.375,265.537 L 799.159,265.435 L 798.988,265.367 L 798.823,265.313 L 798.683,265.291 L 798.557,265.285 L 798.435,265.283 L 798.309,265.287 L 798.2,265.276 L 798.13,265.276 L 798.071,265.292 L 798.021,265.337 L 797.972,265.401 L 797.943,265.542 L 797.928,265.688 L 797.92,265.952 L 797.93,266.233 L 797.926,266.355 L 797.896,266.463 L 797.852,266.574 L 797.825,266.677 L 797.816,266.758 L 797.816,266.833 L 797.861,267.097 L 797.883,267.235 L 797.88,267.337 L 797.867,267.414 L 797.835,267.474 L 797.791,267.513 L 797.712,267.543 L 797.602,267.57 L 797.442,267.596 L 797.365,267.61 L 797.307,267.628 L 797.242,267.681 L 797.171,267.761 L 797.157,267.866 L 797.071,268.424 L 797.054,268.519 L 797.033,268.596 L 796.998,268.682 L 796.948,268.776 L 796.916,268.834 L 796.871,268.887 L 796.796,268.948 L 796.732,269.001 L 796.677,269.077 L 796.637,269.179 L 796.657,269.255 L 796.711,269.332 L 796.856,269.466 L 796.977,269.555 L 797.029,269.597 L 797.142,269.731 L 797.205,269.824 L 797.266,269.885 L 797.392,269.954 L 797.52,270.019 L 797.609,270.046 L 797.78,270.163 L 797.845,270.234 L 797.893,270.396 L 797.927,270.552 L 797.93,270.657 L 797.903,270.79 L 797.875,271.024 L 797.858,271.131 L 797.866,271.19 L 797.9,271.276 L 797.937,271.336 L 798.086,271.463 L 798.207,271.57 L 798.297,271.658 L 798.36,271.731 L 798.434,271.847 L 798.472,271.922 L 798.5,272.01 L 798.519,272.108 L 798.525,272.186 L 798.519,272.259 L 798.484,272.321 L 798.398,272.434 L 798.304,272.569 L 798.269,272.651 L 798.272,272.743 L 798.294,272.815 L 798.325,272.872 L 798.623,273.453 L 798.661,273.541 L 798.672,273.629 L 798.665,273.726 L 798.614,273.808 L 798.535,273.853 L 798.451,273.878 L 798.336,273.918 L 798.264,273.936 L 798.196,273.98 L 798.145,274.038 L 798.115,274.102 L 798.1,274.181 L 798.086,274.244 L 798.088,274.304 L 798.145,274.379 L 798.211,274.428 L 798.297,274.474 L 798.372,274.482 L 798.445,274.48 L 798.531,274.464 L 798.692,274.441 L 798.806,274.461 L 798.845,274.505 L 798.859,274.59 L 798.866,274.696 L 798.861,274.786 L 798.875,274.861 L 798.924,274.971 L 798.954,275.083 L 798.958,275.155 L 798.951,275.234 L 798.906,275.316 L 798.853,275.389 L 798.809,275.439 L 798.801,275.561 L 798.836,275.676 L 798.939,275.785 L 799.052,275.88 L 799.135,275.949 L 799.167,276.041 L 799.186,276.17 L 799.172,276.266 L 799.11,276.34 L 799.06,276.461 L 799.048,276.581 L 799.047,276.702 L 799.042,276.779 L 799.004,276.872 L 798.906,276.988 L 798.854,277.044 L 798.796,277.125 L 798.771,277.24 L 798.928,277.379 L 799.08,277.447 L 799.161,277.501 L 799.246,277.555 L 799.288,277.599 L 799.343,277.695 L 799.373,277.769 L 799.357,277.87 L 799.256,278.005 L 799.233,278.074 L 799.235,278.181 L 799.251,278.247 L 799.352,278.407 L 799.426,278.533 L 799.478,278.611 L 799.513,278.684 L 799.528,278.752 L 799.505,278.825 L 799.415,278.938 L 799.25,279.079 L 799.182,279.146 L 799.14,279.201 L 799.093,279.249 L 799.017,279.304 L 798.939,279.321 L 798.876,279.322 L 798.783,279.27 L 798.733,279.208 L 798.614,279.08 L 798.547,279.028 L 798.465,278.977 L 798.409,278.958 L 798.28,278.958 L 798.187,278.968 L 798.122,278.978 L 798.019,279.02 L 797.982,279.069 L 797.947,279.162 L 797.937,279.257 L 797.955,279.326 L 798.033,279.401 L 798.103,279.475 L 798.164,279.586 L 798.17,279.667 L 798.179,279.737 L 798.197,279.794 L 798.154,279.905 L 798.104,279.963 L 798.061,280.005 L 797.998,280.091 L 797.968,280.197 L 797.969,280.26 L 797.97,280.361 L 797.987,280.424 L 797.997,280.539 L 797.955,280.607 L 797.896,280.649 L 797.838,280.674 L 797.698,280.641 L 797.565,280.594 L 797.463,280.578 L 797.386,280.589 L 797.318,280.621 L 797.217,280.724 L 797.14,280.8 L 797.089,280.828 L 797.006,280.831 L 796.907,280.784 L 796.796,280.732 L 796.727,280.708 L 796.648,280.707 L 796.582,280.724 L 796.531,280.764 L 796.527,280.869 L 796.607,280.979 L 796.651,281.026 L 796.68,281.088 L 796.678,281.193 L 796.631,281.249 L 796.502,281.233 L 796.366,281.109 L 796.235,281.054 L 796.154,281.054 L 796.072,281.093 L 796.033,281.199 L 796.046,281.284 L 796.15,281.528 L 796.175,281.606 L 796.184,281.669 L 796.181,281.738 L 796.113,281.777 L 796.042,281.764 L 795.937,281.715 L 795.863,281.659 L 795.782,281.605 L 795.724,281.576 L 795.663,281.564 L 795.606,281.586 L 795.579,281.711 L 795.587,281.773 L 795.68,281.872 L 795.802,282.002 L 795.935,282.124 L 796.035,282.223 L 796.112,282.265 L 796.245,282.32 L 796.303,282.362 L 796.34,282.452 L 796.258,282.528 L 795.902,282.534 L 795.808,282.545 L 795.718,282.582 L 795.66,282.607 L 795.587,282.622 L 795.498,282.605 L 795.421,282.573 L 795.359,282.525 L 795.297,282.443 L 795.231,282.36 L 795.15,282.218 L 795.083,282.108 L 795.06,281.977 L 795.038,281.849 L 795.001,281.74 L 794.938,281.625 L 794.861,281.521 L 794.787,281.442 L 794.703,281.359 L 794.629,281.271 L 794.564,281.143 L 794.497,281.02 L 794.451,280.955 L 794.389,280.872 L 794.315,280.776 L 794.257,280.728 L 794.177,280.647 L 794.125,280.595 L 794.057,280.55 L 793.994,280.524 L 793.885,280.502 L 793.791,280.517 L 793.74,280.567 L 793.684,280.647 L 793.656,280.751 L 793.63,280.913 L 793.594,281.061 L 793.563,281.204 L 793.536,281.322 L 793.506,281.425 L 793.477,281.496 L 793.395,281.525 L 793.319,281.463 L 793.277,281.397 L 793.234,281.315 L 793.192,281.215 L 793.135,281.122 L 793.015,281.021 L 792.945,280.963 L 792.882,280.917 L 792.804,280.885 L 792.691,280.859 L 792.69,280.782 L 792.692,280.609 L 792.64,280.569 L 792.606,280.514 L 792.619,280.392 L 792.618,280.266 L 792.518,280.213 L 792.463,280.182 L 792.421,280.136 L 792.386,280.083 L 792.376,280.019 L 792.39,279.906 L 792.328,279.866 L 792.267,279.855 L 792.164,279.829 L 791.922,279.841 L 791.893,279.759 L 791.836,279.748 L 791.74,279.744 L 791.581,279.794 L 791.491,279.805 L 791.46,279.737 L 791.464,279.654 L 791.439,279.54 L 791.354,279.329 L 791.215,278.863 L 791.134,278.782 L 791.087,278.749 L 791.104,278.658 L 791.079,278.606 L 791.053,278.522 L 791.08,278.468 L 791.116,278.416 L 791.169,278.36 L 791.221,278.314 L 791.238,278.227 L 791.222,278.084 L 791.255,278.004 L 791.288,277.933 L 791.358,277.895 L 791.412,277.927 L 791.479,277.914 L 791.528,277.854 L 791.513,277.764 L 791.491,277.69 L 791.484,277.603 L 791.403,277.445 L 791.353,277.351 L 791.378,277.262 L 791.405,277.201 L 791.391,277.1 L 791.328,277.06 L 791.258,277.012 L 791.222,276.952 L 791.219,276.877 L 791.225,276.808 L 791.234,276.735 L 791.244,276.656 L 791.244,276.581 L 791.197,276.347 L 791.16,276.285 L 791.104,276.243 L 791.015,276.151 L 790.971,276.103 L 790.872,275.972 L 790.792,275.839 L 790.734,275.74 L 790.679,275.663 L 790.63,275.613 L 790.542,275.555 L 790.463,275.547 L 790.386,275.546 L 790.295,275.519 L 790.193,275.469 L 790.076,275.425 L 789.982,275.379 L 789.892,275.323 L 789.805,275.237 L 789.756,275.171 L 789.632,274.962 L 789.519,274.801 L 789.452,274.655 L 789.414,274.461 L 789.395,274.283 L 789.382,274.177 L 789.372,274.1 L 789.349,274.038 L 789.266,273.95 L 789.176,273.909 L 789.103,273.912 L 789.049,273.947 L 788.969,273.959 L 788.894,273.89 L 788.802,273.822 L 788.746,273.806 L 788.627,273.78 L 788.577,273.742 L 788.634,273.665 L 788.736,273.586 L 788.757,273.514 L 788.635,273.453 L 788.558,273.439 L 788.469,273.464 L 788.371,273.488 L 788.29,273.487 L 788.178,273.48 L 788.1,273.494 L 787.988,273.515 L 787.911,273.565 L 787.881,273.615 L 787.836,273.687 L 787.727,273.663 L 787.648,273.643 L 787.569,273.638 L 787.482,273.629 L 787.42,273.642 L 787.342,273.735 L 787.314,273.799 L 787.236,273.829 L 787.152,273.766 L 787.093,273.772 L 787.04,273.829 L 786.941,273.887 L 786.847,273.894 L 786.699,273.87 L 786.584,273.856 L 786.506,273.817 L 786.442,273.764 L 786.341,273.747 L 786.272,273.757 L 786.186,273.706 L 786.101,273.673 L 786.047,273.718 L 785.946,273.751 L 785.886,273.735 L 785.818,273.703 L 785.75,273.666 L 785.69,273.609 L 785.655,273.563 L 785.591,273.531 L 785.516,273.513 L 785.422,273.487 L 785.359,273.463 L 785.3,273.418 L 785.246,273.307 L 785.192,273.212 L 785.139,273.162 L 785.073,273.123 L 785.003,273.06 L 784.909,273.026 L 784.825,272.989 L 784.774,272.921 L 784.758,272.839 L 784.729,272.779 L 784.725,272.71 L 784.76,272.636 L 784.795,272.568 L 784.803,272.505 L 784.836,272.433 L 784.815,272.363 L 784.871,272.345 L 784.895,272.29 L 784.912,272.209 L 784.856,272.122 L 784.777,272.146 L 784.698,272.138 L 784.659,272.092 L 784.669,271.96 L 784.699,271.857 L 784.713,271.785 L 784.695,271.711 L 784.682,271.629 L 784.682,271.534 L 784.666,271.417 L 784.645,271.301 L 784.597,271.204 L 784.564,271.146 L 784.511,271.089 L 784.414,271.003 L 784.366,270.919 L 784.325,270.842 L 784.253,270.754 L 784.182,270.661 L 784.142,270.605 L 784.123,270.492 L 784.103,270.351 L 784.104,270.232 L 784.097,270.148 L 784.059,270.039 L 784.025,269.963 L 783.99,269.915 L 784.028,269.8 L 784.053,269.726 L 784.033,269.646 L 783.985,269.549 L 783.966,269.447 L 783.942,269.371 L 783.913,269.313 L 783.869,269.208 L 783.815,269.121 L 783.77,269.063 L 783.716,268.96 L 783.69,268.891 L 783.608,268.855 L 783.528,268.862 L 783.425,268.857 L 783.329,268.801 L 783.286,268.733 L 783.24,268.648 L 783.222,268.556 L 783.224,268.442 L 783.202,268.234 L 783.206,268.094 L 783.203,268.005 L 783.211,267.944 L 783.183,267.856 L 783.136,267.805 L 783.048,267.75 L 782.978,267.697 L 782.956,267.633 L 782.951,267.538 L 782.826,267.424 L 782.734,267.377 L 782.675,267.324 L 782.648,267.258 L 782.601,267.204 L 782.493,267.129 L 782.403,267.096 L 782.32,267.073 L 782.25,267.049 L 782.119,266.671 L 782.118,266.589 L 782.092,266.505 L 782.061,266.454 L 782.033,266.373 L 782.076,266.289 L 782.087,266.196 L 782.027,266.15 L 782.028,266.076 L 781.949,266.048 L 781.903,265.971 L 781.891,265.885 L 781.83,265.827 L 781.797,265.767 L 781.75,265.712 L 781.678,265.657 L 781.636,265.587 L 781.641,265.477 L 781.623,265.41 L 781.589,265.329 L 781.51,265.252 L 781.463,265.199 L 781.439,265.125 L 781.462,265.026 L 781.473,264.947 L 781.475,264.856 L 781.445,264.78 L 774.399,266.005 L 771.892,266.454 L 770.317,260.279 L 774.334,257.301 L 775.338,256.54 L 780.028,253.707 L 783.428,252.219"/></g></svg>