<svg xmlns="http://www.w3.org/2000/svg" role="img" viewBox="1687.97 1110.72 45.31 47.13"><title>Oak Bluffs</title><g id="g14955" fill="#fefee9" fill-opacity="1" fill-rule="evenodd" stroke="#000" stroke-linecap="square" stroke-linejoin="bevel" stroke-opacity="1" stroke-width=".098" transform="translate(-216.714 -21.7) scale(2.264)"><path id="path16153" d="M 850.438,504.607 L 850.514,504.601 L 850.956,504.685 L 851.113,504.668 L 851.27,504.539 L 851.635,504.125 L 851.932,503.894 L 852.054,503.592 L 852.209,503.364 L 852.63,502.918 L 852.924,502.475 L 853.08,502.353 L 853.983,501.369 L 854.201,501.232 L 854.406,501.167 L 854.906,500.861 L 855.636,500.632 L 855.762,500.631 L 855.937,500.787 L 856.317,500.981 L 856.699,501.339 L 857.178,501.97 L 857.484,502.588 L 857.54,502.667 L 857.549,502.738 L 857.605,502.823 L 857.647,503.051 L 857.719,503.217 L 857.753,503.358 L 857.858,503.616 L 858.194,504.102 L 858.195,504.195 L 857.858,504.341 L 857.818,504.287 L 857.743,503.948 L 857.688,503.918 L 857.586,503.927 L 857.523,504.013 L 857.511,504.258 L 857.474,504.526 L 857.358,504.685 L 857.304,504.841 L 857.308,505.142 L 857.364,505.236 L 857.829,505.3 L 857.923,505.245 L 857.967,504.946 L 858.027,504.709 L 858.15,504.447 L 858.276,504.407 L 858.347,504.414 L 858.612,504.874 L 858.758,505.267 L 858.841,505.668 L 859.171,506.303 L 859.109,506.438 L 859.198,506.6 L 859.35,506.875 L 859.346,507.151 L 859.386,507.283 L 859.474,507.402 L 859.478,507.699 L 859.545,508.116 L 859.54,508.386 L 859.518,508.557 L 859.334,508.922 L 859.319,509.009 L 859.367,509.12 L 859.385,509.299 L 859.44,510.032 L 859.473,510.165 L 859.641,510.377 L 859.642,510.516 L 859.542,510.699 L 859.554,511.093 L 859.486,511.305 L 859.281,511.262 L 859.256,511.176 L 859.286,511.041 L 859.314,510.743 L 859.424,510.647 L 859.469,510.528 L 859.469,510.45 L 859.342,510.379 L 859.34,510.246 L 859.242,509.923 L 859.206,509.475 L 859.244,509.356 L 859.235,509.232 L 859.187,509.199 L 859.101,509.223 L 859.042,509.625 L 859.059,509.777 L 859.1,509.847 L 859.11,510.042 L 859.173,510.105 L 859.206,510.207 L 859.176,510.304 L 859.193,510.452 L 859.116,510.634 L 859.151,510.971 L 859.076,511.255 L 858.944,511.439 L 858.93,511.579 L 858.977,511.618 L 859.088,511.587 L 859.142,511.53 L 859.173,511.445 L 859.251,511.436 L 859.37,511.482 L 859.378,511.544 L 859.253,511.61 L 859.143,511.635 L 859.042,511.768 L 858.959,512.078 L 858.915,513.077 L 858.833,513.502 L 858.828,513.787 L 858.372,513.856 L 858.298,513.588 L 858.138,513.283 L 857.986,513.135 L 857.797,513.051 L 857.655,513.043 L 857.443,513.108 L 857.099,513.31 L 856.886,513.344 L 856.64,513.109 L 856.561,513.112 L 856.581,513.48 L 856.473,513.719 L 856.217,514.037 L 855.87,514.685 L 855.855,514.819 L 855.944,514.984 L 855.961,515.07 L 855.882,515.079 L 855.725,515.167 L 855.632,515.269 L 855.626,515.452 L 855.69,515.547 L 855.849,515.7 L 856.063,515.802 L 856.222,515.934 L 856.529,515.891 L 856.623,515.904 L 856.663,515.959 L 856.625,516.062 L 856.57,516.126 L 856.471,516.333 L 856.536,516.561 L 856.541,517.001 L 856.565,517.072 L 856.567,517.236 L 856.45,517.332 L 856.147,517.657 L 856.07,517.88 L 856,517.959 L 855.82,518.039 L 855.545,518.06 L 855.388,518.108 L 854.958,518.387 L 854.709,518.729 L 854.695,518.816 L 854.998,519.176 L 855.046,519.268 L 855,519.412 L 854.923,519.554 L 854.806,519.61 L 854.705,519.715 L 854.707,519.927 L 854.593,520.04 L 854.202,520.427 L 851.849,520.461 L 843.467,520.575 L 841.748,509.708 L 846.521,516.088 L 846.539,515.869 L 846.519,515.739 L 846.535,515.67 L 846.601,515.629 L 846.669,515.599 L 846.733,515.581 L 846.849,515.564 L 847.272,515.01 L 847.346,515.064 L 847.401,515.015 L 847.408,514.938 L 847.447,514.881 L 847.445,514.701 L 847.301,514.519 L 847.308,514.401 L 847.422,514.1 L 847.606,513.611 L 847.894,513.302 L 848.01,513.128 L 848.407,512.729 L 848.554,512.442 L 848.674,511.939 L 849.08,511.658 L 849.407,511.307 L 849.539,511.102 L 849.569,510.967 L 849.551,510.779 L 849.566,510.716 L 849.959,510.624 L 850.169,510.401 L 850.199,510.298 L 850.212,510.077 L 850.266,509.952 L 850.352,509.85 L 850.586,509.697 L 850.864,509.165 L 851.011,508.975 L 851.228,508.618 L 851.265,508.366 L 851.223,508.2 L 851.151,508.084 L 851.142,507.973 L 851.228,507.871 L 851.643,507.67 L 851.736,507.565 L 852.015,507.169 L 852.13,506.908 L 852.235,506.378 L 852.246,505.947 L 852.212,505.709 L 852.13,505.451 L 851.899,505.234 L 851.645,505.055 L 851.282,504.957 L 851.141,504.999 L 850.922,505.151 L 850.808,505.053 L 850.438,504.607"/><path id="path16171" d="M 860.865,519.256 L 860.374,519.575 L 860.276,519.423 L 860.243,519.306 L 859.897,518.609 L 859.713,518.366 L 859.641,518.226 L 859.534,517.817 L 859.486,517.7 L 859.159,517.34 L 859.102,517.224 L 859.028,516.926 L 859.016,516.507 L 858.957,516.202 L 858.82,515.927 L 858.494,515.577 L 858.412,515.328 L 858.425,515.052 L 858.484,514.665 L 858.437,514.003 L 858.767,513.969 L 858.824,514.134 L 858.836,514.478 L 858.86,514.558 L 858.87,514.747 L 858.92,514.96 L 859.022,515.611 L 859.216,516.129 L 859.257,516.221 L 859.483,516.764 L 859.508,516.859 L 860.022,517.842 L 860.166,518.046 L 860.48,518.586 L 860.727,518.932 L 860.784,519.073 L 860.864,519.183 L 860.865,519.256"/><path id="path16175" d="M 856.82,515.926 L 856.693,515.793 L 856.691,515.62 L 856.791,515.446 L 856.956,515.367 L 857.043,515.43 L 857.046,515.665 L 856.922,515.886 L 856.82,515.926"/></g></svg>