<svg xmlns="http://www.w3.org/2000/svg" role="img" viewBox="673.75 172.13 84.88 104.00"><title>Orange</title><g id="g14955" fill="#fefee9" fill-opacity="1" fill-rule="evenodd" stroke="#000" stroke-linecap="square" stroke-linejoin="bevel" stroke-opacity="1" stroke-width=".098" transform="translate(-216.714 -21.7) scale(2.264)"><path id="path15093" fill-rule="evenodd" d="M 429.926,99.2026 L 428.949,99.3802 L 428.946,99.4492 L 428.951,99.5181 L 428.972,99.6264 L 429.008,99.7076 L 429.026,99.7628 L 429.025,99.8238 L 429.038,99.934 L 429.074,100.041 L 429.101,100.122 L 429.159,100.209 L 429.241,100.3 L 429.305,100.371 L 429.54,100.662 L 429.569,100.814 L 429.589,100.915 L 429.628,101.019 L 429.65,101.096 L 429.644,101.157 L 429.661,101.215 L 429.647,101.279 L 429.632,101.338 L 429.624,101.405 L 429.629,101.476 L 429.636,101.543 L 429.657,101.667 L 429.678,101.746 L 429.7,101.827 L 429.714,101.894 L 429.75,102.022 L 429.757,102.111 L 429.76,102.174 L 429.757,102.282 L 429.739,102.358 L 429.699,102.403 L 429.657,102.456 L 429.609,102.538 L 429.557,102.627 L 429.524,102.709 L 429.482,102.823 L 429.462,102.897 L 429.437,103.023 L 429.422,103.129 L 429.405,103.196 L 429.365,103.278 L 429.313,103.349 L 429.228,103.421 L 429.151,103.489 L 429.101,103.52 L 429.05,103.547 L 428.986,103.575 L 428.927,103.602 L 428.844,103.599 L 428.76,103.575 L 428.683,103.549 L 428.583,103.569 L 428.519,103.606 L 428.452,103.631 L 428.381,103.672 L 428.326,103.701 L 428.26,103.759 L 428.22,103.84 L 428.194,103.924 L 428.194,104.035 L 428.213,104.098 L 428.274,104.208 L 428.342,104.284 L 428.375,104.333 L 428.434,104.359 L 428.503,104.348 L 428.629,104.292 L 428.69,104.293 L 428.766,104.296 L 428.838,104.322 L 428.864,104.436 L 428.811,104.602 L 428.78,104.685 L 428.732,104.773 L 428.686,104.833 L 428.638,104.89 L 428.631,104.978 L 428.751,105.025 L 428.849,105.071 L 428.935,105.107 L 429.009,105.099 L 429.102,105.059 L 429.165,105.03 L 429.237,105.043 L 429.212,105.211 L 429.161,105.337 L 429.148,105.433 L 429.119,105.563 L 429.069,105.782 L 429.021,105.963 L 428.997,106.021 L 428.994,106.108 L 428.988,106.212 L 429.057,106.27 L 429.113,106.355 L 429.126,106.416 L 429.123,106.489 L 429.112,106.611 L 429.109,106.717 L 429.13,106.906 L 429.143,107.02 L 429.146,107.085 L 429.133,107.173 L 429.101,107.222 L 428.978,107.339 L 428.846,107.491 L 428.759,107.552 L 428.702,107.59 L 428.632,107.633 L 428.55,107.612 L 428.513,107.559 L 428.49,107.494 L 428.418,107.489 L 428.326,107.577 L 428.274,107.637 L 428.226,107.698 L 428.159,107.741 L 428.072,107.749 L 427.929,107.721 L 427.768,107.691 L 427.577,107.68 L 427.475,107.677 L 427.373,107.69 L 427.3,107.675 L 427.231,107.68 L 427.15,107.697 L 426.985,107.704 L 426.877,107.701 L 426.804,107.68 L 426.753,107.652 L 426.671,107.602 L 426.585,107.548 L 426.493,107.539 L 426.392,107.57 L 426.356,107.627 L 426.304,107.713 L 426.251,107.758 L 426.201,107.793 L 426.104,107.81 L 426.028,107.827 L 425.941,107.81 L 425.884,107.788 L 425.829,107.768 L 425.769,107.748 L 425.714,107.718 L 425.655,107.708 L 425.574,107.703 L 425.479,107.761 L 425.39,107.816 L 425.321,107.841 L 425.371,107.971 L 423.599,108.284 L 423.026,108.358 L 423.052,108.425 L 422.274,108.552 L 422.605,110.699 L 421.828,110.766 L 421.819,110.845 L 421.76,110.917 L 421.708,111.011 L 421.638,111.078 L 421.539,111.118 L 421.466,111.157 L 421.385,111.192 L 421.291,111.22 L 421.21,111.253 L 421.192,111.31 L 421.175,111.371 L 421.159,111.447 L 421.158,111.512 L 421.144,111.585 L 421.125,111.666 L 421.095,111.758 L 421.045,111.84 L 420.998,111.895 L 420.955,111.997 L 420.929,112.067 L 420.887,112.138 L 420.838,112.169 L 420.784,112.2 L 420.727,112.246 L 420.64,112.301 L 420.559,112.339 L 420.484,112.38 L 420.405,112.415 L 420.337,112.458 L 420.257,112.431 L 419.508,112.184 L 419.102,112.226 L 420.46,120.769 L 420.473,120.861 L 420.406,120.876 L 420.337,120.884 L 420.274,120.885 L 420.178,120.896 L 420.103,120.897 L 420.001,120.851 L 419.937,120.815 L 419.874,120.777 L 419.817,120.728 L 419.753,120.668 L 419.706,120.614 L 419.638,120.555 L 419.595,120.476 L 419.527,120.41 L 419.463,120.36 L 419.377,120.318 L 419.302,120.284 L 419.224,120.269 L 419.161,120.245 L 419.088,120.227 L 419.014,120.212 L 418.921,120.198 L 418.843,120.177 L 418.762,120.171 L 418.656,120.176 L 418.573,120.197 L 418.504,120.233 L 418.447,120.258 L 418.403,120.315 L 418.375,120.384 L 418.329,120.484 L 418.3,120.564 L 418.268,120.631 L 418.219,120.689 L 418.149,120.738 L 418.039,120.77 L 417.956,120.76 L 417.896,120.728 L 417.829,120.652 L 417.805,120.568 L 417.788,120.445 L 417.775,120.388 L 417.769,120.325 L 417.77,120.238 L 417.765,120.166 L 417.752,120.091 L 417.748,120.024 L 417.732,119.933 L 417.716,119.866 L 417.676,119.803 L 417.605,119.729 L 417.539,119.683 L 417.437,119.635 L 417.368,119.627 L 417.282,119.648 L 417.208,119.698 L 417.184,119.784 L 417.178,119.847 L 417.198,119.964 L 417.196,120.036 L 417.205,120.108 L 417.229,120.218 L 417.241,120.283 L 417.228,120.344 L 417.228,120.407 L 417.172,120.493 L 417.099,120.53 L 417.045,120.555 L 416.99,120.58 L 416.87,120.571 L 416.796,120.531 L 416.71,120.473 L 416.673,120.427 L 416.605,120.356 L 416.536,120.306 L 416.552,122.68 L 417.298,125.948 L 417.842,130.665 L 398.741,130.031 L 396.093,129.943 L 397.027,113.394 L 397.056,112.979 L 396.985,112.994 L 396.926,112.996 L 396.854,112.957 L 396.777,112.943 L 396.695,112.895 L 396.648,112.842 L 396.593,112.816 L 396.533,112.795 L 396.47,112.773 L 396.362,112.751 L 396.189,112.729 L 395.937,112.725 L 395.839,112.746 L 395.764,112.74 L 395.669,112.753 L 395.602,112.778 L 395.556,112.834 L 395.517,112.895 L 395.453,112.957 L 395.415,113.037 L 395.383,113.108 L 395.361,113.2 L 395.371,113.316 L 395.384,113.401 L 395.378,113.503 L 395.341,113.593 L 395.284,113.643 L 395.24,113.7 L 395.179,113.735 L 395.139,113.778 L 395.078,113.83 L 395.009,113.869 L 394.857,113.914 L 394.844,113.769 L 394.286,109.033 L 406.082,107.25 L 405.634,103.745 L 405.325,101.578 L 407.967,101.147 L 407.601,98.3717 L 410.356,98.2123 L 410.027,95.579 L 412.638,95.056 L 412.026,91.5201 L 415.193,90.972 L 414.65,87.1986 L 418.089,86.8048 L 418.099,86.8922 L 421.516,86.5811 L 421.762,89.1361 L 423.763,88.8928 L 425.298,88.7342 L 425.629,91.3405 L 428.834,91.0169 L 429.926,99.2026"/></g></svg>