<svg xmlns="http://www.w3.org/2000/svg" role="img" viewBox="208.57 494.82 93.86 92.98"><title>Otis</title><path fill-rule="evenodd" d="M211.77743 500.27652l11.37207-1.71158 10.10876-1.4965 1.91535-.33508.07245.20376.0747.21282.05434.19923.06792.16527-.00679.16754.00453.15848v.17659l-.01585.13131-.08603.14942-.11094.14716-.2196.2513-.0951.10868-.16074.09962-.19244.07924-.14942.10414-.11773.35318-.09735.46865-.0249.19923.01358.22867.07924.19017.12905.16754.06113.12.05886.11772.10188.2332.05434.19243.07924.2015.0815.13584.16074.13357.0815.11773.01133.17433.05433.17433.0385.18338.01584.19697.02264.12905.02943.18338.03396.20603.14716.17432.08377.19244-.08377.2581-.04301.19244-.04755.25357 16.35287-1.5916.8173 8.82508 31.3949-4.12048.28979 3.1447 16.40041-1.44217-16.91208 73.5732-20.79484-3.91219.02038.16527.07924.21961.07698.2513.0883.1698.02037.16528.02037.14263.03396.1947-.03396.21961-.05886.20376-.03849.13358-.02264.15169-.00226.19017.0566.13584.05207.14716-.01132.1381-.29885.21961-.52525.4528-.1132.12-.06792.1947.0068.2015.09508.25583.07924.1947.07245.19244.04302.19244.03849.16075.03848.19244.04981.22187.03396.17433.07471.15395.10188.15621.03396.1517.0385.18338.03848.15621-2.05345.3147-2.16891.76297-1.29274-.2898-3.2647-37.38996-21.89287 2.87302-21.7412 2.76434.17207-14.27678 1.11615-39.42756" fill="#fefee9" fill-opacity="1" stroke="#000" stroke-linecap="square" stroke-linejoin="bevel" stroke-opacity="1" stroke-width=".22187199999999999"/></svg>