<svg xmlns="http://www.w3.org/2000/svg" role="img" viewBox="1551.12 608.00 59.76 84.63"><title>Pembroke</title><g id="g14955" fill="#fefee9" fill-opacity="1" fill-rule="evenodd" stroke="#000" stroke-linecap="square" stroke-linejoin="bevel" stroke-opacity="1" stroke-width=".098" transform="translate(-216.714 -21.7) scale(2.264)"><path id="path15759" fill-rule="evenodd" d="M 799.415,278.938 L 800.003,279.451 L 799.842,279.698 L 799.416,280.112 L 799.695,280.086 L 799.757,280.292 L 802.15,279.893 L 802.332,281.303 L 803.982,281.377 L 803.259,283.567 L 806.508,285.692 L 798.56,303.063 L 801.716,303.581 L 801.835,303.556 L 801.84,303.715 L 801.861,303.786 L 801.915,303.879 L 802.001,303.935 L 802.072,303.973 L 802.099,304.057 L 802.091,304.18 L 802.091,304.272 L 802.122,304.366 L 802.161,304.466 L 802.202,304.532 L 802.251,304.572 L 802.37,304.63 L 802.458,304.695 L 802.506,304.751 L 802.542,304.884 L 802.563,304.955 L 802.609,304.994 L 802.638,305.093 L 802.668,305.156 L 802.697,305.242 L 802.766,305.361 L 802.816,305.411 L 802.848,305.47 L 802.823,305.598 L 802.793,305.683 L 802.778,305.743 L 802.758,305.808 L 802.774,305.868 L 802.78,305.943 L 802.812,306.014 L 802.858,306.058 L 802.944,306.12 L 803.045,306.189 L 803.121,306.229 L 803.179,306.277 L 803.236,306.312 L 803.294,306.338 L 803.36,306.331 L 803.435,306.318 L 803.508,306.335 L 803.593,306.351 L 803.677,306.426 L 803.753,306.49 L 803.775,306.553 L 803.861,306.654 L 803.923,306.71 L 804.009,306.756 L 804.043,306.812 L 804.07,306.873 L 804.136,306.988 L 804.224,307.15 L 804.281,307.255 L 804.295,307.323 L 804.292,307.386 L 804.275,307.493 L 804.23,307.649 L 804.181,307.754 L 804.098,307.88 L 804.008,307.997 L 803.865,308.159 L 803.791,308.235 L 803.702,308.295 L 803.618,308.33 L 803.482,308.37 L 803.357,308.413 L 803.291,308.424 L 803.153,308.399 L 803.069,308.367 L 802.986,308.338 L 802.858,308.329 L 802.797,308.322 L 802.711,308.343 L 802.673,308.416 L 802.623,308.596 L 802.613,308.711 L 802.614,308.878 L 802.591,309.069 L 802.567,309.142 L 802.554,309.219 L 802.544,309.314 L 802.448,309.368 L 802.355,309.435 L 802.284,309.566 L 802.249,309.661 L 802.211,309.746 L 802.116,309.844 L 802.037,309.94 L 801.993,310.037 L 801.953,310.106 L 801.917,310.18 L 801.892,310.274 L 801.843,310.364 L 801.87,310.481 L 801.861,310.56 L 801.814,310.693 L 801.764,310.975 L 801.708,311.033 L 801.653,311.087 L 801.635,311.175 L 801.644,311.24 L 801.608,311.302 L 801.585,311.363 L 801.635,311.425 L 801.731,311.543 L 800.152,311.211 L 794.703,312.124 L 793.752,313.518 L 794.062,314.51 L 792.019,314.801 L 791.986,314.714 L 791.898,314.636 L 791.821,314.59 L 791.745,314.527 L 791.683,314.445 L 791.646,314.332 L 791.623,314.259 L 791.566,314.158 L 791.512,314.096 L 791.464,314.047 L 791.426,313.973 L 791.401,313.903 L 791.384,313.842 L 791.375,313.774 L 791.413,313.639 L 791.413,313.535 L 791.381,313.484 L 791.331,313.438 L 791.129,313.345 L 791.004,313.292 L 790.886,313.205 L 790.833,313.151 L 790.78,313.079 L 790.76,313.025 L 790.757,312.96 L 790.749,312.881 L 790.707,312.811 L 790.643,312.767 L 790.572,312.74 L 790.467,312.693 L 790.417,312.623 L 790.4,312.543 L 790.418,312.444 L 790.439,312.312 L 790.446,312.251 L 790.405,312.157 L 790.377,312.083 L 790.367,311.998 L 790.368,311.931 L 790.388,311.84 L 790.439,311.696 L 790.496,311.544 L 790.5,311.48 L 790.444,311.385 L 790.342,311.314 L 790.243,311.241 L 790.129,311.144 L 790.061,311.074 L 790.018,311.002 L 785.251,312.558 L 782.277,304.623 L 782.942,304.364 L 783.271,303.84 L 782.031,303.429 L 782.053,303.334 L 782.007,303.284 L 781.957,303.229 L 781.906,303.126 L 781.902,302.988 L 781.847,302.865 L 781.773,302.795 L 781.718,302.716 L 781.691,302.618 L 781.683,302.482 L 781.694,302.336 L 781.664,302.278 L 781.654,302.191 L 781.686,302.083 L 781.711,302.017 L 781.662,301.91 L 781.651,301.851 L 781.682,301.748 L 781.685,301.646 L 781.676,301.585 L 781.7,301.48 L 781.712,301.423 L 781.754,301.316 L 781.785,301.26 L 781.836,301.161 L 781.874,301.103 L 781.924,301.044 L 781.992,300.97 L 782.048,300.9 L 782.088,300.824 L 782.112,300.751 L 782.125,300.67 L 782.102,300.586 L 781.99,300.366 L 784.317,298.919 L 783.738,298.879 L 783.247,298.497 L 783.481,298.22 L 783.942,297.291 L 783.002,294.627 L 782.455,292.735 L 782.721,288.843 L 782.731,288.729 L 782.698,288.666 L 782.652,288.614 L 782.582,288.562 L 782.527,288.522 L 782.452,288.444 L 782.414,288.395 L 782.366,288.331 L 782.317,288.244 L 782.271,288.169 L 782.238,288.113 L 782.214,288.058 L 782.169,288 L 782.107,287.908 L 782.06,287.824 L 782.022,287.766 L 781.973,287.678 L 781.944,287.606 L 781.929,287.535 L 781.936,287.458 L 781.954,287.379 L 781.986,287.31 L 782.023,287.256 L 782.061,287.206 L 782.121,287.15 L 782.199,287.088 L 782.274,287.004 L 782.351,286.926 L 782.433,286.881 L 782.494,286.844 L 782.57,286.741 L 782.671,286.655 L 782.77,286.641 L 782.836,286.603 L 782.908,286.582 L 782.997,286.579 L 783.119,286.62 L 783.197,286.68 L 783.264,286.702 L 783.381,286.71 L 783.481,286.695 L 783.569,286.654 L 783.631,286.62 L 783.67,286.572 L 783.733,286.479 L 783.792,286.346 L 783.864,286.187 L 783.931,286.058 L 783.987,285.998 L 784.06,285.972 L 784.172,285.948 L 784.244,285.955 L 784.302,285.966 L 784.378,285.941 L 784.448,285.863 L 784.551,285.808 L 784.676,285.765 L 784.784,285.726 L 784.877,285.683 L 784.983,285.611 L 785.105,285.536 L 785.203,285.497 L 785.466,285.43 L 785.587,285.39 L 785.653,285.358 L 785.741,285.307 L 785.835,285.251 L 785.94,285.182 L 786.008,285.132 L 786.095,285.071 L 786.228,285.006 L 786.409,284.922 L 786.714,284.782 L 786.896,284.71 L 787.326,284.699 L 787.389,284.704 L 787.478,284.708 L 787.594,284.704 L 787.77,284.652 L 788.027,284.601 L 788.21,284.62 L 788.271,284.707 L 788.306,284.787 L 788.34,284.875 L 788.397,284.951 L 788.435,285.002 L 788.491,285.036 L 788.563,285.031 L 788.637,284.983 L 788.717,284.94 L 788.859,284.944 L 788.936,284.997 L 788.998,285.026 L 789.055,285.049 L 789.121,285.073 L 789.196,285.115 L 789.281,285.136 L 789.339,285.068 L 789.389,285.02 L 789.442,284.993 L 789.515,284.994 L 789.582,285.005 L 789.645,285.025 L 789.727,285.106 L 789.779,285.153 L 789.89,285.19 L 789.976,285.138 L 790.08,285.154 L 790.114,285.203 L 790.165,285.271 L 790.269,285.405 L 790.374,285.438 L 790.48,285.413 L 790.541,285.42 L 790.655,285.451 L 790.721,285.468 L 790.836,285.441 L 790.912,285.38 L 790.925,285.321 L 790.929,285.244 L 790.971,285.135 L 791.029,285.117 L 791.09,285.102 L 791.174,285.075 L 791.171,285.006 L 791.154,284.934 L 791.096,284.881 L 791.029,284.865 L 790.942,284.86 L 790.829,284.799 L 790.816,284.735 L 790.847,284.673 L 790.967,284.647 L 791.032,284.656 L 791.127,284.631 L 791.136,284.574 L 791.113,284.491 L 791.066,284.453 L 791.018,284.414 L 790.983,284.366 L 790.945,284.299 L 790.898,284.214 L 790.852,284.167 L 790.757,284.096 L 790.663,284.019 L 790.636,283.923 L 790.571,283.798 L 790.541,283.69 L 790.526,283.572 L 790.526,283.495 L 790.543,283.415 L 790.569,283.363 L 790.629,283.277 L 790.695,283.225 L 790.796,283.145 L 790.875,283.067 L 790.946,282.963 L 791.021,282.846 L 791.08,282.735 L 791.158,282.592 L 791.251,282.478 L 791.336,282.4 L 791.411,282.308 L 791.515,282.204 L 791.591,282.139 L 791.678,282.069 L 791.8,281.963 L 791.903,281.849 L 791.95,281.763 L 792.005,281.66 L 792.107,281.511 L 792.203,281.377 L 792.243,281.315 L 792.273,281.236 L 792.315,281.119 L 792.358,281.016 L 792.432,280.96 L 792.533,280.917 L 792.6,280.882 L 792.691,280.859 L 792.804,280.885 L 792.882,280.917 L 792.945,280.963 L 793.015,281.021 L 793.135,281.122 L 793.192,281.215 L 793.234,281.315 L 793.277,281.397 L 793.319,281.463 L 793.395,281.525 L 793.477,281.496 L 793.506,281.425 L 793.536,281.322 L 793.563,281.204 L 793.594,281.061 L 793.63,280.913 L 793.656,280.751 L 793.684,280.647 L 793.74,280.567 L 793.791,280.517 L 793.885,280.502 L 793.994,280.524 L 794.057,280.55 L 794.125,280.595 L 794.177,280.647 L 794.257,280.728 L 794.315,280.776 L 794.389,280.872 L 794.451,280.955 L 794.497,281.02 L 794.564,281.143 L 794.629,281.271 L 794.703,281.359 L 794.787,281.442 L 794.861,281.521 L 794.938,281.625 L 795.001,281.74 L 795.038,281.849 L 795.06,281.977 L 795.083,282.108 L 795.15,282.218 L 795.231,282.36 L 795.297,282.443 L 795.359,282.525 L 795.421,282.573 L 795.498,282.605 L 795.587,282.622 L 795.66,282.607 L 795.718,282.582 L 795.808,282.545 L 795.902,282.534 L 796.258,282.528 L 796.34,282.452 L 796.303,282.362 L 796.245,282.32 L 796.112,282.265 L 796.035,282.223 L 795.935,282.124 L 795.802,282.002 L 795.68,281.872 L 795.587,281.773 L 795.579,281.711 L 795.606,281.586 L 795.663,281.564 L 795.724,281.576 L 795.782,281.605 L 795.863,281.659 L 795.937,281.715 L 796.042,281.764 L 796.113,281.777 L 796.181,281.738 L 796.184,281.669 L 796.175,281.606 L 796.15,281.528 L 796.046,281.284 L 796.033,281.199 L 796.072,281.093 L 796.154,281.054 L 796.235,281.054 L 796.366,281.109 L 796.502,281.233 L 796.631,281.249 L 796.678,281.193 L 796.68,281.088 L 796.651,281.026 L 796.607,280.979 L 796.527,280.869 L 796.531,280.764 L 796.582,280.724 L 796.648,280.707 L 796.727,280.708 L 796.796,280.732 L 796.907,280.784 L 797.006,280.831 L 797.089,280.828 L 797.14,280.8 L 797.217,280.724 L 797.318,280.621 L 797.386,280.589 L 797.463,280.578 L 797.565,280.594 L 797.698,280.641 L 797.838,280.674 L 797.896,280.649 L 797.955,280.607 L 797.997,280.539 L 797.987,280.424 L 797.97,280.361 L 797.969,280.26 L 797.968,280.197 L 797.998,280.091 L 798.061,280.005 L 798.104,279.963 L 798.154,279.905 L 798.197,279.794 L 798.179,279.737 L 798.17,279.667 L 798.164,279.586 L 798.103,279.475 L 798.033,279.401 L 797.955,279.326 L 797.937,279.257 L 797.947,279.162 L 797.982,279.069 L 798.019,279.02 L 798.122,278.978 L 798.187,278.968 L 798.28,278.958 L 798.409,278.958 L 798.465,278.977 L 798.547,279.028 L 798.614,279.08 L 798.733,279.208 L 798.783,279.27 L 798.876,279.322 L 798.939,279.321 L 799.017,279.304 L 799.093,279.249 L 799.14,279.201 L 799.182,279.146 L 799.25,279.079 L 799.415,278.938"/></g></svg>