<svg xmlns="http://www.w3.org/2000/svg" role="img" viewBox="1081.43 151.43 75.14 64.89"><title>Pepperell</title><g id="g14955" fill="#fefee9" fill-opacity="1" fill-rule="evenodd" stroke="#000" stroke-linecap="square" stroke-linejoin="bevel" stroke-opacity="1" stroke-width=".098" transform="translate(-216.714 -21.7) scale(2.264)"><path id="path15075" fill-rule="evenodd" d="M 603.412,77.9971 L 603.344,78.1437 L 603.268,78.3095 L 603.191,78.4577 L 603.144,78.576 L 603.092,78.7535 L 603.079,78.8618 L 603.08,78.972 L 603.063,79.0566 L 603.03,79.1848 L 602.995,79.2677 L 602.679,79.6497 L 602.447,79.8895 L 602.357,79.9668 L 602.31,80.0183 L 602.265,80.0737 L 602.181,80.1609 L 602.115,80.2401 L 602.072,80.2974 L 602.037,80.3685 L 601.979,80.483 L 601.893,80.5998 L 601.811,80.7007 L 601.735,80.7917 L 601.653,80.869 L 601.541,80.9624 L 601.453,81.0377 L 601.35,81.0976 L 601.255,81.1454 L 601.151,81.1756 L 601.047,81.2138 L 600.973,81.2361 L 600.908,81.2661 L 600.845,81.3176 L 600.734,81.4187 L 600.652,81.5198 L 600.59,81.6362 L 600.534,81.7449 L 600.46,81.8654 L 600.399,81.974 L 600.327,82.0513 L 600.243,82.1209 L 600.194,82.1584 L 600.114,82.2162 L 600.055,82.2599 L 600.008,82.3291 L 599.958,82.4042 L 599.921,82.4753 L 599.87,82.5604 L 599.832,82.651 L 599.801,82.732 L 599.78,82.8246 L 599.781,83.0252 L 599.788,83.1943 L 599.803,83.381 L 599.813,83.7095 L 599.823,83.9397 L 599.82,84.1087 L 599.845,84.3191 L 599.876,84.5235 L 599.942,84.7375 L 599.999,84.926 L 600.025,85.0302 L 600.018,85.1363 L 600.001,85.3116 L 600.002,85.459 L 599.971,85.6994 L 599.979,85.8369 L 600.03,86.0922 L 600.038,86.3893 L 600.008,86.6374 L 599.954,86.7874 L 599.892,86.892 L 599.75,87.0229 L 599.663,87.1062 L 604.278,87.8318 L 605.921,89.6277 L 604.753,91.4703 L 594.588,94.5204 L 594.486,94.5369 L 594.358,94.5495 L 594.254,94.5681 L 594.153,94.5942 L 594.038,94.6483 L 593.962,94.6981 L 593.905,94.7457 L 593.856,94.8305 L 593.833,94.8879 L 593.849,94.9822 L 593.873,95.0548 L 593.901,95.1195 L 593.937,95.1664 L 594.007,95.2406 L 594.044,95.3014 L 594.067,95.4016 L 594.095,95.5077 L 594.086,95.5962 L 594.087,95.6925 L 594.062,95.795 L 594.015,95.9075 L 593.988,96.0239 L 593.956,96.1519 L 593.927,96.2288 L 593.904,96.3195 L 593.875,96.4142 L 593.868,96.5027 L 593.866,96.5873 L 593.875,96.6857 L 593.921,96.8211 L 593.939,96.8839 L 593.911,97.016 L 593.812,97.1878 L 593.771,97.2905 L 593.744,97.3951 L 593.578,97.5477 L 593.488,97.6409 L 593.445,97.6883 L 593.401,97.7753 L 593.382,97.8855 L 593.379,97.9643 L 593.359,98.0529 L 593.327,98.116 L 593.26,98.1914 L 593.19,98.2214 L 593.103,98.1865 L 593.059,98.1239 L 593.039,98.0532 L 593.018,97.9041 L 593.008,97.7999 L 592.982,97.7174 L 592.949,97.629 L 592.902,97.5566 L 592.85,97.5 L 592.791,97.4493 L 592.72,97.4007 L 592.605,97.3699 L 592.511,97.3432 L 592.414,97.3399 L 592.308,97.3683 L 592.21,97.4005 L 592.146,97.4522 L 592.095,97.5153 L 592.058,97.5864 L 592.027,97.6676 L 592.02,97.7619 L 592.039,97.9014 L 592.065,97.9781 L 592.138,98.0226 L 592.223,98.0831 L 592.268,98.1222 L 592.292,98.1751 L 592.299,98.2518 L 592.297,98.3403 L 592.286,98.4073 L 592.259,98.4625 L 592.21,98.5355 L 592.169,98.6049 L 592.144,98.664 L 592.125,98.723 L 592.11,98.7941 L 592.083,98.932 L 592.082,99.0403 L 592.091,99.1424 L 592.089,99.2468 L 592.072,99.3551 L 592.045,99.5658 L 591.991,99.8141 L 591.891,100.116 L 591.806,100.356 L 591.759,100.457 L 591.719,100.526 L 591.666,100.564 L 591.607,100.59 L 591.542,100.604 L 591.472,100.615 L 591.397,100.607 L 591.196,100.536 L 591.046,100.506 L 590.942,100.509 L 590.867,100.519 L 590.769,100.567 L 590.738,100.662 L 590.725,100.734 L 590.72,100.793 L 590.73,100.854 L 590.762,100.915 L 590.827,100.956 L 590.912,101.024 L 590.969,101.083 L 590.993,101.157 L 590.988,101.226 L 590.967,101.297 L 590.924,101.351 L 590.86,101.4 L 590.783,101.45 L 590.723,101.502 L 590.654,101.577 L 590.621,101.628 L 590.598,101.691 L 590.573,101.749 L 590.55,101.818 L 590.542,101.894 L 590.543,101.981 L 590.61,102.036 L 590.664,102.076 L 590.776,102.111 L 590.859,102.113 L 590.961,102.102 L 591.065,102.083 L 591.169,102.061 L 591.254,102.051 L 591.346,102.03 L 591.425,102.035 L 591.509,102.049 L 591.606,102.132 L 591.652,102.209 L 591.672,102.307 L 591.686,102.38 L 591.713,102.458 L 591.764,102.515 L 591.804,102.566 L 591.85,102.656 L 591.85,102.768 L 591.763,102.867 L 591.67,102.917 L 591.576,102.951 L 591.435,102.979 L 591.248,103.009 L 591.095,103.037 L 590.983,103.066 L 590.909,103.1 L 590.756,103.189 L 590.686,103.249 L 590.621,103.31 L 590.563,103.378 L 590.51,103.441 L 590.457,103.508 L 590.424,103.595 L 590.399,103.668 L 590.386,103.729 L 590.387,103.827 L 590.415,103.914 L 590.439,103.998 L 590.475,104.065 L 590.511,104.122 L 590.551,104.204 L 590.502,104.299 L 590.386,104.343 L 590.296,104.345 L 590.178,104.327 L 590.085,104.304 L 589.991,104.279 L 589.916,104.274 L 589.776,104.296 L 589.594,104.374 L 589.449,104.436 L 589.349,104.467 L 589.255,104.485 L 589.156,104.478 L 588.962,104.452 L 588.837,104.441 L 588.757,104.416 L 588.666,104.387 L 588.605,104.352 L 588.552,104.312 L 588.447,104.208 L 588.371,104.067 L 588.279,103.885 L 588.179,103.649 L 588.104,103.504 L 588.026,103.342 L 587.954,103.211 L 587.861,103.095 L 587.798,103.025 L 587.714,102.939 L 587.637,102.867 L 587.582,102.816 L 587.53,102.771 L 587.461,102.738 L 587.304,102.738 L 587.235,102.752 L 587.165,102.762 L 587.106,102.786 L 587.031,102.85 L 586.988,102.903 L 586.948,103.006 L 586.929,103.124 L 586.885,103.327 L 586.857,103.486 L 586.823,103.691 L 586.773,103.953 L 586.254,103.892 L 586.269,103.798 L 585.166,103.575 L 584.812,103.307 L 583.189,102.386 L 582.529,102.045 L 578.405,99.8523 L 576.815,98.1662 L 576.313,98.1241 L 575.443,97.5951 L 574.433,96.2343 L 574.07,96.163 L 575.92,82.0385 L 575.637,77.1654 L 581.088,77.3558 L 582.579,77.4077 L 603.251,77.9898 L 603.412,77.9971"/></g></svg>