<svg xmlns="http://www.w3.org/2000/svg" role="img" viewBox="252.54 318.29 64.29 82.29"><title>Peru</title><g id="g14955" fill="#fefee9" fill-opacity="1" fill-rule="evenodd" stroke="#000" stroke-linecap="square" stroke-linejoin="bevel" stroke-opacity="1" stroke-width=".098" transform="translate(-216.714 -21.7) scale(2.264)"><path id="path15335" fill-rule="evenodd" d="M 214.662,150.978 L 232.027,155.227 L 234.937,155.877 L 233.663,162.004 L 231.762,170.876 L 228.997,183.069 L 228.375,185.823 L 214.612,182.321 L 213.878,185.2 L 208.053,183.708 L 209.994,175.1 L 210.693,175.276 L 211.528,171.433 L 211.318,170.811 L 211.242,170.806 L 211.181,170.794 L 211.12,170.763 L 211.034,170.719 L 210.98,170.697 L 210.802,170.567 L 210.348,170.226 L 210.421,170.131 L 210.465,170.055 L 210.505,170.006 L 210.557,169.942 L 210.613,169.864 L 210.674,169.853 L 210.762,169.862 L 210.837,169.826 L 210.915,169.872 L 210.918,169.96 L 210.909,170.025 L 210.91,170.102 L 210.943,170.165 L 211.009,170.196 L 211.08,170.198 L 211.153,170.193 L 211.222,170.194 L 211.288,170.195 L 211.359,170.176 L 211.417,170.122 L 211.459,170.073 L 211.511,170.035 L 211.566,169.994 L 211.634,169.944 L 211.685,169.911 L 211.751,169.855 L 211.803,169.786 L 211.841,169.722 L 211.871,169.66 L 211.903,169.595 L 211.932,169.54 L 211.968,169.484 L 212.027,169.425 L 212.128,169.381 L 212.201,169.359 L 212.28,169.326 L 212.273,169.248 L 212.255,169.173 L 212.222,169.099 L 212.182,169.038 L 212.127,168.992 L 212.079,168.942 L 212.068,168.846 L 212.11,168.789 L 212.142,168.735 L 212.116,168.665 L 212.073,168.61 L 211.989,168.558 L 211.925,168.514 L 211.918,168.433 L 211.952,168.372 L 212.014,168.33 L 212.056,168.267 L 212.029,168.198 L 211.964,168.205 L 211.895,168.197 L 211.871,168.141 L 211.848,168.066 L 211.823,167.999 L 211.783,167.928 L 211.727,167.856 L 211.655,167.796 L 211.594,167.748 L 211.554,167.681 L 211.514,167.592 L 211.486,167.501 L 211.453,167.432 L 211.402,167.4 L 211.344,167.38 L 211.3,167.304 L 211.245,167.256 L 211.164,167.257 L 211.232,167.02 L 212.375,162.727 L 212.029,162.717 L 212.106,162.273 L 211.499,162.217 L 213.271,154.989 L 213.69,155.109 L 214.662,150.978"/></g></svg>