<svg xmlns="http://www.w3.org/2000/svg" role="img" viewBox="698.90 268.77 131.45 167.70"><title>Petersham</title><g id="g14955" fill="#fefee9" fill-opacity="1" fill-rule="evenodd" stroke="#000" stroke-linecap="square" stroke-linejoin="bevel" stroke-opacity="1" stroke-width=".098" transform="translate(-216.714 -21.7) scale(2.264)"><path id="path15261" fill-rule="evenodd" d="M 439.677,129.791 L 455.108,146.455 L 455.832,147.197 L 461.084,152.893 L 455.02,158.02 L 434.315,175.414 L 430.716,183.014 L 428.257,181.515 L 428.031,181.361 L 427.961,181.419 L 427.919,181.514 L 427.882,181.588 L 427.817,181.674 L 427.741,181.766 L 427.665,181.818 L 427.588,181.845 L 427.504,181.848 L 427.42,181.806 L 427.349,181.817 L 427.193,181.839 L 427.088,181.855 L 426.978,181.907 L 426.879,181.971 L 426.793,182.028 L 426.73,182.064 L 426.655,182.087 L 426.579,182.169 L 426.524,182.188 L 426.433,182.232 L 426.383,182.267 L 426.31,182.333 L 426.266,182.376 L 426.235,182.458 L 426.221,182.531 L 426.228,182.631 L 426.221,182.698 L 426.196,182.784 L 426.139,182.807 L 426.048,182.861 L 425.991,182.888 L 425.931,182.905 L 425.844,182.957 L 425.789,183.004 L 425.753,183.052 L 425.724,183.127 L 425.704,183.201 L 425.697,183.268 L 425.692,183.338 L 425.662,183.426 L 425.584,183.527 L 425.548,183.613 L 425.551,183.703 L 425.599,183.785 L 425.667,183.876 L 425.836,184.075 L 425.871,184.221 L 425.882,184.284 L 425.901,184.354 L 425.916,184.456 L 425.903,184.536 L 425.873,184.632 L 425.785,184.713 L 425.617,184.829 L 425.482,184.895 L 425.267,185 L 425.209,185.034 L 425.146,185.098 L 425.092,185.179 L 425.11,185.284 L 425.027,185.369 L 424.989,185.417 L 424.941,185.451 L 424.847,185.485 L 424.772,185.514 L 424.68,185.509 L 424.594,185.489 L 424.539,185.462 L 424.247,185.448 L 422.936,184.787 L 420.742,183.606 L 419.168,185.948 L 419.041,185.827 L 418.991,185.788 L 418.912,185.769 L 418.839,185.794 L 418.766,185.789 L 418.706,185.728 L 418.634,185.595 L 418.611,185.538 L 418.548,185.419 L 418.521,185.368 L 418.433,185.265 L 418.373,185.19 L 418.316,185.132 L 418.289,185.059 L 418.279,184.962 L 418.266,184.874 L 418.229,184.804 L 418.157,184.735 L 418.09,184.699 L 418.017,184.712 L 417.987,184.777 L 417.885,184.79 L 417.803,184.714 L 417.756,184.676 L 417.691,184.662 L 417.605,184.649 L 417.419,184.728 L 417.188,184.829 L 417.087,184.883 L 417.036,184.91 L 416.994,184.963 L 416.968,185.016 L 416.967,185.089 L 417.006,185.142 L 417.057,185.192 L 417.099,185.247 L 417.052,185.306 L 417.014,185.367 L 416.972,185.432 L 416.934,185.51 L 416.903,185.596 L 416.893,185.673 L 416.862,185.785 L 416.812,185.855 L 416.751,185.955 L 416.728,186.052 L 416.696,186.11 L 416.678,186.167 L 416.667,186.272 L 416.648,186.358 L 416.646,186.435 L 416.649,186.539 L 416.656,186.604 L 416.657,186.667 L 416.59,186.738 L 416.548,186.783 L 416.459,186.853 L 416.394,186.889 L 416.309,186.93 L 416.231,186.981 L 416.14,187.051 L 416.094,187.103 L 416.021,187.156 L 415.956,187.211 L 415.885,187.239 L 415.841,187.282 L 415.762,187.329 L 415.699,187.364 L 415.635,187.395 L 415.558,187.418 L 415.479,187.459 L 415.432,187.517 L 415.373,187.625 L 415.321,187.806 L 415.232,187.98 L 415.192,188.114 L 415.125,188.353 L 415.108,188.463 L 415.06,188.54 L 415.003,188.588 L 414.805,188.632 L 414.732,188.669 L 414.69,188.733 L 414.64,188.817 L 414.622,188.878 L 414.647,188.941 L 414.745,188.952 L 414.806,188.962 L 414.851,189.018 L 414.834,189.12 L 414.77,189.226 L 414.742,189.277 L 414.734,189.334 L 414.799,189.354 L 414.929,189.292 L 414.984,189.316 L 414.95,189.395 L 414.918,189.46 L 414.867,189.544 L 414.88,189.627 L 414.899,189.73 L 414.977,189.905 L 415.016,189.968 L 415.106,190.014 L 415.161,190.036 L 415.218,190.066 L 415.2,190.121 L 415.098,190.23 L 415.024,190.361 L 414.959,190.504 L 414.904,190.642 L 414.869,190.744 L 414.831,190.798 L 414.777,190.86 L 414.701,190.942 L 414.649,190.982 L 414.572,190.995 L 414.533,190.95 L 414.487,190.879 L 414.42,190.827 L 414.326,190.805 L 414.273,190.773 L 414.2,190.77 L 414.17,190.83 L 414.058,190.772 L 414.011,190.701 L 414.056,190.629 L 414.047,190.556 L 413.99,190.506 L 413.913,190.494 L 413.855,190.502 L 413.809,190.588 L 413.811,190.771 L 413.803,190.908 L 413.782,191.031 L 413.782,191.19 L 413.792,191.353 L 413.799,191.437 L 413.797,191.602 L 413.779,191.974 L 413.763,192.365 L 413.749,192.756 L 413.738,192.985 L 413.753,193.505 L 413.78,193.798 L 413.803,194.038 L 413.831,194.235 L 413.896,194.429 L 413.921,194.512 L 413.945,194.604 L 413.927,194.683 L 413.873,194.763 L 413.766,194.798 L 413.685,194.801 L 413.651,194.897 L 413.696,194.97 L 413.76,195.038 L 413.819,195.093 L 413.859,195.169 L 413.844,195.279 L 413.818,195.34 L 413.794,195.394 L 413.75,195.483 L 413.725,195.581 L 413.691,195.667 L 413.633,195.712 L 413.574,195.735 L 413.521,195.77 L 413.526,195.843 L 413.638,195.885 L 413.722,195.908 L 413.805,195.918 L 413.864,195.942 L 413.936,195.988 L 413.985,196.032 L 414.027,196.111 L 414.023,196.202 L 413.99,196.258 L 413.883,196.332 L 413.706,196.37 L 413.591,196.444 L 413.524,196.485 L 413.454,196.544 L 413.355,196.574 L 413.27,196.599 L 413.209,196.626 L 413.151,196.677 L 413.143,196.75 L 413.156,196.811 L 413.197,196.894 L 413.174,196.976 L 413.173,197.063 L 413.2,197.154 L 413.237,197.201 L 413.304,197.239 L 413.368,197.263 L 413.443,197.307 L 413.482,197.37 L 413.477,197.467 L 413.456,197.543 L 413.387,197.6 L 413.293,197.585 L 413.177,197.551 L 413.08,197.527 L 412.974,197.538 L 412.891,197.594 L 412.87,197.667 L 412.868,197.726 L 412.843,197.808 L 412.735,197.852 L 412.626,197.865 L 412.568,197.852 L 412.485,197.807 L 412.402,197.794 L 412.344,197.826 L 412.395,197.878 L 412.397,198.012 L 412.351,198.102 L 412.289,198.157 L 412.216,198.162 L 412.15,198.132 L 412.143,198.057 L 412.141,197.982 L 412.134,197.919 L 412.044,197.893 L 411.969,197.886 L 411.916,197.911 L 411.854,197.992 L 411.804,198.058 L 411.741,198.085 L 411.66,198.088 L 411.585,198.107 L 411.529,198.166 L 411.456,198.171 L 411.377,198.202 L 411.329,198.257 L 411.274,198.276 L 411.175,198.3 L 411.095,198.311 L 411.025,198.36 L 410.987,198.407 L 410.951,198.474 L 410.913,198.567 L 410.863,198.634 L 410.807,198.694 L 410.754,198.721 L 410.448,198.795 L 410.365,198.793 L 410.295,198.737 L 410.234,198.733 L 410.177,198.765 L 410.089,198.816 L 410.032,198.837 L 409.961,198.864 L 409.901,198.928 L 409.798,198.979 L 409.706,199.009 L 409.623,199.032 L 409.553,199.102 L 409.521,199.206 L 409.502,199.273 L 409.464,199.363 L 409.416,199.412 L 409.347,199.478 L 409.283,199.519 L 409.236,199.556 L 409.158,199.632 L 409.12,199.691 L 409.066,199.775 L 409.014,199.861 L 408.942,199.949 L 408.855,200.013 L 408.778,200.062 L 408.712,200.101 L 408.62,200.133 L 408.547,200.099 L 408.54,200.025 L 408.599,199.999 L 408.66,199.986 L 408.694,199.924 L 408.628,199.895 L 408.441,199.829 L 408.351,199.815 L 408.284,199.826 L 408.252,199.875 L 408.275,199.934 L 408.308,200.005 L 408.25,200.081 L 408.185,200.095 L 408.115,200.127 L 408.083,200.188 L 408.134,200.248 L 408.232,200.274 L 408.261,200.333 L 408.227,200.398 L 408.16,200.448 L 408.079,200.471 L 408.004,200.475 L 407.931,200.462 L 407.849,200.44 L 407.777,200.473 L 407.702,200.517 L 407.643,200.503 L 407.636,200.411 L 407.727,200.368 L 407.765,200.323 L 407.732,200.258 L 407.65,200.232 L 407.596,200.277 L 407.525,200.347 L 407.476,200.433 L 407.485,200.543 L 407.494,200.622 L 407.443,200.655 L 407.378,200.662 L 407.303,200.631 L 407.23,200.677 L 407.19,200.751 L 407.136,200.842 L 407.025,200.847 L 406.959,200.82 L 406.897,200.842 L 406.838,200.912 L 406.784,200.945 L 406.68,200.913 L 406.635,200.859 L 406.529,200.845 L 406.476,200.87 L 406.433,200.806 L 406.391,200.696 L 406.33,200.63 L 406.255,200.636 L 406.241,200.484 L 406.265,200.419 L 406.286,200.303 L 406.273,200.201 L 406.262,200.132 L 406.238,200.027 L 406.224,199.966 L 406.215,199.88 L 406.21,199.787 L 406.2,199.653 L 406.199,199.52 L 406.21,199.374 L 406.223,199.248 L 406.248,199.13 L 406.265,199.034 L 406.307,198.946 L 406.331,198.863 L 406.36,198.801 L 406.41,198.703 L 406.454,198.634 L 406.516,198.546 L 406.562,198.451 L 406.624,198.349 L 406.67,198.253 L 406.698,198.192 L 406.715,198.108 L 406.745,198.049 L 406.772,197.945 L 406.79,197.842 L 406.789,197.753 L 406.801,197.673 L 406.804,197.598 L 406.795,197.535 L 406.748,197.436 L 406.723,197.383 L 406.714,197.308 L 406.707,197.215 L 406.68,197.127 L 406.606,197.075 L 406.516,197.031 L 406.444,196.971 L 406.403,196.878 L 406.404,196.815 L 406.409,196.74 L 406.445,196.668 L 406.515,196.568 L 406.584,196.504 L 406.573,196.425 L 406.548,196.35 L 406.498,196.286 L 406.451,196.199 L 406.44,196.142 L 406.421,196.069 L 406.41,195.976 L 406.419,195.862 L 406.418,195.781 L 406.445,195.675 L 406.481,195.563 L 406.537,195.473 L 406.593,195.434 L 406.658,195.425 L 406.718,195.461 L 406.751,195.52 L 406.811,195.702 L 406.873,195.742 L 406.933,195.689 L 406.969,195.605 L 406.985,195.532 L 406.996,195.422 L 406.96,195.335 L 406.913,195.293 L 406.884,195.203 L 406.862,195.092 L 406.855,195.027 L 406.867,194.97 L 406.88,194.832 L 406.85,194.706 L 406.684,194.386 L 406.645,194.295 L 406.656,194.201 L 406.682,194.136 L 406.746,194.058 L 406.819,194.015 L 406.892,193.953 L 406.973,193.91 L 407.069,193.848 L 407.126,193.801 L 407.204,193.733 L 407.24,193.669 L 407.262,193.614 L 407.28,193.551 L 407.283,193.476 L 407.25,193.391 L 407.216,193.295 L 407.197,193.2 L 407.172,193.115 L 407.09,193.058 L 407.035,193.028 L 406.951,192.97 L 406.928,192.917 L 406.9,192.865 L 406.876,192.794 L 406.851,192.698 L 406.834,192.637 L 406.787,192.544 L 406.75,192.489 L 406.705,192.43 L 406.655,192.343 L 406.654,192.27 L 406.645,192.166 L 406.63,192.077 L 406.581,192.006 L 406.532,191.959 L 406.479,191.921 L 406.385,191.871 L 406.322,191.849 L 406.243,191.897 L 406.176,191.912 L 406.104,191.865 L 405.983,191.753 L 405.926,191.659 L 405.996,191.589 L 406.06,191.613 L 406.117,191.641 L 406.139,191.57 L 406.148,191.492 L 406.184,191.434 L 406.267,191.37 L 406.295,191.274 L 406.268,191.179 L 406.266,191.093 L 406.913,190.997 L 406.974,190.968 L 406.947,190.88 L 406.967,190.821 L 407.016,190.786 L 407.073,190.828 L 407.162,190.816 L 407.165,190.726 L 407.136,190.614 L 407.091,190.473 L 407.038,190.419 L 406.986,190.323 L 406.907,190.287 L 406.846,190.298 L 406.793,190.323 L 406.72,190.354 L 406.633,190.345 L 406.63,190.251 L 406.678,190.196 L 406.775,190.16 L 406.809,190.072 L 406.77,190.016 L 406.808,189.964 L 406.791,189.883 L 406.765,189.785 L 406.747,189.671 L 406.74,189.592 L 406.782,189.536 L 406.843,189.503 L 406.896,189.45 L 406.921,189.368 L 406.886,189.308 L 406.82,189.258 L 406.735,189.234 L 406.666,189.222 L 406.602,189.19 L 406.537,189.126 L 406.505,189.053 L 406.523,188.968 L 406.555,188.919 L 406.609,188.863 L 406.664,188.81 L 406.746,188.762 L 406.809,188.713 L 406.87,188.658 L 406.875,188.56 L 406.805,188.479 L 406.734,188.525 L 406.661,188.568 L 406.634,188.479 L 406.594,188.392 L 406.553,188.338 L 406.575,188.278 L 406.64,188.266 L 406.635,188.201 L 406.602,188.148 L 406.555,188.09 L 406.514,188.031 L 406.505,187.972 L 406.512,187.883 L 406.548,187.809 L 406.517,187.749 L 406.451,187.707 L 406.402,187.65 L 406.356,187.565 L 406.331,187.478 L 406.345,187.397 L 406.403,187.343 L 406.487,187.373 L 406.595,187.372 L 406.657,187.355 L 406.696,187.294 L 406.723,187.214 L 406.668,187.15 L 406.613,187.126 L 406.535,187.117 L 406.46,187.093 L 406.495,187.013 L 406.56,186.954 L 406.629,186.982 L 406.707,187.04 L 406.77,186.996 L 406.796,186.943 L 406.848,186.866 L 406.954,186.72 L 406.999,186.657 L 407.026,186.594 L 406.979,186.561 L 406.92,186.546 L 406.926,186.468 L 406.972,186.387 L 407.008,186.336 L 407.054,186.299 L 407.106,186.243 L 407.165,186.198 L 407.203,186.147 L 407.262,186.124 L 407.269,186.061 L 407.206,186.008 L 407.161,185.968 L 407.106,185.932 L 407.062,185.867 L 407.119,185.816 L 407.174,185.834 L 407.251,185.884 L 407.321,185.912 L 407.4,185.899 L 407.363,185.836 L 407.279,185.788 L 407.223,185.687 L 407.294,185.662 L 407.357,185.628 L 407.474,185.602 L 407.415,185.508 L 407.347,185.48 L 407.278,185.442 L 407.218,185.386 L 407.144,185.315 L 407.058,185.259 L 406.977,185.217 L 406.901,185.193 L 406.832,185.155 L 406.782,185.095 L 406.745,185.044 L 406.702,184.977 L 406.663,184.92 L 406.599,184.844 L 406.596,184.779 L 406.577,184.713 L 406.592,184.598 L 406.674,184.572 L 406.737,184.649 L 406.754,184.722 L 406.783,184.795 L 406.855,184.809 L 406.893,184.745 L 406.841,184.677 L 406.827,184.62 L 406.832,184.557 L 406.827,184.451 L 406.818,184.376 L 406.769,184.327 L 406.679,184.312 L 406.598,184.345 L 406.525,184.334 L 406.468,184.308 L 406.412,184.257 L 406.373,184.209 L 406.348,184.123 L 406.361,184.06 L 406.401,183.985 L 406.466,183.925 L 406.531,183.888 L 406.591,183.818 L 406.637,183.746 L 406.602,183.667 L 406.548,183.589 L 406.464,183.536 L 406.37,183.476 L 406.309,183.434 L 406.263,183.384 L 406.21,183.325 L 406.156,183.263 L 406.084,183.186 L 406.023,183.127 L 406.022,183.018 L 406.091,182.974 L 406.15,182.992 L 406.209,183.028 L 406.288,183.027 L 406.329,182.982 L 406.361,182.925 L 406.393,182.864 L 406.335,182.811 L 406.264,182.814 L 406.183,182.831 L 406.119,182.779 L 406.155,182.722 L 406.204,182.678 L 406.266,182.654 L 406.353,182.604 L 406.428,182.558 L 406.501,182.527 L 406.588,182.49 L 406.618,182.425 L 406.559,182.354 L 406.509,182.291 L 406.514,182.192 L 406.512,182.119 L 406.456,182.042 L 406.384,182.006 L 406.327,181.97 L 406.386,181.927 L 406.356,181.854 L 406.317,181.789 L 406.268,181.729 L 406.224,181.642 L 406.272,181.572 L 406.343,181.567 L 406.409,181.567 L 406.492,181.533 L 406.513,181.468 L 406.496,181.389 L 406.485,181.308 L 406.513,181.238 L 406.57,181.25 L 406.631,181.217 L 406.628,181.154 L 406.652,181.101 L 406.694,181.031 L 406.675,180.96 L 406.612,180.894 L 406.57,180.833 L 406.508,180.724 L 406.501,180.657 L 406.541,180.563 L 406.604,180.554 L 406.658,180.602 L 406.697,180.645 L 406.761,180.614 L 406.728,180.553 L 406.717,180.48 L 406.689,180.429 L 406.69,180.344 L 406.709,180.264 L 406.692,180.183 L 406.755,180.142 L 406.83,180.133 L 406.882,180.049 L 406.875,179.972 L 406.85,179.882 L 406.827,179.805 L 406.814,179.718 L 406.732,179.647 L 406.715,179.568 L 406.73,179.489 L 406.764,179.428 L 406.731,179.357 L 406.69,179.306 L 406.638,179.242 L 406.607,179.163 L 406.596,179.037 L 406.636,178.967 L 406.708,179.02 L 406.769,179.07 L 406.797,178.984 L 406.83,178.909 L 406.925,178.832 L 407,178.797 L 407.073,178.778 L 407.126,178.723 L 407.16,178.668 L 407.253,178.606 L 407.33,178.569 L 407.391,178.558 L 407.461,178.531 L 407.514,178.472 L 407.529,178.4 L 407.573,178.323 L 407.554,178.26 L 407.478,178.309 L 407.411,178.334 L 407.323,178.313 L 407.328,178.23 L 407.36,178.18 L 407.396,178.113 L 407.441,178.05 L 407.454,177.985 L 407.49,177.75 L 407.483,177.655 L 407.491,177.586 L 407.537,177.508 L 407.641,177.519 L 407.739,177.526 L 407.799,177.483 L 407.843,177.434 L 407.896,177.371 L 407.92,177.319 L 407.899,177.236 L 407.817,177.249 L 407.748,177.252 L 407.721,177.197 L 407.745,177.122 L 407.797,177.036 L 407.825,176.95 L 407.856,176.887 L 407.888,176.805 L 407.902,176.746 L 407.907,176.638 L 407.886,176.528 L 407.878,176.418 L 407.891,176.276 L 407.927,176.208 L 407.996,176.196 L 408.08,176.23 L 408.158,176.235 L 408.242,176.171 L 408.268,176.112 L 408.269,176.024 L 408.258,175.945 L 408.205,175.874 L 408.145,175.83 L 408.088,175.788 L 408.128,175.735 L 408.195,175.728 L 408.269,175.723 L 408.358,175.696 L 408.439,175.659 L 408.477,175.601 L 408.448,175.53 L 408.411,175.466 L 408.382,175.413 L 408.35,175.338 L 408.388,175.277 L 408.451,175.213 L 408.511,175.178 L 408.596,175.124 L 408.6,175.047 L 408.571,174.972 L 408.537,174.888 L 408.504,174.81 L 408.469,174.743 L 408.437,174.662 L 408.432,174.58 L 408.446,174.521 L 408.541,174.372 L 408.712,174.264 L 408.831,174.278 L 408.924,174.311 L 408.98,174.378 L 409.049,174.339 L 409.125,174.287 L 409.191,174.321 L 409.294,174.265 L 409.363,174.285 L 409.419,174.309 L 409.498,174.294 L 409.561,174.286 L 409.623,174.232 L 409.602,174.151 L 409.605,174.065 L 409.662,174.024 L 409.714,173.967 L 409.75,173.908 L 409.803,173.866 L 409.764,173.802 L 409.734,173.743 L 409.822,173.722 L 409.895,173.729 L 409.943,173.662 L 409.943,173.586 L 409.936,173.501 L 409.908,173.414 L 409.881,173.363 L 409.862,173.28 L 409.837,173.217 L 409.826,173.152 L 409.765,173.12 L 409.69,173.099 L 409.582,173.077 L 409.528,173.011 L 409.513,172.93 L 409.543,172.866 L 409.61,172.859 L 409.645,172.916 L 409.718,172.924 L 409.771,172.886 L 409.846,172.884 L 409.936,172.869 L 410.003,172.854 L 410.072,172.829 L 410.097,172.743 L 410.082,172.656 L 410.067,172.573 L 410.058,172.509 L 410.141,172.486 L 410.188,172.519 L 410.253,172.514 L 410.34,172.462 L 410.392,172.381 L 410.451,172.335 L 410.522,172.304 L 410.589,172.293 L 410.753,172.249 L 410.84,172.216 L 410.904,172.138 L 410.859,172.098 L 410.786,172.086 L 410.724,172.034 L 410.783,171.976 L 410.868,171.931 L 410.925,171.923 L 411.034,171.867 L 411.082,171.822 L 411.147,171.811 L 411.2,171.753 L 411.242,171.676 L 411.272,171.619 L 411.318,171.541 L 411.386,171.455 L 411.467,171.394 L 411.517,171.359 L 411.59,171.262 L 411.61,171.207 L 411.658,171.14 L 411.7,171.085 L 411.756,171.019 L 411.817,170.966 L 411.878,171.034 L 411.976,171.064 L 412.042,171.064 L 412.116,171.016 L 412.191,170.989 L 412.231,170.928 L 412.243,170.849 L 412.228,170.757 L 412.2,170.664 L 412.232,170.564 L 412.252,170.501 L 412.249,170.438 L 412.293,170.366 L 412.35,170.34 L 412.39,170.28 L 412.404,170.221 L 412.425,170.118 L 412.448,170.008 L 412.452,169.928 L 412.439,169.841 L 412.37,169.74 L 412.277,169.698 L 412.25,169.638 L 412.275,169.58 L 412.358,169.527 L 412.454,169.534 L 412.51,169.587 L 412.56,169.716 L 412.583,169.783 L 412.605,169.844 L 412.677,169.864 L 412.742,169.824 L 412.761,169.767 L 412.76,169.635 L 412.763,169.497 L 412.782,169.371 L 412.822,169.297 L 412.86,169.242 L 412.947,169.179 L 413.024,169.139 L 413.08,169.066 L 413.027,168.991 L 412.991,168.941 L 412.972,168.855 L 412.931,168.811 L 412.846,168.814 L 412.785,168.792 L 412.767,168.717 L 412.724,168.658 L 412.658,168.594 L 412.587,168.54 L 412.562,168.454 L 412.596,168.393 L 412.665,168.37 L 412.75,168.384 L 412.846,168.409 L 412.981,168.441 L 413.064,168.434 L 413.135,168.417 L 413.226,168.416 L 413.298,168.44 L 413.378,168.494 L 413.441,168.494 L 413.473,168.441 L 413.497,168.386 L 413.512,168.326 L 413.461,168.239 L 413.423,168.163 L 413.429,168.077 L 413.481,168.012 L 413.549,167.942 L 413.614,167.876 L 413.672,167.813 L 413.724,167.731 L 413.781,167.664 L 413.858,167.639 L 413.917,167.606 L 413.999,167.556 L 414.082,167.496 L 414.347,167.293 L 414.478,167.147 L 412.555,153.909 L 419.895,146.919 L 423.285,143.578 L 424.502,142.338 L 436.947,130.282 L 438.579,130.046 L 439.677,129.791"/></g></svg>