<svg xmlns="http://www.w3.org/2000/svg" role="img" viewBox="1604.81 709.56 140.13 178.88"><title>Plymouth</title><g id="g14955" fill="#fefee9" fill-opacity="1" fill-rule="evenodd" stroke="#000" stroke-linecap="square" stroke-linejoin="bevel" stroke-opacity="1" stroke-width=".098" transform="translate(-216.714 -21.7) scale(2.264)"><path id="path15857" fill-rule="evenodd" d="M 821.431,324.614 L 821.602,324.804 L 821.904,325.062 L 822.157,325.185 L 822.298,325.134 L 822.385,325.134 L 822.764,325.297 L 822.928,325.146 L 823.038,325.112 L 823.094,325.16 L 823.102,325.222 L 823.018,325.445 L 823.525,325.752 L 824.236,325.992 L 824.426,326.107 L 824.99,326.59 L 825.222,327.02 L 825.311,327.263 L 825.431,327.476 L 825.84,328.211 L 826.087,328.539 L 826.089,328.728 L 826.257,329.064 L 826.711,329.531 L 826.719,329.596 L 826.452,329.669 L 826.492,329.755 L 826.603,329.857 L 826.832,329.894 L 827.239,330.455 L 827.256,330.56 L 827.375,330.69 L 827.455,330.824 L 827.537,331.076 L 828.021,331.543 L 828.172,331.659 L 828.362,331.737 L 828.434,331.853 L 828.42,332.021 L 828.278,332.053 L 828.216,332.148 L 828.24,332.209 L 828.47,332.373 L 828.645,332.544 L 829.088,332.699 L 829.348,332.719 L 829.403,332.767 L 829.507,332.937 L 829.51,333.207 L 829.566,333.299 L 829.693,333.4 L 829.781,333.509 L 829.781,333.612 L 829.68,333.77 L 829.689,333.865 L 829.855,333.935 L 830.479,334.053 L 830.606,334.155 L 830.968,334.237 L 831.136,334.403 L 831.408,334.888 L 831.519,335.037 L 831.774,335.262 L 832.453,335.539 L 832.549,335.617 L 832.605,335.712 L 832.622,335.813 L 832.551,335.884 L 832.56,335.97 L 832.805,336.047 L 834.114,336.232 L 835.303,336.212 L 835.453,336.273 L 835.572,336.375 L 835.668,336.499 L 835.874,336.67 L 836.634,337.072 L 837.415,337.198 L 837.603,337.112 L 837.642,337.065 L 837.512,336.647 L 837.208,336.116 L 836.847,335.411 L 836.647,335.159 L 836.639,335.088 L 836.567,334.988 L 836.329,334.849 L 836.234,334.715 L 836.043,334.591 L 835.963,334.457 L 835.975,334.031 L 835.902,333.783 L 835.806,333.649 L 835.629,333.248 L 835.301,332.765 L 834.991,332.429 L 834.927,332.295 L 834.885,332.029 L 834.829,331.904 L 834.755,331.643 L 834.595,331.368 L 834.396,331.135 L 834.308,330.98 L 834.115,330.554 L 833.935,329.865 L 833.694,329.348 L 833.357,328.682 L 832.914,327.734 L 832.802,327.545 L 832.644,327.389 L 832.327,327.233 L 832.208,327.119 L 831.793,326.523 L 831.727,326.287 L 831.71,326.123 L 831.741,326.029 L 831.795,325.965 L 831.937,325.964 L 832.056,326.048 L 832.853,327.032 L 833.203,327.415 L 833.299,327.602 L 833.736,328.857 L 833.801,329.016 L 834.065,329.461 L 834.194,329.774 L 835.277,331.804 L 835.647,332.652 L 836.77,334.774 L 837.545,336.01 L 838.287,336.94 L 838.996,337.893 L 839.176,338.083 L 840.011,338.815 L 840.336,339.007 L 841.048,339.3 L 841.214,339.338 L 841.552,339.334 L 841.851,339.236 L 842.212,339.175 L 842.929,339.254 L 843.236,339.245 L 843.472,339.163 L 844.199,338.736 L 844.613,338.401 L 844.878,338.13 L 845.064,337.886 L 845.358,337.409 L 845.583,337.098 L 845.863,336.82 L 846.262,336.548 L 846.623,336.42 L 847.518,336.158 L 848.256,336.006 L 849.586,335.936 L 849.816,336.013 L 849.911,336.1 L 850.215,336.497 L 850.486,336.784 L 850.621,336.885 L 850.817,336.898 L 850.865,336.953 L 852.017,337.114 L 852.041,337.194 L 851.797,337.22 L 850.97,337.095 L 850.891,337.11 L 850.836,337.183 L 850.832,337.45 L 851.1,337.479 L 851.29,337.573 L 851.338,337.643 L 851.356,337.862 L 851.45,337.869 L 851.631,337.805 L 851.757,337.835 L 851.995,337.989 L 852.504,338.449 L 853.011,338.71 L 853.233,338.88 L 853.513,339.238 L 853.746,339.677 L 853.787,339.834 L 853.98,340.179 L 854.115,340.318 L 854.733,340.659 L 855.067,340.947 L 855.567,341.311 L 856.076,341.755 L 856.974,342.451 L 857.133,342.608 L 857.631,342.807 L 858.131,343.155 L 858.622,343.426 L 859.516,343.787 L 859.777,343.838 L 859.911,343.844 L 860.037,343.852 L 860.366,343.728 L 860.665,343.67 L 861.123,343.814 L 861.202,343.871 L 861.203,343.964 L 860.994,344.243 L 860.996,344.398 L 861.045,344.564 L 861.085,344.619 L 861.129,345.076 L 861.161,345.146 L 861.418,345.551 L 861.466,345.652 L 861.475,345.789 L 861.398,345.915 L 861.258,346.058 L 861.101,346.147 L 860.85,346.229 L 860.631,346.387 L 860.372,346.423 L 859.791,346.595 L 859.705,346.675 L 859.543,346.974 L 859.306,347.567 L 859.149,348.381 L 859.16,349.317 L 859.185,349.521 L 859.326,350.159 L 859.473,350.598 L 859.78,351.311 L 860.486,352.521 L 861.56,354.195 L 862.223,355.069 L 862.535,355.475 L 862.991,356.131 L 863.079,356.303 L 863.145,356.546 L 863.15,356.964 L 863.052,357.342 L 862.962,357.77 L 862.939,357.826 L 862.943,358.201 L 862.975,358.306 L 863.024,358.453 L 863.131,358.847 L 863.211,358.987 L 863.3,359.223 L 863.343,359.489 L 863.334,360.859 L 863.207,361.505 L 863.212,361.945 L 863.321,362.509 L 863.492,363.019 L 863.493,363.122 L 863.329,363.266 L 863.283,363.37 L 863.272,363.77 L 863.307,364.085 L 863.373,364.4 L 863.534,364.689 L 863.853,365.087 L 864.174,365.635 L 864.489,366.333 L 864.841,366.825 L 864.931,367.129 L 864.925,367.313 L 864.858,367.65 L 864.626,368.078 L 864.37,368.365 L 864.199,368.618 L 864.13,368.794 L 864.07,369.062 L 864.072,369.273 L 864.139,369.587 L 864.157,369.826 L 864.05,370.108 L 863.958,370.3 L 863.849,370.433 L 863.625,370.871 L 863.596,371.067 L 863.593,371.532 L 863.53,372.247 L 863.532,372.374 L 863.478,372.484 L 863.292,372.747 L 863.192,373.002 L 863.204,373.37 L 863.167,373.536 L 863.033,373.515 L 862.723,373.304 L 862.58,373.187 L 862.383,373.143 L 862.327,373.089 L 862.333,372.884 L 862.277,372.805 L 862.198,372.798 L 862.176,372.972 L 862.078,373.335 L 862.08,373.509 L 862.237,373.516 L 862.48,373.385 L 862.702,373.494 L 862.749,373.542 L 862.774,373.659 L 862.453,373.82 L 862.321,374.01 L 862.125,374.735 L 862.089,375.084 L 862.093,375.478 L 862.023,375.526 L 861.892,375.756 L 861.766,375.779 L 861.673,375.868 L 861.539,375.94 L 861.4,376.106 L 861.274,376.131 L 861.165,376.258 L 861.016,376.34 L 860.876,376.468 L 860.791,376.632 L 860.656,377.241 L 860.519,378.352 L 860.534,378.984 L 860.587,379.55 L 860.63,379.871 L 860.624,380.051 L 860.709,380.61 L 860.825,381.106 L 860.929,381.332 L 860.987,381.57 L 861.084,381.796 L 861.117,381.969 L 862.04,383.696 L 861.796,384.006 L 854.979,392.034 L 845.321,396.273 L 839.807,399.307 L 839.087,399.65 L 838.028,400.276 L 837.735,400.44 L 837.739,400.292 L 837.74,400.194 L 837.716,400.125 L 837.672,400.078 L 837.623,400.037 L 837.567,399.975 L 837.519,399.92 L 837.474,399.862 L 837.447,399.773 L 837.415,399.716 L 837.379,399.648 L 837.31,399.597 L 837.26,399.549 L 837.234,399.446 L 837.241,399.366 L 837.234,399.277 L 837.214,399.214 L 837.112,399.095 L 837.023,398.952 L 836.998,398.876 L 836.965,398.657 L 836.948,398.504 L 836.862,398.367 L 836.812,398.31 L 836.786,398.206 L 836.8,398.096 L 836.831,398.037 L 836.88,397.987 L 836.929,397.949 L 836.986,397.911 L 837.038,397.885 L 837.146,397.866 L 837.225,397.826 L 837.309,397.741 L 837.359,397.707 L 837.42,397.667 L 837.469,397.61 L 837.496,397.538 L 837.544,397.451 L 837.587,397.366 L 837.572,397.254 L 837.559,397.193 L 837.575,397.126 L 837.674,397.07 L 837.767,397.016 L 837.805,396.967 L 837.854,396.931 L 837.922,396.867 L 838.024,396.811 L 838.113,396.779 L 838.169,396.704 L 838.245,396.658 L 838.334,396.417 L 838.282,396.348 L 838.281,396.273 L 838.316,396.19 L 838.301,396.124 L 838.255,396.041 L 838.253,395.973 L 838.191,395.918 L 838.163,395.841 L 838.168,395.739 L 838.169,395.658 L 838.198,395.585 L 838.255,395.557 L 838.294,395.492 L 838.348,395.444 L 838.394,395.501 L 838.437,395.41 L 838.457,395.335 L 838.482,395.277 L 838.483,395.171 L 838.497,395.086 L 838.535,395.035 L 838.556,394.966 L 838.577,394.883 L 838.567,394.798 L 838.58,394.723 L 838.547,394.596 L 838.488,394.527 L 838.407,394.516 L 838.29,394.484 L 838.225,394.426 L 838.211,394.366 L 838.216,394.307 L 838.18,394.243 L 838.171,394.18 L 838.124,394.123 L 838.129,394.039 L 838.136,393.965 L 838.11,393.883 L 838.078,393.82 L 838.12,393.745 L 838.117,393.643 L 838.132,393.546 L 838.186,393.449 L 838.18,393.367 L 838.181,393.3 L 838.169,393.231 L 838.135,393.184 L 838.158,393.129 L 838.171,393.042 L 838.227,392.975 L 838.274,392.925 L 838.291,392.868 L 838.344,392.822 L 838.359,392.755 L 838.319,392.694 L 838.305,392.592 L 838.247,392.553 L 838.182,392.501 L 838.147,392.379 L 838.122,392.253 L 838.147,392.152 L 838.231,392.098 L 838.264,392.051 L 838.335,392.06 L 838.404,392.079 L 838.489,392.086 L 838.544,392.108 L 838.621,392.083 L 838.705,392.061 L 838.794,392.088 L 838.857,392.065 L 838.915,392.006 L 838.98,391.989 L 839.003,391.899 L 839.037,391.808 L 839.713,390.186 L 841.69,385.719 L 839.664,385.588 L 837.793,385.449 L 815.683,387.295 L 815.676,387.22 L 815.715,387.129 L 815.686,387.033 L 815.662,386.972 L 815.645,386.854 L 815.676,386.773 L 815.654,386.69 L 815.628,386.626 L 815.647,386.541 L 815.701,386.515 L 815.784,386.484 L 815.864,386.446 L 815.883,386.366 L 815.833,386.311 L 815.777,386.219 L 815.757,386.111 L 815.717,386.036 L 815.683,385.989 L 815.663,385.924 L 815.638,385.83 L 815.645,385.755 L 815.651,385.68 L 815.638,385.608 L 815.647,385.539 L 815.674,385.464 L 815.687,385.389 L 815.677,385.291 L 815.713,385.223 L 815.725,385.152 L 815.773,385.069 L 815.832,385.025 L 815.882,384.991 L 815.939,384.93 L 815.926,384.861 L 815.894,384.81 L 815.813,384.707 L 815.737,384.613 L 815.737,384.546 L 815.769,384.449 L 815.802,384.362 L 815.839,384.281 L 815.918,384.188 L 815.953,384.083 L 815.968,383.979 L 815.992,383.819 L 816.036,383.699 L 816.086,383.641 L 816.151,383.597 L 816.203,383.518 L 816.258,383.421 L 816.233,383.35 L 816.215,383.27 L 816.218,383.13 L 816.207,383.036 L 816.173,382.961 L 816.194,382.872 L 816.213,382.801 L 816.186,382.711 L 816.192,382.644 L 816.199,382.555 L 816.348,382.288 L 816.41,382.244 L 816.408,382.175 L 816.46,382.13 L 816.371,381.989 L 816.338,381.912 L 816.34,381.853 L 816.375,381.798 L 816.422,381.76 L 816.438,381.636 L 816.503,381.592 L 816.569,381.56 L 816.626,381.508 L 816.686,381.401 L 816.822,381.213 L 816.936,381.023 L 816.998,380.918 L 817.066,380.825 L 817.15,380.687 L 817.207,380.532 L 817.256,380.465 L 817.309,380.413 L 817.367,380.326 L 817.417,380.237 L 817.47,380.197 L 817.536,380.134 L 817.59,380.043 L 817.643,379.93 L 817.688,379.892 L 817.762,379.854 L 817.861,379.718 L 817.956,379.596 L 818.088,379.377 L 818.111,379.296 L 818.122,379.233 L 818.116,379.142 L 818.101,379.018 L 818.081,378.788 L 818.077,378.576 L 818.124,378.528 L 818.171,378.482 L 818.217,378.413 L 818.263,378.296 L 818.282,378.206 L 818.287,378.133 L 818.303,378.07 L 818.334,378.016 L 818.372,377.955 L 818.407,377.89 L 818.503,377.802 L 818.583,377.782 L 818.654,377.752 L 818.752,377.719 L 818.842,377.713 L 819.14,377.765 L 819.211,377.792 L 819.29,377.768 L 819.369,377.846 L 819.438,377.884 L 819.511,377.901 L 819.578,377.901 L 819.649,377.922 L 819.761,377.936 L 819.842,377.932 L 820.021,377.946 L 820.112,377.916 L 820.142,377.841 L 820.148,377.778 L 820.144,377.652 L 820.211,377.58 L 820.292,377.621 L 820.381,377.64 L 820.451,377.613 L 820.551,377.593 L 820.662,377.629 L 820.713,377.662 L 820.767,377.685 L 820.831,377.657 L 820.85,377.598 L 820.838,377.533 L 820.816,377.455 L 820.813,377.36 L 820.828,377.291 L 820.862,377.177 L 820.913,377.125 L 821.001,377.073 L 821.06,377.023 L 821.102,376.954 L 821.143,376.903 L 821.188,376.839 L 821.242,376.772 L 821.267,376.712 L 821.32,376.677 L 821.389,376.619 L 821.448,376.498 L 821.455,376.406 L 821.448,376.268 L 821.455,376.13 L 821.47,376.024 L 821.524,375.94 L 821.563,375.875 L 821.582,375.81 L 821.645,375.546 L 821.722,375.401 L 821.755,375.354 L 821.813,375.302 L 821.904,375.252 L 822.009,375.196 L 822.068,375.16 L 822.115,375.118 L 822.308,374.921 L 822.417,374.802 L 822.458,374.757 L 822.54,374.726 L 822.611,374.718 L 822.729,374.691 L 822.743,374.268 L 822.771,374.122 L 822.796,374.069 L 822.84,374.003 L 822.891,373.961 L 822.952,373.92 L 823.03,373.838 L 823.16,373.689 L 823.396,373.386 L 823.72,372.942 L 823.853,372.776 L 824.264,372.351 L 824.508,372.152 L 824.671,372.089 L 824.742,372.087 L 824.832,372.086 L 824.942,372.094 L 825.106,372.109 L 818.337,361.968 L 807.113,344.954 L 806.827,344.574 L 806.122,342.077 L 807.08,341.184 L 814.138,334.725 L 821.431,324.614"/></g></svg>