<svg xmlns="http://www.w3.org/2000/svg" role="img" viewBox="1901.04 631.35 59.93 51.24"><title>Provincetown</title><g id="g14955" fill="#fefee9" fill-opacity="1" fill-rule="evenodd" stroke="#000" stroke-linecap="square" stroke-linejoin="bevel" stroke-opacity="1" stroke-width=".098" transform="translate(-216.714 -21.7) scale(2.264)"><path id="path15795" d="M 959.302,290.713 L 961.33,294.694 L 961.147,295.188 L 961.124,295.295 L 961.124,295.942 L 960.895,295.864 L 960.31,295.745 L 960.05,295.718 L 959.066,295.735 L 958.571,295.836 L 958.078,296 L 955.937,296.546 L 955.396,296.711 L 953.606,297.613 L 953.185,297.889 L 952.486,298.496 L 951.758,299.289 L 951.534,299.581 L 951.52,299.662 L 951.687,299.825 L 951.556,299.993 L 951.47,300.008 L 951.342,299.916 L 951.184,299.864 L 951.075,299.976 L 950.914,300.223 L 950.784,300.5 L 950.623,300.746 L 950.147,301.573 L 950.125,301.676 L 949.646,302.81 L 949.632,302.919 L 949.541,303.157 L 949.173,303.785 L 949.12,303.951 L 949.078,304.29 L 949.111,304.361 L 949.286,304.501 L 949.304,304.609 L 949.244,304.841 L 949.183,304.92 L 949.088,304.944 L 948.842,304.769 L 948.692,304.745 L 948.588,304.661 L 948.28,304.587 L 948.202,304.66 L 948.448,304.734 L 948.575,304.866 L 948.632,304.951 L 948.707,305.194 L 948.707,305.256 L 948.765,305.397 L 948.836,305.414 L 948.901,305.545 L 948.973,305.615 L 949.068,306.173 L 949.126,306.339 L 949.159,306.447 L 949.415,307.246 L 949.59,307.873 L 949.68,308.069 L 949.971,308.569 L 951.031,309.388 L 951.719,309.024 L 951.82,308.927 L 951.81,308.81 L 951.434,308.964 L 951.213,308.951 L 951.189,308.859 L 951.259,308.811 L 951.721,308.676 L 952.012,308.649 L 952.265,308.7 L 952.666,308.676 L 952.846,308.597 L 953.017,308.474 L 953.12,308.489 L 953.223,308.542 L 953.193,308.614 L 953.06,308.687 L 952.805,308.967 L 952.727,309.056 L 952.511,309.351 L 952.521,309.453 L 952.639,309.449 L 952.997,309.2 L 953.222,309.001 L 953.261,308.929 L 953.32,308.666 L 953.316,308.446 L 953.582,308.324 L 953.747,308.282 L 953.897,308.29 L 954.033,308.45 L 954.042,308.515 L 953.237,309.432 L 953.246,309.503 L 953.332,309.463 L 953.666,309.19 L 954.077,308.759 L 954.153,308.592 L 954.37,308.353 L 954.603,308.161 L 954.634,308.104 L 954.555,308.066 L 954.454,308.171 L 954.204,308.315 L 954.11,308.308 L 953.973,308.129 L 953.031,308.349 L 952.75,308.488 L 952.53,308.538 L 952.451,308.49 L 952.458,308.422 L 952.81,308.281 L 953.445,308.114 L 953.672,307.992 L 953.93,307.895 L 954.335,307.619 L 954.917,307.059 L 955.172,306.708 L 955.485,306.091 L 955.586,305.97 L 955.677,305.797 L 955.856,305.621 L 955.91,305.532 L 956.003,305.443 L 956.137,305.457 L 956.146,305.544 L 956.009,305.846 L 955.924,305.957 L 955.795,306.258 L 955.773,306.392 L 955.908,306.429 L 955.903,306.612 L 955.65,307.103 L 955.466,307.422 L 954.599,308.403 L 954.531,308.563 L 954.206,308.954 L 953.887,309.217 L 953.795,309.378 L 953.5,309.601 L 952.929,309.894 L 952.467,310.081 L 951.551,310.402 L 951.379,310.5 L 951.049,310.538 L 950.592,310.521 L 950.205,310.464 L 949.715,310.307 L 949.334,310.148 L 948.689,309.661 L 948.17,309.18 L 947.764,308.91 L 947.564,308.739 L 947.299,308.43 L 945.739,306.848 L 945.067,306.111 L 944.76,305.633 L 944.402,304.874 L 944.376,304.741 L 944.204,304.272 L 944.194,304.17 L 944.064,303.894 L 943.958,303.646 L 943.916,303.511 L 943.729,303.144 L 943.504,302.834 L 943.186,302.115 L 942.92,301.685 L 942.575,301.289 L 941.74,300.247 L 941.491,299.944 L 940.835,299.284 L 940.524,299.014 L 940.046,298.659 L 939.108,297.625 L 939.211,297.622 L 939.354,297.724 L 939.385,297.661 L 939.049,297.326 L 939.016,297.24 L 939.03,297.144 L 939.124,297.135 L 939.299,297.235 L 939.467,297.398 L 939.652,297.647 L 939.74,297.7 L 939.913,297.698 L 940.387,297.259 L 940.548,297.028 L 940.554,296.901 L 940.453,296.95 L 940.22,297.199 L 940.149,297.192 L 940.069,297.113 L 939.972,296.912 L 939.963,296.847 L 940.357,296.361 L 940.436,296.358 L 940.468,296.413 L 940.664,296.38 L 940.736,296.449 L 941.011,296.422 L 940.788,296.261 L 940.63,296.216 L 940.495,296.099 L 940.328,295.999 L 940.193,295.968 L 940.16,295.883 L 938.471,295.067 L 938.098,294.916 L 938.004,294.947 L 937.943,295.076 L 937.602,295.427 L 937.516,295.445 L 937.428,295.358 L 937.403,295.287 L 937.454,295.059 L 937.445,294.932 L 937.412,294.877 L 937.41,294.744 L 937.472,294.634 L 937.445,294.445 L 937.434,294.263 L 937.543,294.145 L 937.692,294.119 L 937.744,293.943 L 937.999,293.616 L 937.974,293.54 L 937.88,293.57 L 937.354,294.138 L 937.292,294.242 L 937.204,294.623 L 937.135,294.749 L 937.139,295.047 L 937.235,295.125 L 937.252,295.211 L 937.168,295.347 L 937.256,295.487 L 937.268,295.707 L 937.208,295.954 L 937.228,296.189 L 937.395,296.326 L 937.391,296.565 L 937.503,296.658 L 937.669,296.725 L 937.695,296.873 L 937.767,296.945 L 938.005,297.028 L 938.108,297.121 L 938.109,297.183 L 938.007,297.168 L 937.666,297.057 L 937.23,296.849 L 936.969,296.767 L 936.639,296.805 L 936.472,296.713 L 936.32,296.55 L 936.047,296.192 L 935.989,296.002 L 935.982,295.608 L 936.239,294.85 L 936.385,294.641 L 936.666,293.991 L 936.775,293.857 L 936.851,293.69 L 937.143,293.26 L 937.808,292.453 L 938.073,292.237 L 938.751,291.771 L 939.014,291.484 L 939.725,291.14 L 940.381,290.746 L 940.974,290.437 L 941.561,290.2 L 942.518,289.908 L 943.568,289.632 L 944.007,289.461 L 944.99,289.352 L 945.264,289.285 L 945.759,289.23 L 946.767,289.206 L 947.317,289.141 L 948.191,289.137 L 948.647,289.058 L 949.466,289.047 L 949.961,289.007 L 950.269,289.011 L 950.679,289.104 L 953.488,289.425 L 954.98,289.654 L 955.873,289.882 L 957.76,290.168 L 958.242,290.319 L 958.789,290.548 L 959.302,290.713"/><path id="path15807" d="M 938.342,295.905 L 938.27,295.873 L 938.268,295.755 L 938.424,295.651 L 938.519,295.658 L 938.599,295.727 L 938.576,295.799 L 938.428,295.902 L 938.342,295.905"/><path id="path15809" d="M 939.045,297.593 L 938.743,297.441 L 938.51,297.147 L 937.978,296.855 L 937.89,296.783 L 937.881,296.681 L 937.967,296.657 L 938.603,297.042 L 938.699,297.119 L 939.045,297.593"/><path id="path15811" d="M 939.832,297.583 L 939.754,297.582 L 939.705,297.512 L 939.75,297.371 L 939.741,297.3 L 939.568,297.28 L 939.566,297.184 L 939.73,297.049 L 939.847,297.005 L 939.926,297.043 L 939.976,297.209 L 940.104,297.326 L 939.979,297.398 L 939.902,297.525 L 939.832,297.583"/></g></svg>