<svg xmlns="http://www.w3.org/2000/svg" role="img" viewBox="1402.58 539.58 51.60 57.85"><title>Randolph</title><g id="g14955" fill="#fefee9" fill-opacity="1" fill-rule="evenodd" stroke="#000" stroke-linecap="square" stroke-linejoin="bevel" stroke-opacity="1" stroke-width=".098" transform="translate(-216.714 -21.7) scale(2.264)"><path id="path15677" fill-rule="evenodd" d="M 729.54,248.523 L 730.113,252.615 L 734.623,253.632 L 737.339,255.298 L 737.275,255.407 L 737.237,255.507 L 737.197,255.659 L 737.202,255.76 L 737.238,255.838 L 737.284,255.916 L 737.328,255.996 L 737.374,256.043 L 737.375,256.114 L 737.374,256.217 L 737.394,256.297 L 737.409,256.368 L 737.427,256.444 L 737.455,256.503 L 737.496,256.591 L 737.451,256.694 L 737.327,256.817 L 737.284,256.877 L 737.251,256.975 L 737.076,257.101 L 737.037,257.16 L 737.032,257.267 L 737.084,257.538 L 737.093,257.63 L 737.056,257.717 L 737.043,257.804 L 737.115,257.87 L 737.161,257.952 L 737.167,258.015 L 737.195,258.084 L 737.212,258.152 L 737.185,258.214 L 737.102,258.344 L 737.061,258.417 L 737.014,258.471 L 736.974,258.515 L 736.935,258.598 L 736.938,258.673 L 736.946,258.751 L 736.929,258.832 L 736.863,258.886 L 736.82,258.963 L 736.823,259.024 L 736.865,259.275 L 736.856,259.348 L 736.844,259.417 L 736.83,259.494 L 736.781,259.557 L 736.732,259.631 L 736.66,259.706 L 736.667,259.791 L 736.713,259.832 L 736.782,259.851 L 736.9,259.875 L 736.936,259.934 L 736.917,260.034 L 736.867,260.098 L 736.808,260.12 L 736.719,260.134 L 736.647,260.18 L 736.622,260.236 L 736.613,260.326 L 736.608,260.415 L 736.636,260.519 L 736.649,260.58 L 736.643,260.643 L 736.666,260.743 L 736.678,260.815 L 736.679,260.878 L 736.668,260.959 L 736.675,261.042 L 736.674,261.138 L 736.663,261.247 L 736.65,261.325 L 736.615,261.452 L 735.192,265.827 L 735.077,266.159 L 735.032,266.378 L 734.644,267.903 L 733.3,272.941 L 731.986,272.354 L 729.067,268.443 L 727.764,266.7 L 725.184,263.172 L 715.776,250.639 L 716.352,250.352 L 716.431,250.361 L 716.529,250.347 L 716.633,250.344 L 716.715,250.38 L 716.768,250.411 L 716.845,250.432 L 716.911,250.392 L 717.013,250.309 L 717.077,250.249 L 717.152,250.24 L 717.237,250.228 L 717.357,250.221 L 717.423,250.204 L 717.476,250.162 L 717.584,250.098 L 717.7,250.093 L 717.802,250.079 L 717.912,250.058 L 718.002,250.045 L 718.17,250.051 L 718.341,250.038 L 718.465,250.029 L 718.636,250.019 L 718.862,250.009 L 719.023,250.008 L 719.186,250.026 L 719.342,250.038 L 719.458,250.031 L 719.538,250.02 L 719.579,249.979 L 719.612,249.927 L 719.656,249.824 L 719.683,249.761 L 719.747,249.668 L 719.774,249.614 L 719.779,249.542 L 719.857,249.425 L 719.913,249.351 L 719.98,249.315 L 720.037,249.358 L 720.114,249.359 L 720.178,249.331 L 720.224,249.374 L 720.282,249.434 L 720.329,249.471 L 720.398,249.508 L 720.495,249.515 L 720.599,249.508 L 720.813,249.457 L 720.87,249.425 L 720.97,249.332 L 721.088,249.249 L 721.159,249.221 L 721.231,249.206 L 721.308,249.206 L 721.367,249.189 L 721.457,249.163 L 721.556,249.152 L 721.636,249.161 L 721.727,249.178 L 721.798,249.201 L 721.883,249.243 L 721.954,249.251 L 722.021,249.234 L 722.086,249.216 L 722.143,249.192 L 722.245,249.171 L 722.302,249.198 L 722.371,249.221 L 722.449,249.248 L 722.516,249.283 L 722.56,249.345 L 722.588,249.406 L 722.667,249.482 L 722.787,249.44 L 722.864,249.415 L 722.89,249.492 L 722.932,249.556 L 723.009,249.589 L 723.072,249.588 L 723.179,249.623 L 723.27,249.687 L 723.348,249.678 L 723.416,249.709 L 723.494,249.706 L 723.586,249.613 L 723.603,249.557 L 723.654,249.502 L 723.702,249.462 L 723.808,249.412 L 723.875,249.413 L 723.96,249.395 L 724.05,249.366 L 724.11,249.332 L 724.263,249.26 L 724.326,249.259 L 724.401,249.239 L 724.475,249.205 L 724.595,249.172 L 724.738,249.133 L 724.936,249.082 L 725.115,249.037 L 725.299,248.984 L 725.499,248.888 L 725.681,248.829 L 725.84,248.786 L 725.915,248.754 L 726.04,248.711 L 726.144,248.704 L 726.257,248.697 L 726.339,248.641 L 726.399,248.574 L 726.498,248.486 L 726.555,248.456 L 726.659,248.453 L 726.715,248.472 L 726.78,248.491 L 726.837,248.503 L 726.9,248.494 L 727.059,248.477 L 727.157,248.488 L 727.238,248.52 L 727.313,248.561 L 727.375,248.61 L 727.464,248.727 L 727.54,248.765 L 727.613,248.775 L 727.736,248.773 L 727.874,248.768 L 727.994,248.753 L 728.139,248.742 L 728.265,248.76 L 728.409,248.747 L 728.513,248.76 L 728.578,248.773 L 728.674,248.764 L 728.766,248.72 L 728.821,248.682 L 728.885,248.652 L 728.956,248.647 L 729.019,248.638 L 729.119,248.614 L 729.219,248.581 L 729.28,248.577 L 729.358,248.55 L 729.456,248.512 L 729.54,248.523"/></g></svg>