<svg xmlns="http://www.w3.org/2000/svg" role="img" viewBox="1382.15 259.40 39.95 53.95"><title>Reading</title><g id="g14955" fill="#fefee9" fill-opacity="1" fill-rule="evenodd" stroke="#000" stroke-linecap="square" stroke-linejoin="bevel" stroke-opacity="1" stroke-width=".098" transform="translate(-216.714 -21.7) scale(2.264)"><path id="path15243" fill-rule="evenodd" d="M 723.363,128.299 L 722.34,136.855 L 720.848,138.769 L 720.26,138.818 L 716.862,143.603 L 716.849,143.668 L 716.817,143.782 L 716.665,144.072 L 716.745,144.126 L 716.844,144.197 L 716.955,144.284 L 717.053,144.366 L 717.151,144.461 L 717.217,144.535 L 717.283,144.625 L 717.345,144.722 L 717.029,145.218 L 716.156,145.356 L 715.902,146.816 L 711.035,147.493 L 710.515,146.152 L 710.346,146.186 L 709.91,145.028 L 710.039,144.961 L 709.908,144.605 L 709.829,144.401 L 707,137.317 L 708.068,136.676 L 706.728,129.666 L 706.832,129.679 L 706.956,129.661 L 706.974,129.601 L 706.956,129.529 L 707.022,129.501 L 707.101,129.508 L 707.193,129.493 L 707.185,129.434 L 707.246,129.418 L 707.301,129.465 L 707.374,129.52 L 707.473,129.49 L 707.563,129.448 L 707.738,129.395 L 707.767,129.331 L 707.794,129.276 L 707.863,129.28 L 707.91,129.361 L 707.987,129.435 L 708.06,129.421 L 708.082,129.366 L 708.089,129.299 L 708.103,129.224 L 708.122,129.153 L 708.177,129.08 L 708.258,129.088 L 708.303,129.143 L 708.352,129.194 L 708.411,129.19 L 708.447,129.135 L 708.43,129.054 L 708.407,129.001 L 708.444,128.954 L 708.473,128.888 L 708.505,128.82 L 708.567,128.829 L 708.66,128.868 L 708.764,128.901 L 708.821,128.892 L 708.884,128.882 L 708.949,128.911 L 709.01,128.962 L 709.087,129.013 L 709.144,128.999 L 709.132,128.926 L 709.11,128.851 L 709.12,128.765 L 709.141,128.686 L 709.202,128.607 L 709.274,128.522 L 709.296,128.443 L 709.321,128.349 L 709.378,128.305 L 709.448,128.26 L 709.405,128.205 L 709.334,128.191 L 709.277,128.148 L 709.32,128.097 L 709.367,128.034 L 709.434,128.083 L 709.495,128.075 L 709.55,128.031 L 709.617,128.041 L 709.674,128.017 L 709.797,128.04 L 709.807,127.939 L 709.818,127.842 L 709.864,127.773 L 709.893,127.686 L 709.878,127.611 L 709.94,127.551 L 710.021,127.564 L 710.082,127.551 L 710.083,127.482 L 710.155,127.46 L 710.241,127.399 L 710.301,127.314 L 710.319,127.258 L 710.396,127.218 L 710.436,127.154 L 710.454,127.059 L 710.487,127.005 L 710.537,126.965 L 710.588,126.931 L 710.67,126.871 L 710.702,126.805 L 710.761,126.804 L 710.819,126.829 L 710.9,126.875 L 710.972,126.86 L 711.011,126.915 L 711.071,126.914 L 711.112,126.862 L 711.174,126.792 L 711.226,126.74 L 711.263,126.678 L 711.262,126.613 L 711.239,126.559 L 711.275,126.475 L 711.344,126.48 L 711.439,126.53 L 711.504,126.501 L 711.555,126.465 L 711.641,126.454 L 711.698,126.441 L 711.736,126.389 L 711.759,126.326 L 711.833,126.311 L 711.91,126.329 L 711.967,126.34 L 712.124,126.435 L 712.115,126.494 L 712.116,126.569 L 712.181,126.585 L 712.256,126.582 L 712.36,126.591 L 712.367,126.504 L 712.439,126.477 L 712.507,126.517 L 712.509,126.586 L 712.571,126.615 L 712.651,126.612 L 712.714,126.623 L 712.779,126.626 L 712.818,126.562 L 712.896,126.545 L 712.974,126.597 L 713.058,126.576 L 713.124,126.553 L 713.216,126.523 L 713.337,126.464 L 713.4,126.421 L 713.446,126.381 L 713.487,126.334 L 713.602,126.099 L 713.674,126.02 L 713.757,125.971 L 713.788,125.904 L 713.793,125.843 L 713.787,125.721 L 713.804,125.612 L 713.828,125.539 L 713.863,125.483 L 713.904,125.434 L 713.958,125.403 L 714.103,125.34 L 714.094,125.271 L 714.161,125.249 L 714.255,125.238 L 714.315,125.183 L 714.39,125.163 L 714.47,125.14 L 714.455,125.073 L 714.488,125.024 L 714.576,125.001 L 714.643,124.96 L 714.707,124.901 L 714.732,124.847 L 714.78,124.815 L 714.766,124.744 L 714.808,124.696 L 714.881,124.693 L 714.973,124.684 L 715.009,125.006 L 715.081,125.21 L 717.838,127.182 L 718.551,127.501 L 723.363,128.299"/></g></svg>