<svg xmlns="http://www.w3.org/2000/svg" role="img" viewBox="1442.36 350.04 43.73 49.79"><title>Revere</title><g id="g14955" fill="#fefee9" fill-opacity="1" fill-rule="evenodd" stroke="#000" stroke-linecap="square" stroke-linejoin="bevel" stroke-opacity="1" stroke-width=".098" transform="translate(-216.714 -21.7) scale(2.264)"><path id="path15371" fill-rule="evenodd" d="M 740.485,171.429 L 740.47,171.531 L 740.554,171.544 L 740.655,171.558 L 740.879,171.573 L 740.938,171.535 L 740.996,171.51 L 741.115,171.45 L 741.192,171.309 L 741.241,171.22 L 741.314,171.227 L 741.453,171.242 L 741.391,171.433 L 741.415,171.627 L 741.495,171.873 L 741.519,171.934 L 741.599,172.044 L 741.828,172.115 L 741.915,172.149 L 741.945,172.266 L 742.011,172.296 L 742.191,172.296 L 742.659,171.933 L 742.893,171.918 L 742.983,172.047 L 743.001,172.548 L 742.965,172.683 L 742.746,172.899 L 742.731,172.959 L 742.761,173.016 L 742.851,173.034 L 743.088,172.872 L 743.256,172.839 L 743.598,172.965 L 743.703,173.028 L 743.76,173.22 L 743.748,173.292 L 743.691,173.37 L 743.538,173.445 L 743.22,173.478 L 743.16,173.556 L 743.61,173.556 L 743.826,173.427 L 743.856,173.346 L 743.856,173.094 L 743.817,172.983 L 743.652,172.824 L 743.232,172.632 L 743.172,172.578 L 743.184,172.026 L 743.067,171.858 L 742.896,171.753 L 742.779,171.747 L 742.56,171.813 L 742.383,171.909 L 742.278,172.023 L 742.155,172.116 L 741.984,172.134 L 741.927,172.017 L 741.834,171.9 L 741.755,171.856 L 741.692,171.712 L 741.651,171.524 L 741.65,171.32 L 741.705,171.21 L 741.825,171.183 L 741.96,171.238 L 742.354,171.316 L 742.41,171.355 L 742.559,171.323 L 742.841,171.162 L 743.155,170.917 L 743.249,170.806 L 743.319,170.726 L 743.483,170.56 L 743.545,170.425 L 743.717,170.219 L 743.905,170.077 L 744.11,170.052 L 744.292,170.13 L 744.442,170.293 L 744.483,170.481 L 744.586,170.624 L 744.587,170.742 L 744.369,171.105 L 744.496,171.269 L 744.512,171.333 L 744.583,171.418 L 744.646,171.379 L 744.574,171.238 L 744.597,171.073 L 744.699,171.049 L 745.182,171.484 L 745.309,171.57 L 745.497,171.382 L 745.543,171.253 L 745.283,171.208 L 745.156,171.14 L 744.95,170.824 L 745.067,170.808 L 745.281,170.886 L 745.621,171.127 L 745.684,171.066 L 745.778,171.057 L 745.818,171.127 L 745.616,171.499 L 745.592,171.593 L 746.104,171.621 L 746.113,171.698 L 746.066,171.746 L 745.893,171.773 L 745.421,171.846 L 745.453,171.901 L 745.532,171.948 L 745.634,171.954 L 745.933,171.88 L 745.981,171.96 L 745.989,172.046 L 746.045,172.079 L 746.155,172.029 L 746.178,171.966 L 746.177,171.824 L 746.302,171.73 L 746.49,171.603 L 746.764,171.279 L 747.054,171.072 L 747.491,170.597 L 747.835,170.168 L 747.912,169.955 L 748.053,169.725 L 748.521,169.109 L 748.591,168.943 L 748.817,168.62 L 748.863,168.374 L 748.995,168.128 L 749.073,167.97 L 749.047,167.695 L 749.046,167.571 L 749.155,167.342 L 749.281,167.325 L 749.407,167.26 L 749.517,167.337 L 749.635,167.337 L 749.729,167.25 L 749.847,167.209 L 750.194,167.28 L 750.313,167.379 L 750.589,167.448 L 751.463,167.46 L 751.558,167.491 L 751.629,167.52 L 751.669,167.593 L 751.67,167.733 L 751.615,167.867 L 751.444,168.09 L 751.342,168.176 L 750.683,168.63 L 749.845,169.287 L 749.556,169.581 L 749.391,169.685 L 749.14,169.9 L 748.945,170.12 L 748.514,170.424 L 747.348,171.566 L 746.717,172.601 L 746.663,172.65 L 746.413,173.06 L 745.907,173.962 L 745.821,174.079 L 745.362,174.868 L 744.989,175.626 L 744.826,176.022 L 744.641,176.613 L 744.194,178.05 L 744.133,178.294 L 744.053,179.35 L 744.04,179.735 L 744.121,180.089 L 744.217,180.325 L 744.306,180.655 L 744.41,180.915 L 744.655,181.088 L 744.734,181.095 L 744.867,181.013 L 744.962,180.998 L 745.624,181.087 L 745.718,181.041 L 745.813,181.072 L 745.852,181.133 L 745.823,181.534 L 745.903,182.794 L 745.927,182.929 L 746.253,183.326 L 746.413,183.696 L 746.445,183.829 L 746.446,183.947 L 746.535,184.285 L 746.63,184.45 L 746.639,184.536 L 746.678,184.585 L 746.747,184.706 L 746.613,184.844 L 746.566,184.885 L 746.52,184.934 L 746.441,184.977 L 746.364,184.997 L 746.299,185.002 L 746.195,184.978 L 746.13,185.065 L 746.135,185.162 L 746.142,185.276 L 746.134,185.337 L 746.096,185.404 L 745.909,185.553 L 745.74,185.567 L 745.575,185.687 L 745.473,185.727 L 745.378,185.687 L 745.292,185.633 L 745.228,185.555 L 745.195,185.397 L 745.24,184.996 L 745.244,184.475 L 745.165,184.35 L 744.62,184.062 L 744.485,184.017 L 744.131,184.064 L 743.746,184.178 L 743.392,184.142 L 743.234,184.167 L 743.155,184.157 L 743.065,184.099 L 742.987,184.038 L 742.929,183.951 L 742.902,183.833 L 742.665,183.134 L 742.36,182.987 L 742.197,182.923 L 742.079,182.908 L 741.983,182.908 L 741.894,182.921 L 741.406,182.993 L 740.396,183.912 L 740.342,183.955 L 740.275,183.98 L 739.486,183.537 L 739.243,183.441 L 738.74,183.347 L 739.844,181.463 L 739.835,181.367 L 739.788,181.303 L 739.662,181.273 L 739.488,181.157 L 739.37,181.142 L 739.157,181.188 L 739.008,181.159 L 738.999,181.032 L 738.857,181.002 L 738.707,180.901 L 738.384,180.839 L 738.305,180.844 L 738.222,180.849 L 738.159,180.844 L 738.079,180.904 L 738.001,180.96 L 737.879,180.99 L 737.734,181.015 L 737.614,181.024 L 737.529,181.025 L 737.445,181.018 L 737.325,181.002 L 737.232,180.971 L 737.186,180.915 L 737.16,180.834 L 737.127,180.771 L 737.05,180.707 L 736.957,180.663 L 736.857,180.642 L 736.749,180.629 L 736.412,180.668 L 736.351,180.626 L 736.323,180.569 L 736.312,180.482 L 736.378,180.358 L 736.437,180.312 L 736.497,180.246 L 736.539,180.159 L 736.433,180.133 L 736.35,180.153 L 736.266,180.205 L 736.192,180.249 L 736.115,180.252 L 736.085,180.181 L 736.067,180.115 L 736.009,180.043 L 735.956,180.082 L 735.959,180.159 L 735.904,180.191 L 735.858,180.136 L 735.785,180.039 L 735.714,180.018 L 735.661,180.042 L 735.275,179.776 L 735.193,179.722 L 735.056,179.725 L 734.926,179.72 L 734.835,179.705 L 734.784,179.663 L 734.765,179.568 L 734.781,179.448 L 734.802,179.377 L 734.817,179.287 L 734.807,179.222 L 734.778,179.149 L 734.32,178.335 L 733.273,177.064 L 733.397,176.508 L 734.565,173.549 L 735.981,169.95 L 736.49,168.741 L 735.043,166.529 L 736.892,164.658 L 738.659,167.347 L 739.269,167.748 L 739.087,167.874 L 738.972,167.948 L 738.883,168.023 L 738.816,168.065 L 738.722,168.11 L 738.634,168.181 L 738.554,168.237 L 738.602,168.329 L 738.662,168.397 L 738.721,168.428 L 738.828,168.461 L 738.889,168.488 L 738.957,168.552 L 739.06,168.699 L 739.022,168.752 L 738.983,168.815 L 738.988,168.917 L 738.967,168.973 L 738.948,169.065 L 738.897,169.119 L 738.884,169.178 L 738.82,169.226 L 738.785,169.293 L 738.796,169.37 L 738.815,169.482 L 738.957,169.733 L 738.977,169.833 L 739.006,169.947 L 739.044,170.001 L 739.117,170.067 L 739.165,170.132 L 739.18,170.191 L 739.187,170.317 L 739.198,170.478 L 739.273,170.522 L 739.318,170.465 L 739.341,170.41 L 739.348,170.35 L 739.339,170.221 L 739.342,170.105 L 739.377,170.039 L 739.435,169.995 L 739.5,169.987 L 739.566,170.035 L 739.631,170.098 L 739.756,170.185 L 739.853,170.225 L 739.967,170.256 L 740.011,170.297 L 740.072,170.379 L 740.126,170.449 L 740.193,170.49 L 740.261,170.513 L 740.335,170.524 L 740.428,170.527 L 740.544,170.544 L 740.659,170.572 L 740.739,170.61 L 740.846,170.692 L 740.9,170.756 L 740.966,170.86 L 740.995,170.931 L 740.985,170.996 L 740.937,171.047 L 740.782,171.092 L 740.632,171.107 L 740.468,171.168 L 740.388,171.25 L 740.389,171.328 L 740.423,171.412 L 740.485,171.429"/></g></svg>