<svg xmlns="http://www.w3.org/2000/svg" role="img" viewBox="1508.99 847.75 91.26 88.89"><title>Rochester</title><g id="g14955" fill="#fefee9" fill-opacity="1" fill-rule="evenodd" stroke="#000" stroke-linecap="square" stroke-linejoin="bevel" stroke-opacity="1" stroke-width=".098" transform="translate(-216.714 -21.7) scale(2.264)"><path id="path15921" fill-rule="evenodd" d="M 801.762,384.879 L 801.748,385.085 L 801.751,385.925 L 801.745,386.226 L 801.702,386.372 L 801.621,386.617 L 801.562,386.838 L 801.517,387.11 L 801.463,387.349 L 801.34,387.53 L 801.143,387.785 L 800.758,388.483 L 800.632,388.721 L 800.296,389.049 L 800.242,389.508 L 800.28,389.777 L 800.259,389.872 L 800.195,390.004 L 800.12,390.413 L 800.098,390.807 L 800.157,391.463 L 800.166,391.661 L 800.217,391.78 L 800.308,391.93 L 800.351,392.038 L 800.434,392.243 L 800.486,392.526 L 800.536,392.848 L 800.463,392.853 L 800.598,394.792 L 800.646,395.124 L 800.709,395.402 L 800.782,395.769 L 800.854,395.976 L 800.866,396.32 L 800.855,396.484 L 800.87,397.095 L 800.886,397.392 L 800.982,397.735 L 801.062,397.974 L 801.168,398.244 L 801.176,398.326 L 801.167,398.401 L 800.99,398.947 L 800.777,399.56 L 800.654,399.898 L 800.588,400.064 L 800.436,400.346 L 800.33,400.564 L 800.213,400.815 L 800.046,401.296 L 799.718,400.813 L 798.055,402.886 L 797.859,405.181 L 797.858,405.341 L 798.282,406.152 L 796.391,407.596 L 796.31,410.52 L 796.786,411.217 L 796.779,411.289 L 796.756,411.36 L 796.714,411.418 L 796.582,411.562 L 796.462,411.673 L 796.393,411.722 L 796.345,411.779 L 796.313,411.858 L 796.284,411.918 L 796.226,411.962 L 796.246,412.036 L 796.267,412.095 L 796.214,412.133 L 796.172,412.219 L 796.169,412.285 L 796.123,412.367 L 796.067,412.442 L 796.019,412.532 L 795.971,412.601 L 795.91,412.633 L 795.828,412.662 L 795.754,412.686 L 795.648,412.716 L 794.984,418.98 L 783.609,420.685 L 783.533,420.747 L 783.508,420.808 L 783.487,420.871 L 783.459,420.972 L 783.448,421.029 L 783.475,421.143 L 783.501,421.208 L 783.548,421.299 L 783.6,421.375 L 783.615,421.484 L 783.624,421.588 L 783.626,421.686 L 783.613,421.769 L 783.618,421.843 L 783.634,421.908 L 777.977,422.494 L 775.48,413.424 L 773.286,405.376 L 772.322,401.896 L 767.67,402.72 L 766.911,400.813 L 763.104,391.254 L 769.659,390.176 L 775.304,389.248 L 801.762,384.879"/></g></svg>