<svg xmlns="http://www.w3.org/2000/svg" role="img" viewBox="1508.06 8.94 61.75 58.38"><title>Salisbury</title><g id="g14955" fill="#fefee9" fill-opacity="1" fill-rule="evenodd" stroke="#000" stroke-linecap="square" stroke-linejoin="bevel" stroke-opacity="1" stroke-width=".098" transform="translate(-216.714 -21.7) scale(2.264)"><path id="path14957" fill-rule="evenodd" d="M 787.417,19.0314 L 787.399,19.1468 L 787.424,22.2788 L 787.384,24.0668 L 787.348,24.5178 L 787.416,26.1225 L 787.874,31.1278 L 787.974,31.7887 L 787.992,32.1044 L 788.355,35.1491 L 788.48,35.927 L 788.552,36.1637 L 788.522,36.2979 L 788.388,36.2896 L 788.293,36.2365 L 787.962,36.1596 L 787.677,36.0378 L 786.984,35.956 L 786.692,35.974 L 786.465,36.0924 L 786.238,36.3163 L 786.121,36.357 L 785.931,36.2789 L 785.844,36.2008 L 785.733,36.1948 L 785.568,36.2183 L 785.357,36.3486 L 785.091,36.6016 L 784.832,36.7209 L 784.76,36.4935 L 784.68,36.3998 L 784.687,36.2723 L 784.741,36.1776 L 784.724,35.9673 L 784.786,35.9033 L 785.03,35.8528 L 785.085,35.8046 L 785.25,35.7656 L 785.43,35.7168 L 785.485,35.5973 L 785.649,35.4714 L 785.609,35.392 L 785.451,35.347 L 785.254,35.3405 L 785.261,35.244 L 785.324,35.1741 L 785.433,35.0869 L 785.393,34.9455 L 785.399,34.7313 L 785.216,34.4979 L 785.168,34.3784 L 785.094,34.0487 L 785.1,33.8436 L 785.178,33.7173 L 785.413,33.6205 L 785.594,33.6119 L 785.91,33.7266 L 786.123,33.6799 L 786.281,33.7248 L 786.43,33.708 L 786.539,33.621 L 786.531,33.5407 L 786.483,33.48 L 786.365,33.4182 L 786.183,33.3865 L 785.883,33.2776 L 785.631,33.2666 L 785.315,33.1891 L 784.884,33.3663 L 784.822,33.5387 L 784.72,33.6191 L 784.738,33.7677 L 784.826,34.0131 L 784.827,34.1775 L 784.893,34.4454 L 784.902,34.6747 L 784.817,34.8634 L 784.692,34.9509 L 784.638,35.0548 L 784.616,35.2663 L 784.561,35.3455 L 784.357,35.4013 L 784.342,35.5442 L 784.242,35.749 L 784.18,35.9616 L 784.094,36.0573 L 784.032,36.0902 L 783.851,36.1298 L 783.685,36.0385 L 782.637,36.0076 L 782.141,35.9479 L 781.85,35.9814 L 781.199,36.3173 L 780.633,36.5108 L 780.17,36.6115 L 779.784,36.6229 L 779.399,36.7273 L 779.124,36.8627 L 778.944,37.0138 L 778.882,37.0312 L 778.31,37.3895 L 777.972,37.5484 L 776.872,37.8509 L 776.7,37.9396 L 776.606,38.0326 L 776.56,38.2137 L 776.404,38.3673 L 776.043,38.4959 L 775.682,38.702 L 775.502,38.7353 L 775.447,38.7681 L 775.068,38.7235 L 774.761,38.624 L 773.536,38.1146 L 773.393,37.9668 L 773.345,37.8256 L 773.335,37.6272 L 773.382,37.5327 L 773.372,37.35 L 773.301,37.3057 L 773.135,37.2578 L 773.024,37.0876 L 773.013,36.8025 L 772.934,36.7335 L 772.713,36.6965 L 772.73,38.0752 L 771.747,36.6694 L 771.397,36.1943 L 771.324,36.0914 L 771.212,36.0011 L 771.025,35.8553 L 770.796,35.7242 L 770.486,35.5828 L 770.121,35.4267 L 769.743,35.2926 L 769.453,35.1588 L 769.266,35.0503 L 769.137,34.98 L 768.991,34.8669 L 768.827,34.7245 L 768.716,34.6046 L 768.589,34.4597 L 768.46,34.2792 L 768.358,34.114 L 768.266,33.9524 L 768.15,33.7324 L 768.05,33.5672 L 767.836,33.2999 L 767.582,33.0649 L 767.143,32.7686 L 766.746,32.5877 L 766.545,32.5464 L 766.207,32.4589 L 765.863,32.4085 L 765.497,32.3688 L 765.142,32.3415 L 766.225,27.686 L 763.51,18.1644 L 762.414,14.1653 L 765.176,14.119 L 769.748,15.4461 L 772.575,17.6474 L 773.189,18.0995 L 779.392,22.9463 L 782.167,21.5949 L 783.951,20.1854 L 786.322,19.1133 L 787.147,19.048 L 787.417,19.0314"/></g></svg>