<svg xmlns="http://www.w3.org/2000/svg" role="img" viewBox="252.67 186.04 88.04 88.79"><title>Savoy</title><g id="g14955" fill="#fefee9" fill-opacity="1" fill-rule="evenodd" stroke="#000" stroke-linecap="square" stroke-linejoin="bevel" stroke-opacity="1" stroke-width=".098" transform="translate(-216.714 -21.7) scale(2.264)"><path id="path15123" fill-rule="evenodd" d="M 245.397,96.0309 L 245.41,96.157 L 244.428,100.389 L 244.149,101.596 L 238.714,125.274 L 237.696,130.189 L 232.49,128.958 L 210.711,123.598 L 208.155,122.952 L 212.067,118.76 L 211.239,111.439 L 215.506,111.756 L 216.25,101.1 L 216.838,92.6056 L 230.01,93.7338 L 230.064,93.8038 L 230.05,93.8863 L 230.027,93.9626 L 230.016,94.0548 L 230.03,94.1297 L 230.044,94.1871 L 230.082,94.2588 L 230.142,94.301 L 230.229,94.3105 L 230.305,94.3101 L 230.37,94.3093 L 230.457,94.3128 L 230.543,94.3322 L 230.623,94.3788 L 230.678,94.435 L 230.725,94.4811 L 230.772,94.5805 L 230.786,94.6415 L 230.79,94.7478 L 230.765,94.8338 L 230.728,94.9119 L 230.672,94.9679 L 230.604,95.0118 L 230.562,95.0525 L 230.533,95.1325 L 230.547,95.1939 L 230.589,95.2615 L 230.627,95.3349 L 230.661,95.4083 L 230.673,95.4932 L 230.667,95.5815 L 230.666,95.6623 L 230.687,95.7552 L 230.731,95.8426 L 230.792,95.9084 L 230.888,95.94 L 230.947,95.9449 L 231.006,95.9499 L 231.077,95.9551 L 231.178,95.9729 L 231.272,96.0119 L 231.363,96.0744 L 231.423,96.1151 L 231.477,96.1593 L 231.555,96.2257 L 231.632,96.292 L 231.713,96.3526 L 231.787,96.415 L 231.86,96.4734 L 231.926,96.5494 L 231.997,96.6077 L 232.079,96.6743 L 232.129,96.7067 L 232.217,96.7535 L 232.297,96.7865 L 232.394,96.8157 L 232.484,96.8293 L 232.563,96.8405 L 232.647,96.856 L 232.707,96.8866 L 232.766,96.9132 L 232.812,96.9573 L 232.856,97.029 L 232.872,97.0883 L 232.886,97.1909 L 232.883,97.2537 L 232.839,97.3612 L 232.792,97.4685 L 232.748,97.6074 L 232.725,97.6835 L 232.713,97.766 L 232.712,97.8328 L 232.73,97.9039 L 232.786,97.97 L 232.832,98.0122 L 232.914,98.053 L 233.026,98.0513 L 233.136,98.073 L 233.198,98.0972 L 233.252,98.1307 L 233.303,98.1764 L 233.364,98.2547 L 233.43,98.3455 L 233.494,98.4302 L 233.572,98.5129 L 233.655,98.5704 L 233.717,98.6006 L 233.818,98.6188 L 233.897,98.6307 L 233.963,98.6401 L 234.048,98.6442 L 234.146,98.6465 L 234.238,98.643 L 234.315,98.6293 L 234.389,98.6053 L 234.449,98.5714 L 234.51,98.5493 L 234.581,98.5334 L 234.669,98.5119 L 234.761,98.4906 L 234.85,98.477 L 234.913,98.4668 L 235.061,98.449 L 235.152,98.4432 L 235.213,98.429 L 235.301,98.4017 L 235.358,98.3775 L 235.416,98.3533 L 235.498,98.3023 L 235.715,98.1857 L 235.83,98.1669 L 235.908,98.1747 L 235.981,98.1824 L 236.067,98.1884 L 236.145,98.2121 L 236.279,98.2192 L 236.308,98.165 L 236.304,98.0941 L 236.282,98.0284 L 236.25,97.9452 L 236.214,97.8971 L 236.171,97.8311 L 236.126,97.7553 L 236.1,97.678 L 236.12,97.6097 L 236.166,97.5518 L 236.211,97.5076 L 236.275,97.4718 L 236.326,97.4454 L 236.394,97.4078 L 236.471,97.3449 L 236.511,97.2947 L 236.544,97.2444 L 236.567,97.188 L 236.598,97.1278 L 236.625,97.0695 L 236.652,97.009 L 236.703,96.9455 L 236.763,96.9116 L 236.829,96.8934 L 236.913,96.9013 L 237.001,96.9251 L 237.077,96.9467 L 237.161,96.9666 L 237.229,96.9879 L 237.301,97.0075 L 237.376,97.0269 L 237.452,97.0503 L 237.52,97.0797 L 237.576,97.1144 L 237.628,97.1452 L 237.691,97.2039 L 237.748,97.2858 L 237.802,97.3402 L 237.865,97.4224 L 237.929,97.5086 L 238.024,97.6329 L 238.219,97.913 L 238.4,98.1497 L 238.517,98.2744 L 238.631,98.4228 L 238.708,98.5309 L 238.821,98.6457 L 238.88,98.7476 L 238.996,98.898 L 239.135,99.051 L 239.229,99.0632 L 239.295,99.0351 L 239.349,98.9872 L 239.38,98.933 L 239.403,98.8786 L 239.412,98.7724 L 239.418,98.6959 L 239.418,98.6214 L 239.428,98.5447 L 239.439,98.4821 L 239.451,98.4234 L 239.493,98.3202 L 239.541,98.2644 L 239.597,98.2206 L 239.681,98.1832 L 239.752,98.1869 L 239.824,98.1985 L 239.908,98.2262 L 239.968,98.2709 L 240.025,98.3196 L 240.072,98.36 L 240.123,98.4184 L 240.163,98.4763 L 240.246,98.6004 L 240.4,98.8127 L 240.438,98.8608 L 240.496,98.8995 L 240.57,98.9388 L 240.644,98.9504 L 240.723,98.9464 L 240.788,98.9402 L 240.853,98.928 L 240.928,98.9121 L 241.017,98.8927 L 241.085,98.8571 L 241.161,98.8156 L 241.231,98.7564 L 241.281,98.7124 L 241.322,98.6545 L 241.35,98.5665 L 241.376,98.4631 L 241.393,98.3651 L 241.399,98.2768 L 241.405,98.1863 L 241.393,98.1191 L 241.371,98.0596 L 241.334,97.9918 L 241.284,97.9179 L 241.265,97.8545 L 241.248,97.7989 L 241.24,97.7398 L 241.246,97.6651 L 241.254,97.5926 L 241.27,97.5024 L 241.293,97.4441 L 241.317,97.3679 L 241.354,97.2783 L 241.399,97.2167 L 241.46,97.1355 L 241.521,97.0681 L 241.582,97.0048 L 241.628,96.9685 L 241.69,96.913 L 241.763,96.844 L 241.826,96.7708 L 241.86,96.7204 L 241.897,96.6664 L 241.938,96.6005 L 241.973,96.5383 L 241.996,96.4839 L 242.033,96.3824 L 242.052,96.3259 L 242.107,96.2486 L 242.168,96.1715 L 242.203,96.1211 L 242.23,96.0648 L 242.264,96.0105 L 242.305,95.9565 L 242.364,95.9028 L 242.425,95.8689 L 242.509,95.8356 L 242.574,95.8352 L 242.635,95.8426 L 242.718,95.8802 L 242.78,95.9092 L 242.848,95.9365 L 242.94,95.9722 L 243.024,95.9958 L 243.089,95.9956 L 243.176,95.9819 L 243.276,95.9667 L 243.397,95.952 L 243.485,95.9462 L 243.566,95.9365 L 243.632,95.9518 L 243.716,95.9735 L 243.801,95.9757 L 243.862,95.9673 L 243.962,95.966 L 244.057,95.9642 L 244.14,95.9565 L 244.232,95.9569 L 244.334,95.9652 L 244.415,95.9633 L 244.495,95.9654 L 244.59,95.9675 L 244.676,95.9795 L 244.766,95.9995 L 244.83,96.0206 L 244.884,96.0496 L 244.968,96.0832 L 245.072,96.1052 L 245.138,96.1128 L 245.233,96.1114 L 245.33,96.0822 L 245.397,96.0309"/></g></svg>