<svg xmlns="http://www.w3.org/2000/svg" role="img" viewBox="1555.42 500.80 75.16 75.66"><title>Scituate</title><g id="g14955" fill="#fefee9" fill-opacity="1" fill-rule="evenodd" stroke="#000" stroke-linecap="square" stroke-linejoin="bevel" stroke-opacity="1" stroke-width=".098" transform="translate(-216.714 -21.7) scale(2.264)"><path id="path15617" d="M 797.822,237.767 L 797.709,237.63 L 797.641,237.546 L 797.571,237.484 L 797.534,237.432 L 797.476,237.353 L 797.475,237.17 L 797.635,236.514 L 797.704,236.357 L 797.657,236.312 L 797.594,236.304 L 797.53,236.201 L 797.113,236.26 L 797.042,236.299 L 797.004,236.362 L 796.792,236.468 L 796.454,236.589 L 796.257,236.583 L 796.272,236.495 L 796.452,236.313 L 796.601,236.241 L 796.812,236.051 L 796.992,235.938 L 797.102,235.826 L 797.605,235.777 L 798.101,235.781 L 798.668,235.774 L 798.896,235.717 L 799.163,235.604 L 799.433,235.816 L 799.496,235.901 L 799.522,236.124 L 799.783,236.287 L 799.799,236.342 L 799.792,236.442 L 799.722,236.506 L 799.659,236.498 L 799.508,236.366 L 799.358,236.327 L 799.286,236.243 L 799.223,236.235 L 799.232,236.312 L 799.351,236.464 L 799.36,236.532 L 799.156,236.631 L 799.133,236.694 L 799.699,236.696 L 799.882,236.914 L 799.915,237.065 L 799.917,237.26 L 799.925,237.325 L 799.973,237.385 L 800.056,236.961 L 800.117,236.733 L 800.203,236.628 L 800.337,236.643 L 800.416,236.706 L 800.487,236.707 L 800.525,236.538 L 800.399,236.532 L 800.279,236.328 L 800.459,236.146 L 800.418,235.974 L 800.332,236.1 L 800.246,236.094 L 800.198,236.03 L 800.213,235.936 L 800.346,235.787 L 800.331,234.949 L 800.162,234.471 L 800.192,234.321 L 800.271,234.328 L 800.389,234.287 L 800.443,234.186 L 800.853,234.236 L 800.854,234.354 L 800.932,234.324 L 800.931,234.197 L 800.892,234.12 L 800.725,234.066 L 800.701,233.98 L 800.794,233.757 L 800.785,233.68 L 800.652,233.671 L 800.565,233.705 L 800.566,233.823 L 800.503,233.862 L 800.456,233.823 L 800.462,233.627 L 800.575,233.02 L 800.557,232.729 L 800.499,232.43 L 800.268,232.102 L 800.236,232.007 L 800.336,231.684 L 800.454,231.65 L 800.589,231.869 L 800.872,231.805 L 801.005,231.671 L 801.02,231.614 L 801.178,231.604 L 801.256,231.558 L 801.421,231.541 L 801.626,231.476 L 801.745,231.562 L 801.73,231.687 L 801.552,232.073 L 801.413,232.478 L 801.423,232.666 L 801.832,232.67 L 802.438,232.612 L 802.502,232.706 L 802.52,233.044 L 802.458,233.153 L 802.453,233.383 L 802.375,233.612 L 802.15,233.944 L 802.144,234.171 L 802.106,234.299 L 802.116,234.646 L 802.039,234.794 L 802.039,234.875 L 802.11,234.928 L 802.065,235.134 L 802.193,235.376 L 802.375,235.556 L 802.613,235.72 L 802.896,235.702 L 802.943,235.645 L 803.022,235.621 L 803.069,235.66 L 803.187,235.675 L 803.196,235.793 L 803.033,235.968 L 803.073,236.135 L 803.215,236.171 L 803.268,236.88 L 803.27,237.084 L 803.392,237.555 L 803.488,237.766 L 803.585,238.027 L 803.753,238.41 L 803.841,238.569 L 803.93,238.796 L 804.122,239.165 L 804.289,239.461 L 804.314,239.557 L 804.945,240.655 L 805.009,240.755 L 805.89,241.756 L 806.027,242.047 L 806.21,242.315 L 806.758,243.08 L 806.98,243.219 L 807.596,243.396 L 808.196,243.596 L 808.56,243.771 L 808.862,243.967 L 809.06,244.144 L 809.284,244.528 L 809.723,245.123 L 810.455,245.865 L 811.058,246.34 L 811.579,246.57 L 812.449,246.846 L 812.869,247.15 L 813.146,247.312 L 813.398,247.395 L 813.572,247.402 L 813.705,247.37 L 813.901,247.24 L 814.066,247.17 L 814.207,247.166 L 814.342,247.23 L 814.485,247.369 L 814.86,247.916 L 814.9,247.98 L 814.973,248.217 L 815.008,248.492 L 815.065,248.679 L 814.93,248.64 L 814.511,248.417 L 814.201,248.113 L 814.041,247.903 L 813.89,247.752 L 813.472,247.672 L 813.205,247.791 L 812.987,248.005 L 812.886,248.157 L 812.786,248.418 L 812.78,248.607 L 812.846,248.866 L 812.832,249.096 L 812.762,249.197 L 812.52,249.356 L 812.084,249.88 L 812.054,250.095 L 812.023,250.149 L 812.017,250.276 L 812.153,250.542 L 812.503,250.87 L 812.789,251.19 L 812.932,251.282 L 812.925,251.441 L 812.871,251.526 L 812.866,251.787 L 812.898,251.866 L 813.025,251.974 L 813.019,252.164 L 812.996,252.251 L 812.887,252.385 L 812.322,252.612 L 812.535,252.649 L 812.858,252.584 L 812.921,252.607 L 813.063,252.622 L 813.235,252.502 L 813.321,252.508 L 813.322,252.601 L 813.379,252.721 L 813.387,252.792 L 813.293,252.885 L 813.122,253.091 L 813.061,253.242 L 813.054,253.36 L 813.095,253.526 L 812.978,253.685 L 812.963,253.756 L 813.058,253.763 L 813.137,253.801 L 813.159,253.673 L 813.238,253.649 L 813.317,253.712 L 813.334,253.792 L 813.587,253.946 L 813.629,254.236 L 813.701,254.33 L 813.788,254.346 L 813.785,254.07 L 813.792,253.968 L 813.697,253.875 L 813.522,253.749 L 813.435,253.656 L 813.314,253.374 L 813.305,253.216 L 813.431,253.231 L 813.646,253.482 L 813.717,253.52 L 813.763,253.417 L 813.485,253.096 L 813.609,252.978 L 813.687,252.851 L 813.592,252.82 L 813.584,252.758 L 813.661,252.653 L 813.902,252.321 L 814.324,251.915 L 814.322,251.757 L 814.298,251.67 L 814.258,251.594 L 814.115,251.508 L 814.044,251.492 L 813.824,251.557 L 813.627,251.56 L 813.547,251.466 L 813.515,251.371 L 813.388,251.216 L 813.15,251.028 L 813.141,250.966 L 813.204,250.933 L 813.637,250.899 L 813.95,250.762 L 814.052,250.673 L 814.074,250.532 L 814.151,250.335 L 814.221,250.239 L 814.542,250.047 L 814.667,249.929 L 814.784,249.863 L 815.172,250.088 L 815.237,250.207 L 815.31,250.527 L 815.305,250.834 L 815.049,251.192 L 814.856,251.595 L 814.842,252.579 L 814.915,252.79 L 814.916,252.893 L 815.046,253.333 L 815.056,253.546 L 814.979,253.704 L 814.893,253.808 L 814.531,253.835 L 814.391,253.969 L 814.29,254.183 L 814.167,254.5 L 814.139,254.798 L 814.135,255.208 L 814.218,255.658 L 814.364,256.082 L 814.436,256.244 L 814.524,256.44 L 814.613,256.605 L 814.956,257.082 L 815.163,258.208 L 815.302,258.734 L 815.292,259.262 L 815.184,259.513 L 815.158,260.128 L 815.202,260.657 L 815.243,260.764 L 815.246,261.05 L 815.209,261.364 L 815.171,261.492 L 815.047,261.688 L 814.767,262.053 L 814.618,262.151 L 814.391,262.207 L 814.327,262.097 L 814.333,261.973 L 814.522,261.924 L 814.584,261.882 L 814.669,261.718 L 814.942,261.369 L 814.925,261.264 L 814.699,261.472 L 814.156,261.581 L 813.565,261.515 L 813.502,261.492 L 813.508,261.302 L 813.678,260.978 L 813.66,260.758 L 813.588,260.686 L 813.391,260.651 L 813.551,260.876 L 813.536,260.988 L 813.42,261.162 L 813.273,261.439 L 812.911,261.475 L 812.792,261.429 L 812.737,261.356 L 812.696,261.177 L 812.543,260.924 L 812.385,260.848 L 811.983,260.748 L 811.833,260.753 L 811.692,260.806 L 811.504,260.958 L 811.371,261.008 L 811.292,260.97 L 811.164,260.726 L 811.123,260.594 L 811.059,260.475 L 810.995,260.411 L 810.859,260.155 L 810.85,260.09 L 810.795,260.03 L 810.706,259.834 L 810.665,259.677 L 810.52,259.315 L 810.296,258.915 L 810.177,258.869 L 809.965,258.878 L 809.878,258.856 L 809.83,258.755 L 809.718,258.628 L 809.624,258.59 L 809.435,258.695 L 809.302,258.721 L 809.175,258.675 L 809.04,258.508 L 808.875,258.544 L 808.538,258.728 L 808.459,258.696 L 808.303,258.88 L 808.241,258.991 L 808.242,259.062 L 808.314,259.156 L 808.377,259.195 L 808.403,259.383 L 808.435,259.444 L 808.577,259.499 L 808.633,259.562 L 808.547,259.639 L 808.54,259.742 L 808.728,259.687 L 808.767,259.639 L 808.782,259.543 L 808.758,259.472 L 808.576,259.381 L 808.552,259.326 L 808.641,258.836 L 808.845,258.679 L 809.026,258.692 L 809.153,258.815 L 809.263,258.846 L 809.657,258.773 L 809.753,258.959 L 809.77,259.055 L 809.889,259.172 L 810.047,259.233 L 810.299,259.278 L 810.394,259.346 L 810.427,259.411 L 810.42,259.584 L 810.303,259.641 L 810.304,259.805 L 810.369,260.008 L 810.387,260.231 L 810.357,260.34 L 810.499,260.379 L 810.538,260.332 L 810.43,259.774 L 810.516,259.749 L 810.637,259.991 L 810.878,260.486 L 810.894,260.563 L 810.974,260.697 L 811.071,260.955 L 811.159,261.089 L 811.325,261.165 L 811.585,261.163 L 811.726,261.06 L 811.819,260.917 L 811.968,260.885 L 812.205,260.922 L 812.379,260.991 L 812.482,261.106 L 812.523,261.21 L 812.485,261.422 L 812.423,261.477 L 812.084,261.512 L 811.92,261.578 L 811.684,261.595 L 811.528,261.745 L 811.474,261.93 L 811.193,262.111 L 811.037,262.262 L 810.944,262.413 L 810.865,262.484 L 810.772,262.626 L 810.735,262.81 L 810.626,262.938 L 810.611,263.109 L 810.581,263.212 L 810.48,263.348 L 810.338,263.349 L 810.004,263.012 L 809.821,262.747 L 809.655,262.749 L 809.419,262.703 L 809.309,262.737 L 808.862,263.008 L 808.691,263.168 L 808.512,263.381 L 808.324,263.511 L 808.048,263.528 L 807.759,263.514 L 807.679,263.51 L 807.542,263.461 L 807.397,263.429 L 807.337,263.36 L 807.219,263.22 L 807.154,263.055 L 807.145,262.968 L 807.049,262.735 L 806.913,262.507 L 806.714,262.32 L 806.522,262.267 L 806.382,262.228 L 806.269,262.3 L 806.156,262.339 L 805.814,262.544 L 805.621,262.673 L 799.041,255.886 L 789.898,251.933 L 783.428,252.219 L 786.461,250.109 L 794.033,244.112 L 796.233,242.312 L 796.15,241.893 L 796.119,241.729 L 796.106,241.617 L 796.136,241.555 L 796.232,241.479 L 796.311,241.448 L 796.393,241.426 L 796.476,241.415 L 796.551,241.427 L 796.654,241.479 L 796.691,241.531 L 796.729,241.61 L 796.823,241.712 L 796.905,241.706 L 796.985,241.617 L 797.011,241.561 L 797.015,241.492 L 797.29,241.543 L 797.392,241.543 L 797.488,241.668 L 797.488,241.77 L 797.402,241.803 L 797.316,241.874 L 797.34,241.945 L 797.451,241.998 L 797.553,242.007 L 797.702,241.909 L 797.615,241.847 L 797.835,241.713 L 797.984,241.672 L 798.15,241.803 L 798.167,241.883 L 798.089,242.01 L 798.098,242.143 L 798.177,242.206 L 798.247,242.142 L 798.302,242.016 L 798.372,242.008 L 798.452,242.077 L 798.445,242.21 L 798.423,242.431 L 798.409,242.612 L 798.505,242.776 L 798.71,242.838 L 798.892,242.939 L 798.971,242.949 L 798.914,242.789 L 798.811,242.742 L 798.646,242.698 L 798.566,242.629 L 798.573,242.526 L 798.62,242.413 L 798.631,241.87 L 798.874,241.705 L 798.928,241.632 L 798.943,241.56 L 798.778,241.586 L 798.386,241.772 L 798.26,241.772 L 798.173,241.71 L 798.432,241.637 L 798.534,241.525 L 798.533,241.448 L 797.912,241.522 L 797.825,241.453 L 797.784,241.383 L 797.73,241.462 L 797.675,241.491 L 797.391,241.354 L 797.091,241.276 L 797.019,241.207 L 797.019,241.12 L 796.946,240.883 L 796.953,240.775 L 797.032,240.813 L 797.111,240.813 L 797.165,240.75 L 797.206,240.882 L 797.332,240.974 L 797.434,240.903 L 797.316,240.82 L 797.251,240.623 L 797.203,240.559 L 797.069,240.52 L 796.993,240.384 L 796.965,240.334 L 796.955,240.104 L 796.939,239.978 L 796.797,239.988 L 796.75,240.058 L 796.372,240.084 L 796.293,240.04 L 796.26,239.858 L 796.267,239.709 L 796.271,239.268 L 796.318,239.165 L 796.454,238.973 L 796.496,238.915 L 796.547,238.843 L 796.577,238.767 L 796.612,238.683 L 796.647,238.596 L 797.224,238.397 L 797.822,237.767"/><path id="path15623" d="M 800.055,233.023 L 800.008,232.978 L 800.022,232.866 L 800.164,232.88 L 800.15,232.999 L 800.055,233.023"/><path id="path15629" d="M 803.108,233.668 L 803.037,233.636 L 803.209,233.478 L 803.272,233.477 L 803.297,233.613 L 803.242,233.651 L 803.108,233.668"/><path id="path15631" d="M 799.917,234.403 L 799.831,234.397 L 799.783,234.339 L 799.782,234.261 L 799.963,234.172 L 800.057,234.166 L 800.097,234.289 L 799.917,234.403"/><path id="path15633" d="M 800.032,234.999 L 799.977,234.96 L 799.968,234.811 L 800.054,234.709 L 800.164,234.746 L 800.157,234.88 L 800.032,234.999"/><path id="path15641" d="M 805.136,236.108 L 805.025,236.062 L 805.017,236 L 805.064,235.927 L 805.614,235.781 L 805.615,235.914 L 805.56,235.978 L 805.253,236.012 L 805.207,236.094 L 805.136,236.108"/><path id="path15643" d="M 799.885,236.268 L 799.884,236.166 L 800.05,236.158 L 800.113,236.187 L 799.964,236.331 L 799.885,236.268"/><path id="path15645" d="M 797.822,237.767 L 797.224,238.397 L 796.647,238.596 L 796.667,238.494 L 796.665,238.233 L 796.617,238.148 L 796.482,238.006 L 796.44,237.787 L 796.095,237.875 L 795.945,237.87 L 795.921,237.78 L 795.944,237.712 L 795.917,237.387 L 795.893,237.31 L 795.916,237.176 L 795.883,237.074 L 795.906,236.891 L 796.181,236.867 L 796.292,236.913 L 796.543,236.878 L 796.748,236.916 L 797.038,236.765 L 797.272,236.75 L 796.882,236.946 L 796.907,237.01 L 796.978,237.079 L 797.073,237.126 L 797.23,237.088 L 797.278,237.142 L 797.296,237.449 L 797.573,237.651 L 797.629,237.737 L 797.716,237.784 L 797.822,237.767"/></g></svg>