<svg xmlns="http://www.w3.org/2000/svg" role="img" viewBox="1323.30 570.93 66.27 88.27"><title>Sharon</title><g id="g14955" fill="#fefee9" fill-opacity="1" fill-rule="evenodd" stroke="#000" stroke-linecap="square" stroke-linejoin="bevel" stroke-opacity="1" stroke-width=".098" transform="translate(-216.714 -21.7) scale(2.264)"><path id="path15717" fill-rule="evenodd" d="M 696.665,263.263 L 696.679,263.354 L 697.222,266.205 L 697.077,266.309 L 698.18,267.611 L 700.726,269.753 L 700.38,271.059 L 704.057,272.053 L 703.809,272.838 L 703.817,273.096 L 703.847,273.386 L 703.882,273.651 L 704.1,274.252 L 704.217,274.618 L 704.247,274.744 L 704.261,274.811 L 704.263,275.033 L 704.26,275.41 L 704.271,275.573 L 704.595,276.244 L 704.637,276.307 L 704.972,276.693 L 706.336,277.933 L 706.435,278.042 L 706.529,278.136 L 706.605,278.237 L 706.713,278.415 L 706.801,278.574 L 706.905,278.762 L 707.036,279.084 L 707.182,279.441 L 707.333,279.862 L 707.404,280.115 L 707.446,280.251 L 707.468,280.428 L 707.492,280.55 L 707.523,280.637 L 707.545,280.694 L 707.669,280.843 L 707.957,281.181 L 708.019,281.238 L 708.052,281.291 L 708.111,281.369 L 708.147,281.45 L 708.186,281.593 L 708.232,281.82 L 708.305,282.082 L 708.361,282.239 L 708.43,282.438 L 708.495,282.569 L 708.525,282.682 L 708.574,282.794 L 708.606,282.943 L 708.526,282.955 L 708.597,283.197 L 708.58,283.656 L 708.616,283.946 L 708.692,284.324 L 708.708,284.523 L 708.73,284.668 L 708.728,284.741 L 708.706,284.889 L 708.66,285.047 L 708.568,285.258 L 708.503,285.44 L 708.434,285.56 L 708.411,285.649 L 708.374,285.797 L 708.339,286.025 L 708.3,286.185 L 708.271,286.305 L 708.233,286.392 L 708.165,286.52 L 708.09,286.659 L 708.01,286.874 L 707.926,287.095 L 707.855,287.255 L 707.756,287.562 L 707.666,287.931 L 707.482,288.491 L 707.43,288.653 L 707.394,288.72 L 707.294,288.836 L 707.225,288.931 L 707.155,288.985 L 707.09,289.06 L 706.948,289.675 L 706.865,289.845 L 706.773,290.066 L 706.695,290.235 L 706.654,290.407 L 706.642,290.523 L 706.656,290.608 L 706.686,290.671 L 706.781,290.818 L 706.803,290.922 L 706.758,291.177 L 706.694,291.297 L 706.649,291.439 L 706.609,291.555 L 706.58,291.725 L 706.561,291.811 L 706.581,291.894 L 706.599,291.983 L 706.615,292.083 L 706.631,292.162 L 706.633,292.264 L 706.635,292.361 L 706.626,292.483 L 706.62,292.631 L 706.618,292.721 L 706.63,292.804 L 706.646,292.891 L 706.668,292.979 L 706.709,293.065 L 706.743,293.166 L 706.783,293.227 L 706.808,293.297 L 706.909,293.372 L 706.747,293.916 L 706.854,294.674 L 699.193,298.692 L 696.697,300 L 692.088,291.395 L 689.639,294.288 L 681.146,283.979 L 681.162,283.225 L 681.183,282.152 L 681.131,281.218 L 681.16,281.135 L 681.249,281.062 L 681.282,280.992 L 681.29,280.915 L 681.284,280.842 L 681.26,280.722 L 681.227,280.63 L 681.213,280.545 L 681.169,280.467 L 681.122,280.386 L 681.096,280.252 L 681.084,280.181 L 681.035,280.114 L 681.035,280.042 L 681.023,279.969 L 681.027,279.908 L 681.048,279.841 L 681.07,279.764 L 681.097,279.667 L 681.132,279.586 L 681.167,279.515 L 681.191,279.458 L 681.193,279.381 L 681.195,279.302 L 681.173,279.19 L 681.135,279.061 L 681.115,278.96 L 681.137,278.897 L 681.186,278.822 L 681.166,278.734 L 681.111,278.671 L 681.073,278.59 L 681.061,278.532 L 681.045,278.431 L 681.126,278.364 L 681.175,278.306 L 681.206,278.231 L 681.271,278.156 L 681.33,278.067 L 681.356,277.977 L 682.568,277.346 L 682.578,277.49 L 682.865,277.463 L 683.078,277.399 L 682.654,276.761 L 682.53,276.59 L 682.503,276.472 L 682.479,276.363 L 682.484,276.234 L 682.482,276.078 L 682.456,275.801 L 682.477,275.47 L 682.493,275.409 L 682.573,275.288 L 682.734,274.975 L 682.759,274.913 L 682.77,274.746 L 682.829,274.516 L 682.888,274.451 L 682.947,274.407 L 683.011,274.373 L 683.094,274.339 L 683.174,274.319 L 683.231,274.26 L 683.262,274.17 L 683.441,274.041 L 683.508,274.054 L 683.604,274.052 L 683.661,274.032 L 683.73,274.002 L 683.862,273.937 L 683.952,273.848 L 684.005,273.761 L 684.042,273.692 L 684.095,273.621 L 684.22,273.473 L 684.418,273.218 L 692.463,268.202 L 694.392,267.026 L 693.912,264.313 L 693.961,264.272 L 694.022,264.24 L 694.041,264.181 L 694.071,264.064 L 694.068,264 L 694.099,263.887 L 694.133,263.818 L 694.16,263.718 L 694.169,263.619 L 694.14,263.529 L 694.11,263.476 L 694.08,263.413 L 694.07,263.337 L 694.083,263.271 L 694.107,263.203 L 694.179,263.045 L 694.228,262.913 L 694.302,262.729 L 694.382,262.584 L 694.468,262.552 L 694.571,262.575 L 694.695,262.604 L 694.807,262.607 L 694.919,262.648 L 695.118,262.685 L 695.231,262.706 L 695.317,262.713 L 695.477,262.732 L 695.721,262.78 L 695.977,262.85 L 696.053,262.846 L 696.148,262.812 L 696.207,262.774 L 696.305,262.715 L 696.381,262.687 L 696.441,262.68 L 696.521,262.688 L 696.588,262.704 L 696.644,262.817 L 696.638,262.89 L 696.637,263.061 L 696.665,263.263"/></g></svg>