<svg xmlns="http://www.w3.org/2000/svg" role="img" viewBox="457.94 193.69 65.50 74.88"><title>Shelburne</title><g id="g14955" fill="#fefee9" fill-opacity="1" fill-rule="evenodd" stroke="#000" stroke-linecap="square" stroke-linejoin="bevel" stroke-opacity="1" stroke-width=".098" transform="translate(-216.714 -21.7) scale(2.264)"><path id="path15141" fill-rule="evenodd" d="M 326.259,95.8695 L 324.848,102.821 L 321.622,119.413 L 324.979,119.068 L 324.406,121.827 L 321.056,122.221 L 320.148,126.792 L 315.77,127.408 L 315.01,127.51 L 314.807,127.537 L 314.774,127.49 L 314.745,127.432 L 314.713,127.357 L 314.686,127.29 L 314.667,127.223 L 314.625,127.165 L 314.606,127.098 L 314.576,127.021 L 314.541,126.967 L 314.506,126.908 L 314.454,126.858 L 314.408,126.781 L 314.375,126.733 L 314.336,126.678 L 314.3,126.61 L 314.245,126.56 L 314.199,126.501 L 314.176,126.441 L 314.143,126.362 L 314.107,126.273 L 314.077,126.184 L 314.036,126.111 L 314.038,126.001 L 314.013,125.936 L 314.006,125.875 L 313.993,125.811 L 313.989,125.701 L 313.986,125.571 L 313.982,125.459 L 313.986,125.313 L 313.995,125.18 L 313.999,125.046 L 314.016,124.938 L 314.027,124.816 L 314.029,124.667 L 314.016,124.586 L 314.019,124.527 L 314.001,124.432 L 313.998,124.365 L 313.943,124.313 L 313.897,124.266 L 313.848,124.23 L 313.774,124.197 L 313.69,124.155 L 313.602,124.116 L 313.507,124.103 L 313.384,124.092 L 313.295,124.093 L 313.175,124.091 L 313.11,124.094 L 312.992,124.108 L 312.925,124.113 L 312.836,124.116 L 312.744,124.119 L 312.659,124.122 L 312.553,124.13 L 312.463,124.133 L 312.392,124.126 L 312.319,124.115 L 312.247,124.105 L 312.174,124.094 L 312.097,124.089 L 312.038,124.076 L 311.793,124.004 L 311.696,123.968 L 311.598,123.921 L 311.492,123.871 L 311.41,123.824 L 311.346,123.808 L 311.265,123.781 L 311.163,123.748 L 311.089,123.704 L 310.972,123.661 L 310.88,123.644 L 310.799,123.62 L 310.734,123.611 L 310.654,123.594 L 310.55,123.581 L 310.485,123.571 L 310.399,123.569 L 310.338,123.573 L 310.275,123.56 L 310.155,123.572 L 310.084,123.581 L 310.021,123.586 L 309.964,123.593 L 309.83,123.613 L 309.717,123.643 L 309.508,123.694 L 309.376,123.721 L 309.248,123.73 L 309.133,123.774 L 309.043,123.794 L 308.96,123.807 L 308.903,123.814 L 308.806,123.82 L 308.706,123.811 L 308.612,123.798 L 308.528,123.77 L 308.455,123.753 L 308.396,123.728 L 308.336,123.708 L 308.273,123.68 L 308.181,123.629 L 308.105,123.593 L 308.047,123.559 L 307.968,123.526 L 307.902,123.502 L 307.845,123.448 L 307.778,123.368 L 307.733,123.327 L 307.677,123.275 L 307.583,123.189 L 307.545,123.122 L 307.5,123.062 L 307.45,122.996 L 307.4,122.939 L 307.342,122.84 L 307.303,122.776 L 307.245,122.707 L 307.199,122.617 L 307.153,122.542 L 307.13,122.469 L 307.112,122.398 L 307.091,122.331 L 307.065,122.232 L 307.056,122.132 L 307.04,122.029 L 307.027,121.929 L 307.019,121.821 L 307.001,121.688 L 306.992,121.606 L 306.985,121.509 L 306.983,121.401 L 306.972,121.317 L 306.959,121.232 L 306.958,121.055 L 306.965,120.962 L 306.964,120.892 L 306.967,120.756 L 306.965,120.667 L 306.965,120.606 L 306.963,120.51 L 306.999,120.449 L 306.978,120.363 L 306.978,120.243 L 307.016,120.147 L 307.037,120.06 L 307.051,119.937 L 307.061,119.878 L 307.068,119.815 L 307.09,119.656 L 307.097,119.58 L 307.1,119.467 L 307.097,119.371 L 307.098,119.304 L 307.065,119.25 L 307.051,119.181 L 307.004,119.094 L 306.954,119.023 L 306.894,118.967 L 306.826,118.923 L 306.75,118.879 L 306.681,118.844 L 306.621,118.822 L 306.546,118.798 L 306.489,118.779 L 306.431,118.761 L 306.336,118.734 L 306.264,118.701 L 306.203,118.679 L 306.147,118.655 L 306.088,118.627 L 305.984,118.588 L 305.912,118.546 L 305.834,118.486 L 305.752,118.435 L 305.68,118.384 L 305.616,118.333 L 305.555,118.297 L 305.489,118.234 L 305.404,118.164 L 305.343,118.122 L 305.273,118.078 L 305.203,118.049 L 305.146,118.017 L 305.089,117.989 L 304.99,117.921 L 304.894,117.858 L 304.824,117.8 L 304.774,117.762 L 304.706,117.685 L 304.654,117.602 L 304.565,117.494 L 304.534,117.433 L 304.525,117.376 L 304.466,117.224 L 304.436,117.133 L 304.435,117.044 L 304.4,116.953 L 304.391,116.889 L 304.369,116.8 L 304.339,116.715 L 304.31,116.653 L 304.277,116.588 L 304.237,116.511 L 304.202,116.447 L 304.168,116.376 L 304.116,116.318 L 304.077,116.269 L 303.997,116.22 L 303.98,116.128 L 303.944,116.053 L 303.835,115.973 L 303.778,115.942 L 303.706,115.894 L 303.606,115.85 L 303.272,115.712 L 303.168,115.671 L 303.082,115.627 L 302.925,115.562 L 302.824,115.478 L 302.742,115.418 L 302.67,115.356 L 302.607,115.276 L 302.558,115.214 L 302.48,115.149 L 302.462,115.091 L 302.425,115.026 L 302.381,114.925 L 302.322,114.81 L 302.266,114.687 L 302.235,114.636 L 302.209,114.568 L 302.146,114.509 L 302.09,114.439 L 302.039,114.411 L 301.985,114.375 L 301.879,114.326 L 301.541,114.153 L 301.455,114.114 L 301.371,114.078 L 301.305,114.033 L 301.237,113.968 L 301.21,113.912 L 301.185,113.841 L 301.157,113.758 L 301.135,113.665 L 301.118,113.604 L 301.105,113.507 L 301.093,113.419 L 301.106,113.323 L 301.095,113.206 L 301.083,113.098 L 301.074,113.007 L 301.061,112.917 L 301.05,112.856 L 301.034,112.795 L 301.015,112.708 L 300.996,112.623 L 300.983,112.564 L 300.972,112.502 L 300.942,112.408 L 300.538,110.805 L 300.511,110.75 L 300.434,110.639 L 300.379,110.571 L 300.323,110.509 L 300.215,110.386 L 300.152,110.336 L 300.102,110.3 L 299.998,110.23 L 299.909,110.178 L 299.852,110.151 L 299.767,110.141 L 299.713,110.122 L 299.648,110.119 L 299.581,110.123 L 299.508,110.147 L 299.425,110.18 L 299.365,110.224 L 299.262,110.295 L 299.175,110.336 L 299.079,110.352 L 298.987,110.325 L 298.924,110.305 L 298.879,110.267 L 298.807,110.201 L 298.743,110.155 L 298.724,110.082 L 298.718,110.007 L 298.723,109.878 L 298.749,109.707 L 298.77,109.593 L 298.807,109.505 L 298.819,109.444 L 298.859,109.362 L 298.9,109.274 L 298.967,109.135 L 299.085,108.93 L 299.117,108.86 L 299.237,108.568 L 299.282,108.449 L 299.304,108.376 L 299.339,108.158 L 299.415,107.687 L 299.435,107.516 L 299.46,107.361 L 299.578,106.782 L 299.654,106.502 L 299.714,106.265 L 299.752,106.196 L 299.779,106.14 L 299.805,106.077 L 299.851,105.999 L 299.9,105.905 L 299.956,105.81 L 299.975,105.735 L 299.998,105.674 L 300.015,105.6 L 300.039,105.527 L 300.048,105.467 L 300.058,105.364 L 300.055,105.262 L 300.061,105.156 L 300.053,105.085 L 300.032,105.022 L 300.011,104.917 L 299.995,104.858 L 299.953,104.781 L 299.905,104.718 L 299.865,104.668 L 299.782,104.598 L 299.693,104.53 L 299.629,104.492 L 299.591,104.436 L 299.566,104.324 L 299.554,104.255 L 299.55,104.123 L 299.565,103.994 L 299.565,103.931 L 299.588,103.833 L 299.631,103.716 L 299.663,103.634 L 299.674,103.536 L 299.706,103.469 L 299.74,103.385 L 299.757,103.279 L 299.79,103.178 L 299.822,103.092 L 299.876,102.984 L 299.904,102.902 L 299.934,102.841 L 299.969,102.763 L 299.998,102.703 L 300.019,102.624 L 300.034,102.552 L 300.055,102.484 L 300.071,102.418 L 300.099,102.341 L 300.1,102.272 L 300.097,102.202 L 300.09,102.137 L 300.078,102.062 L 300.057,102.002 L 300.014,101.947 L 299.962,101.899 L 299.912,101.855 L 299.861,101.827 L 299.772,101.747 L 299.769,101.674 L 299.752,101.575 L 299.736,101.498 L 299.743,101.404 L 299.718,101.339 L 299.712,101.254 L 299.719,101.18 L 299.727,101.113 L 299.829,100.741 L 299.909,100.423 L 299.917,100.364 L 299.948,100.255 L 299.991,100.177 L 300.015,100.124 L 300.095,100.033 L 300.126,99.9726 L 300.17,99.8926 L 300.209,99.8046 L 300.223,99.7399 L 326.259,95.8695"/></g></svg>