<svg xmlns="http://www.w3.org/2000/svg" role="img" viewBox="1218.75 489.25 55.00 65.00"><title>Sherborn</title><g id="g14955" fill="#fefee9" fill-opacity="1" fill-rule="evenodd" stroke="#000" stroke-linecap="square" stroke-linejoin="bevel" stroke-opacity="1" stroke-width=".098" transform="translate(-216.714 -21.7) scale(2.264)"><path id="path15585" fill-rule="evenodd" d="M 642.224,226.312 L 645.691,227.148 L 646.285,227.397 L 650.774,229.175 L 650.783,229.257 L 650.788,229.349 L 650.837,229.475 L 650.856,229.62 L 650.884,229.773 L 650.909,229.954 L 650.922,230.042 L 650.921,230.113 L 650.894,230.218 L 650.862,230.338 L 650.87,230.454 L 650.882,230.527 L 650.92,230.595 L 650.968,230.667 L 651.098,230.762 L 651.179,230.834 L 651.274,230.882 L 651.367,230.924 L 651.427,230.967 L 651.469,231.061 L 651.456,231.157 L 651.442,231.24 L 651.48,231.287 L 651.52,231.355 L 651.54,231.434 L 651.614,231.482 L 651.683,231.497 L 651.752,231.563 L 651.824,231.605 L 651.897,231.658 L 651.914,231.716 L 651.977,231.757 L 652.076,231.799 L 652.12,231.852 L 652.352,231.798 L 652.969,232.225 L 653.825,232.516 L 654.649,232.642 L 654.472,233.675 L 654.763,233.802 L 656.985,234.65 L 657.023,234.697 L 657.065,234.749 L 657.106,234.8 L 657.145,234.849 L 657.19,234.891 L 657.287,234.968 L 657.374,235.017 L 657.423,235.055 L 657.47,235.096 L 657.517,235.152 L 657.547,235.205 L 657.596,235.288 L 657.657,235.357 L 657.704,235.406 L 657.767,235.47 L 657.791,235.61 L 657.783,235.755 L 657.761,235.959 L 657.746,236.098 L 657.736,236.207 L 657.734,236.307 L 657.72,236.386 L 657.696,236.439 L 657.649,236.514 L 657.564,236.585 L 657.509,236.677 L 657.466,236.917 L 657.426,237.118 L 657.347,237.982 L 657.35,238.108 L 657.354,238.254 L 657.362,238.348 L 657.379,238.492 L 657.414,238.595 L 657.55,238.88 L 657.642,239.062 L 657.703,239.193 L 657.742,239.296 L 657.76,239.383 L 657.757,239.477 L 657.74,239.56 L 657.718,239.646 L 657.68,239.709 L 657.631,239.778 L 657.562,239.862 L 657.479,239.945 L 657.414,240.018 L 657.343,240.106 L 657.289,240.159 L 657.238,240.208 L 656.958,240.43 L 656.808,240.548 L 656.731,240.62 L 656.66,240.687 L 656.601,240.742 L 656.516,240.882 L 656.403,241.017 L 656.281,241.159 L 656.213,241.249 L 656.089,241.424 L 655.992,241.534 L 655.941,241.583 L 655.893,241.619 L 655.797,241.663 L 655.673,241.717 L 655.526,241.84 L 655.451,241.925 L 655.386,242.017 L 655.305,242.125 L 655.232,242.213 L 655.169,242.276 L 655.112,242.323 L 655.051,242.367 L 654.976,242.435 L 654.938,242.48 L 654.879,242.571 L 654.857,242.626 L 654.835,242.699 L 654.823,242.815 L 654.805,242.911 L 654.789,242.982 L 654.754,243.106 L 654.732,243.193 L 654.72,243.258 L 654.716,243.352 L 654.726,243.429 L 654.702,243.506 L 654.562,243.572 L 654.477,243.607 L 654.416,243.645 L 654.384,243.702 L 654.346,243.802 L 654.317,243.902 L 654.303,243.966 L 654.291,244.026 L 654.306,244.166 L 654.36,244.247 L 654.458,244.291 L 654.509,244.344 L 654.572,244.427 L 654.631,244.507 L 654.68,244.63 L 654.714,244.705 L 654.767,244.777 L 654.828,244.829 L 654.881,244.872 L 654.944,244.896 L 655.033,244.912 L 655.101,244.94 L 655.182,245.021 L 655.267,245.113 L 655.322,245.167 L 655.369,245.202 L 655.456,245.261 L 655.495,245.318 L 655.517,245.38 L 655.546,245.484 L 655.558,245.665 L 655.569,245.803 L 655.523,245.851 L 655.468,245.914 L 655.412,246 L 655.353,246.094 L 655.29,246.167 L 655.258,246.246 L 655.235,246.303 L 655.15,246.326 L 655.085,246.305 L 654.929,246.241 L 654.736,246.15 L 654.565,246.089 L 654.311,246.027 L 654.09,245.954 L 653.97,245.926 L 653.84,245.898 L 653.777,245.882 L 653.659,245.846 L 653.58,245.817 L 653.507,245.781 L 653.44,245.755 L 653.356,245.743 L 653.285,245.771 L 652.896,246.071 L 652.61,246.287 L 652.561,246.356 L 652.371,246.713 L 652.219,246.993 L 652.168,247.097 L 652.15,247.164 L 652.134,247.297 L 652.096,247.634 L 652.086,247.736 L 652.104,247.813 L 652.133,247.874 L 652.157,247.988 L 652.143,248.083 L 652.125,248.15 L 652.131,248.219 L 652.127,248.296 L 652.067,248.396 L 652.032,248.453 L 652.004,248.508 L 651.994,248.59 L 652.026,248.652 L 652.051,248.709 L 652.122,248.807 L 652.187,248.902 L 652.258,248.989 L 652.331,249.062 L 652.399,249.121 L 652.458,249.178 L 652.51,249.239 L 652.624,249.299 L 652.815,249.417 L 652.891,249.469 L 652.958,249.498 L 653.065,249.516 L 653.138,249.499 L 653.26,249.469 L 653.319,249.46 L 653.382,249.454 L 653.443,249.482 L 653.465,249.555 L 653.457,249.641 L 653.413,249.771 L 653.384,249.846 L 653.395,249.934 L 653.466,250.025 L 653.5,250.1 L 653.527,250.181 L 653.56,250.271 L 653.602,250.329 L 653.671,250.384 L 653.742,250.427 L 653.801,250.471 L 653.868,250.512 L 653.952,250.556 L 654.003,250.583 L 654.064,250.629 L 654.072,250.737 L 654.064,250.831 L 653.923,250.883 L 649.523,252.514 L 646.312,253.141 L 645.297,253.318 L 643.664,253.812 L 644.859,250.458 L 642.786,249.575 L 642.705,248.318 L 641.913,247.727 L 641.323,248.636 L 640.531,248.362 L 640.543,248.191 L 640.571,248.116 L 640.518,248.082 L 640.455,248.027 L 640.471,247.948 L 640.408,247.929 L 640.349,247.929 L 640.306,247.885 L 640.237,247.834 L 640.219,247.775 L 640.245,247.612 L 640.232,247.476 L 640.213,247.319 L 640.172,247.22 L 640.091,247.142 L 639.954,247.065 L 639.83,247.009 L 639.742,246.95 L 639.691,246.867 L 639.634,246.798 L 639.596,246.745 L 639.52,246.688 L 639.445,246.647 L 639.359,246.607 L 639.278,246.588 L 639.182,246.518 L 639.102,246.375 L 639.027,246.294 L 638.862,246.182 L 638.833,246.122 L 638.839,245.977 L 639.278,245.777 L 637.896,244.831 L 637.821,244.925 L 637.74,245.01 L 637.69,244.72 L 637.483,244.694 L 637.214,244.639 L 637.22,244.539 L 637.224,244.466 L 637.216,244.397 L 637.234,244.326 L 637.293,244.208 L 637.491,243.922 L 637.52,243.868 L 637.546,243.697 L 637.556,243.558 L 637.533,243.436 L 637.512,243.333 L 637.463,243.227 L 637.449,243.141 L 637.438,243.058 L 637.448,242.95 L 637.462,242.812 L 637.472,242.743 L 637.452,242.657 L 637.347,242.293 L 637.284,242.122 L 637.218,242.009 L 637.159,241.921 L 637.066,241.84 L 636.933,241.765 L 636.817,241.674 L 636.727,241.605 L 636.674,241.56 L 636.615,241.479 L 636.564,241.381 L 636.533,241.223 L 636.502,240.911 L 636.395,239.541 L 636.389,239.383 L 636.405,239.258 L 636.405,239.191 L 636.388,239.126 L 636.341,239.067 L 636.217,238.982 L 636.081,238.871 L 636.016,238.818 L 635.924,238.758 L 635.841,238.703 L 635.755,238.646 L 635.688,238.583 L 635.625,238.49 L 635.561,238.383 L 635.496,238.277 L 635.433,238.18 L 635.394,238.094 L 635.323,238.025 L 635.036,237.949 L 634.92,237.925 L 634.824,237.919 L 634.739,237.923 L 634.648,237.943 L 635.089,235.091 L 635.029,233.841 L 634.839,231.358 L 640.333,229.909 L 642.224,226.312"/></g></svg>