<svg xmlns="http://www.w3.org/2000/svg" role="img" viewBox="1017.08 441.83 65.97 73.97"><title>Shrewsbury</title><g id="g14955" fill="#fefee9" fill-opacity="1" fill-rule="evenodd" stroke="#000" stroke-linecap="square" stroke-linejoin="bevel" stroke-opacity="1" stroke-width=".098" transform="translate(-216.714 -21.7) scale(2.264)"><path id="path15509" fill-rule="evenodd" d="M 566.22,207.848 L 565.723,210.125 L 568.077,214.825 L 568.963,221.389 L 570.691,223.927 L 573.487,228.032 L 570.561,230.016 L 569.062,232.397 L 569.579,233.008 L 565.131,233.789 L 561.873,234.367 L 560.251,235.466 L 558.456,235.488 L 555.048,236.772 L 551.226,235.885 L 550.647,234.301 L 550.378,233.754 L 550.379,233.466 L 549.959,232.259 L 548.124,217.869 L 545.641,212.706 L 545.903,212.632 L 545.924,212.026 L 546.631,212.127 L 548.631,212.411 L 550.449,211.597 L 552.52,210.624 L 552.422,211.182 L 554.965,210.424 L 555.375,209.332 L 563.433,205.436 L 564.257,206.185 L 563.695,206.557 L 563.741,207.126 L 565.393,206.649 L 565.357,207.358 L 565.767,207.679 L 566.22,207.848"/></g></svg>