<svg xmlns="http://www.w3.org/2000/svg" role="img" viewBox="600.65 300.15 73.95 83.33"><title>Shutesbury</title><g id="g14955" fill="#fefee9" fill-opacity="1" fill-rule="evenodd" stroke="#000" stroke-linecap="square" stroke-linejoin="bevel" stroke-opacity="1" stroke-width=".098" transform="translate(-216.714 -21.7) scale(2.264)"><path id="path15311" fill-rule="evenodd" d="M 392.964,145.84 L 392.953,146.657 L 392.845,158.888 L 391.309,158.857 L 388.953,158.804 L 388.785,158.817 L 388.91,158.872 L 388.973,158.907 L 389.052,158.902 L 389.15,158.928 L 389.245,159 L 389.281,159.05 L 389.346,159.148 L 389.388,159.251 L 389.406,159.346 L 389.383,159.402 L 389.325,159.449 L 389.229,159.506 L 389.204,159.586 L 389.215,159.663 L 389.229,159.754 L 389.243,159.823 L 389.295,159.909 L 389.367,159.967 L 389.432,160.045 L 389.474,160.128 L 389.538,160.2 L 389.612,160.245 L 389.674,160.293 L 389.668,160.403 L 389.639,160.466 L 389.626,160.529 L 389.597,160.624 L 389.559,160.724 L 389.499,160.806 L 389.441,160.87 L 389.388,160.926 L 389.34,160.966 L 389.278,161.02 L 389.255,161.09 L 389.246,161.167 L 389.266,161.25 L 389.284,161.345 L 389.323,161.474 L 389.338,161.545 L 389.359,161.661 L 389.364,161.722 L 389.378,161.825 L 389.388,161.898 L 389.422,161.971 L 389.447,162.029 L 389.463,162.094 L 389.466,162.173 L 389.437,162.225 L 389.393,162.274 L 389.345,162.306 L 389.312,162.373 L 389.311,162.447 L 389.32,162.522 L 389.285,162.598 L 389.271,162.683 L 389.274,162.756 L 389.33,162.829 L 389.402,162.862 L 389.483,162.923 L 389.488,162.994 L 389.494,163.076 L 389.499,163.141 L 389.511,163.22 L 389.526,163.293 L 389.565,163.393 L 389.637,163.467 L 389.671,163.516 L 389.744,163.557 L 389.812,163.606 L 389.871,163.695 L 389.907,163.761 L 389.914,163.832 L 389.926,163.889 L 389.977,163.943 L 390.019,164.013 L 390.055,164.09 L 390.079,164.167 L 390.077,164.252 L 390.058,164.338 L 390.041,164.411 L 390.038,164.48 L 390.036,164.57 L 390.016,164.674 L 390.031,164.755 L 390.079,164.817 L 390.111,164.87 L 390.161,164.928 L 390.211,164.984 L 390.26,165.04 L 390.331,165.109 L 390.334,165.178 L 390.303,165.277 L 390.258,165.369 L 390.213,165.451 L 390.148,165.53 L 390.081,165.555 L 390.017,165.579 L 389.946,165.605 L 389.928,165.715 L 389.897,165.791 L 389.894,165.866 L 389.863,165.938 L 389.865,166.033 L 389.888,166.09 L 389.893,166.152 L 389.899,166.238 L 389.909,166.311 L 389.928,166.371 L 389.942,166.452 L 389.955,166.52 L 389.986,166.647 L 389.992,166.72 L 390.008,166.817 L 390.029,166.884 L 390.039,166.988 L 390.027,167.069 L 389.997,167.212 L 389.952,167.3 L 389.933,167.38 L 389.897,167.427 L 389.827,167.473 L 389.754,167.477 L 389.689,167.588 L 389.66,167.661 L 389.69,167.726 L 389.77,167.804 L 389.837,167.878 L 389.866,167.936 L 389.921,168.037 L 390.003,168.072 L 390.053,168.01 L 390.101,167.97 L 390.172,167.979 L 390.22,168.019 L 390.271,168.067 L 390.327,168.115 L 390.383,168.166 L 390.451,168.208 L 390.549,168.261 L 390.644,168.33 L 390.736,168.381 L 390.813,168.435 L 390.885,168.517 L 390.907,168.572 L 390.908,168.647 L 390.897,168.73 L 390.889,168.824 L 390.865,168.93 L 390.846,169.008 L 390.833,169.083 L 390.826,169.162 L 390.83,169.264 L 390.836,169.372 L 390.838,169.473 L 390.829,169.618 L 390.818,169.689 L 390.812,169.777 L 390.773,169.9 L 390.745,169.998 L 390.726,170.075 L 390.711,170.163 L 390.731,170.335 L 390.742,170.411 L 390.735,170.47 L 390.839,170.569 L 390.888,170.603 L 390.932,170.641 L 390.975,170.691 L 391.024,170.767 L 391.031,170.824 L 391.042,170.885 L 391.07,170.974 L 391.086,171.067 L 391.106,171.174 L 391.12,171.257 L 391.141,171.377 L 391.146,171.438 L 391.151,171.503 L 391.149,171.603 L 391.14,171.666 L 391.119,171.725 L 391.088,171.793 L 391.038,171.863 L 390.996,171.906 L 390.941,171.985 L 390.881,172.057 L 390.833,172.098 L 390.81,172.16 L 390.734,172.23 L 390.701,172.298 L 390.678,172.378 L 390.649,172.46 L 390.619,172.56 L 390.612,172.621 L 390.616,172.737 L 390.627,172.804 L 390.656,172.901 L 390.669,172.968 L 390.685,173.043 L 390.7,173.109 L 390.727,173.209 L 390.918,173.953 L 363.275,178.234 L 361.793,169.157 L 371.241,167.627 L 374.096,146.441 L 374.551,142.928 L 391.427,145.575 L 392.964,145.84"/></g></svg>