<svg xmlns="http://www.w3.org/2000/svg" role="img" viewBox="1383.96 375.47 37.57 36.88"><title>Somerville</title><g id="g14955" fill="#fefee9" fill-opacity="1" fill-rule="evenodd" stroke="#000" stroke-linecap="square" stroke-linejoin="bevel" stroke-opacity="1" stroke-width=".098" transform="translate(-216.714 -21.7) scale(2.264)"><path id="path15411" fill-rule="evenodd" d="M 707.41,180.585 L 707.401,180.368 L 707.405,180.244 L 707.416,180.135 L 707.45,179.954 L 707.475,179.828 L 707.534,179.684 L 707.622,179.572 L 707.719,179.426 L 707.866,179.138 L 707.977,178.894 L 708.017,178.805 L 708.037,178.724 L 708.026,178.618 L 708.012,178.512 L 707.986,178.4 L 707.926,178.201 L 707.874,178.013 L 707.86,177.785 L 707.882,177.609 L 707.901,177.405 L 707.924,177.253 L 707.96,176.997 L 707.956,176.924 L 707.937,176.803 L 708.071,176.784 L 708.148,176.725 L 708.165,176.644 L 708.157,176.495 L 708.15,176.318 L 708.204,176.195 L 708.277,176.172 L 708.397,176.106 L 708.542,176.031 L 708.668,175.963 L 708.779,175.919 L 708.893,175.877 L 709.007,175.847 L 709.304,175.799 L 709.309,176.047 L 709.363,176.277 L 708.611,177.453 L 709.36,177.8 L 709.083,178.381 L 709.534,178.877 L 709.666,178.601 L 709.988,178.744 L 710.315,178.903 L 710.161,179.217 L 710.742,179.512 L 710.703,179.607 L 711.278,179.881 L 711.318,179.807 L 712.339,180.281 L 712.324,180.738 L 712.331,180.882 L 712.344,181.001 L 712.368,181.107 L 712.391,181.187 L 712.431,181.257 L 712.471,181.308 L 712.685,181.678 L 712.727,181.727 L 713.021,181.879 L 715.26,182.932 L 716.17,183.351 L 717.239,181.658 L 717.806,182.122 L 717.946,182.221 L 718.047,182.268 L 718.158,182.304 L 718.25,182.326 L 718.343,182.347 L 718.462,182.367 L 718.549,182.451 L 718.746,182.483 L 718.99,182.355 L 719.241,182.298 L 719.705,182.107 L 719.941,182.178 L 720.171,182.397 L 720.344,182.302 L 720.438,182.324 L 720.478,182.388 L 720.486,182.49 L 720.566,182.677 L 720.693,182.835 L 721.309,183.093 L 721.671,183.175 L 721.782,183.262 L 721.908,183.348 L 722.247,183.409 L 722.295,183.457 L 722.383,183.731 L 722.391,183.858 L 722.4,183.985 L 722.647,184.563 L 722.679,184.736 L 722.735,184.886 L 722.848,185.179 L 721.485,187.871 L 721.331,187.951 L 721.255,187.995 L 721.192,188.053 L 721.22,188.297 L 721.22,188.501 L 722.503,188.778 L 723.055,190.537 L 723.249,191.153 L 723.16,191.144 L 722.815,191.361 L 722.613,191.33 L 722.45,191.115 L 722.151,191.025 L 721.952,191.02 L 721.858,191.012 L 721.73,190.985 L 721.631,190.958 L 721.526,190.939 L 721.451,190.889 L 721.179,190.854 L 721.055,190.949 L 720.887,191.044 L 720.767,191.115 L 720.569,191.147 L 720.501,191.176 L 720.438,191.195 L 720.369,191.195 L 720.284,191.159 L 720.204,191.1 L 719.998,190.925 L 719.836,191.238 L 718.894,190.956 L 717.912,190.852 L 716.923,190.781 L 716.253,190.8 L 715.969,190.832 L 715.546,190.823 L 715.326,190.577 L 714.196,189.164 L 714.268,189.132 L 713.557,188.323 L 713.327,188.296 L 712.326,187.187 L 711.969,186.607 L 711.607,186.165 L 711.676,186.125 L 711.826,186.031 L 711.685,185.814 L 711.954,185.642 L 711.098,184.56 L 710.917,184.265 L 710.436,184.699 L 710.013,184.158 L 709.82,183.896 L 709.299,183.09 L 708.216,181.462 L 707.41,180.585"/></g></svg>