<svg xmlns="http://www.w3.org/2000/svg" role="img" viewBox="1123.15 443.77 60.52 55.27"><title>Southborough</title><g id="g14955" fill="#fefee9" fill-opacity="1" fill-rule="evenodd" stroke="#000" stroke-linecap="square" stroke-linejoin="bevel" stroke-opacity="1" stroke-width=".098" transform="translate(-216.714 -21.7) scale(2.264)"><path id="path15517" fill-rule="evenodd" d="M 617.549,206.283 L 617.987,208.707 L 617.753,212.819 L 614.933,220.14 L 614.329,221.784 L 612.704,225.971 L 612.676,228.207 L 612.638,228.856 L 612.579,228.898 L 612.48,228.939 L 612.371,228.995 L 612.318,229.02 L 612.149,229.038 L 612.052,229.017 L 611.972,228.999 L 611.899,228.974 L 611.805,228.932 L 611.719,228.906 L 611.682,228.839 L 611.667,228.77 L 611.609,228.738 L 611.558,228.684 L 611.525,228.632 L 611.538,228.544 L 611.564,228.489 L 611.572,228.405 L 611.475,228.353 L 611.4,228.366 L 611.307,228.402 L 611.236,228.415 L 611.175,228.407 L 611.116,228.363 L 611.06,228.305 L 610.984,228.234 L 610.926,228.163 L 610.818,228.067 L 610.586,227.911 L 610.472,227.851 L 610.39,227.823 L 610.276,227.824 L 610.185,227.835 L 610.091,227.852 L 610.002,227.859 L 609.908,227.856 L 609.772,227.843 L 609.658,227.832 L 609.538,227.831 L 609.432,227.851 L 609.355,227.878 L 609.288,227.889 L 609.221,227.912 L 609.167,227.941 L 609.114,227.99 L 609.062,228.056 L 609.026,228.105 L 608.976,228.154 L 608.919,228.171 L 608.842,228.194 L 608.748,228.207 L 608.647,228.219 L 608.529,228.22 L 608.468,228.22 L 608.344,228.226 L 608.275,228.251 L 608.188,228.298 L 608.127,228.329 L 608.06,228.363 L 607.969,228.398 L 607.872,228.401 L 607.788,228.383 L 607.707,228.354 L 607.608,228.316 L 607.523,228.292 L 607.018,228.241 L 606.831,228.248 L 606.662,228.25 L 606.447,228.271 L 606.302,228.299 L 606.168,228.31 L 606.063,228.317 L 605.983,228.328 L 605.872,228.368 L 605.816,228.413 L 605.729,228.481 L 605.654,228.537 L 605.591,228.582 L 605.521,228.632 L 605.44,228.661 L 605.367,228.686 L 605.285,228.693 L 605.21,228.712 L 605.125,228.733 L 605.044,228.76 L 604.996,228.796 L 604.953,228.837 L 604.813,228.866 L 604.697,228.876 L 604.59,228.877 L 604.526,228.875 L 604.439,228.884 L 604.359,229.001 L 604.325,229.089 L 604.273,229.181 L 604.209,229.281 L 604.147,229.347 L 604.09,229.398 L 604.038,229.44 L 603.936,229.471 L 603.82,229.438 L 603.744,229.384 L 603.67,229.307 L 603.635,229.257 L 603.594,229.208 L 603.553,229.159 L 603.506,229.121 L 603.44,229.092 L 603.347,229.082 L 603.276,229.073 L 603.216,229.059 L 603.133,229.034 L 603.064,229.038 L 602.97,229.017 L 602.902,228.983 L 602.849,228.904 L 602.899,228.835 L 602.843,228.784 L 602.793,228.815 L 602.712,228.885 L 602.568,228.882 L 602.476,228.841 L 602.418,228.754 L 602.403,228.667 L 602.34,228.643 L 602.25,228.627 L 602.185,228.658 L 602.007,228.577 L 601.881,228.521 L 601.846,228.471 L 601.734,228.437 L 601.646,228.428 L 601.525,228.354 L 603.808,227.835 L 593.706,214.611 L 592.383,212.877 L 596.537,209.641 L 601.137,207.549 L 609.957,206.168 L 612.213,207.002 L 614.282,206.715 L 614.348,206.731 L 617.549,206.283"/></g></svg>