<svg xmlns="http://www.w3.org/2000/svg" role="img" viewBox="521.16 459.03 59.68 76.18"><title>South Hadley</title><g id="g14955" fill="#fefee9" fill-opacity="1" fill-rule="evenodd" stroke="#000" stroke-linecap="square" stroke-linejoin="bevel" stroke-opacity="1" stroke-width=".098" transform="translate(-216.714 -21.7) scale(2.264)"><path id="path15543" fill-rule="evenodd" d="M 351.58,214.579 L 351.55,215.096 L 350.712,215.711 L 350.417,215.743 L 350.33,215.787 L 350.169,215.909 L 350.044,215.995 L 349.998,216.049 L 349.946,216.129 L 349.841,216.34 L 349.797,216.411 L 349.769,216.469 L 349.713,216.549 L 349.665,216.596 L 349.591,216.658 L 349.542,216.689 L 349.46,216.741 L 349.403,216.772 L 349.342,216.803 L 349.247,216.833 L 349.14,216.861 L 349.008,216.897 L 348.942,216.957 L 348.867,217.017 L 348.833,217.066 L 348.773,217.126 L 348.685,217.245 L 348.627,217.307 L 348.536,217.363 L 348.478,217.434 L 348.456,217.512 L 348.396,217.604 L 348.375,217.682 L 348.357,217.739 L 348.35,217.829 L 348.345,217.908 L 348.356,217.969 L 348.348,218.095 L 348.374,218.473 L 348.386,218.554 L 348.362,218.618 L 348.338,218.687 L 348.309,218.744 L 348.293,218.804 L 348.256,218.912 L 348.236,219 L 348.221,219.079 L 348.204,219.214 L 348.193,219.306 L 348.158,219.377 L 347.999,219.682 L 347.827,219.752 L 347.651,219.835 L 347.517,219.879 L 347.396,219.911 L 347.16,219.979 L 347.027,219.999 L 346.939,220.02 L 346.856,220.042 L 346.799,220.049 L 346.735,220.068 L 346.672,220.097 L 343.6,221.635 L 344.241,232.163 L 344.355,233.924 L 346.486,243.771 L 334.929,245.263 L 334.699,245.299 L 334.596,245.313 L 334.476,245.315 L 334.396,245.322 L 334.334,245.301 L 334.263,245.3 L 334.103,245.286 L 333.994,245.27 L 333.884,245.245 L 333.792,245.226 L 333.693,245.234 L 333.603,245.193 L 333.549,245.173 L 333.386,245.123 L 333.208,245.09 L 333.031,245.04 L 332.949,245.014 L 332.839,244.982 L 332.738,244.945 L 332.573,244.885 L 332.497,244.851 L 332.37,244.794 L 332.292,244.759 L 332.2,244.722 L 332.108,244.683 L 332.038,244.633 L 331.929,244.582 L 331.869,244.547 L 331.814,244.515 L 331.74,244.488 L 331.664,244.43 L 331.59,244.372 L 331.528,244.337 L 331.341,244.196 L 331.25,244.128 L 331.178,244.072 L 331.048,243.987 L 330.993,243.935 L 330.919,243.882 L 330.844,243.81 L 330.774,243.734 L 330.668,243.636 L 330.626,243.574 L 330.571,243.517 L 330.496,243.437 L 330.444,243.381 L 330.376,243.307 L 330.301,243.231 L 330.255,243.157 L 330.201,243.079 L 330.153,242.98 L 330.093,242.845 L 330.066,242.776 L 330.038,242.699 L 330.028,242.612 L 329.987,242.554 L 329.971,242.465 L 329.959,242.392 L 329.925,242.259 L 329.876,242.042 L 329.868,241.944 L 329.842,241.825 L 329.832,241.74 L 329.825,241.683 L 329.816,241.625 L 329.804,241.525 L 329.774,241.406 L 329.772,241.337 L 329.745,241.276 L 329.726,241.214 L 329.697,241.108 L 329.668,241.048 L 329.62,240.963 L 329.571,240.873 L 329.544,240.818 L 329.504,240.746 L 329.448,240.659 L 329.396,240.587 L 329.345,240.513 L 329.295,240.424 L 329.156,240.256 L 329.021,240.11 L 328.901,239.996 L 328.749,239.889 L 328.566,239.77 L 328.383,239.649 L 328.18,239.516 L 327.972,239.398 L 327.756,239.253 L 327.43,239.082 L 327.255,238.967 L 327.039,238.8 L 326.939,238.686 L 326.856,238.557 L 326.818,238.485 L 326.788,238.418 L 326.74,238.299 L 326.721,238.033 L 326.697,237.798 L 326.677,237.636 L 326.661,237.48 L 326.658,237.358 L 326.65,237.222 L 326.64,237.121 L 326.661,237.023 L 326.665,236.915 L 326.676,236.829 L 327.378,234.808 L 327.716,233.883 L 327.954,233.261 L 328.083,232.95 L 328.176,232.742 L 328.26,232.565 L 328.661,231.929 L 328.933,231.483 L 329.028,231.321 L 329.177,231.021 L 329.291,230.772 L 329.409,230.556 L 329.58,230.333 L 329.68,230.195 L 329.757,230.06 L 329.949,229.646 L 330.029,229.531 L 330.167,229.365 L 330.361,229.124 L 330.437,229.03 L 330.811,228.543 L 330.931,228.397 L 331.06,228.274 L 332.683,226.926 L 332.781,226.876 L 332.87,226.793 L 332.908,226.713 L 332.964,226.646 L 332.995,226.527 L 333.034,226.419 L 333.069,226.307 L 333.109,226.188 L 333.162,226.084 L 333.189,225.968 L 333.204,225.839 L 333.223,225.736 L 333.226,225.63 L 333.264,225.218 L 333.262,225.107 L 333.261,224.954 L 333.244,224.783 L 333.15,223.581 L 333.143,223.455 L 333.148,223.345 L 333.116,223.221 L 333.076,223.114 L 333.061,223.041 L 333.045,222.966 L 333.022,222.883 L 333.003,222.824 L 332.962,222.741 L 332.899,222.634 L 332.839,222.515 L 332.799,222.428 L 332.778,222.31 L 332.774,222.219 L 332.787,222.086 L 332.804,221.958 L 332.815,221.835 L 332.803,221.74 L 332.778,221.641 L 332.762,221.523 L 332.724,221.393 L 332.703,221.3 L 332.511,221.045 L 332.443,220.95 L 332.394,220.888 L 332.068,220.51 L 331.92,220.34 L 331.818,220.26 L 331.734,220.206 L 331.681,220.18 L 331.568,220.148 L 331.486,220.124 L 331.363,220.095 L 331.042,220.02 L 330.487,219.907 L 332.501,218.949 L 332.56,218.949 L 332.683,218.777 L 334.272,216.787 L 336.184,214.748 L 339.076,213.827 L 340.971,213.375 L 342.074,213.634 L 347.285,213.076 L 348.481,213.639 L 349.688,213.603 L 350.687,213.813 L 351.58,214.579"/></g></svg>