<svg xmlns="http://www.w3.org/2000/svg" role="img" viewBox="394.61 615.11 80.78 85.15"><title>Southwick</title><g id="g14955" fill="#fefee9" fill-opacity="1" fill-rule="evenodd" stroke="#000" stroke-linecap="square" stroke-linejoin="bevel" stroke-opacity="1" stroke-width=".098" transform="translate(-216.714 -21.7) scale(2.264)"><path id="path15765" fill-rule="evenodd" d="M 304.946,289.914 L 304.722,292.3 L 304.883,292.433 L 304.315,295.515 L 304.421,297.31 L 304.287,298.579 L 303.885,299.763 L 303.51,300.559 L 303.336,301.114 L 303.059,302.533 L 303.094,303.522 L 302.911,304.29 L 302.564,304.994 L 302.561,305.118 L 301.38,305.106 L 297.856,305.083 L 293.549,305.056 L 291.916,305.052 L 291.918,305.235 L 291.91,305.335 L 291.904,305.429 L 291.878,305.533 L 291.818,305.608 L 291.751,305.692 L 291.696,305.785 L 291.661,305.853 L 291.652,305.924 L 291.603,306.005 L 291.576,306.07 L 291.655,306.079 L 291.739,306.105 L 291.815,306.137 L 291.896,306.179 L 291.971,306.21 L 292.056,306.253 L 292.13,306.293 L 292.227,306.346 L 292.299,306.399 L 292.369,306.446 L 292.463,306.52 L 292.521,306.571 L 292.595,306.631 L 292.641,306.68 L 292.716,306.756 L 292.756,306.818 L 292.79,306.897 L 292.84,307.02 L 292.886,307.115 L 292.925,307.209 L 292.948,307.313 L 292.94,307.427 L 292.929,307.494 L 292.901,307.592 L 292.868,307.662 L 292.832,307.726 L 292.779,307.809 L 292.734,307.872 L 292.688,307.928 L 292.637,307.992 L 292.566,308.085 L 292.526,308.135 L 292.482,308.187 L 292.421,308.278 L 292.386,308.362 L 292.36,308.456 L 292.337,308.513 L 292.314,308.597 L 292.281,308.659 L 292.238,308.731 L 292.196,308.775 L 291.991,308.988 L 291.939,309.044 L 291.904,309.133 L 291.89,309.192 L 291.865,309.27 L 291.842,309.358 L 291.782,309.469 L 291.753,309.545 L 291.721,309.612 L 291.695,309.68 L 291.686,309.761 L 291.694,309.839 L 291.69,309.944 L 291.673,310.028 L 291.631,310.121 L 291.582,310.201 L 291.524,310.288 L 291.475,310.334 L 291.413,310.378 L 291.332,310.402 L 291.263,310.409 L 291.204,310.416 L 291.126,310.4 L 291.032,310.359 L 290.991,310.293 L 290.977,310.206 L 290.98,310.132 L 290.972,310.061 L 290.954,309.995 L 290.916,309.926 L 290.827,309.849 L 290.72,309.794 L 290.648,309.757 L 290.57,309.73 L 290.497,309.73 L 290.403,309.792 L 290.373,309.846 L 290.324,309.924 L 290.282,309.966 L 290.2,310.035 L 290.074,310.131 L 289.928,310.307 L 289.755,310.508 L 289.64,310.667 L 289.694,310.704 L 289.759,310.723 L 289.815,310.739 L 289.907,310.767 L 289.964,310.784 L 290.038,310.807 L 290.096,310.875 L 290.078,310.944 L 290.083,311.01 L 290.126,311.094 L 290.138,311.193 L 290.15,311.287 L 290.185,311.373 L 290.25,311.458 L 290.3,311.525 L 290.362,311.571 L 290.428,311.616 L 290.497,311.625 L 290.565,311.646 L 290.64,311.634 L 290.727,311.618 L 290.786,311.635 L 290.802,311.694 L 290.763,311.766 L 290.55,312.165 L 290.523,312.229 L 290.502,312.317 L 290.477,312.399 L 290.456,312.466 L 290.381,312.529 L 290.321,312.583 L 290.25,312.631 L 290.19,312.647 L 290.048,312.757 L 290.002,312.833 L 289.965,312.963 L 289.948,313.06 L 289.931,313.116 L 289.916,313.244 L 289.914,313.36 L 289.952,313.431 L 290.017,313.482 L 290.064,313.528 L 290.092,313.592 L 290.124,313.675 L 290.184,313.769 L 290.217,313.826 L 290.223,313.899 L 290.225,313.978 L 290.267,314.044 L 290.323,314.088 L 290.379,314.14 L 290.386,314.198 L 290.369,314.264 L 290.326,314.328 L 290.232,314.403 L 290.131,314.434 L 290.081,314.469 L 290.004,314.497 L 289.911,314.521 L 289.794,314.559 L 289.688,314.575 L 289.621,314.578 L 289.562,314.576 L 289.493,314.563 L 289.444,314.594 L 289.382,314.638 L 289.3,314.685 L 289.252,314.735 L 289.19,314.763 L 289.105,314.823 L 289.086,314.889 L 288.952,316.409 L 286.857,316.689 L 281.821,317.37 L 276.05,318.136 L 276.116,317.284 L 276.616,310.835 L 277.087,304.725 L 271.658,304.483 L 271.831,300.422 L 271.978,297.161 L 271.35,295.767 L 270.801,293.419 L 271.632,291.62 L 272.548,288.307 L 272.309,284.802 L 271.434,282.078 L 293.81,287.315 L 304.946,289.914"/></g></svg>