<svg xmlns="http://www.w3.org/2000/svg" role="img" viewBox="411.06 478.93 88.14 77.77"><title>Southampton</title><g id="g14955" fill="#fefee9" fill-opacity="1" fill-rule="evenodd" stroke="#000" stroke-linecap="square" stroke-linejoin="bevel" stroke-opacity="1" stroke-width=".098" transform="translate(-216.714 -21.7) scale(2.264)"><path id="path15567" fill-rule="evenodd" d="M 298.15,222.432 L 301.002,221.957 L 301.151,221.951 L 301.204,221.977 L 301.318,221.993 L 301.409,222.069 L 301.492,222.131 L 301.57,222.193 L 301.623,222.229 L 301.71,222.282 L 301.786,222.32 L 301.892,222.367 L 301.972,222.384 L 302.052,222.436 L 302.111,222.453 L 302.191,222.47 L 302.276,222.483 L 302.356,222.482 L 302.429,222.479 L 302.512,222.476 L 302.606,222.466 L 302.74,222.446 L 302.799,222.441 L 302.856,222.434 L 302.917,222.433 L 303.031,222.442 L 303.131,222.454 L 303.231,222.475 L 303.31,222.493 L 303.427,222.531 L 303.482,222.549 L 303.55,222.57 L 303.62,222.606 L 303.679,222.605 L 303.742,222.635 L 303.813,222.623 L 303.88,222.63 L 303.97,222.652 L 304.112,222.629 L 304.179,222.608 L 304.238,222.607 L 304.325,222.675 L 304.352,222.733 L 304.355,222.81 L 304.361,222.898 L 304.388,222.973 L 304.4,223.042 L 304.403,223.103 L 304.422,223.192 L 304.483,223.276 L 304.532,223.314 L 304.606,223.37 L 304.668,223.444 L 304.676,223.52 L 304.693,223.597 L 304.708,223.663 L 304.709,223.721 L 304.692,223.802 L 304.671,223.867 L 304.695,223.948 L 304.748,223.996 L 304.788,224.037 L 304.831,224.097 L 304.863,224.182 L 304.933,224.213 L 304.999,224.271 L 305.026,224.332 L 305.024,224.428 L 305.029,224.494 L 305.046,224.58 L 305.098,224.662 L 305.157,224.737 L 305.226,224.858 L 305.281,224.918 L 305.375,224.925 L 305.459,224.929 L 305.538,224.928 L 305.594,224.866 L 305.591,224.801 L 305.594,224.738 L 305.679,224.71 L 305.739,224.748 L 305.817,224.78 L 305.895,224.823 L 305.934,224.867 L 305.986,224.928 L 306.07,224.979 L 306.155,224.974 L 306.217,224.987 L 306.302,224.978 L 306.367,224.973 L 306.436,224.972 L 306.493,224.989 L 306.551,225.027 L 306.612,225.032 L 306.691,225.027 L 306.761,225.066 L 306.83,225.08 L 306.924,225.105 L 306.97,225.167 L 307.06,225.186 L 307.125,225.173 L 307.222,225.129 L 307.321,225.086 L 307.375,225.035 L 307.421,224.959 L 307.488,224.96 L 307.562,224.989 L 307.609,225.031 L 307.661,225.095 L 307.695,225.16 L 307.714,225.245 L 307.74,225.359 L 307.74,225.464 L 307.751,225.533 L 307.769,225.6 L 307.822,225.642 L 307.877,225.666 L 307.945,225.726 L 307.999,225.79 L 308.061,225.858 L 308.294,226.145 L 308.362,226.218 L 308.42,226.272 L 308.441,226.336 L 308.437,226.475 L 308.385,226.534 L 308.332,226.611 L 308.29,226.686 L 308.21,226.795 L 308.175,226.891 L 308.125,226.949 L 308.062,226.958 L 307.996,226.982 L 308.025,227.058 L 308.038,227.127 L 308.047,227.188 L 307.981,227.236 L 307.901,227.29 L 307.799,227.31 L 307.753,227.364 L 307.782,227.416 L 307.828,227.476 L 307.76,227.526 L 307.702,227.59 L 307.689,227.659 L 307.686,227.735 L 307.697,227.799 L 307.68,227.903 L 307.663,227.961 L 307.632,228.061 L 307.645,228.122 L 307.681,228.19 L 307.72,228.265 L 307.776,228.333 L 307.781,228.398 L 307.745,228.445 L 307.714,228.517 L 307.664,228.567 L 307.614,228.606 L 307.588,228.541 L 307.553,228.487 L 307.505,228.533 L 307.52,228.595 L 307.484,228.649 L 307.397,228.642 L 307.32,228.673 L 307.371,228.715 L 307.415,228.76 L 307.456,228.808 L 307.585,228.784 L 307.543,228.904 L 307.458,228.938 L 307.383,228.937 L 307.317,228.914 L 307.233,228.952 L 307.186,228.985 L 307.148,229.036 L 307.172,229.103 L 307.161,229.16 L 307.098,229.19 L 307.021,229.209 L 306.954,229.226 L 307.024,229.307 L 309.516,231.715 L 311.724,233.803 L 311.216,234.394 L 311.134,234.613 L 310.992,234.963 L 310.917,235.153 L 310.89,235.235 L 310.638,235.627 L 310.536,235.781 L 310.475,235.882 L 310.448,235.957 L 310.435,236.043 L 310.438,236.126 L 310.457,236.207 L 310.486,236.309 L 310.573,236.596 L 310.603,236.704 L 310.669,236.745 L 310.781,237.035 L 310.805,237.26 L 310.82,237.355 L 310.841,237.546 L 310.843,237.656 L 310.842,237.744 L 310.835,238.092 L 310.83,238.315 L 310.818,238.405 L 310.811,238.484 L 310.747,238.865 L 310.747,238.981 L 310.721,239.143 L 310.714,239.236 L 310.69,239.523 L 310.683,239.588 L 310.624,239.88 L 310.562,240.263 L 310.533,240.347 L 310.522,240.408 L 310.435,240.574 L 310.402,240.685 L 310.342,241.019 L 315.43,240.303 L 314.79,243.378 L 309.563,244.467 L 310.047,248.734 L 310.486,252.233 L 310.52,252.6 L 310.535,252.746 L 310.542,252.817 L 310.537,252.884 L 310.509,253.078 L 310.467,253.264 L 310.437,253.447 L 310.424,253.673 L 310.339,254.693 L 307.526,253.975 L 300.675,252.281 L 295.597,250.973 L 294.332,250.653 L 286.309,248.73 L 286.141,242.673 L 283.617,242.616 L 283.347,235.884 L 278.435,236.455 L 278.282,233.017 L 278.209,231.258 L 278.104,228.926 L 294.704,226.426 L 298.241,225.906 L 298.15,222.432"/></g></svg>