<svg xmlns="http://www.w3.org/2000/svg" role="img" viewBox="520.88 570.88 91.00 80.13"><title>Springfield</title><g id="g14955" fill="#fefee9" fill-opacity="1" fill-rule="evenodd" stroke="#000" stroke-linecap="square" stroke-linejoin="bevel" stroke-opacity="1" stroke-width=".098" transform="translate(-216.714 -21.7) scale(2.264)"><path id="path15719" fill-rule="evenodd" d="M 353.994,263.028 L 354.085,263.027 L 354.168,263.028 L 354.261,263.018 L 354.367,263.018 L 354.461,263.003 L 354.544,262.995 L 354.638,263.014 L 354.703,263.023 L 354.845,263.041 L 354.925,263.064 L 355.033,263.089 L 355.121,263.114 L 355.266,263.15 L 355.327,263.141 L 355.441,263.115 L 355.542,263.089 L 355.651,263.064 L 355.736,263.045 L 355.842,263.015 L 355.94,262.98 L 356.041,262.94 L 356.124,262.894 L 356.211,262.854 L 356.285,262.804 L 356.363,262.748 L 356.456,262.683 L 356.506,262.652 L 356.597,262.612 L 356.688,262.607 L 356.77,262.607 L 356.853,262.612 L 356.925,262.621 L 356.98,262.64 L 357.029,262.674 L 357.087,262.71 L 357.168,262.717 L 357.238,262.76 L 357.32,262.767 L 357.415,262.783 L 357.482,262.77 L 357.618,262.752 L 357.73,262.768 L 358.21,262.828 L 358.552,262.888 L 358.775,262.944 L 358.895,262.955 L 359.158,262.983 L 359.291,262.986 L 359.433,262.992 L 359.561,262.989 L 359.659,262.993 L 359.918,262.991 L 360.044,262.976 L 360.121,262.968 L 360.248,262.948 L 360.4,262.904 L 360.628,262.842 L 360.74,262.797 L 360.783,262.838 L 360.83,262.899 L 360.85,262.98 L 360.854,263.046 L 360.857,263.135 L 360.827,263.247 L 360.804,263.312 L 360.764,263.387 L 360.74,263.446 L 360.715,263.507 L 360.701,263.577 L 360.712,263.66 L 360.777,263.719 L 360.854,263.723 L 360.922,263.713 L 361.007,263.664 L 361.121,263.577 L 361.228,263.493 L 361.306,263.428 L 361.389,263.381 L 361.446,263.402 L 361.517,263.434 L 361.573,263.516 L 361.55,263.591 L 361.5,263.678 L 361.457,263.719 L 361.313,263.805 L 361.226,263.856 L 361.161,263.903 L 361.118,263.976 L 361.08,264.035 L 361.114,264.104 L 361.143,264.183 L 361.225,264.253 L 361.384,264.372 L 361.468,264.415 L 361.521,264.441 L 361.614,264.472 L 361.688,264.496 L 361.753,264.518 L 361.834,264.553 L 361.946,264.591 L 362.072,264.681 L 363.578,275.426 L 365.185,287.648 L 357.926,288.791 L 347.602,290.391 L 348.232,295.693 L 348.312,296.369 L 334.806,293.301 L 334.893,293.112 L 334.969,292.968 L 335.43,292.296 L 335.715,291.971 L 336.098,291.523 L 336.144,291.476 L 336.198,291.422 L 336.252,291.358 L 336.312,291.291 L 336.344,291.211 L 336.388,291.145 L 336.426,291.09 L 336.467,291.016 L 336.485,290.953 L 336.519,290.879 L 336.56,290.8 L 336.551,290.71 L 336.564,290.627 L 336.587,290.512 L 336.589,290.364 L 336.582,290.269 L 336.568,290.136 L 336.541,289.923 L 336.5,289.716 L 336.223,288.221 L 336.137,287.994 L 336.048,287.704 L 336.026,287.583 L 335.974,287.5 L 335.949,287.41 L 335.857,287.235 L 335.85,287.176 L 335.803,287.113 L 335.771,287.045 L 335.12,286.06 L 334.945,285.824 L 334.376,285.042 L 334.084,284.6 L 334.021,284.544 L 333.969,284.479 L 333.038,283.586 L 332.917,283.49 L 332.837,283.428 L 332.738,283.35 L 332.652,283.292 L 332.583,283.242 L 332.497,283.194 L 332.294,283.06 L 332.11,282.944 L 331.942,282.841 L 331.713,282.715 L 331.255,282.487 L 329.936,281.737 L 329.57,281.499 L 328.87,280.908 L 328.745,280.786 L 328.609,280.645 L 328.351,280.38 L 328.297,280.303 L 328.225,280.2 L 327.197,278.525 L 327.092,278.365 L 326.968,278.143 L 326.912,277.986 L 326.887,277.899 L 326.868,277.836 L 326.646,276.762 L 326.631,276.693 L 326.626,276.612 L 326.621,276.508 L 326.622,276.427 L 326.629,276.333 L 326.631,276.246 L 326.653,276.189 L 326.671,276.116 L 326.693,275.979 L 326.718,275.89 L 326.757,275.742 L 326.777,275.6 L 326.813,275.463 L 327.735,274.993 L 347.501,264.145 L 347.62,264.076 L 347.612,264.184 L 347.595,264.255 L 347.617,264.359 L 347.626,264.426 L 347.64,264.537 L 347.662,264.63 L 347.694,264.703 L 347.715,264.759 L 347.769,264.838 L 347.827,264.898 L 347.887,264.948 L 347.955,264.995 L 348.025,265.019 L 348.127,265.047 L 348.192,265.022 L 348.267,265.039 L 348.336,265.028 L 348.4,264.962 L 348.494,264.905 L 348.543,264.86 L 348.588,264.804 L 348.629,264.71 L 348.664,264.618 L 348.702,264.451 L 348.721,264.383 L 348.768,264.287 L 348.798,264.236 L 348.852,264.172 L 348.916,264.134 L 348.981,264.111 L 349.068,264.115 L 349.16,264.146 L 349.238,264.137 L 349.307,264.144 L 349.368,264.145 L 349.443,264.14 L 349.526,264.124 L 349.656,264.1 L 349.739,264.072 L 349.883,264.037 L 349.949,264.03 L 350.018,264.014 L 350.089,263.995 L 350.158,263.968 L 350.249,263.974 L 350.329,263.965 L 350.444,263.941 L 350.521,263.915 L 350.628,263.879 L 350.717,263.853 L 350.802,263.802 L 350.91,263.746 L 350.991,263.704 L 351.106,263.639 L 351.437,263.404 L 351.604,263.296 L 351.67,263.248 L 351.749,263.192 L 351.831,263.15 L 351.938,263.091 L 352.053,263.054 L 352.097,263.011 L 352.162,263.01 L 352.265,262.96 L 352.334,262.946 L 352.401,262.923 L 352.464,262.91 L 352.526,262.892 L 352.589,262.879 L 352.66,262.87 L 352.748,262.862 L 352.809,262.859 L 352.93,262.855 L 353.022,262.848 L 353.087,262.851 L 353.156,262.854 L 353.217,262.865 L 353.279,262.874 L 353.352,262.891 L 353.452,262.93 L 353.802,263.028 L 353.904,263.042 L 353.994,263.028"/></g></svg>