<svg xmlns="http://www.w3.org/2000/svg" role="img" viewBox="1375.07 572.57 57.36 74.36"><title>Stoughton</title><path fill-rule="evenodd" d="M1430.9437 582.1088l-3.87597 9.83029-.34413.76523-.38035.74486-.50035.7924-3.10168 4.7793 1.68442 5.47209 4.48272 14.15679-.56374 2.9749-11.0936 5.96564-25.42019 13.5455-8.22737 4.30614-.24225-1.71612.36677-1.23161-.22867-.1698-.0566-.15848-.09056-.1381-.07697-.22867-.09283-.1947-.0498-.19924-.03623-.19696-.02717-.18792.00453-.20376.01358-.33507.02038-.2762-.00453-.21961-.00453-.23093-.03622-.17886-.03622-.2264-.04076-.2015-.04528-.1879.04302-.19471.06566-.38488.09056-.26262.10188-.3215.1449-.27167.10187-.57732-.0498-.23546-.21509-.3328-.06792-.14264-.0317-.19244.02718-.26262.09282-.38941.1766-.38262.20828-.50034.18791-.38488.32149-1.39236.14716-.1698.15848-.12226.15622-.21508.2264-.26262.0815-.15169.11773-.36677.41657-1.26784.20376-.83541.22414-.69505.16074-.36224.19018-.50034.18112-.48676.1698-.3147.15395-.2898.08603-.19696.06566-.27168.0883-.36224.07924-.5162.08376-.33506.05208-.2015.15621-.27168.14716-.41205.20829-.4777.10414-.35771.04981-.33508.00453-.16527-.0498-.32828-.03623-.45053-.17207-.8558-.0815-.65656.03849-1.03917-.16075-.54789.18112-.02717-.07244-.33733-.11094-.25357-.06792-.25583-.14716-.29659-.15622-.45053-.12678-.35545-.16527-.59317-.10415-.51393-.0883-.32375-.0815-.18338-.13357-.1766-.07471-.11999-.14037-.12905-.65203-.76523-.28074-.33733-.0498-.12905-.0702-.19697-.05433-.2762-.0498-.40074-.0951-.3079-.16074-.5728-.34186-.95314-.33055-.80824-.29658-.72901-.23546-.42563-.19923-.35998-.24451-.403-.17206-.22866-.21282-.21281-.22414-.24678-3.0881-2.80736-.75843-.8739-.09509-.14263-.73354-1.51915-.0249-.36903.0068-.85353-.00454-.5026-.0317-.1517-.06791-.28526-.26489-.82862-.49355-1.36067-.07924-.59996-.06792-.65656-.01811-.5841.56147-1.77725 2.6353.7109 2.17343-.26263.52299-1.4331.63618-.24226.02264-.20602.0249-.20829.02265-.2196-.01359-.15396-.06792-.12452.06566-.18791.0566-.28526.22187-.14037.09056-.12452.163-.16075 1.48972.45733.28526-1.4716 2.08741.72901.01811.21508-.45053 2.4338.05433.12452 4.27217-1.39915 16.82831-5.49247 16.69248-12.66481 5.84112 7.98739" fill="#fefee9" fill-opacity="1" stroke="#000" stroke-linecap="square" stroke-linejoin="bevel" stroke-opacity="1" stroke-width=".22187199999999999"/></svg>