<svg xmlns="http://www.w3.org/2000/svg" role="img" viewBox="543.39 299.89 43.10 70.85"><title>Sunderland</title><g id="g14955" fill="#fefee9" fill-opacity="1" fill-rule="evenodd" stroke="#000" stroke-linecap="square" stroke-linejoin="bevel" stroke-opacity="1" stroke-width=".098" transform="translate(-216.714 -21.7) scale(2.264)"><path id="path15309" fill-rule="evenodd" d="M 354.169,142.741 L 353.887,146.226 L 353.13,154.347 L 350.464,160.509 L 350.49,166.087 L 351.279,170.757 L 347.901,171.29 L 338.885,172.669 L 338.459,172.723 L 338.196,171.822 L 338.17,171.733 L 338.154,171.626 L 338.131,171.496 L 338.13,171.415 L 338.104,171.33 L 338.076,171.228 L 338.035,171.101 L 337.982,170.968 L 337.861,170.347 L 337.712,169.622 L 337.696,169.51 L 337.675,169.437 L 337.677,169.338 L 337.393,168.23 L 337.375,168.141 L 337.359,168.025 L 337.121,166.957 L 336.933,166.092 L 336.809,165.541 L 336.596,164.485 L 336.467,163.736 L 336.452,163.336 L 336.43,162.657 L 336.435,162.391 L 336.463,161.982 L 336.51,161.542 L 336.565,161.049 L 336.634,160.679 L 336.893,159.502 L 337.008,159.01 L 337.092,158.76 L 337.622,157.495 L 337.825,156.998 L 337.909,156.799 L 338.013,156.545 L 338.03,156.476 L 338.059,156.4 L 338.179,156.128 L 338.274,155.961 L 338.355,155.84 L 338.472,155.659 L 338.689,155.361 L 338.906,155.083 L 338.948,155.031 L 338.982,154.984 L 339.032,154.936 L 339.112,154.856 L 339.174,154.783 L 339.242,154.715 L 339.282,154.652 L 339.329,154.571 L 339.399,154.454 L 339.572,154.232 L 340.042,153.641 L 340.117,153.568 L 340.205,153.508 L 340.306,153.445 L 340.367,153.43 L 340.423,153.401 L 340.52,153.358 L 340.637,153.292 L 340.686,153.262 L 340.735,153.198 L 340.958,152.865 L 341.14,152.551 L 341.24,152.348 L 341.311,152.205 L 341.368,152.082 L 341.388,152.026 L 341.39,151.935 L 341.368,151.832 L 341.361,151.769 L 341.317,151.721 L 341.362,151.325 L 341.361,151.059 L 341.353,150.717 L 341.349,150.335 L 341.357,150.233 L 341.358,150.16 L 341.371,150.101 L 341.384,150.019 L 341.409,149.934 L 341.451,149.866 L 341.499,149.818 L 341.537,149.771 L 341.574,149.719 L 341.632,149.668 L 341.678,149.606 L 341.715,149.534 L 341.734,149.447 L 341.737,149.359 L 341.743,149.278 L 341.81,148.921 L 341.944,148.16 L 341.997,147.867 L 342.002,147.799 L 342.022,147.644 L 342.024,147.494 L 342.064,147.414 L 342.154,147.13 L 342.178,147.056 L 342.201,146.993 L 342.239,146.919 L 342.278,146.862 L 342.326,146.798 L 342.349,146.743 L 342.4,146.665 L 342.454,146.566 L 342.524,146.466 L 342.623,146.36 L 342.818,146.14 L 342.871,146.089 L 342.975,145.997 L 343.321,145.72 L 343.764,145.29 L 344.099,144.932 L 344.952,144.039 L 345.03,143.934 L 345.078,143.86 L 345.409,143.83 L 350.486,143.202 L 354.169,142.741"/></g></svg>