<svg xmlns="http://www.w3.org/2000/svg" role="img" viewBox="979.36 551.24 91.78 89.28"><title>Sutton</title><g id="g14955" fill="#fefee9" fill-opacity="1" fill-rule="evenodd" stroke="#000" stroke-linecap="square" stroke-linejoin="bevel" stroke-opacity="1" stroke-width=".098" transform="translate(-216.714 -21.7) scale(2.264)"><path id="path15689" fill-rule="evenodd" d="M 556.96,253.954 L 558.22,260.336 L 564.217,259.357 L 565.161,263.718 L 564.588,264.4 L 564.911,266.729 L 565.161,268.517 L 564.55,272.993 L 561.729,276.767 L 561.797,276.807 L 564.999,278.467 L 560.935,285.502 L 566.645,282.971 L 568.064,284.291 L 568.066,285.416 L 563.807,286.433 L 563.81,287.075 L 550.214,290.501 L 545.425,291.682 L 543.778,285.276 L 539.222,285.14 L 538.008,285.661 L 533.989,276.72 L 532.702,273.883 L 529.724,275.229 L 529.14,270.26 L 529.724,269.918 L 550.304,257.839 L 551.655,257.016 L 552.567,258.146 L 554.32,256.679 L 554.287,255.559 L 556.96,253.954"/></g></svg>