<svg xmlns="http://www.w3.org/2000/svg" role="img" viewBox="1349.18 704.68 133.77 125.64"><title>Taunton</title><g id="g14955" fill="#fefee9" fill-opacity="1" fill-rule="evenodd" stroke="#000" stroke-linecap="square" stroke-linejoin="bevel" stroke-opacity="1" stroke-width=".098" transform="translate(-216.714 -21.7) scale(2.264)"><path id="path15851" fill-rule="evenodd" d="M 720.229,322.88 L 720.689,325.747 L 721.24,326.465 L 721.426,326.603 L 721.912,327.46 L 721.942,327.566 L 721.965,327.658 L 721.986,327.8 L 721.999,327.904 L 722.003,327.986 L 721.989,328.091 L 721.988,328.284 L 721.978,328.414 L 721.939,328.688 L 721.892,328.93 L 721.833,329.139 L 721.799,329.23 L 721.295,330.371 L 721.265,330.473 L 721.238,330.597 L 721.137,331.5 L 721.169,331.612 L 721.788,333.024 L 721.924,333.34 L 721.944,333.416 L 721.957,333.485 L 721.967,333.542 L 721.958,333.601 L 721.517,334.731 L 721.218,335.293 L 720.93,336.25 L 720.685,336.9 L 720.612,337.704 L 720.52,338.181 L 719.853,339.147 L 719.616,339.624 L 719.512,339.812 L 719.385,339.917 L 719.252,339.98 L 719.091,340.196 L 719.079,340.375 L 718.88,340.684 L 726.452,352.949 L 727.583,353.152 L 727.65,353.161 L 727.707,353.192 L 727.826,353.258 L 727.946,353.341 L 728.059,353.421 L 728.156,353.497 L 728.285,353.596 L 728.371,353.654 L 728.431,353.687 L 728.492,353.694 L 728.55,353.67 L 728.601,353.62 L 728.642,353.543 L 728.67,353.48 L 728.705,353.401 L 728.732,353.326 L 728.754,353.186 L 728.78,353.034 L 728.769,352.92 L 728.776,352.78 L 728.794,352.64 L 728.846,352.516 L 728.92,352.434 L 729.008,352.38 L 729.086,352.356 L 729.239,352.333 L 729.459,352.317 L 729.595,352.337 L 729.902,352.375 L 730.077,352.391 L 730.261,352.411 L 730.369,352.424 L 730.434,352.443 L 730.496,352.486 L 730.557,352.554 L 730.605,352.626 L 730.665,352.757 L 730.728,352.918 L 730.766,353.036 L 730.826,353.124 L 730.892,353.214 L 731.046,353.328 L 731.115,353.404 L 731.169,353.461 L 731.193,353.567 L 731.193,353.716 L 731.179,353.862 L 731.117,354.229 L 731.114,354.296 L 731.14,354.388 L 731.249,354.635 L 731.521,355.008 L 731.732,355.246 L 731.888,355.392 L 732.025,355.556 L 732.064,355.666 L 732.08,355.742 L 732.077,355.805 L 732.048,355.863 L 731.988,355.924 L 731.902,355.98 L 731.812,356.03 L 731.741,356.064 L 731.681,356.1 L 731.606,356.121 L 731.549,356.078 L 731.546,355.773 L 731.512,355.707 L 731.416,355.715 L 731.33,355.773 L 731.233,355.845 L 731.153,355.934 L 731.085,356.018 L 731.028,356.077 L 730.974,356.127 L 730.866,356.171 L 730.688,356.258 L 730.644,356.298 L 730.627,356.375 L 730.676,356.449 L 730.849,356.445 L 730.944,356.474 L 731.019,356.506 L 731.1,356.573 L 731.158,356.692 L 731.228,356.847 L 731.28,356.931 L 731.289,357.017 L 731.158,357.066 L 731.032,357.065 L 730.928,357.072 L 730.838,357.095 L 730.752,357.143 L 730.711,357.198 L 730.682,357.263 L 730.656,357.374 L 730.625,357.484 L 730.585,357.569 L 730.532,357.629 L 730.446,357.685 L 730.374,357.713 L 730.327,357.761 L 730.296,357.814 L 730.288,357.926 L 730.306,358.027 L 730.389,358.268 L 730.424,358.409 L 730.495,358.519 L 730.545,358.611 L 730.634,358.694 L 730.763,358.799 L 730.927,358.902 L 731.052,358.995 L 731.131,359.044 L 731.241,359.084 L 731.32,359.085 L 731.408,359.065 L 731.551,358.969 L 731.632,358.807 L 731.678,358.763 L 731.756,358.713 L 731.821,358.718 L 731.885,358.806 L 731.876,358.908 L 731.803,359.065 L 731.761,359.203 L 731.733,359.339 L 731.714,359.4 L 731.722,359.457 L 731.774,359.543 L 731.825,359.57 L 731.884,359.573 L 731.941,359.583 L 732.046,359.485 L 732.167,359.327 L 732.252,359.18 L 732.306,359.073 L 732.419,359.011 L 732.562,358.978 L 732.709,358.947 L 732.801,358.931 L 732.862,358.924 L 732.947,358.931 L 733.02,358.958 L 733.069,359.015 L 733.109,359.077 L 733.132,359.171 L 733.116,359.327 L 733.083,359.436 L 733.049,359.524 L 733.042,359.603 L 733.056,359.672 L 733.125,359.744 L 733.198,359.73 L 733.28,359.683 L 733.365,359.574 L 733.466,359.444 L 733.65,359.168 L 733.757,359.027 L 733.821,358.976 L 733.954,358.839 L 734.09,358.727 L 734.244,358.631 L 734.391,358.594 L 734.521,358.603 L 734.637,358.637 L 734.835,358.73 L 734.987,358.805 L 735.121,358.849 L 735.27,358.875 L 735.407,358.832 L 735.597,358.789 L 735.819,358.757 L 735.958,358.736 L 736.092,358.735 L 736.176,358.732 L 736.302,358.711 L 736.437,358.666 L 736.537,358.64 L 736.644,358.582 L 736.744,358.514 L 736.839,358.424 L 736.985,358.222 L 737.07,358.111 L 737.149,357.99 L 737.223,357.893 L 737.313,357.806 L 737.416,357.741 L 737.506,357.709 L 737.605,357.718 L 737.74,357.732 L 737.854,357.743 L 737.964,357.746 L 738.061,357.735 L 738.176,357.714 L 738.288,357.684 L 738.36,357.648 L 738.435,357.601 L 738.505,357.557 L 738.557,357.508 L 738.656,357.371 L 738.73,357.231 L 738.774,357.102 L 738.812,357.007 L 738.895,356.853 L 738.98,356.728 L 739.054,356.667 L 739.184,356.628 L 739.311,356.617 L 739.423,356.614 L 739.739,357.417 L 740.555,357.25 L 741.399,359.311 L 741.981,359.144 L 741.942,359.243 L 741.919,359.312 L 741.906,359.375 L 741.887,359.446 L 741.913,359.515 L 741.895,359.602 L 741.905,359.663 L 741.955,359.809 L 742.725,359.509 L 742.931,359.494 L 743.375,359.396 L 743.645,359.264 L 744.09,359.098 L 744.832,357.481 L 744.394,357.005 L 744.379,356.561 L 744.422,355.903 L 744.201,354.972 L 742.905,355.058 L 742.832,355.045 L 742.904,354.899 L 742.981,354.778 L 743.094,354.572 L 743.262,354.275 L 743.362,354.068 L 743.511,353.727 L 743.695,353.239 L 743.801,352.943 L 743.903,352.752 L 743.985,352.643 L 744.076,352.529 L 744.144,352.453 L 744.206,352.384 L 744.276,352.293 L 744.316,352.22 L 744.337,352.161 L 744.354,352.088 L 744.382,352.003 L 744.428,351.914 L 744.477,351.859 L 744.533,351.805 L 744.609,351.737 L 744.644,351.813 L 744.713,351.83 L 744.776,351.853 L 744.851,351.873 L 744.9,351.83 L 744.964,351.772 L 744.981,351.71 L 745.063,351.695 L 745.173,351.662 L 745.229,351.707 L 745.302,351.733 L 745.349,351.692 L 745.408,351.728 L 745.442,351.797 L 745.477,351.877 L 745.526,351.912 L 745.609,351.964 L 745.682,351.971 L 745.801,352.007 L 745.883,352.007 L 746.018,351.95 L 748.692,362.498 L 748.751,363.04 L 749.226,365.455 L 749.611,367.381 L 748.919,368.147 L 748.716,368.417 L 748.46,368.671 L 748.061,368.924 L 747.236,369.297 L 746.422,369.788 L 746.374,369.887 L 745.985,370.371 L 746.041,370.409 L 745.997,370.503 L 745.811,370.76 L 745.6,370.99 L 745.495,371.094 L 745.435,371.142 L 745.299,371.211 L 745.095,371.348 L 744.736,371.589 L 744.043,372.143 L 743.919,372.265 L 743.808,372.358 L 743.011,373.159 L 740.973,375.166 L 734.271,371.217 L 724.12,364.431 L 723.164,363.413 L 718.858,363.524 L 718.976,363.357 L 719.022,363.231 L 719.022,363.123 L 718.783,362.674 L 718.452,362.677 L 718.612,362.983 L 718.651,363.084 L 718.644,363.233 L 718.558,363.344 L 718.433,363.41 L 718.141,363.465 L 717.638,363.492 L 717.441,363.46 L 717.024,363.519 L 716.741,363.62 L 716.521,363.748 L 716.388,363.866 L 716.262,364.025 L 716.208,364.151 L 716.163,364.546 L 715.881,364.911 L 715.866,365.02 L 715.839,365.911 L 715.78,366.594 L 715.797,366.91 L 715.869,367.184 L 715.878,367.404 L 715.839,367.502 L 715.572,367.627 L 715.416,367.762 L 715.205,368.15 L 715.159,368.315 L 715.09,368.764 L 714.88,369.316 L 714.827,369.68 L 714.702,369.876 L 714.638,369.833 L 714.57,369.775 L 714.499,369.709 L 714.416,369.647 L 714.315,369.611 L 714.185,369.572 L 714.06,369.554 L 713.96,369.51 L 713.872,369.468 L 713.772,369.43 L 713.687,369.416 L 713.599,369.423 L 713.517,369.455 L 713.442,369.505 L 713.384,369.559 L 713.324,369.586 L 713.243,369.579 L 713.183,369.501 L 712.977,369.261 L 712.92,369.192 L 712.859,369.086 L 712.83,368.966 L 712.757,368.928 L 712.639,368.91 L 712.188,368.844 L 712.029,368.817 L 711.961,368.763 L 711.885,368.644 L 711.794,368.556 L 711.678,368.391 L 711.563,368.129 L 711.548,368.009 L 711.548,367.864 L 711.51,367.65 L 711.414,367.336 L 711.357,367.143 L 711.324,366.981 L 711.322,366.72 L 711.344,366.515 L 711.386,366.443 L 711.452,366.387 L 711.504,366.299 L 711.513,366.167 L 711.454,366.033 L 711.416,365.959 L 711.376,365.873 L 711.312,365.785 L 711.27,365.727 L 711.183,365.658 L 711.122,365.629 L 711.067,365.594 L 710.976,365.592 L 710.809,365.692 L 710.749,365.666 L 710.701,365.606 L 710.589,365.39 L 710.555,365.326 L 710.486,365.273 L 710.415,365.248 L 710.275,365.238 L 710.131,365.251 L 710.033,365.257 L 709.919,365.256 L 709.824,365.259 L 709.759,365.252 L 709.682,365.239 L 709.589,365.218 L 709.487,365.192 L 709.428,365.151 L 709.378,365.102 L 709.31,364.987 L 709.292,364.9 L 709.291,364.77 L 709.284,364.592 L 709.295,364.377 L 701.449,362.749 L 694.787,361.37 L 692.876,350.507 L 702.674,341.097 L 710.643,330.647 L 716.689,322.065 L 720.229,322.88"/></g></svg>