<svg xmlns="http://www.w3.org/2000/svg" role="img" viewBox="803.83 210.83 83.09 106.47"><title>Templeton</title><g id="g14955" fill="#fefee9" fill-opacity="1" fill-rule="evenodd" stroke="#000" stroke-linecap="square" stroke-linejoin="bevel" stroke-opacity="1" stroke-width=".098" transform="translate(-216.714 -21.7) scale(2.264)"><path id="path15187" fill-rule="evenodd" d="M 457.424,103.67 L 467.797,104.14 L 467.9,104.259 L 475.312,112.313 L 477.858,115.074 L 476.406,115.717 L 476.423,115.827 L 476.435,115.912 L 476.422,116.031 L 476.412,116.146 L 476.385,116.277 L 476.349,116.428 L 476.333,116.511 L 476.325,116.582 L 476.332,116.643 L 476.369,116.708 L 476.563,116.943 L 476.629,117 L 476.721,117.052 L 476.834,117.07 L 476.922,117.104 L 476.945,117.191 L 476.947,117.256 L 476.962,117.329 L 476.981,117.408 L 477.002,117.467 L 477.038,117.526 L 477.087,117.57 L 477.134,117.607 L 477.159,117.706 L 477.135,117.769 L 477.075,117.874 L 477.031,117.945 L 476.925,117.998 L 476.868,118.009 L 476.795,118.038 L 476.724,118.079 L 476.662,118.128 L 476.605,118.149 L 476.548,118.184 L 476.461,118.243 L 476.366,118.35 L 476.332,118.411 L 476.281,118.515 L 476.298,118.61 L 476.355,118.675 L 476.398,118.722 L 476.433,118.786 L 476.444,118.843 L 476.416,118.933 L 476.39,119.023 L 476.354,119.088 L 476.354,119.214 L 476.365,119.283 L 476.384,119.385 L 476.415,119.452 L 476.433,119.533 L 476.401,119.619 L 476.343,119.68 L 476.3,119.747 L 476.283,119.835 L 476.289,119.91 L 476.361,119.954 L 476.45,119.995 L 476.544,120.077 L 476.618,120.12 L 476.681,120.189 L 476.728,120.257 L 476.78,120.334 L 476.871,120.354 L 476.944,120.342 L 477.028,120.355 L 477.101,120.383 L 477.207,120.376 L 477.3,120.372 L 477.362,120.39 L 477.419,120.436 L 477.458,120.499 L 477.452,120.589 L 477.394,120.666 L 477.337,120.717 L 477.301,120.779 L 477.325,120.839 L 477.405,120.839 L 477.522,120.798 L 477.589,120.761 L 477.628,120.706 L 477.725,120.548 L 477.787,120.461 L 477.819,120.393 L 477.851,120.33 L 477.894,120.234 L 477.922,120.165 L 477.935,120.081 L 477.941,120.018 L 477.945,119.947 L 477.983,119.853 L 478.082,119.834 L 478.156,119.86 L 478.264,119.899 L 478.341,119.955 L 478.417,120.022 L 478.468,120.078 L 478.54,120.155 L 478.603,120.222 L 478.656,120.278 L 478.712,120.319 L 478.783,120.361 L 478.864,120.383 L 478.934,120.431 L 478.944,120.488 L 478.922,120.557 L 478.902,120.619 L 478.866,120.692 L 478.838,120.755 L 478.804,120.802 L 478.743,120.884 L 478.687,120.968 L 478.667,121.023 L 478.655,121.135 L 478.713,121.228 L 478.788,121.272 L 478.863,121.286 L 478.953,121.281 L 479.042,121.275 L 479.12,121.283 L 479.106,121.39 L 479.066,121.496 L 479.052,121.606 L 479.037,121.694 L 479.031,121.775 L 479.046,121.85 L 479.103,121.901 L 479.198,121.913 L 479.28,121.894 L 479.389,121.861 L 479.448,121.862 L 479.509,121.868 L 479.579,121.888 L 479.654,121.92 L 479.734,121.95 L 479.799,121.954 L 479.884,121.97 L 479.945,121.979 L 480.014,121.999 L 480.094,122.046 L 480.176,122.106 L 480.249,122.14 L 480.324,122.144 L 480.44,122.141 L 480.56,122.118 L 480.652,122.097 L 480.71,122.087 L 480.812,122.086 L 480.916,122.079 L 480.991,122.046 L 481.048,121.981 L 481.078,121.93 L 481.116,121.864 L 481.154,121.799 L 481.233,121.74 L 481.347,121.684 L 481.483,121.622 L 481.584,121.581 L 481.688,121.534 L 481.815,121.464 L 481.878,121.423 L 481.949,121.365 L 481.998,121.282 L 482.025,121.208 L 482.048,121.145 L 482.074,121.082 L 482.167,121.018 L 482.24,121.012 L 482.354,121.025 L 482.429,121.037 L 482.495,121.079 L 482.573,121.209 L 482.591,121.266 L 482.612,121.323 L 482.639,121.416 L 482.68,121.499 L 482.701,121.591 L 482.707,121.656 L 482.732,121.751 L 482.761,121.804 L 482.826,121.871 L 482.902,121.945 L 482.923,122 L 482.907,122.07 L 482.867,122.166 L 482.814,122.271 L 482.748,122.363 L 482.706,122.435 L 482.671,122.488 L 482.631,122.557 L 482.57,122.631 L 482.479,122.68 L 482.404,122.728 L 482.345,122.748 L 482.286,122.767 L 482.228,122.8 L 482.169,122.845 L 482.108,122.912 L 482.06,122.974 L 482.044,123.051 L 482.081,123.11 L 482.15,123.152 L 482.273,123.196 L 482.535,123.28 L 482.639,123.314 L 482.729,123.366 L 482.803,123.451 L 482.848,123.5 L 482.897,123.583 L 482.965,123.684 L 483.02,123.763 L 483.08,123.846 L 483.125,123.913 L 483.166,124.045 L 480.084,125.627 L 486.591,131.401 L 467.756,147.286 L 465.919,148.819 L 465.928,148.675 L 465.961,148.61 L 465.997,148.527 L 466.012,148.444 L 466.01,148.363 L 466.02,148.182 L 466.006,147.943 L 465.93,147.794 L 465.975,147.752 L 466.088,147.753 L 466.214,147.738 L 466.317,147.672 L 466.254,147.59 L 466.202,147.562 L 466.112,147.526 L 465.989,147.446 L 465.802,147.323 L 465.777,147.211 L 465.785,147.115 L 465.815,147.056 L 465.841,146.989 L 465.849,146.932 L 465.836,146.852 L 465.847,146.724 L 465.83,146.606 L 465.805,146.454 L 465.782,146.334 L 465.72,146.194 L 465.64,146.034 L 465.566,145.857 L 465.493,145.823 L 465.417,145.822 L 465.322,145.796 L 465.244,145.748 L 465.213,145.677 L 465.198,145.606 L 465.21,145.54 L 465.25,145.444 L 465.355,145.247 L 465.418,145.144 L 465.482,145.028 L 465.502,144.947 L 465.53,144.849 L 465.523,144.77 L 465.498,144.544 L 465.501,144.361 L 465.471,144.223 L 465.386,144.138 L 465.346,144.085 L 465.342,143.977 L 465.344,143.908 L 465.343,143.847 L 465.329,143.78 L 465.3,143.723 L 465.261,143.652 L 465.216,143.561 L 465.192,143.456 L 465.163,143.35 L 465.141,143.267 L 465.106,143.202 L 465.063,143.129 L 465.005,143.07 L 464.809,142.919 L 464.784,142.803 L 464.774,142.724 L 464.763,142.642 L 464.724,142.582 L 464.685,142.523 L 464.622,142.47 L 464.552,142.4 L 464.448,142.28 L 464.378,142.177 L 464.32,142.07 L 464.312,142.009 L 464.271,141.915 L 464.189,141.863 L 464.136,141.837 L 464.022,141.787 L 463.92,141.726 L 463.842,141.662 L 463.789,141.599 L 463.734,141.526 L 463.668,141.486 L 463.611,141.415 L 463.606,141.327 L 463.612,141.268 L 463.634,141.213 L 463.656,141.144 L 463.646,141.079 L 463.603,141.024 L 463.539,140.959 L 463.478,140.913 L 463.453,140.838 L 463.453,140.767 L 463.446,140.655 L 463.456,140.58 L 463.47,140.513 L 463.551,140.433 L 463.632,140.363 L 463.68,140.3 L 463.684,140.206 L 463.61,140.144 L 463.539,140.117 L 463.467,140.047 L 463.39,139.99 L 463.42,139.933 L 463.476,139.851 L 463.539,139.806 L 463.569,139.735 L 463.522,139.648 L 463.53,139.564 L 463.552,139.507 L 463.59,139.393 L 463.644,139.299 L 463.676,139.25 L 463.71,139.187 L 463.738,139.112 L 463.767,139.042 L 463.748,138.924 L 463.735,138.839 L 462.618,135.066 L 455.287,122.352 L 454.682,121.312 L 455.299,120.844 L 456.074,120.232 L 455.378,110.158 L 455.379,110.006 L 455.351,108.992 L 455.328,108.915 L 455.256,108.845 L 455.16,108.795 L 455.074,108.785 L 454.993,108.801 L 454.892,108.816 L 454.804,108.79 L 454.72,108.773 L 454.645,108.77 L 454.541,108.756 L 454.466,108.718 L 454.41,108.64 L 454.364,108.583 L 454.297,108.555 L 454.224,108.526 L 454.166,108.473 L 454.137,108.415 L 454.118,108.358 L 454.084,108.24 L 454.049,108.186 L 453.998,108.158 L 453.975,108.089 L 453.927,108.016 L 453.89,107.941 L 453.834,107.871 L 453.799,107.796 L 453.732,107.796 L 453.661,107.81 L 453.579,107.78 L 453.546,107.719 L 453.567,107.64 L 453.534,107.579 L 453.584,107.523 L 453.604,107.458 L 453.563,107.408 L 453.515,107.349 L 453.445,107.297 L 453.463,107.224 L 453.452,107.147 L 453.403,107.111 L 453.366,107.058 L 453.326,107.014 L 453.274,107.092 L 453.22,107.125 L 453.157,107.134 L 453.118,107.087 L 453.072,107.023 L 453.007,106.978 L 452.965,106.894 L 452.888,106.907 L 452.918,106.827 L 452.909,106.77 L 452.912,106.707 L 452.863,106.641 L 452.836,106.586 L 452.829,106.529 L 452.822,106.468 L 452.743,106.451 L 452.684,106.449 L 452.628,106.429 L 452.595,106.369 L 452.56,106.315 L 452.515,106.268 L 452.437,106.218 L 452.444,106.127 L 452.452,106.07 L 452.485,105.994 L 452.533,105.908 L 452.573,105.796 L 452.515,105.728 L 452.498,105.663 L 452.445,105.619 L 452.442,105.54 L 452.355,105.559 L 452.312,105.517 L 452.331,105.437 L 452.279,105.361 L 452.238,105.308 L 452.211,105.242 L 452.223,105.17 L 452.242,105.093 L 452.211,105.006 L 452.148,104.982 L 452.034,104.981 L 451.982,104.945 L 451.935,104.883 L 451.904,104.834 L 451.84,104.746 L 451.829,104.677 L 451.81,104.591 L 451.756,104.515 L 454.29,104.166 L 455.409,103.971 L 457.424,103.67"/></g></svg>