<svg xmlns="http://www.w3.org/2000/svg" role="img" viewBox="1289.48 188.24 78.78 75.66"><title>Tewksbury</title><g id="g14955" fill="#fefee9" fill-opacity="1" fill-rule="evenodd" stroke="#000" stroke-linecap="square" stroke-linejoin="bevel" stroke-opacity="1" stroke-width=".098" transform="translate(-216.714 -21.7) scale(2.264)"><path id="path15125" fill-rule="evenodd" d="M 671.323,93.9634 L 671.483,93.9184 L 671.624,93.8791 L 671.756,93.8474 L 672.305,93.7466 L 673.781,93.4836 L 673.946,93.4658 L 674.072,93.4559 L 674.674,93.5183 L 675.301,93.6517 L 675.559,93.7085 L 675.655,93.7124 L 675.805,93.7124 L 675.901,93.7044 L 676.003,93.6806 L 676.082,93.6569 L 676.142,93.6304 L 677.85,94.7321 L 693.147,104.599 L 697.553,107.457 L 697.716,107.578 L 697.63,107.606 L 697.536,107.628 L 697.467,107.713 L 697.44,107.77 L 697.391,107.845 L 697.401,107.912 L 697.399,107.988 L 697.354,108.026 L 697.299,108.05 L 697.183,108.074 L 697.075,108.102 L 696.712,108.177 L 696.613,108.202 L 696.549,108.227 L 696.484,108.259 L 696.407,108.32 L 696.351,108.379 L 696.335,108.464 L 696.343,108.527 L 696.349,108.598 L 696.334,108.655 L 696.273,108.682 L 696.192,108.683 L 696.131,108.679 L 696.088,108.734 L 696.163,108.842 L 696.21,108.899 L 696.266,108.966 L 696.287,109.031 L 696.266,109.098 L 696.187,109.123 L 696.18,109.186 L 696.219,109.247 L 696.229,109.312 L 696.135,109.346 L 696.033,109.354 L 695.958,109.401 L 695.947,109.465 L 696.041,109.533 L 696.114,109.558 L 696.175,109.592 L 696.236,109.645 L 696.242,109.717 L 696.226,109.782 L 696.175,109.859 L 696.152,109.912 L 696.138,109.995 L 696.17,110.086 L 696.155,110.166 L 696.06,110.214 L 695.996,110.232 L 695.952,110.173 L 695.97,110.061 L 695.893,110.004 L 695.816,109.998 L 695.763,110.055 L 695.76,110.138 L 695.72,110.181 L 695.659,110.154 L 695.541,110.138 L 695.522,110.266 L 695.426,110.269 L 695.359,110.241 L 695.253,110.222 L 695.158,110.244 L 695.141,110.305 L 695.225,110.348 L 695.432,110.579 L 699.407,113.898 L 696.793,115.897 L 692.4,125.458 L 687.658,122.47 L 677.904,116.321 L 665.983,108.954 L 669.242,108.031 L 670.682,106.133 L 671.091,104.688 L 671.443,103.38 L 672.341,98.1164 L 672.264,97.4431 L 672.197,97.337 L 672.22,96.8035 L 672.106,96.1738 L 671.323,93.9634"/></g></svg>