<svg xmlns="http://www.w3.org/2000/svg" role="img" viewBox="1667.30 1101.99 43.34 55.97"><title>Tisbury</title><g id="g14955" fill="#fefee9" fill-opacity="1" fill-rule="evenodd" stroke="#000" stroke-linecap="square" stroke-linejoin="bevel" stroke-opacity="1" stroke-width=".098" transform="translate(-216.714 -21.7) scale(2.264)"><path id="path16147" d="M 832.715,504.472 L 832.891,504.401 L 833.088,504.398 L 833.356,504.496 L 833.632,504.478 L 834.025,504.38 L 834.449,504.346 L 835.189,504.228 L 835.518,504.107 L 836.121,503.801 L 836.231,503.77 L 836.522,503.734 L 836.985,503.581 L 837.252,503.461 L 837.588,503.219 L 837.955,502.932 L 838.189,502.696 L 838.501,502.321 L 838.587,502.297 L 838.762,502.428 L 838.89,502.632 L 838.93,502.743 L 838.751,502.918 L 838.515,502.959 L 838.444,503.008 L 838.259,503.395 L 838.214,503.607 L 837.954,503.587 L 837.814,503.777 L 837.657,503.794 L 837.553,503.694 L 837.451,503.669 L 837.437,503.868 L 837.571,503.936 L 837.691,504.125 L 837.944,504.247 L 838.276,504.325 L 838.346,504.245 L 838.36,504.117 L 838.446,503.96 L 838.538,503.7 L 838.592,503.658 L 838.679,503.649 L 838.75,503.712 L 838.918,503.996 L 839.149,504.253 L 839.348,504.433 L 839.87,504.719 L 840.304,504.87 L 840.408,505.013 L 840.607,505.24 L 840.593,505.374 L 840.581,505.774 L 840.52,505.94 L 840.522,506.185 L 840.572,506.466 L 840.541,506.547 L 840.431,506.563 L 840.257,506.509 L 840.155,506.543 L 840.158,506.841 L 840.44,507.453 L 840.543,507.54 L 840.772,507.654 L 840.852,507.779 L 840.87,508.008 L 840.926,508.124 L 840.972,508.234 L 841.1,508.392 L 841.148,508.493 L 841.181,508.665 L 841.317,508.798 L 841.466,508.766 L 841.575,508.669 L 841.62,508.457 L 841.603,508.371 L 841.531,508.261 L 841.388,508.145 L 841.23,508.068 L 841.173,507.943 L 841.18,507.831 L 841.336,507.672 L 841.366,507.603 L 841.341,507.445 L 841.395,507.316 L 841.685,507.196 L 841.786,507.1 L 841.784,506.911 L 841.743,506.785 L 841.747,506.385 L 841.691,506.306 L 841.658,506.18 L 841.664,506.025 L 841.733,505.88 L 841.739,505.716 L 841.48,505.035 L 841.479,504.932 L 841.422,504.767 L 841.005,504.149 L 840.997,504.069 L 840.949,503.993 L 840.944,503.583 L 840.873,503.418 L 840.746,503.261 L 840.791,503.033 L 840.869,502.978 L 841.062,502.857 L 840.866,502.708 L 840.739,502.575 L 840.865,502.503 L 841.058,502.495 L 841.105,502.416 L 841.127,502.282 L 841.125,502.093 L 841.061,502.054 L 840.86,502.032 L 840.827,501.835 L 840.724,501.757 L 840.598,501.804 L 840.489,501.9 L 840.41,501.887 L 840.408,501.642 L 840.336,501.579 L 840.036,501.479 L 839.941,501.473 L 839.824,501.554 L 839.801,501.647 L 839.858,501.869 L 839.679,502.042 L 839.469,502.321 L 839.455,502.51 L 839.409,502.58 L 839.299,502.63 L 839.196,502.598 L 839.116,502.489 L 838.903,502.381 L 838.87,502.254 L 839.244,501.859 L 839.727,501.262 L 839.891,501.127 L 840.04,501.11 L 840.847,500.631 L 841.169,500.423 L 841.481,500.129 L 842.019,499.682 L 842.09,499.674 L 842.146,499.765 L 842.14,499.899 L 842.102,500.058 L 842.127,500.138 L 842.145,500.388 L 842.263,500.363 L 842.366,500.447 L 842.356,500.196 L 842.408,499.99 L 842.463,499.905 L 842.572,499.864 L 842.751,499.679 L 842.75,499.586 L 842.695,499.532 L 842.616,499.531 L 842.398,499.77 L 842.32,499.794 L 842.264,499.718 L 842.27,499.535 L 843.614,498.656 L 844.006,498.446 L 844.881,497.918 L 845.983,497.117 L 846.224,496.887 L 846.35,496.855 L 846.493,496.938 L 846.754,497.023 L 846.92,497.146 L 847.165,497.238 L 847.425,497.227 L 847.552,497.298 L 847.769,497.729 L 847.844,498.12 L 847.957,498.356 L 848.025,498.803 L 848.034,499.566 L 848.079,500.126 L 848.196,500.74 L 848.228,500.81 L 848.275,501.5 L 848.262,501.684 L 847.923,502.357 L 847.846,502.576 L 847.607,503.021 L 847.546,503.218 L 847.454,503.425 L 847.417,503.646 L 847.341,503.835 L 847.217,504.009 L 847.227,504.238 L 847.316,504.474 L 847.333,504.607 L 847.224,504.709 L 847.205,505.135 L 847.002,505.231 L 846.924,505.36 L 846.936,505.738 L 846.962,505.911 L 847.018,506.027 L 847.082,506.09 L 847.359,506.188 L 847.179,506.323 L 847.18,506.435 L 847.309,506.654 L 847.635,506.949 L 847.745,506.995 L 847.887,506.994 L 848.114,506.842 L 848.222,506.684 L 848.284,506.589 L 848.573,506.342 L 849.426,505.923 L 850.404,505.336 L 850.522,505.296 L 850.609,505.38 L 850.618,505.467 L 850.556,505.546 L 850.392,505.619 L 849.993,505.891 L 850.002,506.027 L 849.83,506.066 L 849.784,506.17 L 849.721,506.187 L 849.578,506.126 L 849.453,506.164 L 849.382,506.213 L 849.345,506.388 L 849.14,506.381 L 849.008,506.509 L 848.752,506.873 L 848.454,507.018 L 848.283,507.203 L 847.985,507.323 L 847.916,507.418 L 847.854,507.569 L 847.848,507.696 L 847.809,507.775 L 847.612,507.777 L 847.598,507.871 L 847.711,508.169 L 848.014,508.464 L 848.062,508.583 L 848.158,508.698 L 848.191,508.874 L 848.247,508.928 L 848.35,508.941 L 848.396,508.893 L 848.851,508.731 L 848.897,508.621 L 848.91,508.32 L 848.946,508.092 L 848.914,507.997 L 848.92,507.857 L 849.099,507.62 L 849.628,507.061 L 849.722,507.037 L 849.967,507.12 L 850.055,507.192 L 850.064,507.294 L 849.876,507.398 L 849.798,507.484 L 849.567,507.953 L 849.545,508.093 L 849.323,508.695 L 849.309,508.869 L 849.35,508.946 L 849.359,509.032 L 849.28,509.087 L 849.053,509.147 L 848.881,509.266 L 848.382,509.768 L 848.181,510.084 L 847.769,510.524 L 847.155,511.245 L 847.116,511.333 L 847.142,511.522 L 847.263,511.828 L 847.241,511.953 L 847.04,512.309 L 846.979,512.485 L 846.762,512.755 L 846.67,513.046 L 846.513,513.732 L 846.489,514.465 L 846.538,514.6 L 846.69,514.763 L 846.887,514.838 L 847.272,515.01 L 846.849,515.564 L 846.733,515.581 L 846.669,515.599 L 846.601,515.629 L 846.535,515.67 L 846.519,515.739 L 846.539,515.869 L 846.521,516.088 L 841.748,509.708 L 843.467,520.575 L 832.715,504.472 M 841.369,500.665 L 841.306,500.704 L 841.227,500.697 L 841.14,500.66 L 841.03,500.675 L 840.953,500.764 L 840.938,500.889 L 840.986,500.993 L 841.144,501.029 L 841.27,500.997 L 841.386,500.839 L 841.369,500.665 L 841.495,500.687 L 841.582,500.724 L 841.66,500.694 L 841.782,500.353 L 841.789,500.219 L 841.609,500.299 L 841.61,500.457 L 841.548,500.53 L 841.384,500.594 L 841.369,500.665"/><path id="path16151" d="M 841.789,500.219 L 841.782,500.353 L 841.66,500.694 L 841.582,500.724 L 841.495,500.687 L 841.369,500.665 L 841.384,500.594 L 841.548,500.53 L 841.61,500.457 L 841.609,500.299 L 841.789,500.219"/><path id="path16155" d="M 841.369,500.665 L 841.386,500.839 L 841.27,500.997 L 841.144,501.029 L 840.986,500.993 L 840.938,500.889 L 840.953,500.764 L 841.03,500.675 L 841.14,500.66 L 841.227,500.697 L 841.306,500.704 L 841.369,500.665"/><path id="path16159" d="M 850.438,504.607 L 850.808,505.053 L 850.527,505.051 L 850.369,504.965 L 850.321,504.911 L 850.28,504.81 L 850.279,504.707 L 850.357,504.612 L 850.438,504.607"/></g></svg>