<svg xmlns="http://www.w3.org/2000/svg" role="img" viewBox="257.89 576.89 64.09 90.22"><title>Tolland</title><g id="g14955" fill="#fefee9" fill-opacity="1" fill-rule="evenodd" stroke="#000" stroke-linecap="square" stroke-linejoin="bevel" stroke-opacity="1" stroke-width=".098" transform="translate(-216.714 -21.7) scale(2.264)"><path id="path15733" fill-rule="evenodd" d="M 221.021,266.941 L 230.031,268.696 L 234.552,269.653 L 235.083,273.571 L 237.153,289.478 L 237.185,289.696 L 234.692,303.489 L 229.414,303.267 L 227.097,303.157 L 215.702,302.597 L 215.598,302.437 L 215.556,302.34 L 215.51,302.235 L 215.464,302.128 L 215.45,302.045 L 215.431,301.982 L 215.336,301.746 L 215.293,301.653 L 215.247,301.568 L 215.24,301.501 L 215.231,301.41 L 215.232,301.347 L 215.236,301.257 L 215.238,301.194 L 215.238,301.105 L 215.247,301.035 L 215.246,300.932 L 215.246,300.834 L 215.251,300.771 L 215.232,300.704 L 215.171,300.61 L 215.106,300.56 L 215.037,300.494 L 214.994,300.423 L 214.954,300.361 L 214.918,300.28 L 214.893,300.212 L 214.875,300.155 L 214.846,300.062 L 214.824,299.967 L 214.816,299.896 L 214.821,299.782 L 214.834,299.696 L 214.865,299.625 L 214.903,299.577 L 214.963,299.531 L 215.019,299.453 L 215.072,299.422 L 215.146,299.36 L 215.204,299.288 L 215.252,299.228 L 215.299,299.163 L 215.327,299.099 L 215.34,299.042 L 215.355,298.967 L 215.372,298.883 L 215.518,297.681 L 215.554,297.512 L 215.579,297.375 L 215.583,297.276 L 215.574,297.174 L 215.565,297.117 L 215.56,297.054 L 215.558,296.983 L 215.547,296.892 L 215.541,296.787 L 215.55,296.729 L 215.555,296.662 L 215.573,296.581 L 215.591,296.491 L 215.584,296.399 L 215.558,296.298 L 215.512,296.22 L 215.471,296.171 L 215.413,296.11 L 215.359,296.068 L 215.273,296.034 L 215.175,296.007 L 215.108,295.996 L 215.03,295.981 L 214.941,295.972 L 214.881,295.937 L 214.804,295.938 L 214.713,295.884 L 214.617,295.841 L 214.554,295.81 L 214.459,295.76 L 214.377,295.713 L 214.326,295.675 L 214.259,295.594 L 213.872,295.273 L 213.647,295.073 L 213.622,295.015 L 213.613,294.946 L 213.634,294.864 L 213.659,294.787 L 213.703,294.717 L 213.731,294.661 L 213.772,294.592 L 213.804,294.534 L 213.928,294.307 L 214.151,293.939 L 214.238,293.796 L 214.305,293.691 L 214.377,293.603 L 214.441,293.518 L 214.475,293.469 L 214.522,293.381 L 214.55,293.305 L 214.565,293.24 L 214.558,293.169 L 214.543,293.108 L 214.515,293.056 L 214.467,292.975 L 214.424,292.935 L 214.333,292.845 L 214.282,292.805 L 214.218,292.745 L 214.161,292.704 L 214.095,292.64 L 214.056,292.589 L 214,292.507 L 213.974,292.432 L 213.94,292.356 L 213.912,292.262 L 213.885,292.19 L 213.86,292.137 L 213.802,292.093 L 213.744,292.047 L 213.67,291.967 L 210.913,283.776 L 210.716,281.293 L 210.711,281.223 L 210.708,281.112 L 210.682,281.041 L 210.646,280.946 L 210.622,280.861 L 210.594,280.723 L 210.567,280.579 L 210.543,280.48 L 210.514,280.411 L 210.503,280.334 L 210.497,280.231 L 210.5,280.145 L 210.496,280.06 L 210.487,279.995 L 210.476,279.932 L 210.477,279.867 L 210.48,279.796 L 210.498,279.734 L 210.517,279.675 L 210.549,279.62 L 210.603,279.578 L 210.668,279.561 L 210.755,279.529 L 210.826,279.491 L 210.922,279.443 L 210.977,279.418 L 211.04,279.379 L 211.102,279.325 L 211.166,279.259 L 211.206,279.207 L 211.255,279.107 L 211.301,279.021 L 211.332,278.925 L 211.352,278.804 L 211.355,278.715 L 211.346,278.654 L 211.333,278.583 L 211.307,278.524 L 211.241,278.462 L 211.159,278.374 L 211.119,278.31 L 211.079,278.231 L 211.06,278.17 L 211.028,278.08 L 211.037,278.016 L 211.056,277.924 L 211.092,277.855 L 211.118,277.802 L 211.163,277.719 L 211.215,277.66 L 211.277,277.604 L 211.332,277.568 L 211.388,277.515 L 211.424,277.457 L 211.453,277.4 L 211.503,277.356 L 211.568,277.286 L 211.626,277.253 L 211.709,277.199 L 211.775,277.167 L 211.86,277.113 L 211.928,277.073 L 212.023,277.019 L 212.098,276.993 L 212.175,276.966 L 212.264,276.928 L 212.349,276.898 L 212.43,276.854 L 212.497,276.857 L 212.598,276.817 L 212.693,276.783 L 212.782,276.755 L 212.871,276.733 L 212.932,276.714 L 213.017,276.674 L 213.092,276.64 L 213.156,276.611 L 213.213,276.6 L 213.268,276.565 L 213.338,276.513 L 213.39,276.479 L 213.455,276.434 L 213.519,276.392 L 213.58,276.354 L 213.632,276.303 L 213.684,276.241 L 213.74,276.183 L 213.794,276.129 L 213.844,276.062 L 213.89,275.998 L 213.941,275.932 L 213.973,275.87 L 214.021,275.798 L 214.068,275.704 L 214.104,275.616 L 214.128,275.498 L 214.137,275.414 L 214.136,275.322 L 214.112,275.243 L 214.078,275.166 L 214.026,275.049 L 213.98,274.982 L 213.94,274.905 L 213.884,274.827 L 213.826,274.748 L 213.784,274.695 L 213.712,274.621 L 213.669,274.575 L 213.627,274.524 L 213.563,274.429 L 213.494,274.332 L 213.46,274.239 L 213.424,274.143 L 213.393,274.074 L 213.351,273.997 L 213.294,273.912 L 213.24,273.834 L 213.166,273.757 L 213.092,273.697 L 213.011,273.623 L 212.962,273.585 L 212.881,273.495 L 212.846,273.44 L 212.82,273.361 L 212.795,273.296 L 212.764,273.19 L 212.754,273.132 L 212.756,273.068 L 212.765,273.005 L 212.769,272.938 L 212.778,272.869 L 212.757,272.765 L 212.734,272.707 L 212.717,272.646 L 212.694,272.589 L 212.671,272.508 L 212.646,272.451 L 212.596,272.375 L 212.534,272.29 L 212.489,272.221 L 212.461,272.134 L 212.438,272.037 L 212.409,271.947 L 212.389,271.852 L 212.374,271.777 L 212.367,271.684 L 212.34,271.617 L 212.331,271.556 L 212.277,271.459 L 212.242,271.392 L 212.219,271.335 L 212.171,271.238 L 212.142,271.169 L 212.125,271.088 L 212.112,270.999 L 212.084,270.893 L 212.075,270.832 L 212.063,270.77 L 212.058,270.692 L 212.057,270.609 L 212.046,270.528 L 212.027,270.428 L 212.022,270.345 L 212.031,270.274 L 212.053,270.19 L 212.09,270.084 L 212.104,270.025 L 212.095,269.946 L 212.097,269.874 L 212.124,269.805 L 212.176,269.723 L 212.231,269.682 L 212.296,269.639 L 212.352,269.595 L 212.405,269.52 L 212.404,269.451 L 212.383,269.357 L 212.382,269.294 L 212.377,269.227 L 212.368,269.14 L 212.359,269.071 L 212.338,269.008 L 212.313,268.949 L 212.301,268.892 L 212.28,268.815 L 212.285,268.736 L 212.294,268.665 L 212.306,268.603 L 212.287,268.518 L 212.252,268.452 L 212.216,268.393 L 212.153,268.339 L 212.093,268.29 L 212.044,268.244 L 211.99,268.171 L 211.943,268.099 L 211.903,268.052 L 211.845,267.953 L 211.828,267.884 L 211.811,267.803 L 211.796,267.736 L 211.751,267.667 L 211.718,267.599 L 211.703,267.522 L 211.681,267.424 L 211.664,267.339 L 211.647,267.268 L 211.628,267.183 L 211.596,267.098 L 211.561,267.012 L 211.519,266.899 L 211.516,266.81 L 211.546,266.724 L 211.596,266.671 L 211.828,266.471 L 211.96,266.374 L 211.965,266.313 L 211.942,266.248 L 211.917,266.188 L 211.918,266.104 L 211.928,266.037 L 211.945,265.978 L 211.971,265.888 L 211.986,265.791 L 211.971,265.705 L 211.962,265.642 L 211.953,265.569 L 211.914,265.494 L 211.88,265.383 L 211.845,265.286 L 211.836,265.213 L 221.021,266.941"/></g></svg>