<svg xmlns="http://www.w3.org/2000/svg" role="img" viewBox="1172.98 154.85 79.17 68.17"><title>Tyngsborough</title><g id="g14955" fill="#fefee9" fill-opacity="1" fill-rule="evenodd" stroke="#000" stroke-linecap="square" stroke-linejoin="bevel" stroke-opacity="1" stroke-width=".098" transform="translate(-216.714 -21.7) scale(2.264)"><path id="path15081" fill-rule="evenodd" d="M 647.356,79.5048 L 646.164,81.1994 L 646.227,82.5811 L 646.068,82.8598 L 644.945,84.742 L 645.486,86.5061 L 646.073,89.3075 L 646.357,90.5782 L 646.813,91.2702 L 647.336,89.5088 L 648.135,90.4162 L 647.477,92.1241 L 646.076,92.3592 L 645.12,92.4824 L 644.286,94.5216 L 644.033,95.1951 L 644.009,95.2782 L 644.008,95.3864 L 644.059,95.4507 L 644.11,95.4932 L 644.175,95.5633 L 644.298,95.6776 L 644.406,95.7626 L 644.486,95.8244 L 644.55,95.8786 L 644.592,95.9468 L 644.621,96.0332 L 644.613,96.1514 L 644.451,96.499 L 644.241,96.4059 L 644.053,96.3693 L 643.721,96.3133 L 643.502,96.2912 L 643.354,96.2972 L 642.983,96.3541 L 642.26,96.5248 L 641.511,96.686 L 641.413,96.6935 L 641.322,96.7165 L 641.253,96.7038 L 641.115,96.6979 L 641.04,96.6873 L 640.967,96.6569 L 640.879,96.6189 L 640.808,96.5845 L 640.653,96.4845 L 640.499,96.3863 L 640.372,96.2879 L 640.237,96.1206 L 639.788,95.3398 L 638.984,95.6003 L 639.067,95.9003 L 639.155,96.1391 L 639.266,96.4368 L 639.307,96.5228 L 639.408,96.7123 L 639.528,96.9468 L 639.613,97.107 L 640.023,97.7565 L 639.873,97.8928 L 638.882,97.2974 L 638.559,96.7588 L 638.237,96.8091 L 637.115,96.5585 L 636.542,96.8725 L 636.46,96.3755 L 635.117,94.8726 L 619.966,104.745 L 615.833,107.394 L 615.401,104.748 L 614.557,100.051 L 614.841,99.0196 L 615.096,96.2776 L 616.094,96.5207 L 616.992,96.47 L 618.639,95.8513 L 619.406,93.1783 L 620.587,96.2383 L 625.052,93.2973 L 624.666,92.8307 L 625.636,92.7113 L 625.504,92.2957 L 626.96,92.108 L 627.657,91.6481 L 627.427,90.466 L 627.208,90.0577 L 626.5,89.4069 L 626.455,89.5435 L 626.26,89.5326 L 626.246,89.3989 L 626.458,89.3701 L 627.794,89.1547 L 627.545,86.736 L 627.369,85.5254 L 626.786,84.0474 L 626.486,84.0127 L 626.327,83.4045 L 625.318,83.672 L 625.056,82.2069 L 624.777,82.0515 L 624.406,82.2561 L 624.024,81.7321 L 625.237,80.3885 L 624.89,78.7395 L 631.355,78.9671 L 642.927,79.3698 L 646.066,79.4791 L 647.356,79.5048"/></g></svg>