<svg xmlns="http://www.w3.org/2000/svg" role="img" viewBox="1085.55 520.79 59.91 88.66"><title>Upton</title><g id="g14955" fill="#fefee9" fill-opacity="1" fill-rule="evenodd" stroke="#000" stroke-linecap="square" stroke-linejoin="bevel" stroke-opacity="1" stroke-width=".098" transform="translate(-216.714 -21.7) scale(2.264)"><path id="path15665" fill-rule="evenodd" d="M 588.782,242.131 L 588.026,244.888 L 592.945,252.595 L 595.939,252.91 L 595.898,253.046 L 595.844,253.159 L 595.797,253.255 L 595.762,253.356 L 595.73,253.585 L 599.707,253.698 L 599.765,253.813 L 599.809,253.917 L 599.839,253.99 L 599.845,254.073 L 599.852,254.204 L 599.864,254.322 L 599.886,254.426 L 599.903,254.519 L 599.909,254.619 L 599.922,254.755 L 599.904,254.824 L 599.909,254.907 L 599.902,254.997 L 599.857,255.06 L 599.828,255.12 L 599.836,255.192 L 599.767,255.24 L 599.821,255.344 L 599.8,255.403 L 599.774,255.457 L 599.767,255.518 L 599.758,255.62 L 599.75,255.717 L 599.712,255.801 L 599.665,255.88 L 599.646,255.971 L 599.693,256.016 L 599.789,255.98 L 599.866,256.017 L 599.918,256.081 L 599.963,256.132 L 599.993,256.213 L 599.974,256.282 L 599.974,256.352 L 600.039,256.334 L 600.102,256.328 L 600.098,256.417 L 600.083,256.521 L 600.049,256.618 L 600.027,256.679 L 600.016,256.766 L 599.991,256.858 L 599.968,256.917 L 599.931,257.086 L 599.921,257.278 L 600.293,257.437 L 600.488,257.402 L 600.579,257.529 L 600.654,257.629 L 600.678,257.69 L 600.712,257.768 L 600.781,257.874 L 600.807,257.982 L 600.864,258.153 L 600.894,258.29 L 600.898,258.422 L 600.891,258.519 L 600.888,258.607 L 600.861,258.696 L 600.804,258.763 L 600.716,258.752 L 600.625,258.672 L 600.552,258.62 L 600.463,258.581 L 600.39,258.566 L 600.312,258.574 L 600.241,258.588 L 600.186,258.61 L 600.137,258.65 L 600.11,258.701 L 600.083,258.774 L 600.054,258.883 L 599.954,258.927 L 599.858,258.888 L 599.79,258.81 L 599.755,258.761 L 599.685,258.683 L 599.63,258.648 L 599.573,258.621 L 599.486,258.592 L 599.402,258.573 L 599.34,258.504 L 599.281,258.444 L 599.157,258.403 L 599.07,258.392 L 598.972,258.385 L 598.893,258.372 L 598.805,258.361 L 598.74,258.369 L 598.658,258.369 L 598.587,258.37 L 598.473,258.371 L 598.373,258.362 L 598.298,258.41 L 598.35,258.582 L 598.369,258.72 L 598.397,258.85 L 598.409,258.956 L 598.41,259.044 L 598.411,259.125 L 598.366,259.23 L 598.349,259.295 L 598.343,259.362 L 598.358,259.503 L 598.36,259.623 L 598.385,259.767 L 598.379,259.846 L 598.374,259.905 L 598.349,259.991 L 598.284,260.029 L 598.216,260.097 L 598.187,260.17 L 598.169,260.243 L 598.158,260.31 L 598.156,260.369 L 598.165,260.445 L 598.181,260.534 L 598.13,260.583 L 598.062,260.651 L 598.009,260.734 L 598.051,260.804 L 598.096,260.843 L 598.163,260.894 L 598.199,260.947 L 598.225,261.02 L 598.269,261.106 L 598.33,261.192 L 598.36,261.255 L 598.408,261.361 L 598.479,261.502 L 598.529,261.57 L 598.575,261.625 L 598.634,261.7 L 598.65,261.772 L 598.653,261.845 L 598.694,261.92 L 598.657,261.989 L 598.593,262.058 L 598.542,262.106 L 598.509,262.173 L 598.553,262.238 L 598.627,262.221 L 598.674,262.146 L 598.705,262.085 L 598.784,262.09 L 598.845,262.145 L 598.879,262.229 L 598.873,262.296 L 598.872,262.406 L 598.508,262.315 L 598.352,262.261 L 598.23,262.21 L 598.171,262.183 L 598.096,262.154 L 598.036,262.245 L 597.987,262.352 L 597.937,262.413 L 597.886,262.5 L 597.849,262.638 L 597.832,262.764 L 597.797,262.822 L 597.768,262.881 L 597.755,262.95 L 597.753,263.013 L 597.734,263.08 L 597.742,263.347 L 597.738,263.432 L 597.752,263.491 L 597.788,263.544 L 597.838,263.614 L 597.895,263.679 L 597.934,263.722 L 597.949,263.797 L 597.955,263.883 L 597.955,263.944 L 597.96,264.023 L 597.901,264.108 L 597.884,264.228 L 597.913,264.326 L 597.95,264.405 L 597.925,264.48 L 597.912,264.551 L 597.971,264.647 L 598.021,264.68 L 598.088,264.73 L 598.124,264.815 L 598.185,264.864 L 598.27,264.886 L 598.254,264.96 L 598.262,265.018 L 598.275,265.091 L 598.354,265.132 L 598.362,265.203 L 598.386,265.287 L 598.502,265.341 L 598.559,265.398 L 595.892,267.657 L 595.848,270.924 L 596.25,272.014 L 595.374,273.193 L 591.657,276.859 L 590.396,278.042 L 590.229,277.988 L 590.125,277.955 L 590.036,277.924 L 589.95,277.846 L 589.843,277.791 L 589.778,277.782 L 589.715,277.776 L 589.646,277.763 L 589.583,277.724 L 589.536,277.685 L 589.464,277.635 L 589.312,277.58 L 589.163,277.543 L 589.038,277.532 L 588.907,277.54 L 588.795,277.55 L 588.708,277.556 L 588.601,277.549 L 588.513,277.539 L 588.452,277.521 L 588.38,277.482 L 588.35,277.366 L 588.362,277.308 L 588.379,277.233 L 588.364,277.115 L 588.335,277.058 L 588.234,276.974 L 588.037,276.855 L 587.561,276.813 L 586.745,276.448 L 582.295,269.647 L 577.791,262.861 L 576.757,260.39 L 578.043,259.793 L 578.041,259.698 L 576.008,257.332 L 579.067,256.814 L 577.253,241.887 L 581.639,240.791 L 582.339,240.666 L 583.181,240.458 L 588.782,242.131"/></g></svg>