<svg xmlns="http://www.w3.org/2000/svg" role="img" viewBox="1058.02 611.64 64.47 83.59"><title>Uxbridge</title><path fill-rule="evenodd" d="M1120.00367 613.44256l.42563 39.50906.42564 39.06985-9.01299.28074-10.41213.33054-32.71254.90334.99842-48.73487-9.87556 2.3591-.0883-18.92252-.0068-1.45349 9.64238-2.30249-.00452-2.547 16.88038 6.21468 15.28653-7.20178 12.1441-5.75735.23545.1449.09282.1064.12226.09283.1381.06565.1381.04528.1834.0249.3328.02944.2898-.01585.19922-.04075.1381-.05887.19698-.07697.18564-.06792.18792-.03396.13584-.00906.2015-.00679.1879-.0498.13358-.05887.15169-.05887.31017-.13357.29884-.15848.24452-.1132 2.20513-1.37425" fill="#fefee9" fill-opacity="1" stroke="#000" stroke-linecap="square" stroke-linejoin="bevel" stroke-opacity="1" stroke-width=".22187199999999999"/></svg>