<svg xmlns="http://www.w3.org/2000/svg" role="img" viewBox="1403.01 287.01 40.05 48.42"><title>Wakefield</title><g id="g14955" fill="#fefee9" fill-opacity="1" fill-rule="evenodd" stroke="#000" stroke-linecap="square" stroke-linejoin="bevel" stroke-opacity="1" stroke-width=".098" transform="translate(-216.714 -21.7) scale(2.264)"><path id="path15281" fill-rule="evenodd" d="M 722.34,136.855 L 724.301,139.007 L 724.63,138.967 L 724.738,138.973 L 724.833,138.99 L 724.936,139.038 L 725.025,139.089 L 725.094,139.122 L 725.181,139.083 L 725.253,139.057 L 725.354,139.063 L 725.435,139.088 L 725.547,139.132 L 725.633,139.18 L 725.702,139.179 L 725.808,139.04 L 725.901,139.054 L 725.997,139.029 L 726.067,139.009 L 726.113,139.055 L 726.177,139.115 L 726.225,139.164 L 726.291,139.198 L 726.352,139.211 L 726.411,139.216 L 726.476,139.253 L 726.532,139.276 L 726.624,139.271 L 726.683,139.248 L 726.755,139.212 L 726.861,139.181 L 731.025,138.474 L 731.079,138.527 L 731.15,138.593 L 731.221,138.68 L 731.277,138.79 L 731.3,138.882 L 731.348,138.966 L 731.426,139.002 L 731.519,139.052 L 731.596,139.114 L 731.635,139.184 L 731.653,139.263 L 731.654,139.332 L 731.645,139.397 L 731.567,139.461 L 731.485,139.487 L 731.414,139.64 L 731.355,139.787 L 731.305,139.864 L 731.235,139.885 L 731.158,139.907 L 731.086,139.959 L 731.062,140.046 L 731.078,140.123 L 731.097,140.185 L 731.108,140.278 L 731.027,140.42 L 730.987,140.49 L 730.939,140.571 L 730.924,140.638 L 730.931,140.697 L 731.018,140.773 L 731.112,140.852 L 731.154,140.901 L 731.19,140.967 L 731.184,141.103 L 731.187,141.216 L 731.23,141.433 L 731.256,141.504 L 731.3,141.558 L 731.36,141.613 L 731.483,141.68 L 731.619,141.737 L 731.693,141.781 L 731.75,141.94 L 731.759,142.021 L 731.707,142.09 L 731.665,142.174 L 731.622,142.251 L 731.539,142.354 L 731.481,142.414 L 731.488,142.516 L 731.566,142.559 L 731.627,142.577 L 731.689,142.535 L 731.768,142.66 L 731.832,142.783 L 731.935,142.922 L 732.145,143.167 L 732.209,143.251 L 732.207,143.402 L 732.181,143.517 L 732.202,143.631 L 732.201,143.751 L 732.183,143.824 L 732.112,143.951 L 732.081,144.028 L 732.149,144.084 L 732.213,144.16 L 732.229,144.219 L 732.303,144.281 L 732.355,144.355 L 732.342,144.42 L 732.371,144.504 L 732.409,144.567 L 732.471,144.647 L 732.511,144.709 L 732.485,144.814 L 732.459,144.897 L 732.454,144.958 L 732.529,144.996 L 732.606,145.021 L 732.658,145.067 L 732.651,145.132 L 732.601,145.213 L 732.555,145.322 L 732.515,145.427 L 732.498,145.508 L 732.485,145.567 L 732.408,145.647 L 732.392,145.712 L 732.363,145.823 L 732.323,145.91 L 732.273,145.976 L 732.279,146.041 L 732.22,146.146 L 732.154,146.239 L 732.082,146.307 L 732.035,146.353 L 731.975,146.391 L 731.915,146.341 L 731.847,146.383 L 731.81,146.449 L 731.788,146.53 L 731.721,146.576 L 731.653,146.565 L 731.577,146.519 L 731.516,146.492 L 731.445,146.483 L 731.327,146.518 L 731.264,146.519 L 731.205,146.537 L 731.145,146.556 L 731.066,146.594 L 730.974,146.605 L 730.866,146.605 L 730.787,146.624 L 730.739,146.695 L 730.718,146.76 L 730.655,146.765 L 730.594,146.784 L 730.604,146.878 L 730.498,146.939 L 730.43,147.024 L 730.386,147.093 L 730.434,147.469 L 730.481,147.523 L 730.511,147.613 L 730.545,147.66 L 730.621,147.728 L 730.679,147.779 L 730.895,148.14 L 730.975,148.228 L 731.181,148.432 L 731.23,148.485 L 731.269,148.56 L 731.291,148.634 L 731.29,148.711 L 731.402,148.845 L 731.347,148.962 L 730.068,151.371 L 728.796,152.155 L 728.166,152.304 L 727.796,155.445 L 728.007,155.797 L 726.333,156.319 L 725.941,156.413 L 725.952,156.929 L 723.981,157.3 L 721.725,156.491 L 721.819,155.324 L 722.112,155.296 L 722.441,151.688 L 719.8,150.202 L 718.756,147.527 L 718.599,147.142 L 715.902,146.816 L 716.156,145.356 L 717.029,145.218 L 717.345,144.722 L 717.283,144.625 L 717.217,144.535 L 717.151,144.461 L 717.053,144.366 L 716.955,144.284 L 716.844,144.197 L 716.745,144.126 L 716.665,144.072 L 716.817,143.782 L 716.849,143.668 L 716.862,143.603 L 720.26,138.818 L 720.848,138.769 L 722.34,136.855"/></g></svg>