<svg xmlns="http://www.w3.org/2000/svg" role="img" viewBox="1270.94 445.44 61.62 47.24"><title>Wellesley</title><g id="g14955" fill="#fefee9" fill-opacity="1" fill-rule="evenodd" stroke="#000" stroke-linecap="square" stroke-linejoin="bevel" stroke-opacity="1" stroke-width=".098" transform="translate(-216.714 -21.7) scale(2.264)"><path id="path15525" fill-rule="evenodd" d="M 683.76,211.195 L 683.615,211.103 L 683.52,211.05 L 683.421,210.982 L 683.326,210.933 L 683.218,210.906 L 683.078,210.887 L 682.97,210.917 L 682.85,210.92 L 682.724,210.941 L 682.619,210.959 L 682.519,210.981 L 682.436,211.003 L 682.38,211.025 L 682.334,211.065 L 682.252,211.102 L 678.199,214.891 L 666.642,225.868 L 666.574,225.727 L 666.496,225.604 L 666.458,225.543 L 666.391,225.493 L 666.294,225.435 L 666.193,225.403 L 666.112,225.394 L 666.041,225.395 L 665.955,225.42 L 665.892,225.432 L 665.796,225.461 L 665.737,225.462 L 665.67,225.455 L 665.612,225.438 L 665.553,225.411 L 665.463,225.304 L 665.435,225.209 L 665.398,225.1 L 665.393,225.009 L 665.384,224.921 L 665.395,224.824 L 665.421,224.71 L 665.466,224.625 L 665.752,224.041 L 665.799,223.961 L 665.847,223.886 L 665.88,223.829 L 665.911,223.767 L 665.945,223.674 L 665.948,223.558 L 665.96,223.393 L 665.964,223.255 L 665.939,223.167 L 665.923,223.094 L 665.885,223.022 L 665.849,222.965 L 665.767,222.883 L 665.701,222.839 L 665.618,222.771 L 665.568,222.72 L 665.528,222.676 L 665.477,222.627 L 665.427,222.569 L 665.332,222.503 L 665.223,222.486 L 665.139,222.551 L 664.948,222.911 L 664.871,223.048 L 664.825,223.141 L 664.795,223.257 L 664.747,223.368 L 664.697,223.459 L 664.66,223.519 L 664.59,223.62 L 664.417,223.803 L 664.31,223.915 L 664.119,224.086 L 664.006,224.156 L 663.89,224.219 L 663.777,224.271 L 663.604,224.356 L 663.495,224.44 L 663.423,224.498 L 663.347,224.552 L 663.266,224.569 L 663.199,224.577 L 663.105,224.61 L 663.048,224.64 L 662.941,224.74 L 662.895,224.841 L 662.88,224.918 L 662.875,224.977 L 662.918,225.093 L 662.949,225.214 L 663.006,225.381 L 663.006,225.463 L 662.994,225.594 L 662.991,225.7 L 663.008,225.784 L 663.043,225.923 L 663.104,226.094 L 663.173,226.253 L 663.203,226.35 L 663.212,226.415 L 663.219,226.516 L 663.208,226.606 L 663.161,226.707 L 659.221,217.404 L 657.686,212.123 L 658.311,211.878 L 672.945,206.909 L 673.03,206.992 L 673.111,207.031 L 673.231,207.073 L 673.366,207.101 L 673.779,207.133 L 673.933,207.164 L 674.04,207.206 L 674.117,207.264 L 674.217,207.332 L 674.368,207.456 L 674.449,207.512 L 674.534,207.56 L 674.611,207.599 L 674.686,207.592 L 674.756,207.53 L 674.854,207.436 L 674.906,207.41 L 674.985,207.388 L 675.109,207.372 L 675.26,207.365 L 675.427,207.355 L 675.522,207.367 L 675.603,207.384 L 675.702,207.438 L 675.762,207.51 L 675.806,207.604 L 675.841,207.69 L 675.853,207.774 L 675.864,207.837 L 675.877,207.916 L 675.915,207.996 L 675.943,208.051 L 675.987,208.093 L 676.058,208.136 L 676.167,208.156 L 676.265,208.141 L 676.334,208.121 L 676.45,208.1 L 676.548,208.069 L 676.652,208.03 L 676.722,207.992 L 676.8,207.932 L 676.862,207.87 L 676.897,207.811 L 676.927,207.689 L 676.966,207.609 L 677.01,207.526 L 677.059,207.467 L 677.144,207.377 L 677.239,207.388 L 677.298,207.399 L 677.359,207.418 L 677.424,207.44 L 677.526,207.526 L 677.568,207.573 L 677.624,207.664 L 677.662,207.743 L 677.689,207.819 L 677.729,207.889 L 677.775,207.942 L 677.828,207.988 L 677.926,208.074 L 677.978,208.142 L 678.004,208.207 L 678.03,208.26 L 678.088,208.355 L 678.18,208.44 L 678.283,208.464 L 678.354,208.513 L 678.394,208.58 L 678.421,208.653 L 678.492,208.83 L 678.614,209.044 L 678.722,209.217 L 678.807,209.302 L 678.867,209.32 L 678.93,209.333 L 679.024,209.322 L 679.097,209.307 L 679.185,209.293 L 679.259,209.278 L 679.371,209.258 L 679.438,209.262 L 679.506,209.277 L 679.581,209.305 L 679.646,209.34 L 679.726,209.378 L 679.854,209.406 L 679.944,209.418 L 680.042,209.427 L 680.329,209.39 L 680.443,209.356 L 680.537,209.311 L 680.594,209.25 L 680.688,209.163 L 680.772,209.114 L 680.861,209.106 L 681.01,209.11 L 681.091,209.123 L 681.213,209.154 L 681.48,209.271 L 681.732,209.391 L 681.957,209.445 L 682.051,209.448 L 682.148,209.444 L 682.248,209.426 L 682.474,209.391 L 682.691,209.38 L 682.799,209.395 L 682.858,209.42 L 682.916,209.446 L 682.963,209.513 L 683.082,209.624 L 683.221,209.818 L 683.337,209.894 L 683.406,209.92 L 683.454,209.965 L 683.509,210.059 L 683.559,210.185 L 683.587,210.273 L 683.6,210.413 L 683.624,210.582 L 683.668,210.819 L 683.697,210.949 L 683.752,211.057 L 683.76,211.195"/></g></svg>