<svg xmlns="http://www.w3.org/2000/svg" role="img" viewBox="615.46 224.33 68.46 86.71"><title>Wendell</title><g id="g14955" fill="#fefee9" fill-opacity="1" fill-rule="evenodd" stroke="#000" stroke-linecap="square" stroke-linejoin="bevel" stroke-opacity="1" stroke-width=".098" transform="translate(-216.714 -21.7) scale(2.264)"><path id="path15205" fill-rule="evenodd" d="M 394.857,113.914 L 395.009,113.869 L 395.078,113.83 L 395.139,113.778 L 395.179,113.735 L 395.24,113.7 L 395.284,113.643 L 395.341,113.593 L 395.378,113.503 L 395.384,113.401 L 395.371,113.316 L 395.361,113.2 L 395.383,113.108 L 395.415,113.037 L 395.453,112.957 L 395.517,112.895 L 395.556,112.834 L 395.602,112.778 L 395.669,112.753 L 395.764,112.74 L 395.839,112.746 L 395.937,112.725 L 396.189,112.729 L 396.362,112.751 L 396.47,112.773 L 396.533,112.795 L 396.593,112.816 L 396.648,112.842 L 396.695,112.895 L 396.777,112.943 L 396.854,112.957 L 396.926,112.996 L 396.985,112.994 L 397.056,112.979 L 397.027,113.394 L 396.093,129.943 L 395.567,146.242 L 392.964,145.84 L 391.427,145.575 L 374.551,142.928 L 374.919,140.078 L 369.814,140.747 L 371.685,127.673 L 371.681,127.583 L 371.663,127.527 L 371.626,127.422 L 371.584,127.339 L 371.561,127.26 L 371.542,127.186 L 371.532,127.119 L 371.523,127.058 L 371.5,126.975 L 371.474,126.9 L 371.451,126.844 L 371.425,126.765 L 371.404,126.654 L 371.408,126.582 L 371.422,126.48 L 371.414,126.391 L 371.373,126.282 L 371.327,126.216 L 371.319,126.143 L 371.268,126.038 L 371.215,125.932 L 371.154,125.837 L 371.101,125.749 L 371.056,125.656 L 371.008,125.594 L 370.926,125.541 L 370.87,125.48 L 370.832,125.434 L 370.763,125.352 L 370.679,125.254 L 370.579,125.199 L 370.537,125.159 L 370.486,125.124 L 370.403,125.071 L 370.339,125.011 L 370.281,124.966 L 370.202,124.896 L 370.092,124.799 L 370.034,124.745 L 369.965,124.686 L 369.928,124.636 L 369.902,124.573 L 369.89,124.494 L 369.907,124.421 L 369.858,124.342 L 369.8,124.299 L 369.729,124.268 L 369.689,124.212 L 369.665,124.141 L 369.657,124.066 L 369.635,123.997 L 369.603,123.935 L 369.565,123.875 L 369.492,123.765 L 369.435,123.687 L 369.362,123.615 L 369.331,123.559 L 369.297,123.498 L 369.293,123.413 L 369.313,123.313 L 369.276,123.21 L 369.242,123.144 L 369.225,123.085 L 369.182,123.021 L 369.131,122.973 L 369.07,122.893 L 369.026,122.837 L 368.994,122.789 L 368.956,122.694 L 368.949,122.591 L 368.959,122.491 L 368.941,122.408 L 368.913,122.333 L 368.873,122.281 L 368.833,122.201 L 368.825,122.118 L 368.834,122.044 L 368.844,121.983 L 368.873,121.887 L 368.916,121.811 L 368.946,121.71 L 368.938,121.635 L 368.924,121.544 L 368.908,121.451 L 368.888,121.362 L 368.873,121.274 L 368.858,121.201 L 368.881,121.144 L 368.932,121.086 L 368.961,121.02 L 368.954,120.955 L 368.924,120.875 L 368.83,120.763 L 368.678,120.526 L 368.575,120.384 L 368.449,120.194 L 368.395,120.056 L 368.506,120.005 L 368.631,119.966 L 368.738,119.925 L 368.855,119.865 L 368.967,119.81 L 369.048,119.778 L 369.175,119.718 L 369.261,119.671 L 369.333,119.623 L 369.446,119.556 L 369.524,119.507 L 369.579,119.441 L 369.62,119.359 L 369.628,119.246 L 369.625,119.135 L 369.664,119.024 L 369.727,118.954 L 369.779,118.897 L 369.822,118.843 L 369.904,118.775 L 369.957,118.704 L 370.023,118.632 L 370.071,118.598 L 370.131,118.573 L 370.19,118.553 L 370.271,118.533 L 370.347,118.49 L 370.444,118.441 L 370.514,118.391 L 370.577,118.312 L 370.626,118.234 L 370.683,118.139 L 370.718,118.082 L 370.771,118.001 L 370.817,117.937 L 370.907,117.882 L 370.987,117.836 L 371.066,117.806 L 371.121,117.79 L 371.183,117.768 L 371.286,117.742 L 371.393,117.707 L 371.448,117.685 L 371.545,117.657 L 371.619,117.617 L 371.681,117.587 L 371.733,117.539 L 371.787,117.499 L 371.849,117.445 L 371.941,117.386 L 372.019,117.315 L 372.193,117.167 L 372.436,116.976 L 372.54,116.895 L 372.622,116.826 L 372.708,116.747 L 372.793,116.662 L 372.867,116.585 L 372.924,116.508 L 372.989,116.423 L 373.064,116.31 L 373.121,116.229 L 373.185,116.152 L 373.271,116.081 L 373.33,116.027 L 373.394,115.965 L 373.48,115.882 L 373.564,115.849 L 373.612,115.812 L 373.701,115.771 L 373.765,115.751 L 373.853,115.735 L 373.911,115.716 L 373.988,115.698 L 374.053,115.676 L 374.129,115.646 L 374.182,115.622 L 374.232,115.591 L 374.299,115.53 L 374.339,115.48 L 374.39,115.418 L 374.428,115.359 L 374.458,115.275 L 374.523,115.18 L 374.555,115.124 L 374.602,115.048 L 374.657,114.965 L 374.724,114.882 L 374.774,114.812 L 374.837,114.733 L 374.919,114.662 L 374.991,114.604 L 375.078,114.531 L 375.201,114.449 L 375.351,114.362 L 375.454,114.309 L 375.516,114.275 L 375.592,114.235 L 375.664,114.184 L 375.716,114.139 L 375.754,114.093 L 375.787,114.017 L 375.799,113.915 L 375.794,113.805 L 375.782,113.7 L 375.771,113.592 L 375.752,113.473 L 375.725,113.347 L 375.702,113.226 L 375.68,113.128 L 375.67,113.029 L 375.654,112.903 L 375.643,112.82 L 375.664,112.761 L 375.666,112.671 L 375.69,112.597 L 375.767,112.543 L 375.855,112.488 L 375.917,112.462 L 375.982,112.435 L 376.056,112.398 L 376.135,112.366 L 376.233,112.321 L 376.336,112.287 L 376.407,112.263 L 376.499,112.212 L 376.604,112.154 L 376.706,112.069 L 376.811,111.981 L 376.938,111.889 L 377.023,111.806 L 377.097,111.737 L 377.168,111.652 L 377.207,111.564 L 377.246,111.494 L 377.281,111.416 L 377.312,111.346 L 377.349,111.274 L 377.382,111.192 L 377.42,111.101 L 377.447,111.011 L 377.501,110.892 L 377.535,110.775 L 377.575,110.667 L 377.628,110.578 L 377.677,110.484 L 377.73,110.391 L 377.792,110.28 L 377.854,110.189 L 378.026,109.992 L 378.089,109.919 L 378.149,109.839 L 378.208,109.772 L 378.268,109.718 L 378.338,109.657 L 378.388,109.618 L 378.506,109.558 L 378.61,109.534 L 378.699,109.534 L 378.771,109.552 L 378.844,109.547 L 378.923,109.561 L 379.009,109.559 L 379.088,109.552 L 379.165,109.56 L 379.279,109.566 L 379.363,109.572 L 379.444,109.57 L 379.545,109.554 L 379.641,109.546 L 379.737,109.56 L 379.822,109.554 L 379.911,109.558 L 380.035,109.553 L 380.123,109.543 L 380.206,109.539 L 380.301,109.533 L 380.405,109.531 L 380.511,109.521 L 380.622,109.514 L 380.736,109.516 L 380.848,109.511 L 380.972,109.508 L 381.03,109.485 L 381.141,109.521 L 381.254,109.567 L 381.344,109.61 L 381.384,109.652 L 381.438,109.734 L 381.476,109.778 L 381.514,109.83 L 381.551,109.876 L 381.591,109.92 L 381.635,109.968 L 381.678,110.008 L 381.757,110.081 L 381.828,110.143 L 382.111,110.362 L 382.439,110.589 L 382.652,110.743 L 382.731,110.804 L 382.787,110.852 L 382.922,110.997 L 383.018,111.087 L 383.186,111.278 L 383.263,111.358 L 383.405,111.499 L 383.557,111.653 L 384.018,112.188 L 384.09,112.251 L 384.134,112.311 L 384.176,112.355 L 384.289,112.43 L 384.333,112.472 L 384.373,112.522 L 384.425,112.588 L 384.486,112.688 L 384.526,112.734 L 384.604,112.785 L 384.686,112.818 L 384.776,112.84 L 384.874,112.84 L 384.971,112.83 L 385.077,112.826 L 385.197,112.831 L 385.258,112.834 L 385.36,112.84 L 385.429,112.842 L 385.496,112.845 L 385.578,112.851 L 385.657,112.854 L 385.775,112.859 L 385.862,112.853 L 385.954,112.847 L 386.059,112.843 L 386.157,112.84 L 386.245,112.843 L 386.313,112.837 L 386.395,112.837 L 386.464,112.84 L 386.582,112.852 L 386.654,112.862 L 386.772,112.876 L 386.833,112.885 L 386.89,112.898 L 386.958,112.915 L 387.015,112.932 L 387.074,112.953 L 387.163,112.99 L 387.235,113.043 L 387.326,113.11 L 387.38,113.156 L 387.462,113.207 L 387.516,113.264 L 387.58,113.308 L 387.638,113.355 L 387.696,113.397 L 387.765,113.46 L 387.839,113.51 L 387.909,113.559 L 388.028,113.605 L 388.158,113.608 L 388.268,113.581 L 388.328,113.562 L 388.384,113.52 L 388.441,113.509 L 388.495,113.477 L 388.553,113.425 L 388.613,113.373 L 388.675,113.329 L 388.801,113.259 L 388.885,113.19 L 388.965,113.143 L 389.018,113.111 L 389.08,113.08 L 389.138,113.054 L 389.192,113.016 L 389.299,112.981 L 389.366,112.95 L 389.443,112.934 L 389.56,112.913 L 389.682,112.886 L 389.752,112.868 L 389.893,112.861 L 389.99,112.871 L 390.065,112.865 L 390.123,112.902 L 390.193,112.919 L 390.26,112.936 L 390.326,112.953 L 390.387,112.966 L 390.452,112.969 L 390.521,112.973 L 390.596,112.973 L 390.655,112.96 L 390.726,112.94 L 390.794,112.91 L 390.899,112.853 L 390.969,112.801 L 391.045,112.728 L 391.093,112.692 L 391.145,112.654 L 391.241,112.606 L 391.302,112.584 L 391.377,112.574 L 391.462,112.556 L 391.563,112.541 L 391.758,112.499 L 391.905,112.524 L 391.983,112.536 L 392.056,112.56 L 392.123,112.564 L 392.184,112.575 L 392.276,112.595 L 392.412,112.636 L 392.467,112.655 L 392.532,112.685 L 392.615,112.712 L 392.752,112.754 L 392.809,112.777 L 392.869,112.803 L 392.943,112.837 L 393.105,112.924 L 393.256,113.021 L 393.458,113.147 L 393.626,113.236 L 393.933,113.449 L 394.127,113.587 L 394.263,113.68 L 394.349,113.74 L 394.431,113.809 L 394.497,113.845 L 394.664,113.907 L 394.75,113.92 L 394.857,113.914"/></g></svg>