<svg xmlns="http://www.w3.org/2000/svg" role="img" viewBox="1381.80 937.92 75.28 173.16"><title>Westport</title><g id="g14955" fill="#fefee9" fill-opacity="1" fill-rule="evenodd" stroke="#000" stroke-linecap="square" stroke-linejoin="bevel" stroke-opacity="1" stroke-width=".098" transform="translate(-216.714 -21.7) scale(2.264)"><path id="path16019" d="M 723.451,427.224 L 723.844,430.488 L 724.388,431.203 L 725.949,433.248 L 726.116,433.507 L 726.78,434.325 L 726.834,434.384 L 726.94,434.567 L 727.081,434.808 L 727.333,435.3 L 727.733,436.09 L 727.964,436.554 L 729.395,439.202 L 729.492,439.433 L 729.99,440.794 L 729.995,440.857 L 730.006,440.967 L 730.064,441.181 L 730.348,442.134 L 730.457,442.656 L 730.616,443.26 L 730.699,443.449 L 730.983,443.928 L 731.358,444.476 L 731.749,444.705 L 732.284,445.92 L 732.332,445.955 L 732.385,445.982 L 733.422,447.693 L 733.755,448.63 L 733.854,448.928 L 733.804,448.974 L 733.73,449.058 L 733.637,449.13 L 733.578,449.24 L 733.572,449.372 L 733.892,451.219 L 733.887,451.461 L 733.887,451.587 L 733.827,451.95 L 733.593,453.335 L 733.494,453.935 L 733.452,454.314 L 733.456,454.534 L 733.468,454.713 L 733.556,455.512 L 733.821,457.51 L 733.868,457.902 L 733.807,457.929 L 733.728,457.98 L 733.68,458.038 L 733.64,458.119 L 733.365,458.638 L 733.248,458.844 L 733.225,458.953 L 733.207,459.15 L 733.175,459.393 L 733.109,459.447 L 732.969,459.558 L 732.777,459.705 L 732.043,460.543 L 731.889,460.719 L 731.833,460.85 L 731.794,460.955 L 731.775,461.109 L 731.767,461.318 L 731.799,461.527 L 731.856,461.725 L 731.912,461.887 L 731.97,462.018 L 732.105,462.222 L 732.355,462.617 L 733.76,465.069 L 733.936,465.404 L 734.103,465.71 L 734.348,466.152 L 734.541,466.487 L 734.704,466.842 L 735.023,467.609 L 735.101,467.873 L 735.118,467.932 L 735.162,468.157 L 735.21,468.499 L 735.301,469.044 L 735.354,469.265 L 735.47,469.68 L 735.568,470.174 L 735.959,471.756 L 735.971,471.862 L 735.957,471.955 L 735.911,472.115 L 735.863,472.268 L 735.847,472.382 L 735.834,472.505 L 735.798,472.664 L 735.475,473.709 L 735.47,473.847 L 735.476,473.973 L 735.511,474.234 L 735.563,474.593 L 735.618,474.781 L 735.671,474.984 L 735.684,475.041 L 735.67,475.132 L 735.403,475.609 L 735.377,475.684 L 735.379,475.767 L 735.607,477.004 L 735.793,477.732 L 735.865,478.302 L 736.151,479.398 L 736.72,481.219 L 735.069,482.159 L 736.106,486.837 L 736.217,487.079 L 736.667,487.989 L 736.92,488.461 L 737.137,488.868 L 737.338,489.203 L 737.756,489.958 L 737.827,490.086 L 737.77,490.192 L 737.566,490.318 L 736.411,490.783 L 736.207,490.885 L 735.736,491.258 L 735.163,491.536 L 734.768,491.682 L 734.706,491.742 L 734.561,491.856 L 734.428,491.989 L 734.298,492.117 L 734.146,492.278 L 734.054,492.419 L 733.987,492.566 L 733.899,492.703 L 733.759,492.925 L 733.722,492.994 L 733.674,493.095 L 733.645,493.151 L 733.642,493.249 L 733.669,493.367 L 733.689,493.428 L 733.722,493.572 L 733.707,493.679 L 733.699,493.85 L 733.673,493.969 L 733.652,494.121 L 733.638,494.239 L 733.645,494.367 L 733.66,494.503 L 733.669,494.594 L 733.686,494.714 L 733.701,494.826 L 733.71,494.907 L 733.744,494.988 L 733.795,495.105 L 733.843,495.162 L 733.929,495.266 L 734.024,495.36 L 734.094,495.434 L 734.154,495.502 L 734.26,495.564 L 734.352,495.577 L 734.402,495.606 L 734.46,495.663 L 734.5,495.706 L 734.568,495.782 L 734.644,495.839 L 734.7,495.929 L 734.675,496.014 L 734.604,496.083 L 734.542,496.125 L 734.461,496.215 L 734.403,496.316 L 734.351,496.431 L 734.299,496.526 L 734.227,496.665 L 734.186,496.764 L 734.187,496.831 L 734.175,496.957 L 734.189,497.05 L 734.224,497.14 L 734.254,497.207 L 734.293,497.295 L 734.325,497.38 L 734.349,497.462 L 734.378,497.541 L 734.383,497.626 L 734.399,497.687 L 734.42,497.769 L 734.418,497.832 L 734.439,497.929 L 734.329,497.961 L 734.21,497.98 L 734.137,497.997 L 733.992,498.028 L 733.927,498.044 L 733.85,498.081 L 733.79,498.056 L 733.736,497.971 L 733.696,497.918 L 733.584,497.783 L 733.558,497.726 L 733.534,497.662 L 733.512,497.538 L 733.487,497.398 L 733.457,497.317 L 733.442,497.215 L 733.438,497.156 L 733.425,497.081 L 733.414,496.953 L 733.409,496.868 L 733.406,496.789 L 733.41,496.724 L 733.383,496.592 L 733.356,496.518 L 733.334,496.451 L 733.311,496.368 L 733.301,496.305 L 733.326,496.24 L 733.361,496.147 L 733.367,496.046 L 733.355,495.971 L 733.312,495.842 L 733.267,495.734 L 733.259,495.637 L 733.26,495.576 L 733.24,495.507 L 733.203,495.413 L 733.157,495.33 L 733.098,495.225 L 733.062,495.138 L 733.08,494.97 L 733.099,494.909 L 733.148,494.796 L 733.175,494.741 L 733.274,494.586 L 733.395,494.441 L 733.43,494.352 L 733.488,494.233 L 733.514,494.116 L 733.55,493.98 L 733.575,493.877 L 733.593,493.741 L 733.624,493.666 L 733.637,493.594 L 733.621,493.51 L 733.594,493.447 L 733.56,493.382 L 733.476,493.267 L 733.416,493.19 L 733.328,493.059 L 733.271,492.941 L 733.201,492.824 L 733.119,492.71 L 733.051,492.634 L 732.997,492.55 L 732.897,492.448 L 732.833,492.382 L 732.753,492.27 L 732.655,492.178 L 732.585,492.08 L 732.456,491.956 L 732.36,491.872 L 732.268,491.795 L 732.188,491.741 L 732.107,491.687 L 732.053,491.66 L 731.737,491.412 L 731.302,491.077 L 730.433,490.507 L 728.901,489.766 L 726.985,489.161 L 726.362,488.99 L 725.913,488.938 L 725.031,488.92 L 723.289,488.747 L 722.832,488.624 L 722.131,488.554 L 721.792,488.462 L 721.493,488.424 L 720.823,488.453 L 720.414,488.446 L 720.201,488.378 L 720.138,488.33 L 720.113,488.179 L 720.299,487.652 L 720.464,487.492 L 720.716,487.501 L 721.355,487.702 L 721.685,487.677 L 722.322,487.343 L 722.927,487.064 L 723.045,487.03 L 723.596,487.02 L 723.927,487.066 L 724.816,487.022 L 725.288,486.903 L 725.712,486.655 L 725.98,486.647 L 726.137,486.543 L 726.349,486.472 L 726.751,486.522 L 727.019,486.657 L 727.272,486.82 L 727.375,486.985 L 727.495,487.332 L 727.495,487.434 L 727.631,487.747 L 727.948,488.069 L 728.24,488.21 L 728.278,488.06 L 728.357,487.98 L 728.467,487.949 L 728.522,488.009 L 728.57,488.154 L 728.823,488.332 L 729.107,488.408 L 729.256,488.354 L 729.319,488.281 L 729.31,488.061 L 729.223,488.063 L 729.066,488.173 L 728.956,488.189 L 728.916,488.088 L 728.891,487.853 L 729.009,487.71 L 729.135,487.74 L 729.277,487.795 L 729.371,487.802 L 729.45,487.666 L 729.449,487.604 L 729.378,487.504 L 729.031,487.418 L 728.905,487.356 L 728.904,487.245 L 729.029,486.984 L 729.107,486.898 L 729.123,486.841 L 729.224,486.717 L 729.381,486.614 L 729.61,486.604 L 729.68,486.555 L 729.813,486.406 L 729.955,486.436 L 730.05,486.467 L 730.122,486.663 L 730.216,486.586 L 730.334,486.583 L 730.405,486.538 L 730.396,486.451 L 730.333,486.357 L 730.332,486.245 L 730.418,486.174 L 730.568,486.117 L 730.773,486.127 L 731.325,486.318 L 731.957,486.685 L 732.319,486.739 L 732.485,486.825 L 732.691,487.029 L 732.858,487.375 L 732.993,487.517 L 733.176,487.94 L 733.192,488.035 L 733.288,488.271 L 733.406,488.38 L 733.446,488.434 L 733.424,488.788 L 733.308,489.136 L 733.301,489.254 L 733.341,489.349 L 733.443,489.467 L 733.54,489.954 L 733.731,490.181 L 733.873,490.258 L 734.337,490.282 L 734.401,490.342 L 734.417,490.397 L 734.403,490.832 L 734.451,490.942 L 734.561,491.004 L 734.734,490.863 L 734.821,490.916 L 734.963,490.986 L 735.136,490.963 L 735.207,490.874 L 735.19,490.701 L 735.237,490.662 L 735.568,490.739 L 735.67,490.715 L 735.717,490.636 L 735.709,490.462 L 735.677,490.352 L 735.581,490.243 L 735.455,490.15 L 735.147,490.001 L 735.068,489.882 L 734.988,489.686 L 735.018,489.465 L 735.088,489.267 L 735.087,489.15 L 734.977,489.01 L 734.4,488.689 L 734.273,488.479 L 734.123,488.328 L 733.972,488.236 L 733.52,487.505 L 733.259,487.301 L 733.203,487.185 L 733.187,487.034 L 733.084,486.972 L 732.878,486.72 L 732.846,486.634 L 732.845,486.491 L 733.019,486.564 L 733.137,486.561 L 733.216,486.521 L 733.065,486.327 L 732.938,486.138 L 732.749,486.076 L 732.67,486.013 L 732.347,486 L 732.213,486.017 L 732.143,486.102 L 732.017,486.15 L 731.859,486.151 L 731.709,486.034 L 731.457,485.995 L 731.449,485.933 L 731.385,485.712 L 731.321,485.649 L 731.109,485.673 L 731.006,485.642 L 730.848,485.424 L 730.768,485.221 L 730.648,484.89 L 730.655,484.7 L 730.765,484.66 L 730.852,484.716 L 730.954,484.713 L 731.048,484.667 L 731.048,484.462 L 731.016,484.414 L 731.085,484.154 L 731.14,484.091 L 731.345,484.029 L 731.352,483.948 L 731.304,483.887 L 731.304,483.76 L 731.453,483.697 L 731.445,483.586 L 731.373,483.485 L 731.16,483.399 L 731.167,483.178 L 731.284,482.964 L 731.221,482.848 L 731.212,482.752 L 731.274,482.642 L 731.289,482.349 L 731.138,482.177 L 731.152,481.715 L 731.26,481.46 L 731.283,481.202 L 731.218,480.934 L 731.004,480.494 L 730.964,480.399 L 730.796,480.013 L 730.685,479.755 L 730.532,479.23 L 730.308,478.371 L 730.188,478.064 L 730.115,477.632 L 730.096,476.978 L 730.032,476.797 L 730.047,476.648 L 730.155,476.341 L 730.122,476.041 L 730.2,475.703 L 730.105,475.585 L 730.109,474.9 L 729.775,474.23 L 729.608,473.95 L 729.274,473.289 L 729.098,472.863 L 729.065,472.48 L 729.008,472.252 L 728.968,472.11 L 728.905,471.945 L 728.872,471.778 L 728.793,471.669 L 728.674,471.592 L 728.642,471.506 L 728.657,471.332 L 728.751,471.199 L 728.735,471.128 L 728.003,471.171 L 727.924,471.114 L 727.892,471.037 L 727.883,470.777 L 727.716,470.525 L 727.487,470.392 L 727.423,470.282 L 727.399,470.149 L 727.32,470 L 727.247,469.691 L 727.175,469.458 L 727.127,469.286 L 727.079,469.244 L 726.97,469.278 L 726.962,469.387 L 726.885,469.665 L 726.776,469.932 L 726.824,470.175 L 726.936,470.371 L 727.008,470.71 L 726.925,471.413 L 726.784,471.538 L 726.666,471.532 L 726.571,471.491 L 726.524,471.431 L 726.484,471.311 L 726.412,471.177 L 726.238,471.036 L 726.175,470.895 L 726.15,470.784 L 726.103,470.699 L 726.008,470.661 L 725.567,470.677 L 725.449,470.609 L 725.432,470.498 L 725.408,470.35 L 725.336,470.231 L 725.115,470.067 L 725.089,469.556 L 724.836,469.414 L 724.819,469.076 L 724.998,468.681 L 725.226,468.618 L 725.225,468.404 L 725.121,468.075 L 725.081,468.011 L 725.057,467.845 L 725.06,467.066 L 725.199,466.507 L 725.19,466.278 L 725.079,466.104 L 725.062,465.863 L 725.123,465.492 L 725.106,465.325 L 725.011,465.138 L 725.003,464.986 L 725.127,464.744 L 725.55,464.291 L 725.715,464.156 L 725.746,464.072 L 725.698,463.912 L 725.705,463.809 L 725.861,463.606 L 725.987,463.494 L 725.978,463.367 L 725.892,463.345 L 725.781,463.252 L 725.773,463.165 L 726.047,462.903 L 726.093,462.706 L 725.841,462.754 L 725.707,462.668 L 725.997,462.321 L 725.925,462.14 L 725.931,461.926 L 726.057,461.888 L 726.381,461.997 L 726.46,461.973 L 726.45,461.713 L 726.41,461.643 L 726.198,461.652 L 726.024,461.579 L 725.615,461.591 L 725.552,461.575 L 725.512,461.529 L 725.535,461.432 L 725.857,461.305 L 725.999,461.211 L 726.132,461.083 L 726.256,460.698 L 726.617,460.539 L 726.679,460.326 L 726.513,460.073 L 726.511,459.72 L 726.517,459.372 L 726.649,459.027 L 726.655,458.67 L 726.495,458.135 L 726.461,457.625 L 726.365,457.5 L 726.325,457.374 L 726.435,457.256 L 727.314,456.676 L 727.337,456.582 L 727.326,455.953 L 727.349,455.785 L 727.497,455.501 L 727.496,455.241 L 727.464,455.179 L 727.502,455.005 L 727.549,454.966 L 727.659,454.941 L 727.832,454.728 L 727.942,454.719 L 728.14,454.909 L 728.226,454.956 L 728.345,454.946 L 728.351,454.772 L 728.28,454.688 L 728.185,454.631 L 728.066,454.467 L 727.941,454.493 L 727.807,454.546 L 727.618,454.533 L 727.609,454.4 L 727.812,453.988 L 727.827,453.839 L 727.905,453.681 L 728.007,453.563 L 728.069,453.419 L 728.083,453.152 L 728.216,452.946 L 728.365,452.781 L 728.372,452.622 L 728.292,452.42 L 728.291,452.277 L 728.212,452.221 L 728.086,452.19 L 728.015,452.065 L 727.981,451.688 L 727.918,451.655 L 727.777,451.808 L 727.826,452.068 L 728.055,452.309 L 728.087,452.42 L 728.104,452.577 L 728.073,452.681 L 727.932,452.837 L 727.824,453.209 L 727.691,453.492 L 727.277,454.093 L 727.231,454.346 L 727.234,454.882 L 727.266,455.077 L 727.276,455.337 L 727.151,455.623 L 727.17,456.242 L 727.1,456.471 L 726.999,456.598 L 726.834,456.727 L 726.645,456.797 L 726.308,456.972 L 726.15,457.004 L 726.025,457.138 L 726.002,457.204 L 725.963,457.391 L 726.147,457.863 L 726.171,458.021 L 726.117,458.289 L 726.024,458.416 L 725.788,458.432 L 725.693,458.36 L 725.251,458.302 L 725.157,458.326 L 725.15,458.41 L 725.197,458.53 L 725.316,458.591 L 725.623,458.66 L 725.742,458.812 L 725.759,459.078 L 725.729,459.259 L 725.722,459.535 L 725.756,459.974 L 725.702,460.094 L 725.561,460.213 L 725.05,460.531 L 724.863,460.791 L 724.746,461.114 L 724.764,461.476 L 724.9,462.003 L 724.878,462.186 L 724.825,462.65 L 724.857,462.745 L 724.952,462.845 L 724.992,462.949 L 724.969,463.099 L 724.703,463.454 L 724.531,463.611 L 724.366,463.659 L 724.175,463.447 L 724.088,463.276 L 724.063,463.038 L 724.023,462.859 L 723.944,462.828 L 723.868,463.419 L 724.012,463.787 L 724.313,464.163 L 724.314,464.315 L 724.167,464.93 L 724.161,465.141 L 724.201,465.345 L 724.148,465.694 L 724.172,465.882 L 724.315,466.095 L 724.426,466.157 L 724.489,466.236 L 724.49,466.375 L 724.389,466.651 L 724.248,466.897 L 724.242,467.087 L 724.281,467.166 L 724.352,467.226 L 724.51,467.274 L 724.637,467.351 L 724.692,467.44 L 724.701,467.619 L 724.506,468.016 L 724.445,468.315 L 724.188,468.865 L 724.118,469.088 L 724.153,469.757 L 724.107,470.056 L 724.172,470.314 L 724.227,470.409 L 724.37,470.575 L 724.6,470.919 L 724.845,471.178 L 724.98,471.454 L 725.116,471.673 L 725.401,471.978 L 725.528,472.198 L 725.576,472.348 L 725.681,472.978 L 725.77,473.307 L 725.929,473.607 L 726.176,474.273 L 726.287,474.415 L 726.359,474.689 L 726.63,475.184 L 726.75,475.524 L 726.94,475.804 L 727.029,476.27 L 727.084,476.318 L 727.188,476.6 L 727.221,476.82 L 727.26,476.921 L 727.27,477.299 L 727.319,477.456 L 727.414,477.583 L 727.408,477.993 L 727.496,478.369 L 727.552,478.426 L 727.584,478.568 L 727.561,478.683 L 727.563,479.111 L 727.416,479.537 L 727.298,479.693 L 727.094,479.782 L 726.953,479.87 L 726.867,480.012 L 726.85,481.334 L 726.804,481.531 L 726.719,481.753 L 726.711,481.893 L 726.783,482.058 L 726.973,482.255 L 726.974,482.506 L 726.818,482.839 L 726.709,482.972 L 726.552,483.051 L 726.474,483.156 L 726.373,483.494 L 726.399,483.989 L 726.299,484.408 L 726.19,484.675 L 725.932,485.023 L 725.792,485.325 L 725.737,485.389 L 725.501,485.411 L 725.452,485.081 L 725.373,484.987 L 725.302,485.035 L 725.281,485.585 L 725.323,486.12 L 725.277,486.239 L 725.206,486.288 L 724.954,486.218 L 724.859,486.084 L 724.707,485.716 L 724.573,485.565 L 724.249,485.404 L 724.122,485.277 L 723.916,484.964 L 723.797,484.846 L 723.529,484.736 L 723.307,484.541 L 723.171,484.077 L 723.029,483.944 L 722.974,484.024 L 722.866,484.371 L 722.772,484.467 L 722.661,484.504 L 721.707,484.203 L 721.572,484.039 L 721.326,483.646 L 721.176,483.496 L 721.096,483.247 L 720.85,482.829 L 720.754,482.562 L 720.767,482.183 L 720.599,481.633 L 720.599,481.546 L 720.495,481.223 L 720.326,480.627 L 720.308,480.069 L 720.236,479.91 L 720.141,479.77 L 720.023,479.693 L 719.794,479.684 L 719.379,480.065 L 718.995,480.501 L 718.869,480.594 L 718.633,480.511 L 718.388,480.292 L 718.316,480.179 L 718.243,479.747 L 718.077,479.569 L 717.966,479.395 L 717.776,479.206 L 717.563,479.122 L 717.381,478.956 L 717.378,478.476 L 717.22,478.288 L 716.919,477.85 L 716.625,477.49 L 716.632,477.353 L 716.717,477.016 L 716.685,476.951 L 716.409,476.789 L 716.291,476.805 L 716.26,476.861 L 716.166,477.09 L 716.001,477.098 L 715.906,477.005 L 715.858,476.87 L 715.763,476.736 L 715.605,476.604 L 715.549,476.51 L 715.548,476.249 L 715.64,475.775 L 715.639,475.605 L 715.592,475.556 L 715.474,475.588 L 715.136,475.802 L 714.924,475.898 L 714.79,475.93 L 714.578,475.893 L 714.214,475.603 L 714.12,475.627 L 713.979,475.761 L 713.79,475.826 L 713.286,475.853 L 713.167,475.757 L 713.128,475.671 L 713.087,475.325 L 712.992,475.272 L 712.716,475.233 L 712.668,475.195 L 712.581,475.005 L 712.541,474.848 L 712.54,474.659 L 712.508,474.604 L 712.445,474.596 L 712.288,474.66 L 712.043,474.605 L 711.815,474.63 L 711.578,474.497 L 711.271,474.506 L 711.28,474.649 L 711.398,474.72 L 711.808,474.86 L 711.919,474.984 L 712.039,475.321 L 712.056,475.566 L 712.129,475.874 L 712.138,476.14 L 712.091,476.306 L 712.094,476.771 L 712.142,476.937 L 712.222,477.118 L 712.293,477.187 L 712.364,477.195 L 712.638,476.957 L 712.827,476.958 L 712.82,477.144 L 712.704,477.414 L 712.704,477.594 L 712.792,477.737 L 713.028,477.83 L 713.123,477.923 L 713.18,478.129 L 713.314,478.302 L 713.844,478.771 L 713.994,478.8 L 714.19,478.736 L 714.246,478.768 L 714.294,478.894 L 714.326,479.061 L 714.437,479.24 L 714.548,479.374 L 714.919,479.443 L 715.077,479.56 L 715.244,479.937 L 715.339,480.039 L 715.742,480.272 L 715.892,480.436 L 716.083,480.821 L 716.21,481.003 L 716.376,481.088 L 716.786,481.132 L 716.928,481.197 L 717.046,481.298 L 717.11,481.414 L 717.158,481.627 L 717.222,481.783 L 717.294,481.918 L 717.436,482.075 L 717.635,482.404 L 717.882,482.955 L 717.984,483.064 L 718.119,483.125 L 718.222,483.228 L 718.238,483.395 L 718.223,483.473 L 718.216,483.718 L 718.264,483.915 L 718.36,484.111 L 718.465,484.725 L 718.482,484.848 L 718.586,485.084 L 718.665,485.163 L 718.791,485.233 L 718.956,485.247 L 719.043,485.335 L 719.052,485.446 L 719.005,485.516 L 718.841,485.809 L 718.741,486.305 L 718.671,486.446 L 718.546,486.621 L 718.366,486.818 L 718.234,487.172 L 718.231,488.128 L 718.595,488.455 L 718.69,488.614 L 718.785,488.707 L 719.432,488.965 L 719.621,489.018 L 719.827,489.133 L 720.103,489.227 L 720.268,489.235 L 720.402,489.203 L 720.575,489.13 L 720.709,489.123 L 720.764,489.286 L 720.702,489.359 L 720.026,489.701 L 719.893,489.804 L 719.737,489.985 L 719.595,490.073 L 719.337,490.317 L 719.093,490.382 L 718.66,490.361 L 718.424,490.408 L 718.258,490.338 L 718.03,490.348 L 717.912,490.404 L 717.55,490.43 L 717.29,490.351 L 717.022,490.455 L 716.731,490.482 L 716.543,490.552 L 716.394,490.743 L 716.112,491.012 L 715.648,491.211 L 715.475,491.322 L 714.988,491.491 L 714.587,491.561 L 714.406,491.641 L 714.234,491.785 L 714.134,491.833 L 714.004,491.915 L 713.909,492.053 L 713.831,492.152 L 713.717,492.254 L 713.655,492.355 L 713.622,492.463 L 713.601,492.558 L 713.607,492.679 L 713.625,492.753 L 713.634,492.84 L 713.623,492.923 L 713.565,493.04 L 713.414,493.022 L 713.349,492.981 L 713.246,492.929 L 713.162,492.918 L 713.057,492.881 L 712.891,492.853 L 712.782,492.835 L 712.675,492.806 L 712.543,492.813 L 712.47,492.808 L 712.405,492.798 L 712.374,492.624 L 712.32,491.785 L 711.829,484.203 L 711.307,478.985 L 710.833,474.084 L 710.431,470.058 L 709.376,459.565 L 707.622,456.151 L 708.33,448.777 L 708.352,448.59 L 708.697,447.681 L 708.73,447.509 L 708.777,447.419 L 708.801,447.366 L 708.818,447.305 L 708.849,447.25 L 708.897,447.194 L 708.865,447.12 L 708.898,447.033 L 708.879,446.97 L 708.9,446.889 L 708.955,446.836 L 708.963,446.771 L 708.872,446.616 L 708.805,446.514 L 708.74,446.465 L 708.691,446.396 L 708.659,446.156 L 708.653,445.898 L 708.652,445.715 L 708.689,445.571 L 708.742,445.44 L 708.781,445.327 L 708.819,445.246 L 708.86,445.158 L 708.903,445.081 L 708.962,444.987 L 709.019,444.874 L 711.124,435.635 L 712.533,429.631 L 713.705,425.47 L 715.916,425.419 L 723.451,427.224 M 736.219,490.23 L 736.33,490.388 L 736.425,490.42 L 736.881,490.354 L 736.96,490.305 L 736.928,490.148 L 736.872,490.118 L 736.652,490.097 L 736.446,490.019 L 736.392,490.058 L 736.345,490.127 L 736.219,490.23"/><path id="path16087" d="M 728.72,475.821 L 728.617,475.821 L 728.554,475.804 L 728.349,475.624 L 728.159,475.539 L 728.127,475.469 L 728.135,475.407 L 728.213,475.302 L 728.37,475.183 L 728.448,474.97 L 728.518,474.924 L 728.605,474.915 L 728.677,475.152 L 728.748,475.246 L 728.882,475.314 L 728.922,475.424 L 728.924,475.638 L 728.861,475.733 L 728.72,475.821"/><path id="path16089" d="M 729.275,478.115 L 729.196,478.102 L 728.879,477.652 L 728.791,477.466 L 728.79,477.199 L 728.852,477.055 L 728.974,476.384 L 729.045,476.354 L 729.226,476.352 L 729.329,476.43 L 729.37,476.642 L 729.433,476.746 L 729.599,476.847 L 729.75,477.106 L 729.768,477.499 L 729.674,477.713 L 729.353,478.085 L 729.275,478.115"/><path id="path16093" d="M 714.521,478.608 L 714.41,478.556 L 714.259,478.272 L 714.29,478.168 L 714.7,478.16 L 715.095,478.489 L 715.159,478.63 L 715.167,478.732 L 715.097,478.781 L 714.521,478.608"/><path id="path16095" d="M 729.567,479.847 L 729.472,479.785 L 729.226,479.32 L 729.075,479.132 L 728.783,478.976 L 728.696,478.876 L 728.695,478.694 L 728.781,478.613 L 728.978,478.521 L 729.087,478.409 L 729.174,478.41 L 729.214,478.471 L 729.254,478.699 L 729.397,478.862 L 729.452,478.991 L 729.533,479.376 L 729.597,479.564 L 729.567,479.847"/><path id="path16097" d="M 715.65,479.28 L 716.279,479.113 L 716.405,479.025 L 716.561,478.803 L 716.656,478.804 L 716.766,478.881 L 716.759,478.999 L 716.618,479.165 L 716.351,479.349 L 715.966,479.454 L 715.723,479.619 L 715.621,479.659 L 715.47,479.542 L 715.478,479.43 L 715.525,479.361 L 715.65,479.28"/><path id="path16099" d="M 716.519,479.782 L 716.605,479.692 L 716.62,479.487 L 716.698,479.401 L 716.769,479.377 L 716.934,479.416 L 717.013,479.479 L 717.038,479.627 L 717.125,479.842 L 717.315,479.932 L 717.307,480.035 L 717.261,480.083 L 717.151,480.139 L 716.655,480.134 L 716.584,480.127 L 716.457,479.954 L 716.464,479.842 L 716.519,479.782"/><path id="path16101" d="M 716.735,480.458 L 716.821,480.399 L 717.231,480.384 L 717.395,480.209 L 717.521,480.215 L 717.608,480.256 L 717.656,480.326 L 717.657,480.592 L 717.618,480.727 L 717.501,480.91 L 717.407,480.956 L 717.304,480.965 L 717.257,480.824 L 717.161,480.7 L 717.027,480.701 L 716.941,480.777 L 716.768,480.804 L 716.705,480.787 L 716.602,480.71 L 716.602,480.614 L 716.735,480.458"/><path id="path16103" d="M 728.813,481.82 L 728.704,482.049 L 728.689,482.174 L 728.721,482.244 L 728.722,482.474 L 728.597,482.71 L 728.441,482.876 L 728.285,483.249 L 728.183,483.351 L 728.026,483.375 L 727.916,483.344 L 727.844,483.157 L 727.843,482.958 L 728.109,482.557 L 728.241,482.28 L 728.411,481.71 L 728.424,481.105 L 728.4,481.019 L 728.43,480.758 L 728.469,480.704 L 728.532,480.717 L 728.572,480.766 L 728.675,480.94 L 728.912,481.038 L 728.913,481.308 L 728.882,481.386 L 728.749,481.514 L 728.797,481.718 L 728.813,481.82"/><path id="path16105" d="M 717.916,481.977 L 717.931,481.766 L 717.954,481.678 L 718.143,481.679 L 718.451,481.794 L 718.522,481.873 L 718.617,482.093 L 718.689,482.188 L 718.815,482.224 L 719.021,482.476 L 719.171,482.524 L 719.218,482.579 L 719.338,482.885 L 719.433,483.019 L 719.52,483.066 L 719.732,483.016 L 719.764,483.087 L 719.782,483.409 L 719.861,483.574 L 719.964,483.636 L 720.169,483.692 L 720.256,483.808 L 720.313,484.101 L 720.527,484.352 L 720.583,484.564 L 720.718,484.768 L 720.931,484.805 L 720.994,484.869 L 720.995,485.089 L 720.807,485.302 L 720.399,485.5 L 720.249,485.526 L 720.147,485.479 L 720.123,485.424 L 720.128,484.984 L 720.08,484.818 L 719.897,484.497 L 719.723,484.285 L 719.613,484.245 L 719.55,484.231 L 719.486,484.174 L 719.272,483.886 L 719.003,483.689 L 718.876,483.376 L 718.811,483.037 L 718.747,482.887 L 718.478,482.622 L 718.344,482.551 L 718.091,482.323 L 717.956,482.103 L 717.916,481.977"/><path id="path16107" d="M 730.479,482.528 L 730.533,482.458 L 730.65,482.25 L 730.769,482.244 L 730.832,482.415 L 730.702,483.009 L 730.775,483.462 L 730.996,483.676 L 730.99,483.943 L 730.865,484.226 L 730.748,484.363 L 730.661,484.402 L 730.559,484.377 L 730.519,484.301 L 730.479,484.079 L 730.391,483.923 L 730.186,483.765 L 730.138,483.695 L 730.082,483.42 L 730.034,483.295 L 729.741,483.027 L 729.693,482.911 L 729.692,482.666 L 729.754,482.453 L 729.776,482.241 L 729.997,482.216 L 730.321,482.443 L 730.479,482.528"/><path id="path16115" d="M 729.471,484.21 L 729.589,484.139 L 729.699,484.027 L 729.761,483.988 L 729.84,483.995 L 729.88,484.05 L 729.951,484.178 L 730.086,484.341 L 730.228,484.387 L 730.3,484.459 L 730.364,484.774 L 730.435,484.905 L 730.476,485.087 L 730.477,485.363 L 730.462,485.435 L 730.321,485.64 L 730.196,485.734 L 729.699,485.721 L 729.503,485.794 L 728.914,486.128 L 728.679,486.293 L 728.341,486.436 L 728.207,486.446 L 728.089,486.406 L 727.947,486.345 L 727.693,485.912 L 727.573,485.692 L 727.478,485.599 L 727.289,485.567 L 726.951,485.648 L 726.872,485.626 L 726.761,485.477 L 727.018,484.933 L 727.041,484.821 L 727.08,484.711 L 727.07,484.326 L 727.109,484.142 L 727.226,483.922 L 727.304,483.867 L 727.383,483.889 L 727.446,483.953 L 727.424,484.183 L 727.456,484.346 L 727.543,484.434 L 727.787,484.455 L 727.851,484.509 L 727.955,484.872 L 728.026,484.919 L 728.223,484.997 L 729.027,485.135 L 729.13,485.126 L 729.232,485.024 L 729.223,484.888 L 729.159,484.793 L 729.135,484.692 L 729.008,484.472 L 729.015,484.307 L 729.061,484.117 L 729.25,483.969 L 729.328,483.982 L 729.352,484.037 L 729.471,484.21"/><path id="path16117" d="M 722.672,484.947 L 722.689,485.182 L 722.665,485.285 L 723.124,485.675 L 723.495,485.888 L 723.63,486.005 L 723.638,486.129 L 723.552,486.162 L 723.465,486.09 L 723.236,485.982 L 722.769,485.583 L 722.422,485.429 L 722.099,485.327 L 721.917,485.242 L 721.917,485.146 L 722.01,485.028 L 722.183,484.909 L 722.348,484.845 L 722.553,484.876 L 722.672,484.947"/><path id="path16127" d="M 726.891,486.224 L 726.765,486.153 L 726.709,486.058 L 726.716,485.971 L 726.818,485.9 L 727.165,485.893 L 727.307,485.945 L 727.465,486.101 L 727.521,486.227 L 727.499,486.504 L 727.405,486.538 L 727.294,486.488 L 727.065,486.293 L 726.891,486.224"/><path id="path16133" d="M 721.499,486.606 L 721.688,486.567 L 721.845,486.572 L 721.925,486.675 L 721.957,486.841 L 722.036,486.885 L 722.422,486.884 L 722.548,486.939 L 722.556,487.019 L 722.431,487.128 L 722.211,487.215 L 721.967,487.25 L 721.724,487.462 L 721.637,487.502 L 721.519,487.48 L 721.556,487.07 L 721.171,487.112 L 721.084,487.081 L 721.225,486.875 L 721.35,486.781 L 721.499,486.606"/><path id="path16135" d="M 727.841,487.275 L 728.304,486.902 L 728.446,486.901 L 728.557,486.988 L 728.636,487.159 L 728.654,487.553 L 728.607,487.656 L 728.466,487.704 L 728.285,487.846 L 728.112,487.857 L 727.986,487.817 L 727.827,487.636 L 727.772,487.535 L 727.763,487.368 L 727.841,487.275"/><path id="path16145" d="M 736.219,490.23 L 736.345,490.127 L 736.392,490.058 L 736.446,490.019 L 736.652,490.097 L 736.872,490.118 L 736.928,490.148 L 736.96,490.305 L 736.881,490.354 L 736.425,490.42 L 736.33,490.388 L 736.219,490.23"/><path id="path16149" d="M 734.913,498.865 L 734.843,498.846 L 734.809,498.777 L 734.763,498.716 L 734.758,498.642 L 734.75,498.564 L 734.791,498.519 L 734.85,498.481 L 734.925,498.537 L 734.966,498.637 L 734.994,498.744 L 734.946,498.813 L 734.913,498.865"/></g></svg>