<svg xmlns="http://www.w3.org/2000/svg" role="img" viewBox="1316.46 498.96 63.90 62.15"><title>Westwood</title><g id="g14955" fill="#fefee9" fill-opacity="1" fill-rule="evenodd" stroke="#000" stroke-linecap="square" stroke-linejoin="bevel" stroke-opacity="1" stroke-width=".098" transform="translate(-216.714 -21.7) scale(2.264)"><path id="path15613" fill-rule="evenodd" d="M 682.83,230.586 L 686.59,233.712 L 689.306,236.003 L 689.495,236.193 L 694.533,241.065 L 699.481,242.839 L 704.815,247.743 L 704.698,247.829 L 704.626,247.892 L 704.522,248.015 L 704.438,248.137 L 704.379,248.242 L 704.32,248.348 L 704.279,248.449 L 704.258,248.51 L 704.233,248.567 L 704.221,248.624 L 704.225,248.683 L 704.279,248.781 L 704.356,248.83 L 704.464,248.835 L 704.521,248.806 L 704.591,248.768 L 704.644,248.738 L 704.701,248.699 L 704.792,248.671 L 704.857,248.708 L 704.857,248.787 L 704.846,248.863 L 704.803,248.958 L 704.766,249.019 L 704.742,249.117 L 704.741,249.2 L 704.755,249.275 L 704.759,249.375 L 704.716,249.462 L 704.659,249.525 L 704.496,249.701 L 704.436,249.799 L 704.338,249.928 L 704.216,250.078 L 704.077,250.204 L 703.954,250.325 L 703.881,250.392 L 703.826,250.463 L 703.769,250.516 L 703.721,250.652 L 703.713,250.749 L 703.676,250.853 L 703.655,250.93 L 703.623,250.995 L 703.58,251.043 L 703.527,251.084 L 703.465,251.137 L 703.406,251.197 L 703.359,251.246 L 703.286,251.335 L 703.251,251.402 L 703.226,251.473 L 703.202,251.556 L 703.148,251.615 L 703.067,251.653 L 702.978,251.649 L 702.91,251.647 L 702.819,251.662 L 702.776,251.705 L 702.708,251.812 L 702.663,251.865 L 702.598,251.924 L 702.526,251.977 L 700.657,250.539 L 700.501,250.386 L 700.359,250.2 L 696.436,246.694 L 694.777,246.495 L 693.613,246.222 L 693.558,246.313 L 691.947,246.226 L 691.379,246.443 L 691.286,246.442 L 688.228,247.929 L 681.224,256.854 L 681.147,256.839 L 681.067,256.794 L 680.994,256.773 L 680.919,256.752 L 680.852,256.689 L 680.789,256.621 L 680.719,256.55 L 680.65,256.464 L 680.605,256.358 L 680.551,256.221 L 680.515,256.125 L 680.517,256.054 L 680.545,255.973 L 680.627,255.863 L 680.664,255.759 L 680.673,255.658 L 680.661,255.515 L 680.637,255.425 L 680.588,255.346 L 680.528,255.284 L 680.475,255.235 L 680.392,255.198 L 680.339,255.149 L 680.293,255.083 L 680.254,254.91 L 680.279,254.752 L 680.321,254.626 L 680.307,254.443 L 680.331,254.176 L 680.333,253.991 L 680.338,253.839 L 680.359,253.701 L 680.322,253.607 L 680.288,253.489 L 680.211,253.333 L 680.127,253.126 L 680.09,253.018 L 680.002,252.813 L 679.955,252.666 L 679.898,252.49 L 679.864,252.363 L 679.82,252.256 L 679.755,252.126 L 679.618,251.956 L 679.416,251.75 L 679.273,251.623 L 679.142,251.484 L 679.031,251.389 L 678.927,251.263 L 678.898,251.198 L 678.785,251.091 L 678.677,251.005 L 678.589,250.906 L 678.437,250.798 L 678.273,250.664 L 678.222,250.618 L 678.165,250.551 L 677.805,250.036 L 678.305,248.394 L 682.07,233.733 L 682.66,231.389 L 682.658,230.863 L 682.689,230.801 L 682.746,230.717 L 682.83,230.586"/></g></svg>