<svg xmlns="http://www.w3.org/2000/svg" role="img" viewBox="1633.96 1118.46 65.95 93.08"><title>West Tisbury</title><g id="g14955" fill="#fefee9" fill-opacity="1" fill-rule="evenodd" stroke="#000" stroke-linecap="square" stroke-linejoin="bevel" stroke-opacity="1" stroke-width=".098" transform="translate(-216.714 -21.7) scale(2.264)"><path id="path16157" d="M 827.775,511.195 L 828.113,511.073 L 828.566,510.778 L 828.637,510.708 L 828.892,510.278 L 829.056,510.057 L 829.156,509.827 L 829.215,509.441 L 829.292,509.284 L 829.401,509.15 L 829.654,508.461 L 829.988,507.908 L 830.049,507.727 L 830.109,507.387 L 830.239,507.023 L 830.29,506.628 L 830.512,505.912 L 830.652,505.737 L 830.84,505.608 L 831.019,505.425 L 831.268,505.108 L 831.377,505.037 L 831.681,504.687 L 831.83,504.574 L 831.979,504.533 L 832.271,504.561 L 832.554,504.538 L 832.715,504.472 L 843.467,520.575 L 845.04,530.476 L 845.255,533.818 L 845.782,542.754 L 845.775,542.754 L 845.646,542.779 L 845.291,542.804 L 844.872,542.855 L 844.485,542.93 L 844.098,542.98 L 843.611,543.084 L 843.22,543.159 L 842.865,543.206 L 842.575,543.231 L 842.314,543.256 L 842.056,543.281 L 841.636,543.306 L 841.378,543.306 L 841.12,543.331 L 840.798,543.382 L 840.619,543.406 L 840.361,543.406 L 840.035,543.432 L 839.777,543.457 L 839.519,543.507 L 839.024,543.557 L 838.401,543.607 L 838.075,543.607 L 837.785,543.632 L 837.656,543.658 L 837.43,543.708 L 837.14,543.708 L 836.846,543.733 L 836.484,543.758 L 836.151,543.758 L 835.796,543.808 L 835.47,543.833 L 834.918,543.883 L 834.44,543.897 L 834.436,543.771 L 834.395,543.478 L 834.334,543.14 L 834.284,542.899 L 834.234,542.714 L 834.186,542.577 L 834.141,542.465 L 834.101,542.354 L 833.972,542.101 L 833.923,542.009 L 833.845,541.872 L 833.785,541.771 L 833.715,541.653 L 833.573,541.486 L 833.469,541.351 L 833.38,541.26 L 833.304,541.178 L 833.206,541.069 L 833.095,540.987 L 832.994,540.9 L 832.863,540.799 L 832.712,540.692 L 832.589,540.603 L 832.428,540.477 L 832.301,540.362 L 832.142,540.213 L 832.019,540.071 L 831.893,539.92 L 831.809,539.803 L 831.715,539.645 L 831.634,539.49 L 831.558,539.316 L 831.493,539.165 L 831.443,538.949 L 831.406,538.835 L 831.372,538.777 L 831.321,538.726 L 831.236,538.686 L 831.129,538.653 L 831.01,538.592 L 830.895,538.505 L 830.806,538.423 L 830.71,538.29 L 830.625,538.13 L 830.576,537.988 L 830.527,537.822 L 830.48,537.659 L 830.45,537.466 L 830.407,537.256 L 830.366,537.085 L 830.316,536.917 L 830.228,536.778 L 830.188,536.717 L 830.161,536.627 L 830.052,536.172 L 829.931,535.441 L 829.922,535.289 L 829.9,535.101 L 829.862,534.891 L 829.827,534.788 L 829.782,534.614 L 829.728,534.53 L 829.654,534.501 L 829.593,534.486 L 829.426,534.468 L 829.323,534.464 L 829.207,534.467 L 829.097,534.45 L 828.7,534.321 L 828.558,534.287 L 828.492,534.235 L 828.448,534.165 L 828.39,534.049 L 828.376,533.989 L 828.222,533.864 L 828.111,533.766 L 828.054,533.693 L 828.03,533.617 L 827.995,533.554 L 827.941,533.463 L 827.843,533.383 L 827.728,533.306 L 827.612,533.25 L 827.584,533.187 L 827.513,533.132 L 827.415,533.228 L 827.337,533.298 L 827.25,533.374 L 827.166,533.446 L 827.101,533.511 L 827.046,533.57 L 826.993,533.649 L 826.913,533.763 L 826.754,534.006 L 826.112,534.874 L 825.707,535.1 L 825.05,534.023 L 824.307,532.83 L 822.259,528.49 L 820.007,525.098 L 819.492,524.235 L 818.314,522.363 L 818.437,521.882 L 818.467,520.892 L 818.418,520.751 L 818.431,520.465 L 818.499,520.197 L 818.715,519.7 L 818.769,519.541 L 818.955,519.256 L 819.056,519.154 L 819.44,518.954 L 819.542,518.842 L 819.696,518.534 L 819.849,518.021 L 819.892,517.632 L 820.014,517.216 L 820.286,516.833 L 820.347,516.599 L 820.509,516.281 L 820.867,515.78 L 821.004,515.348 L 821.07,514.85 L 821.035,514.488 L 821.031,514.07 L 821.117,513.928 L 821.642,513.655 L 821.961,513.314 L 822.056,513.33 L 822.127,513.384 L 822.175,513.469 L 822.239,513.523 L 822.326,513.564 L 822.475,513.553 L 822.756,513.331 L 822.953,513.258 L 823.124,513.066 L 823.297,513.002 L 823.784,512.889 L 824.144,512.686 L 824.376,512.23 L 824.66,511.502 L 824.791,511.232 L 824.917,511.154 L 825.136,511.079 L 825.389,511.109 L 825.555,511.169 L 825.903,511.385 L 826.077,511.433 L 826.337,511.454 L 826.566,511.546 L 826.81,511.505 L 826.975,511.447 L 827.194,511.305 L 827.665,511.198 L 827.775,511.195 M 828.32,511.365 L 828.368,511.426 L 828.276,511.679 L 828.135,511.808 L 828.128,511.901 L 828.226,512.193 L 828.235,512.332 L 828.204,512.42 L 828.206,512.618 L 828.382,512.852 L 828.39,512.913 L 828.454,512.986 L 828.542,513.157 L 828.669,513.281 L 829.002,513.485 L 829.096,513.491 L 829.268,513.362 L 829.267,513.276 L 829.172,513.12 L 829.241,513.016 L 829.193,512.868 L 828.932,512.823 L 828.869,512.754 L 828.867,512.611 L 829.03,512.38 L 829.069,512.23 L 829.036,512.088 L 829.023,511.593 L 828.934,511.304 L 828.862,511.194 L 828.719,511.133 L 828.351,511.302 L 828.32,511.365"/><path id="path16169" d="M 828.32,511.365 L 828.351,511.302 L 828.719,511.133 L 828.862,511.194 L 828.934,511.304 L 829.023,511.593 L 829.036,512.088 L 829.069,512.23 L 829.03,512.38 L 828.867,512.611 L 828.869,512.754 L 828.932,512.823 L 829.193,512.868 L 829.241,513.016 L 829.172,513.12 L 829.267,513.276 L 829.268,513.362 L 829.096,513.491 L 829.002,513.485 L 828.669,513.281 L 828.542,513.157 L 828.454,512.986 L 828.39,512.913 L 828.382,512.852 L 828.206,512.618 L 828.204,512.42 L 828.235,512.332 L 828.226,512.193 L 828.128,511.901 L 828.135,511.808 L 828.276,511.679 L 828.368,511.426 L 828.32,511.365"/></g></svg>