<svg xmlns="http://www.w3.org/2000/svg" role="img" viewBox="1267.12 387.49 49.39 71.89"><title>Weston</title><g id="g14955" fill="#fefee9" fill-opacity="1" fill-rule="evenodd" stroke="#000" stroke-linecap="square" stroke-linejoin="bevel" stroke-opacity="1" stroke-width=".098" transform="translate(-216.714 -21.7) scale(2.264)"><path id="path15437" fill-rule="evenodd" d="M 669.588,182.274 L 670.411,182.616 L 671.31,184.603 L 673.438,185.566 L 671.251,190.742 L 671.206,190.806 L 671.361,190.889 L 671.438,190.918 L 671.503,190.917 L 671.605,190.971 L 671.687,191.031 L 671.789,191.095 L 671.869,191.141 L 671.918,191.176 L 671.955,191.256 L 671.972,191.315 L 672.057,191.395 L 672.131,191.441 L 672.186,191.523 L 672.171,191.627 L 672.206,191.698 L 672.269,191.774 L 672.319,191.828 L 672.332,191.893 L 672.325,191.966 L 672.366,192.019 L 672.42,192.067 L 672.451,192.12 L 672.458,192.213 L 672.531,192.338 L 672.665,192.553 L 672.73,192.691 L 672.783,192.872 L 672.816,192.964 L 672.823,193.027 L 672.81,193.108 L 672.777,193.155 L 672.766,193.236 L 672.799,193.356 L 672.81,193.432 L 672.807,193.497 L 672.739,193.559 L 672.683,193.532 L 672.634,193.499 L 672.574,193.474 L 672.496,193.483 L 672.379,193.489 L 672.313,193.491 L 672.191,193.52 L 672.128,193.555 L 672.074,193.603 L 672.025,193.662 L 671.975,193.757 L 671.937,193.848 L 671.912,193.923 L 671.888,194 L 671.901,194.12 L 671.975,194.21 L 672.211,194.415 L 672.585,194.72 L 672.739,194.801 L 672.929,194.893 L 672.997,194.959 L 673.025,195.01 L 673.074,195.141 L 673.098,195.235 L 673.105,195.32 L 673.106,195.404 L 673.111,195.504 L 673.124,195.626 L 673.168,195.799 L 673.217,195.942 L 673.281,196.097 L 673.315,196.171 L 673.384,196.28 L 673.595,196.532 L 673.769,196.805 L 673.895,196.939 L 674.191,197.418 L 674.259,197.535 L 674.318,197.617 L 674.375,197.685 L 674.431,197.732 L 674.554,197.83 L 674.653,197.89 L 674.738,197.936 L 674.815,197.955 L 674.882,197.964 L 674.967,198.012 L 675.051,198.06 L 675.155,198.089 L 675.271,198.085 L 675.373,198.076 L 675.387,198.143 L 675.408,198.233 L 675.442,198.331 L 675.485,198.397 L 675.525,198.462 L 675.567,198.516 L 675.608,198.561 L 675.654,198.619 L 675.693,198.692 L 675.719,198.778 L 675.748,198.907 L 675.787,199.167 L 675.82,199.349 L 675.828,199.503 L 675.823,199.587 L 675.765,199.671 L 675.696,199.733 L 675.612,199.779 L 675.556,199.813 L 675.481,199.865 L 675.425,199.927 L 675.394,199.99 L 675.377,200.055 L 675.364,200.122 L 675.363,200.191 L 675.379,200.26 L 675.432,200.365 L 675.516,200.467 L 675.536,200.533 L 675.541,200.598 L 675.522,200.707 L 675.498,200.825 L 675.43,200.934 L 675.322,201.106 L 675.198,201.313 L 675.061,201.564 L 675.028,201.62 L 675.037,201.679 L 675.039,201.805 L 675.017,201.964 L 674.996,202.061 L 674.979,202.157 L 674.994,202.228 L 675.023,202.304 L 675.061,202.367 L 675.156,202.429 L 675.217,202.454 L 675.335,202.478 L 675.41,202.487 L 675.483,202.484 L 675.575,202.467 L 675.662,202.446 L 675.734,202.426 L 675.803,202.405 L 675.862,202.396 L 675.945,202.407 L 676.05,202.447 L 676.131,202.507 L 676.218,202.548 L 676.309,202.605 L 676.397,202.679 L 676.462,202.732 L 676.522,202.788 L 676.564,202.833 L 676.596,202.893 L 676.603,202.978 L 676.586,203.063 L 676.546,203.154 L 676.463,203.286 L 676.387,203.407 L 676.313,203.483 L 676.04,203.734 L 675.82,203.936 L 675.755,204.049 L 675.743,204.106 L 675.729,204.181 L 675.718,204.262 L 675.684,204.388 L 675.633,204.471 L 675.563,204.543 L 675.477,204.587 L 675.424,204.614 L 675.348,204.642 L 675.289,204.661 L 675.185,204.674 L 675.086,204.671 L 674.921,204.632 L 674.782,204.588 L 674.674,204.572 L 674.575,204.573 L 674.491,204.59 L 674.409,204.626 L 674.37,204.68 L 674.31,204.789 L 674.284,204.895 L 674.254,205.088 L 674.238,205.183 L 674.224,205.38 L 674.204,205.506 L 674.178,205.627 L 674.139,205.704 L 674.075,205.766 L 674.024,205.805 L 673.94,205.854 L 673.727,205.949 L 673.643,205.997 L 673.582,206.053 L 673.5,206.085 L 673.399,206.059 L 673.324,206.029 L 673.241,205.982 L 673.193,205.94 L 673.144,205.905 L 673.084,205.884 L 672.982,205.875 L 672.902,205.928 L 672.861,206.024 L 672.852,206.086 L 672.875,206.148 L 672.936,206.204 L 672.982,206.271 L 672.991,206.342 L 672.982,206.411 L 672.936,206.51 L 672.903,206.563 L 672.868,206.628 L 672.859,206.697 L 672.866,206.758 L 672.882,206.815 L 672.945,206.909 L 658.311,211.878 L 658.296,209.331 L 657.965,205.71 L 656.607,190.762 L 656.085,184.279 L 656.408,183.531 L 659.728,184.71 L 660.149,184.666 L 660.483,184.763 L 660.7,184.898 L 660.778,184.88 L 661.497,184.532 L 661.339,184.433 L 661.77,183.468 L 662.097,183.628 L 662.67,182.311 L 666.904,181.426 L 669.491,182.525 L 669.588,182.274"/></g></svg>