<svg xmlns="http://www.w3.org/2000/svg" role="img" viewBox="894.75 209.50 86.64 117.26"><title>Westminster</title><g id="g14955" fill="#fefee9" fill-opacity="1" fill-rule="evenodd" stroke="#000" stroke-linecap="square" stroke-linejoin="bevel" stroke-opacity="1" stroke-width=".098" transform="translate(-216.714 -21.7) scale(2.264)"><path id="path15185" fill-rule="evenodd" d="M 523.025,103.188 L 522.962,104.563 L 521.957,127.77 L 522.071,127.704 L 522.14,127.659 L 522.209,127.617 L 522.278,127.59 L 522.345,127.562 L 522.41,127.543 L 522.506,127.525 L 522.571,127.511 L 522.675,127.504 L 522.803,127.519 L 522.927,127.555 L 523.069,127.576 L 523.275,127.626 L 523.372,127.626 L 523.466,127.63 L 523.578,127.616 L 523.676,127.594 L 523.791,127.567 L 523.666,129.736 L 521.903,129.572 L 521.776,132.252 L 528.191,132.586 L 527.066,142.584 L 526.341,142.655 L 525.927,142.563 L 525.829,142.569 L 525.715,142.559 L 525.249,141.453 L 523.314,141.045 L 522.236,141.975 L 521.347,141.799 L 518.822,144.252 L 515.347,147.595 L 509.812,152.94 L 507.23,150.522 L 504.035,147.531 L 491.995,136.415 L 493.111,135.134 L 493.884,135.04 L 497.236,131.549 L 496.086,130.492 L 499.188,126.752 L 506.491,114.706 L 505.358,112.455 L 509.231,110.425 L 509.204,110.567 L 509.589,110.42 L 509.773,110.819 L 513.679,109.14 L 513.513,108.759 L 514.311,108.408 L 514.498,108.854 L 516.808,107.891 L 516.662,107.533 L 517.444,107.198 L 517.084,106.308 L 518.987,105.311 L 520.476,104.554 L 523.025,103.188"/></g></svg>