<svg xmlns="http://www.w3.org/2000/svg" role="img" viewBox="1472.49 487.37 42.39 110.89"><title>Weymouth</title><g id="g14955" fill="#fefee9" fill-opacity="1" fill-rule="evenodd" stroke="#000" stroke-linecap="square" stroke-linejoin="bevel" stroke-opacity="1" stroke-width=".098" transform="translate(-216.714 -21.7) scale(2.264)"><path id="path15583" d="M 761.71,227.386 L 761.323,227.351 L 761.086,227.224 L 760.96,227.123 L 760.936,227.052 L 760.926,226.848 L 761.121,226.609 L 761.295,226.539 L 761.79,226.41 L 762.08,226.295 L 762.669,225.962 L 762.841,225.882 L 762.952,225.888 L 763.213,226.157 L 763.325,226.398 L 763.233,226.817 L 763.163,226.872 L 763.013,226.842 L 762.848,226.85 L 762.644,227.011 L 762.314,227.129 L 762.213,227.297 L 762.135,227.352 L 761.71,227.386"/><path id="path15599" d="M 751.685,234.87 L 751.783,235 L 751.792,235.105 L 751.692,235.483 L 751.741,235.788 L 751.844,235.835 L 751.993,235.834 L 752.528,235.672 L 752.794,235.537 L 752.841,235.468 L 752.872,235.308 L 752.87,235.048 L 752.783,234.933 L 752.609,234.916 L 752.506,234.814 L 752.529,234.729 L 752.85,234.357 L 752.92,234.315 L 753.456,234.296 L 753.849,234.232 L 754.217,234.007 L 754.5,233.927 L 754.689,233.816 L 754.876,233.587 L 755.119,233.465 L 755.6,233.479 L 755.812,233.387 L 755.89,233.332 L 756.109,233.053 L 756.312,232.839 L 756.587,232.729 L 757.475,232.501 L 757.75,232.35 L 757.891,232.2 L 758.117,231.821 L 758.105,231.285 L 758.064,231.017 L 758.182,230.97 L 759.024,230.964 L 759.26,230.907 L 760.472,230.853 L 760.685,230.896 L 760.89,230.887 L 761.055,230.792 L 761.204,230.76 L 761.298,230.657 L 761.305,230.515 L 761.036,230.408 L 760.46,230.189 L 760.459,230.071 L 760.514,229.986 L 760.726,229.874 L 761.252,229.744 L 761.37,229.647 L 761.503,229.436 L 761.51,229.293 L 761.446,229.174 L 761.16,228.885 L 761.16,228.807 L 761.215,228.784 L 761.372,228.791 L 761.483,228.838 L 761.737,229.119 L 761.785,229.182 L 761.793,229.362 L 761.755,229.503 L 761.741,229.739 L 761.782,230.017 L 761.895,230.432 L 762.284,230.846 L 762.371,231.045 L 762.373,231.311 L 762.138,231.439 L 762.083,231.549 L 762.045,231.73 L 761.07,231.933 L 760.927,231.667 L 760.824,231.559 L 760.745,231.518 L 760.603,231.512 L 760.493,231.575 L 760.147,231.585 L 759.777,231.707 L 759.431,231.78 L 759.109,231.938 L 759.055,232.002 L 759.032,232.207 L 758.899,232.264 L 758.506,232.291 L 758.412,232.455 L 758.413,232.526 L 758.516,232.675 L 758.501,232.787 L 758.296,232.818 L 758.147,232.915 L 758.165,233.175 L 758.118,233.261 L 758.111,233.372 L 758.057,233.58 L 758.058,233.714 L 758.201,233.846 L 758.422,233.963 L 758.501,234.051 L 758.502,234.113 L 758.313,234.178 L 758.062,234.219 L 758.007,234.252 L 757.944,234.337 L 757.961,234.479 L 758.087,234.5 L 758.276,234.461 L 758.519,234.333 L 758.668,234.301 L 759.141,234.258 L 759.148,234.187 L 759.265,234.084 L 759.299,234.353 L 759.434,234.492 L 759.434,234.603 L 759.325,234.731 L 759.272,235.036 L 759.265,235.201 L 759.337,235.391 L 759.576,235.769 L 759.917,236.19 L 759.926,236.323 L 759.772,236.799 L 759.773,236.947 L 759.828,237.017 L 760.017,237.039 L 760.129,237.219 L 760.099,237.481 L 760.171,237.708 L 760.385,237.928 L 760.41,238.101 L 760.45,238.202 L 760.68,238.381 L 760.886,238.506 L 760.957,238.584 L 760.957,238.68 L 760.84,238.712 L 760.445,238.606 L 760.414,238.659 L 760.423,238.833 L 760.653,239.108 L 760.632,239.555 L 760.586,239.634 L 760.587,239.839 L 760.611,239.903 L 760.715,240.154 L 760.701,240.421 L 760.867,240.491 L 760.915,240.555 L 761.119,240.552 L 761.325,240.629 L 761.553,240.666 L 761.577,240.752 L 761.484,240.904 L 761.376,241.18 L 761.385,241.471 L 761.356,241.795 L 761.594,242.045 L 761.965,242.192 L 762.052,242.27 L 762.204,242.576 L 762.205,242.734 L 762.012,243.286 L 761.933,243.366 L 761.761,243.424 L 761.603,243.369 L 761.564,243.417 L 761.604,243.518 L 761.911,243.515 L 762.021,243.468 L 762.13,243.326 L 762.246,242.932 L 762.338,242.709 L 762.33,242.545 L 762.281,242.425 L 762.178,242.295 L 762.154,242.199 L 762.177,242.072 L 762.317,241.89 L 762.34,241.819 L 762.453,241.684 L 762.51,241.616 L 762.635,241.658 L 762.716,241.619 L 762.767,241.568 L 762.826,241.525 L 762.912,241.535 L 762.944,241.622 L 762.932,241.683 L 762.983,241.742 L 763.095,241.776 L 763.144,241.723 L 763.225,241.703 L 763.284,241.694 L 763.335,241.664 L 763.41,241.661 L 763.469,241.676 L 763.546,241.665 L 763.671,241.718 L 763.762,241.785 L 763.877,241.866 L 761.489,265.2 L 757.434,267.383 L 747.101,272.903 L 748.275,261.602 L 750.124,243.833 L 750.302,243.66 L 750.389,243.552 L 750.354,243.471 L 750.303,243.367 L 750.281,243.272 L 750.293,243.154 L 750.301,243.044 L 750.316,242.886 L 750.443,242.765 L 750.496,242.714 L 750.556,242.664 L 750.59,242.565 L 750.669,242.504 L 750.743,242.457 L 750.824,242.424 L 750.97,242.425 L 751.052,242.377 L 751.681,242.182 L 751.83,242.041 L 751.978,241.789 L 752.157,241.566 L 752.188,241.448 L 752.153,240.887 L 752.168,240.763 L 752.324,240.581 L 752.498,240.666 L 752.56,240.634 L 752.559,240.46 L 752.456,240.264 L 752.453,239.911 L 752.492,239.776 L 752.537,239.428 L 752.724,239.208 L 753.179,238.959 L 753.217,238.654 L 753.28,238.621 L 753.351,238.644 L 753.58,238.802 L 753.73,238.862 L 753.968,239.175 L 754.072,239.451 L 754.144,239.52 L 754.278,239.591 L 754.562,239.597 L 754.562,239.731 L 754.5,239.817 L 754.532,239.921 L 754.69,239.926 L 754.76,239.824 L 754.727,239.611 L 754.798,239.547 L 754.789,239.47 L 754.702,239.342 L 754.684,239.085 L 754.606,239.109 L 754.583,239.243 L 754.52,239.251 L 754.464,239.11 L 754.431,238.904 L 754.368,238.809 L 754.375,238.741 L 754.406,238.597 L 754.293,238.275 L 754.3,238.182 L 754.395,238.173 L 754.576,238.251 L 754.749,238.249 L 754.907,238.155 L 754.969,238.075 L 754.96,237.964 L 754.832,237.549 L 754.784,237.491 L 754.721,237.493 L 754.707,237.76 L 754.764,238.035 L 754.693,238.027 L 754.582,237.904 L 754.281,237.686 L 754.1,237.67 L 753.934,237.569 L 753.514,237.234 L 753.23,237.134 L 753.04,237.016 L 752.82,236.994 L 752.631,237.065 L 752.198,236.96 L 752.103,236.919 L 751.811,236.922 L 751.512,236.878 L 751.425,236.886 L 751.379,237.052 L 751.389,237.257 L 751.168,237.272 L 750.505,237.041 L 750.473,236.908 L 750.591,236.883 L 750.574,236.741 L 750.51,236.585 L 750.537,235.939 L 750.56,235.882 L 750.686,235.819 L 750.692,235.503 L 750.667,235.386 L 750.745,235.253 L 750.926,235.118 L 751.455,234.84 L 751.685,234.87"/><path id="path15637" d="M 751.455,234.84 L 751.553,234.789 L 751.624,234.79 L 751.685,234.87 L 751.455,234.84"/></g></svg>