<svg xmlns="http://www.w3.org/2000/svg" role="img" viewBox="601.32 554.20 63.73 80.73"><title>Wilbraham</title><g id="g14955" fill="#fefee9" fill-opacity="1" fill-rule="evenodd" stroke="#000" stroke-linecap="square" stroke-linejoin="bevel" stroke-opacity="1" stroke-width=".098" transform="translate(-216.714 -21.7) scale(2.264)"><path id="path15695" fill-rule="evenodd" d="M 384.987,255.136 L 386.463,266.3 L 386.472,266.368 L 387.745,275.703 L 388.748,283.253 L 379.762,284.48 L 378.796,287.501 L 365.477,289.328 L 365.185,287.648 L 363.578,275.426 L 362.072,264.681 L 363.513,265.636 L 363.637,265.678 L 363.736,265.739 L 363.838,265.71 L 363.911,265.696 L 364.004,265.661 L 364.087,265.618 L 364.166,265.588 L 364.235,265.565 L 364.39,265.518 L 364.461,265.53 L 364.579,265.552 L 364.719,265.57 L 364.831,265.601 L 364.967,265.637 L 365.091,265.683 L 365.197,265.714 L 365.443,265.803 L 365.84,265.949 L 365.907,265.954 L 365.974,265.952 L 366.043,265.956 L 366.167,265.958 L 366.281,265.964 L 366.393,265.972 L 366.521,265.97 L 366.783,265.959 L 366.905,265.959 L 367.017,265.944 L 367.114,265.932 L 367.208,265.912 L 367.313,265.877 L 367.376,265.856 L 367.446,265.816 L 367.525,265.779 L 367.618,265.73 L 367.74,265.66 L 367.85,265.605 L 367.97,265.558 L 368.077,265.512 L 368.205,265.473 L 368.341,265.43 L 368.567,265.348 L 368.689,265.307 L 368.768,265.283 L 368.85,265.266 L 368.929,265.25 L 369.071,265.229 L 369.161,265.219 L 369.339,265.2 L 369.449,265.198 L 369.697,265.185 L 369.817,265.177 L 369.874,265.189 L 369.937,265.193 L 370.033,265.211 L 370.159,265.262 L 370.238,265.311 L 370.308,265.355 L 370.423,265.433 L 370.509,265.508 L 370.719,265.664 L 370.802,265.729 L 370.875,265.771 L 370.967,265.798 L 371.073,265.804 L 371.193,265.816 L 371.309,265.813 L 371.376,265.809 L 371.445,265.797 L 371.557,265.785 L 371.798,265.752 L 371.896,265.735 L 371.983,265.717 L 372.038,265.692 L 372.113,265.666 L 372.168,265.629 L 372.339,265.547 L 372.388,265.515 L 372.44,265.478 L 372.495,265.435 L 372.57,265.374 L 372.68,265.287 L 372.79,265.203 L 372.857,265.148 L 372.911,265.125 L 372.974,265.081 L 373.086,265.038 L 373.196,264.999 L 373.297,264.956 L 373.588,264.901 L 373.958,264.835 L 374.242,264.774 L 374.389,264.761 L 374.493,264.763 L 374.562,264.771 L 374.649,264.783 L 374.71,264.806 L 374.783,264.828 L 374.867,264.846 L 374.948,264.874 L 375.506,265.132 L 375.601,265.156 L 375.689,265.176 L 375.8,265.162 L 375.87,265.133 L 375.951,265.092 L 376.038,265.033 L 376.128,264.982 L 376.203,264.929 L 376.292,264.854 L 376.365,264.817 L 376.432,264.795 L 376.528,264.774 L 376.635,264.754 L 376.723,264.739 L 377.198,264.726 L 377.479,264.702 L 377.607,264.677 L 377.973,264.583 L 378.219,264.54 L 378.361,264.544 L 378.436,264.542 L 378.513,264.544 L 378.579,264.572 L 378.638,264.592 L 378.717,264.629 L 378.79,264.689 L 378.868,264.773 L 378.906,264.822 L 378.947,264.913 L 378.966,264.968 L 379,265.065 L 379.041,265.157 L 379.068,265.236 L 379.09,265.295 L 379.178,265.35 L 379.231,265.378 L 379.306,265.408 L 379.381,265.449 L 379.465,265.502 L 379.552,265.549 L 379.625,265.593 L 379.707,265.64 L 379.811,265.707 L 380.112,265.906 L 380.173,265.94 L 380.236,265.962 L 380.303,265.985 L 380.409,266.015 L 380.533,266.007 L 380.59,265.994 L 380.685,265.974 L 380.748,265.956 L 380.84,265.929 L 380.897,265.907 L 380.962,265.882 L 381.041,265.855 L 381.112,265.819 L 381.228,265.751 L 381.284,265.694 L 381.337,265.607 L 381.329,265.483 L 381.355,265.397 L 381.357,265.328 L 381.345,265.214 L 381.338,265.044 L 381.316,264.966 L 381.308,264.891 L 381.291,264.757 L 381.074,263.72 L 381.041,263.548 L 381.014,263.428 L 381.004,263.324 L 381.016,263.236 L 381.036,263.163 L 381.062,263.082 L 381.099,262.99 L 381.113,262.927 L 381.111,262.848 L 381.121,262.756 L 381.123,262.691 L 381.131,262.63 L 381.08,262.449 L 380.942,261.915 L 380.783,261.472 L 380.711,261.287 L 380.695,261.222 L 380.687,261.098 L 380.713,261.018 L 380.749,260.927 L 380.804,260.847 L 380.841,260.801 L 380.873,260.75 L 380.893,260.689 L 380.916,260.63 L 380.942,260.532 L 380.95,260.473 L 380.948,260.404 L 380.944,260.329 L 380.947,260.253 L 380.951,260.19 L 380.941,260.109 L 380.957,260.03 L 380.947,259.946 L 380.959,259.881 L 380.969,259.79 L 380.983,259.698 L 381.034,259.533 L 381.137,259.155 L 381.161,259.072 L 381.173,259.007 L 381.175,258.942 L 381.185,258.864 L 381.152,258.789 L 381.109,258.73 L 381.04,258.677 L 380.951,258.635 L 380.827,258.552 L 380.751,258.497 L 380.696,258.416 L 380.668,258.338 L 380.671,258.235 L 380.677,258.172 L 380.706,258.111 L 380.752,258.029 L 380.813,257.986 L 380.854,257.927 L 380.927,257.883 L 380.976,257.852 L 381.029,257.817 L 381.116,257.754 L 381.183,257.691 L 381.3,257.571 L 381.437,257.477 L 381.51,257.432 L 381.579,257.404 L 381.644,257.383 L 381.731,257.361 L 381.833,257.338 L 381.948,257.283 L 382.107,257.21 L 382.42,257.028 L 382.789,256.792 L 382.881,256.721 L 382.988,256.651 L 383.041,256.596 L 383.106,256.541 L 383.167,256.478 L 383.268,256.403 L 383.36,256.35 L 383.443,256.283 L 383.504,256.24 L 383.579,256.199 L 383.697,256.16 L 383.772,256.117 L 383.861,256.079 L 383.945,256.052 L 384.02,256.02 L 384.091,255.991 L 384.18,255.954 L 384.29,255.911 L 384.345,255.877 L 384.412,255.834 L 384.495,255.765 L 384.582,255.675 L 384.72,255.514 L 384.806,255.394 L 384.987,255.136"/></g></svg>