<svg xmlns="http://www.w3.org/2000/svg" role="img" viewBox="1334.32 220.94 53.87 81.12"><title>Wilmington</title><g id="g14955" fill="#fefee9" fill-opacity="1" fill-rule="evenodd" stroke="#000" stroke-linecap="square" stroke-linejoin="bevel" stroke-opacity="1" stroke-width=".098" transform="translate(-216.714 -21.7) scale(2.264)"><path id="path15199" fill-rule="evenodd" d="M 699.407,113.898 L 699.661,112.603 L 699.72,112.496 L 700.474,111.386 L 700.782,110.573 L 700.993,108.737 L 701.534,108.049 L 702.06,107.955 L 703.544,108.676 L 704.062,109.764 L 704.195,110.267 L 704.926,111.823 L 705.426,112.105 L 706.932,113.521 L 708.187,118.974 L 706.644,129.227 L 706.728,129.666 L 708.068,136.676 L 707,137.317 L 698.211,142.309 L 689.273,132.367 L 689.249,132.308 L 689.174,132.212 L 689.074,132.106 L 688.969,132.004 L 688.894,131.942 L 688.821,131.9 L 688.759,131.895 L 688.686,131.893 L 688.59,131.897 L 688.487,131.913 L 688.385,131.919 L 688.281,131.906 L 688.173,131.867 L 688.088,131.824 L 688.007,131.818 L 687.927,131.781 L 687.738,131.642 L 687.389,131.33 L 687.853,131.288 L 688.04,129.998 L 687.834,129.541 L 687.645,129.435 L 688.27,128.939 L 685.96,126.708 L 685.814,126.547 L 685.903,126.527 L 685.981,126.538 L 686.044,126.489 L 686.034,126.403 L 686.016,126.338 L 686.063,126.298 L 686.124,126.32 L 686.179,126.367 L 686.238,126.386 L 686.309,126.343 L 686.342,126.29 L 686.285,126.254 L 686.251,126.199 L 686.31,126.162 L 686.385,126.175 L 686.444,126.177 L 686.517,126.133 L 686.544,126.067 L 686.546,125.956 L 686.508,125.868 L 686.482,125.809 L 686.523,125.732 L 686.594,125.696 L 686.606,125.602 L 686.629,125.547 L 686.713,125.491 L 686.766,125.428 L 686.699,125.385 L 686.75,125.34 L 686.811,125.328 L 686.858,125.282 L 686.864,125.184 L 686.808,125.092 L 686.741,124.998 L 686.712,124.945 L 686.767,124.925 L 686.81,124.87 L 686.774,124.775 L 686.739,124.718 L 686.685,124.628 L 686.681,124.553 L 686.718,124.372 L 686.699,124.136 L 686.697,123.992 L 686.675,123.878 L 686.645,123.77 L 686.631,123.641 L 686.653,123.528 L 686.67,123.446 L 686.695,123.385 L 686.762,123.302 L 686.893,123.242 L 687,123.203 L 687.082,123.149 L 687.16,123.049 L 687.235,122.934 L 687.278,122.858 L 687.311,122.767 L 687.295,122.68 L 687.348,122.643 L 687.419,122.674 L 687.503,122.611 L 687.533,122.512 L 687.658,122.47 L 692.4,125.458 L 696.793,115.897 L 699.407,113.898"/></g></svg>