<svg xmlns="http://www.w3.org/2000/svg" role="img" viewBox="1434.20 390.20 106.60 59.98"><title>Winthrop</title><g id="g14955" fill="#fefee9" fill-opacity="1" fill-rule="evenodd" stroke="#000" stroke-linecap="square" stroke-linejoin="bevel" stroke-opacity="1" stroke-width=".098" transform="translate(-216.714 -21.7) scale(2.264)"><path id="path15441" d="M 738.74,183.347 L 739.243,183.441 L 739.486,183.537 L 740.275,183.98 L 740.342,183.955 L 740.396,183.912 L 741.406,182.993 L 741.894,182.921 L 741.983,182.908 L 742.079,182.908 L 742.197,182.923 L 742.36,182.987 L 742.665,183.134 L 742.902,183.833 L 742.929,183.951 L 742.987,184.038 L 743.065,184.099 L 743.155,184.157 L 743.234,184.167 L 743.165,184.403 L 743.213,184.451 L 744.551,184.347 L 744.685,184.368 L 744.914,184.485 L 744.969,184.558 L 744.979,184.762 L 744.956,184.846 L 744.893,184.895 L 744.878,185.1 L 744.825,185.343 L 744.881,185.54 L 745.056,185.783 L 745.184,186.068 L 745.232,186.138 L 745.209,186.287 L 745.123,186.302 L 745.011,186.132 L 744.956,186.093 L 744.862,186.179 L 744.24,186.207 L 743.919,186.396 L 743.849,186.532 L 743.605,186.589 L 743.377,186.701 L 743.189,186.756 L 743.142,186.82 L 743.055,186.828 L 742.923,187.027 L 742.916,187.177 L 743.003,187.224 L 743.098,187.373 L 743.091,187.46 L 742.997,187.515 L 743.029,187.688 L 743.164,187.774 L 743.134,187.955 L 743.087,188.033 L 742.93,188.137 L 742.324,188.22 L 741.922,188.096 L 741.885,188.001 L 741.514,187.736 L 740.827,187.424 L 740.457,187.364 L 740.22,187.269 L 740.015,187.153 L 739.778,187.098 L 739.542,187.124 L 739.377,187.188 L 739.259,187.275 L 739.079,187.479 L 738.978,187.662 L 738.971,187.851 L 739.013,188.284 L 738.967,188.487 L 738.817,188.535 L 738.691,188.458 L 738.565,188.427 L 738.454,188.427 L 738.399,188.475 L 738.385,188.736 L 738.394,188.916 L 738.299,188.869 L 738.244,188.774 L 738.164,188.706 L 738.07,188.681 L 738.078,188.807 L 738.126,188.877 L 738.126,188.973 L 737.93,188.982 L 737.874,188.792 L 737.779,188.714 L 737.692,188.707 L 736.823,189.719 L 736.934,189.898 L 737.108,190.039 L 737.59,190.267 L 737.7,190.375 L 737.717,190.471 L 737.639,190.716 L 737.734,190.835 L 738.312,191.413 L 738.51,191.5 L 738.628,191.537 L 738.88,191.514 L 739.037,191.466 L 739.178,191.363 L 739.264,191.242 L 739.263,191.109 L 739.137,191.007 L 739.136,190.945 L 739.199,190.85 L 739.599,190.462 L 739.582,190.304 L 739.605,190.058 L 739.698,189.879 L 739.863,189.719 L 740.049,189.277 L 740.151,189.159 L 740.269,189.096 L 740.45,189.032 L 740.678,189.007 L 740.891,189.075 L 741.088,189.234 L 741.932,189.463 L 740.244,190.121 L 740.145,190.45 L 739.184,193.919 L 741.403,194.029 L 741.366,194.256 L 741.359,194.359 L 741.454,194.499 L 741.691,194.678 L 741.968,194.967 L 742.055,195.052 L 742.204,195.145 L 742.285,195.375 L 742.364,195.42 L 742.482,195.435 L 742.899,195.308 L 743.41,195.218 L 743.48,195.098 L 743.882,195.136 L 744.676,194.973 L 744.81,195.009 L 744.968,195.144 L 745.048,195.3 L 745.131,195.946 L 745.251,196.289 L 745.292,196.431 L 745.253,196.494 L 743.93,197.709 L 743.789,197.735 L 743.654,197.67 L 743.269,197.707 L 743.198,197.69 L 742.992,197.55 L 742.606,197.562 L 742.504,197.5 L 742.503,197.428 L 742.684,197.355 L 742.699,197.252 L 742.659,197.16 L 742.271,196.809 L 741.971,196.706 L 741.175,196.792 L 740.986,196.854 L 740.547,197.189 L 740.358,197.173 L 740.209,197.292 L 740.201,197.364 L 740.383,197.582 L 740.541,197.701 L 740.604,197.684 L 740.721,197.438 L 740.799,197.352 L 740.933,197.345 L 740.966,197.518 L 740.833,197.817 L 740.609,198.589 L 740.564,199.055 L 740.575,199.604 L 740.546,200.076 L 740.341,200.141 L 739.917,200.175 L 739.244,199.628 L 738.944,199.354 L 737.473,198.142 L 735.292,196.752 L 734.684,196.33 L 734.683,196.165 L 735.163,194.697 L 735.225,194.36 L 735.193,194.249 L 735.034,194.077 L 734.829,193.99 L 734.727,194.015 L 734.594,194.205 L 734.626,194.26 L 734.611,194.369 L 734.548,194.457 L 734.368,194.553 L 734.352,194.621 L 734.29,194.726 L 734.211,194.703 L 734.209,194.396 L 734.091,194.387 L 734.036,194.435 L 733.99,194.688 L 733.888,194.713 L 733.825,194.665 L 733.817,194.578 L 733.651,194.596 L 733.628,194.785 L 733.463,194.784 L 733.242,194.738 L 733.226,194.527 L 733.154,194.455 L 733.075,194.433 L 733.013,194.456 L 732.982,194.544 L 732.896,194.63 L 732.824,194.598 L 732.895,194.435 L 732.902,194.332 L 732.736,194.263 L 732.658,194.293 L 732.353,194.792 L 732.187,194.738 L 732.187,194.651 L 732.405,194.201 L 732.405,194.136 L 732.247,194.06 L 732.176,194.084 L 732.153,194.171 L 731.926,194.535 L 731.745,194.472 L 731.745,194.385 L 731.908,194.101 L 731.908,194.036 L 731.774,193.984 L 731.616,193.983 L 731.523,194.165 L 731.515,194.228 L 731.429,194.317 L 731.176,194.166 L 731.215,194.032 L 731.34,193.774 L 731.34,193.709 L 731.063,193.506 L 731.062,193.373 L 731.101,193.216 L 731.007,193.256 L 730.928,193.327 L 730.842,193.336 L 730.746,193.162 L 730.769,193.09 L 730.926,192.902 L 730.949,192.805 L 730.87,192.727 L 730.869,192.64 L 730.791,192.587 L 730.743,192.461 L 730.53,192.415 L 730.482,192.351 L 730.481,192.218 L 730.355,192.131 L 730.338,191.906 L 730.204,191.81 L 730.211,191.702 L 730.431,191.698 L 730.58,191.557 L 730.556,191.462 L 730.634,191.295 L 730.823,191.318 L 730.918,191.287 L 730.972,191.217 L 730.98,191.121 L 730.916,191.042 L 730.908,190.955 L 730.947,190.908 L 731.144,190.899 L 731.285,190.718 L 731.276,190.616 L 731.126,190.503 L 731.11,190.386 L 731.157,190.26 L 731.29,190.173 L 731.32,189.905 L 731.257,189.873 L 731.115,189.883 L 731.106,189.725 L 731.13,189.669 L 731.075,189.646 L 731.066,189.528 L 730.94,189.488 L 730.938,189.191 L 731.143,189.141 L 731.158,189.054 L 731.147,188.456 L 731.114,188.094 L 731.46,188.062 L 731.474,187.817 L 731.561,187.762 L 731.568,187.613 L 731.733,187.564 L 731.748,187.415 L 732.181,187.374 L 732.456,187.245 L 732.471,187.081 L 732.605,187.142 L 732.63,187.33 L 732.669,187.379 L 732.811,187.393 L 732.834,187.188 L 733.283,187.305 L 733.285,187.618 L 733.324,187.682 L 733.545,187.775 L 733.782,187.783 L 734.025,187.717 L 734.088,187.725 L 734.143,187.67 L 734.151,187.608 L 734.206,187.576 L 734.474,187.589 L 734.506,187.778 L 734.577,187.834 L 734.64,187.848 L 734.908,187.824 L 734.907,187.657 L 735.119,187.493 L 735.503,187.24 L 735.738,187.01 L 736.068,186.73 L 736.405,186.55 L 736.507,186.531 L 736.61,186.562 L 736.838,186.521 L 737.954,184.557 L 737.938,184.446 L 737.874,184.351 L 737.834,184.204 L 737.833,184.005 L 737.935,183.816 L 738.201,183.533 L 738.279,183.478 L 738.673,183.419 L 738.74,183.347"/><path id="path15445" d="M 746.747,184.706 L 746.79,184.811 L 746.806,184.882 L 746.894,185.006 L 747.044,185.126 L 747.873,185.427 L 748.023,185.447 L 748.313,185.305 L 748.651,185.209 L 749.084,185.165 L 749.88,185.256 L 749.998,185.318 L 750.141,185.466 L 750.237,185.677 L 750.231,185.937 L 750.129,186.009 L 749.712,186.077 L 749.508,186.154 L 749.445,186.202 L 749.266,186.456 L 748.806,187.238 L 748.815,188.599 L 748.904,188.978 L 749.049,189.458 L 749.097,189.521 L 749.129,189.654 L 749.393,190.257 L 749.394,190.322 L 749.449,190.401 L 749.553,190.663 L 749.617,190.773 L 749.849,191.346 L 750.051,192.162 L 750.131,192.312 L 750.171,192.469 L 750.204,192.707 L 750.152,193.108 L 749.816,193.599 L 749.778,193.647 L 749.576,194.087 L 749.469,194.602 L 749.48,195.057 L 749.621,196.104 L 749.669,196.237 L 749.859,196.504 L 750.106,196.704 L 749.733,197.091 L 749.27,196.704 L 749.01,196.582 L 748.717,196.376 L 748.344,196.003 L 748.209,195.805 L 748.089,195.508 L 748.055,195.075 L 748.069,194.885 L 748.162,194.634 L 748.372,194.246 L 748.443,194.192 L 748.569,194.206 L 748.671,194.253 L 748.743,194.322 L 748.755,194.976 L 748.818,195.046 L 748.929,195.077 L 749.055,195.051 L 749.226,194.711 L 749.332,194.106 L 749.433,193.933 L 749.502,193.67 L 749.524,193.459 L 749.492,193.357 L 749.334,193.247 L 749.263,193.265 L 749.169,193.367 L 749.067,193.423 L 748.988,193.406 L 748.862,193.329 L 748.853,193.162 L 748.923,192.958 L 748.936,192.651 L 749.044,192.263 L 749.051,192.155 L 749.105,191.998 L 749.214,191.815 L 749.205,191.666 L 749.048,191.649 L 748.977,191.707 L 748.914,191.588 L 748.834,191.438 L 748.731,191.432 L 748.582,191.489 L 748.535,191.528 L 748.307,191.615 L 748.229,191.673 L 748.183,191.768 L 748.049,191.775 L 747.725,191.667 L 747.583,191.699 L 747.6,191.866 L 746.624,191.888 L 746.326,192.071 L 746.311,192.18 L 746.225,192.275 L 745.864,192.435 L 745.809,192.57 L 745.7,192.635 L 745.369,192.629 L 745.314,192.699 L 745.261,192.89 L 745.127,192.897 L 745.063,192.859 L 745.094,192.693 L 745.015,192.662 L 744.803,192.702 L 744.558,192.625 L 744.361,192.541 L 744.178,192.361 L 743.823,192.191 L 743.46,192.121 L 743.145,192.007 L 742.789,191.788 L 742.654,191.615 L 742.611,191.191 L 742.673,190.985 L 742.671,190.631 L 742.733,190.453 L 742.834,190.261 L 742.943,190.122 L 743.131,189.992 L 743.43,189.958 L 743.713,189.801 L 743.735,189.565 L 743.663,189.462 L 743.654,189.201 L 743.621,189.1 L 743.62,188.895 L 743.712,188.508 L 743.718,188.195 L 743.646,188.085 L 743.449,188.048 L 743.362,187.976 L 743.291,187.86 L 743.284,187.698 L 743.391,187.51 L 743.469,187.439 L 743.405,187.36 L 743.523,187.314 L 743.546,187.242 L 743.609,187.218 L 743.822,187.264 L 744.341,187.252 L 744.427,187.135 L 744.426,186.899 L 744.401,186.726 L 744.472,186.662 L 745.085,186.635 L 745.329,186.507 L 745.423,186.405 L 745.43,186.253 L 745.436,186.128 L 745.467,185.979 L 745.671,185.852 L 745.804,185.786 L 745.835,185.701 L 745.909,185.553 L 746.096,185.404 L 746.134,185.337 L 746.142,185.276 L 746.135,185.162 L 746.13,185.065 L 746.195,184.978 L 746.299,185.002 L 746.364,184.997 L 746.441,184.977 L 746.52,184.934 L 746.566,184.885 L 746.613,184.844 L 746.747,184.706"/><path id="path15457" d="M 741.403,194.029 L 739.184,193.919 L 740.145,190.45 L 740.244,190.121 L 741.932,189.463 L 742.176,189.654 L 742.262,189.72 L 742.257,190.046 L 742.18,190.284 L 742.079,190.457 L 742.055,190.522 L 741.977,190.703 L 741.932,190.962 L 741.754,191.473 L 741.411,192.301 L 741.397,192.516 L 741.46,192.632 L 741.903,193.031 L 741.872,193.134 L 741.802,193.198 L 741.644,193.222 L 741.526,193.176 L 741.361,193.162 L 741.196,193.216 L 741.125,193.311 L 741.087,193.477 L 740.859,193.66 L 740.883,193.737 L 741.269,193.744 L 741.388,193.868 L 741.403,194.029"/><path id="path15463" d="M 747.095,193.986 L 746.937,193.979 L 746.708,193.886 L 746.613,193.762 L 746.596,193.676 L 746.707,193.691 L 746.77,193.754 L 746.976,193.863 L 747.093,193.828 L 747.133,193.774 L 747.061,193.64 L 747.083,193.397 L 747.019,193.34 L 746.594,193.297 L 746.578,193.226 L 746.688,193.195 L 746.948,193.209 L 747.208,193.31 L 747.359,193.458 L 747.415,193.574 L 747.393,193.844 L 747.299,193.946 L 747.236,193.979 L 747.095,193.986"/><path id="path15467" d="M 775.195,193.881 L 775.077,193.876 L 775.076,193.718 L 775.114,193.583 L 775.224,193.549 L 775.287,193.566 L 775.351,193.644 L 775.359,193.737 L 775.195,193.881"/><path id="path15477" d="M 750.106,196.704 L 750.397,196.807 L 750.736,196.844 L 750.823,196.882 L 751.068,197.079 L 751.517,197.106 L 751.792,197.002 L 752.036,196.97 L 752.194,197.009 L 752.32,197.092 L 752.447,197.228 L 752.985,197.624 L 753.152,197.827 L 753.264,198.143 L 753.288,198.251 L 753.695,198.999 L 753.72,199.172 L 753.548,199.375 L 753.517,199.488 L 753.527,199.698 L 753.68,200.296 L 753.768,200.485 L 753.778,200.823 L 753.826,200.974 L 753.796,201.114 L 753.725,201.138 L 753.638,201.11 L 753.471,200.913 L 753.337,200.833 L 752.8,200.651 L 752.682,200.539 L 752.618,200.389 L 752.585,200.179 L 752.448,199.808 L 752.258,199.612 L 752.052,199.435 L 751.562,199.176 L 751.365,199.037 L 751.166,198.85 L 750.938,198.789 L 750.866,198.679 L 750.802,198.514 L 750.722,198.379 L 750.721,198.262 L 750.784,198.167 L 750.784,198.105 L 750.617,197.948 L 750.033,197.658 L 749.787,197.495 L 749.763,197.434 L 749.786,197.377 L 749.857,197.332 L 749.999,197.306 L 749.951,197.211 L 749.832,197.174 L 749.733,197.091 L 750.106,196.704"/><path id="path15479" d="M 769.351,198.087 L 769.255,197.854 L 769.254,197.717 L 769.341,197.677 L 769.451,197.749 L 769.499,197.828 L 769.477,197.993 L 769.351,198.087"/><path id="path15495" d="M 768.871,200.461 L 768.752,200.322 L 768.775,200.256 L 768.956,200.248 L 768.949,200.431 L 768.871,200.461"/><path id="path15497" d="M 768.257,202.858 L 768.201,202.835 L 768.153,202.709 L 768.027,202.592 L 767.995,202.5 L 767.836,202.374 L 767.836,202.303 L 768,202.152 L 768.094,201.994 L 768.044,201.655 L 768.051,201.428 L 768.332,201.206 L 768.411,201.213 L 768.523,201.424 L 768.649,201.479 L 768.627,201.684 L 768.637,201.991 L 768.694,202.228 L 768.561,202.408 L 768.547,202.738 L 768.257,202.858"/><path id="path15499" d="M 772.393,202.044 L 772.322,202.012 L 772.306,201.926 L 772.251,201.887 L 772.046,201.865 L 772.132,201.745 L 772.618,201.467 L 772.972,201.466 L 773.074,201.37 L 773.144,201.268 L 773.27,201.234 L 773.444,201.337 L 773.53,201.288 L 773.766,201.272 L 773.822,201.295 L 773.83,201.403 L 773.713,201.562 L 773.478,201.736 L 773.369,201.888 L 773.196,201.959 L 772.519,202.003 L 772.393,202.044"/><path id="path15503" d="M 769.691,202.977 L 769.509,202.945 L 769.469,202.804 L 769.579,202.748 L 769.87,202.683 L 770.475,202.451 L 770.663,202.408 L 770.735,202.45 L 771.002,202.485 L 771.129,202.627 L 770.988,202.737 L 770.761,202.849 L 770.375,202.916 L 769.691,202.977"/><path id="path15505" d="M 768.26,205.773 L 768.189,205.766 L 768.016,205.703 L 767.881,205.602 L 767.755,205.627 L 767.567,205.763 L 767.48,205.716 L 767.488,205.629 L 767.949,205.168 L 768.051,205.004 L 768.089,204.876 L 768.126,204.475 L 768.172,204.365 L 768.243,204.285 L 768.572,204.071 L 768.808,204.061 L 768.887,204.13 L 768.888,204.241 L 768.638,204.487 L 768.569,204.793 L 768.555,205.054 L 768.399,205.301 L 768.339,205.74 L 768.26,205.773"/><path id="path15507" d="M 761.193,207.499 L 760.948,207.469 L 760.79,207.337 L 760.734,207.187 L 760.725,207.013 L 760.55,206.78 L 760.123,206.507 L 759.735,206.248 L 759.436,206.242 L 759.38,206.054 L 759.519,205.634 L 759.502,205.415 L 759.414,205.25 L 759.239,205.022 L 759.246,204.904 L 759.395,204.754 L 759.615,204.636 L 759.749,204.657 L 759.757,204.815 L 759.94,205.089 L 760.004,205.167 L 760.203,205.521 L 760.251,205.616 L 760.322,205.725 L 760.394,205.795 L 760.704,206.211 L 760.903,206.602 L 761.006,206.751 L 761.434,207.15 L 761.443,207.299 L 761.318,207.452 L 761.193,207.499"/><path id="path15513" d="M 771.717,205.795 L 771.615,205.727 L 771.638,205.664 L 771.85,205.599 L 772.015,205.597 L 772.047,205.646 L 771.969,205.707 L 771.717,205.795"/><path id="path15519" d="M 769.904,206.59 L 769.581,206.584 L 769.439,206.551 L 769.43,206.433 L 769.579,206.379 L 770.083,206.352 L 770.091,206.423 L 769.904,206.59"/></g></svg>