<svg xmlns="http://www.w3.org/2000/svg" role="img" viewBox="1341.49 287.75 57.38 65.26"><title>Woburn</title><path fill-rule="evenodd" d="M1383.934 289.18569l6.40486 16.03817.17885.46186.29659.80598-.29206.1517.9871 2.6217.38262-.07697 1.17728 3.03602-.10414.16527-.9056 1.17276 2.69642 3.06772 2.85038 16.23061-6.75125.33734-.38035.1947-16.0744 7.41234-2.26174 5.35662-3.8171-2.6036-15.402 8.19795-.50034-.49582-1.91534-2.05798-.90108-.38035-.91239-1.295-5.83433-6.50448 1.53273-1.79082 9.95028-11.63243 1.40595-.72448.92824-.32828.9622-.95768-.10415-.22187 7.29008-2.70548-1.07313-2.11005 1.05955-.5841.20376-5.88414-.13131-1.57801-.84448-12.01731 19.8983-11.3019" fill="#fefee9" fill-opacity="1" stroke="#000" stroke-linecap="square" stroke-linejoin="bevel" stroke-opacity="1" stroke-width=".22187199999999999"/></svg>