<svg xmlns="http://www.w3.org/2000/svg" role="img" viewBox="299.77 343.02 78.84 96.59"><title>Worthington</title><g id="g14955" fill="#fefee9" fill-opacity="1" fill-rule="evenodd" stroke="#000" stroke-linecap="square" stroke-linejoin="bevel" stroke-opacity="1" stroke-width=".098" transform="translate(-216.714 -21.7) scale(2.264)"><path id="path15365" fill-rule="evenodd" d="M 262.104,168.036 L 256.077,168.846 L 258.65,187.92 L 260.333,200.023 L 260.417,202.591 L 257.97,202.936 L 257.788,199.738 L 243.085,198.401 L 243.099,198.325 L 243.097,198.262 L 243.093,198.161 L 243.075,198.104 L 243.043,198 L 243.013,197.935 L 242.987,197.841 L 242.95,197.769 L 242.917,197.701 L 242.879,197.645 L 242.814,197.592 L 242.757,197.55 L 242.707,197.515 L 242.634,197.464 L 242.562,197.43 L 242.485,197.386 L 242.401,197.358 L 242.283,197.309 L 242.225,197.271 L 242.146,197.214 L 242.091,197.157 L 242.038,197.088 L 241.98,197.01 L 241.933,196.947 L 241.88,196.881 L 241.818,196.786 L 241.77,196.692 L 241.724,196.604 L 241.664,196.516 L 241.604,196.419 L 241.493,196.264 L 241.413,196.122 L 241.284,195.917 L 241.208,195.794 L 241.153,195.704 L 241.039,195.431 L 240.986,195.36 L 240.944,195.312 L 240.765,195.145 L 240.725,195.094 L 240.69,195.04 L 240.662,194.986 L 240.635,194.912 L 240.619,194.851 L 240.609,194.791 L 240.6,194.724 L 240.587,194.631 L 240.582,194.527 L 240.575,194.469 L 240.573,194.41 L 240.574,194.31 L 240.576,194.245 L 240.571,194.162 L 240.563,194.046 L 240.567,193.987 L 240.58,193.883 L 240.573,193.806 L 240.562,193.723 L 240.543,193.644 L 240.496,193.563 L 240.461,193.49 L 240.437,193.434 L 240.414,193.368 L 240.39,193.31 L 240.368,193.215 L 240.346,193.096 L 240.317,193.022 L 240.288,192.964 L 240.22,192.856 L 240.186,192.776 L 240.151,192.708 L 240.117,192.603 L 240.086,192.519 L 240.055,192.382 L 240.016,192.269 L 239.969,192.201 L 239.926,192.124 L 239.898,192.072 L 239.851,191.949 L 239.837,191.885 L 239.846,191.809 L 239.87,191.723 L 239.902,191.655 L 239.924,191.581 L 239.935,191.479 L 239.923,191.414 L 239.886,191.344 L 239.841,191.289 L 239.773,191.256 L 239.693,191.235 L 239.379,191.168 L 239.311,191.148 L 239.236,191.095 L 239.219,191.017 L 239.229,190.941 L 239.274,190.871 L 239.311,190.82 L 239.367,190.743 L 239.406,190.695 L 239.451,190.645 L 239.571,190.491 L 239.645,190.405 L 239.718,190.327 L 239.784,190.23 L 239.817,190.182 L 239.859,190.115 L 239.896,190.043 L 239.945,189.99 L 239.972,189.933 L 239.99,189.875 L 240,189.808 L 240.002,189.745 L 240.012,189.669 L 240.071,189.606 L 240.131,189.576 L 240.196,189.517 L 240.237,189.446 L 240.267,189.366 L 240.285,189.292 L 240.281,189.221 L 240.25,189.139 L 240.216,189.083 L 240.165,189.02 L 240.119,188.97 L 240.058,188.911 L 240.003,188.871 L 239.921,188.798 L 239.868,188.763 L 239.79,188.675 L 239.745,188.634 L 239.661,188.549 L 239.621,188.497 L 239.55,188.408 L 239.439,188.349 L 239.388,188.318 L 239.28,188.241 L 239.2,188.199 L 239.142,188.152 L 239.093,188.093 L 239.05,188.021 L 239.032,187.946 L 238.994,187.852 L 238.97,187.782 L 238.942,187.691 L 238.897,187.623 L 238.857,187.574 L 238.837,187.514 L 238.774,187.434 L 238.724,187.386 L 238.664,187.341 L 238.569,187.278 L 238.481,187.242 L 238.423,187.207 L 238.353,187.182 L 238.287,187.143 L 238.215,187.106 L 238.147,187.047 L 238.092,186.985 L 238.052,186.908 L 238.024,186.834 L 238,186.763 L 237.99,186.688 L 237.976,186.625 L 237.965,186.514 L 237.953,186.437 L 237.94,186.376 L 237.938,186.285 L 237.936,186.224 L 237.922,186.137 L 237.898,186.06 L 237.867,185.99 L 237.827,185.913 L 237.791,185.833 L 237.767,185.766 L 237.743,185.7 L 237.726,185.615 L 237.71,185.524 L 237.694,185.443 L 237.692,185.373 L 237.69,185.294 L 237.688,185.209 L 237.676,185.144 L 237.672,185.047 L 237.66,184.984 L 237.65,184.905 L 237.637,184.846 L 237.617,184.78 L 237.579,184.711 L 237.533,184.647 L 237.492,184.577 L 237.45,184.519 L 237.408,184.449 L 237.374,184.376 L 237.319,184.303 L 237.27,184.224 L 237.222,184.177 L 237.168,184.119 L 237.122,184.075 L 237.09,184.015 L 237.077,183.957 L 237.081,183.863 L 237.108,183.805 L 237.128,183.732 L 237.147,183.678 L 237.166,183.596 L 237.19,183.509 L 237.213,183.422 L 237.221,183.343 L 237.232,183.28 L 237.252,183.216 L 237.269,183.143 L 237.282,183.085 L 237.301,183.016 L 237.323,182.926 L 237.333,182.85 L 237.35,182.765 L 237.378,182.668 L 237.392,182.599 L 237.402,182.505 L 237.415,182.44 L 237.435,182.358 L 237.448,182.286 L 237.458,182.211 L 237.468,182.105 L 237.485,182.041 L 237.493,181.966 L 237.499,181.888 L 231.544,182.731 L 228.997,183.069 L 231.762,170.876 L 233.663,162.004 L 262.104,168.036"/></g></svg>