<svg xmlns="http://www.w3.org/2000/svg" role="img" viewBox="1888.26 906.63 70.11 97.11"><title>Yarmouth</title><g id="g14955" fill="#fefee9" fill-opacity="1" fill-rule="evenodd" stroke="#000" stroke-linecap="square" stroke-linejoin="bevel" stroke-opacity="1" stroke-width=".098" transform="translate(-216.714 -21.7) scale(2.264)"><path id="path15969" d="M 944.375,439.561 L 944.526,439.612 L 944.48,439.725 L 944.426,439.81 L 944.42,439.891 L 944.508,439.991 L 944.575,440.249 L 944.588,440.612 L 944.543,440.716 L 944.554,440.951 L 944.524,441.039 L 944.537,441.345 L 944.5,441.536 L 944.431,441.662 L 944.172,441.672 L 943.905,441.748 L 943.746,441.672 L 943.69,441.624 L 943.508,441.564 L 943.407,441.599 L 943.306,441.694 L 943.155,442.124 L 943,442.274 L 942.858,442.3 L 942.925,442.025 L 942.928,441.693 L 942.887,441.607 L 942.671,441.366 L 942.434,441.354 L 942.278,441.402 L 942.106,441.546 L 941.958,441.638 L 941.811,441.788 L 941.73,442.122 L 941.744,442.553 L 941.849,442.711 L 942.102,442.768 L 942.266,442.695 L 942.651,442.635 L 942.919,442.639 L 943.076,442.597 L 943.239,442.475 L 943.409,442.228 L 943.468,442.022 L 943.512,441.763 L 943.59,441.761 L 943.726,441.847 L 943.955,441.914 L 944.262,441.933 L 944.264,442.02 L 944.188,442.202 L 944.181,442.271 L 944.222,442.375 L 944.31,442.45 L 944.416,442.695 L 944.425,442.797 L 944.048,442.864 L 942.629,443.28 L 942.387,443.427 L 942.39,443.607 L 942.312,443.646 L 941.073,443.99 L 940.854,444.086 L 940.66,444.262 L 940.584,444.422 L 940.434,444.439 L 938.97,444.944 L 938.064,445.439 L 937.736,445.672 L 937.146,446.216 L 936.788,446.518 L 936.702,446.617 L 936.236,447.111 L 935.811,447.7 L 935.71,447.771 L 935.695,447.828 L 935.432,448.155 L 935.225,448.592 L 935.229,448.889 L 935.349,448.991 L 935.634,449.082 L 935.652,449.237 L 935.483,449.57 L 935.361,449.872 L 935.235,450.387 L 934.76,451.338 L 934.605,451.553 L 934.403,451.751 L 933.109,452.102 L 932.951,452.11 L 932.542,451.567 L 932.532,450.857 L 932.499,450.709 L 932.426,450.575 L 932.404,450.172 L 932.372,450.08 L 932.275,449.956 L 932.217,449.728 L 932.097,449.555 L 932.054,449.329 L 931.966,449.211 L 931.956,449.1 L 931.993,448.878 L 932.091,448.603 L 932.089,448.438 L 932.163,448.129 L 932.169,447.986 L 932.127,447.761 L 932.028,447.463 L 931.914,447.197 L 931.904,447.079 L 931.949,446.91 L 932.011,446.8 L 932.049,446.687 L 932.07,446.467 L 932.241,446.322 L 932.333,446.155 L 932.6,446.073 L 932.61,446.23 L 932.673,446.238 L 932.767,446.167 L 932.827,446.016 L 932.952,445.889 L 933.03,445.855 L 933.289,445.82 L 933.929,445.907 L 934.165,445.909 L 934.431,445.836 L 934.542,445.842 L 934.598,445.903 L 934.599,445.999 L 934.363,446.003 L 934.3,446.035 L 934.254,446.099 L 934.212,446.485 L 933.884,446.655 L 933.25,446.981 L 933.116,446.982 L 932.934,446.928 L 932.706,446.972 L 932.574,447.084 L 932.504,447.189 L 932.491,447.329 L 932.523,447.424 L 932.611,447.493 L 932.784,447.475 L 933.034,447.353 L 933.113,447.376 L 933.258,447.579 L 933.37,447.694 L 933.528,447.764 L 933.963,447.86 L 934.231,447.88 L 934.389,447.925 L 934.437,447.988 L 934.502,448.145 L 934.589,448.136 L 934.594,447.937 L 934.408,447.617 L 934.405,447.397 L 934.441,447.16 L 934.445,446.862 L 934.538,446.767 L 934.75,446.643 L 934.851,446.577 L 934.968,446.441 L 935.097,446.133 L 935.182,446.013 L 935.189,445.941 L 934.993,446 L 935.113,445.565 L 935.208,445.02 L 935.285,444.878 L 935.47,444.64 L 935.702,444.354 L 935.905,444.177 L 936.163,444.046 L 936.249,444.068 L 936.401,444.234 L 936.442,444.357 L 936.436,444.469 L 936.242,444.676 L 936.206,444.857 L 936.215,444.99 L 936.311,445.077 L 936.429,445.114 L 936.54,445.105 L 936.593,445.016 L 936.654,444.844 L 936.701,444.796 L 936.865,444.714 L 936.983,444.729 L 937.126,444.79 L 937.63,444.915 L 937.796,444.907 L 939.031,444.344 L 939.196,444.302 L 939.18,443.806 L 939.292,443.403 L 939.355,443.41 L 939.419,443.455 L 939.537,443.43 L 939.567,443.367 L 939.502,443.241 L 939.36,443.174 L 939.333,442.496 L 939.192,442.035 L 938.886,441.566 L 938.645,441.278 L 938.447,441.21 L 938.235,441.213 L 938.039,441.256 L 937.906,441.353 L 937.659,441.633 L 937.549,441.689 L 937.383,441.638 L 937.272,441.56 L 937.078,441.343 L 936.532,440.624 L 936.387,440.414 L 935.949,439.98 L 935.908,439.901 L 935.859,439.759 L 935.763,439.682 L 935.591,439.749 L 935.488,439.742 L 935.1,439.596 L 935.004,439.481 L 935.017,439.291 L 935.091,438.904 L 935.089,438.771 L 935.071,438.598 L 935.108,438.463 L 935.194,438.368 L 935.357,438.264 L 935.404,438.191 L 935.448,437.985 L 935.486,437.916 L 935.58,437.857 L 935.714,437.841 L 935.957,437.75 L 936.049,437.592 L 936.045,437.285 L 936.248,437.149 L 936.246,437.069 L 936.183,437.04 L 935.971,437.08 L 935.807,437.168 L 935.643,437.313 L 935.581,437.314 L 935.351,437.207 L 935.27,437.091 L 935.207,437.074 L 935.171,437.345 L 935.133,437.439 L 935.071,437.494 L 934.961,437.472 L 934.848,437.342 L 934.856,437.277 L 934.941,437.166 L 934.82,437.017 L 934.763,436.876 L 934.611,436.657 L 934.488,436.323 L 934.383,436.165 L 934.264,436.097 L 934.218,436.185 L 934.315,436.356 L 934.369,437.409 L 934.366,437.741 L 934.455,437.906 L 934.558,437.999 L 934.864,437.915 L 935.172,437.928 L 935.235,437.957 L 935.229,438.091 L 935.097,438.228 L 934.956,438.307 L 934.666,438.343 L 934.667,438.439 L 934.707,438.509 L 934.705,438.909 L 934.891,439.223 L 934.892,439.332 L 934.792,439.515 L 934.565,439.605 L 934.353,439.648 L 934.189,439.752 L 933.726,439.859 L 933.405,440.03 L 932.855,440.071 L 932.538,439.94 L 932.251,439.669 L 932.006,439.593 L 931.624,439.346 L 931.514,439.362 L 931.348,439.286 L 930.993,439.229 L 930.913,439.166 L 930.785,438.987 L 930.776,438.919 L 930.659,438.873 L 934.194,423.509 L 933.975,420.466 L 933.957,419.752 L 933.945,419.695 L 933.923,419.552 L 933.886,419.42 L 933.833,419.293 L 933.792,419.179 L 933.753,419.062 L 933.724,418.975 L 933.704,418.83 L 933.667,418.691 L 933.634,418.614 L 933.576,418.527 L 933.512,418.437 L 933.41,418.339 L 933.408,418.187 L 933.201,418.048 L 933.356,417.848 L 933.533,417.57 L 933.593,417.357 L 933.662,417.237 L 933.779,417.156 L 933.952,417.139 L 933.942,416.944 L 934.003,416.84 L 934.009,416.675 L 934.12,416.728 L 934.185,416.859 L 934.201,416.914 L 934.228,417.174 L 934.316,417.227 L 934.342,417.394 L 934.483,417.359 L 934.642,417.469 L 934.721,417.451 L 934.782,417.347 L 935.112,417.272 L 935.055,417.172 L 934.944,417.125 L 934.779,417.121 L 934.573,417.022 L 934.415,416.976 L 934.411,416.753 L 934.503,416.524 L 934.494,416.453 L 934.129,416.272 L 934.136,416.185 L 934.281,415.883 L 934.49,415.628 L 934.708,415.442 L 935.186,415.224 L 935.417,414.857 L 935.495,414.796 L 935.597,414.818 L 935.701,414.917 L 935.438,415.229 L 935.384,415.333 L 935.394,415.506 L 935.55,415.945 L 935.637,416.02 L 935.796,416.08 L 935.969,416.078 L 936.118,416.031 L 936.26,416.036 L 936.522,416.168 L 936.663,416.142 L 936.662,416.055 L 936.495,415.93 L 936.122,415.77 L 935.847,415.827 L 935.753,415.815 L 935.768,415.737 L 935.947,415.608 L 936.047,415.481 L 936.077,415.331 L 936.071,414.912 L 936.006,414.762 L 935.913,414.325 L 935.982,414.158 L 936.082,414.047 L 936.223,413.965 L 936.349,413.949 L 936.398,414.072 L 936.508,414.072 L 936.554,413.993 L 936.544,413.826 L 936.367,413.57 L 936.373,413.437 L 936.45,413.276 L 936.66,413.093 L 937.152,412.818 L 937.337,412.587 L 937.548,412.497 L 937.902,412.428 L 938.398,412.422 L 938.766,412.291 L 939.282,412.046 L 939.384,412.043 L 939.488,412.177 L 939.485,412.474 L 939.776,412.472 L 940.14,412.551 L 940.22,412.614 L 940.371,412.752 L 940.502,412.569 L 940.65,412.425 L 940.86,412.264 L 940.984,412.136 L 941.332,411.233 L 941.456,411.058 L 941.556,410.972 L 941.698,410.961 L 941.841,411.022 L 941.96,411.106 L 942.121,411.284 L 942.307,411.614 L 942.682,411.962 L 943.135,412.247 L 943.364,412.234 L 943.567,412.129 L 943.746,411.993 L 943.854,411.872 L 943.917,411.87 L 944.037,411.994 L 944.118,412.144 L 944.149,412.196 L 944.12,412.315 L 944.108,412.38 L 944.106,412.457 L 944.109,412.535 L 944.117,412.612 L 944.151,412.717 L 944.211,412.834 L 944.267,412.902 L 944.344,412.975 L 944.461,413.004 L 944.553,412.99 L 944.661,412.977 L 944.761,412.967 L 944.839,412.958 L 944.935,412.942 L 944.986,412.909 L 945.054,412.862 L 945.111,412.792 L 945.125,412.729 L 945.083,412.684 L 945.026,412.701 L 944.971,412.762 L 944.89,412.777 L 944.815,412.732 L 944.766,412.668 L 944.742,412.552 L 944.759,412.359 L 944.779,412.294 L 944.853,412.276 L 944.934,412.269 L 945.042,412.097 L 945.116,412.058 L 945.229,412.089 L 945.329,412.078 L 945.403,412.063 L 945.47,412.046 L 945.537,412.127 L 945.593,412.196 L 945.694,412.232 L 945.775,412.244 L 945.82,412.203 L 945.881,412.131 L 945.952,412.133 L 946.022,412.171 L 945.991,412.278 L 945.965,412.337 L 945.915,412.39 L 945.858,412.428 L 945.856,412.49 L 945.902,412.546 L 945.954,412.625 L 946.016,412.618 L 946.034,412.533 L 946.054,412.452 L 946.076,412.392 L 946.094,412.299 L 946.161,412.235 L 946.228,412.233 L 946.303,412.269 L 946.305,412.336 L 946.291,412.395 L 946.331,412.453 L 946.382,412.499 L 946.438,412.459 L 946.472,412.407 L 946.539,412.413 L 946.602,412.484 L 946.693,412.512 L 946.778,412.459 L 946.828,412.414 L 946.871,412.471 L 946.866,412.538 L 946.916,412.617 L 946.966,412.651 L 947.051,412.687 L 947.081,412.623 L 947.089,412.56 L 947.116,412.506 L 947.169,412.444 L 947.231,412.454 L 947.225,412.539 L 947.244,412.602 L 947.299,412.622 L 947.314,412.549 L 947.306,412.466 L 947.358,412.438 L 947.421,412.444 L 947.501,412.476 L 947.578,412.519 L 947.659,412.514 L 947.736,412.539 L 947.794,412.648 L 947.851,412.655 L 947.875,412.733 L 947.938,412.732 L 947.974,412.678 L 948.041,412.674 L 948.121,412.662 L 948.196,412.651 L 948.29,412.645 L 948.376,412.623 L 948.447,412.637 L 948.479,412.579 L 948.527,412.535 L 948.565,412.471 L 948.558,412.404 L 948.56,412.345 L 948.671,412.362 L 948.739,412.335 L 948.779,412.281 L 948.839,412.296 L 948.917,412.258 L 948.971,412.295 L 948.998,412.377 L 949.099,412.414 L 949.21,412.457 L 949.314,412.501 L 949.451,412.587 L 949.552,412.659 L 949.649,412.718 L 949.699,412.758 L 950.174,413.189 L 949.855,414.288 L 953.112,416.195 L 953.416,416.14 L 953.878,416.386 L 953.945,416.449 L 954.004,416.562 L 954.126,416.797 L 954.827,417.407 L 954.914,417.439 L 954.112,418.684 L 954.384,418.866 L 954.474,418.929 L 954.582,419.013 L 954.657,419.083 L 954.773,419.19 L 954.912,419.325 L 955.027,419.46 L 955.15,419.636 L 955.264,419.799 L 955.347,419.937 L 955.405,420.036 L 955.486,420.148 L 955.553,420.216 L 955.802,420.348 L 955.897,420.401 L 956.001,420.447 L 956.073,420.505 L 956.191,420.612 L 956.303,420.752 L 956.378,420.852 L 956.442,420.963 L 956.506,421.093 L 956.543,421.179 L 956.598,421.253 L 956.67,421.288 L 956.852,421.369 L 957.035,421.444 L 957.137,421.491 L 957.195,421.538 L 957.248,421.639 L 957.268,421.708 L 957.298,421.843 L 957.315,422.055 L 957.32,422.203 L 957.325,422.407 L 957.333,422.85 L 957.344,422.956 L 957.372,423.017 L 957.449,423.106 L 957.409,423.246 L 957.516,423.537 L 957.799,424.038 L 957.864,424.185 L 958.056,424.331 L 958.264,424.548 L 958.67,424.881 L 958.916,424.957 L 959.315,424.809 L 959.379,424.847 L 959.388,424.909 L 959.357,424.972 L 959.122,425.032 L 959.123,425.119 L 959.346,425.304 L 959.416,425.246 L 959.542,425.237 L 959.872,425.698 L 959.874,425.801 L 959.796,425.896 L 959.367,426.138 L 959.204,426.313 L 959.174,426.41 L 959.162,426.652 L 959.205,426.896 L 959.191,426.968 L 958.786,427.25 L 958.59,427.324 L 958.22,427.362 L 958.094,427.307 L 958.029,427.213 L 957.919,427.207 L 957.905,427.35 L 957.906,427.412 L 957.86,427.5 L 957.742,427.51 L 957.725,427.392 L 957.621,427.309 L 957.527,427.348 L 957.507,428.081 L 957.393,428.373 L 957.389,428.612 L 957.36,428.767 L 957.113,429.119 L 956.932,429.593 L 956.411,430.523 L 956.325,430.587 L 956.184,430.607 L 955.985,430.513 L 955.712,430.186 L 955.514,430.111 L 955.318,430.123 L 955.122,430.173 L 954.927,430.302 L 954.827,430.439 L 954.667,430.794 L 954.63,430.99 L 954.577,431.11 L 954.556,431.309 L 954.459,431.631 L 954.259,431.91 L 953.949,432.781 L 953.735,433.209 L 953.627,433.324 L 953.087,433.581 L 952.925,433.751 L 952.656,434.242 L 952.444,434.766 L 952.336,434.903 L 952.188,434.997 L 951.574,435.558 L 951.146,435.855 L 950.681,436.384 L 950.59,436.551 L 950.507,436.826 L 950.472,437.113 L 950.283,437.617 L 950.179,437.999 L 950.184,438.343 L 950.217,438.438 L 950.273,438.492 L 950.324,438.767 L 950.346,439.16 L 950.436,439.356 L 950.437,439.452 L 950.412,439.862 L 950.114,439.936 L 949.352,440.057 L 948.512,440.237 L 947.714,440.555 L 947.145,440.903 L 946.506,441.353 L 945.671,441.88 L 945.132,442.162 L 945.062,442.22 L 944.937,442.267 L 944.592,442.376 L 944.434,442.362 L 944.432,442.229 L 944.637,441.746 L 944.636,441.659 L 944.767,441.5 L 944.727,441.42 L 944.726,441.343 L 944.826,441.232 L 944.714,441.114 L 944.72,441.005 L 944.829,440.931 L 944.828,440.859 L 944.787,440.712 L 944.848,440.601 L 944.839,440.536 L 944.736,440.474 L 944.675,440.123 L 944.63,439.721 L 944.589,439.644 L 944.526,439.612 L 944.508,439.51 L 944.372,439.356 L 944.307,439.237 L 944.244,439.214 L 944.199,439.373 L 944.375,439.561"/><path id="path16047" d="M 944.526,439.612 L 944.375,439.561 L 944.199,439.373 L 944.244,439.214 L 944.307,439.237 L 944.372,439.356 L 944.508,439.51 L 944.526,439.612"/><path id="path16053" d="M 936.502,444.12 L 936.501,444.036 L 937.112,443.798 L 937.306,443.78 L 937.348,443.952 L 937.625,444.044 L 938.041,443.988 L 938.223,443.995 L 938.287,444.055 L 938.465,444.385 L 938.253,444.425 L 938.135,444.469 L 937.751,444.53 L 937.562,444.588 L 937.397,444.611 L 937.121,444.427 L 936.813,444.362 L 936.622,444.262 L 936.502,444.12"/></g></svg>