<svg
   xmlns:svg="http://www.w3.org/2000/svg"
   xmlns="http://www.w3.org/2000/svg"
   version="1.0"
   width="2100"
   height="1300"
   viewBox="0 0 2100 1300"
   id="svg14921">
   <g
     transform="matrix(2.2640019,0,0,2.2640019,-216.71416,-21.6991)"
     id="g14955"
     style="font-size:16.25px;font-style:normal;font-weight:400;fill:#fefee9;fill-opacity:1;fill-rule:evenodd;stroke:#000000;stroke-width:0.0984252;stroke-linecap:square;stroke-linejoin:bevel;stroke-opacity:1;font-family:Lucida Grande">
    <path
       name="acushnet" d="M 766.911,400.813 L 767.67,402.72 L 772.322,401.896 L 773.286,405.376 L 775.48,413.424 L 777.977,422.494 L 779.797,429.086 L 775.613,431.345 L 771.711,433.443 L 765.136,434.964 L 765.191,434.785 L 765.175,434.658 L 765,434.462 L 764.96,434.385 L 764.904,434.142 L 764.91,433.866 L 764.947,433.502 L 764.944,433.18 L 764.991,433.06 L 764.995,432.574 L 765.002,432.409 L 765.049,432.321 L 765.111,432.288 L 765.332,432.272 L 765.426,432.186 L 765.424,432.019 L 765.321,431.792 L 765.265,431.673 L 765.271,431.487 L 765.342,431.423 L 765.444,431.383 L 765.538,431.389 L 765.76,431.593 L 765.847,431.569 L 765.838,431.498 L 765.623,431.151 L 765.607,431.058 L 765.528,430.965 L 765.172,430.724 L 765.037,430.597 L 764.934,430.551 L 764.839,430.433 L 764.807,430.364 L 764.75,430.24 L 764.64,430.002 L 764.567,429.845 L 764.601,429.63 L 764.584,429.506 L 764.559,429.402 L 764.528,429.31 L 764.49,429.259 L 764.434,429.211 L 764.355,429.165 L 764.266,429.115 L 764.198,429.061 L 764.138,428.991 L 764.11,428.899 L 764.019,428.923 L 763.965,428.403 L 763.919,428.324 L 763.726,427.994 L 763.431,427.766 L 763.206,427.58 L 763.128,427.554 L 762.915,427.545 L 762.865,427.487 L 757.803,407.313 L 760.636,405.46 L 763.089,403.877 L 763.022,403.728 L 762.972,403.684 L 762.91,403.654 L 762.802,403.608 L 762.739,403.586 L 762.639,403.552 L 762.567,403.491 L 762.502,403.428 L 762.446,403.38 L 762.41,403.311 L 762.366,403.27 L 762.318,403.231 L 762.273,403.181 L 762.203,403.128 L 762.143,403.045 L 762.103,402.951 L 762.064,402.87 L 762.048,402.79 L 762.031,402.688 L 762.031,402.621 L 762.065,402.561 L 762.134,402.504 L 765.979,401.171 L 765.945,401.101 L 766.911,400.813"
       id="path15945"
       style="fill-rule:evenodd" />  
   </g>

</svg>