<svg
   xmlns:svg="http://www.w3.org/2000/svg"
   xmlns="http://www.w3.org/2000/svg"
   version="1.0"
   width="2100"
   height="1300"
   viewBox="0 0 2100 1300"
   id="svg14921">
   <g
     transform="matrix(2.2640019,0,0,2.2640019,-216.71416,-21.6991)"
     id="g14955"
     style="font-size:16.25px;font-style:normal;font-weight:400;fill:#fefee9;fill-opacity:1;fill-rule:evenodd;stroke:#000000;stroke-width:0.0984252;stroke-linecap:square;stroke-linejoin:bevel;stroke-opacity:1;font-family:Lucida Grande">
    <path
       name="agawam" d="M 335.12,286.06 L 335.771,287.045 L 335.803,287.113 L 335.85,287.176 L 335.857,287.235 L 335.949,287.41 L 335.974,287.5 L 336.026,287.583 L 336.048,287.704 L 336.137,287.994 L 336.223,288.221 L 336.5,289.716 L 336.541,289.923 L 336.568,290.136 L 336.582,290.269 L 336.589,290.364 L 336.587,290.512 L 336.564,290.627 L 336.551,290.71 L 336.56,290.8 L 336.519,290.879 L 336.485,290.953 L 336.467,291.016 L 336.426,291.09 L 336.388,291.145 L 336.344,291.211 L 336.312,291.291 L 336.252,291.358 L 336.198,291.422 L 336.144,291.476 L 336.098,291.523 L 335.715,291.971 L 335.43,292.296 L 334.969,292.968 L 334.893,293.112 L 334.806,293.301 L 334.334,293.974 L 334.252,294.083 L 334.172,294.198 L 334.127,294.28 L 333.114,296.086 L 332.28,297.586 L 331.886,298.268 L 331.23,299.647 L 330.639,300.87 L 330.507,301.167 L 330.381,301.502 L 330.253,301.882 L 330.08,302.649 L 329.98,303.827 L 329.946,304.206 L 329.905,304.455 L 329.882,304.717 L 329.867,305.128 L 329.837,306.568 L 329.824,306.813 L 329.851,307.429 L 328.812,307.398 L 327.599,307.321 L 325.603,307.173 L 322.474,306.997 L 321.615,306.934 L 306.555,305.048 L 302.912,305.005 L 302.564,304.994 L 302.911,304.29 L 303.094,303.522 L 303.059,302.533 L 303.336,301.114 L 303.51,300.559 L 303.885,299.763 L 304.287,298.579 L 304.421,297.31 L 304.315,295.515 L 304.883,292.433 L 304.722,292.3 L 304.946,289.914 L 305.047,289.466 L 305.792,287.532 L 306.052,286.397 L 306.411,285.622 L 307.329,283.073 L 307.545,282.527 L 307.708,282.285 L 307.773,281.694 L 307.907,281.395 L 307.972,281.403 L 308.082,281.418 L 308.158,281.431 L 308.22,281.398 L 308.334,281.402 L 308.431,281.37 L 308.486,281.347 L 308.587,281.305 L 308.67,281.257 L 308.786,281.252 L 308.895,281.224 L 308.972,281.203 L 309.037,281.204 L 309.1,281.199 L 309.173,281.2 L 309.257,281.205 L 309.33,281.208 L 309.393,281.209 L 309.474,281.208 L 309.533,281.199 L 309.602,281.198 L 309.688,281.187 L 309.813,281.171 L 309.881,281.174 L 309.95,281.153 L 310.004,281.13 L 310.067,281.117 L 310.136,281.097 L 310.193,281.076 L 310.284,281.059 L 310.365,281.033 L 310.438,281.002 L 310.518,280.964 L 310.595,280.933 L 310.686,280.909 L 310.758,280.904 L 310.855,280.927 L 310.925,280.965 L 310.987,281.033 L 311.02,281.084 L 311.066,281.164 L 311.088,281.286 L 311.09,281.387 L 311.096,281.499 L 311.127,281.578 L 311.177,281.652 L 311.203,281.735 L 311.2,281.795 L 311.195,281.888 L 311.184,281.979 L 311.204,282.069 L 311.218,282.211 L 311.211,282.325 L 311.209,282.438 L 311.206,282.504 L 311.203,282.571 L 311.194,282.636 L 311.182,282.707 L 311.179,282.772 L 311.181,282.872 L 311.194,282.951 L 311.234,283.025 L 311.277,283.084 L 311.329,283.138 L 311.397,283.172 L 311.509,283.18 L 311.573,283.143 L 311.654,283.127 L 311.73,283.126 L 311.828,283.162 L 311.956,283.19 L 312.05,283.208 L 312.124,283.237 L 312.191,283.26 L 312.271,283.282 L 312.379,283.3 L 312.469,283.344 L 312.537,283.377 L 312.601,283.438 L 312.652,283.471 L 312.701,283.516 L 312.753,283.572 L 312.801,283.642 L 312.832,283.697 L 312.863,283.749 L 312.904,283.862 L 312.93,283.955 L 312.957,284.02 L 312.98,284.089 L 313.012,284.16 L 313.056,284.256 L 313.1,284.311 L 313.141,284.365 L 313.188,284.409 L 313.277,284.511 L 313.323,284.563 L 313.368,284.63 L 313.396,284.694 L 313.433,284.761 L 313.484,284.87 L 313.501,284.931 L 313.551,285.036 L 313.583,285.092 L 313.616,285.143 L 313.645,285.197 L 313.703,285.259 L 313.757,285.327 L 313.833,285.41 L 313.924,285.476 L 313.98,285.546 L 314.058,285.604 L 314.12,285.672 L 314.227,285.772 L 314.273,285.83 L 314.318,285.887 L 314.359,285.929 L 314.42,286.001 L 314.5,286.103 L 314.542,286.152 L 314.579,286.198 L 314.621,286.264 L 314.654,286.316 L 314.687,286.381 L 314.735,286.48 L 314.769,286.528 L 314.819,286.633 L 314.874,286.744 L 314.895,286.807 L 314.935,286.912 L 314.944,286.975 L 314.959,287.048 L 314.997,287.133 L 315.004,287.211 L 315.005,287.279 L 315.009,287.36 L 315.024,287.441 L 315.03,287.553 L 315.06,287.692 L 315.107,287.813 L 315.143,287.908 L 315.182,287.967 L 315.226,288.031 L 315.301,288.15 L 315.373,288.246 L 315.443,288.327 L 315.51,288.419 L 315.566,288.488 L 315.62,288.55 L 315.698,288.624 L 315.739,288.67 L 315.781,288.712 L 315.871,288.766 L 315.955,288.818 L 316.057,288.848 L 316.126,288.86 L 316.193,288.861 L 316.293,288.833 L 316.349,288.804 L 316.404,288.768 L 316.45,288.699 L 316.49,288.654 L 316.515,288.592 L 316.55,288.48 L 316.577,288.376 L 316.586,288.303 L 316.577,288.207 L 316.565,288.086 L 316.554,288.023 L 316.545,287.966 L 316.517,287.849 L 316.513,287.776 L 316.506,287.701 L 316.497,287.626 L 316.493,287.518 L 316.49,287.418 L 316.498,287.304 L 316.491,287.242 L 316.489,287.179 L 316.494,287.104 L 316.499,287.032 L 316.523,286.906 L 316.542,286.774 L 316.578,286.625 L 316.636,286.421 L 316.675,286.27 L 316.716,286.146 L 316.759,286.017 L 316.806,285.919 L 316.831,285.819 L 316.872,285.733 L 316.92,285.619 L 316.967,285.496 L 317.031,285.329 L 317.115,285.171 L 317.198,285.02 L 317.264,284.926 L 317.311,284.854 L 317.391,284.768 L 317.454,284.714 L 317.554,284.633 L 317.635,284.583 L 317.722,284.531 L 317.802,284.496 L 317.881,284.478 L 317.942,284.453 L 318.019,284.442 L 318.122,284.404 L 318.236,284.366 L 318.396,284.313 L 318.475,284.281 L 318.62,284.233 L 318.754,284.217 L 318.858,284.213 L 319.01,284.191 L 319.081,284.176 L 319.19,284.115 L 319.279,284.059 L 319.339,284.024 L 319.448,283.963 L 319.576,283.913 L 319.638,283.89 L 319.703,283.881 L 319.778,283.859 L 319.904,283.835 L 319.961,283.824 L 320.032,283.813 L 320.105,283.814 L 320.18,283.801 L 320.282,283.806 L 320.349,283.805 L 320.507,283.778 L 320.564,283.741 L 320.628,283.718 L 320.695,283.707 L 320.781,283.709 L 320.854,283.708 L 320.913,283.712 L 321.035,283.722 L 321.1,283.727 L 321.188,283.718 L 321.247,283.705 L 321.36,283.695 L 321.586,283.708 L 321.775,283.712 L 321.875,283.733 L 321.957,283.76 L 322.053,283.785 L 322.139,283.827 L 322.219,283.86 L 322.327,283.887 L 322.417,283.892 L 322.502,283.877 L 322.716,283.799 L 322.775,283.779 L 322.828,283.754 L 322.888,283.719 L 322.977,283.671 L 323.041,283.628 L 323.1,283.606 L 323.161,283.573 L 323.245,283.541 L 323.324,283.506 L 323.377,283.481 L 323.472,283.443 L 323.565,283.423 L 323.632,283.414 L 323.732,283.409 L 323.844,283.407 L 323.929,283.41 L 324.015,283.437 L 324.101,283.461 L 324.197,283.508 L 324.263,283.576 L 324.309,283.657 L 324.345,283.77 L 324.369,283.857 L 324.395,283.956 L 324.433,284.045 L 324.456,284.106 L 324.481,284.177 L 324.523,284.257 L 324.551,284.332 L 324.556,284.409 L 324.544,284.475 L 324.529,284.546 L 324.508,284.611 L 324.48,284.681 L 324.437,284.765 L 324.453,284.87 L 324.452,284.97 L 324.412,285.041 L 324.317,285.077 L 324.247,285.113 L 324.225,285.176 L 324.216,285.253 L 324.228,285.338 L 324.256,285.458 L 324.279,285.545 L 324.33,285.67 L 324.364,285.761 L 324.389,285.824 L 324.417,285.901 L 324.438,285.965 L 324.452,286.089 L 324.471,286.166 L 324.505,286.229 L 324.533,286.326 L 324.564,286.399 L 324.621,286.487 L 324.671,286.578 L 324.72,286.648 L 324.814,286.751 L 324.865,286.789 L 324.937,286.844 L 325.044,286.918 L 325.116,286.968 L 325.181,286.977 L 325.271,287.039 L 325.341,287.06 L 325.478,287.152 L 325.581,287.222 L 325.651,287.272 L 325.717,287.317 L 325.782,287.363 L 325.873,287.406 L 326.542,287.749 L 326.671,287.782 L 326.755,287.811 L 326.842,287.838 L 326.94,287.85 L 327.031,287.861 L 327.108,287.876 L 327.203,287.889 L 327.282,287.9 L 327.364,287.905 L 327.447,287.91 L 327.566,287.911 L 327.638,287.904 L 327.73,287.895 L 327.818,287.888 L 327.933,287.89 L 328.027,287.877 L 328.147,287.869 L 328.284,287.868 L 328.349,287.875 L 328.415,287.885 L 328.543,287.887 L 328.616,287.88 L 328.677,287.851 L 328.75,287.813 L 328.796,287.772 L 328.904,287.708 L 328.95,287.667 L 329.023,287.631 L 329.132,287.589 L 329.213,287.554 L 329.285,287.561 L 329.354,287.552 L 329.429,287.545 L 329.545,287.539 L 329.665,287.538 L 329.75,287.551 L 329.828,287.542 L 329.932,287.586 L 330.014,287.605 L 330.105,287.628 L 330.201,287.662 L 330.32,287.709 L 330.442,287.755 L 330.555,287.81 L 330.692,287.868 L 330.792,287.913 L 330.911,287.975 L 330.966,288.025 L 331.032,288.069 L 331.165,288.161 L 331.213,288.203 L 331.266,288.245 L 331.317,288.279 L 331.377,288.317 L 331.436,288.351 L 331.502,288.391 L 331.588,288.433 L 331.674,288.474 L 331.745,288.485 L 331.834,288.482 L 331.921,288.453 L 331.996,288.442 L 332.036,288.36 L 332.043,288.26 L 332.056,288.158 L 332.055,288.055 L 332.043,287.963 L 332.022,287.882 L 332.013,287.823 L 331.981,287.726 L 331.986,287.643 L 332.001,287.541 L 332.021,287.48 L 332.053,287.422 L 332.127,287.352 L 332.173,287.305 L 332.238,287.259 L 332.298,287.218 L 332.361,287.203 L 332.426,287.184 L 332.499,287.171 L 332.566,287.164 L 332.581,287.087 L 332.53,287.018 L 332.46,286.98 L 332.367,286.989 L 332.279,287.007 L 332.222,286.965 L 332.217,286.896 L 332.222,286.816 L 332.239,286.72 L 332.248,286.637 L 332.266,286.557 L 332.299,286.469 L 332.333,286.406 L 332.365,286.328 L 332.404,286.253 L 332.454,286.181 L 332.516,286.079 L 332.602,285.97 L 332.676,285.914 L 332.733,285.879 L 332.8,285.853 L 332.903,285.834 L 332.993,285.835 L 333.1,285.815 L 333.159,285.813 L 333.226,285.816 L 333.294,285.843 L 333.359,285.851 L 333.434,285.864 L 333.5,285.876 L 333.567,285.905 L 333.643,285.933 L 333.724,285.963 L 333.81,286.016 L 333.983,286.138 L 334.062,286.174 L 334.122,286.218 L 334.175,286.252 L 334.247,286.282 L 334.296,286.322 L 334.349,286.348 L 334.451,286.371 L 334.545,286.376 L 334.622,286.363 L 334.681,286.342 L 334.764,286.314 L 334.871,286.27 L 334.927,286.235 L 335.012,286.179 L 335.056,286.138 L 335.12,286.06"
       id="path15763"
       style="fill-rule:evenodd" />
   </g>
</svg>