<svg
   xmlns:svg="http://www.w3.org/2000/svg"
   xmlns="http://www.w3.org/2000/svg"
   version="1.0"
   width="2100"
   height="1300"
   viewBox="0 0 2100 1300"
   id="svg14921">
   <g
     transform="matrix(2.2640019,0,0,2.2640019,-216.71416,-21.6991)"
     id="g14955"
     style="font-size:16.25px;font-style:normal;font-weight:400;fill:#fefee9;fill-opacity:1;fill-rule:evenodd;stroke:#000000;stroke-width:0.0984252;stroke-linecap:square;stroke-linejoin:bevel;stroke-opacity:1;font-family:Lucida Grande">

   </g>    <path
       name="andover" d="M 693.222,80.0038 L 694.094,87.124 L 702.798,85.0726 L 707.048,86.749 L 708.499,87.5503 L 709.59,89.5303 L 717.982,104.501 L 721.968,111.687 L 709.695,113.166 L 706.932,113.521 L 705.426,112.105 L 704.926,111.823 L 704.195,110.267 L 704.062,109.764 L 703.544,108.676 L 702.06,107.955 L 701.534,108.049 L 700.993,108.737 L 700.782,110.573 L 700.474,111.386 L 699.72,112.496 L 699.661,112.603 L 699.407,113.898 L 695.432,110.579 L 695.225,110.348 L 695.141,110.305 L 695.158,110.244 L 695.253,110.222 L 695.359,110.241 L 695.426,110.269 L 695.522,110.266 L 695.541,110.138 L 695.659,110.154 L 695.72,110.181 L 695.76,110.138 L 695.763,110.055 L 695.816,109.998 L 695.893,110.004 L 695.97,110.061 L 695.952,110.173 L 695.996,110.232 L 696.06,110.214 L 696.155,110.166 L 696.17,110.086 L 696.138,109.995 L 696.152,109.912 L 696.175,109.859 L 696.226,109.782 L 696.242,109.717 L 696.236,109.645 L 696.175,109.592 L 696.114,109.558 L 696.041,109.533 L 695.947,109.465 L 695.958,109.401 L 696.033,109.354 L 696.135,109.346 L 696.229,109.312 L 696.219,109.247 L 696.18,109.186 L 696.187,109.123 L 696.266,109.098 L 696.287,109.031 L 696.266,108.966 L 696.21,108.899 L 696.163,108.842 L 696.088,108.734 L 696.131,108.679 L 696.192,108.683 L 696.273,108.682 L 696.334,108.655 L 696.349,108.598 L 696.343,108.527 L 696.335,108.464 L 696.351,108.379 L 696.407,108.32 L 696.484,108.259 L 696.549,108.227 L 696.613,108.202 L 696.712,108.177 L 697.075,108.102 L 697.183,108.074 L 697.299,108.05 L 697.354,108.026 L 697.399,107.988 L 697.401,107.912 L 697.391,107.845 L 697.44,107.77 L 697.467,107.713 L 697.536,107.628 L 697.63,107.606 L 697.716,107.578 L 697.553,107.457 L 693.147,104.599 L 677.85,94.7321 L 676.142,93.6304 L 676.294,93.5308 L 676.452,93.4127 L 676.534,93.3298 L 676.607,93.2529 L 676.85,92.9616 L 676.98,92.802 L 677.112,92.6759 L 677.275,92.53 L 677.517,92.3745 L 677.682,92.3034 L 677.842,92.2637 L 677.97,92.2592 L 678.047,92.2668 L 678.167,92.2937 L 678.373,92.2943 L 678.518,92.2914 L 678.681,92.2726 L 678.865,92.2281 L 679.032,92.1816 L 679.191,92.1175 L 679.355,92.0299 L 679.496,91.9348 L 679.617,91.8296 L 679.705,91.7328 L 679.769,91.6398 L 679.833,91.5215 L 679.898,91.3458 L 679.946,91.2038 L 680.018,90.8431 L 680.08,90.5181 L 680.144,90.319 L 680.304,90.0229 L 680.425,89.8137 L 680.576,89.5867 L 680.705,89.3912 L 680.818,89.263 L 680.994,89.1049 L 681.128,88.9786 L 681.201,88.9155 L 681.356,88.789 L 681.5,88.6155 L 681.74,88.3235 L 682.934,86.3614 L 683.112,86.0122 L 683.237,85.7263 L 683.398,85.2928 L 683.557,84.8258 L 683.764,84.213 L 683.87,83.7479 L 683.901,83.5827 L 683.932,83.4074 L 683.95,83.1201 L 683.961,82.8091 L 684.075,81.1142 L 684.122,80.9409 L 684.215,80.7437 L 684.34,80.5091 L 684.944,79.444 L 685.156,79.1126 L 685.258,78.9942 L 685.335,78.9152 L 685.454,78.8281 L 685.621,78.7192 L 685.752,78.6301 L 685.944,78.5546 L 686.195,78.4866 L 686.421,78.4325 L 686.57,78.4102 L 686.757,78.4075 L 686.945,78.4147 L 687.116,78.4337 L 687.299,78.4684 L 687.694,78.579 L 689.412,79.1314 L 689.778,79.2164 L 690.125,79.2664 L 690.445,79.2852 L 691.545,79.352 L 691.754,79.383 L 692.009,79.4568 L 692.217,79.5228 L 692.412,79.599 L 692.66,79.7082 L 692.823,79.7921 L 692.959,79.8624 L 693.222,80.0038"
       id="path15079"
       style="fill-rule:evenodd" />
</svg>