<svg
   xmlns:svg="http://www.w3.org/2000/svg"
   xmlns="http://www.w3.org/2000/svg"
   version="1.0"
   width="2100"
   height="1300"
   viewBox="0 0 2100 1300"
   id="svg14921">
   <g
     transform="matrix(2.2640019,0,0,2.2640019,-216.71416,-21.6991)"
     id="g14955"
     style="font-size:16.25px;font-style:normal;font-weight:400;fill:#fefee9;fill-opacity:1;fill-rule:evenodd;stroke:#000000;stroke-width:0.0984252;stroke-linecap:square;stroke-linejoin:bevel;stroke-opacity:1;font-family:Lucida Grande">
    <path 
      name="ashburnham" d="M 512.948,74.8035 L 513.353,77.4151 L 519.053,83.1674 L 520.261,84.3759 L 521.291,84.2145 L 521.795,85.7951 L 521.709,85.8011 L 523.308,87.3851 L 523.644,89.9086 L 523.1,101.557 L 523.025,103.188 L 520.476,104.554 L 518.987,105.311 L 517.084,106.308 L 517.444,107.198 L 516.662,107.533 L 516.808,107.891 L 514.498,108.854 L 514.311,108.408 L 513.513,108.759 L 513.679,109.14 L 509.773,110.819 L 509.589,110.42 L 509.204,110.567 L 509.231,110.425 L 505.358,112.455 L 500.798,114.844 L 499.591,112.495 L 500.066,112.224 L 499.312,110.481 L 499.68,110.293 L 499.223,109.385 L 498.123,109.534 L 493.896,104.404 L 493.209,103.589 L 490.616,103.507 L 490.627,102.709 L 491.963,73.9774 L 505.311,74.5054 L 512.948,74.8035"
       id="path15067"
       style="fill-rule:evenodd" />
   </g>
</svg>