<svg
   xmlns:svg="http://www.w3.org/2000/svg"
   xmlns="http://www.w3.org/2000/svg"
   version="1.0"
   width="2100"
   height="1300"
   viewBox="0 0 2100 1300"
   id="svg14921">
   <g
     transform="matrix(2.2640019,0,0,2.2640019,-216.71416,-21.6991)"
     id="g14955"
     style="font-size:16.25px;font-style:normal;font-weight:400;fill:#fefee9;fill-opacity:1;fill-rule:evenodd;stroke:#000000;stroke-width:0.0984252;stroke-linecap:square;stroke-linejoin:bevel;stroke-opacity:1;font-family:Lucida Grande">
    <path
       name="ashfield" d="M 271.049,124.774 L 289.674,121.92 L 296.217,123.152 L 297.258,123.36 L 300.379,123.948 L 295.926,143.635 L 295.521,145.45 L 292.609,158.069 L 292.092,157.912 L 289.604,157.237 L 289.683,156.81 L 274.912,153.064 L 274.908,153.269 L 268.726,151.587 L 264.845,150.463 L 264.042,144.961 L 264.063,143.787 L 263.945,142.512 L 264.102,141.635 L 264.104,141.53 L 264.105,141.467 L 265.02,136.567 L 264.187,136.191 L 263.96,136.081 L 263.678,134.071 L 263.696,130.81 L 263.73,125.901 L 264.359,125.808 L 271.049,124.774"
       id="path15229"
       style="fill-rule:evenodd" />
   </g>
</svg>