<svg
   xmlns:svg="http://www.w3.org/2000/svg"
   xmlns="http://www.w3.org/2000/svg"
   version="1.0"
   width="2100"
   height="1300"
   viewBox="0 0 2100 1300"
   id="svg14921">
   <g
     transform="matrix(2.2640019,0,0,2.2640019,-216.71416,-21.6991)"
     id="g14955"
     style="font-size:16.25px;font-style:normal;font-weight:400;fill:#fefee9;fill-opacity:1;fill-rule:evenodd;stroke:#000000;stroke-width:0.0984252;stroke-linecap:square;stroke-linejoin:bevel;stroke-opacity:1;font-family:Lucida Grande">
    <path
       name="ayer" d="M 611.26,123.938 L 608.896,125.686 L 608.293,127.197 L 608.161,127.298 L 608.026,127.299 L 607.941,127.398 L 607.94,127.494 L 607.958,127.579 L 607.933,127.659 L 607.825,127.729 L 607.76,127.761 L 607.701,127.802 L 607.703,127.875 L 607.645,127.907 L 607.588,127.96 L 607.561,128.039 L 607.492,128.018 L 607.415,128.036 L 607.396,128.148 L 607.314,128.243 L 607.206,128.297 L 607.153,128.342 L 607.139,128.399 L 607.092,128.46 L 607.002,128.508 L 606.935,128.546 L 606.851,128.57 L 606.756,128.57 L 606.69,128.626 L 606.688,128.726 L 606.647,128.809 L 606.159,129.183 L 606.03,129.29 L 605.971,129.32 L 605.898,129.375 L 605.846,129.429 L 605.804,129.476 L 605.74,129.569 L 605.76,129.687 L 603.415,130.499 L 604.295,133.022 L 593.736,130.412 L 590.956,132.532 L 590.044,132.885 L 588.147,132.255 L 586.726,132.191 L 583.627,129.758 L 583.821,129.639 L 584.053,129.576 L 584.232,129.541 L 584.348,129.496 L 584.628,129.42 L 584.898,129.346 L 585.082,129.349 L 585.311,129.348 L 585.47,129.343 L 585.681,129.316 L 585.805,129.316 L 585.883,129.287 L 585.922,129.236 L 585.958,129.173 L 585.977,129.112 L 585.991,129.025 L 585.996,128.947 L 585.974,128.874 L 585.91,128.656 L 585.813,128.458 L 585.745,128.309 L 585.652,127.992 L 585.582,127.713 L 585.566,127.607 L 585.575,127.457 L 585.625,127.335 L 585.968,126.401 L 585.999,126.315 L 586.034,126.261 L 586.093,126.18 L 586.183,126.074 L 586.243,125.995 L 586.334,125.927 L 586.41,125.853 L 586.475,125.781 L 586.52,125.708 L 586.539,125.653 L 586.556,125.584 L 586.562,125.47 L 586.581,125.303 L 586.647,125.2 L 586.726,125.163 L 586.793,125.139 L 586.897,125.101 L 586.972,125.083 L 587.04,125.047 L 587.095,124.964 L 587.094,124.876 L 587.077,124.821 L 587.013,124.762 L 586.95,124.693 L 586.83,124.631 L 585.949,124.238 L 585.884,124.154 L 585.858,124.095 L 585.808,123.963 L 585.73,123.6 L 585.731,123.501 L 585.743,123.407 L 585.744,123.316 L 585.734,123.255 L 585.71,123.196 L 585.643,123.104 L 585.601,123.057 L 585.527,123.032 L 585.458,123.009 L 585.3,122.99 L 585.182,122.939 L 585.156,122.88 L 585.094,122.726 L 585.074,122.649 L 585.048,122.576 L 585.011,122.527 L 584.954,122.484 L 584.896,122.457 L 584.823,122.414 L 584.742,122.34 L 584.677,122.24 L 584.657,122.179 L 584.661,122.116 L 584.698,122.025 L 584.768,121.974 L 584.837,121.946 L 584.922,121.938 L 585.075,121.935 L 585.228,121.902 L 585.255,121.814 L 585.265,121.733 L 585.272,121.578 L 585.301,121.473 L 585.328,121.416 L 585.377,121.363 L 585.457,121.283 L 585.545,121.238 L 585.684,121.182 L 585.939,121.131 L 586.171,121.075 L 586.279,121.009 L 586.327,120.907 L 586.34,120.822 L 586.314,120.651 L 586.275,120.494 L 586.27,120.332 L 586.28,120.222 L 586.306,120.092 L 586.357,119.993 L 586.325,119.866 L 586.441,119.842 L 586.596,119.684 L 586.721,119.518 L 586.809,119.413 L 586.971,119.261 L 587.025,119.21 L 587.11,119.192 L 587.207,119.213 L 587.345,119.301 L 587.448,119.381 L 587.584,119.461 L 587.701,119.515 L 587.807,119.547 L 587.961,119.566 L 588.056,119.557 L 588.126,119.537 L 588.195,119.512 L 588.274,119.47 L 588.339,119.424 L 588.4,119.369 L 588.445,119.308 L 588.494,119.225 L 588.564,119.126 L 588.667,119.246 L 611.26,123.938"
       id="path15223"
       style="fill-rule:evenodd" />
   </g>
</svg>