<svg
   xmlns:svg="http://www.w3.org/2000/svg"
   xmlns="http://www.w3.org/2000/svg"
   version="1.0"
   width="2100"
   height="1300"
   viewBox="0 0 2100 1300"
   id="svg14921">
   <g
     transform="matrix(2.2640019,0,0,2.2640019,-216.71416,-21.6991)"
     id="g14955"
     style="font-size:16.25px;font-style:normal;font-weight:400;fill:#fefee9;fill-opacity:1;fill-rule:evenodd;stroke:#000000;stroke-width:0.0984252;stroke-linecap:square;stroke-linejoin:bevel;stroke-opacity:1;font-family:Lucida Grande">
    <path
       name="barnstable" d="M 933.41,418.339 L 933.512,418.437 L 933.576,418.527 L 933.634,418.614 L 933.667,418.691 L 933.704,418.83 L 933.724,418.975 L 933.753,419.062 L 933.792,419.179 L 933.833,419.293 L 933.886,419.42 L 933.923,419.552 L 933.945,419.695 L 933.957,419.752 L 933.975,420.466 L 934.194,423.509 L 930.659,438.873 L 930.578,438.841 L 930.576,438.717 L 930.668,438.518 L 930.689,438.381 L 930.646,438.054 L 930.492,437.795 L 930.443,437.654 L 930.386,437.553 L 930.23,437.61 L 930.129,437.753 L 929.894,437.803 L 929.863,437.86 L 929.857,437.969 L 929.827,438.066 L 929.772,438.114 L 929.623,438.136 L 929.354,438.086 L 929.324,438.142 L 929.347,438.684 L 929.395,438.717 L 929.489,438.699 L 929.943,438.471 L 930.06,438.44 L 930.164,438.518 L 930.201,438.901 L 930.178,438.989 L 930.101,439.14 L 930.026,439.353 L 930.037,439.597 L 930.078,439.674 L 930.197,439.767 L 930.892,439.908 L 930.91,440.096 L 930.888,440.168 L 930.749,440.374 L 930.568,440.407 L 930.412,440.474 L 930.106,440.588 L 929.787,440.882 L 929.891,440.945 L 929.808,441.245 L 929.815,441.75 L 929.934,442.364 L 930.1,442.958 L 930.205,443.147 L 930.34,443.27 L 931.173,443.667 L 931.174,443.748 L 931.023,444.252 L 930.993,444.308 L 930.929,444.285 L 930.642,444.015 L 930.156,443.635 L 929.966,443.526 L 929.57,443.382 L 928.876,443.282 L 928.79,443.324 L 928.585,443.349 L 928.12,443.279 L 927.371,443.242 L 927.238,443.289 L 927.099,443.464 L 926.997,443.498 L 926.971,443.365 L 926.915,443.302 L 926.474,443.293 L 925.674,443.518 L 924.75,443.867 L 924.461,444.037 L 924.236,444.27 L 924.143,444.434 L 923.983,444.808 L 923.95,445.249 L 923.896,445.368 L 923.253,445.511 L 921.699,445.919 L 921.103,446.116 L 920.775,446.294 L 920.378,446.566 L 919.955,446.761 L 919.853,446.764 L 919.448,446.54 L 919.257,446.363 L 919.102,446.026 L 919.004,445.79 L 918.859,445.534 L 918.61,445.206 L 918.441,444.917 L 918.448,444.854 L 918.574,444.875 L 918.885,445.145 L 919.115,445.229 L 919.354,445.47 L 919.429,445.762 L 919.493,445.847 L 919.611,445.828 L 919.656,445.678 L 919.647,445.591 L 919.487,445.429 L 919.486,445.336 L 919.807,445.212 L 920.143,445.034 L 920.426,444.945 L 920.614,444.909 L 920.788,444.947 L 920.923,445.03 L 921.021,445.291 L 921.199,445.627 L 921.271,445.711 L 921.406,445.757 L 921.555,445.716 L 921.554,445.638 L 921.242,445.325 L 921.194,445.233 L 921.199,445.035 L 921.345,444.813 L 921.344,444.695 L 921.302,444.569 L 921.301,444.467 L 921.199,444.486 L 921.138,444.602 L 921.116,444.761 L 921.03,444.832 L 920.77,444.758 L 920.619,444.673 L 920.563,444.613 L 920.434,444.378 L 920.408,444.261 L 920.462,444.147 L 920.805,443.898 L 920.795,443.765 L 920.548,443.54 L 920.515,443.414 L 920.413,443.448 L 920.062,443.728 L 920.262,443.961 L 920.295,444.047 L 920.234,444.176 L 920,444.328 L 919.78,444.394 L 919.622,444.373 L 919.513,444.42 L 919.435,444.5 L 919.375,444.706 L 919.289,444.771 L 918.873,444.863 L 918.675,444.748 L 918.634,444.678 L 918.838,444.62 L 918.822,444.533 L 918.406,444.099 L 918.343,444.066 L 918.314,444.25 L 918.378,444.372 L 918.382,444.673 L 918.258,444.785 L 918.222,444.991 L 918.127,445.006 L 917.855,444.695 L 917.273,444.178 L 916.82,443.885 L 916.329,443.648 L 915.83,443.464 L 914.218,443.07 L 913.729,443.007 L 913.264,443.005 L 912.753,443.076 L 912.134,443.24 L 910.722,443.684 L 910.205,443.888 L 909.228,444.391 L 908.822,444.664 L 908.488,444.962 L 907.412,446.314 L 907.336,446.472 L 907.33,446.639 L 907.383,447.022 L 907.337,447.16 L 907.162,447.025 L 907.137,446.939 L 907.127,446.75 L 907.071,446.675 L 907.013,446.484 L 907.019,446.35 L 907.183,446.231 L 907.14,446.003 L 907.279,445.757 L 907.798,445.19 L 908.251,444.91 L 908.438,444.74 L 908.569,444.541 L 908.968,444.38 L 909.195,444.243 L 909.381,444.058 L 909.71,443.897 L 909.865,443.743 L 910.045,443.648 L 910.381,443.471 L 910.881,443.186 L 911.161,442.908 L 911.247,442.9 L 911.429,442.975 L 911.626,443.003 L 911.87,442.968 L 912.426,442.778 L 912.511,442.667 L 912.456,442.622 L 912.322,442.648 L 911.907,442.803 L 911.789,442.797 L 911.741,442.749 L 911.747,442.609 L 911.832,442.504 L 912.247,442.35 L 912.34,442.254 L 912.339,442.158 L 912.143,442.194 L 911.838,442.371 L 911.595,442.477 L 911.565,442.531 L 911.584,442.791 L 911.498,442.793 L 911.299,442.7 L 911.063,442.713 L 910.853,442.92 L 910.494,443.139 L 910.144,443.403 L 909.518,443.741 L 909.322,443.768 L 909.21,443.675 L 909.178,443.611 L 909.134,443.29 L 909.078,443.189 L 908.848,443.075 L 908.728,442.942 L 908.661,442.699 L 908.31,442.371 L 908.104,442.266 L 907.817,442.01 L 907.792,441.884 L 907.821,441.772 L 907.825,441.458 L 907.988,441.267 L 908.371,441.095 L 908.607,441.029 L 908.693,440.98 L 908.69,440.769 L 908.95,440.774 L 909.059,440.715 L 909.065,440.612 L 908.789,440.546 L 908.717,440.477 L 908.676,440.366 L 908.612,440.272 L 908.155,440.242 L 908.059,440.149 L 908.026,440.06 L 907.891,440.002 L 907.76,440.167 L 907.738,440.326 L 907.779,440.42 L 907.789,440.6 L 907.698,440.845 L 907.444,441.252 L 907.366,441.267 L 907.214,441.129 L 907.181,441.033 L 906.996,440.769 L 906.878,440.717 L 906.864,440.872 L 906.889,440.974 L 907.01,441.169 L 907.449,441.581 L 907.513,441.684 L 907.507,441.824 L 907.454,441.928 L 907.455,442.046 L 907.527,442.124 L 907.63,442.177 L 907.718,442.286 L 907.949,442.466 L 908.306,442.61 L 908.388,442.89 L 908.604,443.126 L 908.702,443.352 L 908.765,443.391 L 908.939,443.41 L 908.987,443.511 L 909.014,443.703 L 908.96,443.813 L 908.736,444.068 L 908.541,444.204 L 907.584,445.06 L 907.336,445.346 L 907.064,445.602 L 906.642,445.844 L 905.942,445.911 L 905.801,445.974 L 905.469,446.436 L 905.301,446.77 L 905.176,446.882 L 905.177,446.969 L 905.257,447.053 L 905.394,447.3 L 905.569,447.447 L 906.053,447.731 L 906.181,447.848 L 906.206,447.934 L 906.262,447.995 L 906.506,448.031 L 906.632,447.999 L 906.78,447.902 L 906.896,447.744 L 906.949,447.609 L 906.993,447.362 L 907.039,447.283 L 907.126,447.321 L 907.501,447.648 L 906.96,448.34 L 906.652,448.91 L 906.57,449.211 L 906.556,449.354 L 906.411,449.646 L 906.397,449.78 L 906.104,450.22 L 905.956,450.329 L 905.941,450.386 L 905.614,450.681 L 905.458,450.763 L 905.388,450.851 L 905.294,450.882 L 904.888,451.108 L 904.614,451.252 L 904.559,451.316 L 903.723,451.809 L 903.37,451.962 L 903.214,452.013 L 902.391,452.344 L 901.695,452.699 L 900.362,453.172 L 899.514,453.364 L 898.594,453.493 L 898.375,453.568 L 898.21,453.594 L 898.215,453.43 L 898.253,453.271 L 898.345,453.082 L 898.383,452.954 L 898.372,452.74 L 898.291,452.547 L 898.298,452.475 L 898.376,452.417 L 898.894,452.309 L 899.066,452.199 L 899.089,452.142 L 899.095,451.999 L 899.047,451.923 L 899.053,451.765 L 899.244,451.313 L 899.318,450.957 L 899.308,450.778 L 899.21,450.495 L 899.097,450.291 L 898.991,449.987 L 898.886,449.776 L 898.861,449.655 L 898.995,449.68 L 899.131,449.827 L 899.188,449.975 L 899.197,450.071 L 899.293,450.195 L 899.657,450.33 L 899.768,450.407 L 900.095,450.751 L 900.263,450.892 L 900.271,450.979 L 900.551,451.327 L 900.774,451.513 L 900.793,451.758 L 900.899,452.049 L 900.957,452.277 L 901.061,452.426 L 901.155,452.408 L 901.184,452.171 L 901.23,452.021 L 901.186,451.715 L 901.113,451.55 L 900.969,451.34 L 900.339,450.71 L 900.212,450.649 L 900.227,450.562 L 900.482,450.173 L 900.551,450.022 L 900.588,449.841 L 900.577,449.596 L 900.469,449.171 L 900.36,448.644 L 900.279,448.467 L 900.175,448.333 L 900.104,448.286 L 899.735,448.402 L 899.554,448.389 L 899.467,448.351 L 899.274,448.052 L 899.287,447.863 L 899.356,447.675 L 899.519,447.45 L 899.612,447.388 L 899.84,447.304 L 899.909,447.187 L 899.933,447.128 L 899.93,446.908 L 899.89,446.828 L 899.762,446.674 L 899.212,446.129 L 899.083,445.925 L 899.017,445.65 L 898.839,445.33 L 898.956,445.202 L 898.979,445.131 L 898.97,445.053 L 898.779,444.873 L 898.612,444.766 L 898.452,444.572 L 898.325,444.486 L 898.246,444.51 L 898.242,444.746 L 898.317,445.085 L 898.255,445.195 L 898.096,445.048 L 897.734,444.447 L 897.732,444.289 L 897.794,444.216 L 897.857,444.217 L 897.929,444.318 L 898.055,444.308 L 898.133,444.253 L 898.139,444.125 L 898.036,444.026 L 897.704,443.927 L 897.625,443.967 L 897.612,444.156 L 897.479,444.173 L 897.367,444.074 L 897.268,443.71 L 897.275,443.642 L 897.345,443.538 L 897.699,443.565 L 897.803,443.683 L 897.952,443.616 L 897.981,443.466 L 897.985,443.134 L 897.943,442.909 L 897.642,442.779 L 897.564,442.803 L 897.533,442.875 L 897.523,443.291 L 897.476,443.363 L 897.398,443.403 L 897.083,443.369 L 896.885,443.284 L 896.725,443.137 L 896.723,442.97 L 896.823,442.725 L 896.918,442.756 L 897.013,442.84 L 897.115,442.84 L 897.091,442.745 L 896.979,442.606 L 896.985,442.503 L 897.039,442.424 L 897.275,442.343 L 897.321,442.301 L 897.344,442.223 L 897.327,442.081 L 897.269,441.924 L 897.167,441.887 L 896.986,441.911 L 896.874,441.781 L 896.672,441.349 L 896.631,441.233 L 896.644,441.074 L 896.814,440.725 L 896.95,440.321 L 897.112,440.059 L 897.199,440.065 L 897.595,440.212 L 897.681,440.188 L 897.827,439.942 L 897.936,439.861 L 897.927,439.713 L 897.887,439.658 L 897.699,439.728 L 897.564,439.621 L 897.493,439.629 L 897.479,439.834 L 897.449,439.916 L 897.173,439.871 L 896.905,439.897 L 896.857,439.834 L 896.873,439.771 L 897.092,439.7 L 897.139,439.642 L 897.121,439.525 L 897.105,439.445 L 896.993,439.33 L 896.911,439.047 L 896.917,438.92 L 896.758,438.835 L 896.641,438.869 L 896.545,439.436 L 896.649,439.499 L 896.658,439.61 L 896.635,439.679 L 896.455,439.777 L 896.464,439.879 L 896.576,440.012 L 896.577,440.115 L 896.432,440.448 L 896.315,440.541 L 896.147,440.347 L 895.965,440.257 L 895.728,440.189 L 895.714,440.323 L 895.691,440.376 L 895.321,440.39 L 895.219,440.421 L 895.125,440.486 L 895.056,440.612 L 894.858,441.182 L 894.829,441.347 L 894.599,441.825 L 894.593,441.996 L 894.649,442.066 L 894.879,442.174 L 895.17,442.187 L 895.248,442.147 L 895.311,442.068 L 895.321,441.649 L 895.428,441.373 L 895.426,441.255 L 895.486,441.024 L 895.665,440.827 L 895.806,440.77 L 895.947,440.744 L 896.05,440.775 L 896.114,440.829 L 896.179,441.01 L 896.284,441.196 L 896.46,441.399 L 896.492,441.494 L 896.503,441.699 L 896.559,441.824 L 896.792,442.152 L 896.808,442.223 L 896.786,442.276 L 896.543,442.367 L 896.563,442.72 L 896.379,443.156 L 896.294,443.227 L 895.908,443.288 L 895.336,443.46 L 895.164,443.604 L 895.072,443.771 L 895.004,443.969 L 894.982,444.174 L 895.018,444.52 L 895.202,444.723 L 895.448,444.892 L 895.584,445.025 L 895.624,445.141 L 895.612,445.409 L 895.526,445.427 L 894.894,445.299 L 894.8,445.358 L 894.747,445.499 L 894.736,445.924 L 894.714,446.037 L 894.308,446.299 L 894.098,446.476 L 893.855,446.604 L 893.643,446.638 L 893.39,446.587 L 893.257,446.588 L 892.622,446.817 L 892.449,446.899 L 892.192,447.09 L 892.068,447.227 L 891.951,447.444 L 891.922,447.609 L 891.972,447.813 L 892.037,448.009 L 891.983,448.073 L 891.647,448.266 L 891.017,448.321 L 890.625,448.404 L 890.045,448.632 L 889.897,448.738 L 889.804,448.871 L 889.798,449.07 L 889.928,449.321 L 890.005,449.901 L 889.968,450.042 L 889.796,450.18 L 889.758,450.284 L 889.696,450.338 L 889.484,450.419 L 889.415,450.514 L 889.364,450.838 L 889.378,451.312 L 889.466,451.468 L 889.673,451.654 L 889.903,451.793 L 890.623,452.004 L 890.718,452.098 L 890.719,452.175 L 890.618,452.24 L 890.351,452.347 L 889.887,452.342 L 889.644,452.473 L 889.481,452.633 L 889.435,452.727 L 889.294,452.846 L 888.939,453.356 L 888.809,453.704 L 888.721,454.2 L 888.311,454.835 L 888.14,454.98 L 887.97,455.251 L 887.795,456.354 L 887.69,456.813 L 887.606,456.986 L 887.472,456.996 L 887.392,456.912 L 887.391,456.84 L 887.577,456.531 L 887.622,456.381 L 887.657,455.995 L 887.574,455.697 L 887.518,455.658 L 887.432,455.642 L 887.369,455.666 L 887.3,455.795 L 887.243,456.314 L 887.12,456.566 L 887.037,456.829 L 887.041,457.127 L 886.906,457.71 L 886.868,457.783 L 886.821,458.485 L 886.722,458.755 L 886.327,459.256 L 886.077,459.446 L 885.983,459.486 L 885.774,459.725 L 885.688,459.749 L 885.468,459.793 L 884.882,460.17 L 884.749,460.226 L 884.606,460.206 L 884.447,460.074 L 884.311,459.839 L 884.213,459.603 L 884.106,459.188 L 884.157,458.857 L 884.269,458.429 L 884.31,457.916 L 884.363,457.735 L 884.479,457.555 L 884.707,457.557 L 884.777,457.462 L 884.799,457.375 L 884.695,457.189 L 884.733,457.06 L 884.841,456.918 L 884.856,456.831 L 884.86,456.564 L 884.818,456.36 L 884.762,456.235 L 884.771,455.748 L 884.636,455.606 L 884.611,455.498 L 884.467,455.35 L 884.396,455.334 L 884.333,455.357 L 884.342,455.437 L 884.384,455.632 L 884.254,455.933 L 884.263,456.02 L 884.336,456.17 L 884.353,456.303 L 884.284,456.444 L 884.285,456.525 L 884.372,456.578 L 884.602,456.646 L 884.634,456.701 L 884.564,456.765 L 884.368,456.9 L 884.38,457.161 L 884.185,457.353 L 883.827,457.05 L 883.494,456.864 L 883.336,456.828 L 883.242,456.853 L 883.103,457.052 L 882.907,457.188 L 882.672,457.245 L 882.412,457.249 L 882.317,457.196 L 882.117,456.96 L 882.17,456.788 L 882.31,456.675 L 882.623,456.499 L 882.724,456.356 L 882.705,456.133 L 882.657,456.026 L 882.505,455.876 L 882.335,455.487 L 882.341,455.344 L 882.441,455.177 L 882.479,455.036 L 882.483,454.782 L 882.568,454.599 L 882.603,454.279 L 882.724,453.844 L 882.817,453.714 L 882.958,453.707 L 883.203,453.75 L 883.478,453.707 L 883.588,453.658 L 883.658,453.578 L 883.68,453.484 L 883.693,453.264 L 883.825,453.111 L 883.84,453.049 L 883.843,452.67 L 883.865,452.53 L 883.934,452.426 L 884.036,452.339 L 884.429,452.303 L 884.602,452.245 L 884.695,452.165 L 884.771,451.958 L 884.712,450.998 L 884.742,450.904 L 884.869,450.926 L 884.971,450.895 L 885.079,450.743 L 885.202,450.482 L 885.252,450.337 L 885.271,450.243 L 885.296,450.16 L 885.306,450.073 L 885.306,450.012 L 885.311,449.939 L 885.31,449.864 L 885.299,449.793 L 885.26,449.64 L 885.255,449.56 L 885.294,449.484 L 885.38,449.418 L 885.457,449.344 L 885.498,449.261 L 885.499,449.159 L 885.46,449.017 L 885.445,448.941 L 885.47,448.872 L 885.526,448.81 L 885.602,448.752 L 885.67,448.672 L 885.683,448.611 L 885.686,448.542 L 885.681,448.432 L 885.647,448.336 L 885.661,448.243 L 885.678,448.164 L 885.65,448.107 L 885.615,448.019 L 885.616,447.919 L 885.592,447.854 L 885.536,447.774 L 885.482,447.674 L 885.429,447.6 L 885.407,447.518 L 885.384,447.429 L 885.341,447.286 L 885.344,447.223 L 885.336,447.162 L 885.303,447.086 L 885.253,446.996 L 885.203,446.892 L 885.153,446.796 L 885.146,446.71 L 885.15,446.56 L 885.172,446.448 L 885.171,446.351 L 885.156,446.241 L 885.135,446.125 L 885.112,446.055 L 885.056,445.965 L 885.016,445.918 L 884.986,445.841 L 884.951,445.684 L 884.957,445.588 L 884.978,445.528 L 884.997,445.471 L 885.006,445.371 L 884.991,445.29 L 884.945,445.157 L 884.93,445.094 L 884.933,444.989 L 884.923,444.858 L 884.873,444.801 L 884.806,444.739 L 884.756,444.688 L 884.727,444.596 L 884.715,444.329 L 884.687,444.008 L 884.615,443.903 L 884.541,443.919 L 884.413,443.958 L 883.831,444.158 L 883.786,444.011 L 883.738,443.929 L 883.353,444.168 L 883.184,444.263 L 883.03,444.343 L 882.838,444.428 L 882.664,444.493 L 882.639,444.407 L 881.543,444.743 L 881.489,444.705 L 881.378,444.641 L 881.309,444.593 L 881.267,444.55 L 881.213,444.495 L 881.167,444.441 L 881.115,444.398 L 880.8,444.205 L 881.118,443.27 L 883.132,443.102 L 884.062,442.561 L 884.221,442.511 L 884.312,442.524 L 884.393,442.547 L 884.65,442.624 L 884.531,442.088 L 884.503,442.016 L 884.48,441.929 L 884.502,441.752 L 884.494,441.604 L 884.871,441.364 L 886.162,438.627 L 884.973,436.397 L 882.943,433.962 L 883.675,432.981 L 902.098,407.618 L 902.708,407.705 L 904.129,407.94 L 904.358,408.017 L 904.469,408.039 L 907.299,408.229 L 909.026,408.454 L 910.224,408.5 L 910.815,408.557 L 911.344,408.644 L 913.77,408.657 L 914.479,408.733 L 916.117,408.719 L 918.323,408.775 L 922.647,408.872 L 923.467,408.923 L 924.324,408.848 L 924.624,408.908 L 924.925,409.029 L 925.904,409.18 L 926.094,409.256 L 926.506,409.486 L 926.722,409.687 L 926.754,409.757 L 926.724,409.823 L 926.614,409.848 L 926.422,409.646 L 926.327,409.599 L 926.177,409.601 L 925.971,409.541 L 925.957,409.613 L 926.061,409.722 L 926.466,409.967 L 926.592,409.988 L 926.76,410.216 L 927.382,410.694 L 927.786,410.909 L 929.076,411.38 L 929.528,411.602 L 929.894,411.824 L 930.005,411.936 L 930.263,412.325 L 930.281,412.489 L 930.243,412.623 L 930.158,412.728 L 929.728,412.924 L 929.423,413.1 L 929.195,413.141 L 928.858,413.265 L 928.457,413.277 L 928.251,413.187 L 928.084,413.055 L 927.78,412.705 L 927.589,412.574 L 927.533,412.504 L 927.371,412.223 L 927.381,411.789 L 927.26,411.578 L 927.18,411.516 L 927.086,411.534 L 926.93,411.631 L 926.829,411.759 L 926.604,411.973 L 926.408,412.006 L 926.409,412.109 L 926.465,412.172 L 926.466,412.259 L 926.124,412.579 L 926.009,412.762 L 925.986,412.856 L 925.931,413.376 L 925.893,413.51 L 925.824,413.608 L 925.478,413.683 L 925.281,413.677 L 924.957,413.541 L 924.554,413.466 L 924.537,413.364 L 924.261,413.338 L 924.031,413.245 L 923.887,413.082 L 923.758,412.84 L 923.238,412.288 L 922.986,412.252 L 923.01,412.323 L 923.114,412.441 L 923.212,412.652 L 923.492,412.969 L 923.556,413.088 L 923.574,413.237 L 923.622,413.307 L 923.75,413.399 L 923.846,413.523 L 923.848,413.691 L 923.943,413.728 L 924.242,413.685 L 924.369,413.778 L 924.402,413.833 L 924.411,413.935 L 924.333,414.005 L 924.058,414.057 L 923.908,414.021 L 923.302,414.051 L 923.034,414.025 L 922.843,413.916 L 922.568,413.905 L 922.37,413.842 L 922.116,413.689 L 921.94,413.535 L 921.812,413.393 L 921.658,413.02 L 921.575,412.712 L 921.527,412.667 L 921.518,412.58 L 921.453,412.486 L 921.452,412.424 L 921.275,412.088 L 921.233,411.953 L 921.034,411.77 L 920.819,411.636 L 920.693,411.59 L 920.37,411.581 L 920.038,411.498 L 919.849,411.5 L 919.771,411.558 L 919.632,411.733 L 919.334,411.863 L 918.94,411.812 L 918.79,411.761 L 918.783,411.885 L 918.784,411.956 L 918.714,412.02 L 918.307,412.175 L 918.04,412.204 L 917.995,412.386 L 917.68,412.404 L 916.679,412.284 L 916.457,412.226 L 916.354,412.133 L 916.319,411.904 L 916.113,411.798 L 916.11,411.631 L 915.952,411.549 L 915.584,411.16 L 915.497,411.106 L 915.3,411.14 L 915.27,411.234 L 915.461,411.328 L 915.54,411.396 L 915.621,411.521 L 915.836,411.714 L 915.909,411.848 L 916.06,411.98 L 916.206,412.245 L 916.2,412.404 L 916.091,412.506 L 915.69,412.574 L 915.289,412.613 L 914.572,412.566 L 914.203,412.611 L 913.771,412.713 L 913.199,412.895 L 912.75,412.914 L 912.467,412.903 L 912.067,413.027 L 911.681,413.057 L 911.342,412.998 L 911.033,412.893 L 910.819,412.753 L 910.713,412.502 L 910.707,412.093 L 910.456,411.57 L 910.445,411.403 L 909.913,411.058 L 909.739,410.989 L 909.565,410.951 L 909.148,410.95 L 909.046,410.975 L 908.819,411.103 L 908.307,411.623 L 908.106,411.887 L 908.044,412.012 L 907.975,412.086 L 907.889,412.125 L 907.739,412.136 L 907.194,411.978 L 907.027,411.878 L 906.901,411.909 L 906.707,412.116 L 906.41,412.286 L 906.292,412.281 L 906.11,412.19 L 905.67,411.747 L 905.512,411.671 L 905.354,411.647 L 905.158,411.69 L 904.955,411.795 L 904.821,411.83 L 904.868,412.387 L 904.963,412.419 L 905.033,412.324 L 905.115,412.029 L 905.255,411.886 L 905.381,411.851 L 905.531,411.875 L 905.65,411.952 L 905.883,412.28 L 906.074,412.426 L 906.264,412.486 L 906.413,412.485 L 906.945,412.249 L 907.118,412.232 L 907.19,412.285 L 907.222,412.362 L 907.302,412.409 L 908.011,412.463 L 908.317,412.355 L 908.568,412.313 L 908.755,412.159 L 908.91,411.937 L 909.101,411.572 L 909.155,411.493 L 909.312,411.467 L 909.432,411.553 L 909.521,411.715 L 909.554,411.835 L 909.555,411.922 L 909.703,412.336 L 909.913,412.742 L 910.186,413.11 L 910.979,414.066 L 911.066,414.104 L 911.168,414.111 L 911.466,414.003 L 911.843,413.961 L 912.153,414.153 L 912.162,414.246 L 911.819,414.473 L 911.5,414.758 L 911.073,415.208 L 910.769,415.431 L 910.573,415.449 L 910.303,415.336 L 910.025,415.096 L 909.803,415.003 L 909.692,414.997 L 909.056,415.099 L 908.378,415.023 L 908.292,415.063 L 908.175,415.184 L 908.153,415.303 L 908.241,415.35 L 908.373,415.228 L 908.624,415.193 L 909.043,415.314 L 909.209,415.328 L 909.617,415.25 L 909.806,415.248 L 910.03,415.511 L 910.16,415.787 L 910.224,415.831 L 910.294,415.808 L 910.411,415.68 L 910.821,415.721 L 911.143,415.662 L 911.3,415.614 L 911.495,415.493 L 911.837,415.22 L 911.892,415.141 L 911.959,414.909 L 912.253,414.513 L 912.37,414.432 L 912.614,414.422 L 912.985,414.504 L 913.049,414.558 L 913.058,414.651 L 912.633,414.666 L 912.452,414.706 L 912.281,414.875 L 912.276,415.08 L 912.193,415.278 L 912.14,415.468 L 912.143,415.657 L 912.184,415.79 L 912.312,415.907 L 912.866,416.151 L 912.994,416.265 L 913.147,416.515 L 913.598,416.666 L 913.868,416.82 L 913.886,416.987 L 913.577,417.976 L 913.532,418.182 L 913.417,418.362 L 913.435,418.504 L 913.357,418.584 L 913.239,418.587 L 912.991,418.297 L 912.616,417.932 L 912.449,417.832 L 912.236,417.804 L 912.253,417.906 L 912.358,418.07 L 912.611,418.162 L 912.818,418.364 L 912.963,418.583 L 913.131,418.745 L 913.297,418.821 L 913.43,418.78 L 913.787,418.388 L 913.913,418.347 L 913.895,418.214 L 913.863,418.144 L 913.882,417.852 L 913.941,417.568 L 914.04,417.339 L 914.164,417.171 L 914.455,417.159 L 914.7,417.186 L 915.071,417.299 L 915.657,417.536 L 915.729,417.606 L 915.734,417.968 L 915.776,418.15 L 915.779,418.376 L 915.718,418.496 L 915.624,418.561 L 915.459,418.578 L 915.301,418.518 L 915.214,418.52 L 915.215,418.588 L 915.256,418.677 L 915.462,418.792 L 915.731,418.859 L 915.904,418.857 L 915.989,418.752 L 915.885,418.637 L 916.065,418.514 L 916.182,418.467 L 916.2,418.625 L 916.295,418.684 L 916.413,418.628 L 916.546,418.611 L 916.72,418.678 L 916.755,418.308 L 916.589,418.247 L 916.391,418.194 L 916.24,418.096 L 916.2,418.026 L 916.206,417.883 L 916.465,417.321 L 916.566,417.2 L 916.723,417.192 L 917.825,417.656 L 918.277,417.885 L 918.435,417.924 L 918.702,417.903 L 918.9,417.978 L 919.198,417.889 L 919.377,417.76 L 919.66,417.686 L 920.195,417.677 L 920.305,417.637 L 920.682,417.607 L 921.005,417.619 L 921.115,417.548 L 921.201,417.52 L 921.327,417.56 L 921.414,417.542 L 921.522,417.406 L 921.585,417.382 L 922.192,417.436 L 922.35,417.521 L 922.484,417.52 L 922.611,417.566 L 922.771,417.76 L 922.861,418.018 L 922.804,418.454 L 922.868,418.477 L 923.009,418.451 L 923.041,418.506 L 922.981,418.662 L 922.99,418.749 L 923.159,419.054 L 923.254,419.036 L 923.204,418.274 L 923.148,418.205 L 923.036,418.118 L 923.035,418.01 L 923.089,417.968 L 923.327,418.097 L 923.616,418.495 L 923.743,418.581 L 923.826,418.88 L 923.814,419.122 L 923.769,419.281 L 923.863,419.288 L 923.918,419.224 L 924.061,418.789 L 923.961,418.398 L 923.731,418.259 L 923.702,417.866 L 923.788,417.823 L 924.252,417.763 L 924.425,417.752 L 925.042,417.415 L 925.214,417.341 L 925.38,417.336 L 925.743,417.379 L 925.956,417.441 L 926.286,417.412 L 926.657,417.423 L 927.997,417.57 L 928.422,417.524 L 928.657,417.458 L 928.761,417.573 L 928.88,417.659 L 928.959,417.641 L 928.949,417.477 L 929.122,417.512 L 929.397,417.461 L 930.038,417.123 L 930.28,416.945 L 930.435,416.795 L 930.568,416.729 L 931.29,416.491 L 931.563,416.337 L 931.923,416.2 L 932.37,416.081 L 932.748,416.045 L 932.867,416.076 L 933.063,416.027 L 933.15,416.065 L 933.342,416.257 L 933.479,416.532 L 933.535,416.593 L 933.529,416.695 L 933.396,416.786 L 933.452,416.856 L 933.445,416.918 L 933.282,417.053 L 933.307,417.189 L 933.215,417.331 L 933.218,417.557 L 933.172,417.624 L 933.016,417.728 L 932.922,417.761 L 932.653,417.692 L 932.582,417.725 L 932.568,417.803 L 932.6,417.867 L 932.822,417.957 L 932.832,418.13 L 932.66,418.228 L 932.733,418.362 L 932.804,418.366 L 932.952,418.278 L 933.047,418.263 L 933.276,418.337 L 933.41,418.339"
       id="path15953"
       style="fill-rule:evenodd" />
    <path
       name="barnstable" d="M 910.311,412.523 L 910.17,412.512 L 909.944,412.137 L 909.87,411.94 L 909.847,411.42 L 909.95,411.42 L 910.092,411.487 L 910.252,411.619 L 910.365,411.87 L 910.393,412.145 L 910.311,412.523"
       id="path15977"
       style="fill-rule:evenodd" />
    <path
       name="barnstable" d="M 908.416,412.141 L 908.345,412.103 L 908.312,412.017 L 908.566,411.578 L 908.69,411.451 L 908.754,411.483 L 908.756,411.632 L 908.658,411.979 L 908.604,412.042 L 908.416,412.141"
       id="path15979"
       style="fill-rule:evenodd" />
    <path
       name="barnstable" d="M 920.363,412.769 L 919.849,412.626 L 919.895,412.547 L 920.193,412.479 L 920.335,412.478 L 920.447,412.602 L 920.456,412.683 L 920.433,412.745 L 920.363,412.769"
       id="path15985"
       style="fill-rule:evenodd" />
    <path
       name="barnstable" d="M 920.443,413.4 L 919.914,413.381 L 919.772,413.32 L 919.54,413.081 L 919.451,412.886 L 919.466,412.814 L 919.512,412.766 L 919.654,412.749 L 919.78,412.786 L 920.486,413.153 L 920.591,413.287 L 920.56,413.374 L 920.443,413.4"
       id="path15987"
       style="fill-rule:evenodd" />
    <path
       name="barnstable" d="M 918.178,413.642 L 917.774,413.49 L 917.702,413.42 L 917.669,413.263 L 917.351,413.071 L 917.311,413.016 L 917.341,412.944 L 917.862,413.016 L 918.177,412.973 L 918.61,413.016 L 918.738,413.114 L 918.874,413.334 L 918.886,413.563 L 918.8,413.633 L 918.579,413.612 L 918.178,413.642"
       id="path15989"
       style="fill-rule:evenodd" />
    <path
       name="barnstable" d="M 919.501,415.34 L 919.437,415.246 L 919.074,415.254 L 918.838,415.201 L 918.711,415.131 L 918.509,414.786 L 918.562,414.67 L 918.688,414.629 L 919.246,414.542 L 919.625,414.608 L 919.965,414.744 L 920.204,414.923 L 920.444,415.186 L 920.437,415.263 L 920.304,415.314 L 920.02,415.285 L 919.65,415.339 L 919.501,415.34"
       id="path15993"
       style="fill-rule:evenodd" />
    <path
       name="barnstable" d="M 916.598,415.5 L 916.288,415.369 L 915.606,414.97 L 915.581,414.906 L 915.636,414.861 L 915.785,414.856 L 915.975,414.916 L 916.134,415.026 L 916.491,415.177 L 916.714,415.397 L 916.715,415.474 L 916.598,415.5"
       id="path15995"
       style="fill-rule:evenodd" />
    <path
       name="barnstable" d="M 913.308,416.231 L 913.142,416.131 L 913.005,415.952 L 912.98,415.85 L 912.925,415.818 L 912.839,415.882 L 912.76,415.86 L 912.435,415.683 L 912.378,415.607 L 912.377,415.486 L 912.475,415.201 L 912.51,414.896 L 912.722,414.884 L 912.779,414.947 L 912.78,415.081 L 912.758,415.137 L 912.791,415.26 L 912.893,415.26 L 913.378,415.017 L 913.591,415.029 L 913.726,415.09 L 913.821,415.193 L 913.763,415.523 L 913.616,415.723 L 913.494,415.975 L 913.419,416.228 L 913.308,416.231"
       id="path15997"
       style="fill-rule:evenodd" />
    <path
       name="barnstable" d="M 914.93,416.736 L 914.157,416.675 L 914.054,416.622 L 914.037,416.56 L 914.091,416.41 L 913.815,416.396 L 913.617,416.322 L 913.592,416.226 L 913.676,416.028 L 913.831,415.884 L 913.978,415.669 L 914.111,415.653 L 914.263,415.776 L 914.656,415.748 L 914.67,415.59 L 914.579,415.323 L 914.624,415.157 L 914.719,415.17 L 914.799,415.288 L 914.933,415.837 L 915.045,416.01 L 915.364,416.289 L 915.721,416.48 L 915.777,416.534 L 915.723,416.638 L 915.464,416.696 L 915.323,416.7 L 915.148,416.621 L 914.93,416.736"
       id="path15999"
       style="fill-rule:evenodd" />
    <path
       name="barnstable" d="M 916.427,416.289 L 916.238,416.285 L 915.654,416.16 L 915.448,416.091 L 915.289,415.966 L 915.263,415.824 L 915.344,415.4 L 915.39,415.327 L 915.445,415.294 L 915.563,415.3 L 915.896,415.455 L 916.396,415.738 L 916.564,415.879 L 916.755,416.103 L 916.765,416.199 L 916.64,416.255 L 916.427,416.289"
       id="path16001"
       style="fill-rule:evenodd" />
    <path
       name="barnstable" d="M 915.504,417.277 L 915.306,417.156 L 915.312,417.085 L 915.367,417.061 L 915.769,417.108 L 915.755,417.221 L 915.638,417.277 L 915.504,417.277"
       id="path16005"
       style="fill-rule:evenodd" />
    <path
       name="barnstable" d="M 919.547,445.17 L 919.381,445.131 L 919.3,445.006 L 919.551,444.893 L 919.59,444.836 L 919.785,444.716 L 919.862,444.63 L 920.144,444.482 L 920.269,444.451 L 920.366,444.637 L 920.368,444.749 L 920.015,444.88 L 919.649,445.151 L 919.547,445.17"
       id="path16057"
       style="fill-rule:evenodd" />
    <path
       name="barnstable" d="M 899.232,447.136 L 899.217,447.257 L 899.11,447.558 L 899.073,447.717 L 898.998,448.023 L 898.965,448.552 L 898.903,448.609 L 898.47,448.606 L 898.282,448.665 L 898.116,448.657 L 897.905,448.731 L 897.613,448.727 L 897.313,448.659 L 897.036,448.561 L 896.84,448.604 L 896.653,448.731 L 896.59,448.733 L 896.237,448.25 L 896.11,448.194 L 896.04,448.227 L 896.042,448.355 L 896.243,448.712 L 896.386,448.844 L 896.799,449.083 L 896.832,449.178 L 896.787,449.39 L 896.634,449.733 L 896.644,449.937 L 896.782,450.281 L 896.756,450.681 L 896.774,450.879 L 896.928,451.225 L 896.993,451.419 L 897.028,451.688 L 896.635,451.708 L 896.499,451.601 L 896.355,451.341 L 896.249,451.059 L 896.04,450.746 L 895.906,450.734 L 895.883,450.818 L 896.165,451.257 L 896.263,451.548 L 896.272,451.682 L 896.329,451.792 L 896.408,451.851 L 896.937,451.957 L 897.237,452.038 L 897.635,452.318 L 897.698,452.387 L 897.844,452.662 L 897.869,452.786 L 897.776,452.906 L 897.619,452.932 L 896.704,452.857 L 896.436,452.812 L 896.262,452.712 L 896.031,452.511 L 895.833,452.442 L 895.674,452.357 L 895.549,452.432 L 895.543,452.565 L 895.465,452.604 L 894.953,452.619 L 894.708,452.552 L 893.946,452.686 L 893.56,452.691 L 893.457,452.654 L 893.354,452.561 L 893.306,452.475 L 893.21,452.388 L 893.067,452.321 L 892.74,451.971 L 892.224,450.959 L 892.083,450.433 L 892.041,450.189 L 891.997,449.797 L 891.964,449.689 L 891.97,449.568 L 892.055,449.457 L 892.259,449.386 L 892.424,449.35 L 892.565,449.272 L 892.758,448.962 L 892.923,448.297 L 893.055,448.162 L 893.149,448.175 L 893.153,448.445 L 893.28,448.553 L 893.423,448.592 L 893.658,448.564 L 893.807,448.476 L 893.876,448.356 L 893.88,448.018 L 894.048,447.637 L 894.406,447.196 L 894.459,447.076 L 894.472,446.803 L 894.565,446.723 L 894.77,446.695 L 894.848,446.662 L 895.432,446.121 L 895.597,446.073 L 895.767,445.882 L 895.964,445.839 L 896.138,445.899 L 896.257,445.976 L 896.393,446.186 L 896.395,446.297 L 896.301,446.368 L 896.089,446.427 L 895.983,446.768 L 895.941,447.176 L 896.032,447.583 L 896.175,447.715 L 896.308,447.634 L 896.372,447.678 L 896.458,447.679 L 896.441,447.537 L 896.321,447.388 L 896.359,447.263 L 896.358,447.173 L 896.271,447.095 L 896.262,447.024 L 897.143,446.958 L 897.7,446.802 L 898.296,446.543 L 898.263,446.438 L 898.254,446.377 L 898.332,446.359 L 898.499,446.422 L 898.666,446.554 L 898.667,446.616 L 898.598,446.773 L 898.576,446.957 L 898.609,447.049 L 898.689,447.142 L 898.704,447.201 L 898.839,447.141 L 898.789,446.969 L 898.811,446.881 L 899.046,446.754 L 899.158,446.853 L 899.207,446.972 L 899.232,447.136"
       id="path16059"
       style="fill-rule:evenodd" /> 
    <path
       name="barnstable" d="M 891.509,454.236 L 891.327,454.217 L 891.137,454.139 L 890.64,454.01 L 890.347,453.873 L 890.107,453.626 L 889.929,453.265 L 889.928,453.107 L 890.005,453.043 L 890.069,453.059 L 890.293,453.332 L 890.522,453.437 L 890.767,453.498 L 890.846,453.496 L 890.963,453.434 L 891.274,453.114 L 891.43,453.017 L 891.658,452.936 L 892.051,452.875 L 892.146,452.915 L 892.147,453.008 L 891.774,453.453 L 891.673,453.534 L 891.304,453.656 L 891.125,453.754 L 891.134,453.872 L 891.214,453.966 L 891.333,454.012 L 891.529,453.994 L 892.093,453.732 L 892.209,453.605 L 892.263,453.47 L 892.251,453.179 L 892.282,453.116 L 892.717,452.663 L 892.827,452.613 L 892.984,452.605 L 893.072,452.69 L 892.978,452.755 L 892.971,452.817 L 893.051,452.864 L 893.374,452.898 L 893.721,452.972 L 894.579,452.962 L 896.139,453.007 L 897.14,453.105 L 897.235,453.127 L 897.732,453.152 L 897.874,453.198 L 897.914,453.274 L 897.916,453.386 L 897.459,453.415 L 897.143,453.34 L 896.678,453.292 L 896.151,453.288 L 895.285,453.363 L 894.861,453.422 L 892.67,453.914 L 892.286,454.071 L 891.808,454.218 L 891.509,454.236"
       id="path16073"
       style="fill-rule:evenodd" />             
   </g>
</svg>