<svg
   xmlns:svg="http://www.w3.org/2000/svg"
   xmlns="http://www.w3.org/2000/svg"
   version="1.0"
   width="2100"
   height="1300"
   viewBox="0 0 2100 1300"
   id="svg14921">
   <g
     transform="matrix(2.2640019,0,0,2.2640019,-216.71416,-21.6991)"
     id="g14955"
     style="font-size:16.25px;font-style:normal;font-weight:400;fill:#fefee9;fill-opacity:1;fill-rule:evenodd;stroke:#000000;stroke-width:0.0984252;stroke-linecap:square;stroke-linejoin:bevel;stroke-opacity:1;font-family:Lucida Grande">
    <path
       name="bedford" d="M 682.805,144.675 L 681.632,147.683 L 680.18,151.129 L 678.024,152.474 L 677.38,152.887 L 676.208,155.136 L 674.961,155.913 L 672.128,161.62 L 670.785,161.277 L 670.758,161.413 L 670.376,161.631 L 670.204,161.48 L 670.086,161.516 L 670.039,161.461 L 669.79,161.63 L 669.511,161.101 L 667.783,159.378 L 665.484,157.08 L 664.936,156.812 L 664.693,156.937 L 664.055,156.45 L 663.489,156.533 L 662.732,155.86 L 661.643,156.632 L 660.831,155.844 L 660.866,155.787 L 660.012,154.521 L 659.721,154.477 L 659.874,153.846 L 659.939,153.819 L 660.02,153.789 L 660.116,153.775 L 660.232,153.758 L 660.289,153.74 L 660.413,153.695 L 660.568,153.601 L 660.652,153.524 L 660.713,153.463 L 660.746,153.412 L 660.765,153.35 L 660.775,153.268 L 660.768,153.191 L 660.751,153.116 L 660.725,153.04 L 660.687,152.977 L 660.596,152.869 L 660.472,152.756 L 660.293,152.587 L 660.214,152.507 L 660.143,152.405 L 660.127,152.336 L 660.117,152.267 L 660.128,152.206 L 660.143,152.066 L 660.192,151.918 L 660.233,151.792 L 660.254,151.672 L 660.256,151.568 L 660.243,151.188 L 660.273,151.034 L 660.32,150.792 L 660.376,150.546 L 660.399,150.385 L 660.404,150.304 L 660.381,149.882 L 660.378,149.578 L 660.407,149.419 L 660.418,149.34 L 660.425,149.195 L 660.422,148.928 L 660.433,148.672 L 660.459,148.379 L 660.483,148.153 L 660.497,148.004 L 660.524,147.872 L 660.552,147.734 L 660.559,147.622 L 660.589,147.435 L 660.618,147.282 L 660.637,147.097 L 660.611,146.881 L 660.562,146.718 L 660.528,146.625 L 660.489,146.505 L 660.487,146.36 L 660.5,146.253 L 660.522,146.132 L 660.602,145.876 L 660.662,145.677 L 660.701,145.567 L 660.748,145.464 L 660.813,145.342 L 660.858,145.246 L 660.956,145.135 L 661.056,145.027 L 661.16,144.917 L 661.295,144.782 L 661.413,144.635 L 661.552,144.497 L 661.644,144.406 L 661.881,144.209 L 661.977,144.151 L 662.103,144.067 L 662.221,143.992 L 662.325,143.913 L 662.409,143.82 L 662.783,143.337 L 662.909,143.199 L 663.011,143.103 L 663.101,143.05 L 663.218,142.986 L 663.383,142.907 L 663.501,142.809 L 663.53,142.748 L 663.55,142.667 L 663.546,142.571 L 663.518,142.451 L 663.461,142.278 L 663.408,142.116 L 663.374,142.014 L 663.35,141.888 L 663.344,141.765 L 663.36,141.625 L 663.379,141.519 L 663.414,141.357 L 663.434,141.257 L 663.453,141.121 L 663.457,141.052 L 663.457,140.948 L 663.441,140.836 L 663.435,140.765 L 663.413,140.673 L 663.547,140.696 L 663.641,140.733 L 663.698,140.767 L 663.794,140.806 L 663.867,140.827 L 663.942,140.837 L 664.004,140.837 L 664.107,140.866 L 664.211,140.844 L 669.915,138.668 L 670.661,138.548 L 674.2,139.43 L 676.213,139.48 L 676.693,139.961 L 677.806,138.865 L 677.977,139.034 L 679.724,140.835 L 679.978,140.557 L 680.371,140.929 L 681.532,144.868 L 682.805,144.675"
       id="path15291"
       style="fill-rule:evenodd" />
   </g>
</svg>