<svg
   xmlns:svg="http://www.w3.org/2000/svg"
   xmlns="http://www.w3.org/2000/svg"
   version="1.0"
   width="2100"
   height="1300"
   viewBox="0 0 2100 1300"
   id="svg14921">
   <g
     transform="matrix(2.2640019,0,0,2.2640019,-216.71416,-21.6991)"
     id="g14955"
     style="font-size:16.25px;font-style:normal;font-weight:400;fill:#fefee9;fill-opacity:1;fill-rule:evenodd;stroke:#000000;stroke-width:0.0984252;stroke-linecap:square;stroke-linejoin:bevel;stroke-opacity:1;font-family:Lucida Grande">
    <path
       name="belmont" d="M 690.556,176.271 L 690.668,176.301 L 690.827,176.345 L 691.066,176.434 L 691.69,176.649 L 691.971,176.759 L 692.224,176.873 L 692.483,176.998 L 692.753,177.144 L 693.022,177.29 L 693.576,177.589 L 693.919,177.756 L 694.205,177.888 L 694.503,178.026 L 694.823,178.158 L 695.017,178.24 L 695.223,178.311 L 695.38,178.339 L 695.624,178.402 L 695.891,178.457 L 696.347,178.556 L 696.547,178.607 L 696.786,178.686 L 696.986,178.77 L 697.245,178.866 L 697.787,179.114 L 698.3,179.361 L 699.131,179.778 L 699.665,180.034 L 699.919,180.138 L 699.854,180.203 L 699.95,180.233 L 700.338,180.552 L 700.54,180.605 L 700.667,180.645 L 700.816,180.713 L 700.926,180.785 L 700.993,180.832 L 700.945,180.891 L 701.184,181.072 L 701.438,181.245 L 701.597,181.266 L 701.757,181.237 L 701.897,181.218 L 702.271,181.485 L 702.531,181.622 L 702.767,181.734 L 702.921,181.807 L 701.862,183.544 L 701.322,183.991 L 701.644,185.353 L 701.653,185.433 L 701.657,185.5 L 701.398,186.538 L 701.347,186.584 L 701.235,186.633 L 700.84,186.672 L 701.525,188.127 L 701.624,188.205 L 701.565,188.284 L 701.648,188.335 L 701.864,188.407 L 702.063,188.473 L 702.182,188.575 L 702.127,188.65 L 702.18,188.681 L 702.207,188.882 L 701.913,188.759 L 702.432,190.638 L 702.185,190.605 L 702.025,190.574 L 700.769,190.161 L 699.748,190.033 L 698.585,189.773 L 698.415,189.717 L 696.991,189.188 L 695.975,188.919 L 694.491,188.841 L 694.078,188.869 L 693.521,188.726 L 692.236,186.92 L 691.862,186.394 L 691.931,186.339 L 691.982,186.254 L 691.975,186.114 L 691.896,185.957 L 691.797,185.845 L 691.734,185.767 L 691.667,185.71 L 691.611,185.644 L 691.498,184.991 L 691.473,184.918 L 691.437,184.865 L 691.378,184.807 L 691.328,184.746 L 691.299,184.695 L 691.277,184.64 L 691.269,184.583 L 691.405,184.362 L 691.544,184.257 L 691.619,184.174 L 691.663,184.081 L 691.657,183.956 L 691.645,183.861 L 691.627,183.802 L 691.597,183.747 L 691.558,183.681 L 691.496,183.602 L 691.35,183.496 L 691.24,183.412 L 691.165,183.356 L 691.084,183.285 L 691.003,183.179 L 690.949,183.083 L 690.913,182.983 L 690.885,182.849 L 690.871,182.731 L 690.867,182.653 L 690.849,182.541 L 690.815,182.468 L 690.775,182.407 L 690.74,182.356 L 690.588,182.229 L 690.461,182.068 L 690.386,181.976 L 690.342,181.886 L 690.322,181.768 L 690.302,181.642 L 690.286,181.508 L 690.259,181.333 L 690.247,181.263 L 690.235,181.198 L 690.211,181.133 L 690.175,181.076 L 690.134,181.017 L 690.09,180.951 L 690.065,180.878 L 687.858,180.043 L 690.411,176.497 L 690.556,176.271"
       id="path15415"
       style="fill-rule:evenodd" />
   </g>
</svg>