<svg
   xmlns:svg="http://www.w3.org/2000/svg"
   xmlns="http://www.w3.org/2000/svg"
   version="1.0"
   width="2100"
   height="1300"
   viewBox="0 0 2100 1300"
   id="svg14921">
   <g
     transform="matrix(2.2640019,0,0,2.2640019,-216.71416,-21.6991)"
     id="g14955"
     style="font-size:16.25px;font-style:normal;font-weight:400;fill:#fefee9;fill-opacity:1;fill-rule:evenodd;stroke:#000000;stroke-width:0.0984252;stroke-linecap:square;stroke-linejoin:bevel;stroke-opacity:1;font-family:Lucida Grande">
    <path
       name="berkley" d="M 740.973,375.166 L 733.505,382.763 L 720.157,382.41 L 718.956,384.11 L 718.933,384.169 L 718.942,384.271 L 718.98,384.336 L 718.992,384.393 L 718.966,384.473 L 719.025,384.504 L 719.026,384.589 L 718.97,384.619 L 718.984,384.7 L 719.028,384.768 L 718.984,384.821 L 718.917,384.846 L 718.94,384.91 L 718.931,384.985 L 718.89,385.053 L 718.96,385.111 L 719.006,385.15 L 719.001,385.242 L 719.035,385.301 L 719.022,385.38 L 718.976,385.455 L 719.025,385.584 L 719.169,385.653 L 719.275,385.682 L 719.337,385.74 L 719.427,385.692 L 719.495,385.64 L 719.567,385.56 L 719.605,385.497 L 719.634,385.42 L 719.674,385.346 L 719.752,385.292 L 719.841,385.297 L 719.935,385.316 L 720.061,385.36 L 720.133,385.392 L 720.191,385.502 L 720.247,385.619 L 720.343,385.76 L 720.414,385.889 L 720.48,386.026 L 720.555,386.188 L 720.456,386.279 L 720.425,386.454 L 720.324,386.581 L 720.222,386.754 L 720.097,386.857 L 720.002,386.903 L 719.601,386.955 L 719.413,387.017 L 718.586,387.069 L 718.444,386.998 L 718.38,386.867 L 718.426,386.568 L 718.425,386.431 L 718.26,386.402 L 718.213,386.45 L 718.197,386.522 L 718.033,386.74 L 717.735,386.901 L 717.68,386.956 L 717.776,387.207 L 717.816,387.333 L 717.801,387.498 L 717.699,387.64 L 717.857,387.822 L 717.937,387.915 L 717.985,388.032 L 718.143,388.238 L 718.183,388.411 L 718.137,388.49 L 717.854,388.631 L 717.736,388.768 L 717.729,388.923 L 717.557,389.161 L 717.551,389.453 L 717.449,389.611 L 716.808,390.346 L 716.62,390.661 L 716.45,391.253 L 716.326,391.672 L 716.256,391.813 L 715.997,392.05 L 715.826,392.446 L 714.627,393.523 L 714.58,393.648 L 714.408,393.933 L 714.401,393.998 L 714.292,394.193 L 714.182,394.296 L 714.041,394.368 L 713.923,394.393 L 713.544,394.283 L 713.51,393.804 L 713.461,393.442 L 713.276,392.632 L 713.194,392.036 L 713.091,391.846 L 712.798,391.619 L 712.648,391.4 L 712.568,391.195 L 712.449,391 L 712.432,390.762 L 712.572,390.438 L 712.768,390.296 L 712.893,390.224 L 712.98,390.129 L 713.017,389.768 L 713.095,389.539 L 713.115,388.878 L 713.146,388.688 L 713.112,388.295 L 713.166,388.113 L 713.261,388.114 L 713.332,388.192 L 713.546,388.583 L 713.625,388.568 L 713.672,388.418 L 713.663,388.316 L 713.497,388.104 L 713.22,387.814 L 713.068,387.493 L 712.981,387.343 L 712.981,387.272 L 712.917,387.091 L 712.908,386.908 L 712.762,386.162 L 712.761,385.849 L 712.823,385.714 L 712.964,385.595 L 713.278,385.437 L 713.56,385.016 L 713.732,384.85 L 713.96,384.738 L 714.18,384.666 L 714.282,384.595 L 714.376,384.422 L 714.484,384.059 L 714.9,383.82 L 715.08,383.598 L 715.267,383.245 L 715.259,383.18 L 715.234,383.054 L 715.171,382.922 L 715.036,382.771 L 715.035,382.529 L 715.082,382.426 L 715.089,382.261 L 715.001,382.136 L 714.655,382.081 L 714.544,381.964 L 714.182,382.052 L 714.009,382.054 L 713.694,382.007 L 713.377,381.734 L 713.376,381.402 L 713.405,380.986 L 713.412,380.756 L 713.372,380.593 L 713.316,380.514 L 713.182,380.397 L 712.921,380.249 L 712.842,380.171 L 712.786,379.965 L 712.777,379.785 L 712.925,379.452 L 713.419,379.118 L 713.552,378.984 L 713.591,378.819 L 713.581,378.521 L 713.738,378.321 L 713.832,378.25 L 714.367,378.077 L 714.657,377.876 L 714.86,377.641 L 715.172,376.961 L 715.289,376.896 L 715.265,376.723 L 715.288,376.654 L 715.453,376.463 L 715.435,376.061 L 715.387,375.929 L 715.26,375.802 L 715.164,375.402 L 715.029,375.198 L 714.878,374.898 L 714.664,374.616 L 714.504,374.199 L 714.471,373.973 L 714.478,373.611 L 714.484,373.325 L 714.444,373.208 L 714.37,373.114 L 714.271,372.987 L 714.198,372.894 L 714.06,372.629 L 713.987,372.489 L 713.904,372.331 L 713.911,372.163 L 714.012,371.856 L 714.184,371.619 L 714.394,371.194 L 714.7,370.9 L 715.155,370.669 L 715.374,370.399 L 715.374,370.26 L 715.333,370.109 L 715.12,369.883 L 715.056,369.726 L 715.062,369.481 L 715.132,369.274 L 715.373,368.706 L 715.395,368.408 L 715.457,368.189 L 715.614,367.998 L 715.794,367.903 L 715.961,367.826 L 716.121,367.752 L 716.14,367.694 L 716.137,367.598 L 716.134,367.493 L 716.1,367.374 L 716.001,366.65 L 715.99,366.129 L 716.02,365.908 L 716.09,365.609 L 716.15,365.058 L 716.43,364.451 L 716.445,364.317 L 716.531,364.141 L 716.617,364.033 L 716.821,363.897 L 717.151,363.841 L 717.607,363.719 L 718.198,363.677 L 718.686,363.61 L 718.858,363.524 L 723.164,363.413 L 724.12,364.431 L 734.271,371.217 L 740.973,375.166"
       id="path15879"
       style="fill-rule:evenodd" />
   </g>
</svg>