<svg
   xmlns:svg="http://www.w3.org/2000/svg"
   xmlns="http://www.w3.org/2000/svg"
   version="1.0"
   width="2100"
   height="1300"
   viewBox="0 0 2100 1300"
   id="svg14921">
   <g
     transform="matrix(2.2640019,0,0,2.2640019,-216.71416,-21.6991)"
     id="g14955"
     style="font-size:16.25px;font-style:normal;font-weight:400;fill:#fefee9;fill-opacity:1;fill-rule:evenodd;stroke:#000000;stroke-width:0.0984252;stroke-linecap:square;stroke-linejoin:bevel;stroke-opacity:1;font-family:Lucida Grande">
    <path
       name="billerica" d="M 665.983,108.954 L 677.904,116.321 L 687.658,122.47 L 687.533,122.512 L 687.503,122.611 L 687.419,122.674 L 687.348,122.643 L 687.295,122.68 L 687.311,122.767 L 687.278,122.858 L 687.235,122.934 L 687.16,123.049 L 687.082,123.149 L 687,123.203 L 686.893,123.242 L 686.762,123.302 L 686.695,123.385 L 686.67,123.446 L 686.653,123.528 L 686.631,123.641 L 686.645,123.77 L 686.675,123.878 L 686.697,123.992 L 686.699,124.136 L 686.718,124.372 L 686.681,124.553 L 686.685,124.628 L 686.739,124.718 L 686.774,124.775 L 686.81,124.87 L 686.767,124.925 L 686.712,124.945 L 686.741,124.998 L 686.808,125.092 L 686.864,125.184 L 686.858,125.282 L 686.811,125.328 L 686.75,125.34 L 686.699,125.385 L 686.766,125.428 L 686.713,125.491 L 686.629,125.547 L 686.606,125.602 L 686.594,125.696 L 686.523,125.732 L 686.482,125.809 L 686.508,125.868 L 686.546,125.956 L 686.544,126.067 L 686.517,126.133 L 686.444,126.177 L 686.385,126.175 L 686.31,126.162 L 686.251,126.199 L 686.285,126.254 L 686.342,126.29 L 686.309,126.343 L 686.238,126.386 L 686.179,126.367 L 686.124,126.32 L 686.063,126.298 L 686.016,126.338 L 686.034,126.403 L 686.044,126.489 L 685.981,126.538 L 685.903,126.527 L 685.814,126.547 L 685.96,126.708 L 688.27,128.939 L 687.645,129.435 L 687.834,129.541 L 688.04,129.998 L 687.853,131.288 L 687.389,131.33 L 687.738,131.642 L 687.927,131.781 L 688.007,131.818 L 688.088,131.824 L 688.173,131.867 L 688.281,131.906 L 688.385,131.919 L 688.487,131.913 L 688.59,131.897 L 688.686,131.893 L 688.759,131.895 L 688.821,131.9 L 688.894,131.942 L 688.969,132.004 L 689.074,132.106 L 689.174,132.212 L 689.249,132.308 L 689.273,132.367 L 685.987,139.436 L 684.996,139.053 L 682.805,144.675 L 681.532,144.868 L 680.371,140.929 L 679.978,140.557 L 679.724,140.835 L 677.977,139.034 L 677.806,138.865 L 676.693,139.961 L 676.213,139.48 L 674.2,139.43 L 670.661,138.548 L 669.915,138.668 L 664.211,140.844 L 664.107,140.866 L 664.004,140.837 L 663.942,140.837 L 663.867,140.827 L 663.794,140.806 L 663.698,140.767 L 663.641,140.733 L 663.547,140.696 L 663.413,140.673 L 663.383,140.478 L 663.377,140.165 L 663.385,140.055 L 663.408,139.923 L 663.435,139.807 L 663.715,139.012 L 663.842,138.646 L 663.867,138.437 L 663.875,138.368 L 663.875,138.301 L 663.881,138.239 L 663.869,138.172 L 663.861,138.091 L 663.853,138.02 L 663.853,137.936 L 663.866,137.861 L 663.896,137.792 L 663.939,137.711 L 663.719,137.617 L 663.2,137.443 L 663.289,136.322 L 662.888,136.077 L 660.432,133.006 L 661.422,130.675 L 660.079,129.132 L 658.746,128.452 L 656.675,127.07 L 656.827,126.858 L 666.544,111.397 L 666.438,111.273 L 666.34,111.142 L 666.281,111.057 L 666.237,110.975 L 666.21,110.817 L 666.172,110.524 L 666.16,110.441 L 666.159,110.23 L 666.147,110.116 L 666.088,109.754 L 666.078,109.695 L 666.064,109.627 L 666.019,109.506 L 665.977,109.436 L 665.942,109.373 L 665.905,109.288 L 665.859,109.192 L 665.836,109.102 L 665.82,108.988 L 665.812,108.927 L 665.817,108.852 L 665.983,108.954"
       id="path15203"
       style="fill-rule:evenodd" />
   </g>
</svg>