<svg
   xmlns:svg="http://www.w3.org/2000/svg"
   xmlns="http://www.w3.org/2000/svg"
   version="1.0"
   width="2100"
   height="1300"
   viewBox="0 0 2100 1300"
   id="svg14921">
   <g
     transform="matrix(2.2640019,0,0,2.2640019,-216.71416,-21.6991)"
     id="g14955"
     style="font-size:16.25px;font-style:normal;font-weight:400;fill:#fefee9;fill-opacity:1;fill-rule:evenodd;stroke:#000000;stroke-width:0.0984252;stroke-linecap:square;stroke-linejoin:bevel;stroke-opacity:1;font-family:Lucida Grande">
    <path
       name="bourne" d="M 866.798,389.779 L 866.628,396.063 L 860.705,395.273 L 859.824,395.33 L 859.376,395.405 L 859.203,395.478 L 858.708,395.554 L 858.159,395.719 L 857.617,395.928 L 857.132,396.187 L 856.155,396.842 L 856.03,396.898 L 855.882,397.098 L 855.586,397.37 L 855.15,397.839 L 854.669,398.498 L 854.369,399.108 L 853.882,399.969 L 853.288,401.134 L 853.251,401.262 L 853.157,401.38 L 853.057,401.594 L 852.856,401.904 L 852.132,402.619 L 851.508,403.227 L 851.126,403.53 L 850.182,404.367 L 850.105,404.462 L 849.816,404.694 L 848.791,405.35 L 847.38,405.918 L 845.771,406.359 L 844.38,406.651 L 843.493,406.928 L 842.85,407.157 L 842.615,407.285 L 842.458,407.318 L 842.096,407.332 L 841.948,407.426 L 841.824,407.631 L 841.73,407.69 L 841.573,407.728 L 841.237,407.921 L 840.541,408.435 L 840.347,408.617 L 839.903,409.111 L 839.778,409.05 L 839.413,408.791 L 839.198,408.559 L 839.094,408.385 L 839.054,408.262 L 839.06,408.135 L 839.115,408.062 L 839.697,407.964 L 839.889,407.827 L 839.923,407.395 L 840.008,407.213 L 840.059,406.827 L 840.285,406.578 L 840.613,406.401 L 840.652,406.347 L 840.658,406.195 L 840.883,405.807 L 841.056,405.799 L 841.118,405.71 L 841.14,405.585 L 841.05,405.318 L 840.572,404.797 L 840.546,404.59 L 840.576,404.49 L 840.575,404.378 L 840.504,404.315 L 840.331,404.357 L 840.251,404.257 L 840.255,403.935 L 840.321,403.437 L 840.39,403.27 L 840.483,403.159 L 840.577,403.104 L 840.671,403.101 L 840.751,403.164 L 840.783,403.234 L 840.785,403.392 L 840.856,403.44 L 840.943,403.397 L 840.989,403.296 L 841.001,403.026 L 841.079,402.965 L 841.339,402.92 L 841.52,402.943 L 841.482,403.031 L 841.49,403.117 L 841.656,403.122 L 841.748,402.948 L 841.945,402.874 L 842.045,402.732 L 842.3,402.225 L 842.378,402.217 L 842.428,402.429 L 842.664,402.425 L 843.017,402.313 L 843.097,402.375 L 843.377,402.845 L 843.473,402.929 L 843.662,402.911 L 843.81,402.807 L 843.856,402.719 L 843.847,402.617 L 843.815,402.525 L 843.599,402.218 L 843.345,402.064 L 843.297,402.01 L 843.158,401.508 L 843.006,400.548 L 842.957,400.392 L 842.961,400.109 L 843.171,399.805 L 843.273,399.806 L 843.313,399.86 L 843.306,399.938 L 843.245,400.058 L 843.261,400.159 L 843.34,400.207 L 843.553,400.179 L 843.605,399.926 L 843.675,399.831 L 843.785,399.769 L 843.887,399.781 L 843.99,399.844 L 844.126,400.063 L 844.12,400.19 L 843.926,400.484 L 843.89,400.783 L 843.86,400.855 L 843.689,401.068 L 843.698,401.185 L 843.841,401.374 L 843.923,401.576 L 843.981,401.915 L 844.101,402.008 L 844.258,402.007 L 844.556,401.908 L 844.737,401.89 L 844.768,401.827 L 844.75,401.648 L 844.486,401.271 L 844.493,401.209 L 844.658,401.161 L 844.824,401.205 L 844.895,401.197 L 845.098,401.086 L 845.364,400.861 L 845.464,400.647 L 845.463,400.554 L 845.383,400.435 L 845.358,400.365 L 845.346,399.946 L 845.305,399.839 L 845.249,399.766 L 845.044,399.729 L 844.925,399.661 L 844.854,399.576 L 844.813,399.457 L 844.741,399.363 L 844.55,399.225 L 843.862,398.908 L 843.697,398.95 L 843.579,399.031 L 843.486,399.158 L 843.181,399.343 L 842.972,399.597 L 842.888,399.842 L 842.873,399.966 L 842.843,400.048 L 842.788,400.127 L 842.577,400.229 L 842.459,400.233 L 842.356,400.177 L 842.221,400.06 L 842.172,399.968 L 842.122,399.669 L 842.051,399.615 L 841.925,399.622 L 841.841,399.869 L 841.786,399.939 L 841.758,400.207 L 841.719,400.279 L 841.618,400.375 L 841.367,400.472 L 841.162,400.451 L 840.671,400.235 L 840.261,400.16 L 840.134,400.053 L 840.11,399.991 L 840.117,399.895 L 840.153,399.658 L 840.113,399.582 L 839.948,399.615 L 839.808,399.743 L 839.685,400.125 L 839.561,400.371 L 839.264,400.596 L 839.038,400.833 L 838.844,401.189 L 838.688,401.333 L 838.508,401.351 L 838.41,401.105 L 838.352,401.001 L 838.271,400.947 L 838.166,400.881 L 838.092,400.783 L 838.07,400.705 L 838.002,400.627 L 837.99,400.554 L 837.936,400.527 L 837.858,400.528 L 837.798,400.52 L 837.735,400.44 L 838.028,400.276 L 839.087,399.65 L 839.807,399.307 L 845.321,396.273 L 854.979,392.034 L 861.796,384.006 L 862.04,383.696 L 862.163,383.926 L 862.732,384.84 L 863.317,385.716 L 864.291,386.918 L 864.346,386.979 L 865.096,387.869 L 865.805,388.555 L 866.379,389.217 L 866.798,389.779"
       id="path15919"
       style="fill-rule:evenodd" />
    <path
       name="bourne" d="M 839.926,411.204 L 839.774,411.144 L 839.773,411.001 L 839.858,410.844 L 839.922,410.788 L 840.093,410.643 L 840.124,410.55 L 840.083,410.368 L 840.002,410.237 L 840.009,410.15 L 840.08,410.126 L 840.347,410.13 L 840.489,410.08 L 840.615,410.11 L 840.671,410.196 L 840.812,410.179 L 840.937,410.045 L 840.919,409.872 L 840.871,409.768 L 840.783,409.699 L 840.524,409.679 L 840.412,409.555 L 840.379,409.419 L 840.52,409.316 L 840.911,409.115 L 841.036,409.012 L 841.167,408.773 L 841.276,408.677 L 841.497,408.667 L 841.804,408.726 L 842.049,408.716 L 842.238,408.785 L 842.348,408.754 L 842.442,408.658 L 842.432,408.531 L 842.234,408.416 L 842.154,408.313 L 842.208,408.212 L 843.249,407.617 L 843.664,407.432 L 845.524,406.819 L 845.673,406.802 L 846.638,406.501 L 847.039,406.418 L 847.746,406.211 L 848.428,405.953 L 848.608,405.848 L 848.843,405.776 L 849.9,405.196 L 850.541,404.811 L 850.666,404.684 L 850.776,404.634 L 852.538,403.057 L 853.183,402.316 L 853.363,402.143 L 853.486,401.919 L 853.724,401.373 L 853.902,401.057 L 854.102,400.639 L 854.411,400.121 L 854.689,399.567 L 855.081,398.768 L 855.531,398.135 L 855.812,397.838 L 856.522,397.225 L 856.803,397.055 L 856.881,396.985 L 857.381,396.657 L 857.891,396.422 L 858.181,396.339 L 858.306,396.276 L 859.076,396.061 L 859.461,396.025 L 859.705,395.959 L 860.051,395.924 L 861.082,395.928 L 861.256,395.967 L 861.689,395.985 L 862.005,396.069 L 862.281,396.089 L 862.439,396.134 L 863.212,396.213 L 863.709,396.326 L 864.781,396.462 L 864.987,396.515 L 865.547,396.564 L 866.004,396.646 L 866.61,396.72 L 866.597,397.196 L 865.922,398.303 L 864.599,404.522 L 862.187,416.48 L 862.168,416.581 L 862.161,416.663 L 862.176,416.779 L 862.209,416.924 L 862.249,417.074 L 862.288,417.215 L 862.295,417.331 L 862.33,418.184 L 862.333,418.3 L 862.316,418.432 L 862.288,418.548 L 862.255,418.725 L 862.199,418.882 L 862.151,419.019 L 862.108,419.109 L 862.069,419.193 L 862.036,419.276 L 862.016,419.348 L 861.985,419.443 L 861.953,419.546 L 861.909,419.681 L 861.874,419.79 L 861.845,419.878 L 861.818,419.949 L 861.772,420.072 L 861.733,420.166 L 861.709,420.237 L 861.687,420.309 L 861.631,420.546 L 861.592,420.73 L 861.565,420.824 L 861.536,420.917 L 861.475,421.04 L 861.349,421.325 L 861.332,421.524 L 861.337,421.688 L 861.359,421.856 L 861.376,421.997 L 861.391,422.245 L 861.414,422.37 L 861.448,422.521 L 861.492,422.691 L 861.543,422.908 L 861.592,423.068 L 861.647,423.222 L 861.684,423.322 L 861.705,423.382 L 861.716,423.439 L 861.719,423.525 L 861.687,424.02 L 861.684,424.376 L 861.681,424.491 L 861.664,424.564 L 861.639,424.655 L 861.616,424.758 L 861.617,425.106 L 861.572,425.253 L 861.179,426.399 L 860.705,427.573 L 860.684,427.689 L 860.583,428.085 L 860.563,428.322 L 860.555,428.442 L 860.539,428.504 L 860.485,428.617 L 860.417,428.753 L 860.403,428.814 L 860.371,428.935 L 860.192,429.875 L 860.149,429.98 L 860.016,430.237 L 859.904,430.467 L 859.339,431.621 L 859.041,431.973 L 858.707,432.306 L 858.453,432.597 L 858.302,432.76 L 858.12,432.932 L 857.944,433.116 L 857.734,433.434 L 857.627,433.504 L 857.544,433.567 L 857.488,433.614 L 857.236,433.967 L 857.163,434.087 L 857.125,434.164 L 857.011,434.38 L 856.927,434.541 L 856.85,434.634 L 856.754,434.767 L 856.627,434.906 L 856.519,434.987 L 856.36,435.129 L 856.26,435.212 L 856.132,435.365 L 856.014,435.516 L 855.865,435.687 L 855.719,435.839 L 855.591,435.991 L 855.52,436.1 L 855.433,436.242 L 855.324,436.457 L 855.185,436.681 L 855.128,436.783 L 855.092,436.906 L 855.066,437.038 L 855.074,437.194 L 855.075,437.302 L 855.052,437.46 L 855.051,437.59 L 855.07,437.684 L 855.097,437.803 L 855.136,437.958 L 855.17,438.051 L 855.208,438.214 L 855.221,438.333 L 855.23,438.449 L 855.229,438.542 L 855.18,438.698 L 855.058,439.016 L 854.969,439.288 L 854.797,440.59 L 843.057,436.303 L 842.576,436.391 L 842.398,436.197 L 842.342,436.093 L 842.34,435.969 L 842.132,435.656 L 841.94,435.336 L 841.881,435.059 L 841.801,434.903 L 841.562,434.606 L 841.14,434.234 L 841.077,434.211 L 840.896,434.219 L 840.857,434.276 L 840.866,434.409 L 840.97,434.48 L 841.128,434.572 L 840.9,434.576 L 840.758,434.608 L 840.462,434.902 L 840.173,435.102 L 840.035,435.165 L 839.973,435.244 L 839.441,435.613 L 839.481,435.705 L 839.616,435.744 L 839.868,435.74 L 839.946,435.71 L 840.094,435.526 L 840.225,435.51 L 840.297,435.573 L 840.361,435.739 L 840.647,435.932 L 840.823,436.181 L 841.061,436.329 L 841.299,436.539 L 841.439,436.601 L 841.257,436.634 L 841.104,436.626 L 840.936,436.457 L 840.777,436.347 L 840.549,436.295 L 840.184,436.11 L 839.798,435.916 L 839.436,435.864 L 839.285,435.788 L 838.935,435.42 L 838.441,434.827 L 838.299,434.716 L 838.014,434.594 L 837.888,434.564 L 837.604,434.597 L 837.371,434.861 L 837.167,434.957 L 836.916,435.039 L 836.853,435.093 L 836.83,435.172 L 836.76,435.251 L 836.501,435.349 L 836.329,435.453 L 836.282,435.532 L 836.26,435.697 L 836.206,435.776 L 836.107,436.086 L 835.966,436.149 L 835.169,436.048 L 834.727,435.903 L 834.481,435.755 L 833.711,435.154 L 833.046,434.752 L 832.752,434.416 L 832.672,434.26 L 832.479,433.86 L 832.492,433.633 L 832.515,433.536 L 832.875,433.244 L 833.185,432.822 L 833.514,432.574 L 833.685,432.376 L 833.779,432.29 L 833.857,432.266 L 833.968,432.272 L 834.173,432.331 L 834.299,432.324 L 834.706,432.098 L 834.997,432.025 L 835.438,432.021 L 835.919,432.088 L 836.29,432.201 L 836.558,432.23 L 836.552,432.435 L 836.879,432.826 L 837.143,433.286 L 837.162,433.633 L 837.259,433.844 L 837.418,434.066 L 837.545,434.164 L 837.979,434.288 L 838.462,434.494 L 838.651,434.517 L 839.155,434.496 L 839.327,434.345 L 839.466,434.093 L 839.495,433.81 L 839.541,433.675 L 839.375,433.683 L 839.329,433.746 L 839.242,433.74 L 839.083,433.598 L 838.949,433.577 L 838.743,433.438 L 838.702,433.312 L 838.701,433.138 L 838.747,433.069 L 838.81,433.042 L 838.897,433.049 L 838.97,433.285 L 839.026,433.364 L 839.246,433.37 L 839.357,433.423 L 839.578,433.407 L 839.624,433.365 L 839.669,433.107 L 839.682,432.837 L 839.793,432.861 L 839.833,432.907 L 839.943,432.882 L 839.981,432.772 L 839.925,432.718 L 839.806,432.662 L 839.727,432.584 L 839.498,432.501 L 839.472,432.288 L 839.567,432.279 L 839.709,432.349 L 839.772,432.325 L 839.771,432.254 L 839.636,432.09 L 839.635,432.019 L 839.737,431.979 L 839.728,431.883 L 839.656,431.783 L 839.653,431.467 L 839.819,431.45 L 839.978,431.668 L 840.051,431.889 L 840.139,431.977 L 840.393,432.162 L 840.512,432.295 L 840.576,432.327 L 840.835,432.292 L 841.275,432.167 L 841.606,432.229 L 841.829,432.415 L 841.978,432.342 L 841.984,432.255 L 841.778,432.109 L 841.722,431.999 L 841.751,431.731 L 841.739,431.406 L 841.801,431.296 L 842.026,431.057 L 842.356,430.904 L 842.434,430.905 L 842.585,430.988 L 842.687,430.972 L 842.741,430.893 L 842.861,430.3 L 842.938,430.174 L 842.93,430.112 L 842.858,430.04 L 842.849,429.907 L 842.917,429.678 L 842.744,429.711 L 842.643,429.798 L 842.644,429.95 L 842.725,430.106 L 842.71,430.184 L 842.624,430.273 L 842.515,430.329 L 842.38,430.274 L 842.316,430.173 L 842.305,429.826 L 842.12,429.568 L 841.914,429.388 L 841.685,429.305 L 841.512,429.347 L 840.988,429.7 L 840.886,429.691 L 840.669,429.347 L 840.706,429.151 L 840.681,429.024 L 840.633,428.923 L 840.616,428.79 L 840.678,428.695 L 840.78,428.733 L 840.837,428.827 L 840.986,428.795 L 841.102,428.658 L 841.146,428.328 L 841.351,428.294 L 841.421,428.215 L 841.48,427.906 L 841.655,427.346 L 841.645,427.147 L 841.597,427.037 L 841.247,426.713 L 840.986,426.621 L 840.711,426.756 L 840.556,426.916 L 840.425,427.177 L 840.413,427.509 L 840.1,427.757 L 839.957,427.82 L 839.95,427.913 L 840.077,427.959 L 840.086,428.061 L 840.047,428.124 L 840.123,428.233 L 840.147,428.304 L 840.104,428.368 L 839.672,428.483 L 839.491,428.479 L 839.365,428.439 L 839.254,428.371 L 838.975,428.057 L 838.815,427.776 L 838.796,427.476 L 838.732,427.344 L 838.745,427.006 L 839.016,426.57 L 839.18,426.41 L 839.146,426.141 L 839.175,425.898 L 839.244,425.67 L 839.352,425.509 L 839.382,425.282 L 839.31,425.187 L 839.348,425.031 L 839.345,424.73 L 839.146,424.544 L 839.224,424.439 L 839.224,424.362 L 839.121,424.309 L 838.963,424.332 L 838.885,424.428 L 838.753,424.531 L 838.674,424.508 L 838.523,424.361 L 838.175,424.268 L 838.05,424.334 L 837.94,424.334 L 837.821,424.273 L 837.491,424.332 L 837.436,424.371 L 837.437,424.473 L 837.628,424.731 L 837.883,424.99 L 837.963,425.131 L 838.02,425.334 L 838.022,425.554 L 837.929,425.696 L 837.819,425.752 L 837.701,425.777 L 837.04,425.8 L 836.859,425.864 L 836.782,426.024 L 836.76,426.134 L 836.652,426.338 L 836.64,426.742 L 836.609,426.867 L 836.438,427.058 L 836.179,427.202 L 836.006,427.229 L 835.809,427.182 L 835.644,427.214 L 834.977,427.466 L 834.986,427.537 L 835.049,427.616 L 835.152,427.613 L 835.222,427.559 L 835.285,427.572 L 835.303,427.761 L 835.194,427.969 L 834.719,428.476 L 834.594,428.541 L 833.233,428.718 L 832.784,428.725 L 832.453,428.672 L 832.169,428.603 L 831.421,428.634 L 831.327,428.668 L 831.218,428.832 L 830.874,429.066 L 830.724,429.052 L 830.582,428.987 L 830.478,428.857 L 830.446,428.768 L 830.452,428.613 L 830.582,428.255 L 830.605,428.084 L 830.658,427.956 L 830.768,427.863 L 831.488,427.454 L 831.543,427.39 L 831.665,426.955 L 831.766,426.798 L 832.18,426.531 L 832.66,426.433 L 832.911,426.33 L 833.091,426.185 L 833.338,425.725 L 833.493,425.457 L 833.728,425.344 L 834.217,425.433 L 834.415,425.504 L 834.517,425.495 L 834.634,425.374 L 834.773,425.106 L 834.772,424.988 L 834.509,424.636 L 834.485,424.572 L 834.475,424.367 L 834.498,424.283 L 834.607,424.137 L 834.849,423.956 L 835.163,423.826 L 836.067,423.645 L 836.278,423.549 L 836.412,423.514 L 836.427,423.451 L 836.67,423.323 L 836.89,423.273 L 838.024,423.287 L 838.354,423.259 L 838.841,423.105 L 839.272,422.819 L 839.515,422.697 L 839.702,422.562 L 839.796,422.46 L 839.904,422.23 L 839.974,422.15 L 840.038,422.127 L 840.157,422.132 L 840.252,422.201 L 840.324,422.335 L 840.325,422.397 L 840.373,422.461 L 840.438,422.648 L 840.558,422.791 L 840.544,422.962 L 840.741,423.03 L 840.837,423.102 L 840.934,423.322 L 841.213,423.624 L 841.315,423.68 L 841.426,423.677 L 841.543,423.581 L 841.771,423.586 L 841.959,423.476 L 842.171,423.41 L 842.185,423.221 L 842.231,423.111 L 842.228,422.906 L 842.378,422.871 L 842.434,422.965 L 842.505,422.973 L 842.631,423.034 L 843.033,423.007 L 843.199,423.092 L 843.624,423.095 L 843.662,422.951 L 843.582,422.836 L 843.346,422.892 L 843.172,422.801 L 843.124,422.691 L 842.794,422.781 L 842.43,422.628 L 842.249,422.645 L 842.054,422.806 L 841.945,422.908 L 841.832,423.358 L 841.77,423.422 L 841.628,423.454 L 841.368,423.412 L 841.13,423.255 L 840.992,422.911 L 840.522,422.429 L 840.458,422.325 L 840.425,422.177 L 840.368,422.043 L 840.948,421.802 L 841.177,421.861 L 841.255,421.734 L 841.357,421.694 L 841.444,421.732 L 841.461,421.843 L 841.516,421.882 L 841.618,421.857 L 841.782,421.728 L 841.844,421.643 L 841.975,421.388 L 841.987,421.024 L 841.931,420.933 L 841.789,420.934 L 841.68,421.006 L 841.585,420.999 L 841.584,420.881 L 841.709,420.775 L 841.913,420.76 L 842.005,420.506 L 841.987,420.286 L 841.893,420.302 L 841.838,420.374 L 841.736,420.405 L 841.665,420.383 L 841.656,420.312 L 841.898,420.112 L 841.975,419.955 L 841.963,419.552 L 841.922,419.373 L 841.941,418.284 L 841.916,418.136 L 841.928,417.807 L 842.043,417.552 L 841.947,417.357 L 841.954,417.279 L 842.008,417.206 L 842.219,417.054 L 842.343,416.88 L 842.411,416.596 L 842.401,416.413 L 842.36,416.306 L 842.266,415.564 L 842.225,415.472 L 841.969,415.111 L 841.967,414.946 L 842.014,414.883 L 842.147,414.786 L 842.13,414.653 L 842.065,414.497 L 841.689,413.959 L 841.656,413.817 L 841.677,413.643 L 842.078,413.551 L 842.132,413.487 L 842.137,413.22 L 842.278,413.132 L 842.301,413.06 L 842.306,412.737 L 842.451,412.342 L 842.442,412.256 L 842.34,412.311 L 842.247,412.423 L 842.071,412.937 L 841.978,413.017 L 841.867,413.011 L 841.614,412.894 L 841.078,412.807 L 840.873,412.816 L 840.803,412.85 L 840.764,412.913 L 840.773,412.984 L 840.836,413.013 L 840.969,412.972 L 840.98,413.226 L 840.888,413.501 L 840.802,413.51 L 840.682,413.371 L 840.546,413.121 L 840.418,412.973 L 840.268,412.887 L 839.945,412.896 L 839.352,413.116 L 839.149,413.237 L 838.82,413.516 L 838.413,413.717 L 838.054,414.081 L 837.806,414.501 L 837.596,414.755 L 837.518,414.891 L 837.473,415.103 L 837.475,415.292 L 837.674,415.556 L 837.733,415.88 L 837.86,416.013 L 837.853,416.091 L 837.791,416.201 L 837.769,416.4 L 837.775,416.958 L 837.736,417.068 L 837.65,417.101 L 837.508,417.087 L 837.271,417.019 L 836.907,416.847 L 836.646,416.669 L 836.153,416.162 L 836.112,416.052 L 836.111,415.934 L 836.243,415.759 L 836.658,415.537 L 836.97,415.202 L 837.055,414.998 L 837.108,414.776 L 837.09,414.593 L 837.009,414.366 L 836.755,414.07 L 836.762,413.998 L 836.964,413.744 L 837.231,413.64 L 837.411,413.536 L 837.536,413.427 L 838.619,413.035 L 839.082,412.842 L 839.942,412.614 L 840.145,412.518 L 840.144,412.376 L 840.095,412.275 L 839.936,412.118 L 839.543,411.706 L 839.25,411.463 L 839.178,411.338 L 839.24,411.259 L 839.366,411.289 L 839.485,411.366 L 839.928,411.371 L 840.117,411.4 L 840.173,411.438 L 840.135,411.563 L 840.168,411.674 L 840.285,411.649 L 840.433,411.489 L 840.472,411.405 L 840.47,411.262 L 840.422,411.223 L 840.304,411.202 L 840.178,411.146 L 840.052,411.203 L 839.926,411.204 M 839.378,426.479 L 839.307,426.564 L 839.308,426.667 L 839.601,426.807 L 839.704,426.9 L 839.715,427.16 L 839.983,427.165 L 840.092,427.078 L 840.171,426.969 L 840.218,426.898 L 840.29,426.755 L 840.242,426.659 L 840.266,426.516 L 840.695,426.373 L 840.743,426.326 L 840.743,426.254 L 840.433,425.992 L 840.242,425.73 L 840.078,425.646 L 839.913,425.654 L 839.505,425.824 L 839.498,425.917 L 839.641,426.074 L 839.651,426.222 L 839.612,426.342 L 839.378,426.479"
       id="path15935"
       style="fill-rule:evenodd" />
    <path
       name="bourne" d="M 839.928,411.371 L 839.926,411.204 L 840.052,411.203 L 840.178,411.146 L 840.304,411.202 L 840.422,411.223 L 840.47,411.262 L 840.472,411.405 L 840.433,411.489 L 840.285,411.649 L 840.168,411.674 L 840.135,411.563 L 840.173,411.438 L 840.117,411.4 L 839.928,411.371"
       id="path15973"
       style="fill-rule:evenodd" />
    <path
       name="bourne" d="M 841.302,417.425 L 841.469,417.606 L 841.09,418.194 L 840.724,418.599 L 840.63,418.629 L 840.558,418.56 L 840.461,418.343 L 840.372,418.066 L 840.284,417.967 L 840,417.882 L 839.933,417.897 L 839.935,418.095 L 839.995,418.18 L 840.131,418.377 L 840.261,418.73 L 840.317,418.825 L 840.342,418.957 L 840.556,419.035 L 840.675,419.158 L 840.724,419.3 L 840.656,419.559 L 840.424,419.885 L 840.433,420.003 L 840.536,420.143 L 840.577,420.247 L 840.58,420.569 L 840.661,420.71 L 840.669,420.772 L 840.449,420.815 L 840.267,420.715 L 840.139,420.557 L 840.083,420.447 L 840.073,420.252 L 840.134,420.061 L 840.218,419.863 L 840.301,419.501 L 840.266,419.211 L 840.136,418.793 L 840.056,418.653 L 839.999,418.527 L 839.667,418.035 L 839.633,417.822 L 839.719,417.67 L 839.994,417.401 L 840.079,417.244 L 840.343,416.901 L 840.453,416.87 L 840.603,416.875 L 840.721,416.921 L 840.904,417.061 L 840.999,417.099 L 841.369,417.094 L 841.614,417.171 L 841.646,417.226 L 841.639,417.328 L 841.285,417.357 L 841.302,417.425"
       id="path16003"
       style="fill-rule:evenodd" />
    <path
       name="bourne" d="M 838.474,425.094 L 838.411,425.062 L 838.432,424.81 L 838.526,424.739 L 838.59,424.787 L 838.614,424.848 L 838.608,425.013 L 838.577,425.069 L 838.474,425.094"
       id="path16017"
       style="fill-rule:evenodd" />
    <path
       name="bourne" d="M 839.378,426.479 L 839.612,426.342 L 839.651,426.222 L 839.641,426.074 L 839.498,425.917 L 839.505,425.824 L 839.913,425.654 L 840.078,425.646 L 840.242,425.73 L 840.433,425.992 L 840.743,426.254 L 840.743,426.326 L 840.695,426.373 L 840.266,426.516 L 840.242,426.659 L 840.29,426.755 L 840.218,426.898 L 840.171,426.969 L 840.092,427.078 L 839.983,427.165 L 839.715,427.16 L 839.704,426.9 L 839.601,426.807 L 839.308,426.667 L 839.307,426.564 L 839.378,426.479"
       id="path16021"
       style="fill-rule:evenodd" />
    <path
       name="bourne" d="M 837.85,432.329 L 837.771,432.281 L 837.786,432.132 L 837.945,431.501 L 837.94,430.974 L 837.882,430.644 L 837.744,430.242 L 837.568,429.937 L 837.137,429.391 L 836.93,429.124 L 836.709,429.056 L 836.348,429.129 L 836.213,429.123 L 835.511,428.958 L 835.392,428.862 L 835.328,428.762 L 835.326,428.557 L 835.443,428.423 L 835.717,428.245 L 835.976,428.182 L 836.142,428.18 L 836.371,428.272 L 836.687,428.458 L 836.971,428.453 L 837.12,428.405 L 837.269,428.311 L 837.37,428.169 L 837.532,427.86 L 837.695,427.598 L 837.756,427.401 L 837.981,426.982 L 838.064,426.666 L 838.127,426.618 L 838.261,426.679 L 838.309,426.774 L 838.326,426.928 L 838.281,427.097 L 838.08,427.531 L 837.996,427.728 L 837.952,428.13 L 837.845,428.462 L 837.76,428.66 L 837.791,429.344 L 837.848,429.618 L 838.009,429.989 L 838.098,430.207 L 838.187,430.498 L 838.154,431.145 L 838.174,431.569 L 838.021,432.091 L 837.913,432.311 L 837.85,432.329"
       id="path16023"
       style="fill-rule:evenodd" />       
    <path
       name="bourne" d="M 841.525,436.331 L 841.288,436.224 L 841.113,436.077 L 841.128,435.989 L 841.198,435.925 L 841.497,435.923 L 841.591,435.827 L 841.699,435.628 L 841.785,435.629 L 842.166,435.916 L 842.191,435.986 L 842.168,436.04 L 841.932,436.121 L 841.808,436.289 L 841.699,436.323 L 841.525,436.331"
       id="path16035"
       style="fill-rule:evenodd" />
    <path
       name="bourne" d="M 841.439,436.601 L 841.647,436.638 L 841.703,436.708 L 841.712,436.856 L 841.619,436.952 L 841.446,436.994 L 841.351,436.941 L 841.239,436.761 L 841.104,436.626 L 841.257,436.634 L 841.439,436.601"
       id="path16041"
       style="fill-rule:evenodd" />
   </g>
</svg>