<svg
   xmlns:svg="http://www.w3.org/2000/svg"
   xmlns="http://www.w3.org/2000/svg"
   version="1.0"
   width="2100"
   height="1300"
   viewBox="0 0 2100 1300"
   id="svg14921">
   <g
     transform="matrix(2.2640019,0,0,2.2640019,-216.71416,-21.6991)"
     id="g14955"
     style="font-size:16.25px;font-style:normal;font-weight:400;fill:#fefee9;fill-opacity:1;fill-rule:evenodd;stroke:#000000;stroke-width:0.0984252;stroke-linecap:square;stroke-linejoin:bevel;stroke-opacity:1;font-family:Lucida Grande">
    <path
       name="boylston" d="M 568.562,185.928 L 570.651,186.786 L 569.644,190.772 L 568.78,194.171 L 569.163,194.276 L 566.22,207.848 L 565.767,207.679 L 565.357,207.358 L 565.393,206.649 L 563.741,207.126 L 563.695,206.557 L 564.257,206.185 L 563.433,205.436 L 555.375,209.332 L 554.965,210.424 L 552.422,211.182 L 552.52,210.624 L 550.449,211.597 L 548.631,212.411 L 546.631,212.127 L 546.834,201.338 L 547.906,192.212 L 548.428,190.72 L 549.395,187.989 L 550.512,187.489 L 552.448,186.681 L 556.519,185.496 L 562.946,183.624 L 568.562,185.928"
       id="path15443"
       style="fill-rule:evenodd" />
   </g>
</svg>