<svg
   xmlns:svg="http://www.w3.org/2000/svg"
   xmlns="http://www.w3.org/2000/svg"
   version="1.0"
   width="2100"
   height="1300"
   viewBox="0 0 2100 1300"
   id="svg14921">
   <g
     transform="matrix(2.2640019,0,0,2.2640019,-216.71416,-21.6991)"
     id="g14955"
     style="font-size:16.25px;font-style:normal;font-weight:400;fill:#fefee9;fill-opacity:1;fill-rule:evenodd;stroke:#000000;stroke-width:0.0984252;stroke-linecap:square;stroke-linejoin:bevel;stroke-opacity:1;font-family:Lucida Grande">
    <path
       name="braintree" d="M 748.581,237.85 L 748.714,237.928 L 748.814,237.896 L 748.964,237.932 L 749.165,237.98 L 749.276,238.103 L 749.442,238.191 L 749.561,238.275 L 749.9,238.33 L 750.262,238.319 L 750.364,238.388 L 750.57,238.465 L 750.712,238.616 L 750.918,238.762 L 750.966,238.841 L 751.076,238.857 L 751.147,238.808 L 751.265,238.783 L 751.494,238.878 L 751.754,238.893 L 751.842,239.073 L 751.875,239.317 L 751.876,239.584 L 751.83,239.669 L 751.697,239.797 L 751.587,239.828 L 751.611,239.97 L 751.738,240.04 L 751.765,240.582 L 751.666,241.066 L 751.667,241.255 L 751.731,241.349 L 751.731,241.411 L 751.434,241.681 L 751.214,241.839 L 750.697,242.276 L 750.454,242.435 L 750.258,242.46 L 749.905,242.684 L 749.694,242.889 L 749.591,242.929 L 749.221,242.94 L 749.159,242.973 L 749.198,243.018 L 749.703,243.078 L 749.899,242.976 L 750.087,242.8 L 750.267,242.689 L 750.354,242.69 L 750.316,242.886 L 750.301,243.044 L 750.293,243.154 L 750.281,243.272 L 750.303,243.367 L 750.354,243.471 L 750.389,243.552 L 750.302,243.66 L 750.124,243.833 L 748.275,261.602 L 736.615,261.452 L 736.65,261.325 L 736.663,261.247 L 736.674,261.138 L 736.675,261.042 L 736.668,260.959 L 736.679,260.878 L 736.678,260.815 L 736.666,260.743 L 736.643,260.643 L 736.649,260.58 L 736.636,260.519 L 736.608,260.415 L 736.613,260.326 L 736.622,260.236 L 736.647,260.18 L 736.719,260.134 L 736.808,260.12 L 736.867,260.098 L 736.917,260.034 L 736.936,259.934 L 736.9,259.875 L 736.782,259.851 L 736.713,259.832 L 736.667,259.791 L 736.66,259.706 L 736.732,259.631 L 736.781,259.557 L 736.83,259.494 L 736.844,259.417 L 736.856,259.348 L 736.865,259.275 L 736.823,259.024 L 736.82,258.963 L 736.863,258.886 L 736.929,258.832 L 736.946,258.751 L 736.938,258.673 L 736.935,258.598 L 736.974,258.515 L 737.014,258.471 L 737.061,258.417 L 737.102,258.344 L 737.185,258.214 L 737.212,258.152 L 737.195,258.084 L 737.167,258.015 L 737.161,257.952 L 737.115,257.87 L 737.043,257.804 L 737.056,257.717 L 737.093,257.63 L 737.084,257.538 L 737.032,257.267 L 737.037,257.16 L 737.076,257.101 L 737.251,256.975 L 737.284,256.877 L 737.327,256.817 L 737.451,256.694 L 737.496,256.591 L 737.455,256.503 L 737.427,256.444 L 737.409,256.368 L 737.394,256.297 L 737.374,256.217 L 737.375,256.114 L 737.374,256.043 L 737.328,255.996 L 737.284,255.916 L 737.238,255.838 L 737.202,255.76 L 737.197,255.659 L 737.237,255.507 L 737.275,255.407 L 737.339,255.298 L 734.623,253.632 L 730.113,252.615 L 729.54,248.523 L 729.606,248.515 L 729.716,248.529 L 729.786,248.58 L 729.859,248.616 L 729.935,248.602 L 730.026,248.569 L 730.093,248.591 L 730.16,248.598 L 730.25,248.603 L 730.335,248.632 L 730.408,248.631 L 730.481,248.622 L 730.544,248.61 L 730.624,248.558 L 730.631,245.461 L 733.644,241.181 L 739.301,240.87 L 741.528,239.602 L 742.225,239.475 L 746.943,238.372 L 747.037,238.416 L 747.103,238.526 L 747.167,238.485 L 747.179,238.403 L 747.2,238.316 L 747.232,238.208 L 747.272,238.127 L 747.348,238.031 L 747.417,237.968 L 747.469,237.905 L 747.508,237.829 L 747.566,237.701 L 747.613,237.626 L 747.69,237.546 L 747.759,237.507 L 747.84,237.471 L 747.934,237.456 L 747.995,237.46 L 748.052,237.478 L 748.107,237.509 L 748.166,237.543 L 748.215,237.596 L 748.258,237.649 L 748.307,237.681 L 748.398,237.707 L 748.47,237.734 L 748.471,237.82 L 748.581,237.85"
       id="path15649"
       style="fill-rule:evenodd" />
    <path
       name="braintree" d="M 748.581,237.85 L 748.471,237.82 L 748.47,237.734 L 748.543,237.774 L 748.581,237.85"
       id="path15651"
       style="fill-rule:evenodd" />
   </g>
</svg>