<svg
   xmlns:svg="http://www.w3.org/2000/svg"
   xmlns="http://www.w3.org/2000/svg"
   version="1.0"
   width="2100"
   height="1300"
   viewBox="0 0 2100 1300"
   id="svg14921">
   <g
     transform="matrix(2.2640019,0,0,2.2640019,-216.71416,-21.6991)"
     id="g14955"
     style="font-size:16.25px;font-style:normal;font-weight:400;fill:#fefee9;fill-opacity:1;fill-rule:evenodd;stroke:#000000;stroke-width:0.0984252;stroke-linecap:square;stroke-linejoin:bevel;stroke-opacity:1;font-family:Lucida Grande">
    <path
       name="brewster" d="M 967.456,401.364 L 967.664,401.399 L 967.991,401.166 L 968.209,400.973 L 968.412,400.877 L 968.701,400.857 L 968.795,400.823 L 968.964,400.585 L 969.058,400.521 L 969.173,400.368 L 969.272,400.17 L 969.357,400.05 L 969.833,399.806 L 970.23,399.531 L 970.573,399.354 L 970.715,399.334 L 971,399.416 L 971.118,399.431 L 971.163,399.286 L 971.17,399.224 L 971.255,399.144 L 971.872,398.841 L 972.342,398.7 L 972.775,398.694 L 973.332,398.525 L 975.965,397.316 L 977.135,396.675 L 977.402,396.574 L 978.079,396.588 L 978.426,396.637 L 978.78,396.592 L 979.485,396.373 L 980.413,395.806 L 980.794,395.51 L 981.059,395.372 L 981.56,395.205 L 981.832,395.021 L 982.391,394.995 L 982.502,395.032 L 982.797,395.256 L 982.971,395.307 L 983.349,395.277 L 984.108,395.013 L 985.335,394.41 L 986.241,394.008 L 987.725,393.282 L 988.14,393.124 L 988.57,392.913 L 991.222,391.453 L 991.629,391.27 L 991.823,391.103 L 992.284,390.866 L 992.813,390.504 L 993.123,390.2 L 993.428,390.082 L 993.568,389.985 L 994.109,389.836 L 994.219,389.842 L 994.275,389.865 L 994.418,389.948 L 994.542,389.83 L 994.668,389.851 L 995.128,390.039 L 995.2,390.102 L 995.195,390.257 L 995.251,390.29 L 995.463,390.286 L 995.549,390.237 L 995.552,390.139 L 995.66,390.169 L 995.708,390.225 L 995.743,390.28 L 995.748,390.343 L 995.739,390.4 L 995.711,390.454 L 995.676,390.512 L 995.652,390.575 L 995.677,390.665 L 995.777,390.638 L 995.829,390.593 L 995.989,390.502 L 996.074,390.518 L 996.069,390.595 L 996.025,390.643 L 996.069,390.689 L 996.166,390.711 L 996.21,390.771 L 996.273,390.735 L 996.377,390.735 L 996.355,390.808 L 996.356,390.879 L 996.431,390.872 L 996.493,390.837 L 996.565,390.82 L 996.581,390.897 L 996.658,390.944 L 996.71,390.979 L 996.78,390.954 L 996.821,390.896 L 996.857,390.956 L 996.9,391.05 L 996.98,391.114 L 997.025,391.064 L 997.099,391.033 L 997.165,391.099 L 997.19,391.167 L 997.233,391.265 L 997.287,391.305 L 997.347,391.375 L 997.344,391.436 L 997.36,391.518 L 997.424,391.507 L 997.501,391.478 L 997.502,391.541 L 997.467,391.607 L 997.501,391.712 L 997.577,391.701 L 997.638,391.704 L 997.667,391.76 L 997.684,391.829 L 998.271,393.334 L 998.474,393.883 L 999.332,396.139 L 999.368,397.573 L 999.967,398.666 L 1002.13,402.527 L 1002.57,403.288 L 1002.34,403.589 L 1002.24,403.711 L 1002.18,403.809 L 1002.12,403.909 L 1002.06,404.014 L 1001.99,404.143 L 1001.77,404.841 L 1001.87,404.871 L 1001.83,404.997 L 1001.77,405.154 L 1001.68,405.373 L 1001.6,405.544 L 1001.55,405.674 L 1001.48,405.791 L 1001.34,406.006 L 1001.24,406.143 L 1001.09,406.315 L 1001.02,406.399 L 1000.82,406.649 L 1000.63,406.857 L 1000.58,406.951 L 1000.52,407.081 L 1000.45,407.252 L 1000.33,407.526 L 1001.05,408.144 L 1002.91,409.652 L 1003.1,409.798 L 1001.08,409.951 L 994.65,410.371 L 994.581,410.376 L 994.522,410.387 L 994.417,410.468 L 994.371,410.518 L 994.305,410.571 L 994.231,410.605 L 994.148,410.619 L 994.066,410.644 L 994.018,410.694 L 993.992,410.771 L 994.005,410.83 L 994.042,410.916 L 994.097,411.014 L 994.114,411.096 L 994.034,411.213 L 993.78,411.456 L 993.701,411.519 L 993.587,411.551 L 993.493,411.552 L 993.419,411.538 L 993.358,411.518 L 993.301,411.507 L 993.22,411.508 L 993.161,411.523 L 993.103,411.58 L 993.071,411.659 L 992.972,411.704 L 992.917,411.725 L 992.85,411.738 L 992.78,411.743 L 992.716,411.737 L 992.516,411.664 L 992.404,411.552 L 992.35,411.492 L 992.279,411.373 L 992.157,411.206 L 992.039,411.088 L 991.939,411.017 L 991.858,410.967 L 991.691,410.876 L 991.582,410.831 L 991.473,410.8 L 991.311,410.763 L 991.19,410.748 L 991.109,410.742 L 991.045,410.753 L 990.897,410.891 L 990.796,411.011 L 990.645,411.193 L 990.576,411.252 L 990.5,411.304 L 990.441,411.341 L 990.336,411.376 L 990.222,411.39 L 990.102,411.387 L 990.015,411.377 L 989.91,411.363 L 989.853,411.35 L 989.788,411.345 L 989.797,411.524 L 989.816,411.676 L 989.832,411.801 L 989.682,411.889 L 988.263,412.457 L 988.144,412.516 L 988.052,412.542 L 987.939,412.571 L 987.829,412.579 L 987.372,412.608 L 987.075,412.604 L 986.696,412.568 L 986.284,412.516 L 985.756,412.396 L 985.234,412.278 L 985.031,412.231 L 984.787,412.173 L 984.633,412.14 L 984.503,412.115 L 984.258,412.088 L 984.024,412.073 L 983.75,412.065 L 983.478,412.074 L 983.313,412.084 L 982.973,412.117 L 982.724,412.157 L 982.515,412.212 L 982.346,412.266 L 982.207,412.318 L 981.864,412.46 L 981.645,412.565 L 981.518,412.617 L 980.796,412.122 L 980.413,411.858 L 980.224,411.728 L 980.035,411.613 L 979.856,411.516 L 979.506,411.348 L 979.276,411.272 L 979.067,411.206 L 978.792,411.137 L 978.731,411.144 L 978.67,411.163 L 978.61,411.231 L 976.699,411.57 L 976.238,414.714 L 968.968,417.376 L 966.557,418.273 L 964.839,411.343 L 963.352,405.307 L 963.271,405.286 L 963.303,405.216 L 963.357,405.162 L 963.401,405.116 L 963.452,405.02 L 963.439,404.959 L 963.41,404.907 L 963.381,404.856 L 963.394,404.799 L 963.451,404.736 L 963.474,404.681 L 963.5,404.617 L 963.537,404.518 L 963.577,404.45 L 963.621,404.4 L 963.675,404.369 L 963.746,404.358 L 963.822,404.325 L 963.921,404.285 L 964.005,404.263 L 964.055,404.203 L 964.138,404.217 L 964.18,404.153 L 964.256,404.11 L 964.314,404.089 L 964.374,404.101 L 964.435,404.12 L 964.477,404.079 L 964.499,403.982 L 964.533,403.932 L 964.609,403.913 L 964.724,403.875 L 964.774,403.958 L 964.824,403.855 L 964.814,403.792 L 964.927,403.79 L 965.003,403.762 L 965.059,403.806 L 965.128,403.81 L 965.199,403.807 L 965.359,403.809 L 965.355,403.736 L 965.332,403.672 L 965.386,403.627 L 965.44,403.66 L 965.494,403.609 L 965.538,403.569 L 965.494,403.517 L 965.52,403.459 L 965.596,403.426 L 965.666,403.387 L 965.757,403.355 L 965.897,403.179 L 965.956,403.181 L 965.989,403.244 L 966.044,403.309 L 966.104,403.276 L 966.118,403.197 L 966.143,403.122 L 966.22,403.185 L 966.279,403.186 L 966.279,403.107 L 966.25,403.039 L 966.272,402.971 L 966.338,402.919 L 966.43,402.919 L 966.512,402.962 L 966.593,402.978 L 966.597,402.913 L 966.586,402.852 L 966.541,402.792 L 966.469,402.817 L 966.414,402.789 L 966.451,402.715 L 966.557,402.634 L 966.624,402.68 L 966.692,402.661 L 966.746,402.695 L 966.773,402.749 L 966.841,402.734 L 966.852,402.671 L 966.912,402.636 L 966.954,402.584 L 967,402.624 L 967.041,402.69 L 967.091,402.648 L 967.09,402.589 L 967.108,402.529 L 967.087,402.465 L 967.001,402.427 L 966.941,402.358 L 966.921,402.281 L 966.935,402.202 L 966.989,402.15 L 967.076,402.162 L 967.148,402.209 L 967.22,402.259 L 967.315,402.29 L 967.374,402.275 L 967.412,402.221 L 967.399,402.164 L 967.341,402.132 L 967.29,402.066 L 967.249,401.983 L 967.156,401.967 L 967.051,401.916 L 967.055,401.83 L 967.09,401.762 L 967.158,401.715 L 967.214,401.682 L 967.278,401.633 L 967.318,401.583 L 967.356,401.504 L 967.4,401.432 L 967.456,401.364"
       id="path15925"
       style="fill-rule:evenodd" />
   </g>
</svg>