<svg
   xmlns:svg="http://www.w3.org/2000/svg"
   xmlns="http://www.w3.org/2000/svg"
   version="1.0"
   width="2100"
   height="1300"
   viewBox="0 0 2100 1300"
   id="svg14921">
   <g
     transform="matrix(2.2640019,0,0,2.2640019,-216.71416,-21.6991)"
     id="g14955"
     style="font-size:16.25px;font-style:normal;font-weight:400;fill:#fefee9;fill-opacity:1;fill-rule:evenodd;stroke:#000000;stroke-width:0.0984252;stroke-linecap:square;stroke-linejoin:bevel;stroke-opacity:1;font-family:Lucida Grande">
    <path
       name="brimfield" d="M 451.581,263.638 L 451.476,276.277 L 451.394,288.117 L 436.605,287.707 L 422.028,287.294 L 416.772,287.17 L 416.213,275.971 L 415.787,269.509 L 415.857,269.587 L 415.892,269.656 L 415.944,269.728 L 416.016,269.807 L 416.063,269.843 L 416.143,269.86 L 416.387,269.827 L 416.541,269.788 L 416.601,269.763 L 416.654,269.728 L 416.714,269.674 L 416.778,269.602 L 416.816,269.549 L 416.868,269.461 L 416.917,269.369 L 416.959,269.281 L 417.14,268.974 L 417.163,268.91 L 417.207,268.812 L 417.222,268.724 L 417.209,268.645 L 417.183,268.554 L 417.157,268.473 L 417.144,268.374 L 417.151,268.298 L 417.187,268.229 L 417.357,268.023 L 417.418,267.933 L 417.491,267.851 L 417.504,267.765 L 417.51,267.635 L 417.535,267.562 L 417.566,267.462 L 417.605,267.331 L 417.621,267.262 L 417.628,267.199 L 417.637,267.14 L 417.63,267.069 L 417.631,266.994 L 417.656,266.873 L 417.771,266.63 L 417.81,266.55 L 417.822,266.489 L 417.814,266.414 L 417.803,266.353 L 417.799,266.292 L 417.814,266.207 L 417.853,266.131 L 417.92,266.075 L 418.004,266.033 L 418.073,265.998 L 418.141,265.918 L 418.179,265.83 L 418.163,265.737 L 418.154,265.674 L 418.112,265.593 L 418.081,265.538 L 418.029,265.446 L 417.959,265.377 L 417.906,265.343 L 417.848,265.318 L 417.779,265.282 L 417.717,265.226 L 417.676,265.179 L 417.623,265.082 L 417.598,264.983 L 417.572,264.89 L 417.534,264.772 L 417.488,264.572 L 417.446,264.454 L 417.451,264.383 L 417.44,264.294 L 417.459,264.184 L 417.484,264.122 L 417.546,264.038 L 417.602,263.985 L 417.665,263.929 L 417.765,263.859 L 417.817,263.793 L 417.849,263.717 L 417.848,263.646 L 417.835,263.573 L 417.805,263.482 L 417.758,263.422 L 417.698,263.359 L 417.654,263.303 L 417.597,263.255 L 417.553,263.213 L 417.514,263.167 L 417.495,263.092 L 417.483,263.006 L 417.476,262.937 L 417.487,262.827 L 417.498,262.762 L 417.522,262.701 L 417.572,262.629 L 417.611,262.531 L 417.637,262.472 L 417.67,262.361 L 417.691,262.29 L 417.7,262.211 L 417.724,262.145 L 417.765,262.004 L 417.803,261.953 L 417.839,261.892 L 417.896,261.787 L 417.982,261.709 L 418.055,261.655 L 418.14,261.624 L 418.209,261.592 L 418.352,261.546 L 418.402,261.484 L 418.432,261.419 L 418.455,261.305 L 418.489,261.247 L 418.542,261.153 L 418.595,261.104 L 418.691,261.035 L 418.752,261.033 L 418.847,260.979 L 418.909,260.893 L 418.933,260.837 L 418.97,260.763 L 419.012,260.68 L 419.047,260.598 L 419.051,260.519 L 419.064,260.425 L 419.105,260.365 L 419.147,260.283 L 419.164,260.222 L 419.185,260.114 L 419.209,260.016 L 419.142,259.889 L 419.069,259.799 L 418.982,259.696 L 418.91,259.603 L 418.739,259.422 L 418.678,259.305 L 418.663,259.246 L 418.652,259.189 L 418.643,259.09 L 418.619,258.997 L 418.606,258.905 L 418.625,258.828 L 418.695,258.75 L 418.754,258.719 L 418.841,258.671 L 418.917,258.641 L 418.988,258.6 L 419.026,258.548 L 419.078,258.473 L 419.122,258.409 L 419.159,258.315 L 419.176,258.237 L 419.188,258.15 L 419.176,258.089 L 419.134,257.986 L 419.08,257.907 L 418.822,257.581 L 418.783,257.529 L 418.761,257.466 L 418.754,257.378 L 418.747,257.299 L 418.75,257.212 L 418.743,257.149 L 418.709,257.068 L 418.654,256.934 L 418.627,256.862 L 418.632,256.78 L 418.676,256.7 L 418.752,256.598 L 418.795,256.471 L 418.783,256.384 L 418.77,256.305 L 418.753,256.217 L 418.736,256.155 L 418.687,256.045 L 418.647,255.95 L 418.628,255.894 L 418.615,255.802 L 422.274,257.554 L 434.728,263.684 L 435.052,266.301 L 449.806,263.897 L 451.581,263.638"
       id="path15697"
       style="fill-rule:evenodd" />
   </g>
</svg>