<svg
   xmlns:svg="http://www.w3.org/2000/svg"
   xmlns="http://www.w3.org/2000/svg"
   version="1.0"
   width="2100"
   height="1300"
   viewBox="0 0 2100 1300"
   id="svg14921">
   <g
     transform="matrix(2.2640019,0,0,2.2640019,-216.71416,-21.6991)"
     id="g14955"
     style="font-size:16.25px;font-style:normal;font-weight:400;fill:#fefee9;fill-opacity:1;fill-rule:evenodd;stroke:#000000;stroke-width:0.0984252;stroke-linecap:square;stroke-linejoin:bevel;stroke-opacity:1;font-family:Lucida Grande">
    <path
       name="brockton" d="M 741.824,276 L 741.907,276.499 L 742.462,279.651 L 742.678,281.024 L 747.637,280.282 L 747.841,280.607 L 747.791,280.714 L 747.712,280.848 L 747.67,280.913 L 747.639,280.975 L 747.615,281.075 L 747.579,281.162 L 747.519,281.221 L 747.433,281.263 L 747.355,281.306 L 747.314,281.352 L 747.292,281.472 L 747.333,281.566 L 747.383,281.632 L 747.427,281.676 L 747.468,281.784 L 747.459,281.841 L 747.443,281.92 L 747.426,281.989 L 747.439,282.052 L 747.505,282.125 L 747.556,282.16 L 747.665,282.188 L 747.772,282.206 L 747.855,282.242 L 747.873,282.312 L 747.906,282.491 L 747.962,282.555 L 748,282.617 L 748.009,282.713 L 748.006,282.794 L 748.036,282.909 L 748.068,282.966 L 748.095,283.081 L 748.091,283.177 L 748.078,283.264 L 748.068,283.327 L 748.102,283.519 L 748.209,283.73 L 748.225,283.838 L 748.29,283.97 L 748.302,284.033 L 748.319,284.102 L 748.393,284.199 L 748.426,284.263 L 748.453,284.367 L 748.422,284.45 L 748.361,284.537 L 748.317,284.626 L 748.304,284.713 L 748.324,284.809 L 748.345,284.915 L 748.306,285.11 L 748.325,285.174 L 748.382,285.288 L 748.428,285.385 L 748.45,285.503 L 748.473,285.622 L 748.624,285.952 L 748.698,286.187 L 748.762,286.396 L 748.79,286.555 L 748.798,286.751 L 748.808,286.9 L 748.783,287.04 L 748.737,287.127 L 748.714,287.196 L 748.708,287.279 L 748.731,287.418 L 748.738,287.505 L 748.714,287.591 L 748.688,287.69 L 748.718,287.9 L 748.72,288.002 L 748.711,288.11 L 748.699,288.222 L 748.667,288.309 L 748.641,288.408 L 748.62,288.491 L 748.594,288.568 L 748.575,288.635 L 748.57,288.702 L 748.589,288.776 L 748.652,288.962 L 748.736,289.169 L 748.753,289.245 L 748.736,289.314 L 748.66,289.45 L 748.383,289.558 L 748.779,295.035 L 747.357,295.819 L 745.034,299.083 L 745.769,303.536 L 742.607,304.091 L 736.615,305.095 L 735.85,300.637 L 724.579,302.532 L 721.716,286.789 L 726.616,284.154 L 736.735,278.734 L 740.925,276.505 L 741.824,276"
       id="path15757"
       style="fill-rule:evenodd" />
   </g>
</svg>