<svg
   xmlns:svg="http://www.w3.org/2000/svg"
   xmlns="http://www.w3.org/2000/svg"
   version="1.0"
   width="2100"
   height="1300"
   viewBox="0 0 2100 1300"
   id="svg14921">
   <g
     transform="matrix(2.2640019,0,0,2.2640019,-216.71416,-21.6991)"
     id="g14955"
     style="font-size:16.25px;font-style:normal;font-weight:400;fill:#fefee9;fill-opacity:1;fill-rule:evenodd;stroke:#000000;stroke-width:0.0984252;stroke-linecap:square;stroke-linejoin:bevel;stroke-opacity:1;font-family:Lucida Grande">
    <path
       name="burlington" d="M 698.211,142.309 L 698.584,147.617 L 698.642,148.314 L 698.552,150.913 L 698.084,151.171 L 698.558,152.103 L 695.338,153.298 L 695.384,153.396 L 694.959,153.819 L 694.549,153.964 L 693.928,154.284 L 689.533,159.422 L 688.03,157.751 L 687.876,158.937 L 687.842,158.985 L 687.746,159.054 L 687.709,159.139 L 687.668,159.22 L 687.612,159.265 L 687.545,159.301 L 680.18,151.129 L 681.632,147.683 L 682.805,144.675 L 684.996,139.053 L 685.987,139.436 L 689.273,132.367 L 698.211,142.309"
       id="path15273"
       style="fill-rule:evenodd" />
   </g>
</svg>