<svg
   xmlns:svg="http://www.w3.org/2000/svg"
   xmlns="http://www.w3.org/2000/svg"
   version="1.0"
   width="2100"
   height="1300"
   viewBox="0 0 2100 1300"
   id="svg14921">
   <g
     transform="matrix(2.2640019,0,0,2.2640019,-216.71416,-21.6991)"
     id="g14955"
     style="font-size:16.25px;font-style:normal;font-weight:400;fill:#fefee9;fill-opacity:1;fill-rule:evenodd;stroke:#000000;stroke-width:0.0984252;stroke-linecap:square;stroke-linejoin:bevel;stroke-opacity:1;font-family:Lucida Grande">
    <path
       name="cambridge" d="M 702.921,181.807 L 702.965,181.735 L 705.25,183.009 L 705.257,182.943 L 705.281,182.874 L 705.475,182.668 L 705.647,182.484 L 705.693,182.368 L 705.754,182.266 L 705.844,182.169 L 705.983,182.074 L 706.187,181.976 L 706.474,181.92 L 706.588,181.91 L 706.716,181.86 L 706.819,181.793 L 706.931,181.721 L 707.027,181.632 L 707.092,181.518 L 707.183,181.346 L 707.287,181.147 L 707.366,180.946 L 707.399,180.769 L 707.41,180.585 L 708.216,181.462 L 709.299,183.09 L 709.82,183.896 L 710.013,184.158 L 710.436,184.699 L 710.917,184.265 L 711.098,184.56 L 711.954,185.642 L 711.685,185.814 L 711.826,186.031 L 711.676,186.125 L 711.607,186.165 L 711.969,186.607 L 712.326,187.187 L 713.327,188.296 L 713.557,188.323 L 714.268,189.132 L 714.196,189.164 L 715.326,190.577 L 715.546,190.823 L 715.969,190.832 L 716.253,190.8 L 716.923,190.781 L 717.912,190.852 L 718.894,190.956 L 719.836,191.238 L 719.998,190.925 L 720.204,191.1 L 720.284,191.159 L 720.369,191.195 L 720.438,191.195 L 720.501,191.176 L 720.569,191.147 L 720.767,191.115 L 720.887,191.044 L 721.055,190.949 L 721.179,190.854 L 721.451,190.889 L 721.526,190.939 L 721.631,190.958 L 721.73,190.985 L 721.858,191.012 L 721.952,191.02 L 722.151,191.025 L 722.45,191.115 L 722.613,191.33 L 722.815,191.361 L 723.16,191.144 L 723.249,191.153 L 723.317,191.381 L 724.684,191.664 L 725.488,192.653 L 724.086,192.621 L 723.009,193.999 L 722.738,194.443 L 722.701,194.534 L 722.662,194.639 L 722.443,195.782 L 722.424,195.883 L 722.395,195.986 L 722.348,196.064 L 722.271,196.142 L 722.211,196.195 L 722.129,196.244 L 722.009,196.314 L 718.335,197.882 L 718.196,197.928 L 715.67,198.374 L 715.44,198.405 L 714.721,198.442 L 714.434,198.451 L 713.837,198.414 L 713.726,198.399 L 713.303,198.292 L 713.114,198.244 L 712.892,198.166 L 712.708,198.054 L 712.475,197.909 L 712.234,197.674 L 712.087,197.506 L 712.005,197.382 L 711.974,197.225 L 711.927,197.055 L 711.931,196.826 L 711.951,196.639 L 711.998,196.297 L 712.028,196.069 L 712.043,195.931 L 712.041,195.768 L 711.954,194.841 L 711.94,194.52 L 711.954,193.927 L 711.941,193.762 L 711.947,193.501 L 711.929,193.389 L 711.881,193.256 L 711.818,193.08 L 711.773,192.992 L 711.701,192.917 L 711.609,192.865 L 711.5,192.828 L 711.437,192.809 L 710.698,192.781 L 710.576,192.761 L 710.395,192.734 L 710.278,192.686 L 710.188,192.614 L 710.1,192.541 L 710.048,192.502 L 709.998,192.461 L 709.809,192.126 L 709.71,191.948 L 709.554,191.689 L 709.465,191.541 L 709.418,191.478 L 709.356,191.384 L 709.283,191.324 L 709.198,191.244 L 709.115,191.185 L 709.036,191.142 L 708.96,191.105 L 708.857,191.062 L 708.717,191.033 L 708.587,191.034 L 708.452,191.048 L 708.353,191.07 L 708.247,191.112 L 708.116,191.174 L 708.024,191.241 L 707.957,191.296 L 707.914,191.373 L 707.858,191.505 L 707.842,191.566 L 707.859,191.692 L 707.93,191.839 L 707.978,191.916 L 708.039,192.004 L 708.069,192.057 L 708.091,192.112 L 708.122,192.19 L 708.156,192.275 L 708.177,192.414 L 708.165,192.481 L 708.15,192.538 L 708.115,192.595 L 708.001,192.747 L 707.954,192.797 L 707.878,192.878 L 707.735,193.003 L 707.651,193.076 L 707.567,193.136 L 707.433,193.207 L 707.26,193.291 L 707.103,193.37 L 706.972,193.45 L 706.882,193.564 L 706.717,193.75 L 706.555,193.963 L 706.449,194.068 L 706.355,194.179 L 706.281,194.246 L 706.22,194.286 L 706.159,194.304 L 706.09,194.316 L 706.015,194.326 L 705.944,194.336 L 705.867,194.319 L 705.769,194.292 L 705.694,194.265 L 705.56,194.2 L 705.497,194.171 L 705.424,194.134 L 705.309,194.105 L 705.244,194.109 L 705.155,194.124 L 705.002,193.576 L 705.33,193.478 L 705.401,193.406 L 705.945,192.253 L 705.97,192.157 L 706.059,191.132 L 705.049,190.979 L 705.109,190.547 L 704.944,190.548 L 704.777,190.553 L 704.562,190.573 L 704.428,190.607 L 703.449,190.901 L 703.414,190.814 L 702.432,190.638 L 701.913,188.759 L 702.207,188.882 L 702.18,188.681 L 702.127,188.65 L 702.182,188.575 L 702.063,188.473 L 701.864,188.407 L 701.648,188.335 L 701.565,188.284 L 701.624,188.205 L 701.525,188.127 L 700.84,186.672 L 701.235,186.633 L 701.347,186.584 L 701.398,186.538 L 701.657,185.5 L 701.653,185.433 L 701.644,185.353 L 701.322,183.991 L 701.862,183.544 L 702.921,181.807"
       id="path15433"
       style="fill-rule:evenodd" />
   </g>
</svg>