<svg
   xmlns:svg="http://www.w3.org/2000/svg"
   xmlns="http://www.w3.org/2000/svg"
   version="1.0"
   width="2100"
   height="1300"
   viewBox="0 0 2100 1300"
   id="svg14921">
   <g
     transform="matrix(2.2640019,0,0,2.2640019,-216.71416,-21.6991)"
     id="g14955"
     style="font-size:16.25px;font-style:normal;font-weight:400;fill:#fefee9;fill-opacity:1;fill-rule:evenodd;stroke:#000000;stroke-width:0.0984252;stroke-linecap:square;stroke-linejoin:bevel;stroke-opacity:1;font-family:Lucida Grande">
    <path
       name="canton" d="M 708.654,241.293 L 710.265,243.316 L 715.776,250.639 L 725.184,263.172 L 717.811,268.766 L 710.378,271.192 L 708.491,271.81 L 708.467,271.755 L 708.666,270.68 L 708.658,270.585 L 707.736,270.263 L 707.61,270.913 L 706.952,270.711 L 706.88,270.782 L 706.84,270.837 L 706.742,270.899 L 706.717,271.025 L 706.688,271.108 L 706.718,271.163 L 706.724,271.231 L 706.714,271.328 L 706.703,271.42 L 706.693,271.511 L 706.412,271.618 L 706.181,272.251 L 705.221,272.367 L 704.057,272.053 L 700.38,271.059 L 700.726,269.753 L 698.18,267.611 L 697.077,266.309 L 697.222,266.205 L 696.679,263.354 L 696.665,263.263 L 696.758,263.324 L 696.84,263.318 L 696.873,263.271 L 696.893,263.202 L 696.893,263.137 L 696.857,263.033 L 696.896,262.982 L 696.971,262.999 L 697.058,263.028 L 697.156,263.02 L 697.213,262.976 L 697.219,262.907 L 697.177,262.845 L 697.121,262.75 L 697.115,262.687 L 697.178,262.634 L 697.255,262.636 L 697.367,262.645 L 697.656,262.693 L 697.766,262.659 L 697.819,262.57 L 697.758,262.488 L 697.736,262.417 L 697.708,262.364 L 697.702,262.209 L 697.698,262.132 L 697.776,262.016 L 697.859,262.001 L 697.904,262.056 L 697.926,262.143 L 697.966,262.227 L 698.062,262.272 L 698.155,262.258 L 698.247,262.151 L 698.223,262.063 L 698.197,261.996 L 698.212,261.89 L 698.295,261.842 L 698.434,261.816 L 698.525,261.802 L 698.617,261.77 L 698.668,261.718 L 698.686,261.659 L 698.699,261.555 L 698.801,261.509 L 698.876,261.544 L 698.939,261.56 L 699.008,261.579 L 699.071,261.573 L 699.213,261.576 L 699.329,261.554 L 699.384,261.522 L 699.401,261.438 L 699.377,261.349 L 699.332,261.296 L 699.253,261.216 L 699.193,261.118 L 699.124,260.953 L 699.029,260.747 L 698.983,260.596 L 698.989,260.501 L 699.008,260.43 L 699.102,260.278 L 699.155,260.254 L 699.226,260.268 L 699.285,260.293 L 699.362,260.336 L 699.427,260.359 L 699.488,260.363 L 699.586,260.327 L 699.667,260.299 L 699.734,260.305 L 699.797,260.314 L 699.855,260.304 L 699.958,260.284 L 700.054,260.323 L 700.186,260.303 L 700.239,260.234 L 700.272,260.182 L 700.27,260.116 L 700.291,260.056 L 700.327,259.989 L 700.309,259.873 L 700.226,259.793 L 700.157,259.76 L 700.021,259.719 L 699.906,259.667 L 699.835,259.596 L 699.809,259.5 L 699.841,259.429 L 699.933,259.393 L 700.122,259.315 L 700.157,259.239 L 700.135,259.132 L 700.089,259.087 L 700.028,259.025 L 699.925,258.951 L 699.823,258.898 L 699.716,258.822 L 699.614,258.753 L 699.572,258.708 L 699.55,258.637 L 699.523,258.547 L 699.489,258.384 L 699.417,258.315 L 699.333,258.288 L 699.28,258.265 L 699.228,258.198 L 699.22,258.104 L 699.247,258.031 L 699.353,257.958 L 699.434,257.961 L 699.524,257.963 L 699.625,257.935 L 699.741,257.924 L 699.794,257.901 L 699.874,257.847 L 699.925,257.786 L 699.945,257.697 L 700.005,257.63 L 700.108,257.578 L 700.15,257.498 L 700.168,257.434 L 700.17,257.358 L 700.15,257.252 L 700.096,257.214 L 700.033,257.193 L 699.915,257.164 L 699.873,257.064 L 699.895,256.972 L 699.938,256.932 L 699.953,256.871 L 699.995,256.804 L 700.041,256.725 L 700.092,256.624 L 700.129,256.567 L 700.169,256.49 L 700.214,256.407 L 700.294,256.305 L 700.376,256.232 L 700.441,256.184 L 700.476,256.137 L 700.509,256.077 L 700.517,255.995 L 700.507,255.904 L 700.508,255.747 L 700.516,255.668 L 700.535,255.603 L 700.588,255.503 L 700.637,255.428 L 700.682,255.364 L 700.735,255.301 L 700.802,255.224 L 700.89,255.163 L 700.943,255.123 L 701.017,255.078 L 701.084,255.024 L 701.137,254.975 L 701.17,254.924 L 701.205,254.855 L 701.217,254.788 L 701.233,254.711 L 701.24,254.622 L 701.244,254.526 L 701.239,254.441 L 701.253,254.359 L 701.276,254.286 L 701.307,254.093 L 701.328,253.987 L 701.369,253.896 L 701.408,253.778 L 701.439,253.677 L 701.478,253.523 L 701.546,253.366 L 701.588,253.295 L 701.631,253.224 L 701.67,253.153 L 701.707,253.07 L 701.73,252.989 L 701.738,252.906 L 701.739,252.8 L 701.766,252.641 L 701.815,252.55 L 701.896,252.508 L 701.964,252.484 L 702.072,252.447 L 702.155,252.425 L 702.216,252.405 L 702.271,252.337 L 702.29,252.278 L 702.314,252.198 L 702.347,252.093 L 702.413,252.032 L 702.526,251.977 L 702.598,251.924 L 702.663,251.865 L 702.708,251.812 L 702.776,251.705 L 702.819,251.662 L 702.91,251.647 L 702.978,251.649 L 703.067,251.653 L 703.148,251.615 L 703.202,251.556 L 703.226,251.473 L 703.251,251.402 L 703.286,251.335 L 703.359,251.246 L 703.406,251.197 L 703.465,251.137 L 703.527,251.084 L 703.58,251.043 L 703.623,250.995 L 703.655,250.93 L 703.676,250.853 L 703.713,250.749 L 703.721,250.652 L 703.769,250.516 L 703.826,250.463 L 703.881,250.392 L 703.954,250.325 L 704.077,250.204 L 704.216,250.078 L 704.338,249.928 L 704.436,249.799 L 704.496,249.701 L 704.659,249.525 L 704.716,249.462 L 704.759,249.375 L 704.755,249.275 L 704.741,249.2 L 704.742,249.117 L 704.766,249.019 L 704.803,248.958 L 704.846,248.863 L 704.857,248.787 L 704.857,248.708 L 704.792,248.671 L 704.701,248.699 L 704.644,248.738 L 704.591,248.768 L 704.521,248.806 L 704.464,248.835 L 704.356,248.83 L 704.279,248.781 L 704.225,248.683 L 704.221,248.624 L 704.233,248.567 L 704.258,248.51 L 704.279,248.449 L 704.32,248.348 L 704.379,248.242 L 704.438,248.137 L 704.522,248.015 L 704.626,247.892 L 704.698,247.829 L 704.815,247.743 L 704.908,247.689 L 704.971,247.657 L 705.02,247.621 L 705.073,247.585 L 705.144,247.499 L 705.173,247.434 L 705.196,247.341 L 705.241,247.248 L 705.274,247.175 L 705.339,247.085 L 705.425,247.041 L 705.482,246.999 L 705.557,246.993 L 705.641,246.955 L 705.685,246.914 L 705.731,246.799 L 705.694,246.711 L 705.66,246.664 L 705.607,246.599 L 705.532,246.525 L 705.486,246.484 L 705.464,246.425 L 705.462,246.352 L 705.474,246.277 L 705.491,246.21 L 705.558,246.127 L 705.617,246.086 L 705.664,246.042 L 705.695,245.975 L 705.683,245.901 L 705.647,245.822 L 705.62,245.745 L 705.603,245.665 L 705.601,245.572 L 705.601,245.441 L 705.606,245.297 L 705.629,245.21 L 705.668,245.112 L 705.701,244.954 L 705.732,244.85 L 705.756,244.791 L 705.87,244.735 L 705.952,244.674 L 705.999,244.628 L 705.977,244.526 L 705.914,244.465 L 705.843,244.418 L 705.768,244.352 L 705.756,244.248 L 705.769,244.179 L 705.82,244.102 L 705.853,244.005 L 705.908,243.895 L 705.955,243.836 L 706.006,243.761 L 706.039,243.688 L 706.094,243.595 L 706.129,243.514 L 706.16,243.425 L 706.181,243.258 L 706.207,243.179 L 706.254,243.126 L 706.279,243.041 L 706.292,242.951 L 706.292,242.886 L 706.266,242.76 L 706.307,242.673 L 706.352,242.608 L 706.421,242.517 L 706.577,242.326 L 706.873,241.892 L 707.006,241.718 L 707.118,241.613 L 707.238,241.615 L 707.309,241.636 L 707.382,241.647 L 707.464,241.655 L 707.562,241.613 L 707.615,241.574 L 707.686,241.522 L 707.788,241.488 L 707.91,241.503 L 707.971,241.521 L 708.023,241.55 L 708.078,241.576 L 708.151,241.575 L 708.245,241.569 L 708.375,241.521 L 708.459,241.465 L 708.534,241.41 L 708.604,241.345 L 708.654,241.293"
       id="path15667"
       style="fill-rule:evenodd" />
   </g>
</svg>