<svg
   xmlns:svg="http://www.w3.org/2000/svg"
   xmlns="http://www.w3.org/2000/svg"
   version="1.0"
   width="2100"
   height="1300"
   viewBox="0 0 2100 1300"
   id="svg14921">
   <g
     transform="matrix(2.2640019,0,0,2.2640019,-216.71416,-21.6991)"
     id="g14955"
     style="font-size:16.25px;font-style:normal;font-weight:400;fill:#fefee9;fill-opacity:1;fill-rule:evenodd;stroke:#000000;stroke-width:0.0984252;stroke-linecap:square;stroke-linejoin:bevel;stroke-opacity:1;font-family:Lucida Grande">
    <path
       name="carver" d="M 804.725,337.128 L 806.122,342.077 L 806.827,344.574 L 807.113,344.954 L 818.337,361.968 L 825.106,372.109 L 824.942,372.094 L 824.832,372.086 L 824.742,372.087 L 824.671,372.089 L 824.508,372.152 L 824.264,372.351 L 823.853,372.776 L 823.72,372.942 L 823.396,373.386 L 823.16,373.689 L 823.03,373.838 L 822.952,373.92 L 822.891,373.961 L 822.84,374.003 L 822.796,374.069 L 822.771,374.122 L 822.743,374.268 L 822.729,374.691 L 822.611,374.718 L 822.54,374.726 L 822.458,374.757 L 822.417,374.802 L 822.308,374.921 L 822.115,375.118 L 822.068,375.16 L 822.009,375.196 L 821.904,375.252 L 821.813,375.302 L 821.755,375.354 L 821.722,375.401 L 821.645,375.546 L 821.582,375.81 L 821.563,375.875 L 821.524,375.94 L 821.47,376.024 L 821.455,376.13 L 821.448,376.268 L 821.455,376.406 L 821.448,376.498 L 821.389,376.619 L 821.32,376.677 L 821.267,376.712 L 821.242,376.772 L 821.188,376.839 L 821.143,376.903 L 821.102,376.954 L 821.06,377.023 L 821.001,377.073 L 820.913,377.125 L 820.862,377.177 L 820.828,377.291 L 820.813,377.36 L 820.816,377.455 L 820.838,377.533 L 820.85,377.598 L 820.831,377.657 L 820.767,377.685 L 820.713,377.662 L 820.662,377.629 L 820.551,377.593 L 820.451,377.613 L 820.381,377.64 L 820.292,377.621 L 820.211,377.58 L 820.144,377.652 L 820.148,377.778 L 820.142,377.841 L 820.112,377.916 L 820.021,377.946 L 819.842,377.932 L 819.761,377.936 L 819.649,377.922 L 819.578,377.901 L 819.511,377.901 L 819.438,377.884 L 819.369,377.846 L 819.29,377.768 L 819.211,377.792 L 819.14,377.765 L 818.842,377.713 L 818.752,377.719 L 818.654,377.752 L 818.583,377.782 L 818.503,377.802 L 818.407,377.89 L 818.372,377.955 L 818.334,378.016 L 818.303,378.07 L 818.287,378.133 L 818.282,378.206 L 818.263,378.296 L 818.217,378.413 L 818.171,378.482 L 818.124,378.528 L 818.077,378.576 L 818.081,378.788 L 818.101,379.018 L 818.116,379.142 L 818.122,379.233 L 818.111,379.296 L 818.088,379.377 L 817.956,379.596 L 817.861,379.718 L 817.762,379.854 L 817.688,379.892 L 817.643,379.93 L 817.59,380.043 L 817.536,380.134 L 817.47,380.197 L 817.417,380.237 L 817.367,380.326 L 817.309,380.413 L 817.256,380.465 L 817.207,380.532 L 817.15,380.687 L 817.066,380.825 L 816.998,380.918 L 816.936,381.023 L 816.822,381.213 L 816.686,381.401 L 816.626,381.508 L 816.569,381.56 L 816.503,381.592 L 816.438,381.636 L 816.422,381.76 L 816.375,381.798 L 816.34,381.853 L 816.338,381.912 L 816.371,381.989 L 816.46,382.13 L 816.408,382.175 L 816.41,382.244 L 816.348,382.288 L 816.199,382.555 L 816.192,382.644 L 816.186,382.711 L 816.213,382.801 L 816.194,382.872 L 816.173,382.961 L 816.207,383.036 L 816.218,383.13 L 816.215,383.27 L 816.233,383.35 L 816.258,383.421 L 816.203,383.518 L 816.151,383.597 L 816.086,383.641 L 816.036,383.699 L 815.992,383.819 L 815.968,383.979 L 815.953,384.083 L 815.918,384.188 L 815.839,384.281 L 815.802,384.362 L 815.769,384.449 L 815.737,384.546 L 815.737,384.613 L 815.813,384.707 L 815.894,384.81 L 815.926,384.861 L 815.939,384.93 L 815.882,384.991 L 815.832,385.025 L 815.773,385.069 L 815.725,385.152 L 815.713,385.223 L 815.677,385.291 L 815.687,385.389 L 815.674,385.464 L 815.647,385.539 L 815.638,385.608 L 815.651,385.68 L 815.645,385.755 L 815.638,385.83 L 815.663,385.924 L 815.683,385.989 L 815.717,386.036 L 815.757,386.111 L 815.777,386.219 L 815.833,386.311 L 815.883,386.366 L 815.864,386.446 L 815.784,386.484 L 815.701,386.515 L 815.647,386.541 L 815.628,386.626 L 815.654,386.69 L 815.676,386.773 L 815.645,386.854 L 815.662,386.972 L 815.686,387.033 L 815.715,387.129 L 815.676,387.22 L 815.683,387.295 L 809.709,387.795 L 807.467,385.255 L 802.105,379.107 L 801.813,377.934 L 801.774,377.873 L 801.744,377.799 L 801.711,377.734 L 801.671,377.684 L 801.616,377.547 L 801.648,377.46 L 801.675,377.395 L 801.629,377.317 L 801.608,377.258 L 801.575,377.17 L 801.535,377.121 L 801.48,377.101 L 801.358,377.087 L 801.169,377.082 L 801.063,377.095 L 800.989,377.142 L 800.85,377.185 L 800.763,377.151 L 800.702,377.069 L 800.672,377.015 L 800.608,376.968 L 800.528,376.95 L 800.451,376.937 L 800.374,376.948 L 800.296,377 L 800.24,377.039 L 800.151,377.032 L 800.098,377 L 800.019,377.008 L 799.932,377.004 L 799.898,377.056 L 799.872,377.149 L 799.801,377.173 L 799.776,377.099 L 799.748,377.015 L 799.677,377.008 L 799.635,376.967 L 799.651,376.886 L 799.668,376.821 L 799.637,376.735 L 799.621,376.572 L 799.563,376.506 L 799.503,376.527 L 799.525,376.603 L 799.457,376.624 L 799.403,376.569 L 799.388,376.483 L 799.33,376.443 L 799.267,376.438 L 799.196,376.437 L 799.123,376.414 L 799.043,376.429 L 798.95,376.427 L 798.891,376.396 L 798.778,376.321 L 798.711,376.22 L 798.655,376.175 L 798.594,376.157 L 798.47,376.137 L 798.418,376.185 L 798.405,376.283 L 798.359,376.365 L 798.307,376.291 L 798.292,376.228 L 798.252,376.142 L 798.206,376.099 L 798.134,376.044 L 798.026,375.931 L 797.901,375.842 L 797.827,375.857 L 797.798,375.805 L 797.813,375.745 L 797.8,375.636 L 797.73,375.597 L 797.646,375.591 L 797.555,375.588 L 797.502,375.55 L 797.442,375.48 L 797.363,375.475 L 797.306,375.484 L 797.241,375.469 L 797.129,375.215 L 797.164,375.096 L 797.177,375.031 L 797.18,374.954 L 797.179,374.884 L 797.231,374.828 L 797.28,374.778 L 797.3,374.705 L 797.316,374.6 L 797.351,374.551 L 797.426,374.463 L 797.51,374.418 L 797.47,374.352 L 797.422,374.319 L 797.353,374.259 L 797.373,374.196 L 797.398,374.119 L 797.413,374.06 L 797.394,373.991 L 797.411,373.932 L 797.404,373.832 L 797.352,373.803 L 797.298,373.757 L 797.26,373.696 L 797.241,373.626 L 797.258,373.551 L 797.245,373.46 L 797.183,373.444 L 797.194,373.379 L 797.165,373.289 L 797.08,373.239 L 797.046,373.174 L 796.979,373.163 L 796.914,373.206 L 796.842,373.221 L 796.842,373.144 L 796.836,373.071 L 796.776,373.021 L 796.83,372.981 L 796.882,372.917 L 796.95,372.847 L 796.955,372.778 L 797.005,372.701 L 796.986,372.634 L 796.972,372.57 L 797.004,372.496 L 797.017,372.407 L 796.996,372.337 L 796.964,372.284 L 796.927,372.204 L 796.902,372.14 L 796.815,372.086 L 796.538,372.086 L 795.793,371.063 L 795.692,370.51 L 795.975,369.809 L 795.875,368.253 L 795.048,366.935 L 794.589,366.94 L 793.931,366.588 L 791.949,364.409 L 791.267,362.74 L 793.417,362.189 L 793.651,362.13 L 790.193,348.967 L 786.422,344.154 L 801.302,337.646 L 804.725,337.128"
       id="path15863"
       style="fill-rule:evenodd" />
   </g>
</svg>