<svg
   xmlns:svg="http://www.w3.org/2000/svg"
   xmlns="http://www.w3.org/2000/svg"
   version="1.0"
   width="2100"
   height="1300"
   viewBox="0 0 2100 1300"
   id="svg14921">
   <g
     transform="matrix(2.2640019,0,0,2.2640019,-216.71416,-21.6991)"
     id="g14955"
     style="font-size:16.25px;font-style:normal;font-weight:400;fill:#fefee9;fill-opacity:1;fill-rule:evenodd;stroke:#000000;stroke-width:0.0984252;stroke-linecap:square;stroke-linejoin:bevel;stroke-opacity:1;font-family:Lucida Grande">
    <path
       name="charlton" d="M 501.755,254.479 L 507.431,253.972 L 510.747,276.626 L 511.794,283.85 L 508.592,284.798 L 509.291,288.297 L 487.767,294.595 L 487.875,292.662 L 487.042,292.902 L 486.837,291.301 L 487.85,290.96 L 487.545,289.45 L 486.982,289.513 L 486.483,285.866 L 486.128,285.997 L 485.234,286.306 L 476.707,282.276 L 475.503,282.749 L 474.573,276.425 L 474.066,273.025 L 479.941,270.698 L 478.622,259.445 L 481.412,259.019 L 481.304,258.446 L 481.101,256.234 L 486.308,255.834 L 501.755,254.479"
       id="path15691"
       style="fill-rule:evenodd" />
   </g>
</svg>