<svg
   xmlns:svg="http://www.w3.org/2000/svg"
   xmlns="http://www.w3.org/2000/svg"
   version="1.0"
   width="2100"
   height="1300"
   viewBox="0 0 2100 1300"
   id="svg14921">
   <g
     transform="matrix(2.2640019,0,0,2.2640019,-216.71416,-21.6991)"
     id="g14955"
     style="font-size:16.25px;font-style:normal;font-weight:400;fill:#fefee9;fill-opacity:1;fill-rule:evenodd;stroke:#000000;stroke-width:0.0984252;stroke-linecap:square;stroke-linejoin:bevel;stroke-opacity:1;font-family:Lucida Grande">
    <path
       name="charlemont" d="M 269.295,85.1841 L 269.819,88.4161 L 270.125,88.4001 L 270.797,94.4418 L 273.072,94.6705 L 272.886,97.5909 L 274.563,97.7174 L 274.665,98.6473 L 278.302,98.0885 L 290.75,90.9291 L 292.317,100.916 L 296.545,100.29 L 300.223,99.7399 L 300.209,99.8046 L 300.17,99.8926 L 300.126,99.9726 L 300.095,100.033 L 300.015,100.124 L 299.991,100.177 L 299.948,100.255 L 299.917,100.364 L 299.909,100.423 L 299.829,100.741 L 299.727,101.113 L 299.719,101.18 L 299.712,101.254 L 299.718,101.339 L 299.743,101.404 L 299.736,101.498 L 299.752,101.575 L 299.769,101.674 L 299.772,101.747 L 299.669,101.749 L 299.601,101.738 L 299.321,101.728 L 299.219,101.74 L 299.081,101.748 L 298.908,101.751 L 298.812,101.744 L 298.717,101.739 L 298.55,101.713 L 298.466,101.713 L 298.401,101.708 L 298.34,101.711 L 298.221,101.733 L 298.158,101.74 L 298.062,101.762 L 297.989,101.785 L 297.931,101.814 L 297.872,101.864 L 297.812,101.946 L 297.778,101.992 L 297.742,102.045 L 297.694,102.103 L 297.661,102.152 L 297.627,102.232 L 297.587,102.306 L 297.534,102.392 L 297.479,102.449 L 297.425,102.526 L 297.332,102.637 L 297.268,102.722 L 297.206,102.82 L 297.175,102.896 L 297.14,102.945 L 297.129,103.011 L 297.128,103.09 L 297.144,103.181 L 297.167,103.236 L 297.223,103.333 L 297.266,103.385 L 297.338,103.464 L 297.379,103.506 L 297.431,103.581 L 297.463,103.682 L 297.482,103.942 L 297.487,104.034 L 297.513,104.111 L 297.554,104.175 L 297.591,104.22 L 297.56,104.297 L 297.506,104.355 L 297.259,104.533 L 297.186,104.581 L 296.953,104.711 L 296.884,104.761 L 296.752,104.806 L 296.662,104.809 L 296.497,104.812 L 296.424,104.792 L 296.338,104.767 L 296.258,104.753 L 296.192,104.692 L 296.148,104.653 L 296.108,104.607 L 296.072,104.549 L 296.014,104.486 L 295.98,104.432 L 295.937,104.354 L 295.884,104.28 L 295.794,104.159 L 295.732,104.096 L 295.659,104.025 L 295.582,103.954 L 295.52,103.913 L 295.454,103.888 L 295.376,103.876 L 295.303,103.872 L 295.203,103.876 L 295.106,103.887 L 295,103.908 L 294.818,103.973 L 294.545,104.061 L 294.439,104.098 L 294.195,104.183 L 294.118,104.196 L 294.002,104.217 L 293.852,104.237 L 293.789,104.238 L 293.715,104.234 L 293.481,104.23 L 293.422,104.227 L 293.326,104.228 L 293.233,104.244 L 293.152,104.256 L 293.056,104.273 L 292.949,104.3 L 292.888,104.306 L 292.795,104.33 L 292.728,104.326 L 292.657,104.332 L 292.572,104.322 L 292.485,104.297 L 292.412,104.271 L 292.314,104.267 L 292.22,104.258 L 291.933,104.24 L 291.833,104.225 L 291.551,104.189 L 291.468,104.181 L 291.364,104.159 L 291.149,104.126 L 291.074,104.12 L 290.707,104.082 L 290.287,104.038 L 289.968,103.959 L 289.599,103.858 L 289.319,103.774 L 289.233,103.75 L 289.163,103.739 L 289.078,103.733 L 289.013,103.731 L 288.952,103.731 L 288.895,103.738 L 288.781,103.741 L 288.71,103.739 L 288.604,103.744 L 288.512,103.718 L 288.416,103.702 L 288.292,103.686 L 288.218,103.668 L 288.145,103.656 L 288.073,103.651 L 288.016,103.637 L 287.947,103.632 L 287.855,103.636 L 287.754,103.641 L 287.655,103.656 L 287.586,103.676 L 287.513,103.698 L 287.423,103.721 L 287.13,103.82 L 285.964,104.185 L 285.848,104.223 L 285.594,104.327 L 285.246,104.458 L 284.899,104.592 L 284.756,104.641 L 284.561,104.709 L 284.444,104.758 L 284.313,104.8 L 284.186,104.834 L 284.047,104.874 L 283.944,104.897 L 283.657,104.967 L 282.861,105.137 L 282.786,105.144 L 282.704,105.144 L 282.623,105.152 L 282.535,105.136 L 282.44,105.122 L 282.334,105.11 L 282.107,105.087 L 281.981,105.056 L 281.791,105.04 L 281.65,105.028 L 280.54,105.039 L 280.174,105.065 L 280.024,105.077 L 279.853,105.053 L 279.678,105.007 L 279.478,104.953 L 279.223,104.84 L 279.157,104.821 L 279.066,104.761 L 279.006,104.727 L 278.93,104.674 L 278.857,104.617 L 278.795,104.58 L 278.667,104.512 L 278.577,104.47 L 278.494,104.419 L 278.42,104.387 L 278.354,104.364 L 278.27,104.342 L 278.181,104.326 L 278.111,104.313 L 278.046,104.311 L 277.941,104.326 L 277.88,104.339 L 277.817,104.355 L 277.751,104.377 L 277.648,104.416 L 277.487,104.48 L 277.314,104.559 L 276.85,104.711 L 275.569,105.071 L 275.523,105.28 L 275.144,106.903 L 264.709,104.677 L 250.651,101.7 L 244.428,100.389 L 245.41,96.157 L 245.397,96.0309 L 245.059,92.8519 L 245.044,92.7375 L 244.977,92.7261 L 244.893,92.7061 L 244.806,92.6668 L 244.725,92.6017 L 244.684,92.5221 L 244.647,92.4425 L 244.631,92.3811 L 244.601,92.3116 L 244.547,92.1843 L 244.487,92.0177 L 244.435,91.9023 L 244.392,91.7202 L 244.346,91.4918 L 249.015,88.2585 L 249.044,88.1905 L 249.077,88.1283 L 249.125,88.0489 L 249.164,87.9908 L 249.23,87.9393 L 249.303,87.9077 L 249.391,87.8645 L 249.445,87.8422 L 249.55,87.7957 L 249.643,87.7684 L 249.707,87.7289 L 249.752,87.6848 L 249.796,87.6385 L 249.846,87.5453 L 249.869,87.4771 L 249.906,87.4091 L 249.942,87.3373 L 250.003,87.26 L 250.057,87.2143 L 250.116,87.198 L 250.204,87.1707 L 250.296,87.173 L 250.381,87.1691 L 250.467,87.1693 L 250.532,87.1709 L 250.595,87.1724 L 250.691,87.1689 L 250.788,87.1517 L 250.878,87.1106 L 250.913,87.0268 L 250.944,86.9607 L 250.974,86.8829 L 251.008,86.7912 L 251.027,86.6461 L 251.039,86.5658 L 254.829,86.5274 L 255.084,85.5208 L 265.016,85.282 L 269.295,85.1841"
       id="path15091"
       style="fill-rule:evenodd" />
   </g>
</svg>