<svg
   xmlns:svg="http://www.w3.org/2000/svg"
   xmlns="http://www.w3.org/2000/svg"
   version="1.0"
   width="2100"
   height="1300"
   viewBox="0 0 2100 1300"
   id="svg14921">
   <g
     transform="matrix(2.2640019,0,0,2.2640019,-216.71416,-21.6991)"
     id="g14955"
     style="font-size:16.25px;font-style:normal;font-weight:400;fill:#fefee9;fill-opacity:1;fill-rule:evenodd;stroke:#000000;stroke-width:0.0984252;stroke-linecap:square;stroke-linejoin:bevel;stroke-opacity:1;font-family:Lucida Grande">
    <path
       name="chatham" d="M 1013.64,414.476 L 1013.03,414.379 L 1012.18,414.038 L 1011.69,413.662 L 1011.55,413.523 L 1010.83,413.023 L 1010.72,412.853 L 1010.7,412.649 L 1010.85,412.244 L 1011.14,412.05 L 1011.88,412.074 L 1012.13,411.983 L 1013.02,411.489 L 1013.14,411.368 L 1013.45,411.198 L 1013.58,411.188 L 1013.75,411.223 L 1013.87,411.269 L 1013.96,411.533 L 1013.9,411.724 L 1013.64,412.271 L 1013.51,412.762 L 1013.43,412.953 L 1013.48,413.237 L 1013.47,413.566 L 1013.56,414.007 L 1013.72,414.294 L 1013.73,414.405 L 1013.64,414.476"
       id="path15975"
       style="fill-rule:evenodd" />

    <path
       name="chatham" d="M 1019.54,411.757 L 1019.54,412.558 L 1019.58,414.055 L 1019.55,414.291 L 1019.56,415.063 L 1019.59,415.354 L 1019.57,415.953 L 1019.64,416.367 L 1019.7,416.988 L 1019.66,417.327 L 1019.7,417.863 L 1019.65,418.367 L 1019.68,418.502 L 1019.64,419.645 L 1019.6,419.857 L 1019.69,420.983 L 1019.67,422.32 L 1019.62,422.7 L 1019.59,423.275 L 1019.61,423.346 L 1019.5,423.963 L 1019.46,424.113 L 1019.45,424.426 L 1019.37,424.878 L 1019.25,425.707 L 1019.23,425.937 L 1019.06,426.798 L 1019.05,426.907 L 1018.85,427.635 L 1018.68,428.608 L 1018.61,428.979 L 1018.6,429.209 L 1018.57,429.312 L 1018.56,429.809 L 1018.48,430.047 L 1018.28,430.434 L 1017.85,431.098 L 1017.67,431.327 L 1017.1,432.394 L 1016.97,432.696 L 1016.91,433.042 L 1016.61,434.127 L 1016.44,434.848 L 1016.2,435.426 L 1016.1,435.838 L 1015.85,436.252 L 1015.34,437.411 L 1015.26,437.736 L 1015.06,438.189 L 1014.81,438.674 L 1014.66,438.914 L 1014.58,439.142 L 1014.22,439.779 L 1014.08,439.948 L 1013.94,440.036 L 1013.78,440.087 L 1013.81,439.897 L 1013.94,439.815 L 1014.07,439.694 L 1014.18,439.551 L 1014.19,439.489 L 1014.11,439.473 L 1013.93,439.524 L 1013.79,439.714 L 1013.54,440.116 L 1013.38,440.219 L 1013.23,440.363 L 1013.01,440.503 L 1012.81,440.537 L 1012.72,440.422 L 1012.69,440.199 L 1012.65,439.909 L 1012.58,439.762 L 1012.55,439.431 L 1012.56,439.155 L 1012.71,439.122 L 1012.75,439.28 L 1012.79,439.483 L 1012.87,439.567 L 1012.91,439.74 L 1012.99,439.809 L 1013.06,439.792 L 1013.16,439.665 L 1013.44,439.597 L 1013.57,439.603 L 1013.7,439.45 L 1013.87,439.327 L 1014.09,439.216 L 1014.07,439.136 L 1013.71,439.205 L 1013.41,439.149 L 1013.32,439.173 L 1013.2,439.142 L 1013.2,439.074 L 1013.29,439.025 L 1014.11,438.961 L 1014.3,438.887 L 1014.42,438.765 L 1014.45,438.681 L 1014.41,438.626 L 1014.34,438.635 L 1014.27,438.693 L 1014.23,438.762 L 1014.1,438.837 L 1013.67,438.797 L 1014.01,438.697 L 1014.06,438.624 L 1014.13,438.387 L 1014.24,438.321 L 1014.3,438.217 L 1014.7,438.007 L 1014.64,437.928 L 1014.64,437.851 L 1014.54,437.701 L 1014.55,437.63 L 1014.71,437.479 L 1014.74,437.345 L 1014.65,437.236 L 1014.65,437.1 L 1014.69,437.036 L 1014.75,437.004 L 1014.74,436.911 L 1014.61,436.89 L 1014.53,436.945 L 1014.49,437.027 L 1014.5,437.11 L 1014.47,437.176 L 1014.33,437.279 L 1014.28,437.352 L 1014.41,437.404 L 1014.36,437.517 L 1014.21,437.692 L 1014.07,437.672 L 1013.99,437.742 L 1013.92,437.76 L 1013.68,437.931 L 1013.53,437.994 L 1013.38,438.014 L 1013.15,437.996 L 1012.91,438.022 L 1012.88,438.134 L 1012.99,438.193 L 1013.4,438.11 L 1013.49,438.138 L 1013.45,438.232 L 1013.18,438.287 L 1012.91,438.41 L 1012.85,438.545 L 1012.85,438.653 L 1012.93,438.849 L 1012.91,439.213 L 1012.85,439.143 L 1012.7,438.617 L 1012.74,438.287 L 1012.75,438.011 L 1012.65,437.713 L 1012.65,437.555 L 1012.68,437.359 L 1012.81,437.197 L 1012.92,436.911 L 1013,436.847 L 1013.05,436.438 L 1012.92,436.583 L 1012.75,436.584 L 1012.74,436.529 L 1012.98,436.193 L 1013.12,436.065 L 1013.32,436.053 L 1013.42,436.146 L 1013.43,436.233 L 1013.36,436.275 L 1013.21,436.41 L 1013.33,436.527 L 1013.38,436.572 L 1013.39,436.705 L 1013.5,436.736 L 1013.9,436.659 L 1014.31,436.558 L 1014.55,436.34 L 1014.74,436.297 L 1015.07,435.99 L 1015.09,435.896 L 1015.08,435.707 L 1015,435.715 L 1014.98,435.772 L 1014.92,435.805 L 1014.84,435.807 L 1014.78,435.768 L 1014.82,435.603 L 1015.07,435.375 L 1015.39,435.164 L 1015.49,435.084 L 1015.6,434.935 L 1015.75,434.568 L 1016.01,434.383 L 1016.04,434.28 L 1016.18,434.121 L 1016.29,434.077 L 1016.35,434.013 L 1016.4,433.91 L 1016.42,433.77 L 1016.57,433.601 L 1016.64,433.537 L 1016.67,433.387 L 1016.58,433.284 L 1016.28,433.448 L 1015.96,433.771 L 1015.9,433.958 L 1015.8,434.095 L 1015.71,434.153 L 1015.53,434.162 L 1015.52,433.936 L 1015.71,433.719 L 1015.73,433.607 L 1015.68,433.531 L 1015.6,433.548 L 1015.39,433.834 L 1015.34,433.993 L 1015.24,434.217 L 1015.24,434.303 L 1015.15,434.421 L 1015.08,434.361 L 1015.08,434.172 L 1015.13,434.077 L 1015.19,433.917 L 1015.38,433.67 L 1015.44,433.33 L 1015.53,433.194 L 1015.65,433.153 L 1015.96,432.943 L 1016.09,432.759 L 1016.4,432.343 L 1016.46,432.218 L 1016.47,432.05 L 1016.53,432.017 L 1016.98,431.539 L 1017.13,431.085 L 1017.24,430.706 L 1017.34,430.477 L 1017.5,430.33 L 1017.97,429.786 L 1018.29,429.072 L 1018.29,428.985 L 1018.21,428.86 L 1018.02,428.432 L 1017.93,428.298 L 1017.79,428.317 L 1017.69,428.28 L 1017.97,427.903 L 1018.25,427.365 L 1018.28,427.221 L 1018.26,427.017 L 1017.97,426.147 L 1018.02,425.904 L 1017.96,425.589 L 1017.98,425.313 L 1018.05,425.013 L 1018.19,424.665 L 1018.21,424.466 L 1018.03,423.792 L 1017.78,423.16 L 1017.77,423.064 L 1017.8,422.939 L 1017.81,422.632 L 1017.78,422.444 L 1017.94,421.918 L 1017.95,421.713 L 1018,421.612 L 1017.94,421.503 L 1017.95,421.369 L 1018,421.305 L 1018.02,421.224 L 1018.25,420.914 L 1018.53,420.673 L 1018.77,420.312 L 1018.77,420.194 L 1018.71,420.14 L 1018.59,420.048 L 1018.49,419.933 L 1018.48,419.815 L 1018.41,419.665 L 1018.39,419.461 L 1018.46,418.932 L 1018.69,418.646 L 1018.84,418.539 L 1019.08,418.29 L 1019.15,417.944 L 1019.1,417.716 L 1019.11,417.598 L 1019.07,417.487 L 1018.9,417.381 L 1018.88,417.31 L 1018.98,416.885 L 1018.98,416.466 L 1019.03,416.08 L 1019.03,415.661 L 1018.95,415.481 L 1018.72,415.156 L 1018.68,415.07 L 1018.83,414.926 L 1018.74,414.746 L 1018.67,414.661 L 1018.68,414.487 L 1018.47,414.444 L 1018.51,413.986 L 1018.35,413.833 L 1018.38,413.714 L 1018.47,413.206 L 1018.56,412.993 L 1018.68,412.89 L 1018.7,412.787 L 1018.62,412.693 L 1018.63,412.575 L 1018.73,412.352 L 1018.72,412.21 L 1018.63,412.125 L 1018.66,411.833 L 1018.8,411.676 L 1019.54,411.757"
       id="path15981"
       style="fill-rule:evenodd" />
    <path
       name="chatham" d="M 1002.81,415.036 L 1003.22,414.905 L 1003.37,414.817 L 1003.57,414.774 L 1004.09,414.455 L 1004.24,414.304 L 1004.69,413.981 L 1004.89,413.749 L 1005.11,413.563 L 1005.26,413.394 L 1005.89,412.935 L 1006.07,412.868 L 1006.33,412.658 L 1006.88,412.357 L 1007.09,412.283 L 1007.29,412.277 L 1007.66,412.446 L 1007.98,412.691 L 1008.59,413.042 L 1009.6,413.267 L 1009.74,413.312 L 1009.83,413.39 L 1009.87,413.467 L 1010.04,413.598 L 1010.15,413.732 L 1010.17,413.957 L 1010.16,414.259 L 1010.19,414.673 L 1010.31,414.878 L 1010.38,414.993 L 1010.44,415.221 L 1010.39,415.356 L 1010.32,415.349 L 1010.26,415.223 L 1010.25,415.059 L 1010.21,414.933 L 1010.08,414.708 L 1010.03,414.591 L 1010.02,414.26 L 1009.93,414.182 L 1009.78,414.17 L 1009.74,414.249 L 1009.74,414.311 L 1009.85,414.516 L 1009.87,414.664 L 1009.81,414.681 L 1009.69,414.644 L 1009.4,414.675 L 1009.21,414.748 L 1008.91,414.965 L 1008.68,415.254 L 1008.55,415.484 L 1008.5,415.634 L 1008.46,415.698 L 1008.29,415.795 L 1008.2,415.814 L 1008.01,415.596 L 1007.89,415.513 L 1007.81,415.372 L 1007.83,415.024 L 1007.85,414.9 L 1007.91,414.818 L 1008.11,414.625 L 1008.18,414.537 L 1008.21,414.402 L 1008.21,414.238 L 1008.13,414.082 L 1007.83,413.883 L 1007.78,413.82 L 1007.78,413.624 L 1007.71,413.595 L 1007.61,413.635 L 1007.52,413.725 L 1007.21,413.65 L 1006.99,413.551 L 1006.65,413.629 L 1006.52,413.757 L 1006.1,414.017 L 1005.95,414.059 L 1005.77,414.163 L 1005.7,414.246 L 1005.63,414.419 L 1005.69,414.702 L 1005.74,414.819 L 1005.92,414.997 L 1006.22,415.196 L 1006.43,415.729 L 1006.47,415.815 L 1006.78,415.982 L 1007.05,416.095 L 1007.34,416.152 L 1007.57,416.155 L 1007.91,416.039 L 1008.11,416.006 L 1008.28,416.041 L 1008.5,416.146 L 1008.62,416.112 L 1008.69,416.057 L 1008.84,416.037 L 1008.95,416.059 L 1009.02,416.106 L 1009.03,416.233 L 1008.92,416.432 L 1008.92,416.596 L 1008.85,416.691 L 1008.6,416.884 L 1008.53,416.911 L 1008.37,416.913 L 1007.95,417.055 L 1007.86,417.126 L 1007.72,417.341 L 1007.63,417.421 L 1007.38,417.506 L 1007.17,417.745 L 1007.09,417.779 L 1007.01,417.765 L 1006.9,417.697 L 1006.78,417.549 L 1006.55,417.49 L 1006.39,417.352 L 1006.23,417.307 L 1006.11,417.215 L 1005.91,416.768 L 1005.82,416.494 L 1005.82,416.268 L 1005.87,416.17 L 1005.76,416.112 L 1005.44,416.313 L 1005.29,416.451 L 1005.13,416.548 L 1005.02,416.713 L 1004.92,417.032 L 1004.94,417.212 L 1005.05,417.33 L 1005.21,417.412 L 1005.29,417.48 L 1005.57,417.54 L 1005.97,417.814 L 1006.07,417.979 L 1006.21,418.096 L 1006.42,418.207 L 1006.57,418.206 L 1006.78,418.116 L 1006.89,418.138 L 1006.96,418.223 L 1007.02,418.261 L 1007.39,418.232 L 1007.68,418.257 L 1007.96,418.212 L 1008.11,418.037 L 1008.1,417.91 L 1008.18,417.641 L 1008.34,417.655 L 1008.53,417.721 L 1008.78,417.757 L 1008.92,417.799 L 1008.99,417.853 L 1008.98,417.99 L 1008.9,418.156 L 1008.89,418.265 L 1008.96,418.359 L 1008.9,418.619 L 1008.95,418.785 L 1009.15,418.89 L 1009.22,418.873 L 1009.24,418.733 L 1009.19,418.576 L 1009.25,418.369 L 1009.16,418.254 L 1009.14,418.119 L 1009.25,417.858 L 1009.29,417.692 L 1009.21,417.18 L 1009.32,416.975 L 1009.27,416.84 L 1009.34,416.826 L 1009.6,416.443 L 1009.68,416.109 L 1009.8,416.012 L 1009.98,416.032 L 1010.18,416.193 L 1010.27,416.342 L 1010.99,416.613 L 1011.25,416.639 L 1011.35,416.575 L 1011.38,416.409 L 1011.5,416.313 L 1011.52,416.185 L 1011.62,416.176 L 1012.02,416.294 L 1012.41,416.491 L 1012.64,416.692 L 1012.84,416.816 L 1013.24,416.864 L 1013.51,416.999 L 1014.13,417.241 L 1014.32,417.403 L 1014.58,417.522 L 1015.03,417.965 L 1015.19,418.283 L 1015.16,418.426 L 1015.09,418.553 L 1014.92,418.737 L 1014.56,419.021 L 1014.24,419.53 L 1014.13,419.793 L 1014.04,420.267 L 1013.86,420.775 L 1013.81,421.201 L 1013.72,421.697 L 1013.81,422.209 L 1013.85,422.726 L 1013.85,423.595 L 1013.87,423.758 L 1013.92,423.875 L 1014.05,424.606 L 1014.14,424.855 L 1014.19,424.887 L 1014.4,424.89 L 1014.48,424.975 L 1014.56,425.282 L 1014.57,425.422 L 1014.82,426.081 L 1014.99,426.424 L 1015.28,426.936 L 1015.38,427.368 L 1015.4,427.811 L 1015.31,427.993 L 1015.28,428.102 L 1015.17,428.326 L 1015.16,428.5 L 1014.87,429.504 L 1014.48,430.182 L 1014.22,430.801 L 1014,431.111 L 1013.74,431.345 L 1013.61,431.432 L 1013.38,431.526 L 1013.08,431.752 L 1012.99,431.761 L 1012.91,431.723 L 1012.87,431.628 L 1012.68,431.497 L 1012.63,431.616 L 1012.74,431.734 L 1012.67,431.844 L 1012.52,431.911 L 1012.25,432.096 L 1012.19,432.178 L 1012.19,432.28 L 1012.24,432.325 L 1012.34,432.307 L 1012.46,432.22 L 1012.55,432.193 L 1012.95,432.233 L 1013.08,432.295 L 1013.11,432.421 L 1013.24,432.495 L 1013.25,432.581 L 1013.12,433.088 L 1012.56,433.817 L 1012.33,434.286 L 1012.27,434.505 L 1012.04,434.763 L 1011.96,434.97 L 1011.24,435.763 L 1011.08,435.821 L 1011,435.804 L 1010.74,435.589 L 1010.68,435.606 L 1010.66,435.687 L 1010.56,435.641 L 1010.49,435.475 L 1010.31,435.384 L 1010.21,435.443 L 1010.22,435.52 L 1010.3,435.639 L 1010.41,435.713 L 1010.42,435.778 L 1010.28,435.757 L 1010.14,435.671 L 1010.1,435.576 L 1010.08,435.319 L 1009.95,435.218 L 1009.88,435.142 L 1009.58,435.185 L 1009.38,435.237 L 1009.08,435.432 L 1008.55,435.535 L 1008.04,435.568 L 1007.91,435.609 L 1007.74,435.621 L 1007.29,435.534 L 1007.2,435.481 L 1006.85,435.063 L 1006.54,434.88 L 1006.38,434.553 L 1006.37,434.411 L 1006.47,434.234 L 1006.63,434.034 L 1006.78,434.032 L 1006.83,434.158 L 1006.99,434.337 L 1007.11,434.42 L 1007.31,434.557 L 1007.7,434.936 L 1007.81,434.983 L 1008.22,435.225 L 1008.76,435.138 L 1009.31,434.979 L 1009.52,434.849 L 1009.52,434.66 L 1009.36,434.503 L 1009.2,434.123 L 1009.13,434.06 L 1009.08,433.786 L 1009.02,433.589 L 1008.88,433.363 L 1008.84,433.16 L 1008.88,433.056 L 1008.87,432.892 L 1008.94,432.875 L 1009.03,432.912 L 1009.1,432.973 L 1009.19,433.602 L 1009.39,433.662 L 1009.45,433.573 L 1009.36,433.48 L 1009.27,433.247 L 1009.2,432.907 L 1009.23,432.742 L 1009.37,432.599 L 1009.43,432.464 L 1009.73,432.039 L 1009.94,431.878 L 1010.31,432.007 L 1010.5,432.138 L 1010.6,432.246 L 1010.68,432.418 L 1011.08,432.654 L 1011.19,432.856 L 1011.28,432.893 L 1011.39,432.899 L 1011.49,432.859 L 1011.49,432.599 L 1011.69,432.413 L 1011.72,431.854 L 1011.64,431.692 L 1011.45,431.347 L 1011.44,431.189 L 1011.54,431.18 L 1011.77,431.223 L 1011.86,431.189 L 1011.94,431.205 L 1011.96,431.133 L 1011.94,431.078 L 1011.57,430.999 L 1011.28,431.004 L 1011.32,430.886 L 1011.31,430.759 L 1011.46,430.435 L 1011.54,430.259 L 1011.53,429.983 L 1011.43,429.924 L 1011.34,429.821 L 1011.29,429.72 L 1011.3,429.633 L 1011.73,429.54 L 1011.88,429.464 L 1011.94,429.363 L 1012.04,429.283 L 1012.45,429.289 L 1012.67,429.205 L 1012.95,429.179 L 1013.21,429 L 1013.29,428.896 L 1013.36,428.689 L 1013.33,428.566 L 1013.2,428.337 L 1013.08,428.263 L 1012.99,428.083 L 1012.99,427.863 L 1013.05,427.625 L 1012.99,427.53 L 1012.79,427.456 L 1012.7,427.458 L 1012.6,427.523 L 1012.43,427.683 L 1012.39,427.895 L 1012.45,427.99 L 1012.72,428.19 L 1012.71,428.261 L 1012.54,428.406 L 1011.96,428.565 L 1011.74,428.742 L 1011.73,428.83 L 1011.68,428.918 L 1011.6,428.973 L 1011.59,429.101 L 1011.51,429.14 L 1011.22,429.17 L 1010.95,429.457 L 1010.92,429.554 L 1010.93,429.79 L 1010.99,429.869 L 1011.06,429.922 L 1011.17,429.959 L 1011.24,430.075 L 1011.19,430.164 L 1010.79,430.408 L 1010.98,430.514 L 1011.03,430.568 L 1010.99,430.647 L 1010.15,431.174 L 1010.03,431.326 L 1009.92,431.249 L 1009.8,431.221 L 1009.62,431.239 L 1009.45,431.346 L 1009.21,431.223 L 1009.15,431.163 L 1008.46,430.913 L 1008.09,430.843 L 1007.64,431.055 L 1007.25,431.575 L 1007.06,431.931 L 1006.9,431.998 L 1006.7,432.035 L 1006.51,431.981 L 1006.39,431.882 L 1006.08,431.649 L 1005.68,431.5 L 1005.51,431.402 L 1005.19,430.981 L 1004.87,430.807 L 1004.47,430.459 L 1004.14,430.143 L 1004.17,430 L 1004.52,429.704 L 1004.67,429.644 L 1004.84,429.546 L 1004.94,429.428 L 1005.23,428.933 L 1005.37,428.829 L 1005.72,428.366 L 1006.32,427.899 L 1006.45,427.722 L 1006.59,427.603 L 1006.78,427.597 L 1006.82,427.698 L 1006.8,427.975 L 1006.9,428.146 L 1007.14,428.238 L 1007.31,428.233 L 1007.43,428.115 L 1007.5,427.979 L 1007.49,427.852 L 1007.55,427.748 L 1007.56,427.615 L 1007.51,427.474 L 1007.43,427.38 L 1007.42,427.287 L 1007.44,427.209 L 1007.54,427.246 L 1007.89,427.49 L 1008.07,427.525 L 1008.45,427.489 L 1008.61,427.367 L 1008.78,427.294 L 1009.65,427.16 L 1010.2,426.983 L 1010.39,426.989 L 1010.57,426.851 L 1010.61,426.645 L 1010.63,426.433 L 1010.57,426.103 L 1010.46,425.939 L 1010.35,425.846 L 1010.19,425.755 L 1010.08,425.866 L 1009.98,425.931 L 1009.57,425.971 L 1008.83,425.993 L 1008.45,425.945 L 1008.31,426.017 L 1008.21,426.147 L 1008.19,426.226 L 1008.04,426.394 L 1007.92,426.404 L 1007.45,426.216 L 1007.03,426.303 L 1006.92,426.359 L 1006.77,426.59 L 1006.64,426.68 L 1006.62,426.749 L 1006.64,426.804 L 1006.72,426.883 L 1006.73,426.991 L 1006.65,427.105 L 1006.48,427.255 L 1006.25,427.411 L 1006.1,427.602 L 1005.92,427.644 L 1005.87,427.686 L 1005.91,427.812 L 1005.71,428.035 L 1005.29,428.341 L 1004.84,428.956 L 1004.69,429.116 L 1004.53,429.223 L 1004.25,429.352 L 1004.2,429.425 L 1004.1,429.499 L 1004.01,429.468 L 1003.88,429.611 L 1003.87,429.738 L 1003.81,429.818 L 1003.77,429.962 L 1003.72,430.528 L 1003.79,430.637 L 1004.32,430.848 L 1004.53,430.988 L 1004.73,431.217 L 1004.89,431.445 L 1005.17,431.661 L 1005.66,432.012 L 1005.91,432.089 L 1005.99,432.195 L 1006.16,432.398 L 1006.37,432.528 L 1006.6,432.782 L 1006.67,432.922 L 1006.58,433.012 L 1006.57,433.146 L 1006.66,433.388 L 1006.65,433.515 L 1006.46,433.763 L 1006.09,434.062 L 1005.85,434.302 L 1005.63,434.432 L 1005.47,434.3 L 1005.27,434.005 L 1004.97,433.797 L 1004.68,433.542 L 1004.5,433.349 L 1004.28,432.977 L 1004.1,432.805 L 1003.75,432.338 L 1002.26,431.076 L 1001.72,430.794 L 1001.45,430.584 L 1001.11,430.309 L 1000.96,430.223 L 1000.81,430.085 L 1000.7,430.079 L 1000.64,430.22 L 1000.57,430.213 L 1000.24,429.999 L 999.482,429.609 L 999.102,429.499 L 998.62,429.42 L 998.313,429.432 L 997.621,429.509 L 997.355,429.584 L 997.224,429.734 L 997.008,430.029 L 996.874,430.033 L 996.823,430.276 L 996.705,430.295 L 996.31,430.223 L 995.917,430.231 L 995.437,430.286 L 995.132,430.369 L 994.959,430.442 L 994.836,430.548 L 994.302,430.713 L 993.741,431.03 L 993.01,431.092 L 992.709,431.026 L 991.833,430.912 L 991.771,430.954 L 991.675,431.155 L 991.616,430.853 L 991.611,430.546 L 991.568,430.47 L 991.519,430.363 L 991.549,430.292 L 991.528,430.217 L 991.485,430.149 L 991.507,430.062 L 991.522,429.991 L 991.556,429.914 L 991.599,429.84 L 991.692,429.736 L 991.755,429.628 L 991.789,429.569 L 991.815,429.476 L 991.827,429.387 L 991.875,429.307 L 991.954,429.217 L 992.004,429.147 L 992.032,429.096 L 992.051,429.018 L 992.071,428.921 L 992.123,428.806 L 992.197,428.712 L 992.235,428.645 L 992.26,428.544 L 992.271,428.461 L 992.33,428.387 L 992.384,428.292 L 992.409,428.199 L 992.477,428.134 L 992.563,428.117 L 992.667,428.066 L 993.033,427.443 L 994.067,419.984 L 994.148,419.981 L 994.264,419.955 L 994.389,419.915 L 994.864,419.772 L 994.98,419.746 L 995.096,419.744 L 995.408,419.803 L 995.861,419.895 L 996.32,420.018 L 996.389,420.013 L 996.473,419.993 L 996.946,419.797 L 997.165,419.711 L 997.282,419.683 L 997.416,419.684 L 997.5,419.734 L 997.623,419.818 L 997.701,419.875 L 998.242,419.408 L 998.444,419.194 L 998.566,419.089 L 998.769,418.96 L 998.948,418.856 L 999.034,418.83 L 999.165,418.791 L 999.268,418.733 L 999.37,418.682 L 999.461,418.614 L 999.513,418.554 L 999.561,418.5 L 999.609,418.442 L 999.663,418.35 L 999.749,418.228 L 999.799,418.18 L 999.856,418.148 L 999.994,418.068 L 1000.06,417.994 L 1000.11,417.938 L 1000.18,417.846 L 1000.28,417.706 L 1000.45,417.524 L 1000.54,417.414 L 1000.69,417.232 L 1000.78,417.144 L 1000.88,417.061 L 1000.98,416.981 L 1001.09,416.892 L 1001.2,416.801 L 1001.35,416.613 L 1001.4,416.521 L 1001.47,416.484 L 1001.52,416.452 L 1001.58,416.401 L 1001.64,416.336 L 1001.69,416.262 L 1001.74,416.192 L 1001.79,416.127 L 1001.88,416.05 L 1002,415.958 L 1002.07,415.909 L 1002.16,415.849 L 1002.29,415.78 L 1002.36,415.768 L 1002.43,415.753 L 1002.49,415.721 L 1002.59,415.667 L 1002.66,415.578 L 1002.81,415.036 M 1010.15,433.41 L 1010.28,433.487 L 1010.52,433.452 L 1010.61,433.403 L 1010.61,433.214 L 1010.53,433.145 L 1010.31,433.07 L 1010.09,433.098 L 1010.05,433.162 L 1010.1,433.232 L 1010.21,433.275 L 1010.15,433.41"
       id="path15983"
       style="fill-rule:evenodd" />
    <path
       name="chatham" d="M 1014.57,423.831 L 1014.43,423.692 L 1014.35,423.71 L 1014.27,423.585 L 1014.28,423.458 L 1014.2,423.336 L 1014.27,423.064 L 1014.27,422.822 L 1014.3,422.694 L 1014.27,422.624 L 1014.33,422.284 L 1014.44,421.921 L 1014.59,421.777 L 1014.69,421.799 L 1014.79,421.914 L 1014.8,422.001 L 1014.76,422.16 L 1014.78,422.246 L 1014.82,422.323 L 1014.94,422.328 L 1015,422.224 L 1014.89,421.911 L 1014.89,421.725 L 1015.01,421.721 L 1015.1,421.765 L 1015.39,421.999 L 1015.44,422.131 L 1015.4,422.51 L 1015.27,422.802 L 1015,423.139 L 1014.9,423.464 L 1014.84,423.55 L 1014.73,423.625 L 1014.79,423.719 L 1014.7,423.799 L 1014.57,423.831"
       id="path16011"
       style="fill-rule:evenodd" />
    <path
       name="chatham" d="M 1010.15,433.41 L 1010.21,433.275 L 1010.1,433.232 L 1010.05,433.162 L 1010.09,433.098 L 1010.31,433.07 L 1010.53,433.145 L 1010.61,433.214 L 1010.61,433.403 L 1010.52,433.452 L 1010.28,433.487 L 1010.15,433.41"
       id="path16033"
       style="fill-rule:evenodd" />
    <path
       name="chatham" d="M 1009.11,438.496 L 1009.27,438.389 L 1009.47,438.386 L 1009.66,438.483 L 1009.7,438.972 L 1009.87,439.503 L 1009.87,439.739 L 1009.82,439.97 L 1009.82,440.559 L 1009.54,441.684 L 1009.4,441.976 L 1009.08,443.056 L 1008.96,443.31 L 1008.91,443.625 L 1008.79,443.917 L 1008.58,444.686 L 1008.41,445.287 L 1008.4,445.492 L 1008.02,446.263 L 1007.85,446.544 L 1007.7,446.964 L 1007.48,448.527 L 1007.4,448.796 L 1007.25,449.017 L 1006.95,450.347 L 1006.88,451.041 L 1006.75,451.935 L 1006.73,452.242 L 1006.75,452.627 L 1006.69,453.218 L 1006.6,453.568 L 1006.46,453.956 L 1006.31,454.621 L 1006.18,455.757 L 1006.18,455.999 L 1006.05,456.626 L 1005.9,457.022 L 1005.73,457.6 L 1005.72,457.883 L 1005.6,458.113 L 1005.52,458.493 L 1005.5,458.708 L 1005.41,458.943 L 1005.31,459.52 L 1005.29,459.719 L 1005.31,460.302 L 1005.25,460.908 L 1005.13,461.414 L 1005.08,461.809 L 1005.12,462.385 L 1005.07,462.675 L 1005.22,462.987 L 1005.24,463.349 L 1005.2,463.657 L 1005.28,463.829 L 1005.22,464.398 L 1005.22,464.941 L 1005.24,465.216 L 1005.16,465.494 L 1005.12,465.992 L 1005.17,466.446 L 1005.15,467.48 L 1005.2,467.714 L 1005.16,468.149 L 1005.1,469.488 L 1005.05,469.75 L 1004.75,470.59 L 1004.33,471.275 L 1004.05,471.761 L 1003.75,472.191 L 1003.43,472.542 L 1003.13,472.848 L 1002.56,473.597 L 1002.21,473.833 L 1001.58,474.026 L 1001.01,474.151 L 1000.41,474.171 L 999.886,474.131 L 999.436,474.054 L 999.095,473.909 L 998.574,473.35 L 998.316,473.023 L 998.112,472.57 L 997.803,471.993 L 997.726,471.648 L 997.735,471.232 L 997.869,470.778 L 997.953,470.611 L 998.115,470.445 L 998.232,470.402 L 998.76,470.395 L 998.879,470.423 L 998.88,470.519 L 998.613,470.555 L 998.615,470.626 L 998.709,470.648 L 999.087,470.619 L 999.259,470.542 L 999.445,470.351 L 1000.09,469.181 L 1000.24,468.96 L 1000.52,468.719 L 1000.93,468.13 L 1001.28,467.713 L 1001.56,467.315 L 1001.7,467.053 L 1001.81,466.737 L 1001.98,466.409 L 1002,466.316 L 1002.1,466.142 L 1002.3,465.916 L 1002.51,465.597 L 1002.64,465.162 L 1002.8,465.008 L 1002.88,464.82 L 1002.96,464.414 L 1003.2,463.694 L 1003.24,463.42 L 1003.38,463.171 L 1003.47,463.075 L 1003.61,462.758 L 1003.82,462.023 L 1003.9,461.499 L 1003.88,461.335 L 1003.94,461.241 L 1003.96,461.051 L 1004.06,460.812 L 1004.05,460.465 L 1004.05,459.284 L 1003.93,458.081 L 1003.93,457.736 L 1003.98,457.356 L 1004,456.987 L 1004.1,456.426 L 1004.12,456.016 L 1004.08,455.604 L 1004,454.67 L 1003.93,454.309 L 1003.92,454.058 L 1003.88,453.876 L 1003.89,453.365 L 1003.97,452.85 L 1004.03,452.74 L 1004.09,452.456 L 1004.13,452.067 L 1004.24,451.807 L 1004.37,451.75 L 1004.48,451.732 L 1004.5,451.833 L 1004.38,451.903 L 1004.44,451.968 L 1004.56,451.974 L 1004.67,452.005 L 1004.89,452.166 L 1004.95,452.267 L 1004.92,452.385 L 1004.81,452.472 L 1004.63,452.375 L 1004.55,452.415 L 1004.42,452.679 L 1004.45,452.976 L 1004.55,453.029 L 1004.67,452.942 L 1004.73,452.807 L 1004.79,452.764 L 1004.84,452.583 L 1005.09,452.486 L 1005.1,452.383 L 1005.15,452.295 L 1005.24,452.268 L 1005.28,452.214 L 1005.05,452.003 L 1004.92,451.998 L 1004.72,451.907 L 1004.64,451.792 L 1004.6,451.66 L 1004.79,451.31 L 1004.98,451.202 L 1005.58,451.036 L 1005.97,450.854 L 1006.16,450.724 L 1006.55,450.341 L 1006.74,450.006 L 1006.78,449.831 L 1006.95,448.781 L 1006.93,448.645 L 1006.92,448.512 L 1006.75,448.365 L 1006.78,448.225 L 1006.92,448.236 L 1006.98,448.362 L 1007.04,448.431 L 1007.13,448.329 L 1007.19,448.011 L 1007.24,447.963 L 1007.23,447.902 L 1007.11,447.763 L 1007.05,447.47 L 1006.81,447.318 L 1006.79,447.263 L 1006.81,447.104 L 1006.71,446.974 L 1006.69,446.841 L 1006.84,446.499 L 1006.96,446.197 L 1006.88,446.088 L 1006.95,445.962 L 1007.42,445.511 L 1007.5,445.375 L 1007.45,445.141 L 1007.6,444.752 L 1007.65,444.704 L 1007.8,444.647 L 1007.92,444.643 L 1007.94,444.541 L 1007.7,444.42 L 1007.69,444.34 L 1007.74,444.23 L 1007.69,444.12 L 1007.51,444.116 L 1007.43,444.053 L 1007.39,443.977 L 1007.41,443.638 L 1007.37,443.307 L 1007.4,443.164 L 1007.49,443.037 L 1007.54,443.011 L 1007.63,442.844 L 1007.42,442.698 L 1007.37,442.597 L 1007.37,442.495 L 1007.54,442.263 L 1007.78,442.08 L 1007.87,442.052 L 1008.04,441.846 L 1008.08,441.717 L 1008.03,441.647 L 1007.93,441.666 L 1007.77,441.748 L 1007.61,441.697 L 1007.54,441.5 L 1007.54,441.317 L 1007.68,440.913 L 1008.03,440.357 L 1008.44,439.964 L 1008.62,439.825 L 1008.87,439.734 L 1009.21,439.777 L 1009.44,439.764 L 1009.49,439.701 L 1009.5,439.622 L 1009.43,439.584 L 1009.19,439.557 L 1009.14,439.478 L 1009.17,439.4 L 1009.45,439.134 L 1009.45,439.072 L 1009.41,438.986 L 1009.33,439.017 L 1009.21,439.011 L 1009.04,438.929 L 1008.98,438.829 L 1008.96,438.717 L 1009.02,438.576 L 1009.11,438.496"
       id="path16043"
       style="fill-rule:evenodd" />
    <path
       name="chatham" d="M 1006.24,446.991 L 1006.2,446.834 L 1006.13,446.677 L 1006.17,446.534 L 1006.27,446.413 L 1006.36,446.389 L 1006.42,446.427 L 1006.4,446.536 L 1006.34,446.578 L 1006.36,446.776 L 1006.32,446.964 L 1006.24,446.991"
       id="path16061"
       style="fill-rule:evenodd" />
    <path
       name="chatham" d="M 1006.41,447.324 L 1006.28,447.303 L 1006.21,447.172 L 1006.29,447.076 L 1006.42,446.995 L 1006.49,446.993 L 1006.5,447.089 L 1006.49,447.197 L 1006.49,447.315 L 1006.41,447.324"
       id="path16063"
       style="fill-rule:evenodd" />
    <path
       name="chatham" d="M 1006.57,448.135 L 1006.44,447.993 L 1006.33,447.76 L 1006.25,447.636 L 1006.22,447.518 L 1006.34,447.413 L 1006.51,447.467 L 1006.54,447.568 L 1006.51,447.637 L 1006.58,447.818 L 1006.72,447.982 L 1006.67,448.091 L 1006.57,448.135"
       id="path16065"
       style="fill-rule:evenodd" />                     
   </g>
</svg>