<svg
   xmlns:svg="http://www.w3.org/2000/svg"
   xmlns="http://www.w3.org/2000/svg"
   version="1.0"
   width="2100"
   height="1300"
   viewBox="0 0 2100 1300"
   id="svg14921">
   <g
     transform="matrix(2.2640019,0,0,2.2640019,-216.71416,-21.6991)"
     id="g14955"
     style="font-size:16.25px;font-style:normal;font-weight:400;fill:#fefee9;fill-opacity:1;fill-rule:evenodd;stroke:#000000;stroke-width:0.0984252;stroke-linecap:square;stroke-linejoin:bevel;stroke-opacity:1;font-family:Lucida Grande">
    <path
       name="chilmark" d="M 818.314,522.363 L 819.492,524.235 L 820.007,525.098 L 822.259,528.49 L 824.307,532.83 L 825.05,534.023 L 825.707,535.1 L 826.112,534.874 L 826.754,534.006 L 826.913,533.763 L 826.993,533.649 L 827.046,533.57 L 827.101,533.511 L 827.166,533.446 L 827.25,533.374 L 827.337,533.298 L 827.415,533.228 L 827.513,533.132 L 827.584,533.187 L 827.612,533.25 L 827.728,533.306 L 827.843,533.383 L 827.941,533.463 L 827.995,533.554 L 828.03,533.617 L 828.054,533.693 L 828.111,533.766 L 828.222,533.864 L 828.376,533.989 L 828.39,534.049 L 828.448,534.165 L 828.492,534.235 L 828.558,534.287 L 828.7,534.321 L 829.097,534.45 L 829.207,534.467 L 829.323,534.464 L 829.426,534.468 L 829.593,534.486 L 829.654,534.501 L 829.728,534.53 L 829.782,534.614 L 829.827,534.788 L 829.862,534.891 L 829.9,535.101 L 829.922,535.289 L 829.931,535.441 L 830.052,536.172 L 830.161,536.627 L 830.188,536.717 L 830.228,536.778 L 830.316,536.917 L 830.366,537.085 L 830.407,537.256 L 830.45,537.466 L 830.48,537.659 L 830.527,537.822 L 830.576,537.988 L 830.625,538.13 L 830.71,538.29 L 830.806,538.423 L 830.895,538.505 L 831.01,538.592 L 831.129,538.653 L 831.236,538.686 L 831.321,538.726 L 831.372,538.777 L 831.406,538.835 L 831.443,538.949 L 831.493,539.165 L 831.558,539.316 L 831.634,539.49 L 831.715,539.645 L 831.809,539.803 L 831.893,539.92 L 832.019,540.071 L 832.142,540.213 L 832.301,540.362 L 832.428,540.477 L 832.589,540.603 L 832.712,540.692 L 832.863,540.799 L 832.994,540.9 L 833.095,540.987 L 833.206,541.069 L 833.304,541.178 L 833.38,541.26 L 833.469,541.351 L 833.573,541.486 L 833.715,541.653 L 833.785,541.771 L 833.845,541.872 L 833.923,542.009 L 833.972,542.101 L 834.101,542.354 L 834.141,542.465 L 834.186,542.577 L 834.234,542.714 L 834.284,542.899 L 834.334,543.14 L 834.395,543.478 L 834.436,543.771 L 834.44,543.897 L 834.363,543.909 L 833.505,543.94 L 833.23,543.997 L 831.231,544.173 L 830.878,544.233 L 829.752,544.306 L 828.849,544.543 L 828.212,544.574 L 827.393,544.582 L 826.732,544.636 L 826.039,544.64 L 825.67,544.707 L 824.285,544.831 L 823.813,544.916 L 822.712,544.982 L 822.35,545.064 L 821.941,545.066 L 821.147,545.232 L 820.463,545.326 L 819.166,545.575 L 818.577,545.728 L 817.51,546.094 L 817.227,546.158 L 817.039,546.257 L 816.223,546.491 L 815.429,546.672 L 815.115,546.809 L 814.848,546.86 L 814.306,547.031 L 813.106,547.521 L 811.484,548.3 L 810.154,549.148 L 809.419,549.715 L 809.24,549.903 L 809.163,550.07 L 809.104,550.521 L 809.035,550.765 L 808.93,550.914 L 808.641,551.192 L 808.201,551.323 L 807.824,551.492 L 806.829,552.042 L 806.305,552.457 L 806.071,552.734 L 805.712,553.091 L 805.281,553.464 L 805.133,553.623 L 805.079,553.758 L 804.955,553.994 L 804.732,554.714 L 804.719,554.934 L 804.665,555.116 L 804.423,555.361 L 804.237,555.702 L 804.16,555.952 L 804.171,556.293 L 804.235,556.418 L 804.592,556.848 L 804.649,556.98 L 804.634,557.098 L 804.526,557.352 L 804.42,557.873 L 804.187,558.277 L 804.01,558.797 L 803.721,559.115 L 802.725,559.634 L 802.207,559.749 L 801.962,559.734 L 801.726,559.682 L 801.56,559.597 L 801.322,559.362 L 801.124,559.231 L 800.966,559.152 L 800.688,558.871 L 800.402,558.653 L 800.134,558.497 L 799.412,557.851 L 799.016,557.587 L 798.312,557.244 L 797.696,556.989 L 797.048,556.664 L 796.391,556.174 L 796.224,556.018 L 795.83,555.743 L 795.823,553.904 L 799.884,555.454 L 799.72,550.493 L 799.778,550.423 L 800.414,549.601 L 800.747,549.65 L 801.046,549.648 L 801.173,549.703 L 801.426,549.882 L 801.528,549.873 L 801.534,549.643 L 801.62,549.51 L 802.052,549.405 L 802.414,549.416 L 802.564,549.393 L 802.697,549.327 L 802.892,549.16 L 803.018,549.12 L 803.199,549.158 L 803.499,549.186 L 803.649,549.287 L 803.729,549.39 L 803.753,549.486 L 803.722,549.586 L 803.566,549.653 L 803.33,549.7 L 803.078,549.695 L 802.92,549.64 L 802.826,549.658 L 802.763,549.722 L 802.78,549.809 L 802.835,549.869 L 803.278,550.07 L 803.397,550.213 L 803.398,550.386 L 803.376,550.505 L 803.385,550.715 L 803.546,551.107 L 803.713,551.36 L 803.715,551.524 L 803.502,551.58 L 803.543,551.731 L 803.67,551.823 L 803.78,551.823 L 803.913,551.76 L 804.116,551.544 L 804.28,551.285 L 804.522,551.101 L 804.617,551.083 L 804.711,551.13 L 804.752,551.218 L 804.815,551.263 L 805.083,551.317 L 805.21,551.403 L 805.265,551.473 L 805.383,551.473 L 805.556,551.375 L 805.8,551.343 L 805.854,551.285 L 805.672,551.145 L 805.617,551.085 L 805.624,551.004 L 805.686,550.94 L 805.843,550.886 L 805.882,550.767 L 805.944,550.688 L 805.965,550.411 L 806.059,550.349 L 806.193,550.324 L 806.343,550.394 L 806.446,550.487 L 806.511,550.699 L 806.555,551.256 L 806.588,551.413 L 806.707,551.58 L 806.817,551.571 L 807.052,551.434 L 807.459,551.115 L 807.498,551.052 L 807.482,550.981 L 807.363,550.904 L 807.26,550.795 L 807.203,550.614 L 807.108,550.545 L 806.785,550.461 L 806.626,550.376 L 806.341,550.158 L 806.112,550.103 L 806.017,550.05 L 805.922,549.941 L 805.844,549.956 L 805.758,550.091 L 805.64,550.169 L 805.444,550.172 L 805.246,550.047 L 805.12,550.048 L 804.979,550.129 L 804.861,550.17 L 804.726,550.059 L 804.687,550.005 L 804.709,549.824 L 804.88,549.587 L 804.894,549.397 L 804.83,549.296 L 804.781,549.099 L 804.695,549.114 L 804.656,549.171 L 804.588,549.548 L 804.519,549.786 L 804.521,550.006 L 804.593,550.147 L 804.595,550.33 L 804.146,550.315 L 804.145,550.247 L 804.207,550.173 L 804.223,550.08 L 804.151,549.955 L 803.977,549.886 L 803.921,549.822 L 803.897,549.742 L 803.926,549.475 L 804.09,549.2 L 804.15,548.916 L 804.197,548.828 L 804.486,548.637 L 804.627,548.502 L 804.728,548.329 L 804.908,548.138 L 805.032,547.939 L 805.239,547.284 L 805.276,547.023 L 805.225,546.513 L 805.129,546.286 L 805.088,546.11 L 805.102,545.859 L 805.226,545.607 L 805.264,545.448 L 805.261,545.063 L 805.115,544.63 L 805.004,544.466 L 804.964,544.396 L 804.97,544.207 L 805.071,544.095 L 805.511,543.856 L 805.605,543.878 L 805.795,544.034 L 805.858,544.02 L 805.865,543.837 L 805.61,543.534 L 805.554,543.359 L 805.45,543.204 L 805.355,543.135 L 805.181,543.072 L 804.992,543.049 L 804.905,543.002 L 804.723,542.794 L 804.69,542.714 L 804.727,542.415 L 804.692,541.942 L 804.715,541.854 L 804.683,541.784 L 804.46,541.558 L 804.31,541.512 L 804.185,541.559 L 804.067,541.544 L 804.082,541.466 L 804.223,541.357 L 804.457,541.117 L 804.62,540.886 L 804.682,540.76 L 804.752,540.681 L 804.861,540.43 L 804.99,539.908 L 805.231,539.442 L 805.722,538.904 L 805.822,538.603 L 806.038,538.088 L 806.177,537.718 L 806.192,537.554 L 806.261,537.362 L 806.393,537.132 L 806.916,536.593 L 806.939,536.506 L 807.173,536.198 L 807.421,535.794 L 807.639,535.384 L 807.786,535.185 L 808.474,534.551 L 808.953,534.288 L 809.482,534.007 L 809.6,533.929 L 809.903,533.579 L 810.234,532.772 L 810.57,532.487 L 810.6,532.312 L 810.638,532.224 L 810.866,532.137 L 810.921,532.089 L 811.15,531.347 L 811.346,530.501 L 811.374,530.107 L 811.427,529.888 L 811.744,529.237 L 811.78,528.954 L 811.912,528.692 L 812.161,528.425 L 812.245,528.146 L 812.315,528.029 L 812.566,527.898 L 812.651,527.781 L 812.967,527.108 L 813.028,526.886 L 813.167,526.609 L 813.214,526.555 L 813.322,526.31 L 813.581,526.228 L 813.96,526.344 L 814.22,526.318 L 814.572,526.116 L 814.847,526.074 L 815.216,525.914 L 815.356,525.715 L 815.628,525.415 L 815.698,525.255 L 816.126,524.756 L 816.356,524.148 L 816.457,523.974 L 816.559,523.9 L 816.865,523.866 L 816.991,523.779 L 817.195,523.729 L 817.288,523.627 L 817.451,523.365 L 817.63,523.134 L 817.818,523.048 L 817.911,522.887 L 818.277,522.476 L 818.314,522.363"
       id="path16187"
       style="fill-rule:evenodd" />
    <path
       name="chilmark" d="M 805.49,550.974 L 805.339,550.903 L 805.291,550.716 L 805.116,550.544 L 805.115,550.473 L 805.194,550.418 L 805.508,550.374 L 805.657,550.311 L 805.752,550.327 L 805.801,550.561 L 805.77,550.624 L 805.544,550.857 L 805.49,550.974"
       id="path16205"
       style="fill-rule:evenodd" />       
   </g>
</svg>