<svg
   xmlns:svg="http://www.w3.org/2000/svg"
   xmlns="http://www.w3.org/2000/svg"
   version="1.0"
   width="2100"
   height="1300"
   viewBox="0 0 2100 1300"
   id="svg14921">
   <g
     transform="matrix(2.2640019,0,0,2.2640019,-216.71416,-21.6991)"
     id="g14955"
     style="font-size:16.25px;font-style:normal;font-weight:400;fill:#fefee9;fill-opacity:1;fill-rule:evenodd;stroke:#000000;stroke-width:0.0984252;stroke-linecap:square;stroke-linejoin:bevel;stroke-opacity:1;font-family:Lucida Grande">
    <path
       name="cohasset" d="M 786.53,228.077 L 786.567,228.165 L 786.702,228.344 L 786.891,228.382 L 787.072,228.339 L 787.12,228.434 L 787.325,228.45 L 787.427,228.409 L 787.813,228.398 L 788.798,228.509 L 788.924,228.586 L 789.745,228.776 L 789.949,228.742 L 790.107,228.812 L 790.203,228.883 L 790.291,229.07 L 790.356,229.347 L 790.396,229.454 L 790.554,229.509 L 790.656,229.509 L 790.743,229.469 L 790.774,229.412 L 790.852,229.404 L 790.94,229.532 L 791.327,229.74 L 791.383,229.801 L 791.448,229.96 L 791.535,230.054 L 791.685,230.114 L 792.094,230.071 L 792.29,229.96 L 792.518,229.95 L 792.637,230.021 L 792.654,230.123 L 792.717,230.208 L 792.726,230.32 L 792.68,230.47 L 792.712,230.587 L 793.133,230.953 L 793.37,231.061 L 794.101,230.977 L 794.291,231.077 L 794.308,231.148 L 794.261,231.292 L 794.372,231.307 L 794.507,231.508 L 794.596,231.744 L 794.716,231.942 L 794.708,232.004 L 794.608,232.218 L 794.498,232.274 L 794.396,232.299 L 794.261,232.204 L 794.041,232.223 L 793.939,232.3 L 793.789,232.335 L 793.633,232.439 L 793.57,232.438 L 793.538,232.368 L 793.536,232.194 L 793.591,232.068 L 793.832,231.782 L 793.828,231.708 L 793.629,231.791 L 793.584,231.807 L 793.497,231.818 L 793.413,231.836 L 793.342,231.854 L 793.296,231.85 L 793.267,231.838 L 793.245,231.816 L 793.229,231.797 L 793.198,231.765 L 793.172,231.754 L 793.136,231.752 L 793.121,231.766 L 793.087,231.784 L 793.067,231.776 L 793.042,231.744 L 793.03,231.727 L 793.016,231.695 L 793.004,231.664 L 792.994,231.622 L 792.978,231.577 L 792.968,231.536 L 792.95,231.463 L 792.931,231.401 L 792.742,231.271 L 792.717,231.114 L 792.669,231.035 L 792.479,230.981 L 792.575,231.075 L 792.554,231.416 L 792.484,231.564 L 792.343,231.692 L 792.124,231.804 L 792.014,231.922 L 791.739,231.934 L 791.541,231.753 L 791.478,231.755 L 791.376,231.904 L 791.259,232 L 791.118,232.079 L 790.772,232.185 L 790.717,232.146 L 790.589,231.834 L 790.609,231.408 L 790.678,231.155 L 790.787,231.059 L 791.015,231.034 L 791.117,230.984 L 791.42,230.541 L 791.371,230.276 L 791.192,230.464 L 791.153,230.536 L 791.139,230.726 L 791.1,230.814 L 790.888,230.926 L 790.707,230.934 L 790.628,230.809 L 790.611,230.658 L 790.689,230.634 L 790.854,230.632 L 790.877,230.548 L 790.655,230.303 L 790.654,230.216 L 790.811,230.097 L 790.81,230.035 L 790.747,229.971 L 790.385,229.976 L 790.355,230.203 L 790.262,230.426 L 790.192,230.512 L 789.988,230.608 L 789.989,230.673 L 790.083,230.711 L 790.28,230.702 L 790.36,230.842 L 790.426,231.187 L 790.446,231.708 L 790.411,232.283 L 790.262,232.309 L 790.199,232.388 L 790.01,232.419 L 789.964,232.522 L 789.886,232.627 L 789.887,232.689 L 790.163,232.758 L 790.209,232.686 L 790.185,232.599 L 790.192,232.522 L 790.381,232.488 L 790.461,232.567 L 790.477,232.684 L 790.415,232.794 L 790.44,232.961 L 790.661,232.973 L 790.762,232.871 L 791.14,232.789 L 791.281,232.797 L 791.351,232.692 L 791.414,232.653 L 791.587,232.627 L 791.673,232.556 L 791.767,232.531 L 791.871,232.649 L 791.866,233.05 L 791.898,233.12 L 791.954,233.222 L 791.956,233.387 L 791.988,233.457 L 792.107,233.553 L 792.115,233.646 L 791.998,233.727 L 791.919,233.695 L 791.68,233.438 L 791.648,233.343 L 791.449,233.124 L 791.386,233.048 L 791.315,233.063 L 791.268,233.126 L 791.253,233.227 L 791.294,233.353 L 791.263,233.426 L 790.92,233.87 L 790.929,233.994 L 791.229,234.134 L 791.39,234.48 L 791.508,234.541 L 791.649,234.413 L 791.759,234.388 L 791.972,234.7 L 792.155,234.703 L 792.228,234.704 L 792.28,234.699 L 792.321,234.705 L 792.354,234.711 L 792.382,234.692 L 792.412,234.677 L 792.458,234.65 L 792.511,234.635 L 792.529,234.611 L 792.533,234.584 L 792.544,234.562 L 792.56,234.543 L 792.574,234.529 L 792.578,234.504 L 792.6,234.463 L 792.628,234.443 L 792.679,234.417 L 792.716,233.917 L 792.809,233.697 L 792.808,233.579 L 792.682,233.626 L 792.619,233.588 L 792.602,233.47 L 792.694,233.17 L 792.741,233.123 L 792.803,233.059 L 792.874,233.051 L 792.89,233.122 L 793.167,233.227 L 793.161,233.426 L 793.2,233.471 L 793.264,233.488 L 793.373,233.336 L 793.536,233.129 L 793.836,233.136 L 793.946,233.183 L 793.969,233.106 L 793.857,232.932 L 793.856,232.768 L 794.107,232.63 L 794.373,232.399 L 794.387,232.337 L 794.505,232.326 L 794.617,232.407 L 794.804,232.175 L 794.85,231.963 L 795.029,231.772 L 795.217,231.645 L 795.328,231.676 L 795.556,231.722 L 795.667,231.824 L 795.833,231.844 L 795.912,231.814 L 795.967,231.853 L 795.945,232.105 L 795.884,232.262 L 795.853,232.427 L 795.62,232.744 L 795.654,233.106 L 795.726,233.214 L 795.908,233.246 L 795.994,233.206 L 796.142,233.088 L 796.306,232.919 L 796.527,232.919 L 796.707,232.808 L 796.778,232.806 L 796.826,232.876 L 796.834,232.994 L 796.788,233.082 L 796.758,233.23 L 796.813,233.254 L 796.902,233.49 L 797.019,233.424 L 797.122,233.409 L 797.201,233.478 L 797.21,233.651 L 797.077,233.81 L 796.944,233.861 L 796.756,234.034 L 796.458,234.17 L 796.325,234.267 L 796.342,234.375 L 796.359,234.511 L 796.407,234.658 L 796.474,235.1 L 796.443,235.234 L 796.28,235.534 L 796.186,235.589 L 795.525,235.587 L 795.486,235.659 L 795.747,235.831 L 795.827,235.916 L 795.836,236.043 L 795.781,236.113 L 795.679,236.193 L 795.199,236.22 L 794.9,236.278 L 794.791,236.359 L 794.737,236.525 L 794.801,236.635 L 794.864,236.673 L 795.155,236.621 L 795.21,236.536 L 795.516,236.493 L 795.564,236.556 L 795.581,236.683 L 795.55,236.746 L 795.543,236.87 L 795.567,236.935 L 795.639,237.004 L 795.746,237.033 L 795.751,237.453 L 795.612,237.594 L 795.613,237.665 L 795.456,237.779 L 795.378,237.911 L 795.316,237.938 L 795.079,237.914 L 795.064,237.97 L 795.151,238.039 L 795.404,238.134 L 795.672,238.179 L 795.783,238.327 L 795.909,238.327 L 796.247,238.236 L 796.366,238.36 L 796.338,238.724 L 796.276,238.865 L 796.143,238.953 L 796.009,238.988 L 795.922,239.02 L 795.869,239.09 L 795.862,239.296 L 795.903,239.53 L 795.906,239.847 L 795.981,240.35 L 796.029,240.426 L 796.187,240.512 L 796.281,240.512 L 796.667,240.454 L 796.683,240.525 L 796.645,240.681 L 796.623,240.871 L 796.655,240.966 L 796.664,241.14 L 796.801,241.492 L 797.015,241.492 L 797.011,241.561 L 796.985,241.617 L 796.905,241.706 L 796.823,241.712 L 796.729,241.61 L 796.691,241.531 L 796.654,241.479 L 796.551,241.427 L 796.476,241.415 L 796.393,241.426 L 796.311,241.448 L 796.232,241.479 L 796.136,241.555 L 796.106,241.617 L 796.119,241.729 L 796.15,241.893 L 796.233,242.312 L 794.033,244.112 L 786.461,250.109 L 782.906,245.908 L 779.58,236.826 L 782.705,235.501 L 782.678,235.075 L 780.629,234.144 L 780.735,234.021 L 780.858,233.887 L 780.865,233.735 L 780.886,233.475 L 780.88,233.198 L 780.876,233.011 L 780.82,232.857 L 780.754,232.694 L 780.718,232.569 L 780.718,232.457 L 780.742,232.368 L 780.802,232.196 L 780.913,232.099 L 780.997,231.974 L 781.117,231.781 L 781.143,231.688 L 781.158,231.559 L 781.181,231.425 L 781.221,231.359 L 781.271,231.197 L 781.425,230.804 L 781.557,230.384 L 781.676,230.023 L 781.724,229.89 L 781.785,229.612 L 781.883,229.625 L 781.967,229.63 L 782.105,229.625 L 782.292,229.604 L 782.455,229.566 L 782.582,229.526 L 782.701,229.481 L 782.818,229.406 L 782.885,229.322 L 782.948,229.214 L 782.996,229.141 L 783.073,229.037 L 783.13,228.946 L 783.14,228.847 L 783.154,228.766 L 783.212,228.68 L 783.258,228.634 L 783.313,228.59 L 783.545,228.399 L 783.72,228.277 L 783.835,228.181 L 783.936,228.133 L 784.073,228.09 L 784.142,228.086 L 786.326,228.245 L 786.455,228.195 L 786.53,228.077"
       id="path15597"
       style="fill-rule:evenodd" />
    <path
       name="cohasset" d="M 794.769,230.697 L 794.767,230.523 L 794.79,230.461 L 794.765,230.185 L 794.936,229.994 L 794.999,229.961 L 795.071,230.127 L 794.938,230.224 L 794.938,230.286 L 795.057,230.285 L 795.073,230.341 L 795.01,230.42 L 794.917,230.593 L 794.769,230.697"
       id="path15607"
       style="fill-rule:evenodd" />       
   </g>
</svg>