<svg
   xmlns:svg="http://www.w3.org/2000/svg"
   xmlns="http://www.w3.org/2000/svg"
   version="1.0"
   width="2100"
   height="1300"
   viewBox="0 0 2100 1300"
   id="svg14921">
   <g
     transform="matrix(2.2640019,0,0,2.2640019,-216.71416,-21.6991)"
     id="g14955"
     style="font-size:16.25px;font-style:normal;font-weight:400;fill:#fefee9;fill-opacity:1;fill-rule:evenodd;stroke:#000000;stroke-width:0.0984252;stroke-linecap:square;stroke-linejoin:bevel;stroke-opacity:1;font-family:Lucida Grande">
    <path
       name="dartmouth" d="M 752.042,411.058 L 749.087,430.169 L 751.139,440.47 L 753.539,443.36 L 753.712,444.493 L 755.638,448.519 L 756.325,449.953 L 759.777,452.197 L 760.267,453.722 L 760.59,453.476 L 760.72,453.334 L 760.886,454.285 L 761.05,454.259 L 761.05,454.473 L 761.13,454.694 L 761.172,455.102 L 761.236,455.324 L 761.411,455.542 L 761.515,455.793 L 761.517,456.1 L 761.417,456.456 L 761.397,456.943 L 761.437,457.125 L 761.725,457.712 L 761.725,457.777 L 761.87,458.185 L 762.029,458.373 L 762.083,459.444 L 762.069,459.664 L 762.038,459.734 L 761.685,460.035 L 761.6,460.171 L 761.538,460.337 L 761.5,460.571 L 761.322,461.022 L 761.191,461.417 L 761.145,461.638 L 761.187,462.102 L 761.173,462.338 L 761.127,462.55 L 761.057,462.692 L 760.66,463.277 L 760.653,463.389 L 760.569,463.735 L 760.507,463.917 L 760.413,464.019 L 760.107,464.273 L 759.717,464.678 L 759.506,464.954 L 759.436,465.018 L 759.364,465.001 L 759.262,464.948 L 759.198,464.869 L 759.173,464.681 L 758.988,464.131 L 758.885,463.911 L 758.758,463.785 L 758.6,463.709 L 758.12,463.726 L 758.055,463.405 L 757.941,462.95 L 757.899,462.517 L 757.702,462.516 L 757.655,462.471 L 757.631,462.401 L 757.669,462.337 L 757.857,462.177 L 757.832,461.942 L 757.769,461.826 L 757.651,461.848 L 757.463,461.993 L 757.266,461.977 L 757.138,461.804 L 757.146,461.736 L 757.2,461.663 L 757.168,461.506 L 756.946,461.32 L 756.835,461.131 L 756.778,460.94 L 756.691,460.794 L 756.556,460.643 L 756.452,460.472 L 756.342,460.386 L 756.16,460.317 L 755.891,460.113 L 755.764,459.971 L 755.54,459.454 L 755.429,459.392 L 755.067,459.372 L 754.925,459.277 L 754.813,459.066 L 754.702,458.958 L 754.646,458.798 L 754.479,458.549 L 754.374,458.155 L 754.326,458.11 L 754.177,458.102 L 754.113,458.054 L 753.827,457.672 L 753.526,457.358 L 753.541,457.271 L 753.69,457.08 L 753.689,456.972 L 753.303,456.974 L 753.24,456.997 L 753.265,457.133 L 753.276,457.548 L 753.38,457.839 L 753.38,457.902 L 753.476,458.107 L 753.426,458.926 L 753.474,459.002 L 753.608,458.971 L 753.68,459.127 L 753.673,459.301 L 753.54,459.428 L 753.54,459.49 L 753.738,459.522 L 753.817,459.575 L 753.825,459.662 L 753.755,459.726 L 753.779,459.837 L 753.78,459.908 L 753.685,459.93 L 753.496,459.861 L 753.441,459.903 L 753.402,460.012 L 753.403,460.09 L 753.458,460.122 L 753.552,460.119 L 753.631,460.08 L 753.796,460.047 L 754.199,460.187 L 754.184,460.362 L 754.068,460.613 L 753.95,460.694 L 753.824,460.716 L 753.792,460.599 L 753.689,460.584 L 753.494,460.729 L 753.36,460.761 L 753.028,460.519 L 752.916,460.305 L 752.805,460.222 L 752.734,460.23 L 752.729,460.621 L 752.637,460.915 L 752.7,461.031 L 752.703,461.347 L 752.791,461.583 L 752.816,461.771 L 752.951,461.929 L 753.188,462.074 L 753.456,462.199 L 753.48,462.264 L 753.331,462.302 L 753.34,462.469 L 753.475,462.608 L 753.532,462.938 L 753.619,463.041 L 753.753,463.046 L 753.981,463 L 754.241,463.014 L 754.626,462.823 L 754.735,462.717 L 754.782,462.592 L 754.781,462.514 L 754.812,462.452 L 754.883,462.409 L 755.119,462.387 L 755.497,462.447 L 755.96,462.198 L 756.848,461.924 L 756.919,462.034 L 756.928,462.13 L 756.315,462.355 L 756.3,462.455 L 756.428,462.73 L 756.461,462.958 L 756.394,463.447 L 756.396,463.794 L 756.492,464.061 L 756.574,464.549 L 756.638,464.618 L 756.678,464.775 L 756.774,464.955 L 756.831,465.301 L 756.959,465.545 L 756.96,465.672 L 757.008,465.851 L 757.064,466.01 L 757.161,466.314 L 757.169,466.385 L 757.337,466.715 L 757.448,466.802 L 758.059,467.528 L 758.321,467.93 L 758.551,468.196 L 759.161,468.774 L 759.614,469.316 L 759.718,469.548 L 759.839,469.988 L 759.857,470.375 L 759.889,470.43 L 759.817,471.477 L 759.85,471.705 L 759.97,471.894 L 760.192,472.114 L 760.192,472.176 L 760.106,472.231 L 759.997,472.374 L 759.802,472.674 L 759.771,472.87 L 759.769,473.602 L 759.866,474.107 L 759.947,474.341 L 760.042,474.474 L 760.343,474.779 L 760.606,475.149 L 761.062,476.209 L 761.612,477.321 L 761.891,477.729 L 762.058,478.074 L 762.035,478.152 L 761.917,478.177 L 761.681,478.126 L 761.531,478.055 L 761.183,477.821 L 760.914,477.689 L 760.457,477.622 L 759.819,477.634 L 759.583,477.69 L 759.371,477.7 L 758.891,477.71 L 758.333,477.878 L 757.885,478.102 L 757.354,478.744 L 757.23,479.011 L 757.145,479.193 L 757.162,479.407 L 757.194,479.514 L 757.195,479.651 L 757.15,479.919 L 757.137,480.39 L 757.038,480.917 L 757.031,481.091 L 756.978,481.328 L 756.916,481.423 L 756.413,481.568 L 756.044,481.712 L 755.321,482.03 L 755.203,482.009 L 755.336,481.927 L 755.555,481.707 L 756.105,481.403 L 756.371,481.268 L 756.434,481.189 L 756.425,481.056 L 756.353,480.946 L 756.171,480.775 L 755.578,480.392 L 755.279,480.385 L 754.994,480.238 L 754.884,480.208 L 754.805,480.241 L 754.816,480.554 L 754.864,480.71 L 754.883,481.311 L 754.783,481.578 L 754.753,481.824 L 754.794,482.089 L 754.882,482.198 L 755.102,482.182 L 755.04,482.395 L 755.082,482.679 L 755.114,482.821 L 755.226,483.118 L 755.235,483.189 L 755.525,484.185 L 755.622,484.66 L 755.648,485.022 L 755.753,485.375 L 755.802,485.579 L 755.804,485.854 L 755.728,486.343 L 755.666,486.525 L 755.596,486.636 L 755.541,486.659 L 755.415,486.65 L 755.281,486.573 L 755.011,486.19 L 754.883,485.937 L 754.817,485.505 L 754.641,485.113 L 754.593,485.059 L 754.585,484.972 L 754.469,484.082 L 754.457,483.54 L 754.408,483.133 L 754.31,482.738 L 754.206,482.478 L 753.95,481.797 L 753.823,481.649 L 753.617,481.475 L 753.088,481.252 L 752.961,481.088 L 752.936,480.921 L 752.833,480.819 L 752.73,480.788 L 752.305,480.754 L 751.997,480.614 L 751.728,480.432 L 751.704,480.377 L 751.686,480.049 L 751.54,479.452 L 751.484,479.261 L 751.404,479.121 L 751.411,479.009 L 751.49,478.985 L 751.687,479.063 L 751.782,479.048 L 751.797,478.952 L 751.654,478.788 L 751.661,478.624 L 751.692,478.53 L 752.02,478.195 L 752.011,478.071 L 751.828,477.763 L 751.828,477.692 L 752.055,477.481 L 752.148,477.339 L 752.265,477.18 L 752.233,477.085 L 752.068,477.102 L 751.831,476.976 L 751.61,476.923 L 751.406,476.941 L 751.327,477.027 L 751.265,477.051 L 751.012,476.959 L 751.035,476.794 L 750.939,476.707 L 750.947,476.635 L 751.174,476.492 L 751.244,476.382 L 751.527,476.262 L 751.936,476.244 L 751.944,476.166 L 751.746,476.048 L 751.579,475.82 L 751.568,475.294 L 751.661,475.121 L 751.661,475.049 L 751.511,475.06 L 751.339,475.226 L 751.308,475.311 L 751.318,475.673 L 751.28,475.786 L 751.1,475.918 L 750.912,476.141 L 750.81,476.212 L 750.543,476.309 L 750.214,476.492 L 749.915,476.517 L 749.907,476.628 L 750.011,476.762 L 750.129,476.762 L 750.309,476.632 L 750.373,476.798 L 750.178,477.067 L 750.148,477.232 L 750.165,477.461 L 750.244,477.561 L 750.387,477.687 L 750.656,477.803 L 750.774,477.912 L 750.988,478.023 L 751.153,478.006 L 751.255,477.966 L 751.325,477.862 L 751.395,477.704 L 751.465,477.656 L 751.6,477.686 L 751.695,477.845 L 751.72,477.962 L 751.689,478.102 L 751.627,478.247 L 751.51,478.42 L 751.431,478.46 L 751.36,478.453 L 751.297,478.358 L 751.029,478.36 L 751.024,478.723 L 751.056,478.849 L 751.271,479.199 L 751.289,479.453 L 751.274,479.689 L 751.22,479.784 L 750.868,480.188 L 750.806,480.304 L 750.7,480.958 L 750.552,481.096 L 750.307,481.057 L 749.929,481.074 L 749.764,480.989 L 749.597,480.841 L 749.305,480.645 L 749.312,480.583 L 749.468,480.362 L 749.483,480.203 L 749.553,480.148 L 749.616,480.165 L 749.619,480.503 L 749.713,480.503 L 750.035,480.336 L 750.089,480.257 L 750.135,480.113 L 750.354,479.877 L 750.52,479.844 L 750.621,479.677 L 750.62,479.519 L 750.493,479.448 L 750.375,479.467 L 750.258,479.616 L 749.999,479.714 L 749.826,479.815 L 749.692,479.769 L 749.589,479.589 L 749.223,479.119 L 749.198,478.921 L 749.363,478.74 L 749.543,478.691 L 749.859,478.778 L 749.899,478.91 L 749.947,478.949 L 750.049,478.903 L 750.15,478.776 L 750.401,478.577 L 750.421,478.089 L 750.366,478.057 L 750.256,478.097 L 750.148,478.491 L 750.093,478.514 L 750.03,478.507 L 749.927,478.445 L 749.77,478.431 L 749.596,478.284 L 749.533,478.323 L 749.495,478.442 L 749.432,478.481 L 749.352,478.378 L 749.107,478.224 L 749.052,478.247 L 749.006,478.381 L 748.919,478.381 L 748.667,478.305 L 748.321,478.377 L 748.28,478.167 L 748.193,478.07 L 747.869,477.987 L 747.695,477.815 L 747.671,477.713 L 747.702,477.604 L 747.676,477.31 L 747.446,477.094 L 747.406,477.005 L 747.356,476.591 L 747.221,476.409 L 747.157,476.243 L 746.691,475.996 L 746.517,475.949 L 746.36,475.997 L 746.234,475.997 L 746.1,475.896 L 745.997,475.899 L 745.919,476 L 745.706,475.907 L 745.572,475.917 L 745.438,475.791 L 745.041,475.368 L 744.962,475.33 L 744.899,475.363 L 744.948,475.582 L 745.068,475.826 L 745.076,475.919 L 744.705,475.766 L 744.208,475.634 L 744.003,475.55 L 743.94,475.487 L 743.914,475.202 L 743.882,475.126 L 743.74,475 L 743.598,474.908 L 743.323,475.121 L 743.229,475.108 L 743.173,475.076 L 743.189,474.973 L 743.352,474.602 L 743.335,474.327 L 743.303,474.272 L 743.27,473.972 L 743.379,473.711 L 743.385,473.389 L 743.337,473.226 L 743.335,472.869 L 743.53,472.398 L 743.529,472.296 L 743.427,472.302 L 743.318,472.525 L 743.24,472.698 L 743.114,472.739 L 743.011,472.658 L 742.868,472.399 L 742.919,471.628 L 742.721,471.407 L 742.682,471.331 L 742.751,471.087 L 742.947,470.818 L 742.978,470.684 L 742.984,470.463 L 742.897,470.339 L 742.888,470.013 L 742.555,469.607 L 742.568,469.188 L 742.552,469.126 L 742.458,469.12 L 742.364,469.228 L 742.366,469.631 L 742.343,469.827 L 742.407,470.018 L 742.542,470.166 L 742.574,470.245 L 742.575,470.425 L 742.513,470.669 L 742.483,470.915 L 742.335,471.223 L 742.319,471.301 L 742.376,471.483 L 742.376,471.678 L 742.33,471.813 L 742.309,472.294 L 742.285,472.347 L 742.318,472.616 L 742.389,472.71 L 742.619,472.865 L 742.753,473.022 L 742.793,473.117 L 742.771,473.329 L 742.867,473.59 L 742.867,473.723 L 742.836,473.786 L 742.773,473.803 L 742.678,473.747 L 742.622,473.581 L 742.496,473.464 L 742.37,473.443 L 742.315,473.513 L 742.259,474.798 L 742.119,475.215 L 742.097,475.641 L 742.059,475.806 L 741.973,475.995 L 741.848,476.147 L 741.833,476.21 L 741.88,476.326 L 741.983,476.351 L 742.251,476.325 L 742.369,476.42 L 742.37,476.489 L 742.182,476.823 L 742.175,476.907 L 742.379,476.867 L 742.52,476.717 L 742.646,476.695 L 742.804,476.765 L 742.978,476.983 L 743.247,477.146 L 743.485,477.43 L 743.548,477.546 L 743.619,477.569 L 743.65,477.797 L 743.677,477.959 L 743.626,478.085 L 743.697,478.086 L 743.823,477.983 L 743.915,477.714 L 743.922,477.549 L 744.03,477.248 L 744.117,477.218 L 744.227,477.255 L 744.313,477.169 L 744.321,477.107 L 744.375,477.018 L 744.791,476.811 L 744.893,476.731 L 744.908,476.628 L 744.86,476.558 L 744.86,476.496 L 744.993,476.424 L 745.088,476.446 L 745.23,476.532 L 745.547,476.805 L 745.649,476.789 L 745.791,476.788 L 746.017,476.496 L 746.182,476.352 L 746.284,476.337 L 746.426,476.376 L 746.584,476.539 L 746.719,476.712 L 746.815,476.907 L 746.99,477.175 L 747.046,477.307 L 747.08,477.684 L 747.177,477.96 L 747.131,478.182 L 747.234,478.284 L 747.29,478.447 L 747.267,478.534 L 747.204,478.582 L 746.913,478.622 L 746.843,478.686 L 746.835,478.782 L 747.098,479.227 L 747.091,479.386 L 747.029,479.394 L 746.91,479.276 L 746.705,479.264 L 746.619,479.334 L 746.533,479.482 L 746.495,479.611 L 746.55,479.68 L 746.551,479.86 L 746.419,480.05 L 746.894,480.48 L 747.408,480.768 L 747.51,480.728 L 747.563,480.485 L 747.522,480.257 L 747.466,480.116 L 747.465,479.865 L 747.361,479.644 L 747.352,479.533 L 747.327,479.289 L 747.395,478.871 L 747.465,478.777 L 747.535,478.604 L 747.598,478.546 L 747.661,478.579 L 747.67,478.712 L 747.6,478.862 L 747.538,479.122 L 747.533,479.478 L 747.549,479.549 L 747.699,479.619 L 747.848,479.475 L 748.1,479.443 L 748.272,479.268 L 748.35,479.234 L 748.556,479.321 L 748.722,479.484 L 748.762,479.573 L 748.763,479.799 L 748.554,480.196 L 748.421,480.336 L 748.383,480.551 L 748.339,480.989 L 748.381,481.478 L 748.58,481.816 L 748.667,481.848 L 748.848,481.852 L 749.107,481.748 L 749.233,481.788 L 749.234,481.875 L 748.976,482.168 L 748.79,482.616 L 748.323,483.43 L 748.121,483.857 L 747.965,484.088 L 747.81,484.362 L 747.678,484.71 L 747.68,484.93 L 747.72,485.032 L 747.839,485.276 L 747.871,485.356 L 747.904,485.566 L 747.845,486.125 L 747.878,486.276 L 747.981,486.432 L 748.385,486.823 L 748.386,486.956 L 748.355,487.028 L 748.39,487.517 L 748.229,488.25 L 748.081,488.503 L 747.909,488.573 L 747.578,488.576 L 746.931,488.384 L 746.166,488.239 L 745.677,487.968 L 745.369,487.859 L 744.77,487.721 L 743.687,487.604 L 743.411,487.581 L 743.34,487.611 L 741.923,487.674 L 741.915,487.55 L 742.15,487.422 L 742.496,487.35 L 742.685,487.286 L 743.189,487.268 L 743.677,487.344 L 743.908,487.278 L 744.12,487.207 L 744.332,487.03 L 744.401,486.827 L 744.344,486.574 L 744.217,486.432 L 744.217,486.33 L 744.287,486.219 L 744.286,486.136 L 744.254,486.062 L 744.315,485.747 L 743.826,485.594 L 743.756,485.642 L 743.725,485.721 L 743.695,486.035 L 743.821,486.013 L 743.954,485.906 L 744.057,485.916 L 744.011,486.103 L 743.949,486.316 L 743.848,486.452 L 743.848,486.523 L 743.935,486.632 L 744.117,486.733 L 744.141,486.834 L 744.033,487.088 L 743.839,487.156 L 743.677,487.129 L 743.542,487.09 L 743.022,486.959 L 742.589,486.987 L 742.22,487.178 L 741.952,487.217 L 741.819,487.298 L 741.631,487.574 L 741.529,487.66 L 740.751,487.9 L 739.406,488.215 L 738.895,488.36 L 738.439,488.566 L 738.235,488.692 L 738.141,488.813 L 738.079,488.97 L 738.159,489.135 L 738.175,489.324 L 738.145,489.449 L 737.965,489.665 L 737.864,490.018 L 737.827,490.086 L 737.756,489.958 L 737.338,489.203 L 737.137,488.868 L 736.92,488.461 L 736.667,487.989 L 736.217,487.079 L 736.106,486.837 L 735.069,482.159 L 736.72,481.219 L 736.151,479.398 L 735.865,478.302 L 735.793,477.732 L 735.607,477.004 L 735.379,475.767 L 735.377,475.684 L 735.403,475.609 L 735.67,475.132 L 735.684,475.041 L 735.671,474.984 L 735.618,474.781 L 735.563,474.593 L 735.511,474.234 L 735.476,473.973 L 735.47,473.847 L 735.475,473.709 L 735.798,472.664 L 735.834,472.505 L 735.847,472.382 L 735.863,472.268 L 735.911,472.115 L 735.957,471.955 L 735.971,471.862 L 735.959,471.756 L 735.568,470.174 L 735.47,469.68 L 735.354,469.265 L 735.301,469.044 L 735.21,468.499 L 735.162,468.157 L 735.118,467.932 L 735.101,467.873 L 735.023,467.609 L 734.704,466.842 L 734.541,466.487 L 734.348,466.152 L 734.103,465.71 L 733.936,465.404 L 733.76,465.069 L 732.355,462.617 L 732.105,462.222 L 731.97,462.018 L 731.912,461.887 L 731.856,461.725 L 731.799,461.527 L 731.767,461.318 L 731.775,461.109 L 731.794,460.955 L 731.833,460.85 L 731.889,460.719 L 732.043,460.543 L 732.777,459.705 L 732.969,459.558 L 733.109,459.447 L 733.175,459.393 L 733.207,459.15 L 733.225,458.953 L 733.248,458.844 L 733.365,458.638 L 733.64,458.119 L 733.68,458.038 L 733.728,457.98 L 733.807,457.929 L 733.868,457.902 L 733.821,457.51 L 733.556,455.512 L 733.468,454.713 L 733.456,454.534 L 733.452,454.314 L 733.494,453.935 L 733.593,453.335 L 733.827,451.95 L 733.887,451.587 L 733.887,451.461 L 733.892,451.219 L 733.572,449.372 L 733.578,449.24 L 733.637,449.13 L 733.73,449.058 L 733.804,448.974 L 733.854,448.928 L 733.755,448.63 L 733.422,447.693 L 732.385,445.982 L 732.332,445.955 L 732.284,445.92 L 731.749,444.705 L 731.358,444.476 L 730.983,443.928 L 730.699,443.449 L 730.616,443.26 L 730.457,442.656 L 730.348,442.134 L 730.064,441.181 L 730.006,440.967 L 729.995,440.857 L 729.99,440.794 L 729.492,439.433 L 729.395,439.202 L 727.964,436.554 L 727.733,436.09 L 727.333,435.3 L 727.081,434.808 L 726.94,434.567 L 726.834,434.384 L 726.78,434.325 L 726.116,433.507 L 725.949,433.248 L 724.388,431.203 L 723.844,430.488 L 723.451,427.224 L 726.038,427.845 L 740.104,418.772 L 743.273,416.732 L 752.042,411.058 M 745.197,486.906 L 745.315,486.875 L 745.362,486.836 L 745.377,486.774 L 745.336,486.418 L 745.137,486.151 L 745.073,485.97 L 744.859,485.862 L 744.685,485.69 L 744.59,485.674 L 744.591,485.739 L 744.625,486.101 L 744.657,486.156 L 744.649,486.234 L 744.523,486.265 L 744.508,486.362 L 744.881,486.807 L 745.047,486.885 L 745.197,486.906"
       id="path15971"
       style="fill-rule:evenodd" />
    <path
       name="dartmouth" d="M 755.287,460.463 L 755.177,460.41 L 755.042,460.268 L 755.009,460.152 L 755.102,459.836 L 755.236,459.835 L 755.355,460.076 L 755.601,460.249 L 755.609,460.351 L 755.562,460.405 L 755.429,460.462 L 755.287,460.463"
       id="path16079"
       style="fill-rule:evenodd" />
    <path
       name="dartmouth" d="M 743.887,476.952 L 743.729,476.898 L 743.649,476.835 L 743.657,476.763 L 743.869,476.723 L 743.995,476.651 L 744.089,476.72 L 744.13,476.808 L 744.13,476.886 L 744.06,476.935 L 743.887,476.952"
       id="path16091"
       style="fill-rule:evenodd" />   
    <path
       name="dartmouth" d="M 745.197,486.906 L 745.047,486.885 L 744.881,486.807 L 744.508,486.362 L 744.523,486.265 L 744.649,486.234 L 744.657,486.156 L 744.625,486.101 L 744.591,485.739 L 744.59,485.674 L 744.685,485.69 L 744.859,485.862 L 745.073,485.97 L 745.137,486.151 L 745.336,486.418 L 745.377,486.774 L 745.362,486.836 L 745.315,486.875 L 745.197,486.906"
       id="path16123"
       style="fill-rule:evenodd" />           
   </g>
</svg>