<svg
   xmlns:svg="http://www.w3.org/2000/svg"
   xmlns="http://www.w3.org/2000/svg"
   version="1.0"
   width="2100"
   height="1300"
   viewBox="0 0 2100 1300"
   id="svg14921">
   <g
     transform="matrix(2.2640019,0,0,2.2640019,-216.71416,-21.6991)"
     id="g14955"
     style="font-size:16.25px;font-style:normal;font-weight:400;fill:#fefee9;fill-opacity:1;fill-rule:evenodd;stroke:#000000;stroke-width:0.0984252;stroke-linecap:square;stroke-linejoin:bevel;stroke-opacity:1;font-family:Lucida Grande">
    <path
       name="dennis" d="M 967.456,401.364 L 967.4,401.432 L 967.356,401.504 L 967.318,401.583 L 967.278,401.633 L 967.214,401.682 L 967.158,401.715 L 967.09,401.762 L 967.055,401.83 L 967.051,401.916 L 967.156,401.967 L 967.249,401.983 L 967.29,402.066 L 967.341,402.132 L 967.399,402.164 L 967.412,402.221 L 967.374,402.275 L 967.315,402.29 L 967.22,402.259 L 967.148,402.209 L 967.076,402.162 L 966.989,402.15 L 966.935,402.202 L 966.921,402.281 L 966.941,402.358 L 967.001,402.427 L 967.087,402.465 L 967.108,402.529 L 967.09,402.589 L 967.091,402.648 L 967.041,402.69 L 967,402.624 L 966.954,402.584 L 966.912,402.636 L 966.852,402.671 L 966.841,402.734 L 966.773,402.749 L 966.746,402.695 L 966.692,402.661 L 966.624,402.68 L 966.557,402.634 L 966.451,402.715 L 966.414,402.789 L 966.469,402.817 L 966.541,402.792 L 966.586,402.852 L 966.597,402.913 L 966.593,402.978 L 966.512,402.962 L 966.43,402.919 L 966.338,402.919 L 966.272,402.971 L 966.25,403.039 L 966.279,403.107 L 966.279,403.186 L 966.22,403.185 L 966.143,403.122 L 966.118,403.197 L 966.104,403.276 L 966.044,403.309 L 965.989,403.244 L 965.956,403.181 L 965.897,403.179 L 965.757,403.355 L 965.666,403.387 L 965.596,403.426 L 965.52,403.459 L 965.494,403.517 L 965.538,403.569 L 965.494,403.609 L 965.44,403.66 L 965.386,403.627 L 965.332,403.672 L 965.355,403.736 L 965.359,403.809 L 965.199,403.807 L 965.128,403.81 L 965.059,403.806 L 965.003,403.762 L 964.927,403.79 L 964.814,403.792 L 964.824,403.855 L 964.774,403.958 L 964.724,403.875 L 964.609,403.913 L 964.533,403.932 L 964.499,403.982 L 964.477,404.079 L 964.435,404.12 L 964.374,404.101 L 964.314,404.089 L 964.256,404.11 L 964.18,404.153 L 964.138,404.217 L 964.055,404.203 L 964.005,404.263 L 963.921,404.285 L 963.822,404.325 L 963.746,404.358 L 963.675,404.369 L 963.621,404.4 L 963.577,404.45 L 963.537,404.518 L 963.5,404.617 L 963.474,404.681 L 963.451,404.736 L 963.394,404.799 L 963.381,404.856 L 963.41,404.907 L 963.439,404.959 L 963.452,405.02 L 963.401,405.116 L 963.357,405.162 L 963.303,405.216 L 963.271,405.286 L 963.352,405.307 L 964.839,411.343 L 966.557,418.273 L 969.143,428.239 L 970.92,435.208 L 971.01,435.616 L 970.712,435.616 L 970.288,435.657 L 969.818,435.804 L 969.709,435.869 L 969.269,435.947 L 968.954,436.046 L 968.368,436.354 L 967.099,436.745 L 966.801,436.869 L 966.379,437.101 L 965.753,437.318 L 965.054,437.469 L 964.786,437.442 L 964.48,437.51 L 964.087,437.531 L 963.826,437.504 L 963.48,437.518 L 963.158,437.555 L 961.909,437.297 L 961.553,437.168 L 961.112,437.193 L 960.874,437.085 L 960.881,437.013 L 961.005,436.886 L 961.058,436.695 L 961.173,436.546 L 961.309,436.157 L 961.299,436.009 L 961.22,436.024 L 961.047,436.5 L 960.878,436.787 L 960.707,436.929 L 960.647,437.135 L 959.362,437.061 L 958.693,437.056 L 958.488,437.083 L 957.986,437.185 L 957.271,437.299 L 956.234,437.447 L 954.822,437.823 L 954.162,437.935 L 953.415,437.973 L 953.148,437.993 L 952.966,437.995 L 952.181,438.164 L 951.677,438.412 L 951.123,438.44 L 951.177,438.376 L 951.335,437.884 L 951.349,437.782 L 951.368,437.499 L 951.475,437.276 L 951.646,437.15 L 952.498,436.718 L 952.662,436.661 L 952.757,436.674 L 952.829,436.712 L 952.901,436.831 L 953.016,437.128 L 953.058,437.27 L 953.037,437.435 L 952.951,437.546 L 953.024,437.631 L 953.3,437.65 L 953.45,437.711 L 953.544,437.677 L 953.59,437.577 L 953.661,437.109 L 953.714,436.974 L 953.768,436.895 L 954.042,436.782 L 954.229,436.637 L 954.25,436.472 L 954.383,436.375 L 954.681,436.298 L 954.996,436.326 L 955.353,436.502 L 955.449,436.601 L 955.724,436.575 L 955.963,436.735 L 956.296,436.887 L 956.509,436.877 L 956.507,436.797 L 956.252,436.59 L 955.911,436.452 L 955.746,436.425 L 955.587,436.365 L 955.438,436.366 L 955.342,436.313 L 955.166,436.095 L 954.85,436.03 L 954.409,436.073 L 954.003,436.293 L 954.077,436.48 L 953.828,436.689 L 953.703,436.73 L 953.521,436.716 L 953.426,436.673 L 952.979,436.286 L 952.715,436.014 L 952.61,435.819 L 952.568,435.631 L 952.597,435.503 L 952.719,435.202 L 952.981,434.89 L 953.106,434.787 L 953.253,434.603 L 953.286,434.193 L 953.361,433.974 L 953.454,433.875 L 953.986,433.639 L 954.134,433.52 L 954.256,433.274 L 954.285,433.131 L 954.401,432.994 L 954.438,432.829 L 954.73,432.361 L 954.911,432.35 L 955.598,432.488 L 955.635,432.298 L 955.729,432.273 L 955.778,432.368 L 955.872,432.359 L 955.926,432.264 L 956.228,431.958 L 956.25,431.849 L 955.888,431.837 L 955.653,431.912 L 955.447,431.884 L 955.335,431.767 L 955.309,431.619 L 955.37,431.477 L 955.455,431.382 L 955.839,431.225 L 956.572,430.781 L 957.2,430.103 L 957.377,429.877 L 957.606,429.874 L 957.795,429.918 L 957.909,430.184 L 958.22,430.433 L 958.325,430.547 L 958.39,430.688 L 958.414,430.759 L 958.411,431.035 L 958.365,431.098 L 958.074,431.181 L 957.903,431.32 L 957.718,431.527 L 957.664,431.646 L 957.682,431.779 L 957.747,431.857 L 957.88,431.816 L 958.035,431.678 L 958.166,431.504 L 958.599,431.467 L 958.872,431.328 L 959.235,431.377 L 959.675,431.33 L 959.926,431.226 L 960.159,431.018 L 960.22,430.92 L 960.304,430.732 L 960.34,430.516 L 960.329,430.29 L 960.205,429.906 L 960.092,429.718 L 959.996,429.633 L 959.814,429.574 L 959.657,429.606 L 959.587,429.679 L 959.488,429.868 L 959.34,430.006 L 959.168,430.086 L 958.744,430.163 L 958.517,430.263 L 958.407,430.247 L 958.365,430.075 L 958.434,429.964 L 958.573,429.827 L 958.862,429.635 L 959.19,429.465 L 959.338,429.352 L 959.507,429.08 L 959.544,428.946 L 959.527,428.844 L 959.47,428.759 L 959.359,428.712 L 959.234,428.756 L 959.07,428.866 L 959,428.862 L 958.927,428.784 L 958.841,428.808 L 958.829,428.998 L 958.798,429.091 L 958.648,429.08 L 958.568,428.956 L 958.564,428.68 L 958.648,428.535 L 958.857,428.327 L 959.208,428.078 L 959.583,427.859 L 959.691,427.732 L 959.736,427.591 L 959.73,427.228 L 959.68,427.031 L 959.583,426.892 L 959.598,426.789 L 959.669,426.796 L 959.78,426.904 L 959.939,426.98 L 959.919,427.176 L 960.028,427.145 L 960.081,426.995 L 960.135,426.922 L 960.245,426.881 L 960.244,426.81 L 960.077,426.725 L 960.043,426.531 L 959.97,426.421 L 959.967,426.207 L 960.112,425.93 L 960.266,425.724 L 960.264,425.566 L 960.176,425.497 L 959.994,425.437 L 959.889,425.288 L 959.923,424.925 L 959.864,424.675 L 959.852,424.406 L 959.741,424.322 L 959.463,424.2 L 959.298,424.242 L 959.003,424.489 L 958.877,424.493 L 958.623,424.345 L 958.439,424.162 L 958.302,423.983 L 958.058,423.962 L 957.977,423.853 L 957.864,423.642 L 957.695,423.408 L 957.581,423.166 L 957.449,423.106 L 957.372,423.017 L 957.344,422.956 L 957.333,422.85 L 957.325,422.407 L 957.32,422.203 L 957.315,422.055 L 957.298,421.843 L 957.268,421.708 L 957.248,421.639 L 957.195,421.538 L 957.137,421.491 L 957.035,421.444 L 956.852,421.369 L 956.67,421.288 L 956.598,421.253 L 956.543,421.179 L 956.506,421.093 L 956.442,420.963 L 956.378,420.852 L 956.303,420.752 L 956.191,420.612 L 956.073,420.505 L 956.001,420.447 L 955.897,420.401 L 955.802,420.348 L 955.553,420.216 L 955.486,420.148 L 955.405,420.036 L 955.347,419.937 L 955.264,419.799 L 955.15,419.636 L 955.027,419.46 L 954.912,419.325 L 954.773,419.19 L 954.657,419.083 L 954.582,419.013 L 954.474,418.929 L 954.384,418.866 L 954.112,418.684 L 954.914,417.439 L 954.827,417.407 L 954.126,416.797 L 954.004,416.562 L 953.945,416.449 L 953.878,416.386 L 953.416,416.14 L 953.112,416.195 L 949.855,414.288 L 950.174,413.189 L 949.699,412.758 L 949.649,412.718 L 949.552,412.659 L 949.451,412.587 L 949.314,412.501 L 949.21,412.457 L 949.099,412.414 L 948.998,412.377 L 948.971,412.295 L 948.917,412.258 L 948.839,412.296 L 948.779,412.281 L 948.739,412.335 L 948.671,412.362 L 948.56,412.345 L 948.558,412.404 L 948.565,412.471 L 948.527,412.535 L 948.479,412.579 L 948.447,412.637 L 948.376,412.623 L 948.29,412.645 L 948.196,412.651 L 948.121,412.662 L 948.041,412.674 L 947.974,412.678 L 947.938,412.732 L 947.875,412.733 L 947.851,412.655 L 947.794,412.648 L 947.736,412.539 L 947.659,412.514 L 947.578,412.519 L 947.501,412.476 L 947.421,412.444 L 947.358,412.438 L 947.306,412.466 L 947.314,412.549 L 947.299,412.622 L 947.244,412.602 L 947.225,412.539 L 947.231,412.454 L 947.169,412.444 L 947.116,412.506 L 947.089,412.56 L 947.081,412.623 L 947.051,412.687 L 946.966,412.651 L 946.916,412.617 L 946.866,412.538 L 946.871,412.471 L 946.828,412.414 L 946.778,412.459 L 946.693,412.512 L 946.602,412.484 L 946.539,412.413 L 946.472,412.407 L 946.438,412.459 L 946.382,412.499 L 946.331,412.453 L 946.291,412.395 L 946.305,412.336 L 946.303,412.269 L 946.228,412.233 L 946.161,412.235 L 946.094,412.299 L 946.076,412.392 L 946.054,412.452 L 946.034,412.533 L 946.016,412.618 L 945.954,412.625 L 945.902,412.546 L 945.856,412.49 L 945.858,412.428 L 945.915,412.39 L 945.965,412.337 L 945.991,412.278 L 946.022,412.171 L 945.952,412.133 L 945.881,412.131 L 945.82,412.203 L 945.775,412.244 L 945.694,412.232 L 945.593,412.196 L 945.537,412.127 L 945.47,412.046 L 945.403,412.063 L 945.329,412.078 L 945.229,412.089 L 945.116,412.058 L 945.042,412.097 L 944.934,412.269 L 944.853,412.276 L 944.779,412.294 L 944.759,412.359 L 944.742,412.552 L 944.766,412.668 L 944.815,412.732 L 944.89,412.777 L 944.971,412.762 L 945.026,412.701 L 945.083,412.684 L 945.125,412.729 L 945.111,412.792 L 945.054,412.862 L 944.986,412.909 L 944.935,412.942 L 944.839,412.958 L 944.761,412.967 L 944.661,412.977 L 944.553,412.99 L 944.461,413.004 L 944.344,412.975 L 944.267,412.902 L 944.211,412.834 L 944.151,412.717 L 944.117,412.612 L 944.109,412.535 L 944.106,412.457 L 944.108,412.38 L 944.12,412.315 L 944.149,412.196 L 944.268,412.173 L 944.28,411.943 L 944.24,411.852 L 944.246,411.724 L 943.905,411.629 L 943.807,411.626 L 943.677,411.623 L 943.591,411.672 L 943.585,411.765 L 943.5,411.901 L 943.329,412.03 L 943.179,411.985 L 942.637,411.576 L 942.388,411.242 L 942.376,411.013 L 942.422,410.919 L 942.421,410.854 L 942.185,410.898 L 942.13,410.875 L 941.954,410.697 L 941.747,410.575 L 941.518,410.523 L 941.314,410.548 L 941.017,410.681 L 940.937,410.649 L 940.911,410.46 L 940.778,410.511 L 940.765,410.685 L 940.838,410.81 L 940.773,411.202 L 940.71,411.245 L 940.575,411.269 L 940.785,411.518 L 940.773,411.714 L 940.742,411.802 L 940.642,411.913 L 940.462,411.987 L 940.147,411.984 L 939.894,411.932 L 939.656,411.812 L 939.592,411.733 L 939.526,411.546 L 939.361,411.548 L 938.956,411.379 L 938.916,411.288 L 938.937,411.154 L 939.228,410.612 L 939.875,409.681 L 940.161,409.338 L 940.371,409.17 L 940.942,408.878 L 941.323,408.612 L 941.696,408.307 L 942.04,408.12 L 942.577,407.679 L 942.599,407.576 L 942.935,407.415 L 942.949,407.312 L 943.356,407.154 L 943.574,407.018 L 944.119,406.568 L 944.602,406.231 L 945.164,405.914 L 947.65,404.759 L 948.385,404.393 L 950.662,403.378 L 952.029,402.711 L 952.283,402.834 L 952.547,403.096 L 952.682,403.167 L 953.209,403.148 L 953.885,403.06 L 954.481,402.909 L 955.437,402.571 L 955.984,402.289 L 956.568,401.893 L 956.639,401.869 L 956.867,401.866 L 957.141,401.765 L 958.236,401.268 L 958.362,401.273 L 958.662,401.348 L 958.898,401.323 L 959.447,401.139 L 959.801,401.166 L 959.99,401.154 L 960.39,401.056 L 960.532,401.067 L 960.533,401.139 L 960.701,401.264 L 960.924,401.456 L 961.209,401.568 L 961.394,401.802 L 961.39,402.022 L 961.439,402.157 L 961.198,402.326 L 961.128,402.414 L 961.053,402.652 L 960.907,402.92 L 960.881,403.224 L 960.867,403.436 L 960.829,403.515 L 960.831,403.642 L 960.887,403.68 L 961.044,403.63 L 961.269,403.431 L 961.361,403.214 L 961.513,402.902 L 961.775,401.961 L 961.527,401.714 L 961.221,401.333 L 961.114,401.035 L 961.089,400.927 L 961.484,400.984 L 961.814,400.937 L 962.378,400.731 L 962.956,400.432 L 963.665,399.955 L 963.814,399.877 L 964.284,399.736 L 964.845,399.859 L 965.13,399.975 L 965.429,399.96 L 966.014,399.62 L 966.101,399.596 L 966.78,399.759 L 967.129,399.904 L 967.895,400.043 L 968.211,400.061 L 968.688,400.075 L 968.8,400.162 L 968.691,400.249 L 968.604,400.558 L 968.542,400.622 L 968.072,400.769 L 967.808,401.004 L 967.619,401.037 L 967.497,401.261 L 967.456,401.364"
       id="path15939"
       style="fill-rule:evenodd" />
    <path
       name="dennis" d="M 950.977,437.166 L 950.89,437.128 L 950.864,437.002 L 950.938,436.671 L 951.216,436.312 L 951.425,436.111 L 952.004,435.843 L 952.067,435.844 L 952.115,435.88 L 952.113,436.237 L 952.084,436.427 L 951.931,436.735 L 951.752,436.88 L 951.275,437.092 L 950.977,437.166"
       id="path16037"
       style="fill-rule:evenodd" />
    <path
       name="dennis" d="M 951.677,438.412 L 951.306,438.596 L 951.141,438.638 L 951.016,438.647 L 950.952,438.609 L 950.959,438.537 L 951.123,438.44 L 951.677,438.412"
       id="path16045"
       style="fill-rule:evenodd" />       
   </g>
</svg>