<svg
   xmlns:svg="http://www.w3.org/2000/svg"
   xmlns="http://www.w3.org/2000/svg"
   version="1.0"
   width="2100"
   height="1300"
   viewBox="0 0 2100 1300"
   id="svg14921">
   <g
     transform="matrix(2.2640019,0,0,2.2640019,-216.71416,-21.6991)"
     id="g14955"
     style="font-size:16.25px;font-style:normal;font-weight:400;fill:#fefee9;fill-opacity:1;fill-rule:evenodd;stroke:#000000;stroke-width:0.0984252;stroke-linecap:square;stroke-linejoin:bevel;stroke-opacity:1;font-family:Lucida Grande">
    <path
       name="dover" d="M 666.642,225.868 L 666.656,225.978 L 666.657,226.06 L 666.624,226.136 L 666.559,226.136 L 666.472,226.114 L 666.413,226.089 L 666.302,226.057 L 666.245,226.05 L 666.151,226.049 L 666.057,226.072 L 665.933,226.118 L 665.89,226.178 L 665.848,226.261 L 665.831,226.322 L 665.812,226.386 L 665.746,226.491 L 665.706,226.538 L 665.647,226.584 L 665.592,226.622 L 665.498,226.637 L 665.451,226.677 L 665.387,226.761 L 665.372,226.822 L 665.377,226.936 L 665.386,227.028 L 665.387,227.091 L 665.384,227.17 L 665.375,227.255 L 665.37,227.329 L 665.373,227.442 L 665.329,227.572 L 665.277,227.671 L 665.172,227.753 L 665.111,227.781 L 665.053,227.821 L 665.02,227.922 L 665.058,227.994 L 665.135,228.013 L 665.244,228.018 L 665.311,228.021 L 665.37,228.038 L 665.47,228.048 L 665.559,228.051 L 665.654,228.066 L 665.754,228.063 L 665.854,228.059 L 665.951,228.048 L 666.043,228.032 L 666.12,228.001 L 666.216,227.984 L 666.35,227.988 L 666.444,228.005 L 666.511,228.006 L 666.554,228.088 L 666.547,228.169 L 666.569,228.23 L 666.58,228.306 L 666.578,228.369 L 666.53,228.421 L 666.491,228.476 L 666.47,228.546 L 666.477,228.64 L 666.539,228.69 L 666.631,228.687 L 666.682,228.647 L 666.723,228.596 L 666.761,228.55 L 666.789,228.498 L 666.821,228.416 L 666.836,228.348 L 666.851,228.283 L 666.882,228.222 L 666.956,228.15 L 667.005,228.108 L 667.053,228.074 L 667.132,228.03 L 667.214,227.966 L 667.303,227.878 L 667.35,227.837 L 667.421,227.816 L 667.482,227.874 L 667.561,227.915 L 667.66,227.959 L 667.677,228.031 L 667.697,228.102 L 667.738,228.168 L 667.787,228.236 L 667.847,228.306 L 667.915,228.341 L 668.051,228.381 L 668.154,228.405 L 668.219,228.434 L 668.269,228.472 L 668.316,228.511 L 668.399,228.556 L 668.504,228.56 L 668.548,228.491 L 668.555,228.412 L 668.56,228.304 L 668.616,228.252 L 668.687,228.253 L 668.776,228.301 L 668.846,228.353 L 668.917,228.409 L 668.999,228.483 L 669.101,228.594 L 669.151,228.66 L 669.181,228.733 L 669.204,228.847 L 669.197,228.955 L 669.2,229.028 L 669.216,229.098 L 669.237,229.175 L 669.252,229.25 L 669.296,229.32 L 669.342,229.388 L 669.41,229.466 L 669.505,229.561 L 669.583,229.647 L 669.654,229.707 L 669.744,229.777 L 669.829,229.835 L 669.938,229.906 L 670.041,229.978 L 670.148,230.045 L 670.246,230.125 L 670.375,230.219 L 670.466,230.295 L 670.555,230.341 L 670.654,230.377 L 670.737,230.394 L 670.841,230.383 L 670.898,230.374 L 670.951,230.35 L 671.002,230.322 L 671.054,230.274 L 671.089,230.226 L 671.112,230.151 L 671.161,229.95 L 671.236,229.939 L 671.281,229.988 L 671.359,230.056 L 671.428,230.085 L 671.539,230.087 L 671.583,230.039 L 671.645,229.964 L 671.696,229.916 L 671.758,229.866 L 671.837,229.834 L 671.909,229.795 L 671.997,229.757 L 672.07,229.726 L 672.162,229.706 L 672.255,229.689 L 672.351,229.68 L 672.435,229.673 L 672.532,229.672 L 672.601,229.679 L 672.684,229.719 L 672.756,229.779 L 672.796,229.838 L 672.84,229.924 L 672.865,230.03 L 672.858,230.116 L 672.839,230.223 L 672.822,230.298 L 672.766,230.383 L 672.69,230.453 L 672.642,230.499 L 672.613,230.56 L 672.61,230.635 L 672.612,230.713 L 672.622,230.816 L 672.659,230.953 L 672.709,231.049 L 672.743,231.102 L 672.799,231.166 L 673.266,231.567 L 673.349,231.639 L 673.403,231.684 L 673.453,231.74 L 673.52,231.816 L 673.566,231.873 L 673.624,231.927 L 673.698,231.981 L 673.769,232.032 L 673.83,232.07 L 673.892,232.099 L 674.008,232.139 L 674.079,232.146 L 674.172,232.141 L 674.25,232.11 L 674.293,232.069 L 674.349,231.97 L 674.35,231.881 L 674.312,231.799 L 674.306,231.657 L 674.307,231.541 L 674.298,231.482 L 674.28,231.408 L 674.255,231.335 L 674.243,231.27 L 674.222,231.186 L 674.192,231.115 L 674.124,231.016 L 674.084,230.967 L 674.046,230.918 L 674,230.854 L 673.973,230.778 L 673.969,230.707 L 673.962,230.628 L 673.973,230.534 L 673.993,230.455 L 674.024,230.399 L 674.091,230.371 L 674.162,230.392 L 674.227,230.426 L 674.283,230.459 L 674.336,230.498 L 674.433,230.546 L 674.528,230.56 L 674.609,230.569 L 674.706,230.609 L 674.736,230.668 L 674.762,230.737 L 674.807,230.858 L 674.836,230.978 L 674.892,231.068 L 674.946,231.13 L 675.01,231.202 L 675.052,231.268 L 675.129,231.338 L 675.193,231.383 L 675.272,231.423 L 675.397,231.49 L 675.524,231.575 L 675.666,231.656 L 675.825,231.77 L 675.907,231.852 L 676.147,232.062 L 676.238,232.108 L 676.302,232.137 L 676.42,232.157 L 676.51,232.15 L 676.601,232.125 L 676.656,232.103 L 676.728,232.076 L 676.803,232.052 L 676.897,232.045 L 676.972,232.046 L 677.061,232.051 L 677.116,232.07 L 677.177,232.093 L 677.234,232.108 L 677.295,232.115 L 677.39,232.104 L 677.455,232.085 L 677.507,232.053 L 677.566,232.011 L 677.654,231.963 L 677.742,231.918 L 677.836,231.882 L 677.903,231.859 L 677.974,231.849 L 678.05,231.862 L 678.169,231.886 L 678.248,231.906 L 678.332,231.91 L 678.425,231.896 L 678.492,231.858 L 678.55,231.806 L 678.595,231.733 L 678.649,231.644 L 678.707,231.533 L 678.759,231.419 L 678.798,231.318 L 678.861,231.155 L 678.899,231.046 L 678.955,230.943 L 679.019,230.84 L 679.106,230.744 L 679.157,230.699 L 679.212,230.659 L 679.266,230.631 L 679.348,230.589 L 679.476,230.568 L 679.588,230.559 L 680.702,230.617 L 680.783,230.585 L 680.828,230.54 L 680.879,230.488 L 680.947,230.437 L 681.053,230.42 L 681.148,230.412 L 681.226,230.394 L 681.323,230.35 L 681.486,230.363 L 681.604,230.38 L 681.693,230.421 L 681.766,230.488 L 681.889,230.603 L 682.252,230.79 L 682.404,230.87 L 682.498,230.895 L 682.573,230.891 L 682.658,230.863 L 682.66,231.389 L 682.07,233.733 L 678.305,248.394 L 677.805,250.036 L 677.348,250.032 L 677.212,250.014 L 677.1,249.98 L 676.84,249.887 L 676.738,249.849 L 676.621,249.798 L 676.426,249.695 L 676.29,249.651 L 676.119,249.61 L 676.046,249.596 L 676.013,249.698 L 675.857,249.674 L 675.737,249.654 L 675.65,249.638 L 675.571,249.634 L 675.492,249.63 L 675.384,249.634 L 675.301,249.649 L 675.226,249.678 L 675.092,249.729 L 674.767,249.87 L 674.655,249.907 L 673.777,250.709 L 673.164,250.871 L 673.55,247.702 L 672.792,245.624 L 655.569,245.803 L 655.558,245.665 L 655.546,245.484 L 655.517,245.38 L 655.495,245.318 L 655.456,245.261 L 655.369,245.202 L 655.322,245.167 L 655.267,245.113 L 655.182,245.021 L 655.101,244.94 L 655.033,244.912 L 654.944,244.896 L 654.881,244.872 L 654.828,244.829 L 654.767,244.777 L 654.714,244.705 L 654.68,244.63 L 654.631,244.507 L 654.572,244.427 L 654.509,244.344 L 654.458,244.291 L 654.36,244.247 L 654.306,244.166 L 654.291,244.026 L 654.303,243.966 L 654.317,243.902 L 654.346,243.802 L 654.384,243.702 L 654.416,243.645 L 654.477,243.607 L 654.562,243.572 L 654.702,243.506 L 654.726,243.429 L 654.716,243.352 L 654.72,243.258 L 654.732,243.193 L 654.754,243.106 L 654.789,242.982 L 654.805,242.911 L 654.823,242.815 L 654.835,242.699 L 654.857,242.626 L 654.879,242.571 L 654.938,242.48 L 654.976,242.435 L 655.051,242.367 L 655.112,242.323 L 655.169,242.276 L 655.232,242.213 L 655.305,242.125 L 655.386,242.017 L 655.451,241.925 L 655.526,241.84 L 655.673,241.717 L 655.797,241.663 L 655.893,241.619 L 655.941,241.583 L 655.992,241.534 L 656.089,241.424 L 656.213,241.249 L 656.281,241.159 L 656.403,241.017 L 656.516,240.882 L 656.601,240.742 L 656.66,240.687 L 656.731,240.62 L 656.808,240.548 L 656.958,240.43 L 657.238,240.208 L 657.289,240.159 L 657.343,240.106 L 657.414,240.018 L 657.479,239.945 L 657.562,239.862 L 657.631,239.778 L 657.68,239.709 L 657.718,239.646 L 657.74,239.56 L 657.757,239.477 L 657.76,239.383 L 657.742,239.296 L 657.703,239.193 L 657.642,239.062 L 657.55,238.88 L 657.414,238.595 L 657.379,238.492 L 657.362,238.348 L 657.354,238.254 L 657.35,238.108 L 657.347,237.982 L 657.426,237.118 L 657.466,236.917 L 657.509,236.677 L 657.564,236.585 L 657.649,236.514 L 657.696,236.439 L 657.72,236.386 L 657.734,236.307 L 657.736,236.207 L 657.746,236.098 L 657.761,235.959 L 657.783,235.755 L 657.791,235.61 L 657.767,235.47 L 657.704,235.406 L 657.657,235.357 L 657.596,235.288 L 657.547,235.205 L 657.517,235.152 L 657.47,235.096 L 657.423,235.055 L 657.374,235.017 L 657.287,234.968 L 657.19,234.891 L 657.145,234.849 L 657.106,234.8 L 657.065,234.749 L 657.023,234.697 L 656.985,234.65 L 656.966,234.526 L 656.955,234.459 L 656.962,234.373 L 656.974,234.274 L 657.008,234.174 L 657.085,234.178 L 664.601,234.423 L 664.479,233.783 L 663.161,226.707 L 663.208,226.606 L 663.219,226.516 L 663.212,226.415 L 663.203,226.35 L 663.173,226.253 L 663.104,226.094 L 663.043,225.923 L 663.008,225.784 L 662.991,225.7 L 662.994,225.594 L 663.006,225.463 L 663.006,225.381 L 662.949,225.214 L 662.918,225.093 L 662.875,224.977 L 662.88,224.918 L 662.895,224.841 L 662.941,224.74 L 663.048,224.64 L 663.105,224.61 L 663.199,224.577 L 663.266,224.569 L 663.347,224.552 L 663.423,224.498 L 663.495,224.44 L 663.604,224.356 L 663.777,224.271 L 663.89,224.219 L 664.006,224.156 L 664.119,224.086 L 664.31,223.915 L 664.417,223.803 L 664.59,223.62 L 664.66,223.519 L 664.697,223.459 L 664.747,223.368 L 664.795,223.257 L 664.825,223.141 L 664.871,223.048 L 664.948,222.911 L 665.139,222.551 L 665.223,222.486 L 665.332,222.503 L 665.427,222.569 L 665.477,222.627 L 665.528,222.676 L 665.568,222.72 L 665.618,222.771 L 665.701,222.839 L 665.767,222.883 L 665.849,222.965 L 665.885,223.022 L 665.923,223.094 L 665.939,223.167 L 665.964,223.255 L 665.96,223.393 L 665.948,223.558 L 665.945,223.674 L 665.911,223.767 L 665.88,223.829 L 665.847,223.886 L 665.799,223.961 L 665.752,224.041 L 665.466,224.625 L 665.421,224.71 L 665.395,224.824 L 665.384,224.921 L 665.393,225.009 L 665.398,225.1 L 665.435,225.209 L 665.463,225.304 L 665.553,225.411 L 665.612,225.438 L 665.67,225.455 L 665.737,225.462 L 665.796,225.461 L 665.892,225.432 L 665.955,225.42 L 666.041,225.395 L 666.112,225.394 L 666.193,225.403 L 666.294,225.435 L 666.391,225.493 L 666.458,225.543 L 666.496,225.604 L 666.574,225.727 L 666.642,225.868"
       id="path15571"
       style="fill-rule:evenodd" />
   </g>
</svg>