<svg
   xmlns:svg="http://www.w3.org/2000/svg"
   xmlns="http://www.w3.org/2000/svg"
   version="1.0"
   width="2100"
   height="1300"
   viewBox="0 0 2100 1300"
   id="svg14921">
   <g
     transform="matrix(2.2640019,0,0,2.2640019,-216.71416,-21.6991)"
     id="g14955"
     style="font-size:16.25px;font-style:normal;font-weight:400;fill:#fefee9;fill-opacity:1;fill-rule:evenodd;stroke:#000000;stroke-width:0.0984252;stroke-linecap:square;stroke-linejoin:bevel;stroke-opacity:1;font-family:Lucida Grande">
    <path
       name="dunstable" d="M 624.89,78.7395 L 625.237,80.3885 L 624.024,81.7321 L 624.406,82.2561 L 624.777,82.0515 L 625.056,82.2069 L 625.318,83.672 L 626.327,83.4045 L 626.486,84.0127 L 626.786,84.0474 L 627.369,85.5254 L 627.545,86.736 L 627.794,89.1547 L 626.458,89.3701 L 626.246,89.3989 L 626.26,89.5326 L 626.455,89.5435 L 626.5,89.4069 L 627.208,90.0577 L 627.427,90.466 L 627.657,91.6481 L 626.96,92.108 L 625.504,92.2957 L 625.636,92.7113 L 624.666,92.8307 L 625.052,93.2973 L 620.587,96.2383 L 619.406,93.1783 L 618.639,95.8513 L 616.992,96.47 L 616.094,96.5207 L 615.096,96.2776 L 614.312,96.5974 L 610.384,98.375 L 605.425,96.7057 L 604.753,91.4703 L 605.921,89.6277 L 604.278,87.8318 L 599.663,87.1062 L 599.75,87.0229 L 599.892,86.892 L 599.954,86.7874 L 600.008,86.6374 L 600.038,86.3893 L 600.03,86.0922 L 599.979,85.8369 L 599.971,85.6994 L 600.002,85.459 L 600.001,85.3116 L 600.018,85.1363 L 600.025,85.0302 L 599.999,84.926 L 599.942,84.7375 L 599.876,84.5235 L 599.845,84.3191 L 599.82,84.1087 L 599.823,83.9397 L 599.813,83.7095 L 599.803,83.381 L 599.788,83.1943 L 599.781,83.0252 L 599.78,82.8246 L 599.801,82.732 L 599.832,82.651 L 599.87,82.5604 L 599.921,82.4753 L 599.958,82.4042 L 600.008,82.3291 L 600.055,82.2599 L 600.114,82.2162 L 600.194,82.1584 L 600.243,82.1209 L 600.327,82.0513 L 600.399,81.974 L 600.46,81.8654 L 600.534,81.7449 L 600.59,81.6362 L 600.652,81.5198 L 600.734,81.4187 L 600.845,81.3176 L 600.908,81.2661 L 600.973,81.2361 L 601.047,81.2138 L 601.151,81.1756 L 601.255,81.1454 L 601.35,81.0976 L 601.453,81.0377 L 601.541,80.9624 L 601.653,80.869 L 601.735,80.7917 L 601.811,80.7007 L 601.893,80.5998 L 601.979,80.483 L 602.037,80.3685 L 602.072,80.2974 L 602.115,80.2401 L 602.181,80.1609 L 602.265,80.0737 L 602.31,80.0183 L 602.357,79.9668 L 602.447,79.8895 L 602.679,79.6497 L 602.995,79.2677 L 603.03,79.1848 L 603.063,79.0566 L 603.08,78.972 L 603.079,78.8618 L 603.092,78.7535 L 603.144,78.576 L 603.191,78.4577 L 603.268,78.3095 L 603.344,78.1437 L 603.412,77.9971 L 603.488,77.9971 L 603.953,78.0155 L 604.301,78.0403 L 614.315,78.3514 L 624.89,78.7395"
       id="path15077"
       style="fill-rule:evenodd" />
   </g>
</svg>