<svg
   xmlns:svg="http://www.w3.org/2000/svg"
   xmlns="http://www.w3.org/2000/svg"
   version="1.0"
   width="2100"
   height="1300"
   viewBox="0 0 2100 1300"
   id="svg14921">
   <g
     transform="matrix(2.2640019,0,0,2.2640019,-216.71416,-21.6991)"
     id="g14955"
     style="font-size:16.25px;font-style:normal;font-weight:400;fill:#fefee9;fill-opacity:1;fill-rule:evenodd;stroke:#000000;stroke-width:0.0984252;stroke-linecap:square;stroke-linejoin:bevel;stroke-opacity:1;font-family:Lucida Grande">
    <path
       name="eastham" d="M 1011.24,357.628 L 1011.29,357.908 L 1011.38,358.302 L 1011.41,358.639 L 1011.51,358.999 L 1011.54,359.314 L 1011.66,359.668 L 1011.8,360.296 L 1012.04,361.031 L 1012.32,362.303 L 1012.56,363.109 L 1012.79,364.169 L 1012.97,364.787 L 1013.22,365.837 L 1013.34,366.175 L 1013.41,366.52 L 1013.54,366.926 L 1013.95,368.439 L 1014.07,368.743 L 1014.31,369.567 L 1014.4,370.021 L 1014.54,370.547 L 1014.58,370.899 L 1014.71,371.15 L 1014.96,372.271 L 1015.05,372.923 L 1015.2,373.47 L 1015.35,374.391 L 1015.54,375.079 L 1015.52,375.316 L 1015.55,375.514 L 1015.62,375.725 L 1015.67,375.975 L 1015.77,376.847 L 1015.84,377.862 L 1015.9,378.294 L 1015.91,379.144 L 1015.87,379.334 L 1015.8,379.423 L 1015.81,379.649 L 1015.77,379.778 L 1015.27,380.276 L 1015.04,380.531 L 1014.98,380.548 L 1014.92,380.463 L 1014.94,380.053 L 1015.05,379.941 L 1015.4,379.816 L 1015.53,379.695 L 1015.5,379.609 L 1015.28,379.627 L 1015.13,379.561 L 1015.07,379.38 L 1015.12,379.316 L 1015.22,379.276 L 1015.38,379.116 L 1015.42,379.034 L 1015.29,378.874 L 1015.21,378.631 L 1015.27,378.511 L 1015.37,378.422 L 1015.47,378.177 L 1015.5,377.813 L 1015.27,377.683 L 1015.17,377.575 L 1015.04,377.2 L 1015.01,376.956 L 1014.91,376.887 L 1014.86,376.942 L 1014.79,376.928 L 1014.72,376.884 L 1014.7,376.782 L 1014.71,376.71 L 1014.8,376.574 L 1014.82,375.96 L 1014.79,375.833 L 1014.58,375.483 L 1014.49,375.281 L 1014.27,375.002 L 1014.18,374.893 L 1014.15,374.767 L 1014.14,374.506 L 1014.12,374.445 L 1013.97,374.322 L 1013.78,373.891 L 1013.68,373.388 L 1013.46,372.864 L 1013.35,372.458 L 1013.35,372.222 L 1013.44,371.993 L 1013.49,371.911 L 1013.49,371.7 L 1013.52,371.628 L 1013.46,371.543 L 1013.29,371.626 L 1013.26,371.515 L 1013.31,371.38 L 1013.37,371.356 L 1013.58,371.384 L 1013.66,371.54 L 1013.73,371.492 L 1013.82,371.3 L 1013.95,371.014 L 1013.96,370.762 L 1013.95,370.573 L 1013.78,370.488 L 1013.63,370.499 L 1013.27,370.342 L 1013.06,370.181 L 1012.88,370.239 L 1012.52,370.227 L 1012.41,370.333 L 1012.24,370.58 L 1012.16,370.843 L 1012.09,370.994 L 1011.96,371.143 L 1011.81,371.408 L 1011.78,371.517 L 1011.8,372.038 L 1011.75,372.179 L 1011.52,372.483 L 1010.7,373.224 L 1010.54,373.501 L 1010.32,373.632 L 1010.17,373.673 L 1009.83,373.634 L 1009.51,373.569 L 1009.37,373.61 L 1009.11,373.757 L 1008.93,373.759 L 1008.49,373.642 L 1008.19,373.434 L 1008.06,373.273 L 1008.07,373.106 L 1008.2,372.819 L 1008.09,372.587 L 1008.03,372.502 L 1007.94,372.446 L 1007.88,372.447 L 1007.65,372.609 L 1007.41,372.709 L 1007.33,372.78 L 1007.21,373.034 L 1007.25,373.325 L 1007.3,373.429 L 1007.4,373.528 L 1007.66,373.564 L 1007.89,373.393 L 1007.96,373.391 L 1008.16,373.649 L 1008.25,373.748 L 1008.56,373.91 L 1008.64,373.923 L 1008.71,374.033 L 1008.69,374.12 L 1008.55,374.217 L 1008.46,374.4 L 1008.47,374.492 L 1008.53,374.571 L 1008.48,374.691 L 1008.52,374.745 L 1008.51,374.885 L 1008.49,374.948 L 1008.37,375.013 L 1008.37,375.156 L 1008.31,375.26 L 1008.36,375.51 L 1008.34,375.566 L 1008.24,375.693 L 1008.5,375.949 L 1008.56,375.941 L 1008.58,376.239 L 1008.59,376.319 L 1008.66,376.348 L 1008.76,376.323 L 1008.86,376.178 L 1008.8,376.021 L 1008.67,375.867 L 1008.65,375.805 L 1008.68,375.671 L 1008.55,375.498 L 1008.56,375.38 L 1008.65,375.278 L 1008.72,375.282 L 1008.81,375.32 L 1008.84,375.375 L 1008.85,375.492 L 1008.89,375.596 L 1009.02,375.757 L 1009.08,375.883 L 1009.18,376.205 L 1009.24,376.542 L 1009.11,376.812 L 1009.23,376.936 L 1009.32,376.973 L 1009.54,377.215 L 1009.8,377.359 L 1009.95,377.405 L 1010.27,377.588 L 1010.41,377.639 L 1010.63,377.611 L 1010.74,377.695 L 1010.8,377.892 L 1010.91,377.929 L 1010.96,377.998 L 1011.05,378.281 L 1011.04,378.406 L 1010.91,378.763 L 1010.91,379.203 L 1011.13,379.491 L 1011.15,379.547 L 1011.06,379.667 L 1010.95,379.723 L 1010.85,379.732 L 1010.83,379.662 L 1010.88,379.48 L 1010.86,379.403 L 1010.71,379.485 L 1010.56,379.685 L 1010.38,379.805 L 1010.26,379.855 L 1010.05,379.613 L 1009.96,379.631 L 1010.07,379.882 L 1010.12,379.921 L 1010.15,380.007 L 1010.13,380.11 L 1009.88,380.499 L 1009.73,380.605 L 1009.69,380.573 L 1009.5,380.687 L 1009.33,380.856 L 1009.26,380.88 L 1009.26,380.684 L 1009.33,380.54 L 1009.15,380.647 L 1009.08,380.752 L 1009.08,380.932 L 1009,381.57 L 1009.07,381.735 L 1009.13,382.025 L 1009.13,382.158 L 1008.76,382.519 L 1008.63,382.75 L 1008.36,382.968 L 1008.2,383.004 L 1008.02,383.006 L 1007.89,382.955 L 1007.79,382.963 L 1007.4,383.254 L 1007.3,383.524 L 1007.23,383.634 L 1007.11,383.709 L 1006.97,383.893 L 1006.79,384.28 L 1006.51,384.452 L 1006.37,384.503 L 1006.28,384.568 L 1006.13,384.789 L 1006,384.942 L 1005.76,385.057 L 1005.67,385.144 L 1005.49,385.493 L 1005.45,385.637 L 1005.45,385.913 L 1005.4,386.172 L 1005.42,386.258 L 1005.53,386.438 L 1005.56,386.549 L 1005.51,386.863 L 1005.44,386.952 L 1005.3,387.011 L 1003.75,384.49 L 1002.29,385.823 L 1002.22,385.814 L 1002.16,385.806 L 1002.1,385.803 L 1002.01,385.816 L 1001.91,385.854 L 1001.84,385.876 L 1001.75,385.89 L 1001.68,385.852 L 1001.63,385.79 L 1001.58,385.696 L 1001.57,385.622 L 1001.51,385.593 L 1001.45,385.519 L 1001.38,385.501 L 1001.29,385.524 L 1001.22,385.579 L 1001.1,385.577 L 1001,385.545 L 1000.92,385.529 L 1000.86,385.589 L 1000.76,385.599 L 1000.7,385.602 L 1000.63,385.562 L 1000.63,385.493 L 1000.63,385.41 L 1000.57,385.398 L 1000.45,385.476 L 1000.38,385.428 L 1000.26,385.353 L 1000.29,385.285 L 1000.23,385.242 L 1000.2,385.316 L 1000.02,385.369 L 999.936,385.354 L 999.863,385.316 L 999.809,385.293 L 999.749,385.31 L 999.804,385.441 L 999.68,385.341 L 999.631,385.237 L 999.431,385.1 L 999.428,384.886 L 999.403,384.815 L 999.284,384.778 L 999.159,384.819 L 999.114,384.929 L 999.041,385.005 L 999.026,385.069 L 998.906,385.368 L 998.847,385.455 L 998.586,385.382 L 998.33,385.151 L 998.044,385.029 L 997.988,384.975 L 998.003,384.918 L 998.205,384.751 L 998.257,384.582 L 998.705,384.042 L 998.781,383.875 L 998.831,383.619 L 999.01,383.453 L 999.056,383.365 L 999.156,383.269 L 999.319,383.14 L 999.656,383.046 L 1000.05,382.845 L 1000.22,382.732 L 1000.32,382.596 L 1000.33,382.382 L 1000.27,382.312 L 1000.08,382.197 L 1000.14,382.065 L 1000.13,382 L 1000.08,381.924 L 999.919,381.814 L 999.918,381.752 L 1000.11,381.703 L 1000.05,381.614 L 999.938,381.562 L 999.727,381.599 L 999.626,381.701 L 999.62,381.798 L 999.891,381.988 L 999.908,382.053 L 999.642,382.166 L 999.564,382.24 L 999.566,382.326 L 999.614,382.418 L 999.71,382.471 L 999.719,382.551 L 999.473,382.469 L 999.166,381.985 L 999.093,381.822 L 999.095,381.531 L 998.983,381.382 L 998.987,381.162 L 999.041,381.089 L 999.103,381.056 L 999.466,381.073 L 999.575,381.048 L 999.63,381.009 L 999.713,380.793 L 999.82,380.613 L 1000.03,380.064 L 1000.41,379.476 L 1000.55,379.03 L 1000.64,378.864 L 1000.71,378.679 L 1000.79,378.642 L 1000.96,378.642 L 1001.1,378.734 L 1001.38,378.679 L 1001.27,378.938 L 1001.33,379.123 L 1001.51,379.234 L 1001.6,379.142 L 1001.83,379.105 L 1001.86,379.049 L 1001.71,379.012 L 1001.59,379.068 L 1001.46,378.993 L 1001.4,378.919 L 1001.46,378.808 L 1001.59,378.679 L 1001.6,378.586 L 1001.57,378.512 L 1001.46,378.494 L 1001.38,378.475 L 1001.31,378.327 L 1001.21,378.364 L 1001.25,378.586 L 1001.18,378.623 L 1001.03,378.568 L 1000.88,378.475 L 1000.79,378.475 L 1000.66,378.568 L 1000.53,378.697 L 1000.32,378.775 L 1000.21,379.172 L 1000.17,379.424 L 999.797,379.745 L 999.68,379.786 L 999.499,379.782 L 999.427,379.713 L 999.334,379.312 L 999.36,378.524 L 999.345,376.729 L 999.38,376.476 L 999.37,375.391 L 999.353,375.336 L 999.23,375.079 L 999.217,374.732 L 999.245,374.557 L 999.196,373.061 L 999.171,372.929 L 999.124,372.04 L 999.099,371.954 L 999.069,371.582 L 998.873,370.217 L 998.861,369.988 L 998.815,369.586 L 998.524,367.734 L 998.453,366.837 L 998.247,365.826 L 998.185,365.418 L 998.169,364.928 L 998.094,364.183 L 998.075,363.529 L 997.942,362.705 L 997.849,362.326 L 997.732,360.975 L 997.689,360.731 L 997.747,360.007 L 997.732,359.57 L 997.732,359.052 L 997.808,358.941 L 997.865,358.561 L 997.9,358.278 L 997.968,358.142 L 998.03,358.085 L 998.101,358.083 L 998.165,358.137 L 998.275,358.136 L 998.54,357.974 L 998.674,357.973 L 998.77,358.082 L 998.773,358.158 L 998.706,358.346 L 998.711,358.405 L 998.76,358.479 L 998.827,358.56 L 998.854,358.615 L 998.902,358.679 L 998.993,358.673 L 999.051,358.711 L 999.099,358.749 L 999.202,358.71 L 999.243,358.776 L 999.321,358.845 L 999.352,358.743 L 999.416,358.772 L 999.448,358.706 L 999.511,358.682 L 999.555,358.742 L 999.629,358.805 L 999.712,358.795 L 999.79,358.76 L 999.868,358.739 L 999.944,358.7 L 999.994,358.742 L 1000.07,358.784 L 1000.2,358.819 L 1000.29,358.886 L 1000.27,358.961 L 1000.29,359.047 L 1000.38,358.964 L 1000.43,358.975 L 1000.48,359.045 L 1000.55,359.043 L 1000.57,358.974 L 1000.58,358.903 L 1000.71,358.95 L 1000.78,358.946 L 1000.77,359.013 L 1000.84,359.047 L 1001.02,359.098 L 1001.14,359.116 L 1001.21,359.083 L 1001.35,359.026 L 1001.42,359.007 L 1001.48,359.014 L 1001.58,359.041 L 1001.65,359.069 L 1001.75,359.106 L 1001.85,359.126 L 1001.98,359.1 L 1002.05,359.069 L 1002.14,359.041 L 1002.24,359.004 L 1002.39,358.898 L 1002.59,358.768 L 1002.66,358.741 L 1002.76,358.733 L 1002.84,358.739 L 1002.94,358.747 L 1003.21,358.676 L 1003.31,358.658 L 1003.63,358.714 L 1003.81,358.75 L 1003.95,358.745 L 1004.09,358.754 L 1004.2,358.732 L 1004.3,358.684 L 1004.36,358.669 L 1004.43,358.66 L 1004.53,358.675 L 1004.62,358.705 L 1004.79,358.764 L 1004.88,358.778 L 1004.96,358.78 L 1005.03,358.775 L 1005.15,358.751 L 1005.2,358.73 L 1005.26,358.709 L 1010.88,357.718 L 1011.24,357.628"
       id="path15875"
       style="fill-rule:evenodd" />
    <path
       name="eastham" d="M 1013.29,371.626 L 1013.46,371.543 L 1013.52,371.628 L 1013.49,371.7 L 1013.49,371.911 L 1013.39,371.734 L 1013.34,371.767 L 1013.29,371.626"
       id="path15881"
       style="fill-rule:evenodd" />
    <path
       name="eastham" d="M 1013.29,371.626 L 1013.34,371.767 L 1013.3,371.861 L 1013.3,372.056 L 1013.22,372.207 L 1013.04,372.11 L 1012.71,372.219 L 1012.67,372.165 L 1012.78,372.075 L 1012.79,372.018 L 1012.78,371.895 L 1012.9,371.891 L 1013.12,371.637 L 1013.29,371.626"
       id="path15883"
       style="fill-rule:evenodd" />
    <path
       name="eastham" d="M 1013.61,374.209 L 1013.53,374.195 L 1013.32,373.994 L 1013.07,373.7 L 1013.03,373.534 L 1012.75,373.406 L 1012.44,373.34 L 1012.19,373.211 L 1012.08,373.025 L 1012.06,372.868 L 1012.13,372.701 L 1012.2,372.628 L 1012.3,372.548 L 1012.4,372.098 L 1012.44,372.019 L 1012.52,372.032 L 1012.56,372.292 L 1012.67,372.422 L 1012.74,372.407 L 1012.91,372.279 L 1013,372.251 L 1013.08,372.273 L 1013.13,372.337 L 1013.14,372.492 L 1013.07,372.55 L 1012.82,372.508 L 1012.79,372.626 L 1012.96,372.655 L 1013.1,372.667 L 1013.14,372.752 L 1013.24,372.83 L 1013.43,373.253 L 1013.49,373.465 L 1013.62,373.696 L 1013.66,373.863 L 1013.65,373.935 L 1013.68,374.011 L 1013.66,374.074 L 1013.69,374.154 L 1013.61,374.209"
       id="path15885"
       style="fill-rule:evenodd" />
    <path
       name="eastham" d="M 1011.41,374.273 L 1011.35,374.259 L 1011.05,373.964 L 1010.87,373.755 L 1010.81,373.695 L 1010.77,373.6 L 1010.84,373.291 L 1010.98,373.123 L 1011.07,373.074 L 1011.15,373.074 L 1011.2,373.113 L 1011.18,373.269 L 1011.07,373.405 L 1011.07,373.641 L 1011.15,373.744 L 1011.3,373.858 L 1011.53,373.838 L 1011.69,373.89 L 1011.69,373.992 L 1011.64,374.08 L 1011.55,374.129 L 1011.49,374.218 L 1011.41,374.273"
       id="path15887"
       style="fill-rule:evenodd" />
    <path
       name="eastham" d="M 1013.9,376.173 L 1013.76,376.121 L 1013.63,375.957 L 1013.45,375.857 L 1013.27,375.831 L 1013.18,375.753 L 1012.9,375.672 L 1012.32,375.605 L 1011.89,375.518 L 1011.74,375.529 L 1011.56,375.435 L 1011.46,375.422 L 1011.37,374.904 L 1011.42,374.84 L 1011.51,374.853 L 1011.53,374.949 L 1011.62,375.002 L 1011.65,374.945 L 1011.64,374.719 L 1011.59,374.513 L 1011.54,374.468 L 1011.52,374.335 L 1011.78,374.203 L 1011.85,374.124 L 1011.87,373.807 L 1011.95,373.752 L 1011.91,373.635 L 1011.92,373.477 L 1011.98,373.413 L 1012.07,373.404 L 1012.27,373.535 L 1012.35,373.548 L 1012.43,373.632 L 1012.52,373.679 L 1012.7,373.808 L 1013.1,374.099 L 1013.33,374.285 L 1013.51,374.494 L 1013.73,374.884 L 1013.97,375.092 L 1014.27,375.703 L 1014.28,375.938 L 1014.23,376.042 L 1014.16,376.112 L 1013.9,376.173"
       id="path15889"
       style="fill-rule:evenodd" />
    <path
       name="eastham" d="M 1011.34,375.82 L 1010.73,375.797 L 1010.5,375.739 L 1010.28,375.609 L 1010.24,375.477 L 1010.15,375.454 L 1010.07,375.392 L 1010.07,375.33 L 1010.22,375.241 L 1010.34,375.222 L 1010.44,375.26 L 1010.51,375.205 L 1010.56,375.014 L 1010.67,374.924 L 1010.74,374.804 L 1010.82,374.74 L 1010.93,374.709 L 1010.96,374.637 L 1010.93,374.541 L 1010.78,374.444 L 1010.62,374.445 L 1010.57,374.391 L 1010.57,374.329 L 1010.7,374.238 L 1010.89,374.251 L 1010.97,374.314 L 1011.19,374.363 L 1011.24,374.443 L 1011.17,374.993 L 1011.2,375.349 L 1011.22,375.457 L 1011.43,375.683 L 1011.43,375.786 L 1011.34,375.82"
       id="path15891"
       style="fill-rule:evenodd" />
    <path
       name="eastham" d="M 1010.71,377.358 L 1010.51,377.156 L 1010.4,377.097 L 1010.12,377.062 L 1009.9,376.957 L 1009.77,376.935 L 1009.59,376.81 L 1009.55,376.719 L 1009.57,376.584 L 1009.61,376.528 L 1009.61,376.385 L 1009.58,376.293 L 1009.61,376.103 L 1009.64,376.04 L 1009.76,376.108 L 1009.79,376.265 L 1009.9,376.262 L 1009.95,376.341 L 1010.19,376.44 L 1010.22,376.572 L 1010.3,376.585 L 1010.34,376.404 L 1010.44,376.364 L 1010.45,376.432 L 1010.5,376.52 L 1010.59,376.508 L 1010.69,376.428 L 1010.62,376.312 L 1010.76,376.246 L 1010.85,376.243 L 1011.18,376.287 L 1011.37,376.265 L 1011.46,376.322 L 1011.46,376.43 L 1011.33,376.471 L 1011.06,376.628 L 1010.95,376.606 L 1010.84,376.616 L 1010.77,376.655 L 1010.92,376.747 L 1010.97,376.832 L 1010.96,376.919 L 1010.9,377.014 L 1010.81,377.073 L 1010.8,377.166 L 1010.8,377.324 L 1010.71,377.358"
       id="path15893"
       style="fill-rule:evenodd" />
    <path
       name="eastham" d="M 1014.15,381.108 L 1013.35,380.949 L 1013.22,380.658 L 1013.21,380.501 L 1013.26,380.242 L 1013.09,380.34 L 1013,380.349 L 1012.91,380.296 L 1012.91,380.215 L 1012.76,379.99 L 1012.48,379.75 L 1012.24,379.605 L 1011.93,379.54 L 1011.83,379.471 L 1011.59,379.419 L 1011.31,379.325 L 1011.22,379.222 L 1011.15,378.979 L 1011.24,378.725 L 1011.29,378.262 L 1011.26,378.157 L 1011.13,377.852 L 1011.44,378.171 L 1011.52,378.224 L 1011.6,378.206 L 1011.62,378.128 L 1011.6,378.002 L 1011.76,377.873 L 1011.77,377.786 L 1011.71,377.756 L 1011.61,377.821 L 1011.51,377.831 L 1011.41,377.716 L 1011.35,377.733 L 1011.09,377.691 L 1011.02,377.637 L 1010.97,377.542 L 1010.94,377.273 L 1011.03,377.038 L 1011.34,376.731 L 1011.4,376.612 L 1011.59,376.43 L 1011.76,376.403 L 1011.82,376.432 L 1011.83,376.494 L 1011.81,376.677 L 1011.76,376.756 L 1011.7,376.913 L 1011.8,377.007 L 1011.86,376.998 L 1011.84,376.85 L 1012,376.784 L 1012.05,376.962 L 1012.14,377.024 L 1012.2,376.985 L 1012.17,376.881 L 1012.13,376.671 L 1012.05,376.515 L 1012.08,376.418 L 1012.29,376.44 L 1012.53,376.554 L 1012.67,376.534 L 1012.8,376.565 L 1013.15,376.768 L 1013.38,376.898 L 1013.54,377.117 L 1013.81,377.332 L 1013.9,377.447 L 1014.14,377.98 L 1014.11,378.089 L 1013.91,378.102 L 1013.58,377.95 L 1013.54,377.842 L 1013.41,377.772 L 1013.14,377.832 L 1013.03,377.969 L 1012.86,378.104 L 1012.74,378.123 L 1012.65,378.203 L 1012.46,378.42 L 1012.47,378.482 L 1012.56,378.498 L 1012.73,378.425 L 1012.87,378.272 L 1013.11,378.187 L 1013.23,378.019 L 1013.33,377.979 L 1013.74,378.24 L 1013.88,378.251 L 1014.12,378.192 L 1014.19,378.162 L 1014.31,378.22 L 1014.53,378.887 L 1014.58,379.223 L 1014.54,379.541 L 1014.64,379.932 L 1014.58,380.092 L 1014.44,380.67 L 1014.35,380.836 L 1014.15,381.108"
       id="path15895"
       style="fill-rule:evenodd" />       
   </g>
</svg>