<svg
   xmlns:svg="http://www.w3.org/2000/svg"
   xmlns="http://www.w3.org/2000/svg"
   version="1.0"
   width="2100"
   height="1300"
   viewBox="0 0 2100 1300"
   id="svg14921">
   <g
     transform="matrix(2.2640019,0,0,2.2640019,-216.71416,-21.6991)"
     id="g14955"
     style="font-size:16.25px;font-style:normal;font-weight:400;fill:#fefee9;fill-opacity:1;fill-rule:evenodd;stroke:#000000;stroke-width:0.0984252;stroke-linecap:square;stroke-linejoin:bevel;stroke-opacity:1;font-family:Lucida Grande">
    <path
       name="edgartown" d="M 854.593,520.04 L 854.623,520.155 L 854.734,520.242 L 854.804,520.193 L 854.873,519.971 L 854.84,519.885 L 854.876,519.759 L 854.945,519.691 L 854.997,519.639 L 855.234,519.849 L 855.408,519.927 L 855.526,519.933 L 855.682,519.845 L 855.729,519.751 L 855.727,519.623 L 855.694,519.507 L 855.558,519.287 L 855.549,519.185 L 855.603,519.081 L 855.782,518.915 L 855.821,518.821 L 855.914,518.731 L 856.118,518.645 L 856.464,518.616 L 856.574,518.551 L 856.737,518.4 L 856.949,518.273 L 857.135,518.072 L 857.204,517.906 L 857.201,517.599 L 857.264,517.56 L 857.5,517.55 L 857.735,517.5 L 857.846,517.546 L 858.395,518.091 L 858.5,518.293 L 858.477,518.381 L 858.252,518.626 L 858.245,518.753 L 858.603,519.096 L 858.708,519.261 L 858.717,519.465 L 858.68,519.575 L 858.353,519.95 L 858.251,520.028 L 857.968,520.064 L 857.883,520.128 L 857.829,520.254 L 857.704,520.372 L 857.729,520.477 L 857.957,520.498 L 858.298,520.736 L 858.561,520.961 L 858.632,520.978 L 858.89,520.778 L 859.103,520.846 L 859.365,521.056 L 859.525,521.299 L 859.566,521.425 L 859.543,521.494 L 859.434,521.6 L 859.365,521.75 L 859.367,521.955 L 859.439,522.08 L 859.567,522.228 L 859.741,522.344 L 860.01,522.386 L 860.238,522.355 L 860.395,522.304 L 860.472,522.186 L 860.841,522.08 L 860.968,522.188 L 861.095,522.227 L 861.222,522.342 L 861.223,522.438 L 861.067,522.588 L 861.029,522.716 L 860.984,522.904 L 860.874,522.969 L 860.867,523.046 L 860.972,523.236 L 861.144,523.116 L 861.207,523.17 L 861.24,523.296 L 861.219,523.492 L 861.118,523.635 L 861.213,523.722 L 861.649,523.96 L 861.91,524.077 L 862.021,524.074 L 862.452,523.934 L 862.876,523.859 L 863.372,523.839 L 863.481,523.758 L 863.505,523.705 L 863.55,523.586 L 863.659,523.458 L 863.824,523.361 L 863.898,523.005 L 863.653,522.913 L 863.509,522.719 L 863.453,522.587 L 863.35,522.587 L 863.329,522.73 L 863.353,522.847 L 863.355,522.98 L 863.285,523.06 L 863.19,523.06 L 863.048,522.968 L 862.858,522.93 L 862.755,522.868 L 862.683,522.736 L 862.693,522.209 L 862.597,522.106 L 862.415,522 L 862.152,521.756 L 861.756,521.532 L 861.685,521.457 L 861.003,520.314 L 860.62,519.925 L 860.588,519.86 L 860.587,519.758 L 860.688,519.625 L 860.774,519.592 L 860.971,519.635 L 861.051,519.745 L 861.203,519.886 L 861.483,520.284 L 862.063,520.844 L 863.398,521.878 L 863.961,522.225 L 864.317,522.41 L 865.933,523.274 L 866.533,523.459 L 867.827,523.641 L 868.504,523.649 L 868.788,523.7 L 868.852,523.754 L 869.058,523.869 L 869.193,523.98 L 869.163,524.17 L 869.07,524.241 L 868.888,524.218 L 868.886,524.054 L 868.816,524.053 L 868.753,524.086 L 868.652,524.244 L 868.669,524.37 L 868.741,524.458 L 869.16,524.57 L 869.342,524.67 L 869.51,524.913 L 869.471,524.976 L 869.37,525.032 L 869.309,525.223 L 869.154,525.435 L 869.178,525.515 L 869.266,525.64 L 869.568,525.873 L 869.705,526.154 L 869.911,526.278 L 870.092,526.292 L 870.571,526.154 L 870.901,526.085 L 871.136,525.958 L 871.215,525.989 L 871.396,525.956 L 871.443,525.992 L 871.508,526.142 L 871.643,526.284 L 871.793,526.264 L 871.846,526.123 L 871.844,525.943 L 871.724,525.714 L 871.723,525.652 L 871.521,525.205 L 871.338,525.028 L 871.132,524.919 L 870.99,524.889 L 870.66,524.939 L 870.519,525.005 L 870.261,525.189 L 870.175,525.204 L 870.111,525.15 L 870.134,525.047 L 870.304,524.825 L 870.398,524.77 L 870.933,524.692 L 871.185,524.728 L 871.549,524.882 L 871.661,524.99 L 871.757,525.186 L 871.865,525.651 L 871.897,525.753 L 872.146,526.192 L 872.35,526.772 L 872.447,527.039 L 872.537,527.312 L 872.777,527.702 L 872.781,528.096 L 872.721,528.327 L 872.62,528.405 L 872.47,528.409 L 872.223,528.128 L 872.213,527.93 L 872.258,527.795 L 872.305,527.756 L 872.374,527.605 L 872.372,527.37 L 872.316,527.291 L 872.032,526.592 L 871.954,526.563 L 871.939,526.697 L 872.112,527.402 L 872.13,527.585 L 871.931,528.09 L 871.814,528.155 L 871.656,528.188 L 871.467,528.128 L 871.357,528.138 L 871.287,528.202 L 871.194,528.421 L 871.031,528.541 L 870.868,528.803 L 870.586,528.901 L 870.531,528.99 L 870.39,529.006 L 870.279,528.966 L 870.108,529.104 L 869.9,529.554 L 869.879,529.799 L 869.983,530.001 L 870.407,530.587 L 870.505,530.91 L 870.682,531.24 L 870.841,531.402 L 871.389,531.805 L 871.494,531.985 L 871.551,532.229 L 871.73,532.732 L 871.709,532.912 L 871.704,533.251 L 871.794,533.524 L 871.891,533.85 L 871.901,534.014 L 871.835,534.441 L 872.002,534.613 L 872.051,534.769 L 871.935,534.928 L 871.666,535.584 L 871.66,535.767 L 871.817,536.379 L 871.819,536.621 L 871.743,536.853 L 871.581,537.884 L 871.578,538.278 L 871.612,538.46 L 871.875,538.818 L 872.321,539.215 L 872.87,539.785 L 873.108,539.924 L 873.448,540.044 L 873.677,540.075 L 874.004,540.133 L 874.107,540.227 L 874.14,540.378 L 874.044,540.827 L 873.937,541.128 L 873.845,541.295 L 873.691,541.414 L 873.393,541.519 L 873.238,541.694 L 872.994,541.751 L 872.791,541.912 L 872.745,542 L 872.574,542.157 L 872.416,542.183 L 872.368,542.119 L 872.272,541.979 L 872.085,542.093 L 871.518,542.082 L 871.447,542.109 L 871.307,542.259 L 871.255,542.345 L 871.327,542.381 L 871.428,542.36 L 871.548,542.357 L 871.657,542.385 L 871.733,542.45 L 871.786,542.492 L 871.856,542.582 L 871.923,542.7 L 872.281,542.705 L 872.628,542.772 L 873.706,542.713 L 875.143,542.467 L 875.33,542.269 L 875.565,542.256 L 875.732,542.325 L 877,542.357 L 877.456,542.282 L 878.052,542.122 L 878.404,541.938 L 878.624,541.913 L 878.727,541.972 L 878.76,542.067 L 878.659,542.178 L 878.723,542.279 L 878.888,542.246 L 879.123,542.124 L 879.248,542.006 L 879.397,541.989 L 879.69,542.133 L 879.752,542.174 L 880.047,542.269 L 880.164,542.287 L 880.223,542.304 L 880.308,542.284 L 880.384,542.259 L 880.512,542.209 L 880.636,542.196 L 880.755,542.22 L 880.841,542.197 L 880.926,542.194 L 881.137,542.192 L 881.536,542.261 L 881.671,542.257 L 881.726,542.245 L 881.892,542.285 L 881.936,542.347 L 882.021,542.36 L 882.157,542.386 L 882.202,542.381 L 882.046,542.223 L 882.061,542.145 L 882.115,542.072 L 882.35,541.99 L 882.405,541.952 L 882.363,541.754 L 882.241,541.463 L 882.081,541.26 L 881.976,540.997 L 881.818,540.368 L 881.746,540.243 L 881.242,539.625 L 880.989,539.583 L 880.83,539.436 L 880.629,539.091 L 880.425,538.542 L 880.193,538.245 L 880.074,538.152 L 879.693,537.962 L 879.464,537.916 L 879.29,537.825 L 878.967,537.837 L 878.383,537.749 L 878.099,537.658 L 876.947,537.508 L 876.262,537.522 L 875.963,537.502 L 875.057,537.507 L 874.962,537.454 L 874.746,537.132 L 874.689,537 L 874.688,536.938 L 874.631,536.803 L 874.559,536.687 L 874.327,536.452 L 873.629,535.998 L 873.266,535.731 L 873.051,535.508 L 872.993,535.421 L 872.907,535.335 L 872.82,535.249 L 872.82,535.155 L 872.943,534.925 L 872.971,534.458 L 872.979,534.371 L 872.964,534.22 L 872.828,533.853 L 872.619,533.659 L 872.487,533.516 L 872.399,533.432 L 872.399,533.37 L 872.492,533.274 L 872.72,533.23 L 872.884,533.074 L 872.993,533.015 L 873.119,533.03 L 873.428,533.16 L 873.522,533.136 L 873.55,532.859 L 873.589,532.805 L 873.785,532.694 L 873.848,532.615 L 873.908,532.43 L 873.91,531.943 L 873.829,531.793 L 873.835,531.66 L 873.989,531.311 L 873.97,531.122 L 873.922,531.021 L 873.795,530.929 L 873.676,530.898 L 873.568,530.923 L 873.467,531.01 L 873.406,531.176 L 873.308,531.579 L 873.239,531.755 L 873.233,531.888 L 873.281,531.989 L 873.377,532.082 L 873.511,532.168 L 873.544,532.239 L 873.537,532.317 L 873.42,532.438 L 873.289,532.752 L 873.172,532.848 L 873.062,532.842 L 873.006,532.763 L 872.99,532.677 L 872.888,532.726 L 872.826,532.846 L 872.607,533.02 L 872.536,533.012 L 872.518,532.787 L 872.595,532.586 L 872.661,532.147 L 872.646,531.549 L 872.516,531.186 L 872.388,530.992 L 872.189,530.79 L 872.124,530.599 L 872.106,530.411 L 871.985,530.107 L 871.848,529.857 L 871.57,529.645 L 871.498,529.498 L 871.489,529.433 L 871.377,529.263 L 871.162,529.061 L 871.152,528.903 L 871.23,528.83 L 871.428,528.846 L 871.831,528.989 L 872.053,529.113 L 872.935,529.9 L 873.561,530.229 L 873.693,530.33 L 874.263,530.577 L 874.594,530.611 L 875.822,530.551 L 876.136,530.452 L 876.895,530.079 L 877.432,529.617 L 877.564,529.408 L 877.801,528.893 L 877.972,528.671 L 878.477,528.107 L 878.788,527.859 L 879.13,527.468 L 880.137,526.778 L 880.902,526.21 L 881.291,525.821 L 882.051,524.874 L 882.316,524.656 L 882.488,524.551 L 882.793,524.437 L 883.155,524.396 L 883.697,524.268 L 883.769,524.356 L 883.66,524.437 L 883.04,524.616 L 882.805,524.762 L 882.437,524.922 L 882.25,525.107 L 882.042,525.454 L 881.936,525.811 L 881.894,526.228 L 881.256,527.44 L 881.18,527.688 L 881.185,528.072 L 881.29,528.314 L 881.374,528.693 L 881.385,528.975 L 881.454,529.447 L 881.545,529.776 L 881.762,530.13 L 882.024,530.355 L 882.263,530.531 L 882.556,530.646 L 883.024,530.915 L 883.277,531.007 L 883.592,531.06 L 884.191,531.089 L 884.239,531.122 L 884.248,531.239 L 884.439,531.355 L 884.448,531.457 L 884.283,531.539 L 884.166,531.555 L 883.937,531.496 L 883.97,531.613 L 883.988,531.817 L 884.083,531.849 L 884.153,531.791 L 884.286,531.759 L 884.406,531.843 L 884.554,531.739 L 884.646,531.566 L 884.668,531.391 L 884.604,531.362 L 884.524,531.275 L 884.499,531.173 L 885.222,530.984 L 885.623,530.939 L 885.774,531.055 L 885.791,531.157 L 885.739,532.095 L 885.821,532.329 L 885.853,532.951 L 885.81,533.361 L 885.734,533.655 L 885.672,533.744 L 885.555,533.816 L 885.58,533.886 L 885.543,534.061 L 885.44,534.076 L 885.369,534.038 L 885.283,534.062 L 885.189,534.142 L 885.191,534.31 L 885.226,534.6 L 885.155,534.584 L 885.028,534.445 L 884.909,534.399 L 884.91,534.51 L 884.951,534.642 L 884.962,534.825 L 884.862,535.02 L 884.863,535.107 L 884.958,535.154 L 885.063,535.334 L 885.065,535.57 L 885.17,535.734 L 885.282,535.858 L 885.3,536.04 L 885.42,536.189 L 885.444,536.25 L 885.405,536.323 L 885.203,536.514 L 885.015,536.604 L 884.921,536.613 L 884.81,536.582 L 884.738,536.488 L 884.721,536.37 L 884.752,536.298 L 884.727,536.237 L 884.649,536.245 L 884.392,536.532 L 884.402,536.696 L 884.521,536.782 L 884.568,536.725 L 884.662,536.67 L 884.765,536.716 L 884.924,536.873 L 885.248,536.963 L 885.384,537.095 L 885.542,537.147 L 885.637,537.218 L 885.654,537.28 L 885.631,537.343 L 885.633,537.516 L 885.768,537.633 L 885.843,537.916 L 885.844,538.025 L 885.751,538.121 L 885.61,538.146 L 885.443,538.086 L 884.946,537.973 L 884.81,537.85 L 884.701,537.912 L 884.663,538.056 L 884.427,538.044 L 884.3,537.933 L 884.198,537.998 L 884.246,538.084 L 884.255,538.164 L 884.154,538.291 L 884.152,538.716 L 884.026,538.741 L 884.019,538.835 L 884.091,538.907 L 884.272,538.886 L 884.32,538.965 L 884.4,539.075 L 884.468,539.445 L 884.7,539.708 L 884.836,539.912 L 885.028,540.114 L 885.194,540.215 L 885.463,540.275 L 886.051,540.708 L 886.169,540.698 L 886.231,540.628 L 886.449,539.797 L 886.445,539.443 L 886.379,539.278 L 886.364,538.711 L 886.274,538.412 L 886.064,537.969 L 886.07,537.832 L 886.139,537.669 L 886.122,537.533 L 885.93,537.34 L 885.898,537.27 L 885.912,537.127 L 885.958,537.088 L 886.03,537.132 L 886.054,537.197 L 886.141,537.194 L 886.119,536.73 L 885.889,536.6 L 885.857,536.53 L 885.853,536.229 L 885.765,536.114 L 885.77,535.868 L 885.993,535.45 L 886.031,535.331 L 886.027,535.024 L 885.929,534.763 L 885.871,534.52 L 885.815,534.444 L 885.805,534.246 L 885.685,534.147 L 885.747,534.027 L 885.872,533.971 L 885.911,533.914 L 885.948,533.748 L 885.96,533.36 L 886.158,532.837 L 886.14,532.617 L 886.057,532.303 L 886.096,531.666 L 886.099,531.263 L 886.12,531.027 L 886.072,530.966 L 886.001,530.934 L 885.928,530.824 L 885.911,530.723 L 885.855,530.644 L 885.689,530.577 L 885.625,530.514 L 885.709,530.27 L 885.856,530.076 L 885.979,529.865 L 886.197,529.018 L 886.236,528.294 L 886.238,527.906 L 886.195,527.585 L 886.191,527.223 L 886.243,527.026 L 886.496,526.454 L 886.576,525.933 L 886.572,525.651 L 886.395,525.306 L 886.146,524.948 L 886.152,524.774 L 886.557,524.393 L 886.619,524.304 L 886.716,523.901 L 886.718,523.421 L 886.749,523.358 L 886.747,523.24 L 886.69,523.052 L 886.631,522.753 L 886.479,522.581 L 886.194,522.419 L 886.201,522.347 L 886.349,522.244 L 886.48,522.029 L 886.518,521.928 L 886.509,521.792 L 886.46,521.685 L 886.381,521.622 L 886.31,521.646 L 886.249,521.812 L 886.164,521.923 L 886.134,522.057 L 885.956,522.336 L 885.887,522.486 L 885.898,522.722 L 885.844,522.77 L 885.765,522.757 L 885.487,522.563 L 885.257,522.446 L 884.788,522.146 L 884.733,522.083 L 884.692,521.951 L 884.698,521.823 L 884.797,521.609 L 885.068,521.214 L 885.137,521.069 L 885.181,520.811 L 885.3,520.847 L 885.365,520.982 L 885.452,521.066 L 885.903,521.227 L 886.037,521.192 L 886.169,521.089 L 886.277,520.866 L 886.337,520.631 L 886.314,520.071 L 886.281,520 L 886.162,519.917 L 885.672,519.789 L 885.429,519.83 L 885.227,520.031 L 885.102,520.109 L 885.096,520.323 L 885.043,520.418 L 884.972,520.457 L 884.862,520.451 L 884.766,520.351 L 884.702,520.248 L 884.693,520.186 L 884.636,520.029 L 884.619,519.897 L 884.512,519.559 L 884.079,518.932 L 883.887,518.708 L 883.839,518.614 L 883.711,518.481 L 883.197,518.307 L 882.953,518.342 L 882.679,518.464 L 882.508,518.615 L 882.454,518.704 L 882.439,518.781 L 882.316,519.002 L 881.842,519.481 L 881.733,519.639 L 881.658,519.871 L 881.627,519.934 L 881.207,520.38 L 880.945,520.816 L 880.798,521.062 L 880.784,521.14 L 880.652,521.355 L 880.509,521.83 L 880.452,522.356 L 880.461,523.072 L 880.57,523.559 L 880.591,523.993 L 880.608,524.094 L 880.841,524.525 L 880.883,524.666 L 880.897,525.156 L 880.953,525.297 L 880.972,525.517 L 880.92,525.775 L 880.827,525.856 L 880.763,525.848 L 880.634,525.607 L 880.464,525.159 L 880.434,524.034 L 880.382,523.648 L 880.315,523.318 L 880.258,522.548 L 880.312,521.848 L 880.425,521.43 L 880.556,521.175 L 880.685,520.817 L 880.793,520.644 L 880.877,520.424 L 881.328,519.937 L 881.436,519.778 L 881.621,519.444 L 882.017,519.023 L 882.388,518.436 L 882.653,518.242 L 883.116,518.105 L 884.059,517.959 L 884.882,517.647 L 885.777,517.472 L 885.894,517.517 L 886.015,517.564 L 886.118,517.664 L 886.296,518.024 L 886.354,518.227 L 886.406,518.589 L 886.438,518.684 L 886.451,519.077 L 886.475,519.139 L 886.555,519.856 L 886.672,520.383 L 886.776,521.161 L 886.876,522.867 L 886.918,523.018 L 887.046,523.203 L 887.073,524.102 L 887.3,525.295 L 887.309,525.99 L 887.199,526.675 L 887.19,527.172 L 887.16,527.312 L 887.164,527.644 L 887.101,528.235 L 886.989,528.731 L 886.991,528.868 L 886.894,529.348 L 886.771,530.248 L 886.667,530.698 L 886.646,530.924 L 886.591,531.525 L 886.566,533.352 L 886.541,533.905 L 886.644,534.615 L 886.704,536.282 L 886.688,536.875 L 886.651,537.071 L 886.657,537.565 L 886.658,537.6 L 886.66,537.793 L 886.939,539.286 L 886.977,540.476 L 886.965,540.737 L 886.816,541.399 L 886.812,541.737 L 886.789,541.809 L 886.657,541.983 L 886.435,542.436 L 886.256,542.634 L 886.014,542.802 L 885.803,542.886 L 885.166,543.025 L 884.749,543.046 L 884.607,543.026 L 884.38,542.929 L 884.267,542.881 L 884.054,542.843 L 883.985,542.866 L 883.865,542.865 L 883.642,542.872 L 883.514,542.873 L 883.492,542.87 L 883.444,542.869 L 883.404,542.869 L 883.23,542.867 L 883.069,542.865 L 882.868,542.836 L 882.633,542.802 L 882.391,542.808 L 882.301,542.793 L 882.152,542.753 L 882.049,542.722 L 881.855,542.666 L 881.796,542.653 L 881.737,542.64 L 881.565,542.608 L 881.456,542.604 L 881.207,542.601 L 881.089,542.608 L 880.886,542.606 L 880.81,542.609 L 880.749,542.614 L 880.708,542.625 L 880.44,542.637 L 880.227,542.653 L 880.126,542.633 L 879.956,542.646 L 879.664,542.658 L 879.497,542.647 L 879.371,542.657 L 879.187,542.667 L 879.045,542.634 L 878.918,542.62 L 878.749,542.638 L 878.653,542.67 L 878.537,542.673 L 878.489,542.674 L 878.168,542.723 L 877.956,542.717 L 877.826,542.73 L 877.556,542.733 L 877.405,542.755 L 877.087,542.754 L 876.892,542.749 L 876.844,542.752 L 876.709,542.76 L 876.634,542.779 L 876.324,542.827 L 876.114,542.847 L 876.043,542.854 L 875.743,542.893 L 875.62,542.903 L 875.505,542.899 L 875.423,542.878 L 875.399,542.895 L 875.363,542.92 L 875.268,542.969 L 874.987,542.994 L 874.754,543.045 L 874.465,543.088 L 874.264,543.112 L 873.893,543.143 L 873.71,543.159 L 873.108,543.161 L 872.591,543.136 L 872.014,543.128 L 871.044,543.079 L 870.288,543.016 L 869.833,542.972 L 869.213,542.943 L 868.707,542.86 L 868.401,542.872 L 867.915,542.837 L 867.566,542.751 L 866.924,542.68 L 866.468,542.66 L 866.134,542.641 L 865.947,542.671 L 865.564,542.703 L 865.214,542.645 L 864.996,542.669 L 864.745,542.692 L 864.368,542.636 L 864.006,542.583 L 863.553,542.546 L 863.048,542.534 L 862.668,542.592 L 862.153,542.64 L 861.835,542.625 L 861.072,542.695 L 860.66,542.711 L 860.158,542.681 L 859.74,542.586 L 859.391,542.557 L 858.666,542.531 L 858.119,542.52 L 857.918,542.507 L 857.735,542.521 L 857.252,542.578 L 856.894,542.565 L 856.501,542.551 L 855.89,542.568 L 855.356,542.49 L 854.953,542.487 L 854.56,542.483 L 854.049,542.495 L 853.757,542.526 L 853.567,542.58 L 853.009,542.526 L 852.708,542.538 L 852.41,542.546 L 852.151,542.566 L 851.785,542.597 L 851.552,542.596 L 851.236,542.592 L 850.894,542.586 L 850.448,542.596 L 850.036,542.633 L 849.784,542.644 L 849.61,542.624 L 849.477,542.587 L 849.021,542.575 L 848.688,542.597 L 848.512,542.611 L 848.345,542.652 L 847.978,542.645 L 847.711,542.643 L 847.465,542.616 L 847.23,542.653 L 847.094,542.678 L 846.846,542.711 L 846.515,542.749 L 846.284,542.754 L 846.081,542.742 L 845.919,542.752 L 845.782,542.754 L 845.255,533.818 L 845.04,530.476 L 843.467,520.575 L 851.849,520.461 L 854.202,520.427 L 854.593,520.04 M 864.189,522.972 L 864.255,523.205 L 864.36,523.435 L 864.526,523.526 L 864.723,523.533 L 865.336,523.431 L 865.542,523.556 L 865.725,523.733 L 865.727,523.922 L 865.544,524.436 L 865.412,524.58 L 865.155,524.804 L 865.148,524.922 L 865.172,524.977 L 865.259,524.99 L 865.314,524.958 L 865.502,524.918 L 865.706,524.804 L 865.839,524.803 L 866.165,525.014 L 866.418,525.096 L 866.622,525.109 L 866.763,525.03 L 866.769,524.801 L 866.736,524.73 L 866.701,524.415 L 866.638,524.339 L 866.503,524.275 L 866.275,524.263 L 866.045,524.201 L 865.974,524.142 L 865.909,524.007 L 865.874,523.67 L 865.707,523.467 L 865.469,523.344 L 865.326,523.218 L 864.868,523.088 L 864.685,522.935 L 864.464,522.864 L 864.267,522.861 L 864.197,522.909 L 864.189,522.972"
       id="path16177"
       style="fill-rule:evenodd" />
    <path
       name="edgartown" d="M 860.865,519.256 L 860.866,519.331 L 860.538,519.595 L 860.374,519.575 L 860.865,519.256"
       id="path16179"
       style="fill-rule:evenodd" />
    <path
       name="edgartown" d="M 859.373,520.063 L 859.549,519.881 L 859.68,519.62 L 859.837,519.609 L 859.885,519.664 L 859.91,519.781 L 859.865,519.906 L 859.387,520.221 L 859.373,520.063"
       id="path16181"
       style="fill-rule:evenodd" />
    <path
       name="edgartown" d="M 859.865,519.906 L 859.63,520.14 L 859.387,520.221 L 859.865,519.906"
       id="path16183"
       style="fill-rule:evenodd" />
    <path
       name="edgartown" d="M 859.387,520.221 L 859.316,520.142 L 859.373,520.063 L 859.387,520.221"
       id="path16185"
       style="fill-rule:evenodd" />
    <path
       name="edgartown" d="M 864.189,522.972 L 864.197,522.909 L 864.267,522.861 L 864.464,522.864 L 864.685,522.935 L 864.868,523.088 L 865.326,523.218 L 865.469,523.344 L 865.707,523.467 L 865.874,523.67 L 865.909,524.007 L 865.974,524.142 L 866.045,524.201 L 866.275,524.263 L 866.503,524.275 L 866.638,524.339 L 866.701,524.415 L 866.736,524.73 L 866.769,524.801 L 866.763,525.03 L 866.622,525.109 L 866.418,525.096 L 866.165,525.014 L 865.839,524.803 L 865.706,524.804 L 865.502,524.918 L 865.314,524.958 L 865.259,524.99 L 865.172,524.977 L 865.148,524.922 L 865.155,524.804 L 865.412,524.58 L 865.544,524.436 L 865.727,523.922 L 865.725,523.733 L 865.542,523.556 L 865.336,523.431 L 864.723,523.533 L 864.526,523.526 L 864.36,523.435 L 864.255,523.205 L 864.189,522.972"
       id="path16189"
       style="fill-rule:evenodd" />
    <path
       name="edgartown" d="M 871.583,525.802 L 871.41,525.782 L 871.094,525.739 L 871.109,525.673 L 871.179,525.594 L 871.336,525.546 L 871.494,525.544 L 871.597,525.646 L 871.637,525.738 L 871.583,525.802"
       id="path16191"
       style="fill-rule:evenodd" />       
   </g>
</svg>