<svg
   xmlns:svg="http://www.w3.org/2000/svg"
   xmlns="http://www.w3.org/2000/svg"
   version="1.0"
   width="2100"
   height="1300"
   viewBox="0 0 2100 1300"
   id="svg14921">
   <g
     transform="matrix(2.2640019,0,0,2.2640019,-216.71416,-21.6991)"
     id="g14955"
     style="font-size:16.25px;font-style:normal;font-weight:400;fill:#fefee9;fill-opacity:1;fill-rule:evenodd;stroke:#000000;stroke-width:0.0984252;stroke-linecap:square;stroke-linejoin:bevel;stroke-opacity:1;font-family:Lucida Grande">
    <path
       name="everett" d="M 734.565,173.549 L 733.397,176.508 L 733.273,177.064 L 733.231,177.261 L 732.57,178.833 L 731.416,181.236 L 729.465,183.1 L 729.014,182.798 L 728.96,182.771 L 728.832,182.75 L 728.718,182.759 L 728.606,182.792 L 728.514,182.836 L 728.422,182.904 L 728.352,182.987 L 728.298,183.066 L 728.267,183.147 L 728.245,183.238 L 728.244,183.325 L 728.262,183.417 L 728.303,183.509 L 728.341,183.592 L 728.396,183.642 L 728.487,183.7 L 728.63,183.782 L 728.729,183.838 L 728.836,183.917 L 728.913,183.999 L 728.996,184.108 L 728.944,184.217 L 728.929,184.344 L 728.875,184.557 L 728.75,184.716 L 728.522,184.818 L 728.349,184.873 L 727.974,185.433 L 727.818,185.633 L 727.638,185.989 L 727.489,186.139 L 726.599,185.985 L 726.394,185.83 L 726.126,185.847 L 726.032,185.903 L 725.204,185.725 L 724.779,185.735 L 724.014,185.518 L 723.849,185.557 L 723.794,185.52 L 723.934,185.211 L 723.998,185.092 L 724.192,184.76 L 724.401,184.455 L 724.644,184.131 L 724.69,184.007 L 724.686,183.826 L 724.632,183.706 L 724.553,183.662 L 724.482,183.682 L 724.297,183.924 L 724.156,184.038 L 724.013,183.881 L 723.856,183.842 L 723.386,184.402 L 723.236,184.317 L 723.055,184.288 L 723.023,184.177 L 723.414,183.679 L 723.468,183.457 L 723.381,183.444 L 723.272,183.599 L 723.177,183.649 L 722.91,183.681 L 722.823,183.594 L 722.822,183.491 L 722.948,183.475 L 723.042,183.42 L 723.018,183.247 L 722.9,183.319 L 722.868,183.224 L 722.789,183.108 L 722.809,182.494 L 722.887,182.296 L 722.925,182.099 L 722.917,181.926 L 722.884,181.744 L 723.291,181.199 L 723.472,181.19 L 723.582,181.103 L 723.558,181.042 L 723.329,181.002 L 723.337,180.94 L 723.454,180.837 L 723.359,180.735 L 723.359,180.657 L 723.445,180.537 L 723.561,180.041 L 723.544,179.883 L 723.487,179.752 L 723.539,179.65 L 723.556,179.585 L 723.52,179.508 L 723.457,179.458 L 723.47,179.339 L 723.47,179.277 L 723.304,179.183 L 723.257,179.097 L 723.232,178.956 L 723.254,178.648 L 723.293,178.523 L 723.371,178.421 L 723.465,178.357 L 723.551,178.153 L 723.653,178.057 L 723.66,177.985 L 723.542,178.001 L 723.471,177.994 L 723.461,177.631 L 723.524,177.474 L 723.287,177.444 L 723.216,177.365 L 723.184,177.28 L 723.167,176.79 L 725.225,176.68 L 725.312,176.702 L 725.839,176.664 L 726.047,176.64 L 726.143,176.602 L 726.231,176.554 L 726.305,176.512 L 726.417,176.418 L 726.52,176.333 L 727.774,175.043 L 727.847,175.048 L 728.833,174.078 L 734.565,173.549"
       id="path15403"
       style="fill-rule:evenodd" />
    <path
       name="everett" d="M 722.958,178.767 L 723.011,178.854 L 723.012,179.068 L 722.951,179.038 L 722.928,178.983 L 722.918,178.918 L 722.913,178.853 L 722.958,178.767"
       id="path15425"
       style="fill-rule:evenodd" />
    <path
       name="everett" d="M 723.457,179.458 L 723.52,179.508 L 723.556,179.585 L 723.539,179.65 L 723.487,179.752 L 723.432,179.626 L 723.457,179.458"
       id="path15427"
       style="fill-rule:evenodd" />       
   </g>
</svg>