<svg
   xmlns:svg="http://www.w3.org/2000/svg"
   xmlns="http://www.w3.org/2000/svg"
   version="1.0"
   width="2100"
   height="1300"
   viewBox="0 0 2100 1300"
   id="svg14921">
   <g
     transform="matrix(2.2640019,0,0,2.2640019,-216.71416,-21.6991)"
     id="g14955"
     style="font-size:16.25px;font-style:normal;font-weight:400;fill:#fefee9;fill-opacity:1;fill-rule:evenodd;stroke:#000000;stroke-width:0.0984252;stroke-linecap:square;stroke-linejoin:bevel;stroke-opacity:1;font-family:Lucida Grande">
    <path
       name="fall-river" d="M 713.174,400.449 L 734.768,405.569 L 734.977,405.621 L 740.63,406.926 L 740.104,418.772 L 726.038,427.845 L 723.451,427.224 L 715.916,425.419 L 713.705,425.47 L 712.533,429.631 L 711.124,435.635 L 709.019,444.874 L 708.962,444.987 L 708.903,445.081 L 708.86,445.158 L 708.819,445.246 L 708.781,445.327 L 708.742,445.44 L 708.689,445.571 L 708.652,445.715 L 708.653,445.898 L 708.659,446.156 L 708.691,446.396 L 708.74,446.465 L 708.805,446.514 L 708.872,446.616 L 708.963,446.771 L 708.955,446.836 L 708.9,446.889 L 708.879,446.97 L 708.898,447.033 L 708.865,447.12 L 708.897,447.194 L 708.849,447.25 L 708.818,447.305 L 708.801,447.366 L 708.777,447.419 L 708.73,447.509 L 708.697,447.681 L 708.352,448.59 L 708.33,448.777 L 707.622,456.151 L 707.115,455.736 L 706.678,453.102 L 707.096,449.212 L 707.453,448.782 L 708.327,447.673 L 708.566,442.262 L 709.006,436.636 L 703.569,435.328 L 697.762,433.945 L 697.827,432.833 L 692.724,431.586 L 692.821,431.054 L 692.78,430.575 L 692.817,429.919 L 692.856,429.738 L 692.965,429.462 L 693.13,429.265 L 693.467,428.957 L 693.6,428.792 L 693.725,428.541 L 694.282,427.882 L 694.297,427.6 L 694.454,427.53 L 694.533,427.584 L 694.643,427.537 L 694.776,427.369 L 695.097,426.764 L 695.942,425.443 L 696.037,425.335 L 696.193,425.073 L 696.286,424.568 L 696.364,424.475 L 696.443,424.458 L 696.561,424.528 L 696.703,424.472 L 696.741,424.322 L 696.718,424.251 L 696.749,424.188 L 696.93,424.205 L 697.095,424.181 L 697.237,424.093 L 697.37,423.965 L 697.448,423.715 L 697.542,423.635 L 697.817,423.509 L 698.462,423.105 L 698.972,422.848 L 699.051,422.762 L 699.073,422.486 L 699.136,422.416 L 699.254,422.353 L 699.648,422.32 L 699.726,422.296 L 699.733,422.06 L 699.952,421.586 L 700.07,421.477 L 700.242,421.348 L 700.597,421.499 L 700.684,421.49 L 700.676,421.388 L 700.509,421.135 L 700.485,420.993 L 700.768,420.771 L 700.831,420.763 L 701.62,421.304 L 701.707,421.289 L 701.691,421.107 L 701.706,421.02 L 701.839,420.879 L 701.933,420.579 L 702.026,420.319 L 702.119,420.012 L 702.127,419.894 L 702.016,419.807 L 702.024,419.689 L 702.134,419.593 L 702.173,419.458 L 702.188,419.318 L 702.305,419.027 L 702.305,418.955 L 702.147,418.901 L 702.012,418.682 L 702.004,418.57 L 702.075,418.546 L 702.28,418.624 L 702.39,418.584 L 702.461,418.523 L 702.46,418.458 L 702.271,418.255 L 702.293,417.994 L 702.127,417.782 L 701.946,417.635 L 702.016,417.531 L 702.221,417.506 L 702.315,417.429 L 702.346,417.372 L 702.345,417.152 L 702.282,417.043 L 702.297,416.893 L 702.525,416.828 L 702.642,416.632 L 702.642,416.551 L 702.532,416.474 L 702.342,416.405 L 702.358,416.308 L 702.475,416.134 L 702.522,415.972 L 702.569,415.914 L 702.647,415.711 L 702.718,415.647 L 702.93,415.566 L 703.016,415.473 L 703.062,415.268 L 703.133,415.101 L 703.997,414.58 L 704.107,414.462 L 704.303,414.177 L 704.523,414.018 L 704.797,413.734 L 705.017,413.567 L 705.3,413.283 L 705.339,413.188 L 705.456,413.076 L 705.802,412.88 L 706.046,412.783 L 706.431,412.71 L 706.494,412.671 L 706.493,412.41 L 706.398,412.159 L 706.318,412.018 L 706.294,411.892 L 706.333,411.807 L 706.585,411.648 L 706.687,411.53 L 706.741,411.386 L 706.851,411.221 L 707.063,410.992 L 707.173,410.945 L 707.472,410.905 L 707.574,410.794 L 707.558,410.667 L 707.51,410.517 L 707.501,410.383 L 707.682,410.251 L 708.06,410.107 L 708.578,409.695 L 708.86,409.395 L 708.97,409.212 L 709.134,408.795 L 709.141,408.559 L 709.18,408.455 L 709.179,408.213 L 709.225,408.109 L 709.548,407.889 L 709.642,407.769 L 709.704,407.612 L 709.711,407.503 L 709.891,407.188 L 710.033,407.075 L 710.103,406.974 L 710.376,406.122 L 710.212,405.732 L 710.162,405.679 L 709.964,405.396 L 709.859,404.649 L 709.787,404.483 L 709.715,404.144 L 709.746,403.824 L 709.871,403.594 L 710.232,403.183 L 710.31,403.026 L 710.332,402.703 L 710.465,402.379 L 710.637,402.229 L 710.763,402.079 L 710.77,401.874 L 710.754,401.763 L 710.817,401.677 L 710.959,401.588 L 711.148,401.564 L 711.227,401.627 L 711.283,401.721 L 711.3,401.879 L 711.339,401.949 L 711.489,401.941 L 711.637,401.726 L 711.864,401.49 L 711.942,401.308 L 711.98,401.056 L 712.343,401.039 L 712.616,400.73 L 712.789,400.604 L 713.056,400.485 L 713.174,400.449"
       id="path15941"
       style="fill-rule:evenodd" />
   </g>
</svg>