<svg
   xmlns:svg="http://www.w3.org/2000/svg"
   xmlns="http://www.w3.org/2000/svg"
   version="1.0"
   width="2100"
   height="1300"
   viewBox="0 0 2100 1300"
   id="svg14921">
   <g
     transform="matrix(2.2640019,0,0,2.2640019,-216.71416,-21.6991)"
     id="g14955"
     style="font-size:16.25px;font-style:normal;font-weight:400;fill:#fefee9;fill-opacity:1;fill-rule:evenodd;stroke:#000000;stroke-width:0.0984252;stroke-linecap:square;stroke-linejoin:bevel;stroke-opacity:1;font-family:Lucida Grande">
    <path
       name="florida" d="M 221.279,61.0424 L 227.735,61.3266 L 227.31,74.5672 L 233.432,75.1513 L 233.839,75.2098 L 245.843,74.1331 L 246.103,74.0372 L 246.242,74.198 L 246.28,74.254 L 246.312,74.3158 L 246.337,74.3833 L 246.356,74.4426 L 246.363,74.5197 L 246.356,74.5902 L 246.336,74.6545 L 246.31,74.7483 L 246.287,74.8048 L 246.255,74.8945 L 246.222,74.9743 L 246.174,75.0559 L 246.127,75.1234 L 246.084,75.2091 L 246.037,75.2767 L 245.983,75.3619 L 245.931,75.4254 L 245.864,75.4967 L 245.794,75.5401 L 245.714,75.5813 L 245.642,75.6189 L 245.579,75.6528 L 245.508,75.7119 L 245.441,75.795 L 245.372,75.8798 L 245.299,75.9743 L 245.179,76.1012 L 245.117,76.1665 L 245.084,76.2188 L 245.045,76.2827 L 245.013,76.3745 L 245.009,76.453 L 245.021,76.5241 L 245.062,76.6058 L 245.13,76.698 L 245.174,76.7443 L 245.226,76.8084 L 245.306,76.8991 L 245.376,76.9951 L 245.424,77.0612 L 245.45,77.1247 L 245.493,77.2045 L 245.542,77.2824 L 245.567,77.3538 L 245.593,77.4234 L 245.617,77.4888 L 245.631,77.5619 L 245.644,77.6527 L 245.625,77.7978 L 245.602,77.9113 L 245.57,78.0167 L 245.544,78.0986 L 245.501,78.2177 L 245.467,78.3152 L 245.43,78.4027 L 245.368,78.5133 L 245.325,78.5693 L 245.262,78.6502 L 245.231,78.7027 L 245.198,78.7589 L 245.161,78.819 L 245.134,78.8772 L 245.091,78.9451 L 245.046,79.0107 L 244.975,79.0956 L 244.91,79.1709 L 244.838,79.2182 L 244.744,79.2276 L 244.655,79.2352 L 244.559,79.2367 L 244.451,79.2323 L 244.306,79.211 L 244.137,79.193 L 244.06,79.193 L 243.967,79.2143 L 243.875,79.2259 L 243.8,79.2377 L 243.716,79.2809 L 243.646,79.3363 L 243.573,79.4033 L 243.484,79.4856 L 243.428,79.5236 L 243.38,79.5618 L 243.332,79.6057 L 243.257,79.6807 L 243.189,79.7322 L 243.125,79.7836 L 243.048,79.8387 L 242.961,79.8916 L 242.887,79.9311 L 242.809,79.9726 L 242.74,79.9984 L 242.684,80.0168 L 242.605,80.0421 L 242.523,80.0638 L 242.427,80.0813 L 242.366,80.0814 L 242.28,80.0658 L 242.18,80.0594 L 242.074,80.0429 L 241.97,80.0168 L 241.886,79.9912 L 241.787,79.9691 L 241.705,79.9375 L 241.598,79.8895 L 241.514,79.8521 L 241.431,79.8048 L 241.355,79.7715 L 241.285,79.7501 L 241.137,79.6894 L 241.024,79.665 L 240.944,79.6452 L 240.827,79.6011 L 240.725,79.5771 L 240.665,79.5616 L 240.606,79.5465 L 240.522,79.5228 L 240.46,79.5095 L 240.366,79.4973 L 240.27,79.487 L 240.211,79.4777 L 240.146,79.4762 L 240.063,79.4781 L 239.984,79.4957 L 239.929,79.512 L 239.867,79.5362 L 239.792,79.5658 L 239.738,79.5978 L 239.668,79.6356 L 239.61,79.6755 L 239.561,79.739 L 239.526,79.8031 L 239.493,79.8632 L 239.473,79.9356 L 239.462,80.0003 L 239.449,80.1119 L 239.447,80.1905 L 239.443,80.2769 L 239.425,80.3435 L 239.408,80.404 L 239.38,80.49 L 239.356,80.5758 L 239.327,80.6381 L 239.284,80.7156 L 239.241,80.7834 L 239.189,80.8983 L 239.139,80.9796 L 239.106,81.0691 L 239.07,81.1588 L 239.04,81.2407 L 239.021,81.3071 L 239.014,81.3935 L 239.013,81.4662 L 239.022,81.5667 L 239.041,81.6421 L 239.061,81.7112 L 239.079,81.7943 L 239.137,81.8824 L 239.174,81.9638 L 239.222,82.0436 L 239.268,82.1609 L 239.305,82.2346 L 239.334,82.3159 L 239.353,82.3715 L 239.376,82.4606 L 239.381,82.5452 L 239.381,82.6297 L 239.367,82.718 L 239.383,82.7753 L 239.32,82.8544 L 239.272,82.8985 L 239.2,82.9342 L 239.113,82.9555 L 239.005,82.9706 L 238.938,82.9631 L 238.869,82.9574 L 238.583,82.9189 L 238.342,82.8914 L 238.271,82.8916 L 238.183,82.8854 L 238.05,82.8644 L 237.895,82.8488 L 237.781,82.8441 L 237.669,82.8354 L 237.563,82.8368 L 237.449,82.8319 L 237.323,82.8348 L 237.23,82.8424 L 237.128,82.8476 L 237.038,82.8474 L 236.955,82.8571 L 236.872,82.8629 L 236.746,82.8716 L 236.682,82.8995 L 236.607,82.9135 L 236.548,82.9377 L 236.492,82.954 L 236.397,82.9849 L 236.306,83.0084 L 236.249,83.0227 L 236.171,83.0405 L 236.11,83.0467 L 235.998,83.0578 L 235.937,83.0661 L 235.862,83.0801 L 235.776,83.1409 L 235.747,83.199 L 235.756,83.3036 L 235.781,83.375 L 235.815,83.4525 L 235.989,83.9956 L 236.032,84.164 L 236.049,84.2569 L 236.043,84.3453 L 236.019,84.4313 L 235.96,84.5182 L 235.876,84.5634 L 235.789,84.5967 L 235.701,84.6182 L 235.542,84.6081 L 235.325,84.5674 L 235.108,84.5287 L 234.918,84.5043 L 234.778,84.5008 L 234.659,84.4803 L 234.588,84.4766 L 234.51,84.4785 L 234.435,84.4944 L 234.349,84.5453 L 234.306,84.5934 L 234.265,84.6554 L 234.238,84.7079 L 234.219,84.7762 L 234.255,84.8892 L 234.357,85.0569 L 234.425,85.1472 L 234.818,85.6229 L 235.179,86.0312 L 235.703,86.6498 L 235.921,86.8834 L 235.977,86.9475 L 236.059,87.0225 L 236.117,87.0673 L 236.194,87.1163 L 236.27,87.1693 L 236.38,87.229 L 236.781,87.4436 L 236.946,87.5261 L 237.128,87.5778 L 237.34,87.6482 L 237.465,87.6786 L 237.557,87.7221 L 237.64,87.7539 L 237.761,87.8041 L 237.843,87.8395 L 237.904,87.8804 L 237.982,87.9294 L 238.066,88.0121 L 238.155,88.0772 L 238.197,88.1235 L 238.237,88.1736 L 238.277,88.2257 L 238.334,88.2883 L 238.384,88.3486 L 238.491,88.4591 L 238.556,88.5258 L 238.705,88.6927 L 238.779,88.7967 L 238.832,88.8847 L 238.912,88.9908 L 238.961,89.0433 L 239.015,89.0956 L 239.069,89.1344 L 239.135,89.1733 L 239.23,89.219 L 239.31,89.2347 L 239.391,89.2229 L 239.475,89.1778 L 239.562,89.0875 L 239.793,88.8198 L 240.024,88.5599 L 240.062,88.5157 L 240.135,88.4545 L 240.215,88.3995 L 240.291,88.3363 L 240.387,88.2837 L 240.455,88.2323 L 240.578,88.1822 L 240.671,88.1589 L 240.737,88.139 L 240.866,88.1047 L 240.923,88.0906 L 241.051,88.0778 L 241.168,88.0985 L 241.231,88.1138 L 241.29,88.125 L 241.413,88.1556 L 241.471,88.1669 L 241.542,88.1766 L 241.605,88.182 L 241.701,88.1864 L 241.784,88.1845 L 241.843,88.1781 L 241.953,88.1611 L 242.05,88.1576 L 242.145,88.1324 L 242.214,88.1086 L 242.276,88.0826 L 242.325,88.0247 L 242.363,87.9706 L 242.408,87.899 L 242.446,87.7483 L 242.492,87.6315 L 242.549,87.4835 L 242.593,87.394 L 242.62,87.32 L 242.66,87.2462 L 242.691,87.19 L 242.763,87.1091 L 242.817,87.0868 L 242.89,87.0671 L 242.955,87.0607 L 243.052,87.069 L 243.163,87.0934 L 243.229,87.1048 L 243.294,87.1242 L 243.374,87.1459 L 243.588,87.155 L 243.733,87.1664 L 243.827,87.1846 L 243.941,87.1972 L 244.019,87.2267 L 244.1,87.2621 L 244.194,87.3057 L 244.267,87.3429 L 244.335,87.3799 L 244.395,87.4169 L 244.443,87.4494 L 244.491,87.4959 L 244.543,87.5679 L 244.563,87.6235 L 244.58,87.7125 L 244.58,87.9486 L 244.589,88.0315 L 244.597,88.1299 L 244.609,88.2383 L 244.622,88.2957 L 244.633,88.4041 L 244.638,88.5085 L 244.634,88.5792 L 244.622,88.6439 L 244.62,88.7344 L 244.614,88.8128 L 244.587,88.9498 L 244.579,89.0282 L 244.558,89.0927 L 244.535,89.2004 L 244.518,89.257 L 244.487,89.3703 L 244.453,89.4776 L 244.429,89.5576 L 244.412,89.6281 L 244.404,89.6868 L 244.38,89.7945 L 244.363,89.906 L 244.343,90.0748 L 244.321,90.2985 L 244.31,90.7976 L 244.316,91.0359 L 244.309,91.2855 L 244.322,91.4037 L 244.346,91.4918 L 244.392,91.7202 L 244.435,91.9023 L 244.487,92.0177 L 244.547,92.1843 L 244.601,92.3116 L 244.631,92.3811 L 244.647,92.4425 L 244.684,92.5221 L 244.725,92.6017 L 244.806,92.6668 L 244.893,92.7061 L 244.977,92.7261 L 245.044,92.7375 L 245.059,92.8519 L 245.397,96.0309 L 245.33,96.0822 L 245.233,96.1114 L 245.138,96.1128 L 245.072,96.1052 L 244.968,96.0832 L 244.884,96.0496 L 244.83,96.0206 L 244.766,95.9995 L 244.676,95.9795 L 244.59,95.9675 L 244.495,95.9654 L 244.415,95.9633 L 244.334,95.9652 L 244.232,95.9569 L 244.14,95.9565 L 244.057,95.9642 L 243.962,95.966 L 243.862,95.9673 L 243.801,95.9757 L 243.716,95.9735 L 243.632,95.9518 L 243.566,95.9365 L 243.485,95.9462 L 243.397,95.952 L 243.276,95.9667 L 243.176,95.9819 L 243.089,95.9956 L 243.024,95.9958 L 242.94,95.9722 L 242.848,95.9365 L 242.78,95.9092 L 242.718,95.8802 L 242.635,95.8426 L 242.574,95.8352 L 242.509,95.8356 L 242.425,95.8689 L 242.364,95.9028 L 242.305,95.9565 L 242.264,96.0105 L 242.23,96.0648 L 242.203,96.1211 L 242.168,96.1715 L 242.107,96.2486 L 242.052,96.3259 L 242.033,96.3824 L 241.996,96.4839 L 241.973,96.5383 L 241.938,96.6005 L 241.897,96.6664 L 241.86,96.7204 L 241.826,96.7708 L 241.763,96.844 L 241.69,96.913 L 241.628,96.9685 L 241.582,97.0048 L 241.521,97.0681 L 241.46,97.1355 L 241.399,97.2167 L 241.354,97.2783 L 241.317,97.3679 L 241.293,97.4441 L 241.27,97.5024 L 241.254,97.5926 L 241.246,97.6651 L 241.24,97.7398 L 241.248,97.7989 L 241.265,97.8545 L 241.284,97.9179 L 241.334,97.9918 L 241.371,98.0596 L 241.393,98.1191 L 241.405,98.1863 L 241.399,98.2768 L 241.393,98.3651 L 241.376,98.4631 L 241.35,98.5665 L 241.322,98.6545 L 241.281,98.7124 L 241.231,98.7564 L 241.161,98.8156 L 241.085,98.8571 L 241.017,98.8927 L 240.928,98.9121 L 240.853,98.928 L 240.788,98.9402 L 240.723,98.9464 L 240.644,98.9504 L 240.57,98.9388 L 240.496,98.8995 L 240.438,98.8608 L 240.4,98.8127 L 240.246,98.6004 L 240.163,98.4763 L 240.123,98.4184 L 240.072,98.36 L 240.025,98.3196 L 239.968,98.2709 L 239.908,98.2262 L 239.824,98.1985 L 239.752,98.1869 L 239.681,98.1832 L 239.597,98.2206 L 239.541,98.2644 L 239.493,98.3202 L 239.451,98.4234 L 239.439,98.4821 L 239.428,98.5447 L 239.418,98.6214 L 239.418,98.6959 L 239.412,98.7724 L 239.403,98.8786 L 239.38,98.933 L 239.349,98.9872 L 239.295,99.0351 L 239.229,99.0632 L 239.135,99.051 L 238.996,98.898 L 238.88,98.7476 L 238.821,98.6457 L 238.708,98.5309 L 238.631,98.4228 L 238.517,98.2744 L 238.4,98.1497 L 238.219,97.913 L 238.024,97.6329 L 237.929,97.5086 L 237.865,97.4224 L 237.802,97.3402 L 237.748,97.2858 L 237.691,97.2039 L 237.628,97.1452 L 237.576,97.1144 L 237.52,97.0797 L 237.452,97.0503 L 237.376,97.0269 L 237.301,97.0075 L 237.229,96.9879 L 237.161,96.9666 L 237.077,96.9467 L 237.001,96.9251 L 236.913,96.9013 L 236.829,96.8934 L 236.763,96.9116 L 236.703,96.9455 L 236.652,97.009 L 236.625,97.0695 L 236.598,97.1278 L 236.567,97.188 L 236.544,97.2444 L 236.511,97.2947 L 236.471,97.3449 L 236.394,97.4078 L 236.326,97.4454 L 236.275,97.4718 L 236.211,97.5076 L 236.166,97.5518 L 236.12,97.6097 L 236.1,97.678 L 236.126,97.7553 L 236.171,97.8311 L 236.214,97.8971 L 236.25,97.9452 L 236.282,98.0284 L 236.304,98.0941 L 236.308,98.165 L 236.279,98.2192 L 236.145,98.2121 L 236.067,98.1884 L 235.981,98.1824 L 235.908,98.1747 L 235.83,98.1669 L 235.715,98.1857 L 235.498,98.3023 L 235.416,98.3533 L 235.358,98.3775 L 235.301,98.4017 L 235.213,98.429 L 235.152,98.4432 L 235.061,98.449 L 234.913,98.4668 L 234.85,98.477 L 234.761,98.4906 L 234.669,98.5119 L 234.581,98.5334 L 234.51,98.5493 L 234.449,98.5714 L 234.389,98.6053 L 234.315,98.6293 L 234.238,98.643 L 234.146,98.6465 L 234.048,98.6442 L 233.963,98.6401 L 233.897,98.6307 L 233.818,98.6188 L 233.717,98.6006 L 233.655,98.5704 L 233.572,98.5129 L 233.494,98.4302 L 233.43,98.3455 L 233.364,98.2547 L 233.303,98.1764 L 233.252,98.1307 L 233.198,98.0972 L 233.136,98.073 L 233.026,98.0513 L 232.914,98.053 L 232.832,98.0122 L 232.786,97.97 L 232.73,97.9039 L 232.712,97.8328 L 232.713,97.766 L 232.725,97.6835 L 232.748,97.6074 L 232.792,97.4685 L 232.839,97.3612 L 232.883,97.2537 L 232.886,97.1909 L 232.872,97.0883 L 232.856,97.029 L 232.812,96.9573 L 232.766,96.9132 L 232.707,96.8866 L 232.647,96.856 L 232.563,96.8405 L 232.484,96.8293 L 232.394,96.8157 L 232.297,96.7865 L 232.217,96.7535 L 232.129,96.7067 L 232.079,96.6743 L 231.997,96.6077 L 231.926,96.5494 L 231.86,96.4734 L 231.787,96.415 L 231.713,96.3526 L 231.632,96.292 L 231.555,96.2257 L 231.477,96.1593 L 231.423,96.1151 L 231.363,96.0744 L 231.272,96.0119 L 231.178,95.9729 L 231.077,95.9551 L 231.006,95.9499 L 230.947,95.9449 L 230.888,95.94 L 230.792,95.9084 L 230.731,95.8426 L 230.687,95.7552 L 230.666,95.6623 L 230.667,95.5815 L 230.673,95.4932 L 230.661,95.4083 L 230.627,95.3349 L 230.589,95.2615 L 230.547,95.1939 L 230.533,95.1325 L 230.562,95.0525 L 230.604,95.0118 L 230.672,94.9679 L 230.728,94.9119 L 230.765,94.8338 L 230.79,94.7478 L 230.786,94.6415 L 230.772,94.5805 L 230.725,94.4811 L 230.678,94.435 L 230.623,94.3788 L 230.543,94.3322 L 230.457,94.3128 L 230.37,94.3093 L 230.305,94.3101 L 230.229,94.3105 L 230.142,94.301 L 230.082,94.2588 L 230.044,94.1871 L 230.03,94.1297 L 230.016,94.0548 L 230.027,93.9626 L 230.05,93.8863 L 230.064,93.8038 L 230.01,93.7338 L 216.838,92.6056 L 216.957,90.9361 L 218.28,72.4466 L 221.279,61.0424"
       id="path15009"
       style="fill-rule:evenodd" />
   </g>
</svg>