<svg
   xmlns:svg="http://www.w3.org/2000/svg"
   xmlns="http://www.w3.org/2000/svg"
   version="1.0"
   width="2100"
   height="1300"
   viewBox="0 0 2100 1300"
   id="svg14921">
   <g
     transform="matrix(2.2640019,0,0,2.2640019,-216.71416,-21.6991)"
     id="g14955"
     style="font-size:16.25px;font-style:normal;font-weight:400;fill:#fefee9;fill-opacity:1;fill-rule:evenodd;stroke:#000000;stroke-width:0.0984252;stroke-linecap:square;stroke-linejoin:bevel;stroke-opacity:1;font-family:Lucida Grande">
    <path
       name="framingham" d="M 640.614,202.521 L 640.847,203.005 L 641.001,203.257 L 641.061,203.369 L 641.061,203.475 L 641.047,203.578 L 641.042,203.733 L 641.017,204.011 L 641.017,204.125 L 641.037,204.18 L 641.067,204.273 L 641.142,204.341 L 641.252,204.373 L 641.325,204.384 L 641.415,204.384 L 641.507,204.352 L 641.56,204.329 L 641.631,204.303 L 641.688,204.259 L 641.749,204.21 L 641.81,204.16 L 641.863,204.09 L 641.918,204.03 L 641.98,203.963 L 642.049,203.886 L 642.126,203.819 L 642.192,203.786 L 642.257,203.748 L 642.326,203.738 L 642.391,203.734 L 642.458,203.738 L 642.562,203.761 L 642.649,203.816 L 642.68,203.867 L 642.69,203.928 L 642.675,204.001 L 642.638,204.094 L 642.618,204.182 L 644.383,206.823 L 645.447,211.582 L 642.946,215.929 L 639.104,218.944 L 639.922,223.322 L 640.476,223.874 L 640.815,225.987 L 642.224,226.312 L 640.333,229.909 L 634.839,231.358 L 624.207,223.856 L 614.933,220.14 L 617.753,212.819 L 617.987,208.707 L 617.549,206.283 L 618.436,198.386 L 640.614,202.521"
       id="path15483"
       style="fill-rule:evenodd" />
   </g>
</svg>