<svg
   xmlns:svg="http://www.w3.org/2000/svg"
   xmlns="http://www.w3.org/2000/svg"
   version="1.0"
   width="2100"
   height="1300"
   viewBox="0 0 2100 1300"
   id="svg14921">
   <g
     transform="matrix(2.2640019,0,0,2.2640019,-216.71416,-21.6991)"
     id="g14955"
     style="font-size:16.25px;font-style:normal;font-weight:400;fill:#fefee9;fill-opacity:1;fill-rule:evenodd;stroke:#000000;stroke-width:0.0984252;stroke-linecap:square;stroke-linejoin:bevel;stroke-opacity:1;font-family:Lucida Grande">
    <path
       name="georgetown" d="M 751.247,60.0121 L 752.917,61.2704 L 753.842,61.9621 L 758.66,65.1861 L 760.33,66.0597 L 756.737,69.4672 L 751.58,76.1183 L 751.411,76.2759 L 747.144,80.4584 L 742.426,78.3952 L 741.263,78.345 L 739.922,78.1468 L 738.37,78.1604 L 735.144,78.0839 L 734.708,77.2436 L 734.516,77.0222 L 733.099,72.4346 L 732.303,67.5455 L 734.237,67.8411 L 736.159,67.0737 L 738.218,66.849 L 738.683,66.4885 L 741.192,64.8973 L 745.067,62.6503 L 746.284,61.799 L 747.645,61.4815 L 747.939,61.3033 L 748.601,60.9273 L 749.8,60.484 L 751.247,60.0121"
       id="path15007"
       style="fill-rule:evenodd" />
   </g>
</svg>