<svg
   xmlns:svg="http://www.w3.org/2000/svg"
   xmlns="http://www.w3.org/2000/svg"
   version="1.0"
   width="2100"
   height="1300"
   viewBox="0 0 2100 1300"
   id="svg14921">
   <g
     transform="matrix(2.2640019,0,0,2.2640019,-216.71416,-21.6991)"
     id="g14955"
     style="font-size:16.25px;font-style:normal;font-weight:400;fill:#fefee9;fill-opacity:1;fill-rule:evenodd;stroke:#000000;stroke-width:0.0984252;stroke-linecap:square;stroke-linejoin:bevel;stroke-opacity:1;font-family:Lucida Grande">
    <path
       name="gill" d="M 361.13,84.8349 L 362.701,84.4231 L 362.852,86.4558 L 363.591,86.7403 L 363.906,85.8284 L 363.999,85.2868 L 364.626,85.0575 L 365.09,85.4137 L 365.596,86.1702 L 366.095,87.0469 L 366.338,87.6317 L 366.512,87.5875 L 366.684,87.6553 L 367.236,87.8418 L 367.166,88.2128 L 367.171,88.2798 L 367.189,88.3844 L 367.211,88.4831 L 367.223,88.5661 L 367.251,88.655 L 367.272,88.7696 L 367.269,88.8541 L 367.267,88.9506 L 367.27,89.3738 L 367.288,89.6476 L 367.308,89.7445 L 367.33,89.8433 L 367.358,89.9283 L 367.392,90.0019 L 367.449,90.1367 L 367.531,90.2915 L 367.661,90.4709 L 368.348,91.51 L 368.385,91.5569 L 368.463,91.6716 L 368.523,91.7237 L 368.565,91.7678 L 368.642,91.8852 L 368.686,91.9668 L 368.73,92.0206 L 368.772,92.0863 L 368.81,92.1853 L 368.873,92.2966 L 368.905,92.3799 L 368.947,92.4535 L 368.971,92.5383 L 368.987,92.6077 L 368.986,92.6902 L 368.988,92.8024 L 369,92.8756 L 369.005,92.9366 L 369.014,93.0036 L 369.006,93.1119 L 368.992,93.2198 L 368.975,93.2943 L 368.938,93.3941 L 368.911,93.4724 L 368.886,93.539 L 368.835,93.6345 L 368.795,93.7065 L 368.722,93.8136 L 368.605,93.9574 L 367.586,95.0854 L 367.506,95.1687 L 367.416,95.2499 L 367.296,95.37 L 367.156,95.4994 L 367.026,95.6191 L 366.876,95.7268 L 365.493,96.7227 L 364.88,97.169 L 364.78,97.25 L 364.694,97.3215 L 364.658,97.3819 L 364.621,97.4363 L 364.537,97.5037 L 364.458,97.5634 L 364.382,97.625 L 364.336,97.6794 L 364.214,97.7797 L 364.062,98.0389 L 363.942,98.1334 L 363.814,98.2551 L 363.712,98.3283 L 363.56,98.4732 L 363.432,98.6167 L 363.347,98.7294 L 363.267,98.8146 L 363.202,98.9041 L 363.16,98.9605 L 363.083,99.0773 L 362.992,99.2352 L 362.897,99.387 L 362.842,99.5003 L 362.783,99.6154 L 362.737,99.7248 L 362.708,99.8188 L 362.685,99.8953 L 362.67,99.9638 L 362.653,100.032 L 362.652,100.093 L 362.668,100.171 L 362.706,100.277 L 362.72,100.354 L 362.738,100.443 L 362.764,100.526 L 362.793,100.594 L 362.876,100.759 L 362.944,100.852 L 362.997,100.963 L 363.073,101.096 L 363.377,101.89 L 363.748,102.743 L 364,103.314 L 364.063,103.453 L 364.227,103.77 L 364.373,104.044 L 364.568,104.474 L 364.765,104.939 L 364.869,105.199 L 364.916,105.313 L 364.942,105.394 L 364.969,105.473 L 364.979,105.593 L 365.011,105.793 L 365.041,106.051 L 365.024,106.325 L 365.005,106.507 L 364.965,106.623 L 364.95,106.707 L 364.912,106.842 L 364.893,106.959 L 364.88,107.056 L 364.828,107.186 L 364.786,107.313 L 364.752,107.409 L 364.709,107.52 L 364.667,107.622 L 364.632,107.69 L 364.596,107.754 L 364.568,107.856 L 364.533,107.938 L 364.487,108.025 L 364.44,108.105 L 364.371,108.204 L 364.335,108.264 L 364.276,108.343 L 364.213,108.419 L 364.163,108.479 L 364.08,108.544 L 364.012,108.603 L 363.942,108.659 L 363.864,108.736 L 363.769,108.803 L 363.654,108.846 L 363.541,108.904 L 363.425,108.951 L 363.31,109.011 L 363.203,109.08 L 363.131,109.139 L 363.065,109.197 L 362.992,109.256 L 362.918,109.327 L 362.821,109.421 L 362.715,109.542 L 362.67,109.618 L 362.632,109.721 L 362.597,109.789 L 362.547,109.886 L 362.48,110.04 L 362.458,110.144 L 362.41,110.259 L 362.375,110.357 L 362.282,110.519 L 362.229,110.601 L 362.182,110.684 L 362.133,110.764 L 362.095,110.834 L 362.042,110.922 L 361.989,110.991 L 361.943,111.059 L 361.903,111.11 L 361.845,111.179 L 361.771,111.256 L 361.732,111.309 L 361.643,111.383 L 361.591,111.439 L 361.541,111.487 L 361.503,111.561 L 361.446,111.658 L 361.393,111.741 L 361.351,111.817 L 361.297,111.926 L 361.246,112.03 L 361.187,112.135 L 361.136,112.217 L 361.066,112.315 L 360.997,112.412 L 360.941,112.492 L 360.894,112.562 L 360.84,112.644 L 360.801,112.712 L 360.743,112.792 L 360.711,112.862 L 360.629,112.926 L 360.524,112.996 L 360.45,113.023 L 360.372,113.044 L 360.272,113.053 L 360.176,113.061 L 360.085,113.059 L 359.958,113.054 L 359.883,113.038 L 359.826,113.028 L 359.746,112.97 L 359.688,112.884 L 359.64,112.813 L 359.56,112.743 L 359.488,112.685 L 359.38,112.593 L 359.296,112.523 L 359.189,112.431 L 359.092,112.353 L 359.03,112.274 L 358.844,112.071 L 358.799,111.993 L 358.751,111.918 L 358.685,111.697 L 358.655,111.611 L 358.584,111.349 L 358.555,111.276 L 358.533,111.183 L 358.513,111.08 L 358.498,110.978 L 358.48,110.889 L 358.463,110.828 L 358.436,110.755 L 358.384,110.679 L 358.343,110.635 L 358.257,110.583 L 358.134,110.548 L 358.03,110.547 L 357.934,110.538 L 357.839,110.532 L 357.731,110.531 L 357.646,110.53 L 357.556,110.527 L 357.458,110.524 L 357.148,110.462 L 356.686,110.38 L 356.469,110.333 L 356.225,110.293 L 355.964,110.278 L 355.842,110.292 L 355.678,110.315 L 355.385,110.341 L 355.298,110.355 L 355.241,110.37 L 355.172,110.354 L 354.979,110.355 L 354.853,110.347 L 354.696,110.336 L 354.619,110.34 L 354.525,110.339 L 354.444,110.338 L 354.338,110.327 L 354.261,110.346 L 354.115,110.371 L 354.023,110.398 L 353.91,110.439 L 353.831,110.482 L 353.739,110.551 L 352.848,111.32 L 352.665,111.442 L 352.55,111.533 L 351.741,112.03 L 350.953,112.421 L 350.165,112.837 L 349.883,112.9 L 349.66,112.956 L 349.549,112.979 L 349.449,113.001 L 349.391,113.016 L 349.321,113.023 L 349.215,113.012 L 349.136,112.995 L 349.062,112.976 L 348.989,112.951 L 348.892,112.891 L 348.78,112.839 L 348.686,112.78 L 348.613,112.705 L 348.549,112.619 L 348.489,112.53 L 348.414,112.397 L 348.355,112.243 L 348.326,112.083 L 348.309,111.983 L 348.302,111.9 L 348.298,111.786 L 348.299,111.715 L 348.302,111.591 L 348.317,111.487 L 348.346,111.234 L 348.371,111.023 L 348.364,110.886 L 348.358,110.754 L 348.348,110.622 L 348.33,110.501 L 348.312,110.389 L 348.301,110.289 L 348.281,110.206 L 348.254,110.15 L 348.192,110.022 L 348.16,109.945 L 348.115,109.873 L 348.061,109.792 L 347.943,109.658 L 347.807,109.533 L 347.754,109.497 L 347.657,109.411 L 347.509,109.298 L 347.439,109.262 L 347.37,109.212 L 347.322,109.178 L 347.269,109.136 L 347.22,109.099 L 347.176,109.055 L 347.131,109.004 L 347.059,108.934 L 346.985,108.84 L 346.914,108.741 L 346.786,108.562 L 346.697,108.449 L 346.571,108.295 L 346.476,108.19 L 346.45,108.099 L 346.428,108.01 L 346.413,107.907 L 346.401,107.791 L 346.371,107.706 L 346.35,107.633 L 346.283,107.545 L 346.343,107.486 L 346.399,107.436 L 346.437,107.387 L 346.473,107.315 L 346.484,107.234 L 346.479,107.171 L 346.486,107.084 L 346.517,107.014 L 346.54,106.938 L 346.578,106.856 L 346.603,106.791 L 346.635,106.721 L 346.686,106.606 L 346.718,106.545 L 346.78,106.471 L 346.834,106.417 L 346.912,106.353 L 346.972,106.307 L 347.03,106.267 L 347.11,106.199 L 347.152,106.129 L 347.207,106.016 L 347.234,105.953 L 347.27,105.901 L 347.285,105.84 L 347.296,105.773 L 347.311,105.717 L 347.319,105.64 L 347.33,105.583 L 347.344,105.475 L 347.352,105.387 L 347.354,105.292 L 347.389,105.191 L 347.418,105.124 L 347.418,105.042 L 347.416,104.979 L 347.373,104.919 L 347.32,104.846 L 347.284,104.743 L 347.261,104.652 L 347.271,104.582 L 347.281,104.511 L 347.292,104.433 L 347.307,104.329 L 347.326,104.172 L 347.328,104.109 L 347.302,104.01 L 347.282,103.884 L 347.266,103.807 L 347.247,103.699 L 347.209,103.564 L 347.211,103.468 L 347.244,103.392 L 347.279,103.337 L 347.489,103.113 L 347.515,103.044 L 347.539,102.967 L 347.55,102.879 L 347.538,102.802 L 347.472,102.732 L 347.388,102.703 L 347.303,102.704 L 347.226,102.699 L 347.126,102.688 L 347.069,102.677 L 347.009,102.646 L 346.952,102.622 L 346.888,102.584 L 346.858,102.5 L 346.878,102.432 L 346.903,102.367 L 346.943,102.305 L 346.988,102.211 L 347.02,102.155 L 347.052,102.096 L 347.077,102.026 L 347.096,101.935 L 347.101,101.873 L 347.098,101.796 L 347.056,101.716 L 346.986,101.64 L 346.95,101.549 L 346.963,101.475 L 346.984,101.406 L 347.016,101.344 L 347.011,101.271 L 347.042,101.216 L 347.086,101.17 L 347.131,101.133 L 347.181,101.081 L 347.234,101.003 L 347.274,100.927 L 347.32,100.864 L 347.37,100.794 L 347.422,100.761 L 347.487,100.743 L 347.57,100.724 L 347.62,100.686 L 347.678,100.626 L 347.708,100.553 L 347.747,100.491 L 347.793,100.407 L 347.846,100.321 L 347.89,100.261 L 347.91,100.192 L 347.963,100.122 L 348.009,100.017 L 348.052,99.9367 L 348.083,99.8507 L 348.117,99.7766 L 348.132,99.7097 L 348.092,99.6226 L 348.032,99.5784 L 347.962,99.5164 L 347.908,99.4583 L 347.844,99.3649 L 347.798,99.2896 L 347.744,99.204 L 347.686,99.1244 L 347.656,99.0591 L 347.626,98.9601 L 347.601,98.891 L 347.571,98.7959 L 347.541,98.705 L 347.542,98.6459 L 347.565,98.5262 L 347.576,98.4398 L 347.583,98.3475 L 347.573,98.2843 L 347.554,98.2212 L 347.543,98.1462 L 347.535,98.0575 L 347.534,97.963 L 347.543,97.8923 L 347.535,97.7623 L 347.536,97.6856 L 347.549,97.6248 L 347.569,97.57 L 347.602,97.5134 L 347.665,97.4632 L 347.743,97.4053 L 347.791,97.3608 L 347.849,97.3106 L 347.903,97.2504 L 347.955,97.1783 L 348.013,97.0869 L 348.076,96.9873 L 348.108,96.9327 L 348.16,96.843 L 348.208,96.7867 L 348.247,96.7243 L 348.279,96.6737 L 348.325,96.5976 L 348.387,96.5434 L 348.464,96.5467 L 348.544,96.5577 L 348.634,96.5808 L 348.715,96.5938 L 348.797,96.593 L 348.878,96.5746 L 348.95,96.5343 L 349.035,96.4746 L 349.113,96.4365 L 349.184,96.3824 L 349.24,96.3361 L 349.284,96.2974 L 349.328,96.2567 L 349.422,96.266 L 349.478,96.3141 L 349.531,96.3406 L 349.615,96.3439 L 349.691,96.3076 L 349.743,96.2474 L 349.773,96.1907 L 349.78,96.124 L 349.779,96.0589 L 349.77,95.9821 L 349.761,95.917 L 349.745,95.8538 L 349.724,95.7885 L 349.709,95.7233 L 349.689,95.6541 L 349.664,95.5751 L 349.642,95.498 L 349.649,95.4114 L 349.656,95.3407 L 349.651,95.2778 L 349.636,95.193 L 349.62,95.1081 L 349.611,95.0331 L 349.61,94.9505 L 349.621,94.872 L 349.652,94.7839 L 349.689,94.7136 L 349.711,94.6587 L 349.906,94.3922 L 349.907,94.3194 L 349.87,94.2617 L 349.816,94.2156 L 349.785,94.166 L 349.739,94.1239 L 349.704,94.0683 L 349.674,93.9971 L 349.661,93.9298 L 349.654,93.8491 L 349.646,93.7369 L 349.639,93.6502 L 349.625,93.5516 L 349.626,93.4729 L 349.623,93.3941 L 349.659,93.0975 L 349.66,93.0148 L 349.668,92.9224 L 349.684,92.8498 L 349.715,92.754 L 349.761,92.6288 L 349.773,92.5502 L 349.799,92.4425 L 349.843,92.3939 L 360.223,90.8404 L 362.771,90.4391 L 361.13,84.8349"
       id="path15089"
       style="fill-rule:evenodd" />
   </g>
</svg>