<svg
   xmlns:svg="http://www.w3.org/2000/svg"
   xmlns="http://www.w3.org/2000/svg"
   version="1.0"
   width="2100"
   height="1300"
   viewBox="0 0 2100 1300"
   id="svg14921">
   <g
     transform="matrix(2.2640019,0,0,2.2640019,-216.71416,-21.6991)"
     id="g14955"
     style="font-size:16.25px;font-style:normal;font-weight:400;fill:#fefee9;fill-opacity:1;fill-rule:evenodd;stroke:#000000;stroke-width:0.0984252;stroke-linecap:square;stroke-linejoin:bevel;stroke-opacity:1;font-family:Lucida Grande">
    <path
       name="gloucester" d="M 832.478,82.5499 L 831.674,90.0583 L 832.027,100.405 L 836.757,102.524 L 837.987,103.076 L 838.123,103.137 L 838.324,103.23 L 838.373,103.44 L 838.397,103.496 L 838.392,103.587 L 838.384,103.659 L 838.266,103.694 L 838.19,103.969 L 837.956,104.209 L 837.621,104.442 L 837.51,104.448 L 837.392,104.396 L 837.296,104.272 L 837.155,104.319 L 836.991,104.479 L 836.841,104.474 L 836.779,104.504 L 836.691,104.553 L 836.502,104.571 L 836.408,104.611 L 836.197,104.784 L 835.868,104.977 L 835.664,105.042 L 835.476,105.147 L 834.564,106.052 L 834.211,106.255 L 834.157,106.318 L 834.419,106.584 L 834.663,106.564 L 834.804,106.476 L 834.962,106.484 L 834.955,106.639 L 834.924,106.711 L 834.925,106.804 L 834.973,106.884 L 834.967,107.073 L 834.866,107.185 L 834.74,107.248 L 834.567,107.249 L 834.465,107.29 L 834.403,107.353 L 834.364,107.457 L 834.271,107.599 L 834.29,107.956 L 834.244,108.035 L 834.214,108.169 L 834.46,108.441 L 834.492,108.52 L 834.52,108.935 L 834.585,109.117 L 834.729,109.345 L 834.762,109.471 L 834.769,110.234 L 834.755,110.408 L 834.67,110.597 L 834.679,110.771 L 834.375,111.096 L 834.354,111.286 L 834.059,111.738 L 834.093,112.035 L 834.017,112.289 L 833.369,112.925 L 833.087,113.045 L 833.017,113.159 L 833.002,113.243 L 833.098,113.424 L 833.1,113.566 L 832.811,113.891 L 832.515,114.17 L 832.335,114.268 L 832.148,114.528 L 832.046,114.599 L 831.74,114.698 L 831.631,114.816 L 831.42,114.937 L 831.215,114.947 L 831.12,114.893 L 830.913,114.658 L 830.787,114.612 L 830.676,114.615 L 830.441,114.687 L 830.23,114.824 L 829.925,115.062 L 829.856,115.235 L 829.865,115.458 L 829.915,115.667 L 829.934,116.014 L 829.998,116.164 L 830.356,116.498 L 830.593,116.615 L 830.603,116.795 L 830.488,117.106 L 830.286,117.397 L 830.067,117.636 L 829.809,117.805 L 829.622,117.963 L 829.374,118.417 L 829.28,118.51 L 829.069,118.609 L 828.173,118.812 L 827.914,118.925 L 827.727,119.148 L 827.587,119.245 L 827.31,119.16 L 827.027,119.203 L 826.839,119.283 L 824.704,118.396 L 824.72,118.327 L 824.806,118.294 L 826.608,119.048 L 826.671,119.039 L 826.71,118.992 L 826.732,118.827 L 826.802,118.707 L 826.998,118.667 L 827.061,118.594 L 827.044,118.47 L 826.972,118.376 L 826.625,118.339 L 826.569,118.307 L 826.538,118.221 L 826.536,118.113 L 826.448,117.963 L 826.455,117.867 L 826.603,117.686 L 826.753,117.659 L 826.878,117.572 L 827.09,117.538 L 827.152,117.459 L 827.198,117.327 L 827.194,116.939 L 827.146,116.807 L 826.947,116.611 L 826.915,116.547 L 826.914,116.445 L 826.968,116.35 L 827.281,116.055 L 827.333,115.812 L 827.395,115.717 L 827.668,115.43 L 827.761,115.266 L 827.847,115.161 L 828.019,115.087 L 828.381,115.036 L 828.686,114.813 L 828.92,114.536 L 829.036,114.347 L 829.149,113.866 L 829.178,113.508 L 829.137,113.376 L 828.969,113.086 L 828.794,112.939 L 828.557,112.853 L 828.47,112.738 L 828.484,112.641 L 828.531,112.556 L 828.522,112.476 L 828.324,112.351 L 828.331,112.258 L 828.619,111.914 L 828.703,111.685 L 828.686,111.49 L 828.811,111.44 L 828.889,111.339 L 828.88,111.196 L 828.832,111.101 L 828.752,111.032 L 828.658,111.026 L 828.148,111.267 L 828.054,111.252 L 828.044,111.087 L 828.075,110.99 L 828.003,110.905 L 827.806,110.884 L 827.782,110.822 L 828.041,110.709 L 828.08,110.661 L 828.069,110.448 L 828.037,110.393 L 827.77,110.394 L 827.698,110.319 L 827.61,110.191 L 827.633,110.097 L 827.923,109.952 L 828.204,109.658 L 828.502,109.554 L 828.524,109.388 L 828.736,109.364 L 828.87,109.313 L 829.161,109.32 L 829.17,109.382 L 829.037,109.494 L 829.007,109.666 L 828.938,109.842 L 828.859,109.856 L 828.742,109.999 L 828.548,110.207 L 828.541,110.319 L 828.596,110.364 L 828.646,110.561 L 828.693,110.646 L 829.003,110.857 L 829.065,110.825 L 829.104,110.737 L 829.221,110.634 L 829.195,110.374 L 829.264,110.239 L 829.506,109.961 L 829.465,109.836 L 829.464,109.693 L 829.55,109.638 L 829.692,109.677 L 829.715,109.598 L 829.762,109.557 L 829.896,109.556 L 829.902,109.429 L 829.823,109.335 L 829.822,109.266 L 829.727,109.164 L 829.804,109.022 L 829.803,108.935 L 829.724,108.872 L 829.464,108.852 L 829.51,108.758 L 829.588,108.678 L 829.894,108.532 L 830.042,108.373 L 830.048,108.183 L 830.221,108.175 L 830.324,108.237 L 830.387,108.204 L 830.386,108.133 L 830.251,108.041 L 830.251,107.969 L 830.414,107.701 L 830.468,107.653 L 830.641,107.61 L 830.664,107.492 L 830.702,107.428 L 830.686,107.342 L 830.37,107.274 L 830.142,107.309 L 830.175,107.441 L 830.081,107.475 L 830.017,107.436 L 829.947,107.491 L 829.94,107.578 L 829.869,107.596 L 829.619,107.796 L 829.439,107.875 L 829.272,107.719 L 829.404,107.513 L 829.81,107.185 L 830.03,107.104 L 830.061,107.05 L 830.029,106.98 L 830.122,106.819 L 830.129,106.735 L 830.175,106.585 L 830.103,106.553 L 830.033,106.577 L 829.805,106.642 L 829.758,106.69 L 829.752,106.808 L 829.595,106.897 L 829.484,106.825 L 829.366,106.844 L 829.367,106.953 L 829.241,106.994 L 829.243,107.183 L 828.9,107.572 L 828.705,107.692 L 828.633,107.629 L 828.57,107.631 L 828.414,107.76 L 828.509,107.859 L 828.502,107.94 L 828.378,108.105 L 828.189,108.123 L 828.11,108.101 L 828.047,108.124 L 828.048,108.227 L 828.254,108.311 L 828.216,108.414 L 828.082,108.44 L 828.115,108.634 L 827.856,108.763 L 827.795,108.867 L 827.732,108.869 L 827.676,108.83 L 827.714,108.64 L 827.666,108.607 L 827.587,108.609 L 827.494,108.659 L 827.446,108.601 L 827.437,108.478 L 827.374,108.501 L 827.311,108.571 L 827.223,108.416 L 827.019,108.449 L 827.004,108.527 L 826.941,108.514 L 826.893,108.459 L 826.618,108.508 L 826.556,108.587 L 826.549,108.752 L 826.652,108.814 L 826.889,108.884 L 826.977,108.978 L 827.198,109.04 L 827.261,109.085 L 827.286,109.251 L 827.169,109.36 L 826.833,109.609 L 826.66,109.627 L 826.503,109.69 L 826.393,109.669 L 826.36,109.573 L 826.375,109.486 L 826.43,109.407 L 826.421,109.314 L 826.349,109.245 L 825.922,109.012 L 825.827,108.987 L 824.945,109.004 L 824.639,109.032 L 824.512,108.976 L 823.473,108.185 L 823.266,107.958 L 823.21,107.848 L 823.216,107.705 L 823.286,107.533 L 823.204,107.178 L 823.011,106.849 L 823.032,106.588 L 823.008,106.48 L 822.996,106.092 L 822.892,105.928 L 822.923,105.809 L 823.001,105.785 L 823.221,105.775 L 823.221,105.682 L 823.093,105.54 L 822.944,105.526 L 822.864,105.463 L 822.864,105.392 L 822.918,105.362 L 823.044,105.368 L 823.179,105.423 L 823.257,105.399 L 823.248,105.312 L 823.162,105.281 L 823.082,105.156 L 822.822,105.133 L 822.758,105.072 L 822.75,105.001 L 822.615,104.906 L 822.285,105.027 L 822.075,105.235 L 822.028,105.339 L 822.045,105.41 L 822.132,105.503 L 822.102,105.628 L 821.928,105.568 L 821.865,105.499 L 821.785,105.365 L 821.58,105.436 L 821.462,105.405 L 821.446,105.334 L 821.351,105.337 L 821.194,105.385 L 821.208,105.227 L 821.153,105.197 L 820.996,105.245 L 820.885,105.23 L 820.759,105.169 L 820.664,105.075 L 820.631,104.964 L 820.645,104.831 L 820.76,104.508 L 820.805,104.199 L 820.851,104.12 L 820.945,104.034 L 820.897,103.979 L 820.692,103.932 L 820.637,103.894 L 820.569,103.765 L 820.523,103.573 L 820.521,103.307 L 820.583,103.233 L 820.741,103.241 L 820.875,103.296 L 820.962,103.371 L 821.064,103.356 L 821.048,103.294 L 820.945,103.145 L 820.731,103.108 L 820.668,103.07 L 820.62,102.981 L 820.674,102.84 L 820.665,102.778 L 820.539,102.738 L 820.443,102.583 L 820.458,102.487 L 820.543,102.369 L 820.645,102.304 L 820.644,102.211 L 820.321,102.214 L 820.274,102.175 L 820.226,102.081 L 820.239,101.829 L 820.33,101.448 L 820.4,101.362 L 820.604,101.319 L 820.777,101.248 L 820.958,101.246 L 821.076,101.298 L 821.155,101.275 L 821.24,101.163 L 821.334,101.092 L 821.333,101.015 L 821.294,100.945 L 821.293,100.848 L 821.402,100.73 L 821.415,100.438 L 821.445,100.344 L 821.451,100.13 L 821.371,99.9807 L 821.401,99.8308 L 821.389,99.4 L 821.559,99.1064 L 821.636,98.8776 L 821.73,98.8437 L 821.824,98.748 L 821.973,98.7621 L 822.157,99.0452 L 822.441,99.0337 L 822.462,98.8594 L 822.494,98.8055 L 822.485,98.688 L 822.397,98.5386 L 822.38,98.4584 L 822.268,98.2632 L 822.249,97.9411 L 822.311,97.8462 L 822.348,97.5473 L 822.425,97.4179 L 822.494,97.2389 L 822.58,97.1433 L 822.777,97.094 L 822.871,97.1378 L 822.959,97.2345 L 823,97.4226 L 823.08,97.5876 L 823.248,97.8216 L 823.304,97.9223 L 823.307,98.1921 L 823.287,98.6084 L 823.147,98.7583 L 823.148,98.8608 L 823.078,98.9651 L 822.961,99.0523 L 822.819,99.1157 L 822.797,99.203 L 822.987,99.3215 L 823.082,99.3994 L 823.287,99.4025 L 823.358,99.4254 L 823.462,99.6084 L 823.456,99.7576 L 823.307,99.8922 L 823.309,100.072 L 823.335,100.301 L 823.242,100.508 L 823.263,100.979 L 823.248,101.16 L 823.218,101.247 L 823.11,101.468 L 823.136,101.752 L 823.216,101.862 L 823.334,101.867 L 823.351,102.041 L 823.415,102.113 L 823.488,102.332 L 823.686,102.416 L 823.679,102.496 L 823.461,102.773 L 823.438,102.845 L 823.478,102.94 L 823.604,102.921 L 823.689,102.794 L 823.838,102.675 L 823.891,102.416 L 823.984,102.32 L 824.014,102.186 L 824.201,101.922 L 824.207,101.805 L 824.073,101.768 L 824.018,101.791 L 823.886,101.957 L 823.816,101.999 L 823.753,101.982 L 823.401,101.475 L 823.414,101.136 L 823.381,101.01 L 823.536,100.804 L 823.542,100.63 L 823.612,100.457 L 823.592,100.048 L 823.862,99.4445 L 824.048,99.1753 L 824.118,99.0399 L 824.147,98.797 L 824.122,98.6488 L 824.239,98.4964 L 824.228,98.1648 L 824.344,97.9349 L 824.571,97.8475 L 824.263,97.7015 L 824.137,97.7487 L 824.028,97.8357 L 823.933,97.8138 L 823.877,97.6881 L 823.79,97.7218 L 823.76,97.8313 L 823.705,97.864 L 823.634,97.8164 L 823.492,97.7956 L 823.411,97.5996 L 823.399,97.1098 L 823.445,96.9999 L 823.655,96.6989 L 823.795,96.58 L 824.026,95.9931 L 824.025,95.8441 L 824.079,95.7649 L 824.078,95.6534 L 824.045,95.5209 L 824.177,95.3309 L 824.308,94.9671 L 824.401,94.8247 L 824.36,94.6988 L 824.266,94.748 L 824.18,94.8344 L 823.99,94.6942 L 823.864,94.6576 L 823.776,94.5237 L 823.79,94.4209 L 823.891,94.2378 L 823.866,94.0341 L 823.887,93.8596 L 823.87,93.7267 L 823.901,93.6327 L 823.979,93.5591 L 823.993,93.3383 L 824.069,93.0321 L 824.082,92.8425 L 824.25,92.2666 L 824.605,91.4992 L 824.628,91.4023 L 824.502,91.4277 L 824.432,91.4856 L 824.402,91.6262 L 824.285,91.7692 L 824.262,91.8413 L 824.114,92.0164 L 824.032,92.4717 L 823.986,92.5693 L 823.915,92.624 L 823.846,92.8277 L 823.784,92.9319 L 823.762,93.0815 L 823.63,93.3275 L 823.601,93.564 L 823.555,93.674 L 823.536,94.1305 L 823.427,94.3386 L 823.373,94.393 L 823.185,94.5288 L 823.052,94.57 L 822.964,94.5075 L 822.805,94.2888 L 822.796,94.1402 L 822.74,94.0922 L 822.395,94.245 L 822.262,94.311 L 822.111,94.1604 L 821.902,93.7602 L 821.901,93.6207 L 821.932,93.5485 L 822.097,93.5249 L 822.268,93.3182 L 822.258,93.1043 L 822.218,93.0032 L 822.162,92.9645 L 822.011,92.8386 L 822.089,92.6968 L 822.086,92.4301 L 822.17,92.167 L 822.217,92.1283 L 822.468,92.0309 L 822.562,91.9505 L 822.561,91.7924 L 822.529,91.7312 L 822.51,91.4558 L 822.462,91.4014 L 822.305,91.3626 L 822.121,91.1757 L 822.121,91.1042 L 822.167,90.9944 L 822.323,90.8439 L 822.644,90.6266 L 822.722,90.5311 L 822.783,90.3029 L 822.907,90.1038 L 823.086,89.9155 L 823.407,89.7695 L 823.54,89.6352 L 823.642,89.595 L 823.886,89.5599 L 824.184,89.4456 L 824.433,89.1063 L 824.424,88.9947 L 824.328,88.8549 L 823.971,88.5831 L 823.955,88.5186 L 823.966,88.0621 L 824.021,88.0233 L 824.155,88.0379 L 824.369,88.2145 L 824.396,88.555 L 824.506,88.5548 L 824.624,88.4801 L 824.758,88.5041 L 824.823,88.7162 L 824.91,88.8097 L 824.935,88.9052 L 825.07,89.0687 L 825.196,89.0433 L 825.328,88.8688 L 825.493,88.7801 L 825.491,88.6156 L 825.388,88.507 L 825.23,88.4527 L 825.032,88.3129 L 824.998,88.1463 L 824.935,88.0861 L 824.958,88.014 L 825.131,88.0586 L 825.569,88.5048 L 825.624,88.5279 L 825.799,88.6902 L 825.884,88.5885 L 825.702,88.4326 L 825.721,87.9203 L 825.821,87.7527 L 825.851,87.5098 L 825.998,87.279 L 826.067,87.0661 L 826.238,86.8997 L 826.373,86.9142 L 826.594,87.0039 L 826.672,86.9737 L 826.671,86.8311 L 826.497,86.7368 L 826.266,86.5112 L 826.265,86.4087 L 826.403,85.9982 L 826.659,85.6091 L 826.894,85.4439 L 827.153,85.4021 L 827.183,85.212 L 827.238,85.1481 L 827.324,85.0929 L 827.347,85.0209 L 827.401,84.9728 L 827.472,84.98 L 827.512,85.0439 L 827.67,85.064 L 827.757,85.1421 L 827.852,85.1487 L 827.851,85.0617 L 827.74,84.9938 L 827.724,84.9229 L 827.747,84.8663 L 827.731,84.8049 L 827.541,84.7669 L 827.564,84.7042 L 827.908,84.4241 L 827.969,84.2579 L 828.055,84.1779 L 828.118,84.1543 L 828.205,84.1704 L 828.371,84.2459 L 828.496,84.2143 L 828.63,84.2291 L 828.725,84.2604 L 828.812,84.2422 L 828.929,84.1146 L 829.164,84.0115 L 829.203,83.9484 L 829.367,83.8908 L 829.414,83.8521 L 829.405,83.75 L 829.349,83.6555 L 829.356,83.5591 L 829.395,83.5114 L 829.521,83.4643 L 829.694,83.4467 L 829.755,83.2495 L 829.959,83.1194 L 830.09,82.9138 L 830.177,82.874 L 830.233,83.0088 L 830.343,82.9683 L 830.435,82.7237 L 830.456,82.4316 L 830.635,82.1842 L 830.713,82.1447 L 830.917,82.0889 L 831.018,81.9277 L 831.025,81.8437 L 831.001,81.7389 L 831.197,81.6525 L 831.266,81.5014 L 831.344,81.4621 L 831.549,81.4838 L 831.709,81.687 L 831.822,82.0093 L 831.91,82.165 L 831.888,82.3301 L 831.787,82.4664 L 831.78,82.5753 L 831.876,82.6684 L 831.917,82.8658 L 832.005,82.9656 L 832.068,82.9979 L 832.201,82.9566 L 832.271,82.7903 L 832.478,82.5499"
       id="path15087"
       style="fill-rule:evenodd" />
    <path
       name="gloucester" d="M 822.051,95.3194 L 822.281,95.5391 L 822.44,95.6398 L 822.583,95.8341 L 822.585,95.9768 L 822.516,96.2209 L 822.454,96.3094 L 822.36,96.3805 L 822.203,96.4223 L 821.62,96.3559 L 821.422,96.2625 L 821.288,96.2881 L 821.352,96.3576 L 821.353,96.4444 L 821.298,96.4864 L 821.157,96.5248 L 821.039,96.5965 L 820.945,96.5899 L 820.897,96.5354 L 820.904,96.3865 L 820.973,96.2354 L 820.972,96.1641 L 820.877,96.1359 L 820.768,96.1577 L 820.73,96.3574 L 820.664,96.0586 L 820.608,95.9548 L 820.467,96.0427 L 820.129,96.0866 L 820.437,96.1459 L 820.509,96.2647 L 820.574,96.4924 L 820.63,96.562 L 820.764,96.6544 L 821.025,96.7148 L 821.057,96.7696 L 820.964,96.9525 L 820.854,96.9463 L 820.679,96.7994 L 820.347,96.6604 L 820.275,96.5261 L 820.141,96.5052 L 819.835,96.5856 L 819.733,96.6662 L 819.513,96.7472 L 819.395,96.7072 L 819.308,96.7098 L 819.214,96.7654 L 819.11,96.6319 L 819.009,96.6815 L 818.939,96.7828 L 818.924,96.8794 L 818.981,97.1134 L 819.085,97.2624 L 819.095,97.4452 L 819.127,97.5064 L 819.317,97.6775 L 819.326,97.7795 L 819.24,97.804 L 819.186,97.97 L 819.061,98.0823 L 819.023,98.1702 L 819.086,98.1931 L 819.079,98.2864 L 818.993,98.3045 L 818.834,98.2037 L 818.566,98.1092 L 818.202,97.9339 L 818.099,97.9184 L 818.069,98.1146 L 818.371,98.3476 L 818.396,98.4896 L 818.428,98.5385 L 818.453,98.6711 L 818.376,98.8222 L 818.337,98.9566 L 818.164,98.9185 L 818.162,98.7604 L 817.941,98.6614 L 817.831,98.6833 L 817.808,98.7957 L 817.542,98.8997 L 817.456,99.0356 L 817.442,99.1538 L 817.466,99.2245 L 817.483,99.4041 L 817.453,99.5321 L 817.618,99.5519 L 817.619,99.6171 L 817.313,99.651 L 817.187,99.7231 L 817.125,99.8335 L 817.213,99.9673 L 817.339,99.9666 L 817.527,99.8308 L 817.598,99.8224 L 817.645,99.8924 L 817.654,99.9635 L 817.758,100.103 L 817.751,100.252 L 817.698,100.49 L 817.723,100.545 L 817.825,100.597 L 817.826,100.678 L 817.756,100.789 L 817.749,100.867 L 817.844,100.914 L 817.9,100.977 L 817.901,101.11 L 817.831,101.23 L 817.833,101.385 L 817.629,101.46 L 817.622,101.547 L 817.819,101.538 L 817.82,101.64 L 817.568,101.682 L 817.333,101.779 L 817.206,101.699 L 817.033,101.685 L 817.054,101.458 L 816.833,101.365 L 816.769,101.311 L 816.752,101.169 L 816.689,101.162 L 816.651,101.271 L 816.604,101.335 L 816.605,101.431 L 816.889,101.506 L 816.89,101.568 L 816.789,101.72 L 816.6,101.791 L 816.601,101.872 L 816.696,101.94 L 816.799,101.94 L 817.058,101.867 L 817.2,101.897 L 817.218,102.092 L 817.303,101.997 L 817.405,101.966 L 817.461,102.02 L 817.47,102.091 L 817.368,102.187 L 817.283,102.298 L 817.284,102.401 L 817.347,102.423 L 817.425,102.359 L 817.487,102.224 L 817.636,102.207 L 817.682,102.041 L 817.713,101.988 L 817.87,101.952 L 818.004,101.951 L 818.018,101.817 L 818.057,101.707 L 818.07,101.493 L 818.157,101.509 L 818.174,101.605 L 818.221,101.665 L 818.34,101.681 L 818.457,101.609 L 818.583,101.562 L 818.709,101.67 L 818.795,101.583 L 819.015,101.502 L 819.179,101.333 L 819.305,101.363 L 819.549,101.338 L 819.691,101.29 L 819.792,101.178 L 819.878,101.16 L 819.926,101.24 L 819.795,101.454 L 819.456,101.529 L 819.41,101.593 L 819.229,101.592 L 819.161,101.87 L 819.255,101.908 L 819.436,101.834 L 819.64,101.803 L 819.752,101.936 L 819.76,102.004 L 819.698,102.068 L 819.447,102.222 L 819.409,102.294 L 819.426,102.433 L 819.577,102.559 L 819.563,102.789 L 819.69,102.943 L 819.934,102.918 L 820.006,103.012 L 820.025,103.312 L 820.09,103.53 L 820.099,103.767 L 820.102,103.993 L 819.994,104.192 L 819.989,104.49 L 819.95,104.563 L 819.848,104.612 L 819.752,104.469 L 819.642,104.448 L 819.478,104.638 L 819.329,104.662 L 819.154,104.524 L 819.067,104.499 L 818.879,104.501 L 818.815,104.447 L 819.058,104.288 L 819.046,103.925 L 818.904,103.942 L 818.803,104.054 L 818.67,104.064 L 818.464,103.977 L 818.306,103.972 L 818.197,104.037 L 818.159,104.193 L 818.096,104.186 L 817.969,104.1 L 817.716,104.058 L 817.486,103.847 L 817.195,103.902 L 817.045,103.786 L 816.391,103.808 L 816.392,103.889 L 816.432,103.959 L 816.511,104.003 L 816.763,104.011 L 816.811,104.05 L 816.82,104.137 L 816.734,104.254 L 816.735,104.366 L 816.783,104.405 L 817.058,104.347 L 817.137,104.391 L 817.162,104.549 L 817.139,104.605 L 816.904,104.711 L 816.858,104.806 L 816.829,105.089 L 816.672,105.168 L 816.673,105.295 L 816.762,105.522 L 816.78,105.767 L 816.686,105.801 L 816.402,105.809 L 816.277,105.875 L 816.137,106.009 L 815.924,106.034 L 815.475,105.991 L 815.42,106.015 L 815.358,106.079 L 815.382,106.134 L 815.642,106.179 L 815.896,106.382 L 816.109,106.435 L 816.118,106.506 L 816.017,106.639 L 816.192,106.882 L 816.194,107.065 L 816.219,107.204 L 816.237,107.418 L 816.065,107.593 L 815.91,107.8 L 815.848,107.988 L 815.685,108.148 L 815.68,108.517 L 815.798,108.486 L 815.913,108.147 L 816.006,107.996 L 816.428,107.629 L 816.49,107.525 L 816.55,107.266 L 816.579,107.029 L 816.648,106.751 L 816.902,106.151 L 817.386,105.752 L 817.449,105.657 L 817.523,105.193 L 817.654,104.9 L 817.771,104.797 L 817.92,104.762 L 818.228,104.815 L 818.283,104.847 L 818.332,105.02 L 818.395,105.049 L 818.521,104.993 L 818.638,104.834 L 818.724,104.834 L 818.78,104.914 L 818.773,105.038 L 818.468,105.193 L 818.39,105.285 L 818.258,105.556 L 818.371,105.838 L 818.584,105.853 L 818.702,105.797 L 818.881,105.612 L 818.896,105.524 L 818.871,105.423 L 818.965,105.336 L 819.026,105.077 L 819.096,105.075 L 819.208,105.239 L 819.453,105.34 L 819.602,105.283 L 819.681,105.275 L 819.698,105.367 L 819.667,105.449 L 819.739,105.62 L 819.837,105.95 L 819.965,106.154 L 819.975,106.352 L 820.054,106.359 L 820.501,106.234 L 821.091,106.136 L 821.272,106.134 L 821.289,106.205 L 821.148,106.379 L 821.141,106.457 L 821.229,106.607 L 821.248,106.851 L 821.311,106.89 L 821.413,106.85 L 821.442,106.628 L 821.834,106.459 L 821.835,106.555 L 821.97,106.631 L 821.947,106.694 L 821.509,106.989 L 821.501,107.052 L 821.564,107.068 L 821.738,107.051 L 821.755,107.193 L 821.841,107.222 L 821.904,107.158 L 821.926,106.986 L 822.012,106.931 L 822.162,106.952 L 822.232,106.918 L 822.302,106.823 L 822.333,106.698 L 822.323,106.494 L 822.322,106.422 L 822.409,106.414 L 822.472,106.461 L 822.63,106.491 L 822.639,106.568 L 822.467,106.784 L 822.445,106.878 L 822.54,106.956 L 822.706,106.985 L 822.707,107.143 L 822.605,107.214 L 822.306,107.233 L 822.166,107.345 L 822.143,107.417 L 822.199,107.503 L 822.411,107.509 L 822.475,107.603 L 822.279,107.699 L 822.202,107.841 L 822.187,107.953 L 822.259,108.007 L 822.345,108.013 L 822.51,107.94 L 822.635,107.831 L 822.753,107.806 L 822.824,107.866 L 822.841,107.937 L 822.692,108.09 L 822.662,108.159 L 822.686,108.255 L 822.947,108.417 L 823.144,108.384 L 823.216,108.462 L 823.365,108.452 L 823.919,108.786 L 824.253,109.052 L 824.261,109.129 L 823.721,109.449 L 823.534,109.632 L 823.464,109.752 L 823.372,110.021 L 823.366,110.161 L 823.438,110.302 L 823.754,110.435 L 823.818,110.495 L 823.834,110.576 L 823.756,110.662 L 823.458,110.776 L 823.404,110.871 L 823.42,110.941 L 823.539,111.012 L 823.612,111.193 L 823.589,111.278 L 823.386,111.461 L 823.237,111.487 L 823.031,111.409 L 822.866,111.436 L 822.545,111.619 L 822.396,111.732 L 822.234,111.994 L 822.103,112.38 L 822.098,112.647 L 822.075,112.728 L 821.788,113.124 L 821.522,113.408 L 821.423,113.638 L 821.436,114.27 L 821.415,114.475 L 821.37,114.75 L 821.495,114.672 L 821.634,114.395 L 821.72,114.299 L 821.763,113.863 L 821.888,113.683 L 822.037,113.657 L 822.077,113.721 L 822.094,113.86 L 822.285,114.102 L 822.336,114.458 L 822.384,114.559 L 822.394,114.726 L 822.185,115.129 L 821.967,115.39 L 821.754,115.44 L 821.604,115.364 L 821.439,115.371 L 821.384,115.435 L 821.388,115.823 L 821.453,115.985 L 821.644,116.182 L 821.652,116.293 L 821.606,116.409 L 821.435,116.569 L 821.319,116.784 L 821.084,116.958 L 820.96,117.163 L 820.826,117.183 L 820.699,117.097 L 820.438,116.965 L 820.305,116.975 L 820.109,117.102 L 819.969,117.27 L 819.907,117.396 L 819.182,118.215 L 818.944,118.808 L 818.71,119.045 L 818.57,119.275 L 818.488,119.662 L 818.262,119.964 L 818.257,120.209 L 818.147,120.318 L 817.85,120.503 L 817.645,120.538 L 817.487,120.468 L 817.26,120.555 L 817.117,120.416 L 816.991,120.408 L 816.92,120.466 L 816.734,120.726 L 816.609,120.807 L 816.389,120.894 L 816.129,120.914 L 815.926,121.016 L 815.871,121.074 L 815.753,121.121 L 815.557,121.154 L 815.423,121.211 L 815.361,121.275 L 815.331,121.378 L 815.342,121.741 L 815.272,121.867 L 815.1,121.94 L 814.808,121.958 L 814.699,122.024 L 814.495,122.089 L 813.981,121.933 L 813.861,121.738 L 813.771,121.266 L 813.791,120.921 L 813.889,120.737 L 813.36,118.847 L 812.318,118.191 L 809.09,116.599 L 807.409,115.966 L 806.025,112.686 L 805.076,110.365 L 802.997,105.657 L 803.992,103.922 L 804.976,102.248 L 807.449,97.9244 L 807.545,97.7081 L 807.673,97.8301 L 807.87,97.8896 L 807.95,97.9833 L 807.974,98.0726 L 808.196,98.2584 L 808.213,98.3603 L 808.074,98.6219 L 808.115,98.8253 L 808.171,98.9758 L 808.346,99.1164 L 808.394,99.2235 L 808.49,99.3417 L 808.632,99.3157 L 808.63,99.1918 L 808.464,99.0911 L 808.385,99.0128 L 808.383,98.895 L 808.43,98.8315 L 808.563,98.781 L 808.61,98.7269 L 808.609,98.6556 L 808.53,98.6239 L 808.444,98.6171 L 808.396,98.5782 L 808.403,98.4848 L 808.481,98.3895 L 808.48,98.2934 L 808.329,98.1923 L 808.249,98.0056 L 808.098,97.8952 L 808.066,97.834 L 808.073,97.7408 L 808.152,97.7478 L 808.287,97.8243 L 808.467,97.8067 L 808.538,97.7269 L 808.568,97.6486 L 808.558,97.4503 L 808.613,97.371 L 808.723,97.3772 L 808.992,97.5026 L 809.134,97.4859 L 809.18,97.4288 L 809.18,97.3666 L 808.967,97.3048 L 808.988,97.0528 L 808.94,96.9829 L 808.83,97.0141 L 808.76,97.1094 L 808.564,97.1834 L 808.432,97.3424 L 808.33,97.3982 L 808.398,97.1758 L 808.191,96.8872 L 808.189,96.7136 L 808.11,96.598 L 808.115,96.4243 L 808.499,95.5602 L 808.706,95.5908 L 808.982,95.5796 L 809.045,95.6024 L 809.141,95.7113 L 809.275,95.757 L 809.276,95.8531 L 809.126,95.8234 L 809.016,95.8389 L 808.907,96.0222 L 808.908,96.1246 L 808.948,96.1885 L 809.194,96.358 L 809.311,96.2149 L 809.341,96.1116 L 809.419,96.0566 L 809.82,95.9424 L 809.811,95.862 L 809.708,95.7688 L 809.778,95.652 L 810.211,95.664 L 810.244,95.8678 L 810.372,96.0624 L 810.445,96.2993 L 810.588,96.3849 L 810.706,96.397 L 810.745,96.2966 L 810.726,96.0272 L 810.748,95.856 L 810.841,95.6888 L 811.062,95.6791 L 811.091,95.4953 L 811.162,95.456 L 811.524,95.4451 L 811.611,95.5139 L 811.682,95.4903 L 811.712,95.3187 L 811.774,95.2454 L 811.9,95.2356 L 812.058,95.2743 L 812.097,95.3227 L 812.13,95.4302 L 812.266,95.597 L 812.431,95.6323 L 812.473,95.8606 L 812.6,96.0088 L 812.602,96.229 L 812.643,96.3706 L 812.863,96.3237 L 812.847,96.2529 L 812.751,96.1967 L 812.774,96.1031 L 812.916,96.102 L 813.208,96.1864 L 813.263,96.1692 L 813.238,96.0272 L 812.993,95.9507 L 812.867,95.8583 L 812.881,95.6997 L 812.714,95.5433 L 812.578,95.3489 L 812.491,95.277 L 812.49,95.1683 L 812.536,95.08 L 812.532,94.6491 L 812.437,94.5557 L 812.444,94.4749 L 812.568,94.2849 L 812.615,94.2061 L 812.708,94.1412 L 812.866,94.1863 L 813.016,94.1631 L 813.047,94.1001 L 813.164,94.013 L 812.887,93.8659 L 812.925,93.778 L 813.019,93.7069 L 813.13,93.7129 L 813.2,93.6893 L 813.199,93.6085 L 813.009,93.4311 L 813.016,93.3441 L 813.189,93.3017 L 813.061,93.1938 L 813.03,93.1297 L 813.099,92.9476 L 813.288,93.0414 L 813.599,93.4323 L 813.595,93.8264 L 813.565,93.9049 L 813.558,94.0943 L 813.616,94.3223 L 813.734,94.3589 L 813.733,94.2411 L 813.685,94.1495 L 813.691,93.9818 L 813.854,93.7288 L 813.859,93.4307 L 813.898,93.3738 L 814.111,93.3955 L 814.128,93.5996 L 814.06,93.8282 L 814.1,93.9076 L 814.426,94.2268 L 814.898,94.1509 L 814.668,94.0273 L 814.4,93.967 L 814.313,93.9231 L 814.287,93.7501 L 814.381,93.6233 L 814.411,93.5355 L 814.354,93.3292 L 814.283,93.2289 L 814.179,93.1421 L 813.982,93.0673 L 813.706,93.0228 L 813.642,92.9842 L 813.594,92.8802 L 813.412,92.7181 L 813.317,92.7179 L 813.01,92.7518 L 812.869,92.849 L 812.815,92.9748 L 812.849,93.1785 L 812.852,93.47 L 812.822,93.6136 L 812.752,93.7398 L 812.595,93.853 L 812.431,93.9074 L 812.296,93.8216 L 812.192,93.6416 L 811.92,92.3838 L 811.916,92.0241 L 812.039,91.6917 L 812.274,91.4984 L 812.351,91.3876 L 812.332,91.05 L 812.323,90.8612 L 812.416,90.6938 L 812.518,90.6537 L 812.714,90.62 L 812.998,90.6889 L 813.189,90.8354 L 813.901,91.2331 L 814.407,91.4632 L 814.63,91.7204 L 814.773,91.8153 L 815.192,92.0076 L 816,92.4491 L 816.98,92.8574 L 818.109,93.1282 L 818.905,93.2721 L 819.276,93.3943 L 819.425,93.3281 L 819.439,93.132 L 819.517,93.0615 L 819.769,93.0664 L 819.873,93.2215 L 819.89,93.3081 L 819.962,93.4423 L 820.136,93.4962 L 820.082,93.6994 L 820.076,93.8173 L 820.14,93.9117 L 820.188,94.0529 L 820.252,94.1162 L 820.536,94.1853 L 820.811,94.1028 L 820.946,94.2353 L 820.972,94.4889 L 821.028,94.5958 L 821.045,94.7534 L 821.117,94.8476 L 821.369,94.8059 L 821.694,95.0942 L 821.892,95.1627 L 822.051,95.3194"
       id="path15111"
       style="fill-rule:evenodd" />
    <path
       name="gloucester" d="M 823.263,96.8905 L 823.192,96.8831 L 823.12,96.7427 L 823.119,96.6249 L 823.063,96.5955 L 822.945,96.5959 L 822.897,96.5569 L 822.913,96.4944 L 823.061,96.304 L 823.13,96.1591 L 823.223,96.0477 L 823.349,95.9697 L 823.338,95.6628 L 823.423,95.5269 L 823.588,95.4848 L 823.704,95.2735 L 823.813,95.1927 L 823.916,95.2082 L 823.925,95.2948 L 823.746,95.5391 L 823.739,95.6015 L 823.685,95.6898 L 823.519,95.7163 L 823.512,95.7787 L 823.576,95.8635 L 823.626,96.1537 L 823.674,96.2486 L 823.675,96.3663 L 823.519,96.5044 L 823.465,96.6519 L 823.263,96.8905"
       id="path15139"
       style="fill-rule:evenodd" />
    <path
       name="gloucester" d="M 822.198,96.6799 L 822.215,96.8066 L 822.108,97.1946 L 821.906,97.4704 L 821.679,97.6012 L 821.57,97.71 L 821.484,97.7528 L 821.373,97.7127 L 821.309,97.5967 L 821.197,97.4944 L 821.141,97.3846 L 821.148,97.2974 L 821.137,96.9194 L 821.199,96.8089 L 821.293,96.7441 L 821.427,96.7278 L 821.56,96.64 L 821.74,96.6067 L 821.906,96.6608 L 822.198,96.6799"
       id="path15143"
       style="fill-rule:evenodd" />
    <path
       name="gloucester" d="M 819.58,97.9365 L 819.508,97.9045 L 819.561,97.6207 L 819.607,97.5479 L 819.613,97.312 L 819.555,97.053 L 819.594,96.9434 L 819.68,96.8787 L 819.806,96.8688 L 819.972,96.9786 L 820.074,96.929 L 820.128,96.8035 L 820.23,96.8097 L 820.278,96.858 L 820.404,96.8479 L 820.507,96.9008 L 820.618,97.0278 L 820.697,97.0658 L 820.682,97.1377 L 820.581,97.2399 L 820.582,97.3577 L 820.676,97.3488 L 820.684,97.2709 L 820.832,97.1518 L 820.911,97.1495 L 820.966,97.1975 L 820.952,97.3931 L 820.977,97.4793 L 821.05,97.7253 L 821.177,97.8179 L 821.178,97.9109 L 820.934,97.8901 L 820.658,97.8859 L 820.46,97.7522 L 819.784,97.8716 L 819.58,97.9365"
       id="path15147"
       style="fill-rule:evenodd" />
    <path
       name="gloucester" d="M 807.793,97.1498 L 808.044,97.1896 L 808.108,97.2341 L 808.117,97.3517 L 807.96,97.4402 L 807.866,97.5359 L 807.788,97.5694 L 807.628,97.52 L 807.793,97.1498"
       id="path15149"
       style="fill-rule:evenodd" />
    <path
       name="gloucester" d="M 819.157,98.9884 L 819.322,98.971 L 819.321,98.8997 L 819.242,98.8431 L 819.288,98.7579 L 819.287,98.6618 L 819.248,98.6072 L 819.254,98.5138 L 819.426,98.332 L 819.692,98.2032 L 819.873,98.176 L 820.48,98.2014 L 820.543,98.2243 L 820.544,98.3267 L 820.388,98.4401 L 820.404,98.5015 L 820.515,98.5416 L 820.735,98.563 L 820.781,98.3569 L 820.843,98.2868 L 821.229,98.2816 L 821.293,98.4317 L 821.154,98.6934 L 821.085,98.9063 L 820.865,98.916 L 820.803,99.0109 L 820.701,99.0573 L 820.637,99.0283 L 820.567,99.0428 L 820.591,99.1319 L 820.741,99.1523 L 820.945,99.0812 L 820.93,99.1745 L 820.844,99.2547 L 820.83,99.3793 L 820.767,99.4122 L 820.672,99.3901 L 820.539,99.4066 L 820.445,99.5488 L 820.247,99.4244 L 820.114,99.4502 L 820.194,99.5594 L 820.211,99.7328 L 820.298,99.8261 L 820.37,99.849 L 820.541,99.6824 L 820.643,99.6485 L 820.615,99.9813 L 820.387,99.9912 L 820.387,100.053 L 820.538,100.204 L 820.556,100.368 L 820.487,100.581 L 820.206,100.874 L 820.025,100.902 L 819.859,100.838 L 819.766,100.95 L 819.593,100.998 L 819.579,101.141 L 819.484,101.094 L 819.46,101.039 L 819.253,100.893 L 819.181,100.759 L 818.962,100.911 L 819.019,101.114 L 819.021,101.263 L 818.966,101.311 L 818.826,101.465 L 818.755,101.448 L 818.596,101.341 L 818.447,101.327 L 818.312,101.241 L 818.263,101.115 L 818.286,100.972 L 818.465,100.805 L 818.487,100.665 L 818.44,100.632 L 818.291,100.674 L 818.149,100.634 L 818.148,100.532 L 818.162,100.374 L 818.142,99.8716 L 818.085,99.7769 L 818.169,99.4612 L 818.231,99.3973 L 818.302,99.3982 L 818.358,99.4432 L 818.413,99.4259 L 818.498,99.284 L 818.664,99.3068 L 818.727,99.3764 L 818.924,99.3675 L 819.059,99.5062 L 819.138,99.4821 L 819.065,99.3353 L 818.915,99.2251 L 818.914,99.1321 L 819.102,99.0984 L 819.157,98.9884"
       id="path15157"
       style="fill-rule:evenodd" />
    <path
       name="gloucester" d="M 818.573,98.9125 L 818.634,98.6626 L 818.639,98.4174 L 818.686,98.3538 L 818.788,98.329 L 818.867,98.3982 L 818.846,98.6345 L 818.683,98.8877 L 818.573,98.9125"
       id="path15161"
       style="fill-rule:evenodd" />
    <path
       name="gloucester" d="M 817.743,99.3558 L 817.733,99.1887 L 817.827,99.0928 L 817.96,99.061 L 818.016,99.0843 L 818.048,99.1391 L 818.033,99.2172 L 817.837,99.3314 L 817.743,99.3558"
       id="path15167"
       style="fill-rule:evenodd" />
    <path
       name="gloucester" d="M 817.873,99.7802 L 817.77,99.7802 L 817.753,99.6164 L 817.784,99.5594 L 817.957,99.5327 L 817.873,99.7802"
       id="path15169"
       style="fill-rule:evenodd" />
    <path
       name="gloucester" d="M 817.908,100.164 L 817.852,100.11 L 817.844,100.017 L 817.906,99.9685 L 817.978,100.047 L 817.979,100.149 L 817.908,100.164"
       id="path15171"
       style="fill-rule:evenodd" />
    <path
       name="gloucester" d="M 837.02,105.691 L 836.949,105.653 L 836.908,105.567 L 836.906,105.403 L 836.968,105.283 L 837.139,105.092 L 837.202,105.059 L 837.383,105.035 L 837.51,105.128 L 837.511,105.23 L 837.394,105.348 L 837.303,105.602 L 837.201,105.658 L 837.02,105.691"
       id="path15193"
       style="fill-rule:evenodd" />
    <path
       name="gloucester" d="M 826.288,111.915 L 826.225,111.876 L 826.232,111.774 L 826.341,111.631 L 826.443,111.575 L 826.543,111.392 L 826.756,111.398 L 826.828,111.524 L 826.923,111.626 L 826.917,111.744 L 826.65,111.879 L 826.477,111.835 L 826.288,111.915"
       id="path15209"
       style="fill-rule:evenodd" />
    <path
       name="gloucester" d="M 819.305,119.496 L 819.272,119.369 L 819.357,119.156 L 819.42,119.111 L 819.483,119.118 L 819.554,119.172 L 819.68,119.156 L 819.719,119.217 L 819.697,119.289 L 819.564,119.423 L 819.423,119.495 L 819.305,119.496"
       id="path15221"
       style="fill-rule:evenodd" />
   </g>
</svg>