<svg
   xmlns:svg="http://www.w3.org/2000/svg"
   xmlns="http://www.w3.org/2000/svg"
   version="1.0"
   width="2100"
   height="1300"
   viewBox="0 0 2100 1300"
   id="svg14921">
   <g
     transform="matrix(2.2640019,0,0,2.2640019,-216.71416,-21.6991)"
     id="g14955"
     style="font-size:16.25px;font-style:normal;font-weight:400;fill:#fefee9;fill-opacity:1;fill-rule:evenodd;stroke:#000000;stroke-width:0.0984252;stroke-linecap:square;stroke-linejoin:bevel;stroke-opacity:1;font-family:Lucida Grande">
    <path
       name="gosnold" d="M 819.548,486.65 L 819.232,486.56 L 819.01,486.396 L 818.781,486.39 L 818.62,485.936 L 818.616,485.564 L 818.567,485.366 L 818.39,484.922 L 818.396,484.788 L 818.435,484.685 L 818.528,484.574 L 818.928,484.379 L 819.045,484.286 L 819.161,484.078 L 819.232,484.069 L 819.351,484.212 L 819.478,484.264 L 819.62,484.278 L 819.934,484.244 L 820.193,484.141 L 820.436,483.979 L 820.538,483.948 L 820.773,483.789 L 821.126,483.704 L 821.26,483.713 L 821.379,483.765 L 821.466,483.843 L 821.491,483.963 L 821.445,484.079 L 821.298,484.319 L 821.282,484.382 L 820.761,484.992 L 820.674,485.041 L 820.486,485.075 L 820.431,485.104 L 820.392,485.171 L 820.357,485.643 L 820.287,485.707 L 820.211,485.988 L 820.156,486.052 L 819.599,486.223 L 819.664,486.466 L 819.634,486.594 L 819.548,486.65"
       id="path16113"
       style="fill-rule:evenodd" />
    <path
       name="gosnold" d="M 812.14,485.225 L 812.077,485.211 L 812.021,485.123 L 812.036,485.005 L 812.154,485.014 L 812.194,485.068 L 812.195,485.192 L 812.14,485.225"
       id="path16119"
       style="fill-rule:evenodd" />
    <path
       name="gosnold" d="M 827.324,486.221 L 827.435,486.37 L 827.533,486.668 L 827.503,486.808 L 827.226,487.49 L 827.109,487.623 L 827.023,487.672 L 826.763,487.723 L 826.575,487.834 L 826.404,488.01 L 826.202,488.319 L 826.062,488.454 L 825.873,488.559 L 825.654,488.624 L 825.481,488.632 L 825.214,488.689 L 824.93,488.701 L 824.656,488.861 L 824.228,489.37 L 824.149,489.415 L 823.937,489.459 L 823.85,489.452 L 823.763,489.38 L 823.558,489.29 L 823.555,489.051 L 823.515,488.928 L 823.427,488.825 L 823.408,488.479 L 823.36,488.393 L 823.257,488.337 L 823.186,488.33 L 823.029,488.396 L 822.803,488.602 L 822.552,488.724 L 822.459,488.875 L 822.388,488.905 L 822.024,488.711 L 821.793,488.417 L 821.706,488.339 L 821.57,488.151 L 821.569,488.008 L 821.6,487.945 L 821.59,487.756 L 821.518,487.637 L 821.343,487.459 L 821.066,487.353 L 820.995,487.29 L 821.009,487.069 L 821.272,486.609 L 821.325,486.443 L 821.498,486.363 L 821.82,486.304 L 822.388,486.362 L 822.414,486.616 L 822.565,486.754 L 822.715,486.824 L 822.943,486.82 L 823.249,486.685 L 823.509,486.652 L 823.674,486.601 L 823.895,486.734 L 824.266,486.816 L 824.463,486.817 L 824.588,486.704 L 824.767,486.451 L 824.9,486.379 L 825.372,486.309 L 825.474,486.269 L 825.709,486.12 L 825.997,485.807 L 826.326,485.578 L 826.435,485.528 L 826.648,485.519 L 826.97,485.422 L 827.002,485.483 L 826.927,485.855 L 826.931,486.28 L 826.987,486.405 L 827.098,486.507 L 827.161,486.515 L 827.224,486.472 L 827.215,486.349 L 827.135,486.23 L 827.205,486.197 L 827.324,486.221"
       id="path16121"
       style="fill-rule:evenodd" />
    <path
       name="gosnold" d="M 818.889,491.057 L 818.893,491.361 L 818.926,491.488 L 818.981,491.548 L 819.234,491.625 L 819.29,491.735 L 819.339,491.941 L 819.411,492.032 L 819.797,492.086 L 819.869,492.161 L 819.878,492.273 L 819.816,492.352 L 819.51,492.544 L 819.331,492.726 L 819.168,492.957 L 818.942,493.211 L 818.873,493.424 L 818.655,493.648 L 818.508,493.909 L 818.195,494.098 L 818.031,494.267 L 817.717,494.342 L 817.277,494.494 L 817.066,494.677 L 816.903,494.908 L 816.433,495.108 L 816.009,495.201 L 815.576,495.204 L 815.244,495.111 L 814.464,495.112 L 814.158,495.202 L 813.657,495.458 L 813.288,495.602 L 812.573,495.76 L 812.37,495.855 L 811.941,496.373 L 811.629,496.596 L 811.285,496.938 L 810.99,497.303 L 810.295,497.891 L 809.843,498.4 L 809.562,498.653 L 809.366,498.789 L 809.146,498.848 L 808.831,498.836 L 808.672,498.608 L 808.467,498.57 L 808.309,498.525 L 807.978,498.541 L 807.743,498.616 L 807.382,498.8 L 807.011,498.675 L 806.94,498.599 L 806.875,498.403 L 806.812,498.371 L 806.185,498.73 L 805.911,498.992 L 805.677,499.268 L 805.531,499.648 L 805.488,500.232 L 805.507,500.57 L 805.555,500.736 L 805.667,500.838 L 805.785,500.89 L 805.889,501.135 L 806.04,501.267 L 806.372,501.413 L 806.467,501.491 L 806.555,501.671 L 806.605,502.057 L 806.742,502.404 L 806.729,502.748 L 806.691,502.914 L 806.521,503.247 L 806.381,503.475 L 806.249,503.77 L 805.72,504.499 L 805.572,504.655 L 805.336,504.792 L 804.51,504.766 L 804.336,504.793 L 804.203,504.887 L 803.96,505.015 L 803.843,505.111 L 803.75,505.229 L 803.611,505.608 L 803.541,505.697 L 803.407,505.744 L 802.895,505.74 L 802.574,505.836 L 802.188,505.811 L 801.818,505.837 L 801.488,505.995 L 801.316,506.177 L 801.232,506.384 L 801.013,506.608 L 800.81,506.852 L 800.17,507.51 L 799.595,508.413 L 799.242,508.597 L 799.062,508.779 L 798.899,509.01 L 798.398,509.4 L 798.211,509.638 L 797.999,509.75 L 796.707,509.632 L 795.889,509.758 L 795.677,509.758 L 795.472,509.721 L 795.211,509.598 L 795.052,509.466 L 794.567,508.854 L 794.361,508.668 L 794.226,508.591 L 794.045,508.522 L 793.973,508.443 L 793.988,508.371 L 794.223,508.126 L 794.285,508 L 794.283,507.826 L 794.109,507.679 L 794.065,507.144 L 794.025,507.055 L 793.938,506.987 L 793.693,506.901 L 793.629,506.8 L 793.619,506.571 L 793.689,506.374 L 793.687,506.123 L 793.568,505.999 L 793.527,505.864 L 793.533,505.628 L 793.611,505.502 L 793.712,505.399 L 793.869,505.342 L 794.255,505.3 L 794.694,505.098 L 794.827,504.939 L 794.873,504.773 L 794.886,504.466 L 794.711,504.31 L 794.687,504.239 L 794.693,503.941 L 794.669,503.886 L 794.62,503.785 L 794.595,503.628 L 794.672,503.35 L 794.866,503.012 L 794.88,502.751 L 794.974,502.656 L 795.358,502.551 L 795.523,502.438 L 795.694,502.201 L 795.803,502.104 L 796.118,502.064 L 796.283,501.991 L 796.394,502.063 L 796.535,502.061 L 796.842,502.003 L 797.015,502.016 L 797.181,501.984 L 797.494,501.801 L 797.783,501.538 L 798.031,501.057 L 798.053,500.898 L 798.256,500.638 L 798.301,500.407 L 798.566,500.012 L 798.721,499.672 L 798.743,499.569 L 798.724,499.12 L 798.747,499.067 L 799.069,498.921 L 799.217,498.786 L 799.351,498.786 L 799.951,499.01 L 800.282,499.047 L 800.425,499.164 L 800.638,499.223 L 801.236,499.196 L 801.48,499.155 L 801.794,499.003 L 802.107,498.74 L 802.55,498.147 L 802.674,497.902 L 802.851,497.357 L 802.904,497.095 L 802.864,496.969 L 802.76,496.829 L 802.767,496.711 L 802.955,496.638 L 803.026,496.552 L 803.071,496.37 L 803.165,496.284 L 803.448,496.257 L 803.597,496.144 L 803.628,496.066 L 803.611,495.939 L 803.428,495.731 L 803.435,495.619 L 803.568,495.506 L 803.804,495.419 L 804.198,495.454 L 805.268,495.33 L 805.511,495.224 L 805.939,494.668 L 806.19,494.472 L 806.26,494.445 L 806.347,494.446 L 806.552,494.555 L 806.569,494.65 L 806.648,494.735 L 806.861,494.732 L 806.947,494.686 L 807.033,494.59 L 807.016,494.479 L 806.976,494.424 L 806.976,494.353 L 807.241,494.045 L 807.279,493.864 L 807.536,493.562 L 807.997,493.04 L 808.057,492.725 L 808.174,492.572 L 808.274,492.337 L 808.407,492.147 L 808.544,492.077 L 808.627,492.118 L 808.751,492.077 L 808.834,492.035 L 808.875,491.87 L 808.875,491.498 L 808.958,491.415 L 809.206,491.333 L 809.247,491.291 L 809.288,491.209 L 809.33,491.167 L 809.338,491.109 L 809.407,491.008 L 809.54,490.849 L 809.736,490.719 L 809.94,490.663 L 810.231,490.692 L 810.497,490.452 L 810.779,490.285 L 810.95,490.119 L 811.02,489.984 L 811.145,489.85 L 811.317,489.721 L 811.71,489.647 L 811.796,489.654 L 811.978,489.745 L 812.145,489.926 L 812.178,490.028 L 812.321,490.144 L 813.022,490.17 L 813.446,490.025 L 813.673,489.981 L 813.924,489.853 L 814.182,489.622 L 814.298,489.426 L 814.375,489.21 L 814.914,488.717 L 815.1,488.479 L 815.161,488.229 L 815.34,487.966 L 815.857,487.7 L 815.966,487.598 L 816.012,487.494 L 816.051,487.369 L 816.024,487.062 L 816.124,486.87 L 816.272,486.634 L 816.356,486.374 L 816.418,486.238 L 816.621,486.081 L 817.068,485.863 L 817.311,485.791 L 817.508,485.828 L 817.911,485.966 L 818.187,485.97 L 818.18,486.088 L 818.126,486.176 L 817.914,486.232 L 817.82,486.337 L 817.806,486.462 L 817.666,486.652 L 817.918,486.672 L 817.942,486.752 L 817.92,486.886 L 817.975,486.925 L 818.07,486.931 L 818.149,486.892 L 818.321,486.859 L 818.486,486.786 L 818.683,486.737 L 818.769,486.784 L 818.864,486.79 L 818.95,486.695 L 819.012,486.641 L 819.091,486.638 L 819.234,486.795 L 819.495,486.918 L 819.496,486.98 L 819.41,487.106 L 819.198,487.15 L 819.144,487.22 L 819.155,487.576 L 819.227,487.723 L 819.197,487.841 L 819.026,488.104 L 819.012,488.228 L 819.091,488.269 L 819.334,488.234 L 819.593,488.121 L 819.679,488.041 L 819.67,487.908 L 819.982,487.589 L 819.973,487.472 L 819.995,487.316 L 820.09,487.313 L 820.177,487.447 L 820.21,487.604 L 820.321,487.657 L 820.642,487.489 L 820.652,487.656 L 820.835,487.881 L 820.86,487.967 L 820.837,488.023 L 820.634,488.221 L 820.596,488.365 L 820.463,488.53 L 820.361,488.549 L 820.147,488.338 L 819.87,488.253 L 819.494,488.484 L 819.314,488.567 L 819.315,488.644 L 819.577,488.848 L 819.901,488.978 L 820.02,489.095 L 820.053,489.197 L 820.062,489.392 L 819.949,489.922 L 819.887,490.048 L 819.809,490.072 L 819.784,489.961 L 819.689,489.908 L 819.587,489.957 L 819.517,490.037 L 819.376,490.131 L 819.109,490.136 L 818.952,490.205 L 818.59,490.235 L 818.488,490.275 L 818.418,490.401 L 818.419,490.503 L 818.459,490.567 L 818.776,490.79 L 818.889,491.057"
       id="path16125"
       style="fill-rule:evenodd" />
    <path
       name="gosnold" d="M 810.881,487.811 L 810.644,487.666 L 810.588,487.571 L 810.585,487.32 L 810.638,487.089 L 810.747,486.977 L 810.786,486.883 L 810.799,486.678 L 810.93,486.34 L 811.04,486.315 L 811.042,486.488 L 810.973,486.692 L 810.975,486.921 L 811.016,487.103 L 811.121,487.354 L 811.114,487.478 L 810.976,487.796 L 810.881,487.811"
       id="path16129"
       style="fill-rule:evenodd" />
    <path
       name="gosnold" d="M 820.558,486.853 L 820.124,486.794 L 819.871,486.647 L 819.87,486.553 L 819.924,486.496 L 820.097,486.448 L 820.435,486.428 L 820.554,486.459 L 820.649,486.528 L 820.737,486.686 L 820.738,486.789 L 820.668,486.828 L 820.558,486.853"
       id="path16131"
       style="fill-rule:evenodd" />
    <path
       name="gosnold" d="M 820.949,489.102 L 820.807,489.072 L 820.743,488.969 L 820.765,488.748 L 820.803,488.607 L 820.943,488.417 L 820.981,488.313 L 821.121,488.154 L 821.135,487.965 L 821.261,487.908 L 821.324,487.931 L 821.356,487.98 L 821.365,488.098 L 821.421,488.183 L 821.478,488.364 L 821.574,488.616 L 821.569,488.858 L 821.491,488.978 L 821.295,489.027 L 821.178,489.089 L 820.949,489.102"
       id="path16137"
       style="fill-rule:evenodd" />
    <path
       name="gosnold" d="M 820.344,489.231 L 820.178,489.109 L 820.145,488.974 L 820.348,488.837 L 820.481,488.703 L 820.544,488.68 L 820.594,489.035 L 820.532,489.167 L 820.462,489.231 L 820.344,489.231"
       id="path16139"
       style="fill-rule:evenodd" />
    <path
       name="gosnold" d="M 821.561,489.686 L 821.558,489.395 L 821.604,489.26 L 821.667,489.205 L 821.832,489.188 L 821.825,489.266 L 821.723,489.352 L 821.741,489.572 L 821.624,489.669 L 821.561,489.686"
       id="path16141"
       style="fill-rule:evenodd" />
    <path
       name="gosnold" d="M 819.906,490.385 L 819.905,490.292 L 820.093,490.095 L 820.209,489.896 L 820.222,489.629 L 820.276,489.516 L 820.354,489.436 L 820.417,489.437 L 820.615,489.506 L 820.804,489.497 L 820.843,489.543 L 820.836,489.62 L 820.657,489.796 L 820.61,489.924 L 820.564,489.994 L 820.242,490.131 L 819.977,490.371 L 819.906,490.385"
       id="path16143"
       style="fill-rule:evenodd" />
    <path
       name="gosnold" d="M 790.101,505.743 L 790.283,505.803 L 790.774,506.124 L 791.021,506.529 L 791.314,506.747 L 791.567,506.826 L 791.654,506.92 L 791.71,507.061 L 791.947,507.184 L 792.003,507.248 L 792.044,507.389 L 792.107,507.465 L 792.383,507.509 L 792.439,507.557 L 792.479,507.699 L 792.558,507.777 L 792.583,507.904 L 792.561,508.1 L 792.633,508.209 L 792.752,508.265 L 792.736,508.367 L 792.401,508.74 L 792.355,508.865 L 792.473,508.942 L 792.765,508.987 L 792.869,509.151 L 792.877,509.232 L 792.634,509.297 L 792.493,509.376 L 792.224,509.306 L 792.099,509.356 L 792.124,509.505 L 792.25,509.582 L 792.37,509.745 L 792.402,509.872 L 792.364,509.969 L 792.118,509.781 L 792.054,509.662 L 791.904,509.585 L 791.668,509.626 L 791.559,509.723 L 791.52,509.786 L 791.528,509.848 L 791.86,509.971 L 791.971,510.049 L 792.144,510.031 L 792.381,510.108 L 792.436,510.147 L 792.632,510.091 L 792.798,510.099 L 792.782,510.034 L 792.551,509.808 L 792.527,509.747 L 792.769,509.508 L 792.989,509.356 L 793.035,509.292 L 793.025,509.026 L 792.993,508.946 L 792.858,508.813 L 792.669,508.76 L 792.793,508.515 L 793.321,508.651 L 793.425,508.785 L 793.388,509.062 L 793.326,509.197 L 793.281,509.434 L 793.109,509.622 L 793.063,509.75 L 793.119,509.953 L 793.358,510.179 L 793.39,510.274 L 793.361,510.557 L 793.329,510.62 L 793.212,510.726 L 793.079,510.773 L 792.685,510.769 L 791.925,510.27 L 791.506,510.099 L 791.278,510.038 L 790.955,510.072 L 790.562,510.195 L 790.043,510.269 L 789.382,510.297 L 789.171,510.428 L 788.859,510.753 L 788.303,511.151 L 787.942,511.366 L 787.511,511.543 L 787.377,511.568 L 786.202,511.379 L 786.044,511.309 L 785.933,511.216 L 785.685,510.715 L 785.271,510.144 L 785.056,509.868 L 784.992,509.65 L 784.712,509.124 L 784.71,508.864 L 784.864,508.515 L 785.002,508.028 L 785.017,507.863 L 785,507.761 L 784.904,507.596 L 784.88,507.501 L 784.926,507.422 L 785.223,507.153 L 785.317,507.017 L 785.362,506.764 L 785.471,506.647 L 785.597,506.596 L 785.935,506.546 L 786.171,506.484 L 786.429,506.309 L 786.851,505.934 L 786.93,505.91 L 787.142,505.916 L 787.545,506.016 L 787.679,506.083 L 787.885,506.263 L 788.059,506.348 L 788.477,506.407 L 789.249,506.403 L 789.516,506.377 L 789.735,506.265 L 789.86,506.147 L 790.031,505.813 L 790.101,505.743"
       id="path16161"
       style="fill-rule:evenodd" />
    <path
       name="gosnold" d="M 763.856,510.297 L 763.784,510.219 L 763.513,509.718 L 763.386,509.56 L 763.282,509.34 L 763.053,509.192 L 762.855,508.95 L 762.774,508.732 L 762.781,508.487 L 762.913,508.312 L 763.055,508.224 L 763.242,507.971 L 763.311,507.783 L 763.35,507.602 L 763.489,507.316 L 763.584,507.269 L 764.079,507.162 L 764.221,507.211 L 764.269,507.312 L 764.342,507.61 L 764.453,507.775 L 764.587,507.87 L 764.808,507.963 L 765.47,507.934 L 765.604,508.036 L 765.739,508.255 L 765.756,508.428 L 765.702,508.482 L 765.489,508.532 L 765.356,508.62 L 765.098,508.841 L 764.987,508.82 L 764.924,508.747 L 764.9,508.639 L 764.796,508.521 L 764.779,508.252 L 764.7,508.152 L 764.565,508.088 L 764.479,508.074 L 764.282,508.114 L 764.269,508.499 L 764.222,508.556 L 764.114,508.91 L 764.061,509.172 L 764.07,509.367 L 764.094,509.438 L 764.095,509.658 L 764.049,509.808 L 764.06,510.232 L 764.029,510.289 L 763.856,510.297"
       id="path16163"
       style="fill-rule:evenodd" />
    <path
       name="gosnold" d="M 776.209,512.72 L 775.918,512.862 L 775.596,512.943 L 775.44,513.062 L 775.188,513.097 L 774.992,513.199 L 774.866,513.234 L 774.693,513.226 L 774.606,513.185 L 774.55,513.094 L 774.565,512.997 L 774.698,512.839 L 774.894,512.774 L 775.422,512.734 L 775.862,512.628 L 776.207,512.475 L 776.597,512.402 L 776.723,512.33 L 776.98,512.022 L 777.254,511.806 L 777.599,511.638 L 777.716,511.473 L 777.856,511.345 L 778.328,511.207 L 778.69,511.203 L 779.215,510.965 L 779.356,510.877 L 779.481,510.74 L 779.543,510.598 L 779.605,510.411 L 779.632,509.858 L 779.827,509.635 L 780.03,509.493 L 780.14,509.391 L 780.435,508.892 L 780.567,508.708 L 780.677,508.637 L 780.834,508.645 L 781.135,508.884 L 781.16,509.004 L 781.051,509.162 L 781.045,509.414 L 781.302,510.033 L 781.313,510.364 L 781.099,511.17 L 781.054,511.454 L 781.057,511.879 L 781.122,512.106 L 781.289,512.325 L 782.084,513.176 L 782.62,513.362 L 782.748,513.517 L 782.813,513.865 L 782.997,514.207 L 783.022,514.358 L 783,514.563 L 782.533,515.197 L 782.081,515.728 L 781.502,516.213 L 781.236,516.466 L 780.97,516.65 L 780.634,516.967 L 780.36,517.102 L 780.029,517.168 L 779.802,517.28 L 779.575,517.463 L 779.215,517.697 L 778.203,518.151 L 777.016,518.384 L 776.255,518.403 L 775.885,518.429 L 775.743,518.399 L 775.507,518.409 L 775.185,518.53 L 774.807,518.538 L 774.54,518.595 L 774.075,518.624 L 773.508,518.588 L 772.797,518.277 L 772.466,518.193 L 772.317,518.201 L 771.255,518.43 L 770.248,518.53 L 769.658,518.557 L 769.297,518.685 L 768.926,518.671 L 768.823,518.572 L 768.76,518.447 L 768.695,518.235 L 768.631,518.022 L 768.567,517.944 L 768.362,517.857 L 768.235,517.718 L 767.904,517.569 L 767.864,517.514 L 767.903,517.42 L 768.176,517.149 L 768.207,517.024 L 768.285,516.882 L 768.344,516.4 L 768.477,516.163 L 768.523,515.991 L 768.528,515.604 L 768.567,515.463 L 768.614,515.409 L 768.935,515.232 L 769.068,515.098 L 769.106,514.97 L 769.105,514.703 L 769.143,514.609 L 769.165,514.317 L 769.235,514.216 L 769.408,514.102 L 769.542,514.111 L 769.7,514.171 L 769.929,514.351 L 770.332,514.578 L 770.639,514.631 L 771.12,514.611 L 771.632,514.701 L 772.081,514.738 L 772.199,514.716 L 772.623,514.539 L 772.78,514.538 L 772.922,514.577 L 773.113,514.788 L 773.413,514.941 L 773.665,514.918 L 773.955,514.789 L 774.01,514.719 L 774.064,514.553 L 774.181,514.435 L 774.494,514.203 L 774.604,514.091 L 774.729,514.019 L 775.128,513.536 L 775.293,513.451 L 775.497,513.408 L 775.765,513.406 L 776.212,513.201 L 776.638,512.718 L 776.621,512.606 L 776.209,512.72"
       id="path16165"
       style="fill-rule:evenodd" />
    <path
       name="gosnold" d="M 767.785,510.391 L 767.587,510.155 L 767.309,509.896 L 767.309,509.834 L 767.38,509.801 L 767.585,509.873 L 767.68,509.957 L 767.853,510.02 L 767.877,510.075 L 767.895,510.326 L 767.785,510.391"
       id="path16167"
       style="fill-rule:evenodd" />
    <path
       name="gosnold" d="M 761.783,515.871 L 762.321,515.204 L 762.431,515.117 L 762.573,515.085 L 762.943,515.13 L 763.29,515.263 L 763.48,515.387 L 763.686,515.614 L 764.084,516.257 L 764.396,516.979 L 764.714,517.38 L 764.714,517.457 L 764.612,517.519 L 764.006,517.54 L 763.919,517.477 L 763.895,517.375 L 763.918,517.282 L 763.917,517.114 L 763.885,517.053 L 763.868,516.855 L 763.898,516.653 L 763.889,516.486 L 763.865,516.384 L 763.666,516.117 L 763.304,516.152 L 762.921,516.508 L 762.763,516.503 L 762.55,516.416 L 762.361,516.465 L 762.001,516.757 L 761.726,516.824 L 761.57,517.114 L 761.43,517.329 L 761.289,517.457 L 761.093,517.472 L 761.329,517.558 L 761.519,517.674 L 761.82,517.947 L 762.089,518.088 L 762.207,518.057 L 762.229,517.923 L 762.284,517.819 L 762.585,518.133 L 762.601,518.204 L 762.689,518.328 L 762.847,518.429 L 762.949,518.42 L 763.067,518.364 L 763.254,518.144 L 763.324,518.003 L 763.558,517.732 L 763.621,517.7 L 763.747,517.699 L 764.078,517.751 L 764.818,517.755 L 765.204,517.697 L 765.48,517.751 L 766.119,517.959 L 766.781,518.033 L 767.394,517.975 L 767.473,518.013 L 767.461,518.5 L 767.43,518.572 L 767.32,518.643 L 767.218,518.668 L 766.399,518.596 L 766.201,518.524 L 766.067,518.416 L 765.718,518.063 L 765.576,518.009 L 765.411,518.01 L 765.23,518.053 L 764.489,518.009 L 764.041,518.075 L 763.876,518.132 L 763.665,518.259 L 763.508,518.394 L 763.016,519.082 L 762.83,519.493 L 762.667,519.771 L 762.644,519.936 L 762.481,520.306 L 762.349,520.537 L 761.934,520.924 L 761.754,521.034 L 761.298,521.181 L 761.165,521.315 L 761.025,521.505 L 760.844,521.585 L 760.483,521.657 L 760.208,521.808 L 760.005,521.984 L 759.549,522.128 L 759.218,522.178 L 758.96,522.328 L 758.15,522.46 L 757.592,522.693 L 757.121,522.837 L 756.995,522.837 L 756.9,522.8 L 756.805,522.707 L 756.669,522.366 L 756.526,522.141 L 756.438,521.951 L 756.444,521.747 L 756.499,521.621 L 756.675,520.949 L 756.682,520.815 L 756.737,520.73 L 756.839,520.65 L 756.972,520.627 L 757.493,520.804 L 757.958,520.791 L 758.131,520.829 L 758.132,520.966 L 757.699,520.92 L 757.337,520.924 L 757.171,520.845 L 757.076,520.845 L 757.006,520.877 L 757.006,521.011 L 756.992,521.154 L 757.167,521.428 L 757.192,521.672 L 757.137,521.72 L 756.964,521.759 L 756.901,521.808 L 756.903,522.074 L 757.061,522.206 L 757.179,522.19 L 757.359,521.946 L 757.461,521.875 L 757.594,521.819 L 757.68,521.732 L 758.192,521.674 L 758.215,521.608 L 758.206,521.382 L 758.268,521.294 L 758.644,521.063 L 758.911,520.974 L 758.989,520.863 L 759.177,520.737 L 759.184,520.579 L 759.129,520.503 L 759.128,520.376 L 759.049,520.344 L 758.908,520.407 L 758.744,520.629 L 758.423,520.867 L 758.36,520.869 L 758.359,520.773 L 758.562,520.482 L 758.678,520.221 L 758.792,519.644 L 758.958,518.567 L 759.09,518.259 L 759.544,517.867 L 759.693,517.671 L 759.833,517.481 L 759.943,517.409 L 760.131,517.354 L 760.863,517.358 L 761.037,517.325 L 761.162,517.259 L 761.272,517.147 L 761.528,516.604 L 761.605,516.391 L 761.612,516.273 L 761.783,515.871"
       id="path16173"
       style="fill-rule:evenodd" />       
   </g>
</svg>