<svg
   xmlns:svg="http://www.w3.org/2000/svg"
   xmlns="http://www.w3.org/2000/svg"
   version="1.0"
   width="2100"
   height="1300"
   viewBox="0 0 2100 1300"
   id="svg14921">
   <g
     transform="matrix(2.2640019,0,0,2.2640019,-216.71416,-21.6991)"
     id="g14955"
     style="font-size:16.25px;font-style:normal;font-weight:400;fill:#fefee9;fill-opacity:1;fill-rule:evenodd;stroke:#000000;stroke-width:0.0984252;stroke-linecap:square;stroke-linejoin:bevel;stroke-opacity:1;font-family:Lucida Grande">
    <path
       name="grafton" d="M 569.579,233.008 L 569.639,233.801 L 569.7,234.368 L 570.489,235.645 L 576.099,234.519 L 576.126,234.823 L 577.253,241.887 L 579.067,256.814 L 576.008,257.332 L 578.041,259.698 L 578.043,259.793 L 576.757,260.39 L 577.791,262.861 L 568.35,262.803 L 565.161,263.718 L 564.217,259.357 L 558.22,260.336 L 556.96,253.954 L 556.643,251.937 L 555.309,243.167 L 555.005,241.212 L 554.823,240.22 L 554.601,238.847 L 554.48,237.914 L 555.048,236.772 L 558.456,235.488 L 560.251,235.466 L 561.873,234.367 L 565.131,233.789 L 569.579,233.008"
       id="path15625"
       style="fill-rule:evenodd" />
   </g>
</svg>