<svg
   xmlns:svg="http://www.w3.org/2000/svg"
   xmlns="http://www.w3.org/2000/svg"
   version="1.0"
   width="2100"
   height="1300"
   viewBox="0 0 2100 1300"
   id="svg14921">
   <g
     transform="matrix(2.2640019,0,0,2.2640019,-216.71416,-21.6991)"
     id="g14955"
     style="font-size:16.25px;font-style:normal;font-weight:400;fill:#fefee9;fill-opacity:1;fill-rule:evenodd;stroke:#000000;stroke-width:0.0984252;stroke-linecap:square;stroke-linejoin:bevel;stroke-opacity:1;font-family:Lucida Grande">
    <path
       name="granby" d="M 367.844,212.506 L 370.736,232.483 L 371.913,240.354 L 358.457,242.278 L 352.124,243.057 L 346.486,243.771 L 344.355,233.924 L 344.241,232.163 L 343.6,221.635 L 346.672,220.097 L 346.735,220.068 L 346.799,220.049 L 346.856,220.042 L 346.939,220.02 L 347.027,219.999 L 347.16,219.979 L 347.396,219.911 L 347.517,219.879 L 347.651,219.835 L 347.827,219.752 L 347.999,219.682 L 348.158,219.377 L 348.193,219.306 L 348.204,219.214 L 348.221,219.079 L 348.236,219 L 348.256,218.912 L 348.293,218.804 L 348.309,218.744 L 348.338,218.687 L 348.362,218.618 L 348.386,218.554 L 348.374,218.473 L 348.348,218.095 L 348.356,217.969 L 348.345,217.908 L 348.35,217.829 L 348.357,217.739 L 348.375,217.682 L 348.396,217.604 L 348.456,217.512 L 348.478,217.434 L 348.536,217.363 L 348.627,217.307 L 348.685,217.245 L 348.773,217.126 L 348.833,217.066 L 348.867,217.017 L 348.942,216.957 L 349.008,216.897 L 349.14,216.861 L 349.247,216.833 L 349.342,216.803 L 349.403,216.772 L 349.46,216.741 L 349.542,216.689 L 349.591,216.658 L 349.665,216.596 L 349.713,216.549 L 349.769,216.469 L 349.797,216.411 L 349.841,216.34 L 349.946,216.129 L 349.998,216.049 L 350.044,215.995 L 350.169,215.909 L 350.33,215.787 L 350.417,215.743 L 350.712,215.711 L 351.55,215.096 L 351.58,214.579 L 352.362,214.015 L 353.19,214.35 L 356.472,213.082 L 356.997,212.955 L 357.638,213.267 L 358.497,213.399 L 358.806,213.105 L 358.908,213.025 L 359.17,213.409 L 360.305,214.391 L 361.124,213.921 L 361.839,213.575 L 363.017,213.369 L 363.902,212.843 L 364.088,212.826 L 364.443,212.773 L 367.844,212.506"
       id="path15539"
       style="fill-rule:evenodd" />
   </g>
</svg>