<svg
   xmlns:svg="http://www.w3.org/2000/svg"
   xmlns="http://www.w3.org/2000/svg"
   version="1.0"
   width="2100"
   height="1300"
   viewBox="0 0 2100 1300"
   id="svg14921">
   <g
     transform="matrix(2.2640019,0,0,2.2640019,-216.71416,-21.6991)"
     id="g14955"
     style="font-size:16.25px;font-style:normal;font-weight:400;fill:#fefee9;fill-opacity:1;fill-rule:evenodd;stroke:#000000;stroke-width:0.0984252;stroke-linecap:square;stroke-linejoin:bevel;stroke-opacity:1;font-family:Lucida Grande">
    <path
       name="great-barrington" d="M 127.751,225.519 L 134.869,225.636 L 137.064,225.719 L 156.672,226.503 L 166.816,226.847 L 168.225,226.896 L 166.768,229.23 L 164.887,232.135 L 156.084,245.985 L 155.814,251.817 L 156.135,255.842 L 156.493,260.339 L 153.976,260.277 L 134.098,259.566 L 130.413,259.457 L 125.454,259.31 L 124.818,250.226 L 124.246,250.283 L 124.339,248.472 L 124.658,248.347 L 124.4,244.697 L 124.426,241.209 L 124.457,236.916 L 129.093,237.085 L 128.06,228.428 L 127.751,225.519"
       id="path15581"
       style="fill-rule:evenodd" />
   </g>
</svg>