<svg
   xmlns:svg="http://www.w3.org/2000/svg"
   xmlns="http://www.w3.org/2000/svg"
   version="1.0"
   width="2100"
   height="1300"
   viewBox="0 0 2100 1300"
   id="svg14921">
   <g
     transform="matrix(2.2640019,0,0,2.2640019,-216.71416,-21.6991)"
     id="g14955"
     style="font-size:16.25px;font-style:normal;font-weight:400;fill:#fefee9;fill-opacity:1;fill-rule:evenodd;stroke:#000000;stroke-width:0.0984252;stroke-linecap:square;stroke-linejoin:bevel;stroke-opacity:1;font-family:Lucida Grande">
    <path
       name="groton" d="M 615.096,96.2776 L 614.841,99.0196 L 614.557,100.051 L 615.401,104.748 L 615.833,107.394 L 615.643,110.322 L 615.577,111.226 L 615.146,116.347 L 614.676,121.369 L 614.311,121.506 L 613.415,121.853 L 612.564,122.974 L 611.26,123.938 L 588.667,119.246 L 588.564,119.126 L 588.494,119.225 L 588.445,119.308 L 588.4,119.369 L 588.339,119.424 L 588.274,119.47 L 588.195,119.512 L 588.126,119.537 L 588.056,119.557 L 587.961,119.566 L 587.807,119.547 L 587.701,119.515 L 587.584,119.461 L 587.448,119.381 L 587.345,119.301 L 587.207,119.213 L 587.11,119.192 L 587.025,119.21 L 586.971,119.261 L 586.809,119.413 L 586.721,119.518 L 586.596,119.684 L 586.441,119.842 L 586.325,119.866 L 586.097,119.91 L 586.017,119.926 L 585.975,119.879 L 586.108,119.717 L 586.234,119.626 L 586.247,119.524 L 586.196,119.444 L 586.029,119.429 L 585.875,119.475 L 585.795,119.513 L 585.693,119.554 L 585.619,119.557 L 585.542,119.591 L 585.479,119.621 L 585.395,119.649 L 585.346,119.617 L 585.336,119.507 L 585.367,119.415 L 585.427,119.328 L 585.441,119.261 L 585.384,119.177 L 585.289,119.134 L 585.201,119.081 L 585.116,119.019 L 585.069,118.941 L 585.016,118.848 L 584.996,118.752 L 585.007,118.668 L 585.054,118.624 L 585.127,118.572 L 585.184,118.537 L 585.229,118.474 L 585.22,118.385 L 585.021,118.105 L 584.927,118.088 L 584.846,118.12 L 584.763,118.108 L 584.685,118.154 L 584.634,118.184 L 584.536,118.174 L 584.416,118.167 L 584.317,118.123 L 584.244,118.087 L 584.187,118.099 L 584.134,118.133 L 584.056,118.204 L 583.966,118.256 L 583.907,118.211 L 583.953,118.024 L 584.021,117.937 L 584.023,117.868 L 583.993,117.799 L 583.96,117.739 L 583.844,117.718 L 583.718,117.722 L 583.645,117.693 L 583.35,117.323 L 582.983,116.978 L 582.722,116.669 L 582.679,116.571 L 582.657,116.512 L 582.682,116.411 L 582.721,116.35 L 582.764,116.291 L 582.805,116.153 L 582.816,116.037 L 582.816,115.925 L 582.794,115.836 L 582.741,115.77 L 582.666,115.727 L 582.587,115.69 L 582.514,115.659 L 582.404,115.605 L 582.306,115.589 L 582.178,115.573 L 582.084,115.553 L 582.027,115.528 L 581.944,115.429 L 581.925,115.334 L 581.937,115.205 L 581.974,115.107 L 582.02,114.969 L 582.041,114.904 L 582.045,114.843 L 582.059,114.784 L 582.091,114.725 L 582.107,114.656 L 582.095,114.55 L 582.056,114.339 L 582.049,114.144 L 582.063,113.999 L 582.071,113.912 L 582.063,113.837 L 582.039,113.776 L 581.957,113.694 L 581.914,113.633 L 581.861,113.487 L 581.814,113.402 L 581.737,113.312 L 581.635,113.251 L 581.576,113.209 L 581.535,113.136 L 581.56,113.046 L 581.604,112.922 L 581.679,112.69 L 581.74,112.499 L 581.74,112.436 L 581.735,112.375 L 581.735,112.294 L 581.727,112.204 L 581.566,112.233 L 581.524,112.288 L 581.495,112.357 L 581.487,112.424 L 581.459,112.485 L 581.404,112.544 L 581.347,112.526 L 581.268,112.485 L 581.221,112.43 L 581.198,112.325 L 581.119,112.233 L 581.066,112.134 L 581.064,111.967 L 581.092,111.833 L 581.11,111.717 L 581.143,111.629 L 581.159,111.566 L 581.16,111.485 L 581.154,111.42 L 581.134,111.332 L 581.069,111.259 L 581.064,111.149 L 581.072,111.08 L 581.083,111.003 L 581.107,110.936 L 581.111,110.873 L 581.033,110.791 L 580.968,110.753 L 580.897,110.735 L 580.793,110.719 L 580.712,110.731 L 580.641,110.745 L 580.57,110.729 L 580.513,110.719 L 580.439,110.646 L 580.417,110.577 L 580.362,110.522 L 580.303,110.489 L 580.232,110.443 L 580.173,110.402 L 580.11,110.331 L 580.047,110.268 L 579.994,110.191 L 579.947,110.118 L 579.908,110.032 L 579.871,109.959 L 579.831,109.902 L 579.79,109.815 L 579.761,109.74 L 579.753,109.664 L 579.842,109.553 L 579.954,109.532 L 580.021,109.483 L 580.062,109.438 L 580.092,109.377 L 580.137,109.304 L 580.196,109.223 L 580.226,109.149 L 580.228,109.086 L 580.193,109.011 L 580.053,108.997 L 579.953,109.017 L 579.848,109.074 L 579.785,109.052 L 579.662,108.989 L 579.579,108.951 L 579.481,108.937 L 579.398,108.926 L 579.323,108.89 L 579.276,108.843 L 579.229,108.76 L 579.162,108.703 L 579.072,108.677 L 578.993,108.701 L 578.897,108.677 L 578.84,108.632 L 578.771,108.557 L 578.684,108.49 L 578.588,108.496 L 578.521,108.502 L 578.36,108.442 L 578.27,108.399 L 578.215,108.373 L 578.14,108.351 L 578.067,108.343 L 578.012,108.294 L 577.983,108.209 L 577.936,108.131 L 577.873,108.046 L 577.795,107.977 L 577.747,107.926 L 577.699,107.845 L 577.677,107.753 L 577.648,107.67 L 577.672,107.605 L 577.751,107.552 L 577.82,107.511 L 577.838,107.438 L 577.769,107.387 L 577.7,107.377 L 577.612,107.369 L 577.539,107.365 L 577.502,107.268 L 577.507,107.178 L 577.513,107.085 L 577.519,107.008 L 577.53,106.951 L 577.571,106.884 L 577.596,106.794 L 577.649,106.697 L 577.715,106.638 L 577.729,106.56 L 577.73,106.477 L 577.726,106.392 L 577.747,106.28 L 577.759,106.192 L 577.75,106.109 L 577.727,106.04 L 577.667,105.985 L 577.608,105.957 L 577.541,105.929 L 577.474,105.919 L 577.381,105.941 L 577.356,105.872 L 577.444,105.784 L 577.567,105.727 L 577.586,105.62 L 577.561,105.536 L 577.475,105.524 L 577.392,105.528 L 577.328,105.522 L 577.261,105.486 L 577.223,105.419 L 577.21,105.362 L 577.211,105.291 L 577.242,105.234 L 577.331,105.228 L 577.392,105.283 L 577.487,105.347 L 577.546,105.349 L 577.536,105.258 L 577.478,105.217 L 577.467,105.146 L 577.51,105.05 L 577.51,104.971 L 577.505,104.9 L 577.495,104.811 L 577.411,104.77 L 577.395,104.833 L 577.388,104.898 L 577.349,104.965 L 577.246,104.992 L 577.155,105.016 L 577.118,104.962 L 577.092,104.866 L 577.097,104.793 L 577.112,104.715 L 577.159,104.644 L 577.182,104.591 L 577.157,104.516 L 577.078,104.459 L 577.001,104.426 L 576.954,104.371 L 576.928,104.31 L 576.897,104.259 L 576.8,104.23 L 576.765,104.291 L 576.779,104.363 L 576.85,104.444 L 576.869,104.499 L 576.824,104.586 L 576.842,104.656 L 576.808,104.763 L 576.694,104.781 L 576.553,104.714 L 576.488,104.642 L 576.447,104.6 L 576.401,104.561 L 576.325,104.522 L 576.274,104.489 L 576.293,104.416 L 576.291,104.347 L 576.236,104.282 L 576.145,104.212 L 576.096,104.174 L 576.039,104.1 L 576.059,104.031 L 576.151,103.995 L 576.214,103.96 L 576.228,103.9 L 576.171,103.82 L 576.119,103.753 L 576.092,103.692 L 576.062,103.62 L 576.045,103.559 L 576.029,103.462 L 576.005,103.38 L 575.94,103.39 L 575.903,103.325 L 575.893,103.254 L 575.859,103.181 L 575.802,103.119 L 575.737,103.066 L 575.663,102.989 L 575.596,102.944 L 575.533,102.909 L 575.45,102.883 L 575.342,102.866 L 575.261,102.841 L 575.194,102.784 L 575.031,102.611 L 574.74,102.364 L 574.44,102.134 L 574.344,102.056 L 574.265,101.997 L 574.198,101.952 L 574.151,101.915 L 574.086,101.818 L 574.063,101.763 L 574.053,101.707 L 574.053,101.616 L 574.033,101.539 L 573.974,101.49 L 573.905,101.506 L 573.864,101.549 L 573.811,101.615 L 573.726,101.617 L 573.673,101.585 L 573.634,101.538 L 573.602,101.483 L 573.539,101.397 L 573.458,101.314 L 573.404,101.246 L 574.07,96.163 L 574.433,96.2343 L 575.443,97.5951 L 576.313,98.1241 L 576.815,98.1662 L 578.405,99.8523 L 582.529,102.045 L 583.189,102.386 L 584.812,103.307 L 585.166,103.575 L 586.269,103.798 L 586.254,103.892 L 586.773,103.953 L 586.823,103.691 L 586.857,103.486 L 586.885,103.327 L 586.929,103.124 L 586.948,103.006 L 586.988,102.903 L 587.031,102.85 L 587.106,102.786 L 587.165,102.762 L 587.235,102.752 L 587.304,102.738 L 587.461,102.738 L 587.53,102.771 L 587.582,102.816 L 587.637,102.867 L 587.714,102.939 L 587.798,103.025 L 587.861,103.095 L 587.954,103.211 L 588.026,103.342 L 588.104,103.504 L 588.179,103.649 L 588.279,103.885 L 588.371,104.067 L 588.447,104.208 L 588.552,104.312 L 588.605,104.352 L 588.666,104.387 L 588.757,104.416 L 588.837,104.441 L 588.962,104.452 L 589.156,104.478 L 589.255,104.485 L 589.349,104.467 L 589.449,104.436 L 589.594,104.374 L 589.776,104.296 L 589.916,104.274 L 589.991,104.279 L 590.085,104.304 L 590.178,104.327 L 590.296,104.345 L 590.386,104.343 L 590.502,104.299 L 590.551,104.204 L 590.511,104.122 L 590.475,104.065 L 590.439,103.998 L 590.415,103.914 L 590.387,103.827 L 590.386,103.729 L 590.399,103.668 L 590.424,103.595 L 590.457,103.508 L 590.51,103.441 L 590.563,103.378 L 590.621,103.31 L 590.686,103.249 L 590.756,103.189 L 590.909,103.1 L 590.983,103.066 L 591.095,103.037 L 591.248,103.009 L 591.435,102.979 L 591.576,102.951 L 591.67,102.917 L 591.763,102.867 L 591.85,102.768 L 591.85,102.656 L 591.804,102.566 L 591.764,102.515 L 591.713,102.458 L 591.686,102.38 L 591.672,102.307 L 591.652,102.209 L 591.606,102.132 L 591.509,102.049 L 591.425,102.035 L 591.346,102.03 L 591.254,102.051 L 591.169,102.061 L 591.065,102.083 L 590.961,102.102 L 590.859,102.113 L 590.776,102.111 L 590.664,102.076 L 590.61,102.036 L 590.543,101.981 L 590.542,101.894 L 590.55,101.818 L 590.573,101.749 L 590.598,101.691 L 590.621,101.628 L 590.654,101.577 L 590.723,101.502 L 590.783,101.45 L 590.86,101.4 L 590.924,101.351 L 590.967,101.297 L 590.988,101.226 L 590.993,101.157 L 590.969,101.083 L 590.912,101.024 L 590.827,100.956 L 590.762,100.915 L 590.73,100.854 L 590.72,100.793 L 590.725,100.734 L 590.738,100.662 L 590.769,100.567 L 590.867,100.519 L 590.942,100.509 L 591.046,100.506 L 591.196,100.536 L 591.397,100.607 L 591.472,100.615 L 591.542,100.604 L 591.607,100.59 L 591.666,100.564 L 591.719,100.526 L 591.759,100.457 L 591.806,100.356 L 591.891,100.116 L 591.991,99.8141 L 592.045,99.5658 L 592.072,99.3551 L 592.089,99.2468 L 592.091,99.1424 L 592.082,99.0403 L 592.083,98.932 L 592.11,98.7941 L 592.125,98.723 L 592.144,98.664 L 592.169,98.6049 L 592.21,98.5355 L 592.259,98.4625 L 592.286,98.4073 L 592.297,98.3403 L 592.299,98.2518 L 592.292,98.1751 L 592.268,98.1222 L 592.223,98.0831 L 592.138,98.0226 L 592.065,97.9781 L 592.039,97.9014 L 592.02,97.7619 L 592.027,97.6676 L 592.058,97.5864 L 592.095,97.5153 L 592.146,97.4522 L 592.21,97.4005 L 592.308,97.3683 L 592.414,97.3399 L 592.511,97.3432 L 592.605,97.3699 L 592.72,97.4007 L 592.791,97.4493 L 592.85,97.5 L 592.902,97.5566 L 592.949,97.629 L 592.982,97.7174 L 593.008,97.7999 L 593.018,97.9041 L 593.039,98.0532 L 593.059,98.1239 L 593.103,98.1865 L 593.19,98.2214 L 593.26,98.1914 L 593.327,98.116 L 593.359,98.0529 L 593.379,97.9643 L 593.382,97.8855 L 593.401,97.7753 L 593.445,97.6883 L 593.488,97.6409 L 593.578,97.5477 L 593.744,97.3951 L 593.771,97.2905 L 593.812,97.1878 L 593.911,97.016 L 593.939,96.8839 L 593.921,96.8211 L 593.875,96.6857 L 593.866,96.5873 L 593.868,96.5027 L 593.875,96.4142 L 593.904,96.3195 L 593.927,96.2288 L 593.956,96.1519 L 593.988,96.0239 L 594.015,95.9075 L 594.062,95.795 L 594.087,95.6925 L 594.086,95.5962 L 594.095,95.5077 L 594.067,95.4016 L 594.044,95.3014 L 594.007,95.2406 L 593.937,95.1664 L 593.901,95.1195 L 593.873,95.0548 L 593.849,94.9822 L 593.833,94.8879 L 593.856,94.8305 L 593.905,94.7457 L 593.962,94.6981 L 594.038,94.6483 L 594.153,94.5942 L 594.254,94.5681 L 594.358,94.5495 L 594.486,94.5369 L 594.588,94.5204 L 604.753,91.4703 L 605.425,96.7057 L 610.384,98.375 L 614.312,96.5974 L 615.096,96.2776"
       id="path15115"
       style="fill-rule:evenodd" />
   </g>
</svg>