<svg
   xmlns:svg="http://www.w3.org/2000/svg"
   xmlns="http://www.w3.org/2000/svg"
   version="1.0"
   width="2100"
   height="1300"
   viewBox="0 0 2100 1300"
   id="svg14921">
   <g
     transform="matrix(2.2640019,0,0,2.2640019,-216.71416,-21.6991)"
     id="g14955"
     style="font-size:16.25px;font-style:normal;font-weight:400;fill:#fefee9;fill-opacity:1;fill-rule:evenodd;stroke:#000000;stroke-width:0.0984252;stroke-linecap:square;stroke-linejoin:bevel;stroke-opacity:1;font-family:Lucida Grande">
    <path
       name="halifax" d="M 785.251,312.558 L 790.018,311.002 L 790.061,311.074 L 790.129,311.144 L 790.243,311.241 L 790.342,311.314 L 790.444,311.385 L 790.5,311.48 L 790.496,311.544 L 790.439,311.696 L 790.388,311.84 L 790.368,311.931 L 790.367,311.998 L 790.377,312.083 L 790.405,312.157 L 790.446,312.251 L 790.439,312.312 L 790.418,312.444 L 790.4,312.543 L 790.417,312.623 L 790.467,312.693 L 790.572,312.74 L 790.643,312.767 L 790.707,312.811 L 790.749,312.881 L 790.757,312.96 L 790.76,313.025 L 790.78,313.079 L 790.833,313.151 L 790.886,313.205 L 791.004,313.292 L 791.129,313.345 L 791.331,313.438 L 791.381,313.484 L 791.413,313.535 L 791.413,313.639 L 791.375,313.774 L 791.384,313.842 L 791.401,313.903 L 791.426,313.973 L 791.464,314.047 L 791.512,314.096 L 791.566,314.158 L 791.623,314.259 L 791.646,314.332 L 791.683,314.445 L 791.745,314.527 L 791.821,314.59 L 791.898,314.636 L 791.986,314.714 L 792.019,314.801 L 792.015,314.892 L 791.981,314.966 L 791.921,315.055 L 791.865,315.131 L 791.847,315.196 L 791.866,315.28 L 791.916,315.341 L 792.012,315.439 L 792.152,315.555 L 792.198,315.622 L 792.218,315.698 L 789.913,319.189 L 789.141,320.348 L 788.09,324.571 L 777.874,334.173 L 778.45,334.79 L 776.355,337.137 L 774.916,336.269 L 766.186,330.987 L 766.242,330.929 L 766.303,330.86 L 766.365,330.778 L 766.405,330.714 L 766.455,330.61 L 766.474,330.417 L 766.495,329.781 L 766.49,329.692 L 766.445,329.579 L 766.349,329.414 L 766.225,329.258 L 766.111,329.116 L 766.092,329.032 L 766.104,328.87 L 766.124,328.709 L 766.16,328.574 L 766.176,328.491 L 766.175,328.36 L 766.126,328.266 L 766.056,328.137 L 765.886,327.916 L 765.765,327.788 L 765.643,327.673 L 765.395,327.465 L 765.297,327.364 L 765.243,327.257 L 765.186,327.098 L 765.171,327.017 L 765.166,326.937 L 765.169,326.85 L 765.182,326.783 L 765.211,326.721 L 765.237,326.666 L 765.28,326.604 L 765.334,326.499 L 765.356,326.391 L 765.374,326.272 L 765.427,326.226 L 767.923,325.328 L 768.314,323.418 L 768.471,320.674 L 768.434,319.353 L 768.373,318.377 L 768.809,313.766 L 769.045,312.734 L 769.604,310.303 L 774.733,311.482 L 777.34,312.076 L 778.437,313.754 L 781.226,313.89 L 785.251,312.558"
       id="path15835"
       style="fill-rule:evenodd" />
   </g>
</svg>