<svg
   xmlns:svg="http://www.w3.org/2000/svg"
   xmlns="http://www.w3.org/2000/svg"
   version="1.0"
   width="2100"
   height="1300"
   viewBox="0 0 2100 1300"
   id="svg14921">
   <g
     transform="matrix(2.2640019,0,0,2.2640019,-216.71416,-21.6991)"
     id="g14955"
     style="font-size:16.25px;font-style:normal;font-weight:400;fill:#fefee9;fill-opacity:1;fill-rule:evenodd;stroke:#000000;stroke-width:0.0984252;stroke-linecap:square;stroke-linejoin:bevel;stroke-opacity:1;font-family:Lucida Grande">
    <path
       name="hamilton" d="M 787.825,98.4871 L 788.794,98.7438 L 788.987,100.432 L 789.151,103.973 L 788.348,104.048 L 787.6,104.108 L 787.56,105.204 L 788.146,106.23 L 789.814,110.136 L 791.996,111.991 L 792.032,114.384 L 788.547,114.96 L 773.244,109.499 L 761.99,105.112 L 761.967,104.978 L 762.063,104.922 L 762.094,104.869 L 762.133,104.785 L 762.172,104.679 L 762.172,104.572 L 762.136,104.506 L 762.107,104.451 L 762.016,104.412 L 761.973,104.486 L 761.907,104.493 L 761.857,104.442 L 761.824,104.393 L 761.76,104.346 L 761.675,104.292 L 761.63,104.232 L 761.681,104.158 L 761.729,104.091 L 761.726,104.016 L 761.753,103.962 L 761.814,103.971 L 761.917,103.999 L 761.927,103.928 L 762.003,103.861 L 762.117,103.804 L 762.245,103.722 L 762.252,103.653 L 762.196,103.6 L 762.231,103.529 L 762.311,103.483 L 762.397,103.448 L 762.482,103.443 L 762.57,103.453 L 762.639,103.431 L 762.61,103.357 L 762.525,103.314 L 762.436,103.241 L 762.443,103.168 L 762.527,103.143 L 762.627,103.16 L 762.7,103.141 L 762.775,103.174 L 762.815,103.232 L 762.876,103.215 L 762.865,103.121 L 762.893,102.993 L 762.968,103.011 L 763.039,103.068 L 763.134,103.137 L 763.209,103.103 L 763.279,103.049 L 763.319,103.091 L 763.391,103.059 L 763.425,102.964 L 763.456,102.877 L 763.47,102.796 L 763.514,102.697 L 763.56,102.748 L 763.6,102.812 L 763.665,102.788 L 763.701,102.722 L 763.669,102.67 L 763.631,102.619 L 763.595,102.548 L 763.626,102.481 L 763.718,102.49 L 763.773,102.519 L 763.814,102.583 L 763.809,102.684 L 763.837,102.738 L 763.931,102.802 L 763.979,102.756 L 764.044,102.641 L 764.142,102.598 L 764.237,102.607 L 764.273,102.67 L 764.319,102.726 L 764.415,102.707 L 764.479,102.629 L 764.531,102.581 L 764.605,102.525 L 764.666,102.481 L 764.723,102.465 L 764.803,102.414 L 764.841,102.323 L 764.908,102.348 L 765.007,102.382 L 765.07,102.382 L 765.13,102.339 L 765.171,102.282 L 765.175,102.191 L 765.202,102.108 L 765.248,102.035 L 765.339,101.921 L 765.418,101.824 L 765.51,101.74 L 765.613,101.658 L 765.673,101.602 L 765.69,101.547 L 765.65,101.502 L 765.516,101.435 L 765.44,101.475 L 765.359,101.478 L 765.322,101.406 L 765.275,101.357 L 765.2,101.232 L 765.128,101.107 L 765.078,101.051 L 764.967,100.96 L 764.883,100.9 L 764.877,100.841 L 764.858,100.757 L 764.882,100.68 L 765.503,99.7151 L 767.708,99.2843 L 767.695,98.5839 L 767.593,98.4259 L 767.626,97.7722 L 767.195,97.4491 L 766.611,96.4632 L 767.091,96.2817 L 766.2,94.6364 L 765.386,94.9148 L 765.207,92.7131 L 765.199,92.6521 L 765.227,92.5829 L 765.27,92.5076 L 765.32,92.4438 L 765.376,92.388 L 765.449,92.3516 L 765.511,92.3135 L 765.589,92.2947 L 765.729,92.279 L 765.866,92.2713 L 765.937,92.2546 L 766.025,92.2279 L 766.097,92.1798 L 766.201,92.1252 L 766.31,92.0865 L 766.395,92.0793 L 766.486,92.0919 L 766.559,92.1206 L 766.686,92.1878 L 766.852,92.2997 L 766.945,92.3495 L 767.028,92.3859 L 767.143,92.408 L 767.235,92.4126 L 767.328,92.4115 L 767.457,92.3842 L 767.604,92.329 L 767.835,92.2709 L 767.976,92.2534 L 768.079,92.2617 L 768.223,92.2914 L 768.353,92.335 L 768.535,92.4132 L 768.802,92.5258 L 768.994,92.6098 L 769.162,92.6588 L 769.288,92.6925 L 769.432,92.6925 L 769.498,92.6739 L 769.584,92.6395 L 769.684,92.5908 L 769.778,92.5504 L 769.887,92.5114 L 769.99,92.514 L 770.11,92.5321 L 770.233,92.5758 L 770.288,92.6263 L 770.317,92.7458 L 770.297,92.8111 L 770.259,92.9453 L 770.207,93.0621 L 770.162,93.1731 L 770.138,93.2953 L 770.15,93.3699 L 770.236,93.483 L 770.417,93.6203 L 770.534,93.7073 L 770.681,93.798 L 770.881,93.8937 L 771.041,93.9878 L 771.208,94.0761 L 771.433,94.1697 L 771.639,94.2535 L 771.797,94.2909 L 771.928,94.2793 L 772.014,94.2328 L 772.063,94.1731 L 772.113,94.1135 L 772.208,94.0374 L 772.314,94.0066 L 772.383,93.9977 L 772.434,93.9674 L 772.474,93.8921 L 772.518,93.8266 L 772.55,93.6984 L 772.538,93.6354 L 772.493,93.5376 L 772.471,93.483 L 772.464,93.4179 L 772.483,93.343 L 772.519,93.2953 L 772.57,93.2455 L 772.646,93.1874 L 772.74,93.1349 L 772.863,93.0763 L 772.959,93.0534 L 773.127,93.0524 L 773.284,93.0861 L 773.361,93.0989 L 773.434,93.1057 L 773.524,93.0968 L 773.591,93.0861 L 773.683,93.0517 L 773.755,93.0117 L 773.821,92.9562 L 773.896,92.881 L 773.965,92.7865 L 774.04,92.6763 L 774.147,92.5325 L 774.216,92.4498 L 774.267,92.4103 L 774.328,92.4076 L 774.391,92.4287 L 774.455,92.4929 L 774.522,92.5724 L 774.586,92.6621 L 774.633,92.754 L 774.694,92.8595 L 774.751,92.9337 L 774.84,92.9877 L 774.909,93.0065 L 775,93.0135 L 775.11,92.9984 L 775.254,92.9472 L 775.479,92.8769 L 775.681,92.8304 L 775.854,92.8179 L 775.997,92.784 L 776.186,92.7334 L 776.349,92.7148 L 776.412,92.7216 L 776.46,92.7561 L 776.514,92.8142 L 776.561,92.8841 L 776.613,92.9521 L 776.679,92.9823 L 776.746,92.997 L 776.867,93.0024 L 776.841,93.1231 L 776.008,96.8731 L 777.465,98.4451 L 777.793,98.0848 L 777.876,98.0143 L 778.213,97.9355 L 778.389,97.9066 L 778.475,97.8716 L 778.564,97.795 L 778.656,97.7856 L 778.712,97.8198 L 778.814,97.8375 L 778.889,97.8127 L 778.944,97.8412 L 779.007,97.8161 L 779.159,97.7584 L 779.36,97.6955 L 779.435,97.6097 L 780.065,97.1295 L 780.102,97.0187 L 780.161,96.986 L 780.224,96.9219 L 780.243,96.8665 L 780.248,96.7937 L 780.26,96.7324 L 780.292,96.6728 L 780.362,96.6104 L 780.459,96.5399 L 780.559,96.5261 L 780.621,96.4915 L 780.685,96.4491 L 780.818,96.4032 L 780.936,96.468 L 781.013,96.4862 L 781.097,96.4944 L 781.209,96.4924 L 781.313,96.4923 L 781.416,96.4923 L 781.551,96.488 L 781.651,96.4781 L 781.712,96.4692 L 781.769,96.4367 L 781.835,96.4001 L 781.897,96.3714 L 781.968,96.3501 L 782.058,96.3348 L 782.127,96.2745 L 782.162,96.2089 L 782.197,96.1058 L 782.278,96.1045 L 782.341,96.1151 L 782.352,96.1878 L 782.441,96.2253 L 782.481,96.1696 L 782.524,96.218 L 782.596,96.2164 L 782.659,96.1976 L 782.722,96.1984 L 782.779,96.1324 L 782.772,96.0657 L 782.796,95.9648 L 782.904,95.9315 L 782.964,95.9007 L 783.06,95.891 L 783.124,95.9253 L 783.214,95.9394 L 783.259,96.0074 L 783.312,96.0301 L 783.375,96.013 L 783.479,95.9857 L 783.61,95.9557 L 783.74,95.9729 L 783.893,96.0762 L 783.994,96.2081 L 783.991,96.273 L 784.012,96.3278 L 784.07,96.3662 L 784.124,96.4142 L 784.156,96.4725 L 784.146,96.5575 L 784.149,96.6263 L 784.187,96.72 L 784.225,96.7685 L 784.235,96.8607 L 784.206,96.9124 L 784.156,96.9664 L 784.144,97.065 L 784.147,97.132 L 784.166,97.1985 L 784.166,97.2752 L 784.149,97.3424 L 784.204,97.4084 L 784.236,97.4607 L 784.22,97.5438 L 784.153,97.6099 L 784.125,97.6951 L 784.177,97.7826 L 784.26,97.7968 L 784.302,97.8452 L 784.3,97.9083 L 784.256,97.9798 L 784.224,98.0395 L 784.215,98.1106 L 784.236,98.1671 L 784.251,98.2318 L 784.176,98.243 L 784.128,98.2774 L 784.074,98.243 L 784.036,98.2909 L 784.008,98.3624 L 783.946,98.4205 L 783.899,98.4548 L 783.839,98.4972 L 783.782,98.5907 L 783.807,98.6651 L 783.836,98.7275 L 783.823,98.7848 L 783.869,98.8449 L 783.859,98.9041 L 783.778,98.9037 L 783.709,98.8755 L 783.643,98.8156 L 783.582,98.8129 L 783.535,98.8689 L 783.49,98.9502 L 783.509,99.0128 L 783.553,99.0752 L 783.632,99.1778 L 783.656,99.2305 L 783.678,99.3107 L 783.708,99.3615 L 783.785,99.4682 L 785.98,100.944 L 785.981,100.773 L 785.987,100.572 L 785.993,100.511 L 786.051,100.429 L 786.094,100.326 L 786.106,100.247 L 786.077,100.163 L 786.045,100.111 L 786.01,100.035 L 785.965,99.9451 L 785.952,99.8075 L 785.96,99.7029 L 785.993,99.5767 L 786.042,99.4438 L 786.139,99.4833 L 786.179,99.4078 L 786.223,99.3382 L 786.282,99.2563 L 786.409,99.1083 L 786.546,98.9543 L 786.608,98.8234 L 786.624,98.7581 L 786.633,98.695 L 786.643,98.6002 L 786.641,98.504 L 786.621,98.166 L 787.825,98.4871"
       id="path15119"
       style="fill-rule:evenodd" />
   </g>
</svg>