<svg
   xmlns:svg="http://www.w3.org/2000/svg"
   xmlns="http://www.w3.org/2000/svg"
   version="1.0"
   width="2100"
   height="1300"
   viewBox="0 0 2100 1300"
   id="svg14921">
   <g
     transform="matrix(2.2640019,0,0,2.2640019,-216.71416,-21.6991)"
     id="g14955"
     style="font-size:16.25px;font-style:normal;font-weight:400;fill:#fefee9;fill-opacity:1;fill-rule:evenodd;stroke:#000000;stroke-width:0.0984252;stroke-linecap:square;stroke-linejoin:bevel;stroke-opacity:1;font-family:Lucida Grande">
    <path
       name="hanover" d="M 771.892,266.454 L 774.399,266.005 L 781.445,264.78 L 781.475,264.856 L 781.473,264.947 L 781.462,265.026 L 781.439,265.125 L 781.463,265.199 L 781.51,265.252 L 781.589,265.329 L 781.623,265.41 L 781.641,265.477 L 781.636,265.587 L 781.678,265.657 L 781.75,265.712 L 781.797,265.767 L 781.83,265.827 L 781.891,265.885 L 781.903,265.971 L 781.949,266.048 L 782.028,266.076 L 782.027,266.15 L 782.087,266.196 L 782.076,266.289 L 782.033,266.373 L 782.061,266.454 L 782.092,266.505 L 782.118,266.589 L 782.119,266.671 L 782.25,267.049 L 782.32,267.073 L 782.403,267.096 L 782.493,267.129 L 782.601,267.204 L 782.648,267.258 L 782.675,267.324 L 782.734,267.377 L 782.826,267.424 L 782.951,267.538 L 782.956,267.633 L 782.978,267.697 L 783.048,267.75 L 783.136,267.805 L 783.183,267.856 L 783.211,267.944 L 783.203,268.005 L 783.206,268.094 L 783.202,268.234 L 783.224,268.442 L 783.222,268.556 L 783.24,268.648 L 783.286,268.733 L 783.329,268.801 L 783.425,268.857 L 783.528,268.862 L 783.608,268.855 L 783.69,268.891 L 783.716,268.96 L 783.77,269.063 L 783.815,269.121 L 783.869,269.208 L 783.913,269.313 L 783.942,269.371 L 783.966,269.447 L 783.985,269.549 L 784.033,269.646 L 784.053,269.726 L 784.028,269.8 L 783.99,269.915 L 784.025,269.963 L 784.059,270.039 L 784.097,270.148 L 784.104,270.232 L 784.103,270.351 L 784.123,270.492 L 784.142,270.605 L 784.182,270.661 L 784.253,270.754 L 784.325,270.842 L 784.366,270.919 L 784.414,271.003 L 784.511,271.089 L 784.564,271.146 L 784.597,271.204 L 784.645,271.301 L 784.666,271.417 L 784.682,271.534 L 784.682,271.629 L 784.695,271.711 L 784.713,271.785 L 784.699,271.857 L 784.669,271.96 L 784.659,272.092 L 784.698,272.138 L 784.777,272.146 L 784.856,272.122 L 784.912,272.209 L 784.895,272.29 L 784.871,272.345 L 784.815,272.363 L 784.836,272.433 L 784.803,272.505 L 784.795,272.568 L 784.76,272.636 L 784.725,272.71 L 784.729,272.779 L 784.758,272.839 L 784.774,272.921 L 784.825,272.989 L 784.909,273.026 L 785.003,273.06 L 785.073,273.123 L 785.139,273.162 L 785.192,273.212 L 785.246,273.307 L 785.3,273.418 L 785.359,273.463 L 785.422,273.487 L 785.516,273.513 L 785.591,273.531 L 785.655,273.563 L 785.69,273.609 L 785.75,273.666 L 785.818,273.703 L 785.886,273.735 L 785.946,273.751 L 786.047,273.718 L 786.101,273.673 L 786.186,273.706 L 786.272,273.757 L 786.341,273.747 L 786.442,273.764 L 786.506,273.817 L 786.584,273.856 L 786.699,273.87 L 786.847,273.894 L 786.941,273.887 L 787.04,273.829 L 787.093,273.772 L 787.152,273.766 L 787.236,273.829 L 787.314,273.799 L 787.342,273.735 L 787.42,273.642 L 787.482,273.629 L 787.569,273.638 L 787.648,273.643 L 787.727,273.663 L 787.836,273.687 L 787.881,273.615 L 787.911,273.565 L 787.988,273.515 L 788.1,273.494 L 788.178,273.48 L 788.29,273.487 L 788.371,273.488 L 788.469,273.464 L 788.558,273.439 L 788.635,273.453 L 788.757,273.514 L 788.736,273.586 L 788.634,273.665 L 788.577,273.742 L 788.627,273.78 L 788.746,273.806 L 788.802,273.822 L 788.894,273.89 L 788.969,273.959 L 789.049,273.947 L 789.103,273.912 L 789.176,273.909 L 789.266,273.95 L 789.349,274.038 L 789.372,274.1 L 789.382,274.177 L 789.395,274.283 L 789.414,274.461 L 789.452,274.655 L 789.519,274.801 L 789.632,274.962 L 789.756,275.171 L 789.805,275.237 L 789.892,275.323 L 789.982,275.379 L 790.076,275.425 L 790.193,275.469 L 790.295,275.519 L 790.386,275.546 L 790.463,275.547 L 790.542,275.555 L 790.63,275.613 L 790.679,275.663 L 790.734,275.74 L 790.792,275.839 L 790.872,275.972 L 790.971,276.103 L 791.015,276.151 L 791.104,276.243 L 791.16,276.285 L 791.197,276.347 L 791.244,276.581 L 791.244,276.656 L 791.234,276.735 L 791.225,276.808 L 791.219,276.877 L 791.222,276.952 L 791.258,277.012 L 791.328,277.06 L 791.391,277.1 L 791.405,277.201 L 791.378,277.262 L 791.353,277.351 L 791.403,277.445 L 791.484,277.603 L 791.491,277.69 L 791.513,277.764 L 791.528,277.854 L 791.479,277.914 L 791.412,277.927 L 791.358,277.895 L 791.288,277.933 L 791.255,278.004 L 791.222,278.084 L 791.238,278.227 L 791.221,278.314 L 791.169,278.36 L 791.116,278.416 L 791.08,278.468 L 791.053,278.522 L 791.079,278.606 L 791.104,278.658 L 791.087,278.749 L 791.134,278.782 L 791.215,278.863 L 791.354,279.329 L 791.439,279.54 L 791.464,279.654 L 791.46,279.737 L 791.491,279.805 L 791.581,279.794 L 791.74,279.744 L 791.836,279.748 L 791.893,279.759 L 791.922,279.841 L 792.164,279.829 L 792.267,279.855 L 792.328,279.866 L 792.39,279.906 L 792.376,280.019 L 792.386,280.083 L 792.421,280.136 L 792.463,280.182 L 792.518,280.213 L 792.618,280.266 L 792.619,280.392 L 792.606,280.514 L 792.64,280.569 L 792.692,280.609 L 792.69,280.782 L 792.691,280.859 L 792.6,280.882 L 792.533,280.917 L 792.432,280.96 L 792.358,281.016 L 792.315,281.119 L 792.273,281.236 L 792.243,281.315 L 792.203,281.377 L 792.107,281.511 L 792.005,281.66 L 791.95,281.763 L 791.903,281.849 L 791.8,281.963 L 791.678,282.069 L 791.591,282.139 L 791.515,282.204 L 791.411,282.308 L 791.336,282.4 L 791.251,282.478 L 791.158,282.592 L 791.08,282.735 L 791.021,282.846 L 790.946,282.963 L 790.875,283.067 L 790.796,283.145 L 790.695,283.225 L 790.629,283.277 L 790.569,283.363 L 790.543,283.415 L 790.526,283.495 L 790.526,283.572 L 790.541,283.69 L 790.571,283.798 L 790.636,283.923 L 790.663,284.019 L 790.757,284.096 L 790.852,284.167 L 790.898,284.214 L 790.945,284.299 L 790.983,284.366 L 791.018,284.414 L 791.066,284.453 L 791.113,284.491 L 791.136,284.574 L 791.127,284.631 L 791.032,284.656 L 790.967,284.647 L 790.847,284.673 L 790.816,284.735 L 790.829,284.799 L 790.942,284.86 L 791.029,284.865 L 791.096,284.881 L 791.154,284.934 L 791.171,285.006 L 791.174,285.075 L 791.09,285.102 L 791.029,285.117 L 790.971,285.135 L 790.929,285.244 L 790.925,285.321 L 790.912,285.38 L 790.836,285.441 L 790.721,285.468 L 790.655,285.451 L 790.541,285.42 L 790.48,285.413 L 790.374,285.438 L 790.269,285.405 L 790.165,285.271 L 790.114,285.203 L 790.08,285.154 L 789.976,285.138 L 789.89,285.19 L 789.779,285.153 L 789.727,285.106 L 789.645,285.025 L 789.582,285.005 L 789.515,284.994 L 789.442,284.993 L 789.389,285.02 L 789.339,285.068 L 789.281,285.136 L 789.196,285.115 L 789.121,285.073 L 789.055,285.049 L 788.998,285.026 L 788.936,284.997 L 788.859,284.944 L 788.717,284.94 L 788.637,284.983 L 788.563,285.031 L 788.491,285.036 L 788.435,285.002 L 788.397,284.951 L 788.34,284.875 L 788.306,284.787 L 788.271,284.707 L 788.21,284.62 L 788.027,284.601 L 787.77,284.652 L 787.594,284.704 L 787.478,284.708 L 787.389,284.704 L 787.326,284.699 L 786.896,284.71 L 786.714,284.782 L 786.409,284.922 L 786.228,285.006 L 786.095,285.071 L 786.008,285.132 L 785.94,285.182 L 785.835,285.251 L 785.741,285.307 L 785.653,285.358 L 785.587,285.39 L 785.466,285.43 L 785.203,285.497 L 785.105,285.536 L 784.983,285.611 L 784.877,285.683 L 784.784,285.726 L 784.676,285.765 L 784.551,285.808 L 784.448,285.863 L 784.378,285.941 L 784.302,285.966 L 784.244,285.955 L 784.172,285.948 L 784.06,285.972 L 783.987,285.998 L 783.931,286.058 L 783.864,286.187 L 783.792,286.346 L 783.733,286.479 L 783.67,286.572 L 783.631,286.62 L 783.569,286.654 L 783.481,286.695 L 783.381,286.71 L 783.264,286.702 L 783.197,286.68 L 783.119,286.62 L 782.997,286.579 L 782.908,286.582 L 782.836,286.603 L 782.77,286.641 L 782.671,286.655 L 782.55,286.649 L 782.443,286.625 L 782.348,286.603 L 782.275,286.573 L 782.211,286.524 L 782.129,286.421 L 781.969,286.357 L 781.878,286.311 L 781.759,286.272 L 781.646,286.237 L 781.565,286.197 L 781.484,286.157 L 781.389,286.125 L 781.266,286.18 L 781.171,286.227 L 781.069,286.28 L 780.946,286.337 L 780.863,286.397 L 780.789,286.46 L 780.743,286.521 L 780.696,286.557 L 780.632,286.584 L 780.528,286.601 L 780.397,286.55 L 780.318,286.499 L 780.223,286.5 L 780.139,286.496 L 780.073,286.479 L 779.978,286.421 L 779.886,286.417 L 779.828,286.487 L 779.74,286.565 L 779.686,286.609 L 779.64,286.665 L 779.607,286.719 L 779.569,286.768 L 779.505,286.856 L 779.501,286.978 L 779.526,287.031 L 779.544,287.085 L 779.558,287.18 L 779.541,287.263 L 779.509,287.328 L 779.438,287.425 L 779.382,287.503 L 779.306,287.567 L 779.17,287.679 L 779.071,287.75 L 779.003,287.784 L 778.908,287.809 L 778.791,287.843 L 778.668,287.884 L 778.611,287.906 L 778.491,288.016 L 778.369,288.164 L 778.278,288.258 L 778.21,288.302 L 778.134,288.329 L 778.073,288.355 L 778.014,288.382 L 777.941,288.432 L 777.925,288.545 L 777.886,288.598 L 777.834,288.641 L 777.806,288.726 L 777.733,288.717 L 777.72,288.656 L 777.688,288.606 L 777.64,288.569 L 777.567,288.541 L 777.474,288.528 L 777.366,288.523 L 777.299,288.506 L 777.233,288.462 L 777.176,288.418 L 777.141,288.34 L 777.132,288.257 L 777.076,288.186 L 776.977,288.146 L 776.916,288.143 L 776.814,288.171 L 776.755,288.261 L 776.672,288.471 L 776.605,288.553 L 776.47,288.684 L 776.375,288.856 L 776.315,289.013 L 776.277,289.079 L 776.187,289.087 L 776.093,289.089 L 776.015,289.099 L 775.942,289.134 L 775.889,289.169 L 775.843,289.216 L 775.803,289.275 L 775.725,289.313 L 775.55,289.215 L 775.361,289.145 L 775.064,289.042 L 774.88,288.987 L 774.758,288.928 L 774.663,288.865 L 774.57,288.82 L 774.487,288.485 L 771.249,289.112 L 770.634,278.76 L 770.053,276.314 L 767.836,267.181 L 771.892,266.454"
       id="path15729"
       style="fill-rule:evenodd" />
   </g>
</svg>