<svg
   xmlns:svg="http://www.w3.org/2000/svg"
   xmlns="http://www.w3.org/2000/svg"
   version="1.0"
   width="2100"
   height="1300"
   viewBox="0 0 2100 1300"
   id="svg14921">
   <g
     transform="matrix(2.2640019,0,0,2.2640019,-216.71416,-21.6991)"
     id="g14955"
     style="font-size:16.25px;font-style:normal;font-weight:400;fill:#fefee9;fill-opacity:1;fill-rule:evenodd;stroke:#000000;stroke-width:0.0984252;stroke-linecap:square;stroke-linejoin:bevel;stroke-opacity:1;font-family:Lucida Grande">
    <path
       name="hardwick" d="M 434.315,175.414 L 450.724,190.192 L 454.758,193.844 L 454.877,194.004 L 454.756,194.216 L 454.724,194.279 L 454.739,194.366 L 454.81,194.477 L 454.853,194.567 L 454.866,194.624 L 454.88,194.685 L 454.866,194.784 L 454.845,194.865 L 454.821,194.936 L 454.788,194.996 L 454.668,195.025 L 454.585,195.091 L 454.501,195.2 L 454.453,195.278 L 454.417,195.333 L 454.372,195.382 L 454.308,195.45 L 454.244,195.503 L 454.151,195.567 L 454.084,195.604 L 453.571,195.76 L 453.478,195.785 L 453.405,195.794 L 453.316,195.815 L 453.243,195.84 L 453.12,195.827 L 453.045,195.805 L 452.974,195.791 L 452.892,195.774 L 452.811,195.77 L 452.722,195.8 L 452.661,195.825 L 452.61,195.854 L 452.55,195.881 L 452.443,195.975 L 452.366,196.035 L 452.302,196.086 L 452.239,196.154 L 452.175,196.214 L 452.117,196.287 L 452.075,196.363 L 452.039,196.43 L 452.013,196.557 L 452.022,196.642 L 452.023,196.719 L 452.024,196.784 L 452.018,196.842 L 452.013,196.927 L 452.003,197.01 L 451.974,197.074 L 451.938,197.133 L 451.91,197.202 L 451.878,197.256 L 451.813,197.323 L 451.763,197.373 L 451.692,197.428 L 451.624,197.529 L 451.576,197.639 L 451.547,197.765 L 451.52,197.867 L 451.5,197.967 L 451.487,198.071 L 451.505,198.245 L 451.526,198.347 L 451.549,198.418 L 451.564,198.485 L 451.608,198.6 L 451.645,198.686 L 451.672,198.764 L 451.697,198.823 L 451.725,198.937 L 451.726,199.012 L 451.724,199.098 L 451.715,199.163 L 451.688,199.293 L 451.646,199.383 L 451.59,199.451 L 451.547,199.5 L 451.469,199.552 L 451.381,199.548 L 451.322,199.522 L 451.22,199.458 L 451.115,199.394 L 451.036,199.374 L 450.973,199.367 L 450.914,199.357 L 450.849,199.362 L 450.78,199.391 L 450.724,199.457 L 450.676,199.544 L 450.67,199.602 L 450.696,199.703 L 450.77,200.068 L 450.763,200.133 L 450.704,200.209 L 450.65,200.234 L 450.6,200.316 L 450.595,200.406 L 450.677,200.513 L 450.714,200.569 L 450.697,200.669 L 450.49,200.801 L 450.401,200.826 L 450.316,200.793 L 450.228,200.753 L 450.122,200.75 L 450.061,200.766 L 449.968,200.798 L 449.905,200.827 L 449.82,200.852 L 449.737,200.851 L 449.655,200.851 L 449.584,200.828 L 449.472,200.751 L 449.28,200.523 L 449.188,200.443 L 449.108,200.393 L 449.063,200.354 L 449.008,200.327 L 448.916,200.307 L 448.78,200.324 L 448.62,200.403 L 448.537,200.426 L 448.42,200.44 L 448.33,200.451 L 448.243,200.453 L 448.141,200.456 L 448.015,200.456 L 447.918,200.45 L 447.85,200.427 L 447.773,200.409 L 447.708,200.387 L 447.62,200.366 L 447.45,200.412 L 447.389,200.441 L 447.304,200.507 L 447.25,200.607 L 447.138,200.823 L 447.084,200.909 L 447.012,200.959 L 446.943,200.98 L 446.856,201.003 L 446.764,201.024 L 446.664,200.993 L 446.589,200.981 L 446.467,201.006 L 446.405,201.026 L 446.305,201.055 L 446.22,201.086 L 446.147,201.107 L 446.078,201.136 L 446.016,201.171 L 445.984,201.22 L 445.996,201.277 L 446.001,201.363 L 445.982,201.442 L 445.897,201.551 L 445.841,201.624 L 445.799,201.672 L 445.767,201.735 L 445.739,201.788 L 445.72,201.882 L 445.71,201.947 L 445.729,202.044 L 445.747,202.152 L 445.767,202.213 L 445.777,202.321 L 445.785,202.4 L 445.776,202.477 L 445.747,202.644 L 445.689,202.769 L 445.657,202.826 L 445.591,202.912 L 445.514,202.978 L 445.458,203.04 L 445.395,203.087 L 445.349,203.126 L 445.266,203.184 L 445.19,203.229 L 445.097,203.281 L 445.024,203.324 L 444.949,203.349 L 444.888,203.366 L 444.817,203.383 L 444.74,203.441 L 444.7,203.49 L 444.67,203.573 L 444.638,203.641 L 444.631,203.712 L 444.62,203.789 L 444.629,203.889 L 444.668,203.996 L 444.693,204.049 L 444.726,204.096 L 444.806,204.166 L 444.921,204.256 L 444.964,204.307 L 444.878,204.411 L 444.774,204.453 L 444.689,204.491 L 444.692,204.576 L 444.669,204.662 L 444.627,204.737 L 444.587,204.815 L 444.494,204.887 L 444.336,204.949 L 444.204,205.013 L 444.12,205.077 L 444.065,205.125 L 444.009,205.172 L 443.96,205.205 L 443.873,205.226 L 443.806,205.235 L 443.749,205.258 L 443.703,205.301 L 443.597,205.548 L 443.544,205.66 L 443.53,205.75 L 443.489,205.858 L 443.424,205.948 L 443.328,206.047 L 443.084,206.238 L 443.035,206.281 L 442.955,206.355 L 442.917,206.421 L 442.871,206.506 L 442.843,206.559 L 442.791,206.623 L 442.803,206.706 L 442.782,206.804 L 442.76,206.868 L 442.728,206.919 L 442.674,206.95 L 442.544,207.026 L 442.478,207.071 L 442.437,207.112 L 442.384,207.223 L 442.362,207.292 L 442.342,207.376 L 442.341,207.447 L 442.34,207.512 L 442.338,207.579 L 442.333,207.666 L 442.352,207.762 L 442.377,207.829 L 442.41,207.879 L 442.462,207.97 L 442.495,208.039 L 442.514,208.118 L 442.486,208.171 L 442.446,208.219 L 442.369,208.293 L 442.224,208.449 L 442.091,208.58 L 442.013,208.637 L 441.967,208.691 L 441.884,208.736 L 441.835,208.782 L 441.803,208.837 L 441.755,208.87 L 441.704,208.901 L 441.648,208.96 L 441.585,208.979 L 441.495,209.08 L 441.366,209.288 L 441.29,209.417 L 441.261,209.486 L 441.221,209.621 L 441.216,209.753 L 441.229,209.836 L 441.236,209.893 L 441.261,209.989 L 441.291,210.078 L 441.314,210.151 L 441.288,210.229 L 441.24,210.284 L 441.19,210.36 L 441.088,210.399 L 441.028,210.416 L 440.956,210.411 L 440.885,210.407 L 440.82,210.432 L 440.764,210.471 L 440.713,210.521 L 440.668,210.657 L 440.653,210.759 L 440.631,210.873 L 440.601,210.931 L 440.511,211.078 L 440.465,211.147 L 440.425,211.198 L 440.355,211.278 L 440.189,211.335 L 440.034,211.357 L 439.957,211.378 L 439.89,211.411 L 439.787,211.471 L 439.725,211.52 L 439.678,211.561 L 439.578,211.654 L 439.485,211.779 L 439.419,211.879 L 439.379,211.969 L 439.35,212.054 L 439.286,212.146 L 439.155,212.345 L 439.127,212.398 L 439.088,212.508 L 439.06,212.62 L 439.089,212.683 L 439.153,212.772 L 439.195,212.839 L 439.207,212.916 L 439.212,213.005 L 439.18,213.071 L 439.118,213.1 L 439.022,213.103 L 438.963,213.134 L 438.971,213.227 L 439.024,213.274 L 439.102,213.322 L 439.24,213.388 L 439.302,213.422 L 439.376,213.514 L 439.443,213.583 L 439.462,213.644 L 439.451,213.705 L 439.382,213.789 L 439.257,213.882 L 439.114,213.977 L 438.896,214.149 L 438.821,214.199 L 438.662,214.298 L 438.583,214.335 L 438.434,214.351 L 438.13,214.36 L 438.018,214.367 L 437.916,214.378 L 437.7,214.353 L 437.554,214.324 L 437.493,214.315 L 437.367,214.285 L 437.307,214.271 L 437.171,214.212 L 437.111,214.184 L 437.044,214.121 L 436.989,214.087 L 436.943,214.035 L 436.896,213.982 L 436.857,213.904 L 436.832,213.837 L 436.815,213.755 L 436.826,213.684 L 436.88,213.574 L 436.875,213.509 L 436.889,213.444 L 436.902,213.364 L 436.95,213.282 L 437.011,213.196 L 437.026,213.082 L 437.027,213.011 L 437.012,212.932 L 436.981,212.841 L 436.852,212.736 L 435.988,212.309 L 435.638,212.131 L 435.524,212.075 L 435.471,212.051 L 435.404,212.029 L 435.31,212.026 L 435.229,212.021 L 435.101,212.032 L 434.865,212.051 L 434.735,212.066 L 434.658,212.079 L 434.577,212.108 L 434.488,212.166 L 434.409,212.226 L 434.328,212.236 L 434.232,212.148 L 434.164,212.112 L 434.101,212.086 L 433.956,212.045 L 433.883,212.019 L 433.798,212.009 L 433.71,211.996 L 433.596,211.979 L 433.513,211.973 L 433.576,212.217 L 434.03,213.781 L 431.716,217.891 L 431.073,217.957 L 430.975,217.948 L 430.989,217.881 L 431.025,217.777 L 431.048,217.693 L 431.066,217.602 L 431.048,217.478 L 431.026,217.315 L 431.017,217.207 L 431.03,217.101 L 431.066,216.993 L 431.094,216.901 L 431.105,216.84 L 431.132,216.407 L 431.161,216.264 L 431.166,216.195 L 431.199,216.053 L 431.229,215.973 L 431.281,215.887 L 431.335,215.832 L 431.404,215.778 L 431.469,215.735 L 431.564,215.701 L 431.781,215.636 L 431.829,215.577 L 431.887,215.536 L 431.948,215.492 L 432.001,215.457 L 432.051,215.404 L 432.101,215.351 L 432.139,215.224 L 432.168,215.137 L 432.191,215.023 L 432.174,214.937 L 432.141,214.836 L 432.067,214.786 L 432.012,214.69 L 431.996,214.597 L 431.983,214.483 L 431.988,214.369 L 432.007,214.221 L 432.026,214.099 L 432.056,213.978 L 432.063,213.856 L 432.064,213.759 L 432.077,213.622 L 432.069,213.51 L 432.06,213.431 L 432.054,213.364 L 432.045,213.303 L 432.046,213.242 L 432.08,213.081 L 432.095,213.02 L 432.137,212.896 L 432.152,212.832 L 432.174,212.761 L 432.185,212.612 L 432.206,212.533 L 432.248,212.386 L 432.35,212.231 L 432.386,212.183 L 432.432,212.114 L 432.53,212.008 L 422.681,213.997 L 419.592,214.64 L 419.496,213.978 L 416.236,215.097 L 414.95,205.712 L 415.705,205.616 L 415.381,203.185 L 414.638,203.293 L 414.028,198.448 L 413.947,197.816 L 412.843,197.808 L 412.868,197.726 L 412.87,197.667 L 412.891,197.594 L 412.974,197.538 L 413.08,197.527 L 413.177,197.551 L 413.293,197.585 L 413.387,197.6 L 413.456,197.543 L 413.477,197.467 L 413.482,197.37 L 413.443,197.307 L 413.368,197.263 L 413.304,197.239 L 413.237,197.201 L 413.2,197.154 L 413.173,197.063 L 413.174,196.976 L 413.197,196.894 L 413.156,196.811 L 413.143,196.75 L 413.151,196.677 L 413.209,196.626 L 413.27,196.599 L 413.355,196.574 L 413.454,196.544 L 413.524,196.485 L 413.591,196.444 L 413.706,196.37 L 413.883,196.332 L 413.99,196.258 L 414.023,196.202 L 414.027,196.111 L 413.985,196.032 L 413.936,195.988 L 413.864,195.942 L 413.805,195.918 L 413.722,195.908 L 413.638,195.885 L 413.526,195.843 L 413.521,195.77 L 413.574,195.735 L 413.633,195.712 L 413.691,195.667 L 413.725,195.581 L 413.75,195.483 L 413.794,195.394 L 413.818,195.34 L 413.844,195.279 L 413.859,195.169 L 413.819,195.093 L 413.76,195.038 L 413.696,194.97 L 413.651,194.897 L 413.685,194.801 L 413.766,194.798 L 413.873,194.763 L 413.927,194.683 L 413.945,194.604 L 413.921,194.512 L 413.896,194.429 L 413.831,194.235 L 413.803,194.038 L 413.78,193.798 L 413.753,193.505 L 413.738,192.985 L 413.749,192.756 L 413.763,192.365 L 413.779,191.974 L 413.797,191.602 L 413.799,191.437 L 413.792,191.353 L 413.782,191.19 L 413.782,191.031 L 413.803,190.908 L 413.811,190.771 L 413.809,190.588 L 413.855,190.502 L 413.913,190.494 L 413.99,190.506 L 414.047,190.556 L 414.056,190.629 L 414.011,190.701 L 414.058,190.772 L 414.17,190.83 L 414.2,190.77 L 414.273,190.773 L 414.326,190.805 L 414.42,190.827 L 414.487,190.879 L 414.533,190.95 L 414.572,190.995 L 414.649,190.982 L 414.701,190.942 L 414.777,190.86 L 414.831,190.798 L 414.869,190.744 L 414.904,190.642 L 414.959,190.504 L 415.024,190.361 L 415.098,190.23 L 415.2,190.121 L 415.218,190.066 L 415.161,190.036 L 415.106,190.014 L 415.016,189.968 L 414.977,189.905 L 414.899,189.73 L 414.88,189.627 L 414.867,189.544 L 414.918,189.46 L 414.95,189.395 L 414.984,189.316 L 414.929,189.292 L 414.799,189.354 L 414.734,189.334 L 414.742,189.277 L 414.77,189.226 L 414.834,189.12 L 414.851,189.018 L 414.806,188.962 L 414.745,188.952 L 414.647,188.941 L 414.622,188.878 L 414.64,188.817 L 414.69,188.733 L 414.732,188.669 L 414.805,188.632 L 415.003,188.588 L 415.06,188.54 L 415.108,188.463 L 415.125,188.353 L 415.192,188.114 L 415.232,187.98 L 415.321,187.806 L 415.373,187.625 L 415.432,187.517 L 415.479,187.459 L 415.558,187.418 L 415.635,187.395 L 415.699,187.364 L 415.762,187.329 L 415.841,187.282 L 415.885,187.239 L 415.956,187.211 L 416.021,187.156 L 416.094,187.103 L 416.14,187.051 L 416.231,186.981 L 416.309,186.93 L 416.394,186.889 L 416.459,186.853 L 416.548,186.783 L 416.59,186.738 L 416.657,186.667 L 416.656,186.604 L 416.649,186.539 L 416.646,186.435 L 416.648,186.358 L 416.667,186.272 L 416.678,186.167 L 416.696,186.11 L 416.728,186.052 L 416.751,185.955 L 416.812,185.855 L 416.862,185.785 L 416.893,185.673 L 416.903,185.596 L 416.934,185.51 L 416.972,185.432 L 417.014,185.367 L 417.052,185.306 L 417.099,185.247 L 417.057,185.192 L 417.006,185.142 L 416.967,185.089 L 416.968,185.016 L 416.994,184.963 L 417.036,184.91 L 417.087,184.883 L 417.188,184.829 L 417.419,184.728 L 417.605,184.649 L 417.691,184.662 L 417.756,184.676 L 417.803,184.714 L 417.885,184.79 L 417.987,184.777 L 418.017,184.712 L 418.09,184.699 L 418.157,184.735 L 418.229,184.804 L 418.266,184.874 L 418.279,184.962 L 418.289,185.059 L 418.316,185.132 L 418.373,185.19 L 418.433,185.265 L 418.521,185.368 L 418.548,185.419 L 418.611,185.538 L 418.634,185.595 L 418.706,185.728 L 418.766,185.789 L 418.839,185.794 L 418.912,185.769 L 418.991,185.788 L 419.041,185.827 L 419.168,185.948 L 420.742,183.606 L 422.936,184.787 L 424.247,185.448 L 424.539,185.462 L 424.594,185.489 L 424.68,185.509 L 424.772,185.514 L 424.847,185.485 L 424.941,185.451 L 424.989,185.417 L 425.027,185.369 L 425.11,185.284 L 425.092,185.179 L 425.146,185.098 L 425.209,185.034 L 425.267,185 L 425.482,184.895 L 425.617,184.829 L 425.785,184.713 L 425.873,184.632 L 425.903,184.536 L 425.916,184.456 L 425.901,184.354 L 425.882,184.284 L 425.871,184.221 L 425.836,184.075 L 425.667,183.876 L 425.599,183.785 L 425.551,183.703 L 425.548,183.613 L 425.584,183.527 L 425.662,183.426 L 425.692,183.338 L 425.697,183.268 L 425.704,183.201 L 425.724,183.127 L 425.753,183.052 L 425.789,183.004 L 425.844,182.957 L 425.931,182.905 L 425.991,182.888 L 426.048,182.861 L 426.139,182.807 L 426.196,182.784 L 426.221,182.698 L 426.228,182.631 L 426.221,182.531 L 426.235,182.458 L 426.266,182.376 L 426.31,182.333 L 426.383,182.267 L 426.433,182.232 L 426.524,182.188 L 426.579,182.169 L 426.655,182.087 L 426.73,182.064 L 426.793,182.028 L 426.879,181.971 L 426.978,181.907 L 427.088,181.855 L 427.193,181.839 L 427.349,181.817 L 427.42,181.806 L 427.504,181.848 L 427.588,181.845 L 427.665,181.818 L 427.741,181.766 L 427.817,181.674 L 427.882,181.588 L 427.919,181.514 L 427.961,181.419 L 428.031,181.361 L 428.257,181.515 L 430.716,183.014 L 434.315,175.414"
       id="path15409"
       style="fill-rule:evenodd" />
   </g>
</svg>