<svg
   xmlns:svg="http://www.w3.org/2000/svg"
   xmlns="http://www.w3.org/2000/svg"
   version="1.0"
   width="2100"
   height="1300"
   viewBox="0 0 2100 1300"
   id="svg14921">
   <g
     transform="matrix(2.2640019,0,0,2.2640019,-216.71416,-21.6991)"
     id="g14955"
     style="font-size:16.25px;font-style:normal;font-weight:400;fill:#fefee9;fill-opacity:1;fill-rule:evenodd;stroke:#000000;stroke-width:0.0984252;stroke-linecap:square;stroke-linejoin:bevel;stroke-opacity:1;font-family:Lucida Grande">
    <path
       name="haverhill" d="M 727.219,32.7827 L 735.588,37.4676 L 741.031,40.5365 L 741.105,40.7281 L 741.165,40.834 L 741.195,40.9204 L 741.245,41.0659 L 741.267,41.1937 L 741.286,41.3884 L 741.291,41.5712 L 741.254,41.7663 L 741.194,41.9398 L 741.145,42.0582 L 741.114,42.1192 L 741.079,42.1705 L 741.066,42.2472 L 741.024,42.3336 L 740.983,42.4305 L 740.921,42.5372 L 740.853,42.6521 L 740.756,42.8163 L 740.63,43.0104 L 740.548,43.139 L 740.438,43.3013 L 740.352,43.4301 L 740.239,43.5905 L 740.132,43.7174 L 740.056,43.8206 L 739.965,43.9039 L 739.859,43.9973 L 739.551,44.244 L 738.347,45.0258 L 738.128,45.1753 L 737.837,45.3746 L 737.598,45.5598 L 737.378,45.7564 L 737.163,45.9493 L 737.052,46.0603 L 736.925,46.1953 L 736.81,46.3204 L 736.645,46.501 L 736.477,46.7032 L 736.405,46.7983 L 736.225,47.0834 L 736.147,47.2455 L 736.086,47.3681 L 736.051,47.4667 L 736.003,47.6091 L 735.957,47.826 L 735.92,48.0687 L 735.879,48.4137 L 735.857,48.5694 L 735.817,48.7509 L 735.745,49.0469 L 735.645,49.4279 L 735.631,49.5427 L 735.567,49.9129 L 735.524,50.2284 L 735.473,50.5558 L 735.42,50.8361 L 735.382,51.0137 L 735.335,51.207 L 735.233,51.5523 L 735.153,51.819 L 735.07,52.0323 L 734.971,52.2754 L 734.915,52.4079 L 734.854,52.5462 L 734.755,52.7401 L 734.487,53.1893 L 734.34,53.4209 L 734.151,53.714 L 733.92,54.0388 L 733.755,54.2528 L 733.388,54.8072 L 732.689,56.0162 L 731.486,58.2358 L 731.403,58.3545 L 731.289,58.4599 L 731.176,58.5534 L 731.094,58.6249 L 730.985,58.7086 L 730.879,58.7822 L 730.78,58.8343 L 730.658,58.8866 L 730.507,58.935 L 730.239,59.016 L 730.381,59.5899 L 730.393,59.6743 L 730.449,59.7509 L 730.502,59.8173 L 730.485,59.9021 L 730.403,59.948 L 730.307,59.9548 L 730.238,59.979 L 730.219,60.0441 L 729.876,60.3405 L 729.783,61.4067 L 729.749,61.7779 L 728.798,62.7731 L 727.679,64.9316 L 726.342,66.8982 L 726.144,67.5021 L 722.788,67.4407 L 722.294,66.8133 L 720.291,66.0773 L 719.768,66.1116 L 718.716,66.2739 L 718.231,65.9969 L 717.613,65.9764 L 716.251,66.5871 L 713.507,66.5927 L 711.741,64.5946 L 711.746,64.5171 L 711.742,64.4127 L 711.739,64.3242 L 711.727,64.2062 L 711.697,64.0668 L 711.662,63.9172 L 711.626,63.8053 L 711.568,63.6755 L 711.517,63.5163 L 711.327,63.2116 L 711.052,62.801 L 710.477,61.9716 L 710.408,61.8734 L 710.32,61.7773 L 710.253,61.6948 L 710.052,61.5081 L 709.46,61.0771 L 709.302,60.9729 L 709.186,60.839 L 709.069,60.6802 L 709.025,60.6053 L 708.424,59.4665 L 708.325,59.2567 L 708.112,58.7919 L 707.936,58.1999 L 707.909,57.9919 L 707.908,57.8873 L 707.906,57.7515 L 694.713,46.396 L 698.692,41.3144 L 707.258,36.9291 L 709.378,37.5656 L 711.508,38.2321 L 724.602,42.1118 L 727.219,32.7827"
       id="path14965"
       style="fill-rule:evenodd" />
   </g>
</svg>