<svg
   xmlns:svg="http://www.w3.org/2000/svg"
   xmlns="http://www.w3.org/2000/svg"
   version="1.0"
   width="2100"
   height="1300"
   viewBox="0 0 2100 1300"
   id="svg14921">
   <g
     transform="matrix(2.2640019,0,0,2.2640019,-216.71416,-21.6991)"
     id="g14955"
     style="font-size:16.25px;font-style:normal;font-weight:400;fill:#fefee9;fill-opacity:1;fill-rule:evenodd;stroke:#000000;stroke-width:0.0984252;stroke-linecap:square;stroke-linejoin:bevel;stroke-opacity:1;font-family:Lucida Grande">
    <path
       name="holden" d="M 529.55,171.055 L 533.145,180.775 L 531.471,180.416 L 533.74,190.668 L 537.046,205.733 L 518.48,220.951 L 518.29,221.107 L 516.557,219.243 L 517.193,218.649 L 517.207,217.874 L 517.334,217.296 L 516.957,217.072 L 516.665,217.299 L 514.154,217.907 L 511.913,211.833 L 511.722,211.842 L 509.194,204.934 L 511.122,204.164 L 510.554,202.483 L 511.615,202.09 L 510.678,199.392 L 507.254,199.906 L 504.725,192.905 L 507.48,190.566 L 515.256,183.767 L 518.673,180.774 L 529.55,171.055"
       id="path15393"
       style="fill-rule:evenodd" />
   </g>
</svg>