<svg
   xmlns:svg="http://www.w3.org/2000/svg"
   xmlns="http://www.w3.org/2000/svg"
   version="1.0"
   width="2100"
   height="1300"
   viewBox="0 0 2100 1300"
   id="svg14921">
   <g
     transform="matrix(2.2640019,0,0,2.2640019,-216.71416,-21.6991)"
     id="g14955"
     style="font-size:16.25px;font-style:normal;font-weight:400;fill:#fefee9;fill-opacity:1;fill-rule:evenodd;stroke:#000000;stroke-width:0.0984252;stroke-linecap:square;stroke-linejoin:bevel;stroke-opacity:1;font-family:Lucida Grande">
    <path
       name="holliston" d="M 634.648,237.943 L 634.739,237.923 L 634.824,237.919 L 634.92,237.925 L 635.036,237.949 L 635.323,238.025 L 635.394,238.094 L 635.433,238.18 L 635.496,238.277 L 635.561,238.383 L 635.625,238.49 L 635.688,238.583 L 635.755,238.646 L 635.841,238.703 L 635.924,238.758 L 636.016,238.818 L 636.081,238.871 L 636.217,238.982 L 636.341,239.067 L 636.388,239.126 L 636.405,239.191 L 636.405,239.258 L 636.389,239.383 L 636.395,239.541 L 636.502,240.911 L 636.533,241.223 L 636.564,241.381 L 636.615,241.479 L 636.674,241.56 L 636.727,241.605 L 636.817,241.674 L 636.933,241.765 L 637.066,241.84 L 637.159,241.921 L 637.218,242.009 L 637.284,242.122 L 637.347,242.293 L 637.452,242.657 L 637.472,242.743 L 637.462,242.812 L 637.448,242.95 L 637.438,243.058 L 637.449,243.141 L 637.463,243.227 L 637.512,243.333 L 637.533,243.436 L 637.556,243.558 L 637.546,243.697 L 637.52,243.868 L 637.491,243.922 L 637.293,244.208 L 637.234,244.326 L 637.216,244.397 L 637.224,244.466 L 637.22,244.539 L 637.214,244.639 L 637.483,244.694 L 637.69,244.72 L 637.74,245.01 L 637.821,244.925 L 637.896,244.831 L 639.278,245.777 L 638.839,245.977 L 638.833,246.122 L 638.862,246.182 L 639.027,246.294 L 639.102,246.375 L 639.182,246.518 L 639.278,246.588 L 639.359,246.607 L 639.445,246.647 L 639.52,246.688 L 639.596,246.745 L 639.634,246.798 L 639.691,246.867 L 639.742,246.95 L 639.83,247.009 L 639.954,247.065 L 640.091,247.142 L 640.172,247.22 L 640.213,247.319 L 640.232,247.476 L 640.245,247.612 L 640.219,247.775 L 640.237,247.834 L 640.306,247.885 L 640.349,247.929 L 640.408,247.929 L 640.471,247.948 L 640.455,248.027 L 640.518,248.082 L 640.571,248.116 L 640.543,248.191 L 640.531,248.362 L 641.323,248.636 L 641.913,247.727 L 642.705,248.318 L 642.786,249.575 L 644.859,250.458 L 643.664,253.812 L 638.652,255.065 L 639.198,258.375 L 633.752,258.604 L 633.708,258.213 L 632.058,258.178 L 628.517,259.739 L 623.398,265.494 L 621.176,265.951 L 619.796,265.974 L 619.826,262.838 L 615.948,262.718 L 614.835,262.564 L 614.32,259.159 L 613.502,254.058 L 614.311,253.417 L 615.121,252.794 L 618.714,249.718 L 624.377,245.5 L 623.435,241.89 L 622.624,240.501 L 634.648,237.943"
       id="path15655"
       style="fill-rule:evenodd" />
   </g>
</svg>