<svg
   xmlns:svg="http://www.w3.org/2000/svg"
   xmlns="http://www.w3.org/2000/svg"
   version="1.0"
   width="2100"
   height="1300"
   viewBox="0 0 2100 1300"
   id="svg14921">
   <g
     transform="matrix(2.2640019,0,0,2.2640019,-216.71416,-21.6991)"
     id="g14955"
     style="font-size:16.25px;font-style:normal;font-weight:400;fill:#fefee9;fill-opacity:1;fill-rule:evenodd;stroke:#000000;stroke-width:0.0984252;stroke-linecap:square;stroke-linejoin:bevel;stroke-opacity:1;font-family:Lucida Grande">
    <path
       name="holland" d="M 451.394,288.117 L 451.05,308.941 L 449.134,308.817 L 434.868,308.538 L 434.873,308.478 L 434.87,308.388 L 434.839,308.321 L 434.806,308.269 L 434.764,308.218 L 434.723,308.176 L 434.972,307.043 L 434.576,306.242 L 433.957,305.612 L 434.309,304.01 L 434.759,303.495 L 434.834,303.407 L 434.949,303.307 L 435.089,303.153 L 435.355,302.922 L 435.41,302.857 L 435.466,302.761 L 435.485,302.704 L 435.519,302.579 L 435.558,302.438 L 435.56,302.286 L 435.628,301.911 L 435.51,301.766 L 435.414,301.655 L 435.35,301.568 L 435.294,301.498 L 435.208,301.385 L 435.176,301.31 L 435.135,301.223 L 435.06,301.081 L 435.027,301.025 L 434.982,300.93 L 434.956,300.826 L 434.945,300.767 L 434.918,300.692 L 434.846,300.62 L 434.793,300.539 L 434.782,300.454 L 434.787,300.358 L 434.798,300.248 L 434.806,300.051 L 434.803,299.947 L 434.811,299.748 L 434.834,299.591 L 434.853,299.489 L 434.885,299.392 L 434.924,299.265 L 434.968,299.161 L 435.006,299.071 L 435.067,298.961 L 435.153,298.799 L 435.193,298.718 L 435.237,298.607 L 435.274,298.522 L 435.304,298.424 L 435.341,298.289 L 435.352,298.2 L 435.412,298.04 L 435.435,297.943 L 435.449,297.877 L 435.46,297.769 L 435.479,297.676 L 435.493,297.609 L 435.498,297.531 L 435.507,297.432 L 435.527,297.362 L 435.557,297.305 L 435.601,297.205 L 435.65,297.103 L 435.69,297.023 L 435.766,296.905 L 435.835,296.796 L 435.975,296.61 L 436.053,296.495 L 436.276,296.257 L 436.257,295.716 L 436.486,293.671 L 436.503,293.567 L 436.51,293.439 L 436.501,293.333 L 436.506,293.211 L 436.496,293.081 L 436.505,292.947 L 436.524,292.825 L 436.51,292.561 L 436.506,292.447 L 436.495,292.172 L 436.484,292.059 L 436.466,291.876 L 436.449,291.811 L 436.424,291.716 L 436.39,291.606 L 436.367,291.511 L 436.35,291.424 L 436.326,291.308 L 436.312,291.145 L 436.377,291.131 L 436.434,291.106 L 436.484,291.073 L 436.771,290.039 L 436.541,289.265 L 436.49,289.038 L 436.486,288.976 L 436.491,288.915 L 436.486,288.848 L 436.498,288.789 L 436.523,288.681 L 436.535,288.616 L 436.566,288.524 L 436.57,288.461 L 436.571,288.376 L 436.574,288.264 L 436.579,287.984 L 436.58,287.857 L 436.605,287.707 L 451.394,288.117"
       id="path15789"
       style="fill-rule:evenodd" />
   </g>
</svg>