<svg
   xmlns:svg="http://www.w3.org/2000/svg"
   xmlns="http://www.w3.org/2000/svg"
   version="1.0"
   width="2100"
   height="1300"
   viewBox="0 0 2100 1300"
   id="svg14921">
   <g
     transform="matrix(2.2640019,0,0,2.2640019,-216.71416,-21.6991)"
     id="g14955"
     style="font-size:16.25px;font-style:normal;font-weight:400;fill:#fefee9;fill-opacity:1;fill-rule:evenodd;stroke:#000000;stroke-width:0.0984252;stroke-linecap:square;stroke-linejoin:bevel;stroke-opacity:1;font-family:Lucida Grande">
    <path
       name="holyoke" d="M 329.615,219.487 L 329.716,219.604 L 329.785,219.658 L 329.843,219.698 L 329.962,219.78 L 330.084,219.83 L 330.193,219.865 L 330.331,219.875 L 330.487,219.907 L 331.042,220.02 L 331.363,220.095 L 331.486,220.124 L 331.568,220.148 L 331.681,220.18 L 331.734,220.206 L 331.818,220.26 L 331.92,220.34 L 332.068,220.51 L 332.394,220.888 L 332.443,220.95 L 332.511,221.045 L 332.703,221.3 L 332.724,221.393 L 332.762,221.523 L 332.778,221.641 L 332.803,221.74 L 332.815,221.835 L 332.804,221.958 L 332.787,222.086 L 332.774,222.219 L 332.778,222.31 L 332.799,222.428 L 332.839,222.515 L 332.899,222.634 L 332.962,222.741 L 333.003,222.824 L 333.022,222.883 L 333.045,222.966 L 333.061,223.041 L 333.076,223.114 L 333.116,223.221 L 333.148,223.345 L 333.143,223.455 L 333.15,223.581 L 333.244,224.783 L 333.261,224.954 L 333.262,225.107 L 333.264,225.218 L 333.226,225.63 L 333.223,225.736 L 333.204,225.839 L 333.189,225.968 L 333.162,226.084 L 333.109,226.188 L 333.069,226.307 L 333.034,226.419 L 332.995,226.527 L 332.964,226.646 L 332.908,226.713 L 332.87,226.793 L 332.781,226.876 L 332.683,226.926 L 331.06,228.274 L 330.931,228.397 L 330.811,228.543 L 330.437,229.03 L 330.361,229.124 L 330.167,229.365 L 330.029,229.531 L 329.949,229.646 L 329.757,230.06 L 329.68,230.195 L 329.58,230.333 L 329.409,230.556 L 329.291,230.772 L 329.177,231.021 L 329.028,231.321 L 328.933,231.483 L 328.661,231.929 L 328.26,232.565 L 328.176,232.742 L 328.083,232.95 L 327.954,233.261 L 327.716,233.883 L 327.378,234.808 L 326.676,236.829 L 326.665,236.915 L 326.661,237.023 L 326.64,237.121 L 326.65,237.222 L 326.658,237.358 L 326.661,237.48 L 326.677,237.636 L 326.697,237.798 L 326.721,238.033 L 326.74,238.299 L 326.788,238.418 L 326.818,238.485 L 326.856,238.557 L 326.939,238.686 L 327.039,238.8 L 327.255,238.967 L 327.43,239.082 L 327.756,239.253 L 327.972,239.398 L 328.18,239.516 L 328.383,239.649 L 328.566,239.77 L 328.749,239.889 L 328.901,239.996 L 329.021,240.11 L 329.156,240.256 L 329.295,240.424 L 329.345,240.513 L 329.396,240.587 L 329.448,240.659 L 329.504,240.746 L 329.544,240.818 L 329.571,240.873 L 329.62,240.963 L 329.668,241.048 L 329.697,241.108 L 329.726,241.214 L 329.745,241.276 L 329.772,241.337 L 329.774,241.406 L 329.804,241.525 L 329.816,241.625 L 329.825,241.683 L 329.832,241.74 L 329.842,241.825 L 329.868,241.944 L 329.876,242.042 L 329.925,242.259 L 329.959,242.392 L 329.971,242.465 L 329.987,242.554 L 330.028,242.612 L 330.038,242.699 L 330.066,242.776 L 330.093,242.845 L 330.153,242.98 L 330.201,243.079 L 330.255,243.157 L 330.301,243.231 L 330.376,243.307 L 330.444,243.381 L 330.496,243.437 L 330.571,243.517 L 330.626,243.574 L 330.668,243.636 L 330.774,243.734 L 330.844,243.81 L 330.919,243.882 L 330.993,243.935 L 331.048,243.987 L 331.178,244.072 L 331.25,244.128 L 331.341,244.196 L 331.528,244.337 L 331.59,244.372 L 331.664,244.43 L 331.74,244.488 L 331.814,244.515 L 331.869,244.547 L 331.929,244.582 L 332.038,244.633 L 332.108,244.683 L 332.2,244.722 L 332.292,244.759 L 332.37,244.794 L 332.497,244.851 L 332.573,244.885 L 332.738,244.945 L 332.839,244.982 L 332.949,245.014 L 333.031,245.04 L 333.208,245.09 L 333.386,245.123 L 333.549,245.173 L 333.603,245.193 L 333.693,245.234 L 333.792,245.226 L 333.884,245.245 L 333.994,245.27 L 334.103,245.286 L 334.263,245.3 L 334.334,245.301 L 334.396,245.322 L 334.437,245.381 L 334.708,245.773 L 334.798,245.918 L 334.841,246.033 L 334.9,246.178 L 334.943,246.33 L 334.975,246.484 L 335.014,246.654 L 335.056,246.808 L 335.118,247.004 L 335.111,247.109 L 335.137,247.276 L 335.162,247.46 L 335.178,247.559 L 335.178,247.637 L 335.193,247.724 L 335.199,247.791 L 335.202,247.88 L 335.21,247.965 L 335.203,248.044 L 335.206,248.107 L 335.205,248.166 L 335.183,248.262 L 335.165,248.322 L 335.126,248.379 L 335.086,248.451 L 335.033,248.551 L 334.974,248.641 L 334.92,248.722 L 334.876,248.767 L 334.811,248.861 L 334.777,248.917 L 334.709,249.005 L 334.646,249.067 L 334.566,249.148 L 334.482,249.224 L 334.438,249.268 L 334.404,249.325 L 334.33,249.397 L 334.264,249.455 L 334.21,249.513 L 334.124,249.584 L 333.984,249.71 L 333.689,249.93 L 332.292,251 L 332.182,251.087 L 332.118,251.141 L 332.044,251.218 L 331.533,251.758 L 331.449,251.849 L 331.403,251.898 L 331.344,251.956 L 331.291,252.001 L 331.217,252.064 L 331.147,252.122 L 331.089,252.18 L 331.029,252.229 L 330.945,252.279 L 330.838,252.36 L 330.746,252.419 L 330.655,252.475 L 330.587,252.504 L 330.506,252.554 L 330.377,252.618 L 328.078,253.691 L 327.785,253.819 L 327.701,253.853 L 327.607,253.876 L 327.493,253.907 L 327.411,253.94 L 327.339,253.953 L 327.257,253.992 L 327.177,254.019 L 327.113,254.051 L 327.017,254.083 L 326.943,254.118 L 326.875,254.155 L 326.818,254.183 L 326.763,254.218 L 326.693,254.261 L 326.644,254.292 L 326.602,254.335 L 326.557,254.38 L 326.502,254.436 L 326.448,254.54 L 326.417,254.599 L 326.363,254.698 L 326.32,254.774 L 326.244,254.877 L 326.162,255.035 L 326.089,255.187 L 326.012,255.351 L 325.949,255.496 L 325.877,255.683 L 325.821,255.864 L 325.766,256.03 L 325.73,256.159 L 325.628,256.547 L 325.554,256.867 L 325.46,257.257 L 325.327,258.077 L 325.227,258.85 L 325.191,259.654 L 325.177,260.311 L 325.177,260.681 L 325.175,260.803 L 325.19,260.974 L 325.215,261.144 L 325.276,261.53 L 325.382,261.978 L 325.379,262.175 L 325.383,262.253 L 310.732,261.728 L 310.339,254.693 L 310.424,253.673 L 310.437,253.447 L 310.467,253.264 L 310.509,253.078 L 310.537,252.884 L 310.542,252.817 L 310.535,252.746 L 310.52,252.6 L 310.486,252.233 L 310.047,248.734 L 309.563,244.467 L 314.79,243.378 L 315.43,240.303 L 318.311,239.573 L 321.11,231.876 L 324.167,223.677 L 326.738,221.715 L 329.615,219.487"
       id="path15561"
       style="fill-rule:evenodd" />
   </g>
</svg>