<svg
   xmlns:svg="http://www.w3.org/2000/svg"
   xmlns="http://www.w3.org/2000/svg"
   version="1.0"
   width="2100"
   height="1300"
   viewBox="0 0 2100 1300"
   id="svg14921">
   <g
     transform="matrix(2.2640019,0,0,2.2640019,-216.71416,-21.6991)"
     id="g14955"
     style="font-size:16.25px;font-style:normal;font-weight:400;fill:#fefee9;fill-opacity:1;fill-rule:evenodd;stroke:#000000;stroke-width:0.0984252;stroke-linecap:square;stroke-linejoin:bevel;stroke-opacity:1;font-family:Lucida Grande">
    <path
       name="hopkinton" d="M 608.529,228.22 L 608.389,232.115 L 614.138,233.848 L 614.321,233.848 L 617.78,234.934 L 617.703,240.332 L 620.508,240.949 L 622.624,240.501 L 623.435,241.89 L 624.377,245.5 L 618.714,249.718 L 615.121,252.794 L 614.311,253.417 L 613.502,254.058 L 612.411,254.915 L 604.084,254.648 L 599.931,257.086 L 599.968,256.917 L 599.991,256.858 L 600.016,256.766 L 600.027,256.679 L 600.049,256.618 L 600.083,256.521 L 600.098,256.417 L 600.102,256.328 L 600.039,256.334 L 599.974,256.352 L 599.974,256.282 L 599.993,256.213 L 599.963,256.132 L 599.918,256.081 L 599.866,256.017 L 599.789,255.98 L 599.693,256.016 L 599.646,255.971 L 599.665,255.88 L 599.712,255.801 L 599.75,255.717 L 599.758,255.62 L 599.767,255.518 L 599.774,255.457 L 599.8,255.403 L 599.821,255.344 L 599.767,255.24 L 599.836,255.192 L 599.828,255.12 L 599.857,255.06 L 599.902,254.997 L 599.909,254.907 L 599.904,254.824 L 599.922,254.755 L 599.909,254.619 L 599.903,254.519 L 599.886,254.426 L 599.864,254.322 L 599.852,254.204 L 599.845,254.073 L 599.839,253.99 L 599.809,253.917 L 599.765,253.813 L 599.707,253.698 L 595.73,253.585 L 595.762,253.356 L 595.797,253.255 L 595.844,253.159 L 595.898,253.046 L 595.939,252.91 L 592.945,252.595 L 588.026,244.888 L 588.782,242.131 L 591.071,233.819 L 591.972,230.598 L 598.46,227.739 L 598.633,227.731 L 598.731,227.757 L 598.802,227.789 L 598.874,227.812 L 598.947,227.805 L 599.05,227.8 L 599.122,227.802 L 599.191,227.785 L 599.214,227.848 L 599.291,227.88 L 599.409,227.874 L 599.506,227.843 L 599.565,227.789 L 599.619,227.74 L 599.672,227.697 L 599.745,227.704 L 599.833,227.736 L 599.9,227.79 L 599.99,227.797 L 600.043,227.844 L 600.109,227.867 L 600.184,227.838 L 600.236,227.785 L 600.329,227.763 L 600.393,227.775 L 600.493,227.823 L 600.591,227.865 L 600.705,227.916 L 600.795,227.968 L 600.875,228.037 L 600.931,228.077 L 600.984,228.111 L 601.063,228.141 L 601.147,228.17 L 601.235,228.224 L 601.321,228.26 L 601.396,228.288 L 601.454,228.326 L 601.525,228.354 L 601.646,228.428 L 601.734,228.437 L 601.846,228.471 L 601.881,228.521 L 602.007,228.577 L 602.185,228.658 L 602.25,228.627 L 602.34,228.643 L 602.403,228.667 L 602.418,228.754 L 602.476,228.841 L 602.568,228.882 L 602.712,228.885 L 602.793,228.815 L 602.843,228.784 L 602.899,228.835 L 602.849,228.904 L 602.902,228.983 L 602.97,229.017 L 603.064,229.038 L 603.133,229.034 L 603.216,229.059 L 603.276,229.073 L 603.347,229.082 L 603.44,229.092 L 603.506,229.121 L 603.553,229.159 L 603.594,229.208 L 603.635,229.257 L 603.67,229.307 L 603.744,229.384 L 603.82,229.438 L 603.936,229.471 L 604.038,229.44 L 604.09,229.398 L 604.147,229.347 L 604.209,229.281 L 604.273,229.181 L 604.325,229.089 L 604.359,229.001 L 604.439,228.884 L 604.526,228.875 L 604.59,228.877 L 604.697,228.876 L 604.813,228.866 L 604.953,228.837 L 604.996,228.796 L 605.044,228.76 L 605.125,228.733 L 605.21,228.712 L 605.285,228.693 L 605.367,228.686 L 605.44,228.661 L 605.521,228.632 L 605.591,228.582 L 605.654,228.537 L 605.729,228.481 L 605.816,228.413 L 605.872,228.368 L 605.983,228.328 L 606.063,228.317 L 606.168,228.31 L 606.302,228.299 L 606.447,228.271 L 606.662,228.25 L 606.831,228.248 L 607.018,228.241 L 607.523,228.292 L 607.608,228.316 L 607.707,228.354 L 607.788,228.383 L 607.872,228.401 L 607.969,228.398 L 608.06,228.363 L 608.127,228.329 L 608.188,228.298 L 608.275,228.251 L 608.344,228.226 L 608.468,228.22 L 608.529,228.22"
       id="path15595"
       style="fill-rule:evenodd" />
   </g>
</svg>