<svg
   xmlns:svg="http://www.w3.org/2000/svg"
   xmlns="http://www.w3.org/2000/svg"
   version="1.0"
   width="2100"
   height="1300"
   viewBox="0 0 2100 1300"
   id="svg14921">
   <g
     transform="matrix(2.2640019,0,0,2.2640019,-216.71416,-21.6991)"
     id="g14955"
     style="font-size:16.25px;font-style:normal;font-weight:400;fill:#fefee9;fill-opacity:1;fill-rule:evenodd;stroke:#000000;stroke-width:0.0984252;stroke-linecap:square;stroke-linejoin:bevel;stroke-opacity:1;font-family:Lucida Grande">
    <path
       name="hull" d="M 786.53,228.077 L 786.455,228.195 L 786.326,228.245 L 784.142,228.086 L 784.073,228.09 L 783.936,228.133 L 783.835,228.181 L 783.72,228.277 L 783.545,228.399 L 783.313,228.59 L 783.258,228.634 L 783.212,228.68 L 783.154,228.766 L 783.14,228.847 L 783.13,228.946 L 783.073,229.037 L 782.996,229.141 L 782.948,229.214 L 782.885,229.322 L 782.818,229.406 L 782.701,229.481 L 782.582,229.526 L 782.455,229.566 L 782.292,229.604 L 782.105,229.625 L 781.967,229.63 L 781.883,229.625 L 781.785,229.612 L 781.721,229.608 L 781.648,229.622 L 781.59,229.65 L 781.532,229.667 L 781.432,229.695 L 781.319,229.764 L 781.201,229.804 L 781.118,229.832 L 780.936,230.046 L 780.842,230.123 L 780.715,230.157 L 780.61,230.115 L 780.527,230.092 L 780.469,230.076 L 780.405,230.058 L 780.333,230.038 L 779.864,229.91 L 779.682,229.89 L 779.43,229.829 L 779.349,229.531 L 779.237,229.373 L 779.237,229.295 L 779.434,229.386 L 779.898,229.288 L 780.038,229.154 L 779.811,229.235 L 779.669,229.236 L 779.511,229.188 L 779.235,229.066 L 779.179,228.996 L 779.101,229.026 L 779.046,229.09 L 778.993,229.281 L 778.956,229.62 L 778.871,229.818 L 778.856,229.951 L 778.786,230.016 L 778.676,230.037 L 778.62,230.014 L 778.533,229.852 L 778.446,229.877 L 778.267,230.136 L 778.204,230.123 L 778.264,229.687 L 778.043,229.665 L 777.878,229.707 L 777.848,229.857 L 777.62,229.945 L 777.227,229.981 L 776.905,230.133 L 776.818,230.126 L 776.849,230.023 L 776.541,229.946 L 776.504,229.894 L 776.402,229.851 L 776.523,229.694 L 776.891,229.544 L 776.223,229.564 L 776.065,229.494 L 776.064,229.398 L 776.166,229.264 L 776.094,229.177 L 775.873,229.149 L 775.836,229.022 L 775.806,228.92 L 775.831,228.809 L 776.073,228.548 L 776.717,228.274 L 776.787,228.21 L 776.763,228.118 L 776.62,227.986 L 776.563,227.78 L 776.618,227.725 L 776.783,227.677 L 776.79,227.565 L 776.592,227.481 L 776.6,227.419 L 776.789,227.401 L 776.962,227.461 L 776.963,227.563 L 776.916,227.627 L 776.917,227.692 L 777.012,227.847 L 777.383,227.836 L 777.642,227.748 L 777.846,227.739 L 778.045,228.021 L 778.11,228.249 L 778.22,228.224 L 778.424,228.072 L 778.642,227.833 L 778.743,227.629 L 778.819,227.298 L 778.817,227.053 L 778.641,226.676 L 778.514,226.553 L 778.427,226.528 L 778.066,226.634 L 777.885,226.627 L 777.892,226.534 L 777.954,226.461 L 778.189,226.317 L 778.228,226.27 L 778.212,226.183 L 777.871,225.865 L 777.76,225.787 L 777.499,225.733 L 777.264,225.768 L 776.887,225.897 L 776.761,225.99 L 776.77,226.108 L 777.04,226.367 L 777.041,226.525 L 776.963,226.605 L 776.822,226.674 L 776.633,226.717 L 776.365,226.718 L 776.074,226.649 L 775.773,226.463 L 775.717,226.393 L 775.684,226.124 L 775.746,226.039 L 775.933,225.841 L 776.085,225.139 L 776.132,225.044 L 776.311,224.868 L 776.546,224.716 L 776.609,224.652 L 776.6,224.575 L 776.441,224.412 L 776.306,224.137 L 776.21,224.028 L 776.155,224.011 L 775.95,224.045 L 775.66,224.149 L 774.74,224.338 L 774.379,224.435 L 774.1,224.468 L 773.446,224.323 L 772.39,224.149 L 772.051,224.175 L 771.761,224.357 L 771.58,224.415 L 771.336,224.4 L 770.666,224.206 L 770.327,224.179 L 770.279,224.146 L 770.287,224.068 L 770.49,223.892 L 770.734,223.813 L 771.033,223.82 L 771.49,223.909 L 771.805,223.899 L 772.088,223.835 L 772.245,223.772 L 772.867,223.744 L 773.032,223.702 L 773.212,223.52 L 773.304,223.111 L 773.326,222.859 L 773.222,222.685 L 773.112,222.592 L 772.779,222.233 L 772.367,221.879 L 772.303,221.785 L 772.339,221.26 L 772.303,220.597 L 772.216,220.448 L 772.026,220.317 L 771.828,220.127 L 771.788,220.051 L 771.731,219.798 L 771.697,219.396 L 771.641,219.224 L 771.6,219.042 L 771.544,218.901 L 771.338,218.7 L 770.856,218.466 L 770.745,218.308 L 770.727,218.057 L 770.756,217.672 L 770.794,217.466 L 770.832,217.173 L 770.828,216.677 L 770.91,215.905 L 770.949,215.78 L 770.963,215.653 L 771.057,215.47 L 771.21,214.864 L 771.209,214.699 L 771.153,214.605 L 771.058,214.527 L 770.483,214.38 L 770.198,214.217 L 770.016,214.037 L 769.857,213.827 L 769.77,213.818 L 769.605,213.875 L 769.141,213.886 L 769.07,213.919 L 768.882,214.101 L 768.733,214.196 L 768.403,214.323 L 767.994,214.326 L 767.813,214.421 L 767.665,214.596 L 767.658,214.745 L 767.485,214.788 L 767.43,214.857 L 767.07,215.073 L 766.229,215.386 L 766.127,215.451 L 765.971,215.704 L 765.784,215.917 L 765.579,215.942 L 764.675,216.217 L 764.336,216.022 L 764.177,215.871 L 763.859,215.419 L 763.827,215.277 L 763.825,215.001 L 763.556,214.767 L 763.469,214.742 L 763.414,214.79 L 763.304,214.799 L 763.169,214.667 L 763.059,214.621 L 762.925,214.628 L 762.729,214.723 L 762.47,214.939 L 762.455,215.057 L 762.337,215.098 L 762.282,215.081 L 761.794,215.148 L 761.73,214.976 L 761.743,214.464 L 761.907,214.354 L 762.323,214.137 L 762.567,214.039 L 762.802,214.008 L 763.906,214.149 L 764.071,214.101 L 764.236,214.021 L 764.69,213.623 L 764.878,213.506 L 765.059,213.442 L 765.413,213.422 L 765.83,213.444 L 767.013,213.657 L 767.313,213.747 L 767.976,214.019 L 768.355,214.104 L 768.512,214.093 L 768.7,214.013 L 768.904,213.809 L 769.036,213.61 L 769.043,213.476 L 769.098,213.31 L 769.441,212.931 L 769.771,212.763 L 770.117,212.675 L 771.029,212.558 L 771.871,212.419 L 771.942,212.426 L 772.006,212.511 L 772.016,212.818 L 771.836,213.04 L 771.751,213.269 L 771.78,214.071 L 771.869,214.481 L 771.942,214.836 L 772.167,215.518 L 772.296,215.88 L 772.407,216.069 L 772.495,216.28 L 772.623,216.484 L 772.663,216.61 L 772.718,216.665 L 772.758,216.75 L 772.806,216.845 L 772.958,217.104 L 773.085,217.411 L 773.086,217.473 L 773.205,217.723 L 773.222,217.788 L 773.269,217.833 L 773.605,218.518 L 773.756,218.777 L 773.757,218.895 L 773.797,219.005 L 773.892,219.12 L 773.9,219.185 L 773.964,219.255 L 774.059,219.429 L 774.342,219.914 L 774.438,220.041 L 774.542,220.227 L 774.974,221.124 L 775.006,221.185 L 775.325,221.662 L 775.357,221.733 L 775.5,221.936 L 775.525,222.007 L 775.867,222.487 L 775.954,222.571 L 776.679,223.598 L 777.187,224.017 L 777.631,224.439 L 777.687,224.605 L 778.203,225.104 L 778.728,225.818 L 778.815,225.871 L 779.046,226.199 L 779.665,226.739 L 780.282,227.065 L 780.361,227.072 L 780.666,226.896 L 780.91,226.824 L 781.099,226.821 L 781.344,226.923 L 781.509,226.912 L 782.132,227.048 L 782.33,227.191 L 782.575,227.212 L 782.92,227.121 L 782.951,227.068 L 782.934,226.823 L 782.996,226.728 L 783.114,226.719 L 783.398,226.865 L 783.571,226.817 L 783.619,226.856 L 783.635,226.952 L 783.691,227.061 L 783.89,227.217 L 784.34,227.393 L 784.671,227.479 L 784.813,227.484 L 784.923,227.46 L 785.174,227.269 L 785.291,227.126 L 785.385,227.071 L 785.645,227.1 L 785.779,227.171 L 786.049,227.467 L 786.279,227.59 L 786.398,227.764 L 786.53,228.077"
       id="path15537"
       style="fill-rule:evenodd" />
    <path
       name="hull" d="M 768.582,216.29 L 768.385,216.284 L 768.313,216.239 L 768.171,216.082 L 768.091,215.855 L 768.089,215.514 L 768.191,215.489 L 768.365,215.639 L 768.854,215.873 L 768.957,215.879 L 769.09,215.854 L 769.177,215.894 L 769.382,215.885 L 769.375,215.954 L 769.061,216.115 L 768.582,216.29"
       id="path15553"
       style="fill-rule:evenodd" />
    <path
       name="hull" d="M 767.949,223.129 L 767.169,223.025 L 766.909,222.94 L 766.688,222.832 L 766.624,222.737 L 766.639,222.603 L 766.678,222.534 L 766.827,222.4 L 767.078,222.271 L 767.369,222.228 L 767.605,222.274 L 768.118,222.436 L 768.364,222.624 L 768.609,222.874 L 768.737,223.069 L 767.949,223.129"
       id="path15569"
       style="fill-rule:evenodd" />       
    <path
       name="hull" d="M 786.957,226.782 L 786.839,226.736 L 786.837,226.578 L 786.9,226.477 L 786.986,226.444 L 787.072,226.45 L 787.168,226.513 L 787.09,226.71 L 787.028,226.774 L 786.957,226.782"
       id="path15587"
       style="fill-rule:evenodd" />
    <path
       name="hull" d="M 780.783,226.707 L 780.782,226.595 L 781.01,226.532 L 781.065,226.555 L 781.043,226.665 L 780.783,226.707"
       id="path15589"
       style="fill-rule:evenodd" />
   </g>
</svg>