<svg
   xmlns:svg="http://www.w3.org/2000/svg"
   xmlns="http://www.w3.org/2000/svg"
   version="1.0"
   width="2100"
   height="1300"
   viewBox="0 0 2100 1300"
   id="svg14921">
   <g
     transform="matrix(2.2640019,0,0,2.2640019,-216.71416,-21.6991)"
     id="g14955"
     style="font-size:16.25px;font-style:normal;font-weight:400;fill:#fefee9;fill-opacity:1;fill-rule:evenodd;stroke:#000000;stroke-width:0.0984252;stroke-linecap:square;stroke-linejoin:bevel;stroke-opacity:1;font-family:Lucida Grande">
    <path
       name="kingston" d="M 801.731,311.543 L 801.799,311.557 L 806.825,312.279 L 811.516,312.948 L 811.787,313.39 L 813.394,315.831 L 813.378,315.979 L 813.302,316.192 L 813.242,316.478 L 813.238,316.606 L 813.256,316.665 L 813.336,316.751 L 813.392,316.817 L 813.465,316.978 L 813.557,317.162 L 813.718,317.428 L 813.818,317.511 L 813.871,317.558 L 813.888,317.628 L 813.998,318.078 L 816.647,318.17 L 816.764,318.682 L 816.876,318.887 L 816.947,318.962 L 816.933,319.865 L 816.803,320.291 L 816.796,320.434 L 816.902,320.741 L 817.022,320.96 L 817.048,321.226 L 817.002,321.345 L 816.917,321.487 L 816.83,321.512 L 816.505,321.248 L 816.386,321.187 L 815.929,321.16 L 815.787,321.111 L 815.518,320.983 L 815.335,320.808 L 815.225,320.802 L 815.107,320.868 L 815.155,320.928 L 815.401,321.055 L 815.552,321.193 L 815.836,321.324 L 816.144,321.386 L 816.444,321.452 L 816.842,321.89 L 816.928,321.871 L 816.99,321.724 L 817.099,321.659 L 817.193,321.563 L 817.323,321.153 L 817.321,320.989 L 817.135,320.461 L 817.133,320.287 L 817.141,320.203 L 817.278,319.728 L 817.429,319.088 L 817.527,318.949 L 817.646,318.904 L 817.766,318.844 L 817.885,318.829 L 818.14,318.904 L 818.274,318.949 L 818.792,319.203 L 819.087,319.483 L 819.246,319.717 L 819.428,319.78 L 819.611,320.019 L 819.621,320.217 L 819.686,320.429 L 819.854,320.725 L 819.859,321.2 L 819.761,321.655 L 819.711,322.153 L 819.665,322.318 L 819.726,322.965 L 819.864,323.388 L 819.968,323.528 L 820.308,323.76 L 820.984,324.338 L 821.431,324.614 L 814.138,334.725 L 807.08,341.184 L 806.122,342.077 L 804.725,337.128 L 802.851,330.493 L 797.202,326.606 L 796.301,323.174 L 795.372,319.145 L 794.954,317.354 L 794.062,314.51 L 793.752,313.518 L 794.703,312.124 L 800.152,311.211 L 801.731,311.543"
       id="path15837"
       style="fill-rule:evenodd" />
   </g>
</svg>