<svg
   xmlns:svg="http://www.w3.org/2000/svg"
   xmlns="http://www.w3.org/2000/svg"
   version="1.0"
   width="2100"
   height="1300"
   viewBox="0 0 2100 1300"
   id="svg14921">
   <g
     transform="matrix(2.2640019,0,0,2.2640019,-216.71416,-21.6991)"
     id="g14955"
     style="font-size:16.25px;font-style:normal;font-weight:400;fill:#fefee9;fill-opacity:1;fill-rule:evenodd;stroke:#000000;stroke-width:0.0984252;stroke-linecap:square;stroke-linejoin:bevel;stroke-opacity:1;font-family:Lucida Grande">
    <path
       name="lancaster" d="M 568.632,137.263 L 579.617,139.517 L 579.619,139.877 L 579.676,139.9 L 579.74,139.93 L 579.803,139.969 L 579.874,140.026 L 579.958,140.097 L 580.021,140.176 L 580.086,140.273 L 580.155,140.395 L 580.235,140.513 L 580.274,140.605 L 580.314,140.696 L 580.313,140.778 L 580.333,140.863 L 580.388,140.977 L 580.484,141.107 L 580.568,141.218 L 580.627,141.279 L 580.684,141.265 L 580.767,141.228 L 580.834,141.216 L 580.897,141.232 L 580.954,141.281 L 580.991,141.376 L 580.993,141.472 L 580.999,141.569 L 580.979,141.716 L 580.971,141.773 L 580.937,141.83 L 580.866,141.895 L 580.76,141.932 L 580.699,141.93 L 580.616,141.942 L 580.542,141.957 L 580.478,142.05 L 580.482,142.138 L 580.523,142.223 L 580.606,142.294 L 580.687,142.327 L 580.769,142.353 L 580.871,142.339 L 580.944,142.32 L 581.072,142.301 L 581.178,142.338 L 581.241,142.403 L 581.257,142.493 L 581.266,142.592 L 581.266,142.673 L 581.244,142.769 L 581.205,142.893 L 581.195,142.987 L 581.195,143.086 L 581.226,143.153 L 581.293,143.178 L 581.352,143.184 L 581.494,143.202 L 581.592,143.222 L 581.643,143.273 L 581.7,143.362 L 581.741,143.458 L 581.719,143.543 L 581.678,143.623 L 581.623,143.736 L 581.589,143.83 L 581.587,143.928 L 581.579,144.048 L 581.543,144.139 L 581.478,144.174 L 581.413,144.16 L 581.35,144.125 L 581.303,144.054 L 581.274,143.983 L 581.219,143.934 L 581.158,143.943 L 581.108,144.012 L 581.089,144.093 L 581.106,144.183 L 581.108,144.246 L 581.086,144.319 L 581.049,144.392 L 581.003,144.439 L 580.866,144.514 L 580.781,144.512 L 580.679,144.492 L 580.606,144.521 L 580.625,144.612 L 580.68,144.689 L 580.722,144.791 L 580.743,144.852 L 580.755,144.909 L 580.747,144.99 L 580.723,145.051 L 580.691,145.111 L 580.628,145.206 L 580.549,145.306 L 580.486,145.377 L 580.415,145.467 L 580.39,145.52 L 580.354,145.637 L 580.301,145.762 L 580.247,145.87 L 580.172,145.981 L 580.103,146.126 L 580.07,146.25 L 580.05,146.366 L 580.069,146.454 L 580.158,146.514 L 580.201,146.581 L 580.191,146.659 L 580.179,146.718 L 580.173,146.838 L 580.216,146.899 L 580.303,146.927 L 580.375,146.947 L 580.474,146.961 L 580.588,146.937 L 580.663,146.931 L 580.733,146.935 L 580.787,146.961 L 580.847,147.001 L 580.93,147.068 L 581.052,147.182 L 581.156,147.268 L 581.284,147.341 L 581.407,147.393 L 581.496,147.434 L 581.647,147.499 L 581.769,147.582 L 581.889,147.675 L 581.958,147.765 L 582.012,147.888 L 582.047,147.976 L 582.094,148.101 L 582.108,148.201 L 582.1,148.301 L 582.069,148.434 L 582.012,148.656 L 581.986,148.819 L 581.946,149.069 L 581.917,149.2 L 581.893,149.288 L 581.851,149.361 L 581.796,149.382 L 581.699,149.415 L 581.626,149.494 L 581.587,149.576 L 581.561,149.682 L 581.567,149.745 L 581.603,149.886 L 581.616,150.004 L 581.638,150.084 L 581.622,150.181 L 581.59,150.31 L 581.527,150.5 L 581.428,150.755 L 581.382,150.864 L 581.355,150.944 L 581.337,151.003 L 581.325,151.068 L 581.307,151.147 L 581.297,151.268 L 581.284,151.532 L 581.291,151.634 L 581.258,151.709 L 581.169,151.793 L 580.999,151.923 L 580.877,152.001 L 580.821,152.086 L 580.75,152.229 L 580.714,152.332 L 580.67,152.485 L 580.652,152.567 L 580.64,152.64 L 580.636,152.717 L 580.632,152.784 L 580.586,152.837 L 580.499,152.839 L 580.438,152.817 L 580.393,152.758 L 580.333,152.677 L 580.299,152.624 L 580.217,152.574 L 580.15,152.563 L 580.083,152.58 L 580.031,152.621 L 580,152.727 L 580.019,152.828 L 580.088,152.895 L 580.18,152.883 L 580.279,152.88 L 580.387,152.911 L 580.448,152.988 L 580.489,153.11 L 580.502,153.191 L 580.488,153.311 L 580.481,153.435 L 580.465,153.546 L 580.445,153.644 L 580.422,153.709 L 580.337,153.705 L 580.27,153.634 L 580.197,153.596 L 580.128,153.588 L 580.042,153.627 L 580.018,153.686 L 580.025,153.834 L 580.036,154.017 L 580.057,154.121 L 580.057,154.23 L 580.033,154.306 L 579.994,154.387 L 579.95,154.446 L 579.895,154.501 L 579.863,154.566 L 579.839,154.658 L 579.854,154.745 L 579.901,154.814 L 579.984,154.916 L 580.021,154.991 L 580.06,155.1 L 580.108,155.273 L 580.124,155.368 L 580.125,155.466 L 580.094,155.525 L 580.044,155.6 L 579.949,155.647 L 579.875,155.66 L 579.806,155.654 L 579.68,155.658 L 579.581,155.743 L 577.889,154.831 L 574.21,171.527 L 566.196,169.513 L 558.473,178.647 L 558.456,156.887 L 555.974,156.31 L 557.694,147.705 L 558.978,141.229 L 560.115,140.376 L 562.69,136.043 L 568.632,137.263"
       id="path15277"
       style="fill-rule:evenodd" />
   </g>
</svg>