<svg
   xmlns:svg="http://www.w3.org/2000/svg"
   xmlns="http://www.w3.org/2000/svg"
   version="1.0"
   width="2100"
   height="1300"
   viewBox="0 0 2100 1300"
   id="svg14921">
   <g
     transform="matrix(2.2640019,0,0,2.2640019,-216.71416,-21.6991)"
     id="g14955"
     style="font-size:16.25px;font-style:normal;font-weight:400;fill:#fefee9;fill-opacity:1;fill-rule:evenodd;stroke:#000000;stroke-width:0.0984252;stroke-linecap:square;stroke-linejoin:bevel;stroke-opacity:1;font-family:Lucida Grande">
    <path
       name="lenox" d="M 156.236,173.341 L 167.866,175.962 L 174.872,177.649 L 172.965,185.828 L 172.205,186.326 L 170.465,187.536 L 170.95,189.881 L 170.426,189.056 L 170.124,188.605 L 170.162,188.857 L 170.154,188.939 L 170.127,189.009 L 170.073,189.092 L 170.044,189.176 L 170.018,189.236 L 169.981,189.306 L 169.967,189.375 L 169.951,189.465 L 169.929,189.533 L 169.943,189.667 L 169.961,189.739 L 169.985,189.877 L 170.008,190.019 L 170.015,190.084 L 170.025,190.419 L 170.032,190.522 L 170.034,190.585 L 170.084,190.628 L 170.164,190.592 L 170.212,190.56 L 170.258,190.518 L 170.314,190.488 L 170.379,190.505 L 170.414,190.559 L 170.406,190.638 L 170.33,190.784 L 170.281,190.916 L 170.174,191.158 L 170.089,191.392 L 170.014,191.601 L 169.844,192.112 L 169.818,192.208 L 169.824,192.281 L 169.853,192.354 L 169.905,192.415 L 169.998,192.466 L 170.042,192.505 L 170.094,192.553 L 170.125,192.611 L 170.141,192.675 L 170.155,192.754 L 170.144,192.872 L 170.103,193.001 L 170.042,193.154 L 170.014,193.232 L 169.982,193.304 L 169.963,193.365 L 169.949,193.449 L 169.942,193.547 L 169.94,193.614 L 169.946,193.687 L 169.988,193.728 L 170.053,193.727 L 170.103,193.65 L 170.143,193.592 L 170.208,193.547 L 170.495,193.456 L 170.566,193.45 L 170.623,193.469 L 170.671,193.525 L 170.653,193.59 L 170.616,193.662 L 170.578,193.732 L 170.529,193.817 L 170.49,193.863 L 170.441,193.913 L 170.38,193.988 L 170.317,194.063 L 170.285,194.111 L 170.249,194.189 L 170.221,194.283 L 170.167,194.38 L 170.118,194.43 L 170.034,194.479 L 169.957,194.506 L 169.72,194.549 L 169.609,194.578 L 169.549,194.588 L 169.486,194.604 L 169.412,194.645 L 169.334,194.694 L 169.265,194.763 L 169.168,194.869 L 169.107,194.936 L 169.044,195.007 L 169.017,195.062 L 168.967,195.143 L 168.922,195.205 L 168.886,195.259 L 168.845,195.309 L 168.777,195.396 L 168.75,195.462 L 168.719,195.53 L 168.69,195.588 L 168.698,195.651 L 168.737,195.704 L 168.773,195.777 L 168.788,195.874 L 168.786,195.937 L 168.776,196.002 L 168.766,196.076 L 168.743,196.135 L 168.716,196.205 L 168.728,196.321 L 168.744,196.391 L 168.77,196.446 L 168.811,196.534 L 168.866,196.614 L 168.912,196.665 L 168.957,196.717 L 168.969,196.802 L 168.948,196.914 L 168.92,196.99 L 168.881,197.069 L 168.846,197.127 L 168.799,197.191 L 168.737,197.268 L 168.694,197.334 L 168.686,197.582 L 168.687,198.083 L 168.694,198.491 L 168.709,198.582 L 168.729,198.655 L 168.748,198.727 L 168.77,198.784 L 168.835,202.83 L 167.329,202.754 L 160.01,202.515 L 159.998,203.274 L 159.184,203.272 L 159.332,203.818 L 157.406,203.778 L 157.638,193.865 L 146.76,193.733 L 146.18,187.93 L 147.265,187.86 L 147.273,185.802 L 147.297,184.725 L 149.497,184.82 L 149,180.017 L 152.117,180.062 L 152.882,175.03 L 155.894,175.808 L 156.236,173.341"
       id="path15401"
       style="fill-rule:evenodd" />
   </g>
</svg>