<svg
   xmlns:svg="http://www.w3.org/2000/svg"
   xmlns="http://www.w3.org/2000/svg"
   version="1.0"
   width="2100"
   height="1300"
   viewBox="0 0 2100 1300"
   id="svg14921">
   <g
     transform="matrix(2.2640019,0,0,2.2640019,-216.71416,-21.6991)"
     id="g14955"
     style="font-size:16.25px;font-style:normal;font-weight:400;fill:#fefee9;fill-opacity:1;fill-rule:evenodd;stroke:#000000;stroke-width:0.0984252;stroke-linecap:square;stroke-linejoin:bevel;stroke-opacity:1;font-family:Lucida Grande">
    <path
       name="leominster" d="M 547.271,125.701 L 550.704,123.168 L 551.805,122.312 L 558.073,129.737 L 560.398,135.586 L 562.69,136.043 L 560.115,140.376 L 558.978,141.229 L 557.694,147.705 L 555.974,156.31 L 550.608,155.085 L 530.144,150.369 L 531.429,147.629 L 532.094,146.193 L 526.987,143.287 L 527.066,142.584 L 528.191,132.586 L 528.378,130.94 L 529.478,130.79 L 529.728,130.774 L 529.853,130.772 L 529.966,130.779 L 530.058,130.799 L 530.178,130.826 L 530.422,130.908 L 531.026,131.186 L 531.331,131.306 L 531.654,131.435 L 531.987,131.553 L 532.138,131.598 L 532.282,131.629 L 532.428,131.65 L 532.575,131.658 L 532.733,131.663 L 532.799,131.655 L 532.925,131.643 L 533.149,131.608 L 533.985,131.433 L 534.206,131.403 L 534.447,131.389 L 534.656,131.385 L 534.876,131.39 L 535.223,131.427 L 535.38,131.458 L 535.51,131.484 L 535.636,131.491 L 535.815,131.451 L 535.964,131.416 L 536.175,131.341 L 536.33,131.272 L 536.432,131.217 L 536.534,131.161 L 536.668,131.07 L 536.778,130.976 L 536.888,130.852 L 536.994,130.726 L 537.173,130.588 L 537.352,130.332 L 537.695,129.863 L 537.79,129.745 L 537.886,129.674 L 538.034,129.603 L 538.165,129.559 L 538.325,129.549 L 538.472,129.565 L 538.568,129.588 L 540.544,130.161 L 541.402,130.122 L 545.118,127.311 L 545.674,127.703 L 546.89,128.738 L 547.61,129.842 L 547.512,130.562 L 547.7,130.799 L 547.786,130.907 L 547.841,131.039 L 547.895,131.169 L 547.944,131.29 L 548.565,130.993 L 549.483,131.848 L 550.624,132.157 L 550.677,131.613 L 550.782,130.758 L 550.595,130.581 L 551.017,130.381 L 550.682,129.751 L 550.59,129.585 L 550.46,129.321 L 550.333,129.084 L 549.71,127.637 L 549.513,127.237 L 549.074,126.651 L 548.926,126.512 L 548.711,126.341 L 547.271,125.701"
       id="path15233"
       style="fill-rule:evenodd" />
   </g>
</svg>