<svg
   xmlns:svg="http://www.w3.org/2000/svg"
   xmlns="http://www.w3.org/2000/svg"
   version="1.0"
   width="2100"
   height="1300"
   viewBox="0 0 2100 1300"
   id="svg14921">
   <g
     transform="matrix(2.2640019,0,0,2.2640019,-216.71416,-21.6991)"
     id="g14955"
     style="font-size:16.25px;font-style:normal;font-weight:400;fill:#fefee9;fill-opacity:1;fill-rule:evenodd;stroke:#000000;stroke-width:0.0984252;stroke-linecap:square;stroke-linejoin:bevel;stroke-opacity:1;font-family:Lucida Grande">
    <path
       name="longmeadow" d="M 348.312,296.369 L 348.593,298.719 L 349.462,306.463 L 344.855,307.054 L 338.885,307.806 L 336.461,309.664 L 330.109,309.431 L 329.851,307.429 L 329.824,306.813 L 329.837,306.568 L 329.867,305.128 L 329.882,304.717 L 329.905,304.455 L 329.946,304.206 L 329.98,303.827 L 330.08,302.649 L 330.253,301.882 L 330.381,301.502 L 330.507,301.167 L 330.639,300.87 L 331.23,299.647 L 331.886,298.268 L 332.28,297.586 L 333.114,296.086 L 334.127,294.28 L 334.172,294.198 L 334.252,294.083 L 334.334,293.974 L 334.806,293.301 L 348.312,296.369"
       id="path15801"
       style="fill-rule:evenodd" />
   </g>
</svg>