<svg
   xmlns:svg="http://www.w3.org/2000/svg"
   xmlns="http://www.w3.org/2000/svg"
   version="1.0"
   width="2100"
   height="1300"
   viewBox="0 0 2100 1300"
   id="svg14921">
   <g
     transform="matrix(2.2640019,0,0,2.2640019,-216.71416,-21.6991)"
     id="g14955"
     style="font-size:16.25px;font-style:normal;font-weight:400;fill:#fefee9;fill-opacity:1;fill-rule:evenodd;stroke:#000000;stroke-width:0.0984252;stroke-linecap:square;stroke-linejoin:bevel;stroke-opacity:1;font-family:Lucida Grande">
    <path
       name="lowell" d="M 647.477,92.1241 L 650.352,94.5919 L 665.099,90.4327 L 668.358,96.5006 L 669.99,94.6886 L 670.083,94.6117 L 670.212,94.5288 L 670.421,94.4046 L 670.664,94.2667 L 671.069,94.0714 L 671.246,94.0004 L 671.323,93.9634 L 672.106,96.1738 L 672.22,96.8035 L 672.197,97.337 L 672.264,97.4431 L 672.341,98.1164 L 671.443,103.38 L 671.091,104.688 L 670.682,106.133 L 669.242,108.031 L 665.983,108.954 L 665.817,108.852 L 665.833,108.767 L 665.855,108.661 L 665.872,108.588 L 665.904,108.507 L 665.941,108.416 L 665.97,108.351 L 666.013,108.267 L 660.2,108.652 L 660.279,110.373 L 660.021,110.969 L 659.142,111.091 L 658.615,109.464 L 658.729,109.343 L 658.571,108.763 L 657.982,108.8 L 650.316,104.718 L 649.812,104.429 L 648.571,100.427 L 648.36,100.465 L 648.242,100.481 L 648.1,100.487 L 647.988,100.493 L 647.821,100.486 L 647.618,100.469 L 647.364,100.43 L 647.234,100.386 L 647.065,100.336 L 646.898,100.261 L 646.706,100.163 L 646.513,100.043 L 646.082,99.7535 L 646.027,99.6948 L 645.81,99.4203 L 645.722,99.2879 L 645.649,99.1648 L 645.551,98.9675 L 645.421,98.6702 L 645.344,98.4348 L 645.235,98.1117 L 645.129,97.7214 L 645.042,97.4274 L 644.912,97.0532 L 644.823,96.8773 L 644.748,96.7661 L 644.648,96.6575 L 644.51,96.5316 L 644.451,96.499 L 644.613,96.1514 L 644.621,96.0332 L 644.592,95.9468 L 644.55,95.8786 L 644.486,95.8244 L 644.406,95.7626 L 644.298,95.6776 L 644.175,95.5633 L 644.11,95.4932 L 644.059,95.4507 L 644.008,95.3864 L 644.009,95.2782 L 644.033,95.1951 L 644.286,94.5216 L 645.12,92.4824 L 646.076,92.3592 L 647.477,92.1241"
       id="path15107"
       style="fill-rule:evenodd" />
   </g>
</svg>