<svg
   xmlns:svg="http://www.w3.org/2000/svg"
   xmlns="http://www.w3.org/2000/svg"
   version="1.0"
   width="2100"
   height="1300"
   viewBox="0 0 2100 1300"
   id="svg14921">
   <g
     transform="matrix(2.2640019,0,0,2.2640019,-216.71416,-21.6991)"
     id="g14955"
     style="font-size:16.25px;font-style:normal;font-weight:400;fill:#fefee9;fill-opacity:1;fill-rule:evenodd;stroke:#000000;stroke-width:0.0984252;stroke-linecap:square;stroke-linejoin:bevel;stroke-opacity:1;font-family:Lucida Grande">
    <path
       name="malden" d="M 720.757,166.852 L 720.557,168.585 L 735.043,166.529 L 736.49,168.741 L 735.981,169.95 L 734.565,173.549 L 728.833,174.078 L 727.847,175.048 L 727.774,175.043 L 726.52,176.333 L 726.417,176.418 L 726.305,176.512 L 726.231,176.554 L 726.143,176.602 L 726.047,176.64 L 725.839,176.664 L 725.312,176.702 L 725.225,176.68 L 723.167,176.79 L 723.156,176.477 L 723.115,176.178 L 723.105,175.626 L 723,175.093 L 722.906,175.344 L 722.97,175.469 L 722.995,175.729 L 722.925,175.982 L 722.926,176.155 L 722.991,176.495 L 722.988,176.799 L 722.986,177.028 L 722.916,177.195 L 722.98,177.585 L 722.904,177.6 L 722.793,177.634 L 722.718,177.653 L 722.649,177.638 L 722.552,177.568 L 722.528,177.511 L 722.48,177.423 L 722.389,177.426 L 722.301,177.429 L 722.2,177.386 L 722.08,177.332 L 721.993,177.288 L 721.855,177.098 L 721.484,176.757 L 721.032,176.762 L 720.959,176.747 L 720.898,176.72 L 720.841,176.687 L 720.763,176.627 L 720.672,176.561 L 720.562,176.509 L 720.467,176.464 L 720.36,176.377 L 719.823,175.813 L 718.914,172.784 L 718.986,171.939 L 719.269,171.952 L 719.842,166.591 L 720.757,166.852"
       id="path15379"
       style="fill-rule:evenodd" />
   </g>
</svg>