<svg
   xmlns:svg="http://www.w3.org/2000/svg"
   xmlns="http://www.w3.org/2000/svg"
   version="1.0"
   width="2100"
   height="1300"
   viewBox="0 0 2100 1300"
   id="svg14921">
   <g
     transform="matrix(2.2640019,0,0,2.2640019,-216.71416,-21.6991)"
     id="g14955"
     style="font-size:16.25px;font-style:normal;font-weight:400;fill:#fefee9;fill-opacity:1;fill-rule:evenodd;stroke:#000000;stroke-width:0.0984252;stroke-linecap:square;stroke-linejoin:bevel;stroke-opacity:1;font-family:Lucida Grande">
    <path
       name="manchester-by-the-sea" d="M 806.025,112.686 L 807.409,115.966 L 809.09,116.599 L 812.318,118.191 L 813.36,118.847 L 813.889,120.737 L 813.791,120.921 L 813.711,120.803 L 813.592,120.694 L 813.315,120.554 L 812.865,120.505 L 812.637,120.536 L 812.378,120.618 L 812.159,120.74 L 812.128,120.803 L 812.131,121.069 L 811.936,121.268 L 811.897,121.34 L 811.922,121.488 L 811.806,121.703 L 811.832,121.993 L 811.738,122.058 L 811.558,122.092 L 811.423,122.052 L 811.179,122.062 L 810.92,122.129 L 810.763,122.146 L 810.684,122.117 L 810.542,122.109 L 810.244,122.198 L 810.18,122.169 L 810.131,122.019 L 810.09,121.815 L 810.127,121.513 L 809.848,121.155 L 809.878,121.068 L 810.083,121.058 L 810.356,120.749 L 810.394,120.63 L 810.408,120.416 L 810.351,120.228 L 810.38,119.976 L 810.261,119.868 L 810.024,119.76 L 809.834,119.713 L 809.606,119.707 L 809.268,119.752 L 809.126,119.824 L 809.01,119.982 L 809.01,120.051 L 809.091,120.21 L 809.109,120.501 L 809.205,120.681 L 809.215,120.814 L 809.075,121.014 L 809.076,121.122 L 809.029,121.179 L 808.911,121.211 L 808.642,121.095 L 808.642,121.002 L 808.759,120.905 L 808.79,120.848 L 808.732,120.645 L 808.637,120.543 L 808.511,120.481 L 808.345,120.477 L 808.259,120.517 L 808.22,120.58 L 808.206,120.714 L 808.112,120.84 L 807.956,120.92 L 807.722,121.159 L 807.604,121.184 L 807.445,121.053 L 807.209,121.016 L 807.044,121.033 L 806.926,121.09 L 806.84,121.185 L 806.753,121.2 L 806.595,121.124 L 806.454,121.156 L 806.306,121.3 L 806.157,121.364 L 805.906,121.532 L 805.671,121.614 L 805.147,121.644 L 804.835,121.746 L 804.757,121.826 L 804.759,122.025 L 804.618,122.221 L 804.517,122.286 L 804.297,122.336 L 804.265,122.399 L 804.259,122.533 L 804.18,122.563 L 803.881,122.581 L 803.78,122.724 L 803.694,122.788 L 803.497,122.813 L 803.434,122.784 L 803.386,122.698 L 803.236,122.665 L 802.226,123.415 L 802.101,123.549 L 801.697,124.2 L 801.675,124.325 L 801.841,124.459 L 801.858,124.583 L 801.678,124.759 L 801.537,124.816 L 801.23,124.819 L 801.175,124.904 L 801.207,124.959 L 801.445,125.147 L 801.517,125.248 L 801.526,125.415 L 801.574,125.5 L 801.567,125.643 L 801.481,125.689 L 801.331,125.722 L 801.016,125.616 L 800.944,125.482 L 800.888,125.459 L 800.778,125.453 L 800.581,125.483 L 800.251,125.487 L 800.148,125.44 L 800.059,125.126 L 799.878,125.113 L 799.744,125.145 L 799.681,125.2 L 799.706,125.295 L 799.865,125.473 L 799.843,125.632 L 799.788,125.681 L 799.695,125.916 L 799.571,126.13 L 799.487,126.44 L 799.417,126.541 L 799.268,126.605 L 799.071,126.617 L 798.756,126.555 L 798.535,126.596 L 798.432,126.549 L 798.165,126.6 L 798.062,126.544 L 797.943,126.421 L 797.99,126.317 L 798.265,126.268 L 798.351,126.213 L 798.389,126.038 L 798.632,125.919 L 798.663,125.822 L 798.638,125.628 L 798.454,125.273 L 798.381,125.046 L 798.253,124.811 L 798.015,124.585 L 798.007,124.514 L 798.139,124.401 L 798.383,124.354 L 798.549,124.383 L 798.643,124.334 L 798.697,124.208 L 798.768,124.138 L 798.956,124.048 L 799.112,123.938 L 799.198,123.812 L 799.204,123.613 L 798.935,123.41 L 799.13,123.212 L 799.208,123.172 L 799.327,123.203 L 799.336,123.398 L 799.738,123.405 L 799.8,123.356 L 799.775,123.081 L 799.743,123.011 L 799.43,122.94 L 799.529,122.846 L 799.725,122.813 L 799.867,122.892 L 799.978,122.889 L 800.103,122.749 L 800.362,122.636 L 800.479,122.524 L 800.676,122.561 L 800.651,122.413 L 800.257,122.322 L 799.95,122.393 L 799.863,122.331 L 799.65,122.325 L 799.634,122.263 L 799.884,122.032 L 799.86,121.921 L 799.789,121.899 L 799.671,121.915 L 799.349,122.061 L 799.2,122.102 L 799.098,122.22 L 799.077,122.497 L 798.982,122.512 L 798.832,122.442 L 798.635,122.42 L 798.525,122.47 L 798.494,122.533 L 798.495,122.635 L 798.654,122.798 L 798.679,122.884 L 798.634,123.208 L 798.588,123.352 L 798.478,123.445 L 798.274,123.464 L 798.1,123.435 L 797.911,123.434 L 797.848,123.364 L 797.744,123.175 L 797.672,123.137 L 797.57,123.171 L 797.431,123.43 L 797.236,123.699 L 797.221,123.771 L 797.378,123.769 L 797.543,123.628 L 797.677,123.618 L 797.867,123.783 L 797.868,123.922 L 797.845,124.004 L 797.447,124.431 L 797.346,124.583 L 797.079,124.718 L 796.915,124.915 L 796.837,124.939 L 796.757,124.846 L 796.552,124.818 L 796.245,124.836 L 795.922,124.718 L 795.756,124.76 L 795.781,124.871 L 795.758,124.99 L 795.428,125.062 L 795.342,125.148 L 795.029,125.303 L 794.763,125.516 L 794.675,125.453 L 794.463,125.425 L 794.329,125.529 L 793.906,125.696 L 793.818,125.603 L 793.818,125.516 L 793.84,125.461 L 793.887,125.343 L 793.895,125.254 L 793.903,125.163 L 793.909,125.097 L 793.927,125.035 L 793.948,124.965 L 793.967,124.766 L 793.945,124.634 L 793.962,124.303 L 793.992,124.206 L 794.021,124.143 L 794.036,124.084 L 794.029,123.995 L 794.004,123.935 L 793.956,123.862 L 793.92,123.792 L 793.909,123.731 L 793.859,123.494 L 793.801,123.408 L 793.798,123.328 L 793.756,123.279 L 793.698,123.209 L 790.505,119.426 L 789.693,118.127 L 788.547,114.96 L 792.032,114.384 L 798.972,113.236 L 805.068,112.786 L 806.025,112.686"
       id="path15211"
       style="fill-rule:evenodd" />
    <path
       name="manchester-by-the-sea" d="M 806.294,122.601 L 806.152,122.536 L 806.08,122.442 L 806.142,122.261 L 806.084,122.033 L 806.139,121.947 L 806.296,121.936 L 806.344,121.985 L 806.368,122.062 L 806.503,122.141 L 806.528,122.29 L 806.513,122.454 L 806.373,122.583 L 806.294,122.601"
       id="path15231"
       style="fill-rule:evenodd" />
    <path
       name="manchester-by-the-sea" d="M 812.279,124.205 L 812.192,124.204 L 812.058,124.149 L 812.025,124.048 L 811.954,123.979 L 811.78,123.934 L 811.74,123.886 L 811.801,123.704 L 811.808,123.539 L 811.775,123.469 L 811.837,123.374 L 812.096,123.252 L 812.33,123 L 812.432,122.95 L 812.497,123.137 L 812.568,123.247 L 812.578,123.358 L 812.383,123.581 L 812.36,123.7 L 812.512,123.903 L 812.513,123.981 L 812.331,123.958 L 812.245,123.998 L 812.261,124.063 L 812.279,124.205"
       id="path15235"
       style="fill-rule:evenodd" />
    <path
       name="manchester-by-the-sea" d="M 808.13,125.103 L 808.058,125.049 L 808.056,124.882 L 807.993,124.843 L 807.843,124.823 L 807.842,124.702 L 807.889,124.657 L 808.134,124.724 L 808.205,124.787 L 808.253,124.904 L 808.325,124.942 L 808.349,125.013 L 808.318,125.069 L 808.232,125.1 L 808.13,125.103"
       id="path15241"
       style="fill-rule:evenodd" />
    <path
       name="manchester-by-the-sea" d="M 793.14,126.498 L 793.038,126.42 L 792.974,126.397 L 792.871,126.295 L 792.863,126.233 L 792.933,126.153 L 793.122,126.144 L 793.209,126.284 L 793.203,126.474 L 793.14,126.498"
       id="path15249"
       style="fill-rule:evenodd" />
    <path
       name="manchester-by-the-sea" d="M 797.137,127.087 L 797.003,127.01 L 796.986,126.899 L 797.017,126.814 L 797.088,126.756 L 797.206,126.756 L 797.293,126.812 L 797.295,127.038 L 797.24,127.081 L 797.137,127.087"
       id="path15251"
       style="fill-rule:evenodd" />
    <path
       name="manchester-by-the-sea" d="M 796.911,129.25 L 796.744,129.093 L 796.579,129.061 L 796.491,128.952 L 796.489,128.731 L 796.536,128.621 L 796.637,128.51 L 796.747,128.454 L 796.943,128.405 L 797.266,128.37 L 797.376,128.386 L 797.417,128.465 L 797.26,128.64 L 797.255,128.963 L 797.045,129.224 L 796.911,129.25"
       id="path15253"
       style="fill-rule:evenodd" />

              
   </g>
</svg>