<svg
   xmlns:svg="http://www.w3.org/2000/svg"
   xmlns="http://www.w3.org/2000/svg"
   version="1.0"
   width="2100"
   height="1300"
   viewBox="0 0 2100 1300"
   id="svg14921">
   <g
     transform="matrix(2.2640019,0,0,2.2640019,-216.71416,-21.6991)"
     id="g14955"
     style="font-size:16.25px;font-style:normal;font-weight:400;fill:#fefee9;fill-opacity:1;fill-rule:evenodd;stroke:#000000;stroke-width:0.0984252;stroke-linecap:square;stroke-linejoin:bevel;stroke-opacity:1;font-family:Lucida Grande">
    <path
       name="marlborough" d="M 620.465,188.922 L 620.038,190.814 L 618.436,198.386 L 617.549,206.283 L 614.348,206.731 L 614.282,206.715 L 612.213,207.002 L 609.957,206.168 L 601.137,207.549 L 596.537,209.641 L 592.383,212.877 L 590.605,210.55 L 589.303,209.391 L 588.127,207.345 L 587.269,206.22 L 587.695,205.695 L 587.576,203.998 L 587.456,203.979 L 587.021,203.784 L 586.063,203.408 L 585.862,203.321 L 585.686,203.204 L 584.485,202.322 L 584.174,202.159 L 583.767,201.692 L 583.372,201.033 L 582.394,199.87 L 582.065,199.517 L 582.347,199.274 L 582.396,199.227 L 586.129,196.833 L 587.842,193.457 L 607.578,190.801 L 614.32,189.828 L 620.465,188.922"
       id="path15455"
       style="fill-rule:evenodd" />
   </g>
</svg>