<svg
   xmlns:svg="http://www.w3.org/2000/svg"
   xmlns="http://www.w3.org/2000/svg"
   version="1.0"
   width="2100"
   height="1300"
   viewBox="0 0 2100 1300"
   id="svg14921">
   <g
     transform="matrix(2.2640019,0,0,2.2640019,-216.71416,-21.6991)"
     id="g14955"
     style="font-size:16.25px;font-style:normal;font-weight:400;fill:#fefee9;fill-opacity:1;fill-rule:evenodd;stroke:#000000;stroke-width:0.0984252;stroke-linecap:square;stroke-linejoin:bevel;stroke-opacity:1;font-family:Lucida Grande">
    <path
       name="marshfield" d="M 806.382,262.228 L 806.384,262.395 L 806.518,262.431 L 806.693,262.634 L 806.918,263.09 L 807.126,263.363 L 807.126,263.428 L 807.189,263.442 L 807.253,263.52 L 807.403,263.596 L 807.79,263.712 L 808.184,263.738 L 808.382,263.8 L 808.745,263.846 L 808.949,263.802 L 809.09,263.739 L 809.395,263.516 L 809.505,263.491 L 809.742,263.621 L 809.933,263.802 L 810.487,264.102 L 810.621,264.132 L 810.771,264.14 L 810.786,264.068 L 810.682,263.935 L 810.674,263.857 L 810.807,263.832 L 810.951,264.014 L 811.045,264.02 L 811.328,263.891 L 811.46,263.723 L 811.605,263.275 L 811.603,263.005 L 811.532,262.998 L 811.336,263.174 L 811.312,263.079 L 811.436,262.827 L 811.56,262.705 L 811.787,262.547 L 811.897,262.516 L 812,262.522 L 812.174,262.607 L 812.481,262.675 L 812.601,262.768 L 812.719,262.814 L 812.925,262.969 L 813.147,263.047 L 813.163,263.118 L 813.329,263.203 L 813.659,263.137 L 814.185,262.926 L 814.248,262.94 L 814.343,262.95 L 814.422,263.074 L 814.337,263.186 L 814.149,263.265 L 814.094,263.345 L 814.095,263.462 L 814.143,263.548 L 814.121,263.666 L 814.043,263.771 L 813.949,263.802 L 813.617,263.697 L 813.46,263.704 L 813.563,263.813 L 813.761,263.922 L 814.053,263.929 L 814.186,263.857 L 814.263,263.69 L 814.252,263.399 L 814.386,263.38 L 814.52,263.419 L 814.71,263.463 L 815.01,263.628 L 815.242,263.978 L 815.282,264.104 L 815.425,264.159 L 815.513,264.324 L 815.658,264.605 L 815.707,264.827 L 815.744,265.408 L 815.784,265.51 L 815.811,265.825 L 815.86,265.998 L 815.916,266.092 L 815.949,266.265 L 815.918,266.318 L 815.824,266.337 L 815.644,266.457 L 815.261,266.729 L 815.009,266.754 L 814.867,266.724 L 814.629,266.567 L 814.549,266.467 L 814.533,266.412 L 814.438,266.411 L 814.322,266.533 L 814.22,266.644 L 813.954,266.795 L 814.136,266.895 L 814.206,266.8 L 814.34,266.783 L 814.396,266.853 L 814.421,267.035 L 814.539,267.103 L 814.69,267.127 L 814.864,267.227 L 814.886,267.053 L 814.924,266.99 L 815.223,266.947 L 815.466,266.844 L 815.56,266.717 L 815.748,266.612 L 816.007,266.586 L 816.095,266.664 L 816.058,266.947 L 816.194,267.151 L 816.52,267.486 L 816.606,267.446 L 816.582,267.354 L 816.207,266.93 L 816.244,266.647 L 816.093,266.468 L 816.265,266.386 L 816.329,266.48 L 816.957,267.119 L 817.354,267.449 L 817.445,267.871 L 817.47,268.022 L 817.541,268.076 L 817.572,267.942 L 817.547,267.862 L 817.535,267.478 L 817.685,267.421 L 817.811,267.42 L 817.906,267.504 L 817.93,267.584 L 817.949,267.85 L 817.981,267.924 L 818.091,267.945 L 818.212,268.267 L 818.223,268.596 L 818.161,268.715 L 818.005,268.773 L 817.965,268.709 L 817.956,268.607 L 817.9,268.568 L 817.808,268.791 L 817.737,268.83 L 817.651,268.839 L 817.596,268.806 L 817.562,268.634 L 817.459,268.55 L 817.286,268.552 L 817.161,268.655 L 816.917,268.712 L 816.761,268.862 L 816.661,269.029 L 816.598,269.062 L 816.338,269.079 L 816.362,269.144 L 816.465,269.206 L 816.67,269.228 L 816.756,269.163 L 816.849,268.949 L 816.919,268.87 L 817.146,268.789 L 817.217,268.811 L 817.281,268.875 L 817.321,268.966 L 817.338,269.093 L 817.284,269.237 L 817.427,269.289 L 817.412,269.423 L 817.35,269.567 L 817.328,269.692 L 817.415,269.724 L 817.508,269.597 L 817.554,269.391 L 817.552,269.226 L 817.496,269.157 L 817.495,269.061 L 817.526,268.982 L 817.589,268.965 L 817.865,268.994 L 818.29,268.982 L 818.385,269.075 L 818.427,269.266 L 818.49,269.366 L 818.5,269.525 L 818.382,269.565 L 818.32,269.651 L 818.315,269.921 L 818.261,270.087 L 818.081,270.222 L 818.058,270.285 L 818.255,270.257 L 818.372,270.18 L 818.551,269.932 L 818.573,269.705 L 818.811,269.9 L 819.079,269.929 L 819.672,270.253 L 820.269,270.868 L 820.636,271.431 L 820.742,271.738 L 820.75,271.841 L 820.937,272.415 L 821.057,272.619 L 821.335,272.89 L 821.803,273.171 L 821.979,273.467 L 822.034,273.531 L 822.171,273.868 L 822.235,273.968 L 822.268,274.11 L 822.471,274.684 L 822.697,275.35 L 822.733,274.965 L 822.678,274.737 L 822.795,274.845 L 823.017,274.984 L 823.2,275.181 L 823.272,275.306 L 823.304,275.432 L 823.337,275.512 L 823.392,275.566 L 823.441,275.729 L 823.466,275.88 L 823.413,276.015 L 823.476,276.078 L 823.573,276.265 L 823.9,276.68 L 823.98,276.861 L 824.031,277.278 L 824.044,277.774 L 824.076,277.906 L 824.141,278.041 L 824.228,278.103 L 824.323,278.141 L 824.733,278.169 L 824.836,278.268 L 824.893,278.49 L 824.645,278.916 L 824.333,279.257 L 824.303,279.323 L 824.297,279.55 L 824.393,279.652 L 824.606,279.752 L 824.654,279.846 L 824.64,279.98 L 824.288,280.245 L 824.21,280.371 L 824.22,280.535 L 824.277,280.723 L 824.285,280.809 L 824.294,280.921 L 824.132,281.254 L 823.666,281.879 L 823.581,282.133 L 823.599,282.327 L 823.601,282.566 L 823.493,282.731 L 822.968,283.034 L 822.771,283.037 L 822.604,282.819 L 822.438,282.765 L 822.352,282.814 L 822.205,283.097 L 822.156,282.981 L 822.069,282.872 L 821.91,282.792 L 821.785,282.818 L 821.73,282.875 L 821.741,283.238 L 821.671,283.268 L 821.489,283.208 L 821.032,283.181 L 821.047,283.109 L 821.062,283.022 L 821.038,282.945 L 820.635,282.861 L 820.565,282.885 L 820.253,283.244 L 820.129,283.44 L 820.14,283.71 L 820.307,283.944 L 820.34,284.07 L 820.403,284.037 L 820.393,283.873 L 820.234,283.67 L 820.209,283.534 L 820.302,283.407 L 820.325,283.344 L 820.621,283.01 L 820.747,282.985 L 820.889,283.033 L 820.89,283.142 L 820.883,283.238 L 821.214,283.25 L 821.262,283.289 L 821.609,283.412 L 821.751,283.433 L 821.837,283.393 L 821.875,283.197 L 821.857,282.974 L 821.936,282.965 L 822.063,283.107 L 822.087,283.163 L 822.222,283.264 L 822.293,283.246 L 822.347,283.161 L 822.455,282.922 L 822.534,282.954 L 822.614,283.079 L 822.757,283.196 L 823.016,283.17 L 823.252,283.088 L 823.393,282.985 L 823.596,282.818 L 823.72,282.612 L 823.766,282.478 L 823.762,282.043 L 823.831,281.877 L 824.166,281.489 L 824.444,280.879 L 824.426,280.737 L 824.338,280.519 L 824.329,280.417 L 824.642,280.216 L 824.79,280.019 L 824.812,279.922 L 824.795,279.749 L 824.755,279.679 L 824.438,279.502 L 824.818,278.892 L 825.02,278.567 L 825.019,278.455 L 824.969,278.237 L 824.897,278.096 L 824.604,277.925 L 824.288,277.816 L 824.216,277.725 L 824.207,277.567 L 824.147,277.048 L 824.177,276.914 L 824.254,276.738 L 824.253,276.573 L 824.197,276.529 L 824.047,276.465 L 823.84,276.254 L 823.783,276.06 L 823.718,275.876 L 823.691,275.767 L 824.296,275.434 L 824.464,275.665 L 824.584,275.869 L 824.672,275.972 L 824.689,276.033 L 824.984,276.471 L 825.072,276.549 L 825.343,276.948 L 826.298,278.012 L 826.37,278.121 L 826.579,278.521 L 826.626,278.566 L 826.843,278.998 L 826.899,279.052 L 826.947,279.177 L 827.467,279.978 L 827.483,280.039 L 827.987,280.831 L 828.394,281.433 L 828.45,281.528 L 828.53,281.618 L 828.602,281.762 L 828.658,281.816 L 828.706,281.933 L 828.778,282.021 L 829.352,282.77 L 829.789,283.247 L 830.044,283.494 L 830.275,283.776 L 830.378,283.838 L 830.919,284.439 L 831.047,284.637 L 831.142,284.761 L 831.325,284.948 L 831.865,285.407 L 832.388,285.758 L 832.627,285.99 L 832.779,286.208 L 832.89,286.326 L 832.914,286.406 L 833.321,286.931 L 833.599,287.202 L 834.057,287.294 L 834.136,287.347 L 834.147,287.623 L 834.323,288.015 L 834.579,288.342 L 834.722,288.521 L 834.876,288.923 L 834.898,289.67 L 834.971,289.897 L 834.972,289.999 L 835.036,290.078 L 835.037,290.174 L 835.101,290.3 L 835.175,290.58 L 835.137,290.739 L 835.068,290.912 L 834.974,291.023 L 834.441,291.305 L 834.067,291.663 L 833.839,291.689 L 833.617,291.565 L 833.42,291.527 L 833.348,291.371 L 833.235,291.182 L 833.218,290.978 L 833.343,290.866 L 833.301,290.616 L 833.142,290.434 L 833.133,290.317 L 833.195,290.278 L 833.234,290.215 L 833.132,289.452 L 833.111,288.891 L 833.102,288.717 L 833.015,288.72 L 832.977,288.861 L 832.938,288.918 L 832.836,288.927 L 832.496,288.788 L 832.204,288.697 L 832.109,288.688 L 832.102,288.784 L 832.135,288.885 L 832.033,288.91 L 831.982,289.352 L 832.15,289.682 L 832.152,289.856 L 832.255,289.884 L 832.35,290.002 L 832.382,290.066 L 832.543,290.372 L 832.701,290.447 L 832.749,290.502 L 832.752,290.824 L 832.723,291.061 L 832.841,291.101 L 833.04,291.359 L 833.057,291.429 L 833.216,291.608 L 833.28,291.718 L 833.28,291.78 L 833.289,291.882 L 833.04,292.199 L 832.909,292.43 L 832.825,292.724 L 832.683,293.528 L 832.655,293.812 L 831.866,294.283 L 827.438,296.966 L 827.409,297.029 L 827.246,297.082 L 827.182,297.121 L 826.677,297.427 L 826.654,297.169 L 826.622,297.12 L 826.536,297.123 L 826.489,297.177 L 826.467,297.295 L 826.553,297.502 L 823.864,299.131 L 820.436,295.971 L 820.352,295.96 L 820.259,295.91 L 820.191,295.872 L 820.096,295.794 L 820.004,295.663 L 819.91,295.534 L 819.823,295.38 L 819.77,295.203 L 819.754,295.024 L 819.761,294.7 L 806.508,285.692 L 803.259,283.567 L 803.982,281.377 L 802.332,281.303 L 802.15,279.893 L 799.757,280.292 L 799.695,280.086 L 799.416,280.112 L 799.842,279.698 L 800.003,279.451 L 799.415,278.938 L 799.505,278.825 L 799.528,278.752 L 799.513,278.684 L 799.478,278.611 L 799.426,278.533 L 799.352,278.407 L 799.251,278.247 L 799.235,278.181 L 799.233,278.074 L 799.256,278.005 L 799.357,277.87 L 799.373,277.769 L 799.343,277.695 L 799.288,277.599 L 799.246,277.555 L 799.161,277.501 L 799.08,277.447 L 798.928,277.379 L 798.771,277.24 L 798.796,277.125 L 798.854,277.044 L 798.906,276.988 L 799.004,276.872 L 799.042,276.779 L 799.047,276.702 L 799.048,276.581 L 799.06,276.461 L 799.11,276.34 L 799.172,276.266 L 799.186,276.17 L 799.167,276.041 L 799.135,275.949 L 799.052,275.88 L 798.939,275.785 L 798.836,275.676 L 798.801,275.561 L 798.809,275.439 L 798.853,275.389 L 798.906,275.316 L 798.951,275.234 L 798.958,275.155 L 798.954,275.083 L 798.924,274.971 L 798.875,274.861 L 798.861,274.786 L 798.866,274.696 L 798.859,274.59 L 798.845,274.505 L 798.806,274.461 L 798.692,274.441 L 798.531,274.464 L 798.445,274.48 L 798.372,274.482 L 798.297,274.474 L 798.211,274.428 L 798.145,274.379 L 798.088,274.304 L 798.086,274.244 L 798.1,274.181 L 798.115,274.102 L 798.145,274.038 L 798.196,273.98 L 798.264,273.936 L 798.336,273.918 L 798.451,273.878 L 798.535,273.853 L 798.614,273.808 L 798.665,273.726 L 798.672,273.629 L 798.661,273.541 L 798.623,273.453 L 798.325,272.872 L 798.294,272.815 L 798.272,272.743 L 798.269,272.651 L 798.304,272.569 L 798.398,272.434 L 798.484,272.321 L 798.519,272.259 L 798.525,272.186 L 798.519,272.108 L 798.5,272.01 L 798.472,271.922 L 798.434,271.847 L 798.36,271.731 L 798.297,271.658 L 798.207,271.57 L 798.086,271.463 L 797.937,271.336 L 797.9,271.276 L 797.866,271.19 L 797.858,271.131 L 797.875,271.024 L 797.903,270.79 L 797.93,270.657 L 797.927,270.552 L 797.893,270.396 L 797.845,270.234 L 797.78,270.163 L 797.609,270.046 L 797.52,270.019 L 797.392,269.954 L 797.266,269.885 L 797.205,269.824 L 797.142,269.731 L 797.029,269.597 L 796.977,269.555 L 796.856,269.466 L 796.711,269.332 L 796.657,269.255 L 796.637,269.179 L 796.677,269.077 L 796.732,269.001 L 796.796,268.948 L 796.871,268.887 L 796.916,268.834 L 796.948,268.776 L 796.998,268.682 L 797.033,268.596 L 797.054,268.519 L 797.071,268.424 L 797.157,267.866 L 797.171,267.761 L 797.242,267.681 L 797.307,267.628 L 797.365,267.61 L 797.442,267.596 L 797.602,267.57 L 797.712,267.543 L 797.791,267.513 L 797.835,267.474 L 797.867,267.414 L 797.88,267.337 L 797.883,267.235 L 797.861,267.097 L 797.816,266.833 L 797.816,266.758 L 797.825,266.677 L 797.852,266.574 L 797.896,266.463 L 797.926,266.355 L 797.93,266.233 L 797.92,265.952 L 797.928,265.688 L 797.943,265.542 L 797.972,265.401 L 798.021,265.337 L 798.071,265.292 L 798.13,265.276 L 798.2,265.276 L 798.309,265.287 L 798.435,265.283 L 798.557,265.285 L 798.683,265.291 L 798.823,265.313 L 798.988,265.367 L 799.159,265.435 L 799.375,265.537 L 799.848,265.791 L 799.974,265.846 L 800.088,265.854 L 800.143,265.835 L 800.32,265.779 L 800.468,265.745 L 800.598,265.739 L 800.685,265.752 L 800.759,265.783 L 800.835,265.832 L 800.922,265.916 L 801.113,266.047 L 801.231,266.116 L 801.319,266.147 L 801.411,266.156 L 801.475,266.132 L 801.545,266.097 L 801.612,266.038 L 801.704,265.954 L 801.775,265.824 L 801.844,265.694 L 801.886,265.571 L 801.905,265.427 L 801.919,265.241 L 801.936,265.095 L 801.971,264.938 L 802.02,264.799 L 802.074,264.693 L 802.118,264.613 L 802.177,264.546 L 802.239,264.493 L 802.324,264.456 L 802.385,264.45 L 802.479,264.449 L 802.566,264.474 L 802.649,264.538 L 802.691,264.608 L 802.758,264.758 L 802.808,264.87 L 802.87,264.953 L 802.961,265.051 L 803.048,265.109 L 803.121,265.119 L 803.222,265.079 L 803.293,265.012 L 803.332,264.961 L 803.379,264.881 L 803.404,264.792 L 803.433,264.566 L 803.46,264.481 L 803.508,264.387 L 803.551,264.333 L 803.612,264.268 L 803.682,264.234 L 803.794,264.219 L 803.869,264.223 L 803.928,264.235 L 804.043,264.263 L 804.204,264.319 L 804.387,264.389 L 804.489,264.393 L 804.564,264.387 L 804.624,264.366 L 804.686,264.338 L 804.791,264.278 L 804.838,264.229 L 804.915,264.16 L 805.007,264.033 L 805.088,263.913 L 805.13,263.807 L 805.158,263.686 L 805.158,263.623 L 805.15,263.503 L 805.13,263.401 L 805.091,263.221 L 805.098,263.134 L 805.121,263.047 L 805.156,262.971 L 805.214,262.879 L 805.285,262.818 L 805.38,262.763 L 805.514,262.708 L 805.621,262.673 L 805.814,262.544 L 806.156,262.339 L 806.269,262.3 L 806.382,262.228"
       id="path15715"
       style="fill-rule:evenodd" />
    <path
       name="marshfield" d="M 824.296,275.434 L 823.691,275.767 L 823.669,275.679 L 823.629,275.577 L 823.54,275.406 L 823.476,275.281 L 823.397,275.178 L 823.156,274.686 L 822.471,273.881 L 822.358,273.63 L 822.371,273.307 L 822.339,273.236 L 822.211,273.094 L 821.283,272.334 L 821.258,272.263 L 821.152,271.792 L 821.072,271.719 L 821.07,271.459 L 820.909,271.147 L 820.885,271.046 L 820.716,270.722 L 820.493,270.496 L 820.477,270.409 L 820.516,270.355 L 820.523,270.278 L 820.373,270.27 L 820.333,270.184 L 820.38,270.127 L 820.379,270.049 L 820.339,269.97 L 820.212,269.918 L 820.149,269.845 L 820.147,269.619 L 820.044,269.588 L 820.012,269.527 L 819.991,268.935 L 819.933,268.722 L 819.772,268.324 L 819.675,268.057 L 819.578,267.805 L 819.49,267.625 L 819.464,267.437 L 819.392,267.277 L 819.208,267.013 L 819.039,266.612 L 818.775,266.173 L 818.545,265.981 L 818.361,265.744 L 818.337,265.658 L 818.162,265.446 L 817.861,265.316 L 817.671,265.175 L 817.439,264.825 L 817.233,264.63 L 817.13,264.583 L 817.004,264.578 L 816.833,264.8 L 816.652,264.824 L 816.519,264.874 L 816.369,264.897 L 816.305,264.828 L 816.209,264.601 L 816.109,264.396 L 816.23,264.324 L 816.434,264.266 L 816.551,264.178 L 816.738,263.909 L 816.861,263.642 L 817.173,263.323 L 817.241,263.014 L 817.287,262.919 L 817.42,262.856 L 817.563,262.942 L 817.651,263.051 L 817.827,263.403 L 817.9,263.63 L 818.013,263.875 L 818.094,264.133 L 818.352,264.737 L 818.456,264.926 L 818.609,265.263 L 818.978,265.937 L 819.025,265.982 L 819.162,266.273 L 819.29,266.548 L 819.595,267.042 L 819.643,267.165 L 819.723,267.268 L 819.875,267.564 L 820.027,267.802 L 820.195,268.113 L 820.644,268.882 L 820.723,268.982 L 820.964,269.446 L 821.171,269.744 L 821.444,270.291 L 821.492,270.339 L 821.669,270.706 L 821.701,270.777 L 821.797,270.926 L 822.255,271.921 L 822.433,272.346 L 822.441,272.408 L 822.569,272.628 L 822.57,272.69 L 822.698,272.9 L 822.794,273.114 L 823.266,273.842 L 823.482,274.217 L 823.554,274.352 L 823.634,274.476 L 824.296,275.434"
       id="path15723"
       style="fill-rule:evenodd" />
    <path
       name="marshfield" d="M 817.619,266.328 L 816.917,266.208 L 816.672,266.107 L 816.608,266.053 L 816.6,265.967 L 816.647,265.928 L 816.962,265.916 L 816.985,265.853 L 816.944,265.687 L 816.819,265.83 L 816.748,265.807 L 816.747,265.73 L 816.856,265.624 L 816.879,265.524 L 816.831,265.467 L 816.713,265.43 L 816.618,265.361 L 816.592,265.163 L 816.678,265.052 L 816.803,265.036 L 817.152,265.268 L 817.398,265.478 L 817.503,265.698 L 817.743,266.082 L 817.737,266.287 L 817.619,266.328"
       id="path15731"
       style="fill-rule:evenodd" />
    <path
       name="marshfield" d="M 816.52,265.826 L 816.448,265.754 L 816.455,265.67 L 816.502,265.628 L 816.572,265.493 L 816.722,265.557 L 816.653,265.785 L 816.59,265.818 L 816.52,265.826"
       id="path15737"
       style="fill-rule:evenodd" />
    <path
       name="marshfield" d="M 817.567,266.683 L 817.37,266.589 L 817.13,266.51 L 817.588,266.406 L 817.715,266.452 L 817.677,266.618 L 817.567,266.683"
       id="path15739"
       style="fill-rule:evenodd" />
    <path
       name="marshfield" d="M 819.695,269.393 L 819.577,269.378 L 819.34,269.239 L 819.212,269.116 L 819.099,268.753 L 819.097,268.558 L 819.174,268.366 L 819.338,268.225 L 819.464,268.184 L 819.543,268.253 L 819.704,268.599 L 819.761,268.765 L 819.795,269.127 L 819.695,269.393"
       id="path15745"
       style="fill-rule:evenodd" />
    <path
       name="marshfield" d="M 832.947,289.879 L 832.845,289.879 L 832.766,289.816 L 832.71,289.721 L 832.709,289.628 L 832.873,289.509 L 832.913,289.57 L 832.947,289.879"
       id="path15797"
       style="fill-rule:evenodd" />
   </g>
</svg>