<svg
   xmlns:svg="http://www.w3.org/2000/svg"
   xmlns="http://www.w3.org/2000/svg"
   version="1.0"
   width="2100"
   height="1300"
   viewBox="0 0 2100 1300"
   id="svg14921">
   <g
     transform="matrix(2.2640019,0,0,2.2640019,-216.71416,-21.6991)"
     id="g14955"
     style="font-size:16.25px;font-style:normal;font-weight:400;fill:#fefee9;fill-opacity:1;fill-rule:evenodd;stroke:#000000;stroke-width:0.0984252;stroke-linecap:square;stroke-linejoin:bevel;stroke-opacity:1;font-family:Lucida Grande">
    <path
       name="mattapoisett" d="M 794.984,418.98 L 794.011,426.898 L 798.397,431.238 L 804.267,430.203 L 804.209,430.293 L 804.012,430.317 L 803.949,430.35 L 803.934,430.437 L 804.116,430.538 L 804.204,430.678 L 804.23,430.962 L 804.207,431.015 L 804.232,431.182 L 804.264,431.259 L 804.463,431.581 L 804.614,431.745 L 804.828,431.893 L 804.87,432.162 L 804.973,432.332 L 805.251,432.597 L 805.426,432.84 L 805.682,433.335 L 805.723,433.492 L 805.692,433.57 L 805.472,433.626 L 804.692,433.627 L 804.575,433.674 L 804.576,433.786 L 804.649,434.122 L 804.745,434.311 L 805.063,434.702 L 805.43,435.296 L 805.463,435.453 L 805.591,435.672 L 805.593,435.911 L 805.578,436.02 L 805.557,436.383 L 805.614,436.571 L 805.615,436.657 L 805.662,436.703 L 805.719,436.94 L 805.738,437.286 L 805.819,437.641 L 805.855,438.142 L 805.895,438.262 L 806.039,438.456 L 806.063,438.542 L 806.032,438.676 L 805.899,438.692 L 805.63,438.545 L 805.354,438.479 L 805.047,438.55 L 804.827,438.64 L 804.655,438.781 L 804.546,438.949 L 804.549,439.318 L 804.655,439.736 L 804.657,439.907 L 804.524,440.115 L 804.391,440.153 L 804.248,440.068 L 803.901,439.969 L 803.681,439.963 L 803.492,440.043 L 803.414,440.123 L 803.243,440.392 L 803.088,440.787 L 803.091,441.078 L 803.219,441.36 L 803.402,441.5 L 803.749,441.663 L 803.925,441.993 L 803.974,442.165 L 803.938,442.576 L 803.812,442.583 L 803.756,442.522 L 803.524,442.082 L 803.294,441.801 L 803.119,441.645 L 802.977,441.661 L 802.925,442.016 L 802.879,442.135 L 802.875,442.622 L 802.773,442.656 L 802.24,442.005 L 801.692,441.373 L 801.642,441.114 L 801.356,440.834 L 801.355,440.707 L 801.457,440.555 L 801.479,440.431 L 801.431,440.296 L 801.255,440.022 L 801.255,439.904 L 801.41,439.636 L 801.519,439.493 L 801.629,439.453 L 801.685,439.532 L 801.575,439.628 L 801.529,439.728 L 801.53,439.887 L 801.578,439.957 L 801.635,440.169 L 801.676,440.437 L 801.653,440.525 L 801.544,440.689 L 801.545,440.791 L 801.609,440.83 L 801.782,440.853 L 801.907,440.781 L 802.142,440.566 L 802.494,440.296 L 802.816,440.199 L 802.957,440.102 L 803.003,439.992 L 803.183,439.77 L 803.174,439.612 L 803.094,439.512 L 802.999,439.465 L 802.621,439.399 L 802.486,439.344 L 802.327,439.163 L 802.264,439.133 L 802.02,439.134 L 801.934,439.168 L 801.753,439.176 L 801.414,439.202 L 801.358,439.086 L 801.295,439.084 L 800.99,439.276 L 800.424,439.401 L 800.352,439.292 L 800.193,439.141 L 799.885,439.042 L 799.404,438.966 L 798.097,438.985 L 798.034,438.963 L 797.883,438.799 L 797.757,438.729 L 797.607,438.73 L 797.072,438.83 L 796.664,438.981 L 796.554,439.062 L 796.375,439.29 L 796.219,439.388 L 796.014,439.422 L 795.904,439.406 L 795.801,439.344 L 795.396,438.912 L 795.173,438.615 L 794.991,438.493 L 794.769,438.416 L 794.595,438.291 L 794.326,438.048 L 794.214,437.893 L 794.008,437.713 L 793.77,437.565 L 793.667,437.425 L 793.611,437.393 L 793.374,437.152 L 792.694,436.936 L 792.6,436.929 L 792.451,437.042 L 792.215,437.027 L 792.066,437.091 L 791.868,437.047 L 791.782,437.086 L 791.555,437.276 L 791.319,437.277 L 791.066,437.148 L 790.979,437.138 L 790.602,437.251 L 790.523,437.244 L 790.53,437.002 L 790.435,437.017 L 790.325,437.017 L 790.025,436.896 L 789.892,436.984 L 789.836,436.951 L 789.732,436.796 L 789.574,436.701 L 789.368,436.484 L 789.28,436.397 L 789.217,436.39 L 789.178,436.437 L 789.132,436.612 L 788.905,436.786 L 788.898,436.858 L 789.025,436.981 L 789.041,437.067 L 788.848,437.439 L 788.866,437.708 L 789.07,437.628 L 789.141,437.697 L 789.196,437.674 L 789.282,437.572 L 789.4,437.578 L 789.471,437.576 L 789.58,437.448 L 789.83,437.212 L 789.932,437.162 L 790.16,437.152 L 790.326,437.231 L 790.398,437.316 L 790.399,437.443 L 790.046,437.55 L 789.85,437.701 L 789.522,438.089 L 788.908,439.046 L 788.752,439.197 L 788.496,439.725 L 788.394,439.781 L 788.362,439.726 L 788.384,439.452 L 788.258,439.437 L 788.219,439.485 L 788.069,439.486 L 788.06,439.375 L 788.114,439.153 L 788.089,439.092 L 787.799,439.15 L 787.758,439.015 L 787.993,438.85 L 788.031,438.746 L 788.007,438.651 L 787.92,438.638 L 787.74,438.687 L 787.527,438.696 L 787.116,438.463 L 786.958,438.4 L 786.982,438.495 L 787.275,438.728 L 787.325,438.996 L 787.388,439.057 L 787.53,439.09 L 787.61,439.23 L 787.597,439.512 L 788.027,440.083 L 788.035,440.148 L 787.997,440.288 L 788.076,440.366 L 788.155,440.374 L 788.249,440.327 L 788.429,440.142 L 788.554,440.12 L 788.722,440.354 L 788.856,440.409 L 788.916,440.085 L 789.16,440.043 L 789.366,440.106 L 789.532,440.293 L 789.685,440.636 L 789.788,440.747 L 790.159,440.886 L 790.358,441.072 L 790.658,441.221 L 790.651,441.29 L 790.462,441.348 L 790.423,441.411 L 790.416,441.52 L 790.566,441.559 L 790.707,441.471 L 790.857,441.454 L 790.999,441.555 L 791.387,441.742 L 791.726,441.795 L 792.017,441.798 L 792.633,441.945 L 792.893,442.092 L 793.146,442.2 L 793.694,442.723 L 793.742,442.839 L 794.037,443.256 L 794.11,443.505 L 794.119,443.641 L 794.28,444.07 L 794.394,444.55 L 794.474,444.7 L 794.507,444.894 L 794.595,445.059 L 794.652,445.272 L 794.669,445.494 L 794.709,445.595 L 794.735,445.809 L 794.846,445.994 L 794.84,446.162 L 794.709,446.501 L 794.633,446.822 L 794.555,446.896 L 794.068,447.096 L 793.92,447.308 L 793.875,447.576 L 793.805,447.665 L 793.687,447.762 L 793.483,447.817 L 792.731,448.248 L 792.385,448.348 L 792.204,448.335 L 792.022,448.254 L 791.847,448.066 L 791.568,447.637 L 791.37,447.513 L 790.781,446.761 L 790.708,446.509 L 790.637,446.384 L 790.603,446.156 L 790.8,446.147 L 791.192,445.94 L 791.246,445.852 L 791.253,445.749 L 790.981,445.193 L 790.886,445.059 L 790.775,444.988 L 790.452,444.914 L 790.364,444.842 L 790.247,444.892 L 790.208,444.955 L 790.217,445.088 L 790.289,445.3 L 790.339,445.59 L 790.253,445.726 L 789.867,445.681 L 789.74,445.589 L 789.504,445.605 L 789.394,445.568 L 789.384,445.37 L 789.557,445.25 L 789.572,445.156 L 789.366,445.11 L 789.273,445.19 L 789.1,445.279 L 789.141,445.42 L 789.126,445.539 L 788.97,445.744 L 788.94,445.919 L 789.106,446.072 L 789.28,446.151 L 789.38,446.836 L 789.763,447.389 L 789.968,447.483 L 790.047,447.539 L 790.421,448.015 L 790.564,448.156 L 790.589,448.264 L 790.575,448.497 L 790.528,448.607 L 790.411,448.728 L 790.34,448.727 L 790.143,448.603 L 790.015,448.48 L 790.038,448.271 L 790.036,448.057 L 789.868,447.743 L 789.765,447.628 L 789.646,447.588 L 789.472,447.432 L 789.424,447.331 L 789.281,447.205 L 788.871,447.146 L 788.627,447.165 L 788.462,447.26 L 788.299,447.488 L 788.088,447.727 L 787.853,447.901 L 787.658,448.117 L 787.392,448.277 L 787.274,448.293 L 786.204,448.495 L 785.803,448.491 L 785.132,448.309 L 784.95,448.209 L 784.451,447.836 L 783.768,447.176 L 783.244,441.575 L 779.797,429.086 L 777.977,422.494 L 783.634,421.908 L 783.618,421.843 L 783.613,421.769 L 783.626,421.686 L 783.624,421.588 L 783.615,421.484 L 783.6,421.375 L 783.548,421.299 L 783.501,421.208 L 783.475,421.143 L 783.448,421.029 L 783.459,420.972 L 783.487,420.871 L 783.508,420.808 L 783.533,420.747 L 783.609,420.685 L 794.984,418.98"
       id="path16009"
       style="fill-rule:evenodd" />
    <path
       name="mattapoisett" d="M 793.933,450.886 L 793.822,450.793 L 793.678,450.543 L 793.678,450.466 L 793.78,450.463 L 794.065,450.659 L 794.113,450.729 L 794.09,450.863 L 793.933,450.886"
       id="path16071"
       style="fill-rule:evenodd" />       
   </g>
</svg>