<svg
   xmlns:svg="http://www.w3.org/2000/svg"
   xmlns="http://www.w3.org/2000/svg"
   version="1.0"
   width="2100"
   height="1300"
   viewBox="0 0 2100 1300"
   id="svg14921">
   <g
     transform="matrix(2.2640019,0,0,2.2640019,-216.71416,-21.6991)"
     id="g14955"
     style="font-size:16.25px;font-style:normal;font-weight:400;fill:#fefee9;fill-opacity:1;fill-rule:evenodd;stroke:#000000;stroke-width:0.0984252;stroke-linecap:square;stroke-linejoin:bevel;stroke-opacity:1;font-family:Lucida Grande">
    <path
       name="mendon" d="M 595.848,270.924 L 596.416,270.814 L 598.038,273.302 L 598.558,274.13 L 598.898,274.433 L 599.072,274.68 L 599.354,275.154 L 599.599,275.396 L 599.837,275.66 L 600.176,275.898 L 600.377,275.965 L 600.789,276.541 L 600.923,276.867 L 600.958,276.946 L 601.153,277.409 L 601.229,277.538 L 601.352,277.688 L 601.718,277.918 L 602.759,278.417 L 602.764,278.509 L 603.491,279.156 L 604.031,279.879 L 604.159,280.109 L 604.361,280.434 L 604.847,281.174 L 605.115,281.79 L 605.362,282.161 L 605.618,282.437 L 606.313,283.27 L 606.651,283.924 L 606.699,284.135 L 608.061,284.913 L 608.128,284.959 L 608.169,285.008 L 608.229,285.106 L 608.264,285.165 L 608.312,285.24 L 608.397,285.309 L 608.501,285.371 L 608.589,285.433 L 608.647,285.463 L 609.311,285.652 L 609.427,285.677 L 609.515,285.68 L 609.682,285.681 L 609.774,285.663 L 609.839,285.637 L 609.922,285.597 L 611.039,285.162 L 611.403,284.995 L 611.744,284.821 L 611.901,284.75 L 612.007,284.696 L 612.186,284.64 L 614.247,284.252 L 614.299,284.491 L 614.45,284.532 L 614.525,284.543 L 614.588,284.551 L 614.688,284.593 L 614.75,284.64 L 614.809,284.679 L 614.9,284.714 L 614.955,284.739 L 614.955,284.806 L 614.9,284.824 L 614.893,284.891 L 614.976,284.928 L 615.06,284.949 L 615.074,285.012 L 615.071,285.089 L 615.11,285.14 L 615.199,285.191 L 615.255,285.235 L 615.239,285.298 L 615.251,285.369 L 615.301,285.408 L 615.291,285.485 L 615.316,285.556 L 615.339,285.609 L 615.344,285.699 L 615.338,285.762 L 615.333,285.833 L 615.296,285.918 L 615.255,285.969 L 615.236,286.04 L 615.226,286.101 L 615.174,286.169 L 615.135,286.218 L 615.117,286.275 L 615.108,286.354 L 615.075,286.429 L 615.011,286.512 L 614.968,286.553 L 614.903,286.613 L 614.862,286.672 L 614.833,286.739 L 614.818,286.808 L 614.82,286.869 L 614.891,286.918 L 614.925,286.969 L 614.917,287.026 L 614.883,287.116 L 614.84,287.194 L 614.75,287.393 L 614.702,287.476 L 614.679,287.58 L 614.67,287.684 L 614.668,287.779 L 614.671,287.856 L 614.697,287.983 L 614.715,288.082 L 614.716,288.16 L 614.703,288.243 L 614.678,288.334 L 614.656,288.414 L 614.639,288.517 L 614.651,297.607 L 614.319,297.628 L 597.775,297.879 L 590.611,297.991 L 590.423,280.54 L 590.396,278.042 L 591.657,276.859 L 595.374,273.193 L 596.25,272.014 L 595.848,270.924"
       id="path15751"
       style="fill-rule:evenodd" />
   </g>
</svg>