<svg
   xmlns:svg="http://www.w3.org/2000/svg"
   xmlns="http://www.w3.org/2000/svg"
   version="1.0"
   width="2100"
   height="1300"
   viewBox="0 0 2100 1300"
   id="svg14921">
   <g
     transform="matrix(2.2640019,0,0,2.2640019,-216.71416,-21.6991)"
     id="g14955"
     style="font-size:16.25px;font-style:normal;font-weight:400;fill:#fefee9;fill-opacity:1;fill-rule:evenodd;stroke:#000000;stroke-width:0.0984252;stroke-linecap:square;stroke-linejoin:bevel;stroke-opacity:1;font-family:Lucida Grande">
    <path
       name="methuen" d="M 694.713,46.396 L 707.906,57.7515 L 707.908,57.8873 L 707.909,57.9919 L 707.936,58.1999 L 708.112,58.7919 L 708.325,59.2567 L 708.424,59.4665 L 709.025,60.6053 L 709.069,60.6802 L 709.186,60.839 L 709.302,60.9729 L 709.46,61.0771 L 710.052,61.5081 L 710.253,61.6948 L 710.32,61.7773 L 710.408,61.8734 L 710.477,61.9716 L 711.052,62.801 L 711.327,63.2116 L 711.517,63.5163 L 711.568,63.6755 L 711.626,63.8053 L 711.662,63.9172 L 711.697,64.0668 L 711.727,64.2062 L 711.739,64.3242 L 711.742,64.4127 L 711.746,64.5171 L 711.741,64.5946 L 711.725,64.6843 L 711.69,64.84 L 711.626,65.035 L 711.584,65.1517 L 711.519,65.2994 L 711.465,65.3942 L 710.979,66.1403 L 710.199,67.1229 L 709.742,67.6187 L 709.501,67.8577 L 709.406,68.0121 L 709.308,68.224 L 709.191,68.49 L 709.086,68.6972 L 709.002,68.8632 L 708.822,69.1292 L 707.848,70.4517 L 707.609,70.7502 L 707.447,70.9191 L 707.245,71.1136 L 707.173,71.1907 L 707.089,71.3053 L 707.045,71.3631 L 698.246,71.0754 L 697.804,70.7752 L 697.481,71.2494 L 692.628,75.1494 L 693.222,80.0038 L 692.959,79.8624 L 692.823,79.7921 L 692.66,79.7082 L 692.412,79.599 L 692.217,79.5228 L 692.009,79.4568 L 691.754,79.383 L 691.545,79.352 L 690.445,79.2852 L 690.125,79.2664 L 689.778,79.2164 L 689.412,79.1314 L 687.694,78.579 L 687.299,78.4684 L 687.116,78.4337 L 686.945,78.4147 L 686.757,78.4075 L 686.57,78.4102 L 686.421,78.4325 L 686.195,78.4866 L 685.944,78.5546 L 685.752,78.6301 L 685.621,78.7192 L 685.454,78.8281 L 685.335,78.9152 L 685.258,78.9942 L 685.156,79.1126 L 684.944,79.444 L 684.34,80.5091 L 684.215,80.7437 L 684.122,80.9409 L 684.075,81.1142 L 683.961,82.8091 L 683.95,83.1201 L 683.932,83.4074 L 683.901,83.5827 L 683.87,83.7479 L 683.764,84.213 L 683.557,84.8258 L 683.398,85.2928 L 683.237,85.7263 L 683.112,86.0122 L 682.934,86.3614 L 681.74,88.3235 L 681.5,88.6155 L 681.356,88.789 L 681.201,88.9155 L 681.128,88.9786 L 680.994,89.1049 L 680.818,89.263 L 680.705,89.3912 L 680.639,88.7898 L 677.81,74.0496 L 677.785,73.9836 L 676.344,66.2857 L 677.756,65.0641 L 678.787,64.2161 L 680.831,63.4018 L 684.285,62.8471 L 694.982,65.9406 L 694.701,61.5557 L 693.777,47.5785 L 694.713,46.396"
       id="path14983"
       style="fill-rule:evenodd" />
   </g>
</svg>