<svg
   xmlns:svg="http://www.w3.org/2000/svg"
   xmlns="http://www.w3.org/2000/svg"
   version="1.0"
   width="2100"
   height="1300"
   viewBox="0 0 2100 1300"
   id="svg14921">
   <g
     transform="matrix(2.2640019,0,0,2.2640019,-216.71416,-21.6991)"
     id="g14955"
     style="font-size:16.25px;font-style:normal;font-weight:400;fill:#fefee9;fill-opacity:1;fill-rule:evenodd;stroke:#000000;stroke-width:0.0984252;stroke-linecap:square;stroke-linejoin:bevel;stroke-opacity:1;font-family:Lucida Grande">
    <path
       name="middlefield" d="M 228.997,183.069 L 231.544,182.731 L 237.499,181.888 L 237.493,181.966 L 237.485,182.041 L 237.468,182.105 L 237.458,182.211 L 237.448,182.286 L 237.435,182.358 L 237.415,182.44 L 237.402,182.505 L 237.392,182.599 L 237.378,182.668 L 237.35,182.765 L 237.333,182.85 L 237.323,182.926 L 237.301,183.016 L 237.282,183.085 L 237.269,183.143 L 237.252,183.216 L 237.232,183.28 L 237.221,183.343 L 237.213,183.422 L 237.19,183.509 L 237.166,183.596 L 237.147,183.678 L 237.128,183.732 L 237.108,183.805 L 237.081,183.863 L 237.077,183.957 L 237.09,184.015 L 237.122,184.075 L 237.168,184.119 L 237.222,184.177 L 237.27,184.224 L 237.319,184.303 L 237.374,184.376 L 237.408,184.449 L 237.45,184.519 L 237.492,184.577 L 237.533,184.647 L 237.579,184.711 L 237.617,184.78 L 237.637,184.846 L 237.65,184.905 L 237.66,184.984 L 237.672,185.047 L 237.676,185.144 L 237.688,185.209 L 237.69,185.294 L 237.692,185.373 L 237.694,185.443 L 237.71,185.524 L 237.726,185.615 L 237.743,185.7 L 237.767,185.766 L 237.791,185.833 L 237.827,185.913 L 237.867,185.99 L 237.898,186.06 L 237.922,186.137 L 237.936,186.224 L 237.938,186.285 L 237.94,186.376 L 237.953,186.437 L 237.965,186.514 L 237.976,186.625 L 237.99,186.688 L 238,186.763 L 238.024,186.834 L 238.052,186.908 L 238.092,186.985 L 238.147,187.047 L 238.215,187.106 L 238.287,187.143 L 238.353,187.182 L 238.423,187.207 L 238.481,187.242 L 238.569,187.278 L 238.664,187.341 L 238.724,187.386 L 238.774,187.434 L 238.837,187.514 L 238.857,187.574 L 238.897,187.623 L 238.942,187.691 L 238.97,187.782 L 238.994,187.852 L 239.032,187.946 L 239.05,188.021 L 239.093,188.093 L 239.142,188.152 L 239.2,188.199 L 239.28,188.241 L 239.388,188.318 L 239.439,188.349 L 239.55,188.408 L 239.621,188.497 L 239.661,188.549 L 239.745,188.634 L 239.79,188.675 L 239.868,188.763 L 239.921,188.798 L 240.003,188.871 L 240.058,188.911 L 240.119,188.97 L 240.165,189.02 L 240.216,189.083 L 240.25,189.139 L 240.281,189.221 L 240.285,189.292 L 240.267,189.366 L 240.237,189.446 L 240.196,189.517 L 240.131,189.576 L 240.071,189.606 L 240.012,189.669 L 240.002,189.745 L 240,189.808 L 239.99,189.875 L 239.972,189.933 L 239.945,189.99 L 239.896,190.043 L 239.859,190.115 L 239.817,190.182 L 239.784,190.23 L 239.718,190.327 L 239.645,190.405 L 239.571,190.491 L 239.451,190.645 L 239.406,190.695 L 239.367,190.743 L 239.311,190.82 L 239.274,190.871 L 239.229,190.941 L 239.219,191.017 L 239.236,191.095 L 239.311,191.148 L 239.379,191.168 L 239.693,191.235 L 239.773,191.256 L 239.841,191.289 L 239.886,191.344 L 239.923,191.414 L 239.935,191.479 L 239.924,191.581 L 239.902,191.655 L 239.87,191.723 L 239.846,191.809 L 239.837,191.885 L 239.851,191.949 L 239.898,192.072 L 239.926,192.124 L 239.969,192.201 L 240.016,192.269 L 240.055,192.382 L 240.086,192.519 L 240.117,192.603 L 240.151,192.708 L 240.186,192.776 L 240.22,192.856 L 240.288,192.964 L 240.317,193.022 L 240.346,193.096 L 240.368,193.215 L 240.39,193.31 L 240.414,193.368 L 240.437,193.434 L 240.461,193.49 L 240.496,193.563 L 240.543,193.644 L 240.562,193.723 L 240.573,193.806 L 240.58,193.883 L 240.567,193.987 L 240.563,194.046 L 240.571,194.162 L 240.576,194.245 L 240.574,194.31 L 240.573,194.41 L 240.575,194.469 L 240.582,194.527 L 240.587,194.631 L 240.6,194.724 L 240.609,194.791 L 240.619,194.851 L 240.635,194.912 L 240.662,194.986 L 240.69,195.04 L 240.725,195.094 L 240.765,195.145 L 240.944,195.312 L 240.986,195.36 L 241.039,195.431 L 241.153,195.704 L 241.208,195.794 L 241.284,195.917 L 241.413,196.122 L 241.493,196.264 L 241.604,196.419 L 241.664,196.516 L 241.724,196.604 L 241.77,196.692 L 241.818,196.786 L 241.88,196.881 L 241.933,196.947 L 241.98,197.01 L 242.038,197.088 L 242.091,197.157 L 242.146,197.214 L 242.225,197.271 L 242.283,197.309 L 242.401,197.358 L 242.485,197.386 L 242.562,197.43 L 242.634,197.464 L 242.707,197.515 L 242.757,197.55 L 242.814,197.592 L 242.879,197.645 L 242.917,197.701 L 242.95,197.769 L 242.987,197.841 L 243.013,197.935 L 243.043,198 L 243.075,198.104 L 243.093,198.161 L 243.097,198.262 L 243.099,198.325 L 243.085,198.401 L 230.912,208.908 L 230.759,208.977 L 230.68,209.029 L 230.628,209.069 L 230.521,209.169 L 230.489,209.228 L 230.465,209.318 L 230.417,209.439 L 230.356,209.654 L 230.327,209.707 L 230.262,209.753 L 230.192,209.795 L 230.116,209.85 L 230.055,209.942 L 230.039,210.034 L 230.039,210.126 L 230.038,210.201 L 230.033,210.262 L 230.018,210.331 L 230.002,210.393 L 229.995,210.472 L 229.972,210.548 L 229.927,210.601 L 229.845,210.664 L 229.744,210.693 L 229.649,210.735 L 229.587,210.777 L 229.479,210.863 L 229.446,210.945 L 229.427,211 L 229.434,211.081 L 229.456,211.137 L 229.478,211.2 L 229.513,211.317 L 229.533,211.41 L 229.487,211.462 L 229.413,211.504 L 229.359,211.532 L 229.248,211.597 L 229.159,211.605 L 229.087,211.6 L 229.018,211.596 L 228.947,211.595 L 228.864,211.623 L 228.804,211.64 L 228.729,211.664 L 228.656,211.676 L 228.589,211.669 L 228.503,211.669 L 228.44,211.658 L 228.377,211.637 L 228.308,211.585 L 228.232,211.534 L 228.167,211.454 L 228.098,211.364 L 228.064,211.302 L 228.026,211.237 L 227.991,211.177 L 227.953,211.117 L 227.87,211.051 L 227.762,210.97 L 227.7,210.896 L 227.657,210.808 L 227.611,210.715 L 227.554,210.623 L 227.476,210.519 L 227.411,210.422 L 227.345,210.265 L 227.23,210.044 L 227.159,209.939 L 227.1,209.851 L 227.054,209.785 L 226.998,209.713 L 226.923,209.629 L 226.864,209.559 L 226.763,209.494 L 226.698,209.485 L 226.62,209.481 L 226.544,209.513 L 226.494,209.567 L 226.457,209.63 L 226.419,209.69 L 226.386,209.749 L 226.357,209.823 L 226.336,209.891 L 226.305,209.973 L 226.256,210.061 L 226.207,210.143 L 226.168,210.191 L 226.108,210.243 L 226.035,210.285 L 225.98,210.333 L 225.884,210.339 L 225.815,210.336 L 225.731,210.326 L 225.678,210.302 L 225.612,210.247 L 225.564,210.185 L 225.503,210.119 L 225.453,210.069 L 225.395,210.019 L 225.315,209.966 L 225.231,209.923 L 225.139,209.907 L 225.055,209.906 L 224.991,209.918 L 224.912,209.944 L 224.855,209.959 L 224.77,209.987 L 224.681,210.011 L 224.623,210.029 L 224.548,210.061 L 224.478,210.119 L 224.401,210.222 L 224.341,210.291 L 224.253,210.358 L 224.163,210.414 L 224.067,210.412 L 223.988,210.381 L 223.934,210.35 L 223.86,210.315 L 223.772,210.29 L 223.704,210.267 L 223.618,210.236 L 223.53,210.207 L 223.428,210.195 L 223.334,210.146 L 223.276,210.111 L 223.196,210.076 L 223.101,210.003 L 222.961,209.942 L 222.891,209.899 L 222.827,209.851 L 222.767,209.802 L 222.724,209.76 L 222.675,209.676 L 222.61,209.604 L 222.566,209.534 L 222.512,209.445 L 222.475,209.373 L 222.427,209.298 L 222.391,209.23 L 222.365,209.172 L 222.319,209.075 L 222.287,209.025 L 222.235,208.969 L 222.197,208.923 L 222.157,208.855 L 222.12,208.804 L 222.059,208.726 L 222.007,208.679 L 221.766,208.446 L 221.398,208.13 L 221.323,208.083 L 221.202,208.01 L 221.143,207.987 L 221.07,207.929 L 221.038,207.877 L 221,207.812 L 220.983,207.756 L 220.97,207.699 L 220.965,207.573 L 220.936,207.251 L 220.885,206.894 L 220.9,206.822 L 220.921,206.757 L 220.913,206.674 L 220.881,206.597 L 220.849,206.533 L 220.811,206.454 L 220.779,206.39 L 220.743,206.319 L 220.721,206.257 L 220.684,206.192 L 220.636,206.134 L 220.546,206.128 L 220.475,206.13 L 220.389,206.121 L 220.316,206.125 L 220.231,206.131 L 220.178,206.154 L 220.116,206.184 L 220.052,206.24 L 219.97,206.294 L 219.893,206.32 L 219.812,206.344 L 219.725,206.374 L 219.635,206.423 L 219.572,206.42 L 219.492,206.41 L 219.4,206.383 L 219.327,206.303 L 219.289,206.216 L 219.267,206.16 L 219.218,206.043 L 219.168,205.959 L 219.103,205.895 L 219.019,205.834 L 218.963,205.79 L 218.909,205.752 L 218.851,205.703 L 218.786,205.684 L 218.734,205.658 L 218.654,205.625 L 218.593,205.631 L 218.518,205.638 L 218.444,205.597 L 218.38,205.541 L 218.334,205.5 L 218.272,205.444 L 218.194,205.388 L 218.138,205.339 L 218.092,205.281 L 218.053,205.2 L 217.976,205.076 L 217.841,204.861 L 217.784,204.793 L 217.704,204.723 L 217.644,204.672 L 217.584,204.636 L 217.503,204.575 L 217.433,204.54 L 217.367,204.499 L 217.299,204.439 L 217.239,204.397 L 217.175,204.358 L 217.079,204.305 L 216.978,204.258 L 216.919,204.245 L 216.726,204.168 L 216.557,204.067 L 216.499,204.026 L 216.431,203.968 L 216.33,203.901 L 216.086,203.731 L 215.961,203.65 L 215.849,203.569 L 215.785,203.514 L 215.707,203.471 L 215.645,203.423 L 215.581,203.365 L 215.433,203.295 L 215.26,203.187 L 215.152,203.118 L 215.092,203.07 L 215.014,203.007 L 214.972,202.942 L 214.982,202.841 L 214.714,199.312 L 213.991,187.134 L 213.878,185.2 L 214.612,182.321 L 228.375,185.823 L 228.997,183.069"
       id="path15439"
       style="fill-rule:evenodd" />
   </g>
</svg>