<svg
   xmlns:svg="http://www.w3.org/2000/svg"
   xmlns="http://www.w3.org/2000/svg"
   version="1.0"
   width="2100"
   height="1300"
   viewBox="0 0 2100 1300"
   id="svg14921">
   <g
     transform="matrix(2.2640019,0,0,2.2640019,-216.71416,-21.6991)"
     id="g14955"
     style="font-size:16.25px;font-style:normal;font-weight:400;fill:#fefee9;fill-opacity:1;fill-rule:evenodd;stroke:#000000;stroke-width:0.0984252;stroke-linecap:square;stroke-linejoin:bevel;stroke-opacity:1;font-family:Lucida Grande">
    <path
       name="milford" d="M 613.502,254.058 L 614.32,259.159 L 614.835,262.564 L 615.948,262.718 L 619.826,262.838 L 619.796,265.974 L 619.718,274.706 L 616.975,276.873 L 616.754,277.059 L 614.321,279.295 L 613.827,279.768 L 613.779,279.637 L 613.759,279.566 L 613.711,279.476 L 613.646,279.433 L 613.574,279.43 L 613.501,279.454 L 613.427,279.442 L 613.387,279.399 L 613.332,279.336 L 613.273,279.29 L 613.22,279.254 L 613.145,279.233 L 613.05,279.222 L 612.994,279.21 L 612.929,279.191 L 612.842,279.144 L 612.765,279.078 L 612.724,279.025 L 612.661,278.978 L 612.592,278.939 L 612.537,278.884 L 612.491,278.811 L 612.436,278.711 L 612.386,278.645 L 612.38,278.586 L 612.344,278.494 L 612.375,278.417 L 612.406,278.328 L 612.411,278.224 L 612.354,278.162 L 612.285,278.126 L 612.201,278.076 L 612.153,278.015 L 612.151,277.915 L 612.105,277.82 L 612.052,277.785 L 611.985,277.714 L 611.912,277.64 L 611.856,277.569 L 611.83,277.499 L 611.753,277.452 L 611.672,277.368 L 611.642,277.317 L 611.622,277.24 L 611.439,277.239 L 609.238,277.179 L 608.924,276.875 L 606.824,274.726 L 604.383,272.431 L 604.127,272.313 L 597.988,267.136 L 598.019,266.996 L 598.126,266.901 L 598.165,266.853 L 598.212,266.798 L 598.247,266.747 L 598.243,266.672 L 598.233,266.607 L 598.25,266.538 L 598.328,266.502 L 598.397,266.56 L 598.474,266.57 L 598.533,266.581 L 598.59,266.563 L 598.593,266.492 L 598.561,266.39 L 598.575,266.297 L 598.599,266.134 L 598.597,266.049 L 598.577,265.967 L 598.564,265.878 L 598.562,265.803 L 598.606,265.701 L 598.559,265.398 L 598.502,265.341 L 598.386,265.287 L 598.362,265.203 L 598.354,265.132 L 598.275,265.091 L 598.262,265.018 L 598.254,264.96 L 598.27,264.886 L 598.185,264.864 L 598.124,264.815 L 598.088,264.73 L 598.021,264.68 L 597.971,264.647 L 597.912,264.551 L 597.925,264.48 L 597.95,264.405 L 597.913,264.326 L 597.884,264.228 L 597.901,264.108 L 597.96,264.023 L 597.955,263.944 L 597.955,263.883 L 597.949,263.797 L 597.934,263.722 L 597.895,263.679 L 597.838,263.614 L 597.788,263.544 L 597.752,263.491 L 597.738,263.432 L 597.742,263.347 L 597.734,263.08 L 597.753,263.013 L 597.755,262.95 L 597.768,262.881 L 597.797,262.822 L 597.832,262.764 L 597.849,262.638 L 597.886,262.5 L 597.937,262.413 L 597.987,262.352 L 598.036,262.245 L 598.096,262.154 L 598.171,262.183 L 598.23,262.21 L 598.352,262.261 L 598.508,262.315 L 598.872,262.406 L 598.873,262.296 L 598.879,262.229 L 598.845,262.145 L 598.784,262.09 L 598.705,262.085 L 598.674,262.146 L 598.627,262.221 L 598.553,262.238 L 598.509,262.173 L 598.542,262.106 L 598.593,262.058 L 598.657,261.989 L 598.694,261.92 L 598.653,261.845 L 598.65,261.772 L 598.634,261.7 L 598.575,261.625 L 598.529,261.57 L 598.479,261.502 L 598.408,261.361 L 598.36,261.255 L 598.33,261.192 L 598.269,261.106 L 598.225,261.02 L 598.199,260.947 L 598.163,260.894 L 598.096,260.843 L 598.051,260.804 L 598.009,260.734 L 598.062,260.651 L 598.13,260.583 L 598.181,260.534 L 598.165,260.445 L 598.156,260.369 L 598.158,260.31 L 598.169,260.243 L 598.187,260.17 L 598.216,260.097 L 598.284,260.029 L 598.349,259.991 L 598.374,259.905 L 598.379,259.846 L 598.385,259.767 L 598.36,259.623 L 598.358,259.503 L 598.343,259.362 L 598.349,259.295 L 598.366,259.23 L 598.411,259.125 L 598.41,259.044 L 598.409,258.956 L 598.397,258.85 L 598.369,258.72 L 598.35,258.582 L 598.298,258.41 L 598.373,258.362 L 598.473,258.371 L 598.587,258.37 L 598.658,258.369 L 598.74,258.369 L 598.805,258.361 L 598.893,258.372 L 598.972,258.385 L 599.07,258.392 L 599.157,258.403 L 599.281,258.444 L 599.34,258.504 L 599.402,258.573 L 599.486,258.592 L 599.573,258.621 L 599.63,258.648 L 599.685,258.683 L 599.755,258.761 L 599.79,258.81 L 599.858,258.888 L 599.954,258.927 L 600.054,258.883 L 600.083,258.774 L 600.11,258.701 L 600.137,258.65 L 600.186,258.61 L 600.241,258.588 L 600.312,258.574 L 600.39,258.566 L 600.463,258.581 L 600.552,258.62 L 600.625,258.672 L 600.716,258.752 L 600.804,258.763 L 600.861,258.696 L 600.888,258.607 L 600.891,258.519 L 600.898,258.422 L 600.894,258.29 L 600.864,258.153 L 600.807,257.982 L 600.781,257.874 L 600.712,257.768 L 600.678,257.69 L 600.654,257.629 L 600.579,257.529 L 600.488,257.402 L 600.293,257.437 L 599.921,257.278 L 599.931,257.086 L 604.084,254.648 L 612.411,254.915 L 613.502,254.058"
       id="path15693"
       style="fill-rule:evenodd" />
   </g>
</svg>