<svg
   xmlns:svg="http://www.w3.org/2000/svg"
   xmlns="http://www.w3.org/2000/svg"
   version="1.0"
   width="2100"
   height="1300"
   viewBox="0 0 2100 1300"
   id="svg14921">
   <g
     transform="matrix(2.2640019,0,0,2.2640019,-216.71416,-21.6991)"
     id="g14955"
     style="font-size:16.25px;font-style:normal;font-weight:400;fill:#fefee9;fill-opacity:1;fill-rule:evenodd;stroke:#000000;stroke-width:0.0984252;stroke-linecap:square;stroke-linejoin:bevel;stroke-opacity:1;font-family:Lucida Grande">
    <path
       name="milton" d="M 725.433,226.49 L 725.453,226.653 L 725.462,226.72 L 725.297,226.839 L 725.313,226.91 L 725.361,226.949 L 725.385,227.122 L 725.576,227.426 L 725.821,227.664 L 725.947,227.741 L 726.278,227.809 L 726.869,227.72 L 726.971,227.658 L 727.121,227.728 L 727.199,227.67 L 727.285,227.497 L 727.419,227.49 L 727.561,227.52 L 727.789,227.51 L 727.796,227.448 L 727.584,227.417 L 727.205,227.27 L 727.299,227.199 L 727.559,227.157 L 727.716,227.094 L 727.951,226.919 L 727.958,226.699 L 727.997,226.651 L 728.178,226.587 L 728.343,226.477 L 728.649,226.421 L 728.861,226.245 L 728.955,226.239 L 729.034,226.283 L 729.058,226.347 L 728.997,226.74 L 728.966,226.812 L 728.841,226.93 L 728.779,227.081 L 728.937,227.262 L 729.04,227.309 L 729.142,227.322 L 729.268,227.234 L 729.346,227.229 L 729.433,227.282 L 729.302,227.739 L 729.326,227.819 L 729.397,227.826 L 729.436,227.732 L 729.451,227.635 L 729.506,227.534 L 729.505,227.376 L 729.551,227.226 L 729.392,227.013 L 729.29,227.016 L 729.188,227.063 L 729.102,227.134 L 729.023,227.136 L 728.975,227.078 L 728.983,226.976 L 729.147,226.757 L 729.168,226.291 L 729.121,226.197 L 729.018,226.104 L 728.868,226.074 L 728.655,226.074 L 728.584,225.995 L 728.52,225.758 L 728.519,225.634 L 728.432,225.429 L 728.076,225.102 L 728.012,224.967 L 727.995,224.778 L 728.065,224.606 L 728.159,224.485 L 728.591,224.153 L 728.74,224.074 L 729.196,224.064 L 729.417,224.095 L 729.622,224.219 L 729.875,224.429 L 730.144,224.616 L 730.31,224.704 L 730.468,224.743 L 730.775,224.715 L 730.877,224.746 L 730.979,224.691 L 731.129,224.548 L 731.418,227.236 L 731.392,227.299 L 731.382,227.366 L 731.376,227.463 L 731.407,227.695 L 731.413,227.783 L 731.406,227.846 L 731.392,227.904 L 733.998,230.344 L 733.808,230.654 L 730.034,233.531 L 726.449,236.212 L 728.494,240.745 L 718.283,246.034 L 720.97,249.332 L 720.87,249.425 L 720.813,249.457 L 720.599,249.508 L 720.495,249.515 L 720.398,249.508 L 720.329,249.471 L 720.282,249.434 L 720.224,249.374 L 720.178,249.331 L 720.114,249.359 L 720.037,249.358 L 719.98,249.315 L 719.913,249.351 L 719.857,249.425 L 719.779,249.542 L 719.774,249.614 L 719.747,249.668 L 719.683,249.761 L 719.656,249.824 L 719.612,249.927 L 719.579,249.979 L 719.538,250.02 L 719.458,250.031 L 719.342,250.038 L 719.186,250.026 L 719.023,250.008 L 718.862,250.009 L 718.636,250.019 L 718.465,250.029 L 718.341,250.038 L 718.17,250.051 L 718.002,250.045 L 717.912,250.058 L 717.802,250.079 L 717.7,250.093 L 717.584,250.098 L 717.476,250.162 L 717.423,250.204 L 717.357,250.221 L 717.237,250.228 L 717.152,250.24 L 717.077,250.249 L 717.013,250.309 L 716.911,250.392 L 716.845,250.432 L 716.768,250.411 L 716.715,250.38 L 716.633,250.344 L 716.529,250.347 L 716.431,250.361 L 716.352,250.352 L 715.776,250.639 L 710.265,243.316 L 708.654,241.293 L 708.69,241.207 L 708.731,241.132 L 708.778,241.072 L 708.849,241.027 L 708.932,240.977 L 709.024,240.904 L 709.047,240.849 L 709.061,240.788 L 709.104,240.678 L 709.139,240.611 L 709.206,240.547 L 709.311,240.415 L 709.411,240.275 L 709.45,240.228 L 709.503,240.18 L 709.564,240.152 L 709.657,240.124 L 709.759,240.081 L 709.827,239.996 L 709.87,239.952 L 709.961,239.91 L 710.006,239.869 L 710.08,239.782 L 710.137,239.715 L 710.18,239.646 L 710.219,239.557 L 710.237,239.486 L 710.219,239.412 L 710.205,239.345 L 710.2,239.239 L 710.248,239.177 L 710.284,239.132 L 710.358,239.096 L 710.419,239.098 L 710.664,239.101 L 710.738,239.092 L 710.759,239.02 L 710.759,238.951 L 710.746,238.87 L 710.71,238.782 L 710.674,238.7 L 710.619,238.642 L 710.532,238.562 L 710.441,238.466 L 710.353,238.339 L 710.247,238.19 L 709.719,237.472 L 710.24,237.09 L 714.124,234.354 L 714.107,233.613 L 714.054,231.749 L 713.075,230.554 L 713.139,230.504 L 713.239,230.391 L 713.361,230.209 L 713.505,229.982 L 713.575,229.925 L 713.674,229.862 L 713.801,229.813 L 714.005,229.785 L 714.109,229.775 L 714.172,229.778 L 714.275,229.807 L 714.348,229.837 L 714.426,229.9 L 714.509,229.981 L 714.608,229.996 L 714.831,229.962 L 715.157,229.929 L 715.259,229.996 L 715.358,230.116 L 715.471,230.241 L 715.547,230.296 L 715.622,230.297 L 715.678,230.278 L 715.746,230.245 L 715.879,230.169 L 716.305,229.803 L 716.428,229.659 L 716.657,229.409 L 716.753,229.315 L 716.813,229.286 L 716.892,229.26 L 716.977,229.229 L 717.022,229.191 L 717.062,229.144 L 717.1,229.077 L 717.165,228.973 L 717.206,228.909 L 717.257,228.811 L 717.341,228.656 L 717.465,228.492 L 717.604,228.309 L 717.688,228.191 L 717.734,228.1 L 717.778,227.992 L 717.818,227.905 L 717.869,227.819 L 717.929,227.78 L 718.015,227.77 L 718.11,227.782 L 718.228,227.841 L 718.291,227.877 L 718.394,227.9 L 718.465,227.9 L 718.546,227.91 L 718.687,227.955 L 718.75,227.961 L 718.823,227.959 L 718.912,227.924 L 718.945,227.868 L 718.97,227.785 L 719.006,227.601 L 719.03,227.445 L 719.02,227.388 L 718.992,227.278 L 718.986,227.17 L 719.003,227.054 L 719.025,226.98 L 719.098,226.874 L 719.15,226.849 L 719.264,226.833 L 720.208,227.072 L 720.517,227.168 L 720.783,227.254 L 720.893,227.25 L 721.827,226.798 L 721.948,226.75 L 722.12,226.693 L 722.246,226.669 L 722.35,226.657 L 722.493,226.653 L 723.382,226.612 L 723.444,226.575 L 723.544,226.496 L 723.624,226.459 L 723.705,226.441 L 723.807,226.457 L 723.926,226.484 L 724.005,226.514 L 724.09,226.525 L 724.238,226.526 L 724.441,226.473 L 724.619,226.403 L 724.67,226.333 L 724.694,226.272 L 724.768,226.219 L 725.114,226.271 L 725.207,226.294 L 725.265,226.342 L 725.349,226.423 L 725.433,226.49"
       id="path15577"
       style="fill-rule:evenodd" />
   </g>
</svg>