<svg
   xmlns:svg="http://www.w3.org/2000/svg"
   xmlns="http://www.w3.org/2000/svg"
   version="1.0"
   width="2100"
   height="1300"
   viewBox="0 0 2100 1300"
   id="svg14921">
   <g
     transform="matrix(2.2640019,0,0,2.2640019,-216.71416,-21.6991)"
     id="g14955"
     style="font-size:16.25px;font-style:normal;font-weight:400;fill:#fefee9;fill-opacity:1;fill-rule:evenodd;stroke:#000000;stroke-width:0.0984252;stroke-linecap:square;stroke-linejoin:bevel;stroke-opacity:1;font-family:Lucida Grande">
    <path
       name="monterey" d="M 164.887,232.135 L 166.695,233.324 L 180.016,242.056 L 188.77,247.97 L 188.694,254.276 L 187.338,259.702 L 187.468,261.609 L 182.195,262.027 L 182.29,262.8 L 172.497,264.467 L 166.841,257.339 L 166.2,257.412 L 160.564,258.19 L 160.466,258.155 L 160.398,258.14 L 160.308,258.097 L 160.224,258.063 L 160.169,258.045 L 160.1,258 L 160.047,257.956 L 159.986,257.883 L 159.93,257.808 L 159.736,257.589 L 159.658,257.475 L 159.588,257.411 L 159.538,257.361 L 159.46,257.332 L 159.395,257.321 L 159.317,257.278 L 159.23,257.238 L 159.152,257.199 L 159.05,257.174 L 158.969,257.168 L 158.898,257.169 L 158.824,257.169 L 158.695,257.18 L 158.621,257.157 L 158.573,257.119 L 158.515,257.064 L 158.451,257.02 L 158.388,256.991 L 158.326,256.962 L 158.263,256.941 L 158.199,256.922 L 158.13,256.909 L 158.054,256.901 L 157.986,256.849 L 157.917,256.839 L 157.819,256.836 L 157.703,256.817 L 157.571,256.803 L 157.477,256.779 L 157.345,256.723 L 157.289,256.663 L 157.21,256.589 L 157.076,256.478 L 156.844,256.304 L 156.135,255.842 L 155.814,251.817 L 156.084,245.985 L 164.887,232.135"
       id="path15619"
       style="fill-rule:evenodd" />
   </g>
</svg>