<svg
   xmlns:svg="http://www.w3.org/2000/svg"
   xmlns="http://www.w3.org/2000/svg"
   version="1.0"
   width="2100"
   height="1300"
   viewBox="0 0 2100 1300"
   id="svg14921">
   <g
     transform="matrix(2.2640019,0,0,2.2640019,-216.71416,-21.6991)"
     id="g14955"
     style="font-size:16.25px;font-style:normal;font-weight:400;fill:#fefee9;fill-opacity:1;fill-rule:evenodd;stroke:#000000;stroke-width:0.0984252;stroke-linecap:square;stroke-linejoin:bevel;stroke-opacity:1;font-family:Lucida Grande">
    <path
       name="montgomery" d="M 278.282,233.017 L 278.435,236.455 L 283.347,235.884 L 283.617,242.616 L 286.141,242.673 L 286.309,248.73 L 285.123,248.446 L 281.802,260.285 L 280.599,261.292 L 279.278,263.192 L 277.931,263.687 L 278.455,260.972 L 269.697,248.199 L 269.405,247.767 L 269.359,247.707 L 269.309,247.665 L 269.247,247.638 L 269.066,247.602 L 268.99,247.592 L 268.712,247.537 L 268.614,247.525 L 268.325,247.483 L 268.245,247.467 L 267.965,247.4 L 267.885,247.384 L 267.597,247.314 L 267.493,247.292 L 267.231,247.231 L 267.133,247.203 L 267.087,247.167 L 267.051,247.097 L 267.059,247.005 L 267.082,246.94 L 267.123,246.861 L 267.153,246.808 L 267.196,246.762 L 267.252,246.69 L 267.304,246.642 L 267.369,246.547 L 267.422,246.491 L 267.486,246.42 L 267.539,246.352 L 267.588,246.247 L 267.609,246.193 L 267.638,246.134 L 267.658,246.023 L 267.666,245.932 L 267.667,245.846 L 267.669,245.785 L 267.645,245.682 L 267.619,245.613 L 267.578,245.537 L 267.473,245.255 L 267.436,245.179 L 267.397,245.043 L 267.337,244.908 L 267.29,244.814 L 267.266,244.733 L 267.213,244.659 L 267.144,244.543 L 267.104,244.468 L 266.97,244.221 L 266.917,244.125 L 266.891,244.059 L 266.857,243.966 L 266.836,243.869 L 266.813,243.741 L 266.771,243.494 L 266.76,243.386 L 266.74,243.309 L 266.717,243.246 L 266.684,243.144 L 266.645,243.031 L 266.605,242.962 L 266.569,242.896 L 266.501,242.767 L 266.434,242.689 L 266.392,242.637 L 266.354,242.585 L 266.324,242.519 L 266.312,242.45 L 266.333,242.36 L 266.36,242.28 L 266.459,242.175 L 266.58,242.042 L 266.657,241.945 L 266.746,241.827 L 266.776,241.706 L 266.756,241.633 L 266.742,241.544 L 266.779,241.457 L 266.813,241.357 L 266.802,241.294 L 266.76,241.25 L 266.688,241.217 L 266.589,241.144 L 266.511,241.048 L 266.404,240.908 L 266.354,240.84 L 266.292,240.778 L 266.209,240.705 L 266.028,240.693 L 265.915,240.675 L 265.85,240.673 L 265.627,240.704 L 265.528,240.725 L 265.459,240.732 L 265.325,240.74 L 265.244,240.723 L 265.152,240.713 L 265.087,240.7 L 264.988,240.674 L 264.908,240.619 L 264.809,240.562 L 264.69,240.488 L 264.579,240.431 L 264.483,240.344 L 264.395,240.289 L 264.271,240.228 L 264.177,240.169 L 264.104,240.129 L 264.433,239.319 L 265.199,237.214 L 266.97,234.409 L 278.282,233.017"
       id="path15627"
       style="fill-rule:evenodd" />
   </g>
</svg>