<svg
   xmlns:svg="http://www.w3.org/2000/svg"
   xmlns="http://www.w3.org/2000/svg"
   version="1.0"
   width="2100"
   height="1300"
   viewBox="0 0 2100 1300"
   id="svg14921">
   <g
     transform="matrix(2.2640019,0,0,2.2640019,-216.71416,-21.6991)"
     id="g14955"
     style="font-size:16.25px;font-style:normal;font-weight:400;fill:#fefee9;fill-opacity:1;fill-rule:evenodd;stroke:#000000;stroke-width:0.0984252;stroke-linecap:square;stroke-linejoin:bevel;stroke-opacity:1;font-family:Lucida Grande">
    <path
       name="montague" d="M 360.629,112.926 L 360.813,113.125 L 360.86,113.171 L 360.883,113.234 L 360.91,113.337 L 360.914,113.445 L 360.916,113.513 L 360.904,113.629 L 360.886,113.691 L 360.858,113.818 L 360.844,113.875 L 360.833,113.949 L 360.833,114.01 L 360.836,114.075 L 360.867,114.177 L 360.923,114.241 L 360.992,114.283 L 361.054,114.327 L 361.111,114.398 L 361.133,114.497 L 361.106,114.567 L 361.047,114.659 L 360.987,114.713 L 360.936,114.757 L 360.899,114.823 L 360.851,114.893 L 360.786,114.965 L 360.735,115.045 L 360.662,115.139 L 360.626,115.212 L 360.58,115.27 L 360.523,115.352 L 360.471,115.427 L 360.426,115.507 L 360.395,115.574 L 360.355,115.655 L 360.333,115.743 L 360.311,115.827 L 360.294,115.884 L 360.285,115.943 L 360.275,116.025 L 360.277,116.086 L 360.284,116.146 L 360.303,116.236 L 360.34,116.318 L 360.389,116.421 L 360.405,116.482 L 360.413,116.569 L 360.397,116.659 L 360.367,116.743 L 360.325,116.801 L 360.267,116.882 L 360.215,116.952 L 360.164,117.018 L 360.093,117.095 L 360.03,117.182 L 359.982,117.24 L 359.924,117.31 L 359.865,117.398 L 359.787,117.48 L 359.728,117.539 L 359.7,117.595 L 359.66,117.65 L 359.589,117.748 L 359.537,117.805 L 359.472,117.861 L 359.377,117.961 L 359.229,118.092 L 359.129,118.199 L 358.953,118.389 L 359.035,118.517 L 359.203,118.643 L 359.397,118.752 L 359.605,118.87 L 359.762,118.934 L 359.924,118.925 L 360.009,118.926 L 360.078,118.926 L 360.151,118.91 L 360.224,118.892 L 360.289,118.877 L 360.355,118.853 L 360.464,118.824 L 360.54,118.792 L 360.629,118.767 L 360.7,118.743 L 360.758,118.724 L 360.816,118.702 L 360.903,118.667 L 360.955,118.636 L 361.014,118.586 L 361.103,118.533 L 361.173,118.509 L 361.236,118.505 L 361.309,118.495 L 361.416,118.499 L 361.489,118.513 L 361.555,118.549 L 361.64,118.612 L 361.699,118.651 L 361.856,118.772 L 361.92,118.837 L 361.972,118.891 L 362.045,118.959 L 362.095,119.012 L 362.137,119.07 L 362.193,119.128 L 362.233,119.196 L 362.273,119.251 L 362.322,119.308 L 362.412,119.382 L 362.475,119.394 L 362.56,119.409 L 362.718,119.454 L 362.801,119.456 L 362.862,119.455 L 362.929,119.445 L 363.011,119.458 L 363.106,119.46 L 363.173,119.457 L 363.256,119.445 L 363.351,119.426 L 363.422,119.414 L 363.509,119.394 L 363.576,119.376 L 363.654,119.348 L 363.758,119.334 L 363.83,119.371 L 363.906,119.323 L 363.946,119.275 L 364.008,119.261 L 364.06,119.211 L 364.133,119.187 L 364.232,119.147 L 364.316,119.125 L 364.404,119.114 L 364.513,119.12 L 364.593,119.149 L 364.692,119.179 L 364.745,119.207 L 364.805,119.264 L 364.944,119.377 L 365.027,119.453 L 365.187,119.618 L 365.254,119.69 L 365.346,119.786 L 365.454,119.899 L 365.56,119.995 L 365.596,120.057 L 365.629,120.111 L 365.654,120.2 L 365.688,120.27 L 365.709,120.327 L 365.731,120.389 L 365.798,120.492 L 365.856,120.607 L 365.923,120.692 L 365.973,120.736 L 366.057,120.8 L 366.119,120.837 L 366.175,120.876 L 366.277,120.913 L 366.408,120.948 L 366.474,120.955 L 366.539,120.958 L 366.604,120.965 L 366.663,120.955 L 366.747,120.911 L 366.871,120.902 L 366.964,120.873 L 367.069,120.835 L 367.155,120.796 L 367.22,120.772 L 367.3,120.742 L 367.401,120.709 L 367.49,120.663 L 367.558,120.622 L 367.626,120.568 L 367.708,120.509 L 367.798,120.452 L 367.864,120.408 L 367.933,120.366 L 367.989,120.318 L 368.062,120.241 L 368.141,120.207 L 368.213,120.165 L 368.267,120.123 L 368.339,120.085 L 368.395,120.056 L 368.449,120.194 L 368.575,120.384 L 368.678,120.526 L 368.83,120.763 L 368.924,120.875 L 368.954,120.955 L 368.961,121.02 L 368.932,121.086 L 368.881,121.144 L 368.858,121.201 L 368.873,121.274 L 368.888,121.362 L 368.908,121.451 L 368.924,121.544 L 368.938,121.635 L 368.946,121.71 L 368.916,121.811 L 368.873,121.887 L 368.844,121.983 L 368.834,122.044 L 368.825,122.118 L 368.833,122.201 L 368.873,122.281 L 368.913,122.333 L 368.941,122.408 L 368.959,122.491 L 368.949,122.591 L 368.956,122.694 L 368.994,122.789 L 369.026,122.837 L 369.07,122.893 L 369.131,122.973 L 369.182,123.021 L 369.225,123.085 L 369.242,123.144 L 369.276,123.21 L 369.313,123.313 L 369.293,123.413 L 369.297,123.498 L 369.331,123.559 L 369.362,123.615 L 369.435,123.687 L 369.492,123.765 L 369.565,123.875 L 369.603,123.935 L 369.635,123.997 L 369.657,124.066 L 369.665,124.141 L 369.689,124.212 L 369.729,124.268 L 369.8,124.299 L 369.858,124.342 L 369.907,124.421 L 369.89,124.494 L 369.902,124.573 L 369.928,124.636 L 369.965,124.686 L 370.034,124.745 L 370.092,124.799 L 370.202,124.896 L 370.281,124.966 L 370.339,125.011 L 370.403,125.071 L 370.486,125.124 L 370.537,125.159 L 370.579,125.199 L 370.679,125.254 L 370.763,125.352 L 370.832,125.434 L 370.87,125.48 L 370.926,125.541 L 371.008,125.594 L 371.056,125.656 L 371.101,125.749 L 371.154,125.837 L 371.215,125.932 L 371.268,126.038 L 371.319,126.143 L 371.327,126.216 L 371.373,126.282 L 371.414,126.391 L 371.422,126.48 L 371.408,126.582 L 371.404,126.654 L 371.425,126.765 L 371.451,126.844 L 371.474,126.9 L 371.5,126.975 L 371.523,127.058 L 371.532,127.119 L 371.542,127.186 L 371.561,127.26 L 371.584,127.339 L 371.626,127.422 L 371.663,127.527 L 371.681,127.583 L 371.685,127.673 L 369.814,140.747 L 359.636,142.012 L 354.169,142.741 L 350.486,143.202 L 345.409,143.83 L 345.078,143.86 L 345.132,143.769 L 345.203,143.644 L 345.216,143.587 L 345.248,143.524 L 345.283,143.428 L 345.338,143.309 L 345.372,143.225 L 345.387,143.143 L 345.4,143.078 L 345.427,142.997 L 345.456,142.829 L 345.464,142.736 L 345.482,142.672 L 345.461,142.616 L 345.452,142.549 L 345.449,142.486 L 345.423,142.417 L 345.386,142.277 L 345.349,142.182 L 345.316,142.081 L 345.295,141.998 L 345.279,141.889 L 345.219,141.818 L 345.196,141.76 L 345.167,141.701 L 345.131,141.633 L 345.069,141.534 L 344.979,141.393 L 344.79,141.145 L 344.523,140.849 L 344.261,140.555 L 343.924,140.073 L 343.692,139.771 L 343.609,139.667 L 343.396,139.43 L 343.142,139.137 L 343.106,139.04 L 343.082,138.922 L 343.053,138.792 L 342.916,138.451 L 342.782,138.077 L 342.741,137.986 L 342.693,137.905 L 342.665,137.853 L 342.614,137.807 L 342.558,137.744 L 342.492,137.664 L 342.448,137.6 L 342.437,137.531 L 342.187,136.406 L 342.139,136.063 L 342.13,135.862 L 342.097,135.679 L 342.07,135.558 L 342.016,135.315 L 342,135.199 L 341.996,135.063 L 342.006,134.916 L 342.016,134.784 L 342.09,134.504 L 342.211,134.187 L 342.363,133.854 L 342.532,133.467 L 342.708,133.086 L 342.957,132.596 L 343.222,132.108 L 343.351,131.857 L 343.407,131.772 L 343.432,131.687 L 343.459,131.615 L 343.5,131.493 L 343.612,131.198 L 343.635,131.09 L 343.659,130.959 L 343.691,130.869 L 343.752,130.74 L 344.042,130.11 L 344.232,129.753 L 344.402,129.432 L 344.485,129.272 L 344.607,129.103 L 344.792,128.804 L 344.93,128.537 L 345.086,128.214 L 345.136,128.113 L 345.203,127.968 L 345.243,127.839 L 345.283,127.731 L 345.322,127.637 L 345.353,127.522 L 345.408,127.412 L 345.415,127.3 L 345.421,127.198 L 345.436,127.113 L 345.429,127.041 L 345.432,126.968 L 345.423,126.877 L 345.419,126.769 L 345.417,126.204 L 345.412,125.865 L 345.407,125.497 L 345.419,124.829 L 345.42,124.728 L 345.419,124.636 L 345.387,124.448 L 345.361,124.34 L 345.321,124.05 L 345.248,123.661 L 345.226,123.562 L 345.198,123.458 L 345.181,123.377 L 345.145,123.294 L 345.113,123.217 L 344.556,122.109 L 344.493,121.974 L 344.463,121.885 L 344.412,121.74 L 344.384,121.646 L 344.364,121.529 L 344.326,121.288 L 344.311,121.182 L 344.297,121.076 L 344.29,121.012 L 344.29,120.908 L 344.283,120.798 L 344.269,120.733 L 344.26,120.666 L 344.237,120.61 L 344.204,120.547 L 344.182,120.488 L 344.149,120.428 L 344.093,120.339 L 344.065,120.281 L 344.018,120.241 L 343.964,120.164 L 343.873,120.08 L 343.752,119.981 L 343.686,119.933 L 343.643,119.888 L 343.585,119.851 L 343.522,119.811 L 343.438,119.761 L 343.354,119.722 L 343.206,119.645 L 343.024,119.564 L 342.692,119.415 L 342.41,119.305 L 342.309,119.25 L 342.221,119.21 L 342.156,119.179 L 342.088,119.139 L 342.026,119.101 L 341.977,119.069 L 341.911,119.044 L 341.842,119.009 L 341.742,118.979 L 341.638,118.953 L 341.54,118.932 L 341.462,118.919 L 341.364,118.9 L 341.27,118.86 L 341.192,118.831 L 341.098,118.802 L 341.035,118.789 L 340.952,118.784 L 340.874,118.785 L 340.805,118.794 L 340.73,118.801 L 340.629,118.821 L 340.542,118.845 L 340.479,118.868 L 340.392,118.902 L 340.339,118.935 L 340.222,118.974 L 340.161,118.98 L 340.098,118.996 L 339.884,118.964 L 339.838,118.922 L 339.789,118.839 L 339.753,118.777 L 339.707,118.667 L 339.663,118.595 L 339.628,118.526 L 339.577,118.421 L 339.539,118.322 L 339.51,118.241 L 339.505,118.157 L 339.489,118.084 L 339.487,118.021 L 339.461,117.939 L 339.438,117.886 L 339.435,117.782 L 339.433,117.658 L 339.438,117.552 L 339.446,117.461 L 339.459,117.34 L 339.487,117.159 L 339.49,117.096 L 339.489,117.008 L 339.492,116.933 L 339.476,116.795 L 339.389,116.174 L 339.354,116.015 L 339.328,115.947 L 339.271,115.886 L 339.15,115.823 L 339.07,115.785 L 339.013,115.762 L 338.908,115.715 L 338.826,115.675 L 338.765,115.641 L 338.695,115.577 L 338.636,115.48 L 338.617,115.401 L 338.604,115.338 L 338.601,115.265 L 338.604,115.204 L 338.607,115.123 L 338.608,115.007 L 338.637,114.772 L 338.648,114.664 L 338.689,114.389 L 338.7,114.279 L 338.763,114 L 338.796,113.891 L 338.887,113.668 L 338.93,113.57 L 338.964,113.497 L 339.006,113.437 L 339.044,113.381 L 339.096,113.342 L 339.179,113.296 L 339.264,113.289 L 339.349,113.265 L 339.437,113.254 L 339.589,113.221 L 339.702,113.197 L 339.796,113.162 L 339.901,113.111 L 340.006,113.059 L 340.149,112.968 L 340.246,112.909 L 340.312,112.86 L 340.393,112.797 L 340.486,112.717 L 340.526,112.672 L 340.58,112.6 L 340.653,112.479 L 340.695,112.393 L 340.756,112.27 L 340.82,112.161 L 340.896,112.064 L 340.988,111.937 L 341.098,111.797 L 341.202,111.649 L 341.335,111.454 L 341.391,111.362 L 341.477,111.255 L 341.545,111.156 L 341.664,111.043 L 341.884,110.776 L 342.032,110.601 L 342.241,110.374 L 342.438,110.184 L 342.637,109.998 L 342.769,109.862 L 342.849,109.747 L 343.072,109.472 L 343.246,109.313 L 343.323,109.239 L 343.553,109.067 L 343.623,109.011 L 343.754,108.928 L 343.867,108.861 L 343.965,108.817 L 344.063,108.755 L 344.185,108.68 L 344.304,108.595 L 344.434,108.453 L 344.541,108.366 L 344.718,108.201 L 344.804,108.114 L 344.913,108.032 L 345.042,107.955 L 345.125,107.905 L 345.272,107.83 L 345.371,107.786 L 345.481,107.738 L 345.624,107.677 L 345.736,107.643 L 345.821,107.601 L 345.974,107.551 L 346.125,107.522 L 346.212,107.521 L 346.283,107.545 L 346.35,107.633 L 346.371,107.706 L 346.401,107.791 L 346.413,107.907 L 346.428,108.01 L 346.45,108.099 L 346.476,108.19 L 346.571,108.295 L 346.697,108.449 L 346.786,108.562 L 346.914,108.741 L 346.985,108.84 L 347.059,108.934 L 347.131,109.004 L 347.176,109.055 L 347.22,109.099 L 347.269,109.136 L 347.322,109.178 L 347.37,109.212 L 347.439,109.262 L 347.509,109.298 L 347.657,109.411 L 347.754,109.497 L 347.807,109.533 L 347.943,109.658 L 348.061,109.792 L 348.115,109.873 L 348.16,109.945 L 348.192,110.022 L 348.254,110.15 L 348.281,110.206 L 348.301,110.289 L 348.312,110.389 L 348.33,110.501 L 348.348,110.622 L 348.358,110.754 L 348.364,110.886 L 348.371,111.023 L 348.346,111.234 L 348.317,111.487 L 348.302,111.591 L 348.299,111.715 L 348.298,111.786 L 348.302,111.9 L 348.309,111.983 L 348.326,112.083 L 348.355,112.243 L 348.414,112.397 L 348.489,112.53 L 348.549,112.619 L 348.613,112.705 L 348.686,112.78 L 348.78,112.839 L 348.892,112.891 L 348.989,112.951 L 349.062,112.976 L 349.136,112.995 L 349.215,113.012 L 349.321,113.023 L 349.391,113.016 L 349.449,113.001 L 349.549,112.979 L 349.66,112.956 L 349.883,112.9 L 350.165,112.837 L 350.953,112.421 L 351.741,112.03 L 352.55,111.533 L 352.665,111.442 L 352.848,111.32 L 353.739,110.551 L 353.831,110.482 L 353.91,110.439 L 354.023,110.398 L 354.115,110.371 L 354.261,110.346 L 354.338,110.327 L 354.444,110.338 L 354.525,110.339 L 354.619,110.34 L 354.696,110.336 L 354.853,110.347 L 354.979,110.355 L 355.172,110.354 L 355.241,110.37 L 355.298,110.355 L 355.385,110.341 L 355.678,110.315 L 355.842,110.292 L 355.964,110.278 L 356.225,110.293 L 356.469,110.333 L 356.686,110.38 L 357.148,110.462 L 357.458,110.524 L 357.556,110.527 L 357.646,110.53 L 357.731,110.531 L 357.839,110.532 L 357.934,110.538 L 358.03,110.547 L 358.134,110.548 L 358.257,110.583 L 358.343,110.635 L 358.384,110.679 L 358.436,110.755 L 358.463,110.828 L 358.48,110.889 L 358.498,110.978 L 358.513,111.08 L 358.533,111.183 L 358.555,111.276 L 358.584,111.349 L 358.655,111.611 L 358.685,111.697 L 358.751,111.918 L 358.799,111.993 L 358.844,112.071 L 359.03,112.274 L 359.092,112.353 L 359.189,112.431 L 359.296,112.523 L 359.38,112.593 L 359.488,112.685 L 359.56,112.743 L 359.64,112.813 L 359.688,112.884 L 359.746,112.97 L 359.826,113.028 L 359.883,113.038 L 359.958,113.054 L 360.085,113.059 L 360.176,113.061 L 360.272,113.053 L 360.372,113.044 L 360.45,113.023 L 360.524,112.996 L 360.629,112.926"
       id="path15197"
       style="fill-rule:evenodd" />
   </g>
</svg>