<svg
   xmlns:svg="http://www.w3.org/2000/svg"
   xmlns="http://www.w3.org/2000/svg"
   version="1.0"
   width="2100"
   height="1300"
   viewBox="0 0 2100 1300"
   id="svg14921">
   <g
     transform="matrix(2.2640019,0,0,2.2640019,-216.71416,-21.6991)"
     id="g14955"
     style="font-size:16.25px;font-style:normal;font-weight:400;fill:#fefee9;fill-opacity:1;fill-rule:evenodd;stroke:#000000;stroke-width:0.0984252;stroke-linecap:square;stroke-linejoin:bevel;stroke-opacity:1;font-family:Lucida Grande">
    <path
       name="nahant" d="M 758.076,162.262 L 757.859,162.914 L 757.821,163.126 L 757.552,164.191 L 757.423,164.939 L 757.381,165.626 L 757.2,166.995 L 757.195,167.303 L 757.229,167.72 L 757.286,168.01 L 757.39,168.271 L 757.51,168.559 L 757.764,168.914 L 757.938,169.014 L 758.166,168.933 L 758.543,168.751 L 758.984,168.723 L 759.581,168.618 L 759.778,168.631 L 759.857,168.669 L 759.913,168.748 L 759.89,168.86 L 759.687,169.074 L 759.491,169.185 L 759.201,169.485 L 759.045,169.707 L 758.787,169.944 L 758.544,170.103 L 758.45,170.199 L 758.452,170.419 L 758.54,170.665 L 758.596,170.806 L 759.065,171.533 L 759.327,171.783 L 759.706,171.964 L 759.824,171.976 L 759.942,171.907 L 760.223,171.604 L 760.64,171.514 L 760.789,171.389 L 760.875,171.349 L 761.081,171.458 L 761.144,171.487 L 761.593,171.486 L 761.664,171.531 L 761.877,171.593 L 762.342,171.622 L 762.444,171.7 L 762.594,171.739 L 762.603,171.81 L 762.832,171.933 L 762.989,171.957 L 763.093,172.152 L 763.511,172.205 L 763.637,172.173 L 763.841,172.179 L 763.888,172.116 L 764.022,172.091 L 764.235,172.224 L 764.259,172.285 L 764.504,172.38 L 764.932,172.746 L 764.925,172.848 L 765.028,172.941 L 765.059,173.006 L 764.919,173.125 L 764.935,173.202 L 765.022,173.218 L 765.061,173.155 L 765.14,173.193 L 765.156,173.319 L 765.086,173.439 L 765.079,173.579 L 765.174,173.688 L 765.175,173.768 L 765.089,173.864 L 764.9,173.879 L 764.853,173.927 L 764.862,174.069 L 764.894,174.18 L 765.013,174.266 L 765.226,174.303 L 765.1,174.431 L 765.085,174.524 L 765.189,174.72 L 765.237,174.892 L 765.317,174.98 L 765.403,174.996 L 765.497,174.94 L 765.576,174.836 L 765.693,174.779 L 765.914,174.785 L 765.93,174.872 L 766.001,174.879 L 766.244,174.769 L 766.315,174.783 L 766.348,174.909 L 766.435,174.94 L 766.513,174.861 L 766.733,174.764 L 766.695,175.01 L 766.648,175.126 L 766.57,175.215 L 766.46,175.287 L 766.43,175.412 L 766.352,175.532 L 766.101,175.676 L 765.725,175.969 L 765.504,175.963 L 765.448,175.838 L 765.345,175.767 L 765.275,175.75 L 764.984,175.848 L 764.866,175.927 L 764.859,176.085 L 764.75,176.181 L 764.537,176.181 L 764.474,176.118 L 764.34,176.088 L 764.324,176.017 L 764.48,175.804 L 764.471,175.718 L 764.635,175.527 L 764.65,175.455 L 764.452,175.269 L 764.192,175.143 L 763.924,175.077 L 763.782,175.115 L 763.641,175.243 L 763.57,175.258 L 763.452,175.196 L 763.405,175.315 L 763.319,175.33 L 763.357,175.056 L 763.355,174.811 L 763.235,174.585 L 763.093,174.484 L 762.975,174.491 L 762.834,174.634 L 762.716,174.644 L 762.487,174.542 L 762.479,174.477 L 762.659,174.438 L 762.706,174.374 L 762.721,174.241 L 762.404,173.943 L 762.412,173.84 L 762.489,173.714 L 762.481,173.606 L 762.409,173.527 L 762.283,173.457 L 761.928,173.411 L 761.354,173.574 L 761.198,173.669 L 761.08,173.796 L 761.018,173.913 L 760.963,173.961 L 760.656,173.988 L 760.217,174.188 L 759.856,174.449 L 759.715,174.608 L 759.725,174.804 L 759.804,174.928 L 759.973,175.457 L 759.974,175.662 L 759.912,175.725 L 759.715,175.74 L 759.573,175.695 L 759.54,175.435 L 759.327,175.352 L 759.272,175.391 L 759.083,175.384 L 758.91,175.488 L 758.706,175.528 L 758.296,175.444 L 758.209,175.515 L 758.195,175.658 L 758.219,175.735 L 758.157,175.839 L 758.15,175.988 L 758.079,176.074 L 757.985,176.108 L 757.889,175.928 L 757.888,175.658 L 757.958,175.572 L 757.957,175.454 L 757.885,175.249 L 757.884,175.109 L 758.001,174.926 L 757.943,174.58 L 757.903,174.439 L 757.752,174.282 L 757.727,173.951 L 757.781,173.825 L 757.788,173.661 L 757.85,173.572 L 757.857,173.432 L 757.721,173.126 L 757.532,173.033 L 757.554,172.883 L 757.767,172.864 L 757.955,172.667 L 757.993,172.572 L 758.095,172.47 L 758.134,172.382 L 758.116,172.067 L 758.068,171.956 L 758.067,171.752 L 758.16,171.609 L 758.191,171.515 L 758.262,171.485 L 758.269,171.383 L 758.331,171.217 L 758.291,171.091 L 758.227,170.987 L 758.194,170.768 L 757.762,169.826 L 757.754,169.764 L 757.666,169.568 L 757.237,168.861 L 757.149,168.656 L 756.885,168.146 L 756.821,167.912 L 756.811,167.683 L 756.849,167.421 L 756.853,166.878 L 756.899,166.58 L 756.911,166.154 L 757.077,165.011 L 757.115,164.846 L 757.24,163.388 L 757.229,162.994 L 757.173,162.869 L 757.037,162.75 L 757.802,162.164 L 758.076,162.262"
       id="path15367"
       style="fill-rule:evenodd" />
    <path
       name="nahant" d="M 767.498,170.295 L 767.419,170.201 L 767.426,170.114 L 767.615,170.074 L 767.74,169.98 L 767.812,170.003 L 767.923,170.105 L 767.915,170.189 L 767.498,170.295"
       id="path15391"
       style="fill-rule:evenodd" /> 
    <path
       name="nahant" d="M 764.917,176.548 L 764.697,176.511 L 764.641,176.457 L 764.649,176.392 L 764.892,176.273 L 764.995,176.313 L 764.98,176.509 L 764.917,176.548"
       id="path15417"
       style="fill-rule:evenodd" />             
   </g>
</svg>