<svg
   xmlns:svg="http://www.w3.org/2000/svg"
   xmlns="http://www.w3.org/2000/svg"
   version="1.0"
   width="2100"
   height="1300"
   viewBox="0 0 2100 1300"
   id="svg14921">
   <g
     transform="matrix(2.2640019,0,0,2.2640019,-216.71416,-21.6991)"
     id="g14955"
     style="font-size:16.25px;font-style:normal;font-weight:400;fill:#fefee9;fill-opacity:1;fill-rule:evenodd;stroke:#000000;stroke-width:0.0984252;stroke-linecap:square;stroke-linejoin:bevel;stroke-opacity:1;font-family:Lucida Grande">
    <path
       name="needham" d="M 693.134,222.385 L 693.136,222.46 L 693.178,222.599 L 693.269,222.743 L 693.312,222.788 L 693.362,222.835 L 693.457,222.903 L 693.575,222.985 L 693.702,223.061 L 693.785,223.138 L 693.856,223.196 L 693.909,223.256 L 691.803,227.012 L 691.756,227.083 L 691.701,227.16 L 691.627,227.225 L 691.572,227.257 L 691.458,227.291 L 691.391,227.305 L 691.308,227.321 L 691.251,227.357 L 691.204,227.424 L 691.146,227.489 L 691.095,227.56 L 691.002,227.614 L 689.645,227.867 L 689.584,227.853 L 689.523,227.806 L 689.485,227.751 L 689.422,227.692 L 689.297,227.646 L 689.228,227.611 L 689.083,227.612 L 688.923,227.597 L 688.827,227.595 L 688.699,227.635 L 688.601,227.677 L 688.506,227.705 L 688.4,227.733 L 688.068,227.788 L 687.944,227.776 L 687.865,227.736 L 687.809,227.714 L 687.707,227.693 L 687.557,227.676 L 687.021,227.629 L 686.911,227.593 L 686.82,227.552 L 686.735,227.499 L 686.656,227.433 L 686.564,227.398 L 686.479,227.371 L 686.41,227.357 L 686.337,227.344 L 686.274,227.352 L 686.235,227.399 L 686.233,227.476 L 686.277,227.57 L 686.26,227.68 L 686.253,227.885 L 686.227,228.169 L 686.174,228.334 L 686.058,228.626 L 685.984,228.802 L 685.89,229.003 L 685.849,229.094 L 685.782,229.129 L 685.708,229.13 L 685.589,229.118 L 685.53,229.113 L 685.448,229.137 L 685.334,229.198 L 685.285,229.246 L 685.224,229.284 L 685.151,229.333 L 685.061,229.373 L 684.972,229.381 L 684.913,229.364 L 684.759,229.237 L 684.688,229.194 L 684.635,229.153 L 684.583,229.098 L 684.512,228.994 L 684.47,228.953 L 684.376,228.924 L 684.277,228.924 L 684.214,228.936 L 684.145,228.954 L 684.079,228.97 L 683.976,228.997 L 683.919,228.987 L 683.809,228.962 L 683.746,228.939 L 683.688,228.89 L 683.574,228.865 L 683.495,228.883 L 683.436,228.905 L 683.374,228.984 L 683.345,229.051 L 683.325,229.151 L 683.277,229.335 L 683.225,229.606 L 683.185,229.795 L 683.109,229.991 L 683.043,230.144 L 682.931,230.34 L 682.83,230.586 L 682.746,230.717 L 682.689,230.801 L 682.658,230.863 L 682.573,230.891 L 682.498,230.895 L 682.404,230.87 L 682.252,230.79 L 681.889,230.603 L 681.766,230.488 L 681.693,230.421 L 681.604,230.38 L 681.486,230.363 L 681.323,230.35 L 681.226,230.394 L 681.148,230.412 L 681.053,230.42 L 680.947,230.437 L 680.879,230.488 L 680.828,230.54 L 680.783,230.585 L 680.702,230.617 L 679.588,230.559 L 679.476,230.568 L 679.348,230.589 L 679.266,230.631 L 679.212,230.659 L 679.157,230.699 L 679.106,230.744 L 679.019,230.84 L 678.955,230.943 L 678.899,231.046 L 678.861,231.155 L 678.798,231.318 L 678.759,231.419 L 678.707,231.533 L 678.649,231.644 L 678.595,231.733 L 678.55,231.806 L 678.492,231.858 L 678.425,231.896 L 678.332,231.91 L 678.248,231.906 L 678.169,231.886 L 678.05,231.862 L 677.974,231.849 L 677.903,231.859 L 677.836,231.882 L 677.742,231.918 L 677.654,231.963 L 677.566,232.011 L 677.507,232.053 L 677.455,232.085 L 677.39,232.104 L 677.295,232.115 L 677.234,232.108 L 677.177,232.093 L 677.116,232.07 L 677.061,232.051 L 676.972,232.046 L 676.897,232.045 L 676.803,232.052 L 676.728,232.076 L 676.656,232.103 L 676.601,232.125 L 676.51,232.15 L 676.42,232.157 L 676.302,232.137 L 676.238,232.108 L 676.147,232.062 L 675.907,231.852 L 675.825,231.77 L 675.666,231.656 L 675.524,231.575 L 675.397,231.49 L 675.272,231.423 L 675.193,231.383 L 675.129,231.338 L 675.052,231.268 L 675.01,231.202 L 674.946,231.13 L 674.892,231.068 L 674.836,230.978 L 674.807,230.858 L 674.762,230.737 L 674.736,230.668 L 674.706,230.609 L 674.609,230.569 L 674.528,230.56 L 674.433,230.546 L 674.336,230.498 L 674.283,230.459 L 674.227,230.426 L 674.162,230.392 L 674.091,230.371 L 674.024,230.399 L 673.993,230.455 L 673.973,230.534 L 673.962,230.628 L 673.969,230.707 L 673.973,230.778 L 674,230.854 L 674.046,230.918 L 674.084,230.967 L 674.124,231.016 L 674.192,231.115 L 674.222,231.186 L 674.243,231.27 L 674.255,231.335 L 674.28,231.408 L 674.298,231.482 L 674.307,231.541 L 674.306,231.657 L 674.312,231.799 L 674.35,231.881 L 674.349,231.97 L 674.293,232.069 L 674.25,232.11 L 674.172,232.141 L 674.079,232.146 L 674.008,232.139 L 673.892,232.099 L 673.83,232.07 L 673.769,232.032 L 673.698,231.981 L 673.624,231.927 L 673.566,231.873 L 673.52,231.816 L 673.453,231.74 L 673.403,231.684 L 673.349,231.639 L 673.266,231.567 L 672.799,231.166 L 672.743,231.102 L 672.709,231.049 L 672.659,230.953 L 672.622,230.816 L 672.612,230.713 L 672.61,230.635 L 672.613,230.56 L 672.642,230.499 L 672.69,230.453 L 672.766,230.383 L 672.822,230.298 L 672.839,230.223 L 672.858,230.116 L 672.865,230.03 L 672.84,229.924 L 672.796,229.838 L 672.756,229.779 L 672.684,229.719 L 672.601,229.679 L 672.532,229.672 L 672.435,229.673 L 672.351,229.68 L 672.255,229.689 L 672.162,229.706 L 672.07,229.726 L 671.997,229.757 L 671.909,229.795 L 671.837,229.834 L 671.758,229.866 L 671.696,229.916 L 671.645,229.964 L 671.583,230.039 L 671.539,230.087 L 671.428,230.085 L 671.359,230.056 L 671.281,229.988 L 671.236,229.939 L 671.161,229.95 L 671.112,230.151 L 671.089,230.226 L 671.054,230.274 L 671.002,230.322 L 670.951,230.35 L 670.898,230.374 L 670.841,230.383 L 670.737,230.394 L 670.654,230.377 L 670.555,230.341 L 670.466,230.295 L 670.375,230.219 L 670.246,230.125 L 670.148,230.045 L 670.041,229.978 L 669.938,229.906 L 669.829,229.835 L 669.744,229.777 L 669.654,229.707 L 669.583,229.647 L 669.505,229.561 L 669.41,229.466 L 669.342,229.388 L 669.296,229.32 L 669.252,229.25 L 669.237,229.175 L 669.216,229.098 L 669.2,229.028 L 669.197,228.955 L 669.204,228.847 L 669.181,228.733 L 669.151,228.66 L 669.101,228.594 L 668.999,228.483 L 668.917,228.409 L 668.846,228.353 L 668.776,228.301 L 668.687,228.253 L 668.616,228.252 L 668.56,228.304 L 668.555,228.412 L 668.548,228.491 L 668.504,228.56 L 668.399,228.556 L 668.316,228.511 L 668.269,228.472 L 668.219,228.434 L 668.154,228.405 L 668.051,228.381 L 667.915,228.341 L 667.847,228.306 L 667.787,228.236 L 667.738,228.168 L 667.697,228.102 L 667.677,228.031 L 667.66,227.959 L 667.561,227.915 L 667.482,227.874 L 667.421,227.816 L 667.35,227.837 L 667.303,227.878 L 667.214,227.966 L 667.132,228.03 L 667.053,228.074 L 667.005,228.108 L 666.956,228.15 L 666.882,228.222 L 666.851,228.283 L 666.836,228.348 L 666.821,228.416 L 666.789,228.498 L 666.761,228.55 L 666.723,228.596 L 666.682,228.647 L 666.631,228.687 L 666.539,228.69 L 666.477,228.64 L 666.47,228.546 L 666.491,228.476 L 666.53,228.421 L 666.578,228.369 L 666.58,228.306 L 666.569,228.23 L 666.547,228.169 L 666.554,228.088 L 666.511,228.006 L 666.444,228.005 L 666.35,227.988 L 666.216,227.984 L 666.12,228.001 L 666.043,228.032 L 665.951,228.048 L 665.854,228.059 L 665.754,228.063 L 665.654,228.066 L 665.559,228.051 L 665.47,228.048 L 665.37,228.038 L 665.311,228.021 L 665.244,228.018 L 665.135,228.013 L 665.058,227.994 L 665.02,227.922 L 665.053,227.821 L 665.111,227.781 L 665.172,227.753 L 665.277,227.671 L 665.329,227.572 L 665.373,227.442 L 665.37,227.329 L 665.375,227.255 L 665.384,227.17 L 665.387,227.091 L 665.386,227.028 L 665.377,226.936 L 665.372,226.822 L 665.387,226.761 L 665.451,226.677 L 665.498,226.637 L 665.592,226.622 L 665.647,226.584 L 665.706,226.538 L 665.746,226.491 L 665.812,226.386 L 665.831,226.322 L 665.848,226.261 L 665.89,226.178 L 665.933,226.118 L 666.057,226.072 L 666.151,226.049 L 666.245,226.05 L 666.302,226.057 L 666.413,226.089 L 666.472,226.114 L 666.559,226.136 L 666.624,226.136 L 666.657,226.06 L 666.656,225.978 L 666.642,225.868 L 678.199,214.891 L 682.252,211.102 L 682.334,211.065 L 682.38,211.025 L 682.436,211.003 L 682.519,210.981 L 682.619,210.959 L 682.724,210.941 L 682.85,210.92 L 682.97,210.917 L 683.078,210.887 L 683.218,210.906 L 683.326,210.933 L 683.421,210.982 L 683.52,211.05 L 683.615,211.103 L 683.76,211.195 L 683.79,211.322 L 683.885,211.458 L 684.049,211.632 L 684.109,211.752 L 684.089,211.825 L 684.084,211.974 L 684.059,212.071 L 684.002,212.148 L 683.946,212.215 L 683.92,212.27 L 683.932,212.583 L 683.972,212.713 L 684.055,212.933 L 684.078,213.09 L 684.074,213.188 L 684.012,213.257 L 683.963,213.293 L 683.906,213.356 L 683.873,213.455 L 683.891,213.54 L 683.931,213.634 L 684.012,213.74 L 684.085,213.779 L 684.178,213.806 L 684.276,213.809 L 684.335,213.827 L 684.43,213.873 L 684.499,213.93 L 684.568,213.985 L 684.675,214.063 L 684.758,214.112 L 684.927,214.125 L 685,214.122 L 685.079,214.151 L 685.166,214.194 L 685.338,214.308 L 685.452,214.356 L 685.529,214.376 L 685.614,214.381 L 685.677,214.369 L 685.816,214.301 L 685.997,214.255 L 686.119,214.253 L 686.216,214.262 L 686.314,214.281 L 686.413,214.308 L 686.523,214.341 L 686.623,214.36 L 686.773,214.377 L 687.021,214.39 L 687.321,214.398 L 687.443,214.449 L 687.514,214.521 L 687.57,214.598 L 687.647,214.763 L 687.737,214.941 L 687.832,215.106 L 687.89,215.279 L 687.934,215.401 L 687.958,215.589 L 687.955,215.648 L 687.969,215.757 L 687.942,215.845 L 687.889,215.968 L 687.837,216.082 L 687.804,216.222 L 687.808,216.324 L 687.803,216.421 L 687.821,216.48 L 687.847,216.546 L 687.869,216.605 L 687.906,216.666 L 687.96,216.748 L 688.049,216.843 L 688.172,216.972 L 688.375,217.15 L 688.741,217.475 L 688.848,217.579 L 688.901,217.657 L 688.951,217.767 L 688.991,217.914 L 689.017,218.022 L 689.051,218.121 L 689.099,218.242 L 689.205,218.521 L 689.287,218.818 L 689.38,219.322 L 689.425,219.634 L 689.432,219.835 L 689.436,219.967 L 689.472,220.067 L 689.534,220.165 L 689.625,220.273 L 689.727,220.351 L 689.818,220.4 L 689.897,220.447 L 690,220.456 L 690.104,220.465 L 690.311,220.468 L 690.441,220.474 L 690.51,220.491 L 690.573,220.536 L 690.781,220.732 L 690.866,220.806 L 690.97,220.876 L 691.061,220.909 L 691.13,220.937 L 691.205,220.968 L 691.288,221.009 L 691.385,221.073 L 691.533,221.198 L 691.653,221.281 L 691.705,221.324 L 691.803,221.331 L 691.864,221.311 L 691.899,221.228 L 691.917,221.138 L 691.938,221.023 L 691.972,220.883 L 692.003,220.791 L 692.09,220.682 L 692.172,220.623 L 692.249,220.597 L 692.322,220.6 L 692.44,220.629 L 692.566,220.688 L 692.72,220.803 L 692.857,220.934 L 693.009,221.093 L 693.122,221.281 L 693.158,221.421 L 693.176,221.525 L 693.177,221.645 L 693.17,221.795 L 693.136,222.147 L 693.134,222.385"
       id="path15531"
       style="fill-rule:evenodd" />
   </g>
</svg>