<svg
   xmlns:svg="http://www.w3.org/2000/svg"
   xmlns="http://www.w3.org/2000/svg"
   version="1.0"
   width="2100"
   height="1300"
   viewBox="0 0 2100 1300"
   id="svg14921">
   <g
     transform="matrix(2.2640019,0,0,2.2640019,-216.71416,-21.6991)"
     id="g14955"
     style="font-size:16.25px;font-style:normal;font-weight:400;fill:#fefee9;fill-opacity:1;fill-rule:evenodd;stroke:#000000;stroke-width:0.0984252;stroke-linecap:square;stroke-linejoin:bevel;stroke-opacity:1;font-family:Lucida Grande">
    <path
       name="newbury" d="M 789.279,39.9837 L 789.279,40.3482 L 789.361,40.7554 L 789.394,41.9145 L 789.435,42.1583 L 789.439,42.5831 L 789.471,42.6753 L 789.606,42.7859 L 789.587,43.4472 L 789.613,43.6823 L 789.686,43.9748 L 789.744,44.3049 L 789.755,44.6675 L 789.823,45.289 L 789.987,46.131 L 790.024,46.7843 L 790.065,47.0437 L 790.113,47.1446 L 790.122,47.2405 L 790.227,47.5289 L 790.252,47.6647 L 790.449,48.7259 L 790.486,49.4508 L 790.553,49.8426 L 790.788,50.7787 L 790.935,51.3451 L 790.991,51.4706 L 791.137,51.9719 L 791.178,52.1691 L 791.431,53.2845 L 791.44,53.4114 L 791.496,53.5834 L 791.684,54.4401 L 791.824,55.2362 L 792.228,56.4526 L 792.794,58.3373 L 793.022,59.1868 L 793.023,59.3046 L 793.161,59.8802 L 789.469,60.9485 L 789.522,60.7052 L 789.497,60.5229 L 789.543,60.4191 L 789.653,60.3259 L 789.728,59.8833 L 789.701,59.4901 L 789.953,59.433 L 789.944,59.3216 L 789.714,59.0865 L 789.752,58.9707 L 790.027,58.8631 L 790.049,58.7384 L 789.617,58.7669 L 789.561,58.7281 L 789.552,58.6075 L 789.723,58.2673 L 789.777,58.1974 L 789.918,58.1095 L 790.162,58.0837 L 790.162,57.9813 L 790.114,57.9175 L 789.948,57.8821 L 789.641,57.8821 L 789.562,57.8441 L 789.505,57.6007 L 789.441,57.5156 L 789.181,57.542 L 789.094,57.4455 L 789.054,57.3752 L 789.052,57.118 L 789.285,56.6829 L 789.315,56.5392 L 789.282,56.3107 L 789.075,56.0532 L 789.057,55.7683 L 789.142,55.5488 L 789.125,55.4158 L 789.014,55.2732 L 788.981,55.1626 L 788.926,55.1022 L 788.532,55.0642 L 788.255,54.9796 L 787.72,55.0481 L 787.46,54.941 L 787.435,54.8054 L 787.489,54.7045 L 787.646,54.585 L 787.967,54.4018 L 788.139,54.2013 L 788.247,53.9654 L 788.242,53.3514 L 788.177,53.0587 L 788.129,52.9826 L 788.08,52.7606 L 788.085,52.4472 L 788.154,52.1845 L 788.899,50.8721 L 789.086,50.6276 L 789.109,50.4781 L 789.02,50.1612 L 788.853,49.9582 L 788.78,49.793 L 788.74,49.7012 L 788.674,49.2689 L 788.625,49.1491 L 788.57,49.1199 L 788.46,49.1356 L 788.398,49.2367 L 788.4,49.5127 L 788.441,49.6789 L 788.545,49.8681 L 788.792,50.2888 L 788.833,50.4304 L 788.826,50.6137 L 788.694,50.757 L 788.498,50.8746 L 788.249,51.2542 L 788.022,51.4936 L 787.792,52.2357 L 787.716,52.5915 L 787.751,52.944 L 787.847,53.2204 L 787.865,53.4494 L 787.842,53.5338 L 787.624,53.835 L 787.155,54.2337 L 786.915,54.7557 L 786.885,54.9459 L 786.926,55.14 L 787.085,55.3275 L 787.544,55.6955 L 787.837,55.8574 L 788.051,56.0465 L 788.085,56.275 L 788.039,56.4561 L 787.791,57.0252 L 787.668,57.3576 L 787.638,57.56 L 787.674,58.0738 L 787.779,58.3716 L 787.93,58.5997 L 787.947,58.6861 L 787.925,58.9133 L 787.965,59.0299 L 787.951,59.2041 L 787.849,59.2381 L 787.445,59.0113 L 787.248,58.9426 L 787.137,58.8653 L 786.937,58.4401 L 786.603,58.1273 L 786.406,58.0744 L 785.543,57.4362 L 785.266,57.2892 L 784.84,57.1749 L 784.548,57.1369 L 783.532,57.1455 L 782.64,56.8772 L 781.82,56.7031 L 780.545,56.7534 L 780.048,56.6068 L 779.859,56.6403 L 779.765,56.7114 L 779.607,56.6821 L 779.559,56.5718 L 779.205,56.632 L 779.103,56.6072 L 778.882,56.5144 L 778.7,56.5012 L 777.504,56.5586 L 777.189,56.6237 L 776.304,57.1648 L 776.163,57.2683 L 775.645,57.4172 L 775.417,57.5294 L 775.245,57.6957 L 775.167,57.7972 L 774.998,58.2553 L 774.846,58.9515 L 774.737,59.1097 L 774.627,59.1566 L 774.415,59.1814 L 774.162,59.1301 L 773.855,59.0989 L 773.321,59.2451 L 773.171,59.3176 L 772.968,59.5314 L 773.056,59.619 L 773.292,59.6087 L 773.551,59.4801 L 773.645,59.465 L 773.92,59.4132 L 774.417,59.4729 L 774.527,59.4417 L 774.834,59.4388 L 775.014,59.3125 L 775.258,59.2525 L 775.32,59.2135 L 775.469,59.0632 L 775.912,58.3522 L 775.973,58.0897 L 776.058,57.9011 L 776.323,57.5985 L 777.02,57.1435 L 777.475,56.919 L 777.908,56.8474 L 778.176,56.858 L 778.617,56.9504 L 779.138,57.1116 L 779.217,57.1033 L 779.414,57.1654 L 779.516,57.0384 L 779.634,57.038 L 779.847,57.0968 L 780.068,57.239 L 780.337,57.3212 L 780.542,57.3366 L 780.942,57.2224 L 781.446,57.1641 L 781.769,57.1918 L 782.069,57.2913 L 782.132,57.3454 L 782.417,57.4391 L 782.836,57.6562 L 783.246,57.8116 L 784.414,58.0591 L 784.745,58.1672 L 784.888,58.2683 L 785.354,58.4932 L 785.56,58.633 L 785.839,59.0001 L 785.872,59.1512 L 785.891,59.6221 L 786.115,60.0557 L 786.442,60.5795 L 786.396,60.674 L 786.285,60.6432 L 786.126,60.378 L 785.895,60.1522 L 785.627,60.089 L 785.384,60.2109 L 785.15,60.4412 L 785.009,60.6159 L 784.884,60.6477 L 784.694,60.5851 L 784.56,60.6109 L 784.388,60.737 L 784.216,60.8257 L 784.089,60.7085 L 784.052,60.0707 L 784.003,59.8518 L 783.843,59.5308 L 783.74,59.4595 L 783.567,59.4367 L 783.418,59.4938 L 783.332,59.5957 L 783.177,59.9291 L 783.028,60.0732 L 782.848,60.1995 L 782.573,60.2727 L 782.495,60.3527 L 782.432,60.4333 L 782.381,60.4985 L 782.332,60.5609 L 782.291,60.6686 L 782.152,60.6947 L 782.072,60.632 L 781.977,60.4735 L 781.857,60.3653 L 781.668,60.2719 L 781.55,60.2659 L 781.393,60.3234 L 781.299,60.3943 L 781.291,60.4973 L 781.275,60.6357 L 781.185,60.8338 L 781.123,60.9076 L 781.052,60.9942 L 780.986,60.9928 L 780.84,60.9812 L 780.726,60.9632 L 780.633,60.9508 L 780.545,60.9717 L 780.477,61.0043 L 780.391,61.0724 L 780.326,61.1396 L 780.272,61.1735 L 780.213,61.1941 L 780.146,61.1968 L 780.081,61.1838 L 780.005,61.1296 L 779.931,61.0813 L 779.91,61.0263 L 779.845,60.8876 L 779.785,60.7745 L 779.701,60.6773 L 779.626,60.5859 L 779.582,60.5158 L 779.554,60.4433 L 779.536,60.3591 L 779.531,60.2647 L 779.534,60.1644 L 779.525,60.0976 L 779.483,60.0371 L 779.419,60.0125 L 779.264,60.0267 L 779.16,60.0518 L 779.06,60.0532 L 778.967,60.0468 L 778.879,60.0757 L 778.827,60.171 L 778.602,60.3474 L 778.52,60.4174 L 778.425,60.5074 L 778.336,60.6012 L 778.213,60.6975 L 778.075,60.7801 L 777.9,60.9361 L 777.751,61.0662 L 776.322,61.4567 L 774.133,61.5727 L 773.494,61.1333 L 773.4,61.0837 L 773.339,61.1734 L 773.299,61.2171 L 772.893,61.3781 L 772.803,61.4383 L 772.734,61.5181 L 772.684,61.6311 L 772.659,61.7199 L 772.635,61.8189 L 772.6,61.8902 L 772.547,61.9303 L 772.478,61.9371 L 772.388,61.8478 L 772.357,61.7635 L 772.319,61.6599 L 772.276,61.5679 L 772.241,61.5133 L 772.183,61.4591 L 772.089,61.4763 L 772.008,61.5718 L 771.976,61.659 L 771.956,61.7674 L 771.935,61.8387 L 771.912,61.9038 L 771.854,61.9832 L 771.742,62.0204 L 771.678,62.0173 L 771.622,62.0004 L 771.572,61.9677 L 771.547,61.9012 L 771.525,61.809 L 771.517,61.7029 L 771.496,61.6187 L 771.471,61.5187 L 771.437,61.4463 L 771.401,61.38 L 771.368,61.3273 L 771.348,61.2607 L 771.327,61.1484 L 771.321,61.0874 L 771.295,60.9679 L 771.27,60.9035 L 771.208,60.8319 L 771.154,60.7935 L 771.036,60.7782 L 770.955,60.7898 L 770.862,60.8408 L 770.831,60.9318 L 770.82,61.1518 L 770.79,61.2425 L 770.75,61.2921 L 770.687,61.3423 L 770.61,61.3825 L 770.527,61.4329 L 770.467,61.5104 L 770.426,61.6034 L 770.432,61.682 L 770.441,61.7585 L 770.453,61.8313 L 770.462,61.9197 L 770.421,62.0008 L 770.319,62.0239 L 770.208,61.9623 L 770.137,61.8569 L 770.083,61.7909 L 770.041,61.7481 L 769.991,61.7153 L 769.938,61.6903 L 769.863,61.6657 L 769.759,61.6553 L 769.654,61.6349 L 769.585,61.6065 L 769.523,61.5638 L 769.462,61.5135 L 769.378,61.4416 L 769.318,61.3874 L 769.267,61.3545 L 769.18,61.3262 L 769.119,61.3209 L 769.064,61.3415 L 768.972,61.3938 L 768.924,61.4534 L 768.949,61.5671 L 768.985,61.6159 L 769.04,61.6723 L 769.098,61.7188 L 769.18,61.7924 L 769.235,61.835 L 769.307,61.9266 L 769.326,62.0386 L 769.294,62.1176 L 769.232,62.1755 L 769.149,62.1784 L 769.068,62.154 L 768.993,62.1116 L 768.94,62.067 L 768.856,61.9855 L 768.784,61.9295 L 768.713,61.8772 L 768.624,61.835 L 768.531,61.7988 L 768.43,61.7903 L 768.364,61.7912 L 768.307,61.8038 L 768.237,61.8538 L 768.211,61.982 L 768.241,62.0427 L 768.303,62.093 L 768.374,62.1492 L 768.426,62.1899 L 768.458,62.2447 L 768.459,62.3193 L 768.444,62.5358 L 768.443,62.6226 L 768.478,62.6811 L 768.533,62.7 L 768.633,62.6731 L 768.708,62.566 L 768.792,62.4882 L 768.85,62.4461 L 768.905,62.4275 L 768.964,62.4289 L 768.981,62.5054 L 768.949,62.6278 L 768.885,62.7467 L 768.829,62.8163 L 768.765,62.886 L 768.723,62.9337 L 768.67,62.9639 L 768.571,62.9141 L 768.468,62.8503 L 768.389,62.8142 L 768.324,62.8366 L 768.308,62.9569 L 768.319,63.0216 L 768.338,63.1099 L 768.293,63.1696 L 768.165,63.1732 L 768.091,63.1703 L 768.018,63.1694 L 767.955,63.1583 L 767.894,63.1277 L 767.912,63.0429 L 767.972,63.0026 L 768.021,62.9528 L 768.075,62.8754 L 768.074,62.8105 L 768.034,62.7322 L 767.951,62.6664 L 767.907,62.6257 L 767.829,62.5323 L 767.808,62.4558 L 767.801,62.3241 L 767.789,62.2297 L 767.779,62.1709 L 767.741,62.1143 L 767.636,62.094 L 767.572,62.1381 L 767.522,62.2036 L 767.491,62.2553 L 767.417,62.3526 L 767.403,62.4355 L 767.404,62.5438 L 767.413,62.6202 L 767.422,62.7148 L 767.411,62.7758 L 767.371,62.855 L 767.347,62.9714 L 767.328,63.1705 L 767.296,63.2891 L 767.256,63.4096 L 767.212,63.4535 L 767.088,63.4905 L 767.027,63.4971 L 766.96,63.6003 L 766.913,63.666 L 766.871,63.7355 L 766.823,63.8049 L 766.778,63.8725 L 766.74,63.9378 L 766.331,64.0869 L 760.81,66.3109 L 760.33,66.0597 L 758.66,65.1861 L 753.842,61.9621 L 752.917,61.2704 L 751.247,60.0121 L 749.343,58.4917 L 749.511,57.8232 L 750.283,56.0465 L 751.281,55.7232 L 751.573,55.9515 L 751.944,55.4423 L 753.04,54.7983 L 753.142,54.8535 L 753.234,54.8397 L 753.316,54.8066 L 753.372,54.7642 L 754.344,53.9514 L 754.41,53.9168 L 754.487,53.8916 L 754.56,53.8567 L 754.808,53.6312 L 755.372,53.061 L 755.726,52.6938 L 755.829,52.6169 L 755.899,52.5702 L 757.685,51.5485 L 757.81,51.4927 L 757.941,51.4685 L 758.065,51.4758 L 758.165,51.4404 L 759.385,50.7528 L 759.494,50.6875 L 759.703,50.5947 L 761.939,48.344 L 765.007,44.8912 L 766.833,44.5555 L 766.852,44.9899 L 767.002,45.05 L 767.203,45.1286 L 767.265,45.1904 L 767.305,45.2406 L 767.378,45.3434 L 767.418,45.3919 L 767.528,45.4802 L 767.792,45.6915 L 767.995,45.8153 L 768.109,45.8701 L 768.201,45.8918 L 768.657,45.9613 L 772.773,44.5894 L 775.637,43.3924 L 781.227,45.3115 L 782.547,44.4381 L 782.769,44.4658 L 782.989,44.4065 L 783.13,44.3372 L 783.303,44.3103 L 783.421,44.3409 L 783.602,44.3636 L 784.413,44.237 L 785.12,44.036 L 785.45,44.0013 L 785.632,44.086 L 785.782,44.2119 L 785.903,44.4935 L 785.983,44.6182 L 786.189,44.7581 L 786.324,44.9247 L 786.428,45.1263 L 786.444,45.2065 L 786.72,45.2913 L 787.306,45.6708 L 787.702,45.96 L 787.988,46.2401 L 788.059,46.3278 L 788.188,46.6187 L 788.331,46.8223 L 788.443,47.0175 L 788.602,47.1895 L 788.658,47.2903 L 788.691,47.4259 L 788.786,47.5719 L 788.865,47.6128 L 788.943,47.4927 L 788.932,47.1611 L 788.852,46.9991 L 788.464,46.654 L 788.4,46.5442 L 788.358,46.2848 L 788.239,46.096 L 788.001,45.8643 L 787.573,45.5668 L 787.454,45.4432 L 787.113,45.1773 L 786.987,45.1376 L 786.726,44.9903 L 786.591,44.8734 L 786.551,44.7473 L 786.525,44.5526 L 786.548,44.4558 L 786.516,44.3078 L 786.428,44.1584 L 786.285,43.9953 L 786.085,43.5948 L 786.076,43.4989 L 786.081,43.1233 L 786.135,43.0195 L 786.346,42.8458 L 786.385,42.7824 L 786.384,42.5996 L 786.287,42.317 L 786.332,42.0086 L 786.331,41.9346 L 787.479,41.1751 L 787.483,41.2454 L 787.604,41.5645 L 787.629,41.7932 L 787.661,41.873 L 787.876,42.1302 L 787.917,42.3677 L 788.251,42.6867 L 788.315,42.9236 L 788.402,42.8653 L 788.709,42.881 L 788.999,42.7512 L 789.061,42.6253 L 789.107,42.4659 L 789.087,41.9948 L 788.927,41.6491 L 788.784,41.461 L 788.538,41.2358 L 788.481,40.9365 L 788.425,40.8422 L 788.256,40.6611 L 789.279,39.9837"
       id="path14973"
       style="fill-rule:evenodd" />
    <path
       name="newbury" d="M 784.039,43.451 L 783.865,43.5665 L 783.697,43.6775 L 783.33,43.7356 L 783.101,43.6339 L 783.005,43.5405 L 782.997,43.454 L 783.215,43.1838 L 783.18,42.7536 L 783.132,42.6435 L 782.989,42.4926 L 782.736,42.3791 L 782.224,42.3758 L 781.987,42.2277 L 781.923,42.149 L 781.922,42.0683 L 782.024,41.935 L 782.076,41.5705 L 782.309,41.2007 L 782.465,41.0161 L 782.724,40.8408 L 783.038,40.7912 L 783.447,40.6706 L 783.706,40.638 L 783.927,40.6748 L 784.03,40.7773 L 783.993,41.0297 L 784.049,41.1862 L 784.067,41.4835 L 784.338,41.829 L 784.348,42.0272 L 784.293,42.1219 L 784.286,42.1998 L 784.452,42.3406 L 784.445,42.4586 L 784.282,42.6712 L 784.039,43.451"
       id="path14975"
       style="fill-rule:evenodd" />
    <path
       name="newbury" d="M 785.252,42.6486 L 784.756,42.9763 L 785.006,42.628 L 785.084,42.5854 L 785.252,42.6486"
       id="path14977"
       style="fill-rule:evenodd" />
    <path
       name="newbury" d="M 785.252,42.6486 L 785.416,42.7338 L 785.455,42.6459 L 785.557,42.6304 L 785.644,42.6679 L 785.795,42.8341 L 785.843,42.997 L 785.825,43.5901 L 785.732,43.748 L 785.559,43.7873 L 785.346,43.7594 L 785.078,43.7611 L 784.677,43.8754 L 784.575,43.8445 L 784.574,43.7422 L 784.652,43.6064 L 784.705,43.4001 L 784.704,43.0108 L 784.756,42.9763 L 785.252,42.6486"
       id="path14979"
       style="fill-rule:evenodd" />
    <path
       name="newbury" d="M 786.274,44.5632 L 786.09,44.2555 L 786.145,44.2165 L 786.255,44.2628 L 786.375,44.4269 L 786.384,44.5537 L 786.274,44.5632"
       id="path14981"
       style="fill-rule:evenodd" />
    <path
       name="newbury" d="M 788.555,55.9943 L 788.357,55.8388 L 788.118,55.5635 L 787.684,55.4028 L 787.597,55.334 L 787.62,55.2775 L 787.864,55.2672 L 788.022,55.3369 L 788.322,55.39 L 788.448,55.4514 L 788.527,55.5204 L 788.615,55.704 L 788.625,55.9238 L 788.555,55.9943"
       id="path14987"
       style="fill-rule:evenodd" />
    <path
       name="newbury" d="M 788.257,58.1775 L 788.194,58.1329 L 788.138,58.0229 L 788.088,57.6212 L 788.141,57.4147 L 788.227,57.2975 L 788.353,57.2781 L 788.503,57.3483 L 788.504,57.5311 L 788.427,57.7506 L 788.342,57.8773 L 788.328,58.1133 L 788.257,58.1775"
       id="path14989"
       style="fill-rule:evenodd" />
    <path
       name="newbury" d="M 775.597,58.3522 L 775.406,58.088 L 775.397,57.9766 L 775.443,57.8916 L 775.631,57.7246 L 775.812,57.6758 L 775.821,57.8244 L 775.744,58.0066 L 775.714,58.2183 L 775.597,58.3522"
       id="path14991"
       style="fill-rule:evenodd" />
    <path
       name="newbury" d="M 789.166,58.5257 L 789.024,58.4463 L 788.896,58.2672 L 788.895,58.1587 L 788.965,58.0231 L 788.964,57.9611 L 789.027,57.8724 L 789.137,57.8629 L 789.287,57.9173 L 789.398,58.0101 L 789.385,58.389 L 789.292,58.4849 L 789.166,58.5257"
       id="path14993"
       style="fill-rule:evenodd" />
    <path
       name="newbury" d="M 775.051,59.0446 L 775.012,58.9962 L 775.019,58.9248 L 775.089,58.8078 L 775.149,58.4275 L 775.187,58.3334 L 775.274,58.334 L 775.346,58.4496 L 775.332,58.664 L 775.122,59.027 L 775.051,59.0446"
       id="path14995"
       style="fill-rule:evenodd" />
    <path
       name="newbury" d="M 787.27,59.6989 L 787.272,59.9035 L 787.118,60.33 L 787.055,60.4249 L 786.85,60.4123 L 786.802,60.324 L 786.745,60.0495 L 786.65,59.9407 L 786.515,59.9012 L 786.443,59.7298 L 786.387,59.6507 L 786.206,59.5725 L 786.133,59.3449 L 786.162,59.0307 L 786.24,58.9416 L 786.342,58.9044 L 786.421,58.9021 L 786.563,58.9879 L 787.166,59.4942 L 787.253,59.628 L 787.27,59.6989"
       id="path14999"
       style="fill-rule:evenodd" />              
   </g>
</svg>