<svg
   xmlns:svg="http://www.w3.org/2000/svg"
   xmlns="http://www.w3.org/2000/svg"
   version="1.0"
   width="2100"
   height="1300"
   viewBox="0 0 2100 1300"
   id="svg14921">
   <g
     transform="matrix(2.2640019,0,0,2.2640019,-216.71416,-21.6991)"
     id="g14955"
     style="font-size:16.25px;font-style:normal;font-weight:400;fill:#fefee9;fill-opacity:1;fill-rule:evenodd;stroke:#000000;stroke-width:0.0984252;stroke-linecap:square;stroke-linejoin:bevel;stroke-opacity:1;font-family:Lucida Grande">
    <path
       name="newburyport" d="M 765.142,32.3415 L 765.497,32.3688 L 765.863,32.4085 L 766.207,32.4589 L 766.545,32.5464 L 766.746,32.5877 L 767.143,32.7686 L 767.582,33.0649 L 767.836,33.2999 L 768.05,33.5672 L 768.15,33.7324 L 768.266,33.9524 L 768.358,34.114 L 768.46,34.2792 L 768.589,34.4597 L 768.716,34.6046 L 768.827,34.7245 L 768.991,34.8669 L 769.137,34.98 L 769.266,35.0503 L 769.453,35.1588 L 769.743,35.2926 L 770.121,35.4267 L 770.486,35.5828 L 770.796,35.7242 L 771.025,35.8553 L 771.212,36.0011 L 771.324,36.0914 L 771.397,36.1943 L 771.747,36.6694 L 772.73,38.0752 L 772.731,38.1825 L 772.738,38.8206 L 772.92,38.8523 L 773.039,38.9544 L 773.324,39.1878 L 773.782,39.379 L 774.406,39.5496 L 774.855,39.6076 L 775.328,39.7207 L 775.605,39.821 L 775.881,39.9525 L 775.985,40.0548 L 775.962,40.2293 L 775.995,40.3058 L 776.296,40.6194 L 776.392,40.7438 L 776.465,41.0208 L 776.584,41.1848 L 776.972,41.4494 L 777.369,41.8314 L 777.591,41.9799 L 777.932,42.2614 L 778.154,42.4874 L 778.251,42.745 L 778.395,43.0356 L 779.108,43.6192 L 779.291,43.8464 L 779.37,43.9029 L 779.544,43.9568 L 779.929,43.8987 L 780.111,43.9523 L 780.854,44.2838 L 781.704,44.2833 L 782.547,44.4381 L 781.227,45.3115 L 775.637,43.3924 L 772.773,44.5894 L 768.657,45.9613 L 768.201,45.8918 L 768.109,45.8701 L 767.995,45.8153 L 767.792,45.6915 L 767.528,45.4802 L 767.418,45.3919 L 767.378,45.3434 L 767.305,45.2406 L 767.265,45.1904 L 767.203,45.1286 L 767.002,45.05 L 766.852,44.9899 L 766.833,44.5555 L 765.007,44.8912 L 761.939,48.344 L 758.496,43.1208 L 758.256,42.1574 L 758.236,42.0121 L 758.228,41.9081 L 758.256,41.8327 L 758.307,41.745 L 758.406,41.615 L 758.533,41.4748 L 758.699,41.3198 L 758.774,41.2396 L 758.815,41.1858 L 758.851,41.124 L 758.868,41.0134 L 758.86,40.8168 L 758.841,40.6735 L 758.801,40.5425 L 758.732,40.3982 L 758.683,40.3422 L 758.602,40.2847 L 758.48,40.2241 L 758.424,40.1741 L 758.346,40.0951 L 758.309,40.0426 L 758.282,39.9585 L 758.267,39.8861 L 758.273,39.7069 L 758.305,39.5192 L 758.333,39.3711 L 758.35,39.3116 L 758.405,39.2417 L 758.487,39.1967 L 758.537,39.1485 L 758.538,39.0875 L 758.521,39.023 L 758.474,38.9432 L 758.431,38.8909 L 758.33,38.8357 L 758.178,38.8192 L 758.051,38.8415 L 757.925,38.8322 L 757.861,38.7979 L 757.719,38.667 L 757.522,38.4328 L 757.493,38.3724 L 757.487,38.3017 L 757.504,38.2227 L 757.545,38.1233 L 757.621,38.0018 L 757.645,37.9344 L 757.628,37.8461 L 757.553,37.8418 L 757.469,37.8945 L 757.39,37.971 L 757.316,38.0177 L 757.244,38.0152 L 757.176,37.9654 L 757.114,37.8505 L 757.067,37.7157 L 756.813,37.4335 L 756.441,36.9392 L 756.143,36.4885 L 756.037,36.3091 L 756.113,36.2648 L 756.277,36.1356 L 756.377,36.0391 L 756.454,35.9254 L 756.532,35.792 L 756.642,35.6087 L 756.76,35.4174 L 756.861,35.25 L 756.988,35.1096 L 757.179,34.9209 L 757.371,34.7359 L 757.545,34.5475 L 757.648,34.4156 L 757.692,34.3457 L 757.748,34.2227 L 757.836,33.9945 L 757.917,33.7115 L 758.028,33.3727 L 758.106,33.1685 L 758.197,33.0151 L 758.307,32.8869 L 758.424,32.7469 L 758.553,32.5908 L 758.689,32.454 L 758.921,32.1563 L 759.143,31.8408 L 759.551,31.195 L 759.874,30.7437 L 760.116,30.4594 L 760.382,30.1963 L 760.558,30.0766 L 760.717,29.9672 L 760.889,29.8928 L 761.037,29.8231 L 761.222,29.7661 L 761.385,29.7216 L 761.545,29.6968 L 761.71,29.7012 L 761.86,29.7316 L 761.942,29.7714 L 762.097,29.8785 L 762.174,29.9616 L 762.24,30.0388 L 762.32,30.1593 L 762.406,30.3524 L 762.464,30.5049 L 762.521,30.673 L 762.572,30.857 L 762.627,31.1392 L 762.665,31.3589 L 762.725,31.5446 L 762.781,31.6616 L 762.848,31.7862 L 762.949,31.92 L 763.085,32.0372 L 763.233,32.1346 L 763.378,32.2262 L 763.6,32.3064 L 763.922,32.3905 L 764.072,32.4011 L 764.288,32.3988 L 764.481,32.3793 L 764.865,32.3539 L 765.142,32.3415"
       id="path14963"
       style="fill-rule:evenodd" />
    <path
       name="newburyport" d="M 789.279,39.9837 L 788.256,40.6611 L 788.154,40.5524 L 788.003,40.3335 L 787.963,40.2012 L 787.677,39.8872 L 787.613,39.7557 L 787.588,39.6354 L 787.365,39.3071 L 786.93,39.1216 L 786.835,39.022 L 786.574,38.856 L 786.406,38.6065 L 786.405,38.3617 L 786.435,38.2926 L 787.202,37.5997 L 787.35,37.4899 L 787.562,37.3996 L 787.719,37.3828 L 787.791,37.4209 L 787.918,37.5939 L 787.983,37.7967 L 788.055,37.9156 L 788.697,38.5076 L 788.855,38.5773 L 789.288,38.5366 L 789.312,38.6288 L 789.141,38.9225 L 789.127,39.1276 L 789.16,39.2601 L 789.232,39.3881 L 789.28,39.52 L 789.279,39.9837"
       id="path14969"
       style="fill-rule:evenodd" />
    <path
       name="newburyport" d="M 787.479,41.1751 L 786.331,41.9346 L 786.33,41.8536 L 786.211,41.6803 L 786.184,41.2716 L 785.985,41.0107 L 785.967,40.7291 L 785.91,40.4763 L 785.9,40.2657 L 786.009,40.1073 L 786.221,40.0577 L 786.378,39.963 L 786.543,39.9458 L 786.655,40.0788 L 786.788,40.0532 L 786.811,39.975 L 786.913,39.8541 L 786.983,39.8551 L 787.031,39.894 L 787.01,40.1923 L 787.042,40.2876 L 787.447,40.6446 L 787.479,41.1751"
       id="path14971"
       style="fill-rule:evenodd" />       
   </g>
</svg>