<svg
   xmlns:svg="http://www.w3.org/2000/svg"
   xmlns="http://www.w3.org/2000/svg"
   version="1.0"
   width="2100"
   height="1300"
   viewBox="0 0 2100 1300"
   id="svg14921">
   <g
     transform="matrix(2.2640019,0,0,2.2640019,-216.71416,-21.6991)"
     id="g14955"
     style="font-size:16.25px;font-style:normal;font-weight:400;fill:#fefee9;fill-opacity:1;fill-rule:evenodd;stroke:#000000;stroke-width:0.0984252;stroke-linecap:square;stroke-linejoin:bevel;stroke-opacity:1;font-family:Lucida Grande">
    <path
       name="newton" d="M 699.067,195.847 L 697.452,198.122 L 697.212,199.186 L 699.304,202.702 L 699.28,202.98 L 698.909,203.176 L 698.813,203.224 L 698.728,203.266 L 698.674,203.409 L 698.695,203.642 L 698.755,204.005 L 698.784,204.175 L 698.802,204.277 L 698.862,204.424 L 698.909,204.54 L 699.121,205.051 L 700.333,204.897 L 700.423,204.893 L 700.506,204.892 L 700.66,204.943 L 700.818,205.031 L 701.023,205.134 L 701.094,205.169 L 701.161,205.247 L 701.869,206.087 L 699.226,208.667 L 698.658,208.894 L 698.683,208.99 L 698.353,209.137 L 698.46,209.414 L 696.214,211.602 L 698.54,213.85 L 699.534,214.955 L 699.912,215.175 L 696.375,218.364 L 693.134,222.385 L 693.136,222.147 L 693.17,221.795 L 693.177,221.645 L 693.176,221.525 L 693.158,221.421 L 693.122,221.281 L 693.009,221.093 L 692.857,220.934 L 692.72,220.803 L 692.566,220.688 L 692.44,220.629 L 692.322,220.6 L 692.249,220.597 L 692.172,220.623 L 692.09,220.682 L 692.003,220.791 L 691.972,220.883 L 691.938,221.023 L 691.917,221.138 L 691.899,221.228 L 691.864,221.311 L 691.803,221.331 L 691.705,221.324 L 691.653,221.281 L 691.533,221.198 L 691.385,221.073 L 691.288,221.009 L 691.205,220.968 L 691.13,220.937 L 691.061,220.909 L 690.97,220.876 L 690.866,220.806 L 690.781,220.732 L 690.573,220.536 L 690.51,220.491 L 690.441,220.474 L 690.311,220.468 L 690.104,220.465 L 690,220.456 L 689.897,220.447 L 689.818,220.4 L 689.727,220.351 L 689.625,220.273 L 689.534,220.165 L 689.472,220.067 L 689.436,219.967 L 689.432,219.835 L 689.425,219.634 L 689.38,219.322 L 689.287,218.818 L 689.205,218.521 L 689.099,218.242 L 689.051,218.121 L 689.017,218.022 L 688.991,217.914 L 688.951,217.767 L 688.901,217.657 L 688.848,217.579 L 688.741,217.475 L 688.375,217.15 L 688.172,216.972 L 688.049,216.843 L 687.96,216.748 L 687.906,216.666 L 687.869,216.605 L 687.847,216.546 L 687.821,216.48 L 687.803,216.421 L 687.808,216.324 L 687.804,216.222 L 687.837,216.082 L 687.889,215.968 L 687.942,215.845 L 687.969,215.757 L 687.955,215.648 L 687.958,215.589 L 687.934,215.401 L 687.89,215.279 L 687.832,215.106 L 687.737,214.941 L 687.647,214.763 L 687.57,214.598 L 687.514,214.521 L 687.443,214.449 L 687.321,214.398 L 687.021,214.39 L 686.773,214.377 L 686.623,214.36 L 686.523,214.341 L 686.413,214.308 L 686.314,214.281 L 686.216,214.262 L 686.119,214.253 L 685.997,214.255 L 685.816,214.301 L 685.677,214.369 L 685.614,214.381 L 685.529,214.376 L 685.452,214.356 L 685.338,214.308 L 685.166,214.194 L 685.079,214.151 L 685,214.122 L 684.927,214.125 L 684.758,214.112 L 684.675,214.063 L 684.568,213.985 L 684.499,213.93 L 684.43,213.873 L 684.335,213.827 L 684.276,213.809 L 684.178,213.806 L 684.085,213.779 L 684.012,213.74 L 683.931,213.634 L 683.891,213.54 L 683.873,213.455 L 683.906,213.356 L 683.963,213.293 L 684.012,213.257 L 684.074,213.188 L 684.078,213.09 L 684.055,212.933 L 683.972,212.713 L 683.932,212.583 L 683.92,212.27 L 683.946,212.215 L 684.002,212.148 L 684.059,212.071 L 684.084,211.974 L 684.089,211.825 L 684.109,211.752 L 684.049,211.632 L 683.885,211.458 L 683.79,211.322 L 683.76,211.195 L 683.752,211.057 L 683.697,210.949 L 683.668,210.819 L 683.624,210.582 L 683.6,210.413 L 683.587,210.273 L 683.559,210.185 L 683.509,210.059 L 683.454,209.965 L 683.406,209.92 L 683.337,209.894 L 683.221,209.818 L 683.082,209.624 L 682.963,209.513 L 682.916,209.446 L 682.858,209.42 L 682.799,209.395 L 682.691,209.38 L 682.474,209.391 L 682.248,209.426 L 682.148,209.444 L 682.051,209.448 L 681.957,209.445 L 681.732,209.391 L 681.48,209.271 L 681.213,209.154 L 681.091,209.123 L 681.01,209.11 L 680.861,209.106 L 680.772,209.114 L 680.688,209.163 L 680.594,209.25 L 680.537,209.311 L 680.443,209.356 L 680.329,209.39 L 680.042,209.427 L 679.944,209.418 L 679.854,209.406 L 679.726,209.378 L 679.646,209.34 L 679.581,209.305 L 679.506,209.277 L 679.438,209.262 L 679.371,209.258 L 679.259,209.278 L 679.185,209.293 L 679.097,209.307 L 679.024,209.322 L 678.93,209.333 L 678.867,209.32 L 678.807,209.302 L 678.722,209.217 L 678.614,209.044 L 678.492,208.83 L 678.421,208.653 L 678.394,208.58 L 678.354,208.513 L 678.283,208.464 L 678.18,208.44 L 678.088,208.355 L 678.03,208.26 L 678.004,208.207 L 677.978,208.142 L 677.926,208.074 L 677.828,207.988 L 677.775,207.942 L 677.729,207.889 L 677.689,207.819 L 677.662,207.743 L 677.624,207.664 L 677.568,207.573 L 677.526,207.526 L 677.424,207.44 L 677.359,207.418 L 677.298,207.399 L 677.239,207.388 L 677.144,207.377 L 677.059,207.467 L 677.01,207.526 L 676.966,207.609 L 676.927,207.689 L 676.897,207.811 L 676.862,207.87 L 676.8,207.932 L 676.722,207.992 L 676.652,208.03 L 676.548,208.069 L 676.45,208.1 L 676.334,208.121 L 676.265,208.141 L 676.167,208.156 L 676.058,208.136 L 675.987,208.093 L 675.943,208.051 L 675.915,207.996 L 675.877,207.916 L 675.864,207.837 L 675.853,207.774 L 675.841,207.69 L 675.806,207.604 L 675.762,207.51 L 675.702,207.438 L 675.603,207.384 L 675.522,207.367 L 675.427,207.355 L 675.26,207.365 L 675.109,207.372 L 674.985,207.388 L 674.906,207.41 L 674.854,207.436 L 674.756,207.53 L 674.686,207.592 L 674.611,207.599 L 674.534,207.56 L 674.449,207.512 L 674.368,207.456 L 674.217,207.332 L 674.117,207.264 L 674.04,207.206 L 673.933,207.164 L 673.779,207.133 L 673.366,207.101 L 673.231,207.073 L 673.111,207.031 L 673.03,206.992 L 672.945,206.909 L 672.882,206.815 L 672.866,206.758 L 672.859,206.697 L 672.868,206.628 L 672.903,206.563 L 672.936,206.51 L 672.982,206.411 L 672.991,206.342 L 672.982,206.271 L 672.936,206.204 L 672.875,206.148 L 672.852,206.086 L 672.861,206.024 L 672.902,205.928 L 672.982,205.875 L 673.084,205.884 L 673.144,205.905 L 673.193,205.94 L 673.241,205.982 L 673.324,206.029 L 673.399,206.059 L 673.5,206.085 L 673.582,206.053 L 673.643,205.997 L 673.727,205.949 L 673.94,205.854 L 674.024,205.805 L 674.075,205.766 L 674.139,205.704 L 674.178,205.627 L 674.204,205.506 L 674.224,205.38 L 674.238,205.183 L 674.254,205.088 L 674.284,204.895 L 674.31,204.789 L 674.37,204.68 L 674.409,204.626 L 674.491,204.59 L 674.575,204.573 L 674.674,204.572 L 674.782,204.588 L 674.921,204.632 L 675.086,204.671 L 675.185,204.674 L 675.289,204.661 L 675.348,204.642 L 675.424,204.614 L 675.477,204.587 L 675.563,204.543 L 675.633,204.471 L 675.684,204.388 L 675.718,204.262 L 675.729,204.181 L 675.743,204.106 L 675.755,204.049 L 675.82,203.936 L 676.04,203.734 L 676.313,203.483 L 676.387,203.407 L 676.463,203.286 L 676.546,203.154 L 676.586,203.063 L 676.603,202.978 L 676.596,202.893 L 676.564,202.833 L 676.522,202.788 L 676.462,202.732 L 676.397,202.679 L 676.309,202.605 L 676.218,202.548 L 676.131,202.507 L 676.05,202.447 L 675.945,202.407 L 675.862,202.396 L 675.803,202.405 L 675.734,202.426 L 675.662,202.446 L 675.575,202.467 L 675.483,202.484 L 675.41,202.487 L 675.335,202.478 L 675.217,202.454 L 675.156,202.429 L 675.061,202.367 L 675.023,202.304 L 674.994,202.228 L 674.979,202.157 L 674.996,202.061 L 675.017,201.964 L 675.039,201.805 L 675.037,201.679 L 675.028,201.62 L 675.061,201.564 L 675.198,201.313 L 675.322,201.106 L 675.43,200.934 L 675.498,200.825 L 675.522,200.707 L 675.541,200.598 L 675.536,200.533 L 675.516,200.467 L 675.432,200.365 L 675.379,200.26 L 675.363,200.191 L 675.364,200.122 L 675.377,200.055 L 675.394,199.99 L 675.425,199.927 L 675.481,199.865 L 675.556,199.813 L 675.612,199.779 L 675.696,199.733 L 675.765,199.671 L 675.823,199.587 L 675.828,199.503 L 675.82,199.349 L 675.787,199.167 L 675.748,198.907 L 675.719,198.778 L 675.693,198.692 L 675.654,198.619 L 675.608,198.561 L 675.567,198.516 L 675.525,198.462 L 675.485,198.397 L 675.442,198.331 L 675.408,198.233 L 675.387,198.143 L 675.373,198.076 L 676.362,197.639 L 676.368,197.806 L 676.375,197.912 L 676.397,197.985 L 676.443,198.031 L 676.542,198.032 L 676.659,197.989 L 676.78,197.919 L 676.878,197.839 L 676.961,197.712 L 677.027,197.625 L 677.079,197.555 L 677.112,197.488 L 677.153,197.418 L 677.215,197.333 L 678.147,196.973 L 686.383,193.641 L 686.65,193.907 L 686.739,193.954 L 686.8,193.96 L 686.891,193.977 L 687.011,193.99 L 687.098,194.011 L 687.143,194.047 L 687.193,194.082 L 687.276,194.145 L 687.449,194.215 L 687.562,194.244 L 687.71,194.305 L 687.803,194.361 L 687.9,194.412 L 687.972,194.436 L 688.079,194.449 L 688.172,194.457 L 688.231,194.441 L 688.327,194.397 L 688.421,194.334 L 688.498,194.298 L 688.608,194.315 L 688.673,194.346 L 688.741,194.393 L 688.819,194.432 L 688.922,194.422 L 689.042,194.359 L 689.132,194.299 L 689.226,194.222 L 689.324,194.129 L 689.406,193.952 L 689.502,193.882 L 689.628,193.899 L 689.762,193.891 L 689.947,193.892 L 690.032,193.886 L 690.124,193.861 L 690.246,193.837 L 690.392,193.797 L 690.523,193.745 L 690.634,193.694 L 690.724,193.652 L 690.836,193.573 L 690.936,193.482 L 691.034,193.393 L 691.142,193.333 L 691.275,193.321 L 691.398,193.387 L 691.447,193.43 L 691.526,193.475 L 691.585,193.484 L 691.668,193.456 L 691.707,193.403 L 691.74,193.348 L 691.789,193.286 L 691.828,193.225 L 691.879,193.191 L 691.938,193.179 L 691.993,193.211 L 692.057,193.299 L 692.073,193.409 L 692.107,193.507 L 692.165,193.56 L 692.238,193.607 L 692.332,193.648 L 692.419,193.734 L 692.473,193.799 L 692.637,193.918 L 692.771,194.014 L 692.702,194.079 L 691.706,195.261 L 694.942,196.272 L 695.327,195.649 L 695.582,195.75 L 695.807,195.847 L 696.03,195.927 L 696.152,195.975 L 696.306,196.02 L 696.434,196.049 L 696.54,196.08 L 696.637,196.101 L 696.777,196.112 L 696.929,196.121 L 697.064,196.136 L 697.214,196.136 L 697.427,196.123 L 697.551,196.101 L 697.736,196.082 L 697.923,196.042 L 698.115,195.978 L 698.426,195.851 L 698.607,195.769 L 698.701,195.745 L 698.77,195.752 L 698.837,195.774 L 698.943,195.815 L 699.067,195.847"
       id="path15461"
       style="fill-rule:evenodd" />
   </g>
</svg>