<svg
   xmlns:svg="http://www.w3.org/2000/svg"
   xmlns="http://www.w3.org/2000/svg"
   version="1.0"
   width="2100"
   height="1300"
   viewBox="0 0 2100 1300"
   id="svg14921">
   <g
     transform="matrix(2.2640019,0,0,2.2640019,-216.71416,-21.6991)"
     id="g14955"
     style="font-size:16.25px;font-style:normal;font-weight:400;fill:#fefee9;fill-opacity:1;fill-rule:evenodd;stroke:#000000;stroke-width:0.0984252;stroke-linecap:square;stroke-linejoin:bevel;stroke-opacity:1;font-family:Lucida Grande">
    <path
       name="north-brookfield" d="M 475.931,213.233 L 478.353,233.42 L 478.571,235.096 L 476.435,235.373 L 474.827,240.322 L 468.943,239.863 L 468.762,239.86 L 468.554,239.868 L 468.286,239.864 L 468.192,239.835 L 467.918,239.692 L 467.819,239.639 L 467.746,239.603 L 467.615,239.566 L 467.533,239.559 L 467.444,239.579 L 467.374,239.586 L 467.079,239.648 L 466.727,239.74 L 466.526,239.79 L 466.374,239.843 L 466.294,239.892 L 460.876,239.972 L 457.828,237.266 L 456.268,235.822 L 457.102,233.283 L 457.35,232.495 L 454.506,228.859 L 454.515,228.263 L 456.369,223.402 L 454.543,223.035 L 451.953,222.556 L 453.358,219.36 L 454.588,217.792 L 456.396,215.328 L 475.931,213.233"
       id="path15545"
       style="fill-rule:evenodd" />
   </g>
</svg>