<svg
   xmlns:svg="http://www.w3.org/2000/svg"
   xmlns="http://www.w3.org/2000/svg"
   version="1.0"
   width="2100"
   height="1300"
   viewBox="0 0 2100 1300"
   id="svg14921">
   <g
     transform="matrix(2.2640019,0,0,2.2640019,-216.71416,-21.6991)"
     id="g14955"
     style="font-size:16.25px;font-style:normal;font-weight:400;fill:#fefee9;fill-opacity:1;fill-rule:evenodd;stroke:#000000;stroke-width:0.0984252;stroke-linecap:square;stroke-linejoin:bevel;stroke-opacity:1;font-family:Lucida Grande">
    <path
       name="northborough" d="M 582.396,199.227 L 582.347,199.274 L 582.065,199.517 L 582.394,199.87 L 583.372,201.033 L 583.767,201.692 L 584.174,202.159 L 584.485,202.322 L 585.686,203.204 L 585.862,203.321 L 586.063,203.408 L 587.021,203.784 L 587.456,203.979 L 587.576,203.998 L 587.695,205.695 L 587.269,206.22 L 588.127,207.345 L 589.303,209.391 L 590.605,210.55 L 592.383,212.877 L 593.706,214.611 L 582.373,216.161 L 580.231,216.428 L 580.168,216.436 L 580.133,216.501 L 580.091,216.584 L 580.06,216.682 L 580.041,216.789 L 580.031,216.881 L 579.997,216.984 L 579.937,217.031 L 579.864,217.051 L 579.801,217.126 L 579.783,217.204 L 579.762,217.285 L 579.803,217.34 L 579.854,217.371 L 579.874,217.476 L 579.886,217.57 L 579.878,217.645 L 579.861,217.7 L 579.825,217.747 L 579.68,217.807 L 579.187,217.935 L 579.15,217.99 L 579.174,218.083 L 579.202,218.171 L 579.182,218.26 L 579.147,218.331 L 579.176,218.404 L 579.135,218.524 L 579.043,218.61 L 579.011,218.662 L 578.988,218.744 L 578.992,218.835 L 579.012,218.902 L 579.051,218.97 L 579.057,219.043 L 579.038,219.11 L 578.908,219.217 L 578.766,219.297 L 578.699,219.335 L 578.642,219.368 L 578.556,219.398 L 578.528,219.315 L 578.522,219.221 L 578.49,219.166 L 578.421,219.182 L 578.323,219.292 L 578.282,219.373 L 578.309,219.448 L 578.365,219.497 L 578.394,219.566 L 578.398,219.646 L 578.375,219.711 L 578.304,219.725 L 578.262,219.678 L 578.227,219.631 L 578.164,219.617 L 578.115,219.655 L 578.117,219.741 L 578.156,219.8 L 578.123,219.857 L 578.064,219.877 L 578.003,219.856 L 577.94,219.838 L 577.865,219.832 L 577.806,219.889 L 577.765,219.968 L 577.749,220.039 L 577.802,220.08 L 577.851,220.119 L 577.796,220.176 L 577.716,220.177 L 577.718,220.255 L 577.663,220.307 L 577.639,220.391 L 577.663,220.478 L 577.714,220.554 L 577.762,220.594 L 577.768,220.676 L 577.691,220.708 L 570.691,223.927 L 568.963,221.389 L 568.077,214.825 L 565.723,210.125 L 566.22,207.848 L 569.163,194.276 L 579.998,196.521 L 582.396,199.227"
       id="path15473"
       style="fill-rule:evenodd" />
   </g>
</svg>