<svg
   xmlns:svg="http://www.w3.org/2000/svg"
   xmlns="http://www.w3.org/2000/svg"
   version="1.0"
   width="2100"
   height="1300"
   viewBox="0 0 2100 1300"
   id="svg14921">
   <g
     transform="matrix(2.2640019,0,0,2.2640019,-216.71416,-21.6991)"
     id="g14955"
     style="font-size:16.25px;font-style:normal;font-weight:400;fill:#fefee9;fill-opacity:1;fill-rule:evenodd;stroke:#000000;stroke-width:0.0984252;stroke-linecap:square;stroke-linejoin:bevel;stroke-opacity:1;font-family:Lucida Grande">
    <path
       name="northfield" d="M 382.689,69.0071 L 391.265,98.7221 L 375.133,103.437 L 369.186,105.122 L 369.642,109.802 L 362.282,110.519 L 362.375,110.357 L 362.41,110.259 L 362.458,110.144 L 362.48,110.04 L 362.547,109.886 L 362.597,109.789 L 362.632,109.721 L 362.67,109.618 L 362.715,109.542 L 362.821,109.421 L 362.918,109.327 L 362.992,109.256 L 363.065,109.197 L 363.131,109.139 L 363.203,109.08 L 363.31,109.011 L 363.425,108.951 L 363.541,108.904 L 363.654,108.846 L 363.769,108.803 L 363.864,108.736 L 363.942,108.659 L 364.012,108.603 L 364.08,108.544 L 364.163,108.479 L 364.213,108.419 L 364.276,108.343 L 364.335,108.264 L 364.371,108.204 L 364.44,108.105 L 364.487,108.025 L 364.533,107.938 L 364.568,107.856 L 364.596,107.754 L 364.632,107.69 L 364.667,107.622 L 364.709,107.52 L 364.752,107.409 L 364.786,107.313 L 364.828,107.186 L 364.88,107.056 L 364.893,106.959 L 364.912,106.842 L 364.95,106.707 L 364.965,106.623 L 365.005,106.507 L 365.024,106.325 L 365.041,106.051 L 365.011,105.793 L 364.979,105.593 L 364.969,105.473 L 364.942,105.394 L 364.916,105.313 L 364.869,105.199 L 364.765,104.939 L 364.568,104.474 L 364.373,104.044 L 364.227,103.77 L 364.063,103.453 L 364,103.314 L 363.748,102.743 L 363.377,101.89 L 363.073,101.096 L 362.997,100.963 L 362.944,100.852 L 362.876,100.759 L 362.793,100.594 L 362.764,100.526 L 362.738,100.443 L 362.72,100.354 L 362.706,100.277 L 362.668,100.171 L 362.652,100.093 L 362.653,100.032 L 362.67,99.9638 L 362.685,99.8953 L 362.708,99.8188 L 362.737,99.7248 L 362.783,99.6154 L 362.842,99.5003 L 362.897,99.387 L 362.992,99.2352 L 363.083,99.0773 L 363.16,98.9605 L 363.202,98.9041 L 363.267,98.8146 L 363.347,98.7294 L 363.432,98.6167 L 363.56,98.4732 L 363.712,98.3283 L 363.814,98.2551 L 363.942,98.1334 L 364.062,98.0389 L 364.214,97.7797 L 364.336,97.6794 L 364.382,97.625 L 364.458,97.5634 L 364.537,97.5037 L 364.621,97.4363 L 364.658,97.3819 L 364.694,97.3215 L 364.78,97.25 L 364.88,97.169 L 365.493,96.7227 L 366.876,95.7268 L 367.026,95.6191 L 367.156,95.4994 L 367.296,95.37 L 367.416,95.2499 L 367.506,95.1687 L 367.586,95.0854 L 368.605,93.9574 L 368.722,93.8136 L 368.795,93.7065 L 368.835,93.6345 L 368.886,93.539 L 368.911,93.4724 L 368.938,93.3941 L 368.975,93.2943 L 368.992,93.2198 L 369.006,93.1119 L 369.014,93.0036 L 369.005,92.9366 L 369,92.8756 L 368.988,92.8024 L 368.986,92.6902 L 368.987,92.6077 L 368.971,92.5383 L 368.947,92.4535 L 368.905,92.3799 L 368.873,92.2966 L 368.81,92.1853 L 368.772,92.0863 L 368.73,92.0206 L 368.686,91.9668 L 368.642,91.8852 L 368.565,91.7678 L 368.523,91.7237 L 368.463,91.6716 L 368.385,91.5569 L 368.348,91.51 L 367.661,90.4709 L 367.531,90.2915 L 367.449,90.1367 L 367.392,90.0019 L 367.358,89.9283 L 367.33,89.8433 L 367.308,89.7445 L 367.288,89.6476 L 367.27,89.3738 L 367.267,88.9506 L 367.269,88.8541 L 367.272,88.7696 L 367.251,88.655 L 367.223,88.5661 L 367.211,88.4831 L 367.189,88.3844 L 367.171,88.2798 L 367.166,88.2128 L 367.236,87.8418 L 366.684,87.6553 L 366.512,87.5875 L 366.338,87.6317 L 366.095,87.0469 L 365.596,86.1702 L 365.09,85.4137 L 364.626,85.0575 L 363.999,85.2868 L 363.906,85.8284 L 363.591,86.7403 L 362.852,86.4558 L 362.701,84.4231 L 361.13,84.8349 L 360.329,82.0872 L 356.125,67.6234 L 360.503,67.8101 L 370.951,68.3294 L 372.761,68.434 L 382.689,69.0071"
       id="path15041"
       style="fill-rule:evenodd" />
   </g>
</svg>