<svg
   xmlns:svg="http://www.w3.org/2000/svg"
   xmlns="http://www.w3.org/2000/svg"
   version="1.0"
   width="2100"
   height="1300"
   viewBox="0 0 2100 1300"
   id="svg14921">
   <g
     transform="matrix(2.2640019,0,0,2.2640019,-216.71416,-21.6991)"
     id="g14955"
     style="font-size:16.25px;font-style:normal;font-weight:400;fill:#fefee9;fill-opacity:1;fill-rule:evenodd;stroke:#000000;stroke-width:0.0984252;stroke-linecap:square;stroke-linejoin:bevel;stroke-opacity:1;font-family:Lucida Grande">
    <path
       name="northbridge" d="M 577.791,262.861 L 582.295,269.647 L 586.745,276.448 L 587.561,276.813 L 588.037,276.855 L 588.234,276.974 L 588.335,277.058 L 588.364,277.115 L 588.379,277.233 L 588.362,277.308 L 588.35,277.366 L 588.38,277.482 L 588.452,277.521 L 588.513,277.539 L 588.601,277.549 L 588.708,277.556 L 588.795,277.55 L 588.907,277.54 L 589.038,277.532 L 589.163,277.543 L 589.312,277.58 L 589.464,277.635 L 589.536,277.685 L 589.583,277.724 L 589.646,277.763 L 589.715,277.776 L 589.778,277.782 L 589.843,277.791 L 589.95,277.846 L 590.036,277.924 L 590.125,277.955 L 590.229,277.988 L 590.396,278.042 L 590.423,280.54 L 589.449,281.147 L 589.341,281.197 L 589.209,281.267 L 589.072,281.326 L 589.005,281.352 L 588.946,281.378 L 588.863,281.4 L 588.774,281.403 L 588.714,281.407 L 588.631,281.422 L 588.549,281.452 L 588.462,281.486 L 588.401,281.512 L 588.313,281.53 L 588.185,281.537 L 588.038,281.524 L 587.957,281.513 L 587.896,281.493 L 587.835,281.464 L 587.781,281.423 L 587.74,281.376 L 587.636,281.312 L 582.272,283.855 L 575.52,287.036 L 568.064,284.291 L 566.645,282.971 L 560.935,285.502 L 564.999,278.467 L 561.797,276.807 L 561.729,276.767 L 564.55,272.993 L 565.161,268.517 L 564.911,266.729 L 564.588,264.4 L 565.161,263.718 L 568.35,262.803 L 577.791,262.861"
       id="path15721"
       style="fill-rule:evenodd" />
   </g>
</svg>