<svg
   xmlns:svg="http://www.w3.org/2000/svg"
   xmlns="http://www.w3.org/2000/svg"
   version="1.0"
   width="2100"
   height="1300"
   viewBox="0 0 2100 1300"
   id="svg14921">
   <g
     transform="matrix(2.2640019,0,0,2.2640019,-216.71416,-21.6991)"
     id="g14955"
     style="font-size:16.25px;font-style:normal;font-weight:400;fill:#fefee9;fill-opacity:1;fill-rule:evenodd;stroke:#000000;stroke-width:0.0984252;stroke-linecap:square;stroke-linejoin:bevel;stroke-opacity:1;font-family:Lucida Grande">
    <path
       name="orleans" d="M 1016.82,381.635 L 1016.95,381.843 L 1016.98,382.062 L 1016.96,382.329 L 1017,382.778 L 1016.98,383.188 L 1017,383.324 L 1016.97,383.597 L 1017.07,383.874 L 1017.13,384.21 L 1017.12,384.676 L 1017.17,384.761 L 1017.37,384.929 L 1017.42,385.048 L 1017.43,385.187 L 1017.34,385.482 L 1017.3,385.805 L 1017.34,386.245 L 1017.4,386.804 L 1017.41,387.142 L 1017.52,387.471 L 1017.52,388.525 L 1017.56,388.747 L 1017.53,389.123 L 1017.56,389.408 L 1017.53,389.747 L 1017.65,390.208 L 1017.71,390.641 L 1017.71,391.301 L 1017.82,392.647 L 1017.93,393.15 L 1017.89,393.449 L 1018,393.827 L 1018.02,394.053 L 1018.19,394.5 L 1018.23,394.71 L 1018.22,395.365 L 1018.27,395.537 L 1018.42,397.031 L 1018.4,397.283 L 1018.35,397.483 L 1018.44,398.323 L 1018.5,398.598 L 1018.49,398.849 L 1018.59,399.619 L 1018.62,400.179 L 1018.68,400.894 L 1018.78,401.269 L 1018.8,401.789 L 1018.85,401.999 L 1018.84,402.142 L 1018.88,402.33 L 1018.95,402.536 L 1019.01,402.984 L 1019.02,403.312 L 1019.1,403.871 L 1019.09,404.414 L 1019.26,405.271 L 1019.21,405.965 L 1019.26,406.664 L 1019.22,407.003 L 1019.27,407.436 L 1019.24,408.246 L 1019.31,409.702 L 1019.43,411.292 L 1019.54,411.757 L 1018.8,411.676 L 1018.86,411.545 L 1018.83,411.167 L 1018.9,410.893 L 1018.73,410.525 L 1018.69,410.322 L 1018.53,410.308 L 1018.48,410.34 L 1018.24,410.307 L 1018.23,410.236 L 1018.31,410.116 L 1018.31,409.989 L 1018.26,409.928 L 1018.22,409.786 L 1018.23,409.566 L 1018.29,409.266 L 1018.29,408.808 L 1018.14,408.771 L 1018.08,408.693 L 1018.07,408.504 L 1017.97,408.379 L 1018.08,408.252 L 1018.15,408.079 L 1018.05,407.875 L 1018.12,407.789 L 1018.43,407.671 L 1018.51,407.464 L 1018.43,407.364 L 1018.44,407.159 L 1018.53,406.977 L 1018.56,406.818 L 1018.51,406.379 L 1018.55,406.275 L 1018.46,406.048 L 1018.4,405.886 L 1018.31,405.721 L 1018.26,405.508 L 1018.28,405.359 L 1018.09,404.89 L 1017.93,404.702 L 1017.6,404.458 L 1017.57,404.332 L 1017.63,404.125 L 1017.57,403.907 L 1017.35,403.674 L 1017.33,403.501 L 1017.25,403.441 L 1017.18,403.291 L 1017.24,403.157 L 1017.23,403.008 L 1017.1,402.838 L 1017.1,402.751 L 1017.25,402.511 L 1017.21,402.37 L 1016.97,402.137 L 1016.92,402.043 L 1016.84,401.927 L 1016.61,401.869 L 1016.5,401.817 L 1016.3,401.655 L 1016.22,401.536 L 1016,401.043 L 1015.79,400.922 L 1015.58,400.674 L 1015.57,400.501 L 1015.64,400.278 L 1015.67,400.067 L 1015.7,399.988 L 1015.76,399.962 L 1015.91,399.967 L 1015.99,399.856 L 1015.84,399.773 L 1015.84,399.693 L 1015.97,399.54 L 1016.18,399.444 L 1016.29,399.323 L 1016.47,399.358 L 1016.58,399.445 L 1016.76,399.464 L 1016.9,399.423 L 1017.02,399.271 L 1017.03,399.143 L 1017,399.026 L 1016.81,398.991 L 1016.7,399.125 L 1016.57,399.169 L 1016.34,399.148 L 1016.13,398.98 L 1015.98,398.786 L 1015.97,398.619 L 1015.87,397.896 L 1015.73,397.609 L 1015.58,397.194 L 1015.57,396.596 L 1015.53,396.47 L 1015.45,396.401 L 1015.13,396.383 L 1014.94,396.314 L 1014.86,396.239 L 1014.71,396.147 L 1014.66,396.021 L 1014.4,395.694 L 1014.34,395.515 L 1014.36,395.183 L 1014.33,394.995 L 1014.42,394.788 L 1014.52,394.716 L 1014.7,394.699 L 1014.8,394.649 L 1015.04,394.391 L 1015.25,394.27 L 1015.44,394.336 L 1015.74,394.299 L 1015.82,394.337 L 1015.88,394.441 L 1016.02,394.555 L 1016.12,394.561 L 1016.34,394.651 L 1016.68,394.882 L 1016.75,394.825 L 1016.74,394.763 L 1016.62,394.59 L 1016.53,394.521 L 1016.27,394.448 L 1016.15,394.365 L 1016.26,394.306 L 1016.42,394.1 L 1016.59,394.042 L 1016.78,393.887 L 1016.85,393.777 L 1016.85,393.461 L 1016.72,393.455 L 1016.45,393.643 L 1016.13,393.748 L 1015.97,393.759 L 1015.67,393.647 L 1015.32,393.576 L 1015.13,393.619 L 1014.7,393.861 L 1014.51,393.882 L 1014.29,393.957 L 1014.03,394.191 L 1013.85,394.485 L 1013.8,394.604 L 1013.72,394.597 L 1013.65,394.518 L 1013.65,394.196 L 1013.67,394.062 L 1013.78,393.904 L 1013.97,393.932 L 1014.15,393.952 L 1014.19,393.904 L 1014.14,393.85 L 1014.09,393.733 L 1014.04,393.695 L 1013.97,393.575 L 1013.87,393.603 L 1013.81,393.54 L 1013.73,393.486 L 1013.57,393.6 L 1013.5,393.679 L 1013.47,393.757 L 1013.33,394.053 L 1013.24,394.134 L 1012.98,394.169 L 1012.83,394.307 L 1012.78,394.473 L 1012.82,394.732 L 1012.77,394.867 L 1012.64,395.081 L 1012.64,395.364 L 1012.7,395.458 L 1012.8,395.526 L 1013.15,395.625 L 1013.26,395.612 L 1013.55,395.632 L 1013.75,395.706 L 1013.8,395.841 L 1013.8,395.959 L 1013.85,396.082 L 1013.93,396.185 L 1014.13,396.338 L 1014.44,396.483 L 1014.49,396.575 L 1014.65,396.682 L 1015.07,396.825 L 1015.19,396.917 L 1015.27,397.049 L 1015.29,397.169 L 1015.21,397.286 L 1015.07,397.383 L 1014.99,397.497 L 1014.92,397.694 L 1014.85,397.743 L 1014.68,397.77 L 1014.58,397.732 L 1014.53,397.669 L 1014.6,397.415 L 1014.52,397.362 L 1014.15,397.376 L 1014.1,397.269 L 1014.24,397.243 L 1014.31,397.194 L 1014.36,397.106 L 1014.27,397.006 L 1013.99,396.859 L 1013.87,396.76 L 1013.76,396.755 L 1013.42,396.91 L 1013.25,396.962 L 1012.99,397.279 L 1012.96,397.587 L 1012.88,397.63 L 1012.76,397.63 L 1012.7,397.607 L 1012.48,397.738 L 1012.31,397.789 L 1012.05,397.973 L 1011.87,398.45 L 1011.43,398.466 L 1011.29,398.635 L 1011.24,398.658 L 1011.19,398.597 L 1011.18,398.384 L 1011.22,398.014 L 1011.21,397.691 L 1011.08,397.434 L 1010.8,397.036 L 1010.69,396.779 L 1010.75,396.29 L 1010.66,396.15 L 1010.39,396.115 L 1010.29,396.14 L 1010.18,396.245 L 1010.09,396.254 L 1010.03,396.184 L 1010.04,395.753 L 1009.89,395.556 L 1009.83,395.434 L 1009.81,395.266 L 1009.87,395.079 L 1009.95,394.958 L 1010.27,394.763 L 1010.24,394.63 L 1010.15,394.553 L 1010.12,394.426 L 1010.13,394.246 L 1010.23,394.039 L 1010.3,393.974 L 1010.27,393.898 L 1010.12,393.859 L 1010.05,393.938 L 1010.01,394.092 L 1009.81,394.11 L 1009.75,394.08 L 1009.71,393.976 L 1009.65,393.947 L 1009.47,393.927 L 1009.4,393.843 L 1009.29,393.591 L 1009.15,393.388 L 1008.98,393.346 L 1008.73,393.381 L 1008.56,393.306 L 1008.4,392.994 L 1008.32,392.925 L 1008.19,392.768 L 1008.19,392.634 L 1008.34,392.537 L 1008.49,392.557 L 1008.83,392.513 L 1008.95,392.55 L 1009.18,392.537 L 1009.31,392.465 L 1009.43,392.409 L 1009.69,392.507 L 1009.77,392.479 L 1009.97,392.319 L 1010.28,392.282 L 1010.39,392.201 L 1010.45,392.019 L 1010.39,391.832 L 1010.2,391.707 L 1010.22,391.567 L 1010.2,391.502 L 1010.15,391.442 L 1010.03,391.365 L 1009.99,391.304 L 1009.9,391.13 L 1009.8,391.055 L 1009.55,390.988 L 1009.48,391.037 L 1009.55,391.168 L 1009.54,391.239 L 1009.44,391.366 L 1009.44,391.55 L 1009.41,391.628 L 1009.3,391.622 L 1009.19,391.554 L 1009.05,391.539 L 1008.98,391.603 L 1008.99,391.724 L 1009.03,391.841 L 1009.02,391.999 L 1008.74,392.175 L 1008.63,392.376 L 1008.53,392.385 L 1008.29,392.303 L 1008.17,392.322 L 1008.09,392.37 L 1008,392.482 L 1007.95,392.694 L 1008,392.82 L 1008.29,393.168 L 1008.42,393.505 L 1008.27,393.562 L 1008.17,393.432 L 1008.07,393.456 L 1008.06,393.534 L 1008.09,393.636 L 1008.19,393.729 L 1008.32,393.775 L 1008.46,393.74 L 1008.6,393.606 L 1008.76,393.514 L 1008.92,393.503 L 1009,393.557 L 1009.04,393.667 L 1008.97,393.787 L 1008.81,393.906 L 1008.62,394.179 L 1008.55,394.196 L 1008.44,394.175 L 1008.29,394.207 L 1008.09,394.337 L 1008.13,394.432 L 1008.19,394.461 L 1008.44,394.364 L 1008.69,394.31 L 1008.84,394.222 L 1008.89,394.158 L 1009.06,394.004 L 1009.13,393.981 L 1009.38,394.11 L 1009.41,394.391 L 1009.36,394.48 L 1009.11,394.437 L 1008.93,394.48 L 1008.61,394.598 L 1008.43,394.795 L 1008.22,394.95 L 1008.03,395.269 L 1007.91,395.269 L 1007.6,395.3 L 1007.56,395.357 L 1007.75,395.439 L 1008.02,395.427 L 1008.19,395.314 L 1008.35,395.39 L 1008.52,395.512 L 1008.8,395.563 L 1008.89,395.56 L 1009.11,395.69 L 1009.17,395.8 L 1009.19,395.908 L 1009.25,396.009 L 1009.56,396.257 L 1009.66,396.459 L 1009.7,396.616 L 1009.69,396.718 L 1009.81,396.945 L 1009.81,397.016 L 1009.52,397.353 L 1009.3,397.53 L 1009.06,397.794 L 1008.83,397.931 L 1008.68,397.973 L 1008.46,397.961 L 1008.24,398.045 L 1008.07,398.236 L 1007.89,398.666 L 1007.83,398.73 L 1007.57,398.837 L 1007.51,398.972 L 1007.44,399.147 L 1007.36,399.202 L 1007.04,399.091 L 1006.96,399.084 L 1006.69,399.191 L 1006.6,399.296 L 1006.55,399.524 L 1006.42,399.605 L 1006.12,399.605 L 1005.8,399.499 L 1005.67,399.407 L 1005.67,399.202 L 1005.59,399.124 L 1005.57,399.053 L 1005.63,398.881 L 1005.64,398.825 L 1005.6,398.714 L 1005.37,398.532 L 1005.06,398.528 L 1004.96,398.562 L 1004.88,398.698 L 1004.85,398.808 L 1004.95,399.065 L 1005.08,399.244 L 1005.37,399.255 L 1005.48,399.332 L 1005.66,399.658 L 1005.9,399.726 L 1006.06,399.792 L 1006.38,399.78 L 1006.6,399.696 L 1006.87,399.409 L 1006.94,399.366 L 1007.43,399.47 L 1007.74,399.526 L 1007.89,399.531 L 1007.97,399.482 L 1008.02,399.388 L 1008.02,399.214 L 1008.11,398.97 L 1008.23,398.802 L 1008.26,398.705 L 1008.34,398.64 L 1008.4,398.657 L 1008.7,398.611 L 1008.83,398.505 L 1008.97,398.181 L 1009.09,398.209 L 1009.34,398.372 L 1009.75,398.497 L 1009.93,398.535 L 1010.14,398.609 L 1010.26,398.631 L 1010.38,398.705 L 1010.44,398.88 L 1010.39,398.959 L 1010.36,399.186 L 1010.38,399.384 L 1010.44,399.494 L 1010.72,399.628 L 1011.03,399.836 L 1010.96,400.043 L 1010.68,400.085 L 1010.53,400.161 L 1010.31,400.379 L 1010.05,400.563 L 1009.59,400.769 L 1009.13,401.037 L 1008.95,401.057 L 1008.73,400.933 L 1008.62,400.788 L 1008.6,400.621 L 1008.74,400.415 L 1008.73,400.335 L 1008.56,400.284 L 1008.38,400.367 L 1008.26,400.429 L 1008.16,400.544 L 1008.14,400.647 L 1008.19,400.738 L 1008.26,400.792 L 1008.49,400.829 L 1008.58,400.882 L 1008.7,401.083 L 1008.81,401.176 L 1008.82,401.247 L 1008.7,401.353 L 1008.61,401.582 L 1008.52,401.74 L 1008.53,402.031 L 1008.37,402.451 L 1008.32,402.834 L 1008.23,402.976 L 1008.34,403.107 L 1008.34,403.32 L 1008.37,403.493 L 1008.59,403.89 L 1008.94,404.27 L 1009.07,404.322 L 1009.26,404.546 L 1009.48,404.977 L 1009.55,405.056 L 1009.64,405.227 L 1009.72,405.302 L 1009.76,405.412 L 1009.74,405.525 L 1009.63,405.689 L 1009.56,405.738 L 1009.44,405.751 L 1009.39,405.718 L 1009.34,405.626 L 1009.23,405.636 L 1009.07,405.944 L 1009.08,406.04 L 1009.18,406.202 L 1009.24,406.241 L 1009.39,406.168 L 1009.47,406.379 L 1009.37,406.603 L 1009.31,406.626 L 1009.15,406.457 L 1009.03,406.401 L 1008.92,406.405 L 1008.87,406.515 L 1008.89,406.579 L 1009.04,406.64 L 1008.99,406.735 L 1008.77,406.85 L 1008.38,406.998 L 1008.25,407.181 L 1008.17,407.236 L 1007.71,407.237 L 1007.21,407.46 L 1006.81,407.539 L 1006.45,407.507 L 1005.92,407.327 L 1005.74,407.053 L 1005.76,406.882 L 1005.96,406.978 L 1006.06,407.056 L 1006.21,406.881 L 1006.22,406.8 L 1006.17,406.699 L 1006.15,406.598 L 1006.2,406.503 L 1006.39,406.482 L 1006.48,406.442 L 1006.5,406.33 L 1006.38,406.2 L 1006.26,406.287 L 1006.03,406.582 L 1005.65,406.621 L 1005.56,406.664 L 1005.47,406.751 L 1005.4,406.87 L 1005.27,407.008 L 1004.9,407.205 L 1004.09,407.306 L 1003.66,407.548 L 1003.44,407.75 L 1003.33,407.989 L 1003.35,408.398 L 1003.28,408.657 L 1003.26,409.123 L 1003.18,409.416 L 1003.19,409.575 L 1003.24,409.762 L 1003.17,409.912 L 1003.1,409.798 L 1002.91,409.652 L 1001.05,408.144 L 1000.33,407.526 L 1000.45,407.252 L 1000.52,407.081 L 1000.58,406.951 L 1000.63,406.857 L 1000.82,406.649 L 1001.02,406.399 L 1001.09,406.315 L 1001.24,406.143 L 1001.34,406.006 L 1001.48,405.791 L 1001.55,405.674 L 1001.6,405.544 L 1001.68,405.373 L 1001.77,405.154 L 1001.83,404.997 L 1001.87,404.871 L 1001.77,404.841 L 1001.99,404.143 L 1002.06,404.014 L 1002.12,403.909 L 1002.18,403.809 L 1002.24,403.711 L 1002.34,403.589 L 1002.57,403.288 L 1002.13,402.527 L 999.967,398.666 L 999.368,397.573 L 999.332,396.139 L 998.474,393.883 L 998.271,393.334 L 997.684,391.829 L 997.667,391.76 L 997.638,391.704 L 997.577,391.701 L 997.501,391.712 L 997.467,391.607 L 997.502,391.541 L 997.501,391.478 L 997.424,391.507 L 997.36,391.518 L 997.344,391.436 L 997.347,391.375 L 997.287,391.305 L 997.233,391.265 L 997.19,391.167 L 997.165,391.099 L 997.099,391.033 L 997.025,391.064 L 996.98,391.114 L 996.9,391.05 L 996.857,390.956 L 996.821,390.896 L 996.78,390.954 L 996.71,390.979 L 996.658,390.944 L 996.581,390.897 L 996.565,390.82 L 996.493,390.837 L 996.431,390.872 L 996.356,390.879 L 996.355,390.808 L 996.377,390.735 L 996.273,390.735 L 996.21,390.771 L 996.166,390.711 L 996.069,390.689 L 996.025,390.643 L 996.069,390.595 L 996.074,390.518 L 995.989,390.502 L 995.829,390.593 L 995.777,390.638 L 995.677,390.665 L 995.652,390.575 L 995.676,390.512 L 995.711,390.454 L 995.739,390.4 L 995.748,390.343 L 995.743,390.28 L 995.708,390.225 L 995.66,390.169 L 995.552,390.139 L 995.454,390.173 L 995.355,390.191 L 995.303,390.138 L 995.279,390.011 L 995.199,389.894 L 995.143,389.876 L 995.041,389.875 L 994.983,389.859 L 994.92,389.83 L 994.856,389.784 L 994.832,389.7 L 994.694,389.493 L 994.7,389.391 L 994.859,389.507 L 994.986,389.568 L 995.105,389.59 L 995.183,389.566 L 995.182,389.495 L 995.021,389.291 L 994.958,389.262 L 994.876,389.122 L 994.883,389.02 L 994.936,388.916 L 995.206,388.564 L 995.374,388.301 L 995.622,388.03 L 995.79,387.697 L 995.945,387.552 L 996.263,387.317 L 996.371,387.174 L 996.576,386.7 L 997.052,386.432 L 996.94,386.329 L 996.915,386.253 L 996.953,386.165 L 997.069,386.053 L 997.295,385.9 L 997.554,385.831 L 998.28,385.45 L 998.359,385.457 L 998.526,385.588 L 998.693,385.655 L 998.921,385.651 L 999.086,385.615 L 999.124,385.552 L 999.227,385.103 L 999.349,385.083 L 999.384,385.153 L 999.445,385.212 L 999.537,385.301 L 999.663,385.473 L 999.707,385.534 L 999.755,385.599 L 999.882,385.657 L 999.992,385.648 L 1000.24,385.52 L 1000.45,385.476 L 1000.57,385.398 L 1000.63,385.41 L 1000.63,385.493 L 1000.63,385.562 L 1000.7,385.602 L 1000.76,385.599 L 1000.86,385.589 L 1000.92,385.529 L 1001,385.545 L 1001.1,385.577 L 1001.22,385.579 L 1001.29,385.524 L 1001.38,385.501 L 1001.45,385.519 L 1001.51,385.593 L 1001.57,385.622 L 1001.58,385.696 L 1001.63,385.79 L 1001.68,385.852 L 1001.75,385.89 L 1001.84,385.876 L 1001.91,385.854 L 1002.01,385.816 L 1002.1,385.803 L 1002.16,385.806 L 1002.22,385.814 L 1002.29,385.823 L 1003.75,384.49 L 1005.3,387.011 L 1005.18,387.059 L 1004.98,387.354 L 1004.96,387.677 L 1004.93,387.749 L 1004.8,387.861 L 1004.68,387.936 L 1004.6,388.022 L 1004.36,388.64 L 1004.3,388.974 L 1004.3,389.265 L 1004.41,389.436 L 1004.52,389.553 L 1004.74,389.649 L 1004.99,389.803 L 1005.21,389.831 L 1005.32,389.781 L 1005.4,389.692 L 1005.43,389.607 L 1005.78,389.3 L 1005.96,388.903 L 1006.04,388.808 L 1006.14,388.768 L 1006.6,388.206 L 1006.92,387.877 L 1007.19,387.478 L 1007.51,386.6 L 1007.58,386.518 L 1007.61,386.331 L 1007.54,386.119 L 1007.54,385.929 L 1007.82,385.224 L 1007.82,384.916 L 1007.86,384.757 L 1007.94,384.687 L 1007.99,384.456 L 1008.05,384.336 L 1008.37,384.141 L 1008.53,384.114 L 1009.11,383.877 L 1009.25,383.786 L 1009.29,383.723 L 1009.24,383.464 L 1009.23,383.306 L 1009.42,383.012 L 1009.53,382.578 L 1009.64,382.385 L 1009.66,382.211 L 1009.6,382.058 L 1009.73,381.976 L 1009.79,381.996 L 1009.82,382.051 L 1009.84,382.169 L 1009.92,382.287 L 1010.02,382.331 L 1010.25,382.24 L 1010.41,382.316 L 1010.55,382.291 L 1010.59,382.165 L 1010.57,382.085 L 1010.42,381.829 L 1010.41,381.625 L 1010.36,381.539 L 1010.22,381.518 L 1010.12,381.574 L 1010.07,381.883 L 1010,381.931 L 1009.92,381.934 L 1009.81,381.872 L 1009.76,381.73 L 1009.82,381.54 L 1010.08,381.172 L 1010.31,381.004 L 1010.59,380.612 L 1010.7,380.382 L 1010.86,380.213 L 1010.96,380.182 L 1011.08,380.219 L 1011.16,380.365 L 1011.3,380.451 L 1011.56,380.478 L 1011.75,380.64 L 1011.89,380.856 L 1012,380.973 L 1012.02,381.029 L 1011.88,381.265 L 1011.73,381.465 L 1011.63,381.586 L 1011.53,381.58 L 1011.4,381.528 L 1011.21,381.381 L 1010.99,381.384 L 1010.87,381.434 L 1010.81,381.492 L 1010.78,381.648 L 1010.88,381.757 L 1011.08,381.729 L 1011.18,381.766 L 1011.44,381.936 L 1011.66,382.041 L 1011.79,382.047 L 1011.92,381.959 L 1011.99,381.87 L 1011.99,381.696 L 1012.06,381.632 L 1012.22,381.671 L 1012.39,381.675 L 1012.61,381.591 L 1012.72,381.604 L 1012.79,381.642 L 1012.83,381.712 L 1012.68,382.135 L 1012.57,382.678 L 1012.54,382.744 L 1012.56,383.112 L 1012.62,383.387 L 1012.67,383.503 L 1012.78,383.621 L 1013.4,383.907 L 1013.56,384.063 L 1013.64,384.194 L 1013.65,384.312 L 1013.45,384.529 L 1013.35,384.752 L 1013.41,384.837 L 1013.53,384.929 L 1013.71,384.98 L 1013.89,384.953 L 1014,384.888 L 1013.91,384.701 L 1013.96,384.632 L 1014.05,384.62 L 1014.28,384.728 L 1014.3,384.932 L 1014.17,385.218 L 1013.98,385.322 L 1013.93,385.386 L 1013.82,385.411 L 1013.68,385.39 L 1013.35,385.477 L 1013.25,385.635 L 1013.36,386.051 L 1013.41,386.152 L 1013.52,386.254 L 1013.75,386.312 L 1013.92,386.307 L 1014.02,386.345 L 1014.24,386.571 L 1014.23,386.729 L 1014.18,386.793 L 1013.98,386.882 L 1013.71,386.894 L 1013.62,386.772 L 1013.51,386.527 L 1013.14,386.33 L 1012.97,386.357 L 1012.83,386.541 L 1012.66,386.757 L 1012.43,386.754 L 1012.27,386.684 L 1012.03,386.673 L 1011.95,386.747 L 1011.92,387.085 L 1012.11,387.176 L 1012.14,387.119 L 1012.25,387.079 L 1012.42,387.061 L 1012.47,386.973 L 1012.54,386.909 L 1012.7,386.914 L 1012.84,386.919 L 1012.91,386.957 L 1013.1,387.228 L 1013.41,387.476 L 1013.59,387.629 L 1013.75,387.699 L 1014.24,387.287 L 1014.46,387.182 L 1014.73,387.127 L 1014.84,386.944 L 1014.89,386.825 L 1014.9,386.707 L 1014.81,386.567 L 1014.7,386.514 L 1014.49,386.685 L 1014.36,386.639 L 1014.41,386.228 L 1014.42,386.141 L 1014.39,386.055 L 1014.44,385.731 L 1014.57,385.525 L 1014.75,385.064 L 1014.86,384.825 L 1015.01,384.697 L 1015.42,384.697 L 1015.78,384.913 L 1015.94,385.02 L 1016.12,385.322 L 1016.31,385.499 L 1016.62,385.58 L 1016.68,385.548 L 1016.67,385.414 L 1016.67,384.897 L 1016.7,384.784 L 1016.64,383.905 L 1016.5,383.41 L 1016.42,383.341 L 1016.39,383.106 L 1016.47,382.837 L 1016.49,382.567 L 1016.33,382.32 L 1016.32,382.137 L 1016.34,382.028 L 1016.3,381.942 L 1016.22,381.88 L 1016.21,381.793 L 1016.26,381.525 L 1016.82,381.635 M 1007.18,395.678 L 1007.07,395.647 L 1007.06,395.592 L 1007.07,395.372 L 1006.86,395.123 L 1006.75,395.117 L 1006.55,395.241 L 1006.26,395.308 L 1006.22,395.412 L 1006.24,395.498 L 1006.41,395.645 L 1006.47,395.684 L 1006.49,395.863 L 1006.67,395.845 L 1007.09,395.907 L 1007.16,395.874 L 1007.18,395.678"
       id="path15901"
       style="fill-rule:evenodd" />
    <path
       name="orleans" d="M 1016.26,381.525 L 1016.24,381.423 L 1016.18,381.36 L 1016.17,381.155 L 1016.22,380.999 L 1016.19,380.903 L 1016.28,380.783 L 1016.35,380.79 L 1016.49,380.929 L 1016.82,381.635 L 1016.26,381.525"
       id="path15903"
       style="fill-rule:evenodd" />
    <path
       name="orleans" d="M 1014.89,381.254 L 1015.33,381.031 L 1015.4,380.958 L 1015.54,380.916 L 1015.66,381.071 L 1015.65,381.251 L 1015.73,381.418 L 1014.89,381.254"
       id="path15905"
       style="fill-rule:evenodd" />
    <path
       name="orleans" d="M 1014.15,381.108 L 1013.95,381.45 L 1013.92,381.568 L 1013.88,382.081 L 1013.84,382.135 L 1013.79,382.09 L 1013.68,381.926 L 1013.52,381.261 L 1013.44,381.151 L 1013.35,380.949 L 1014.15,381.108"
       id="path15907"
       style="fill-rule:evenodd" />
    <path
       name="orleans" d="M 1015.73,381.418 L 1015.74,381.661 L 1015.72,381.832 L 1015.78,382.069 L 1015.77,382.274 L 1015.69,382.55 L 1015.52,382.893 L 1015.44,383.003 L 1015.3,383.014 L 1015.08,382.964 L 1014.98,382.998 L 1014.77,383.308 L 1014.66,383.414 L 1014.51,383.455 L 1014.38,383.456 L 1014.21,383.411 L 1014.16,383.32 L 1014.15,383.202 L 1014.2,383.068 L 1014.42,382.723 L 1014.48,382.603 L 1014.55,382.273 L 1014.68,382.002 L 1014.92,381.8 L 1014.93,381.682 L 1014.89,381.636 L 1014.65,381.594 L 1014.6,381.53 L 1014.62,381.452 L 1014.82,381.239 L 1014.89,381.254 L 1015.73,381.418"
       id="path15909"
       style="fill-rule:evenodd" />
    <path
       name="orleans" d="M 1013.66,382.556 L 1013.53,382.392 L 1013.43,382.119 L 1013.48,381.913 L 1013.56,381.895 L 1013.61,382.102 L 1013.66,382.162 L 1013.81,382.263 L 1013.84,382.349 L 1013.77,382.469 L 1013.66,382.556"
       id="path15911"
       style="fill-rule:evenodd" />
    <path
       name="orleans" d="M 1007.18,395.678 L 1007.16,395.874 L 1007.09,395.907 L 1006.67,395.845 L 1006.49,395.863 L 1006.47,395.684 L 1006.41,395.645 L 1006.24,395.498 L 1006.22,395.412 L 1006.26,395.308 L 1006.55,395.241 L 1006.75,395.117 L 1006.86,395.123 L 1007.07,395.372 L 1007.06,395.592 L 1007.07,395.647 L 1007.18,395.678"
       id="path15931"
       style="fill-rule:evenodd" />
    <path
       name="orleans" d="M 1013.52,400.068 L 1013.6,399.758 L 1013.59,399.544 L 1013.5,399.373 L 1013.69,398.952 L 1013.75,398.864 L 1013.89,398.894 L 1013.99,399.278 L 1014.09,399.372 L 1014.4,399.484 L 1014.61,399.481 L 1014.76,399.507 L 1014.81,399.577 L 1015.07,399.88 L 1015.15,399.918 L 1015.33,399.946 L 1015.38,399.991 L 1015.39,400.056 L 1015.31,400.3 L 1015.3,400.828 L 1015.62,401.368 L 1015.59,401.508 L 1015.52,401.659 L 1015.53,401.786 L 1015.6,402.004 L 1015.69,402.098 L 1015.74,402.27 L 1015.73,402.372 L 1015.74,402.508 L 1015.77,402.743 L 1015.73,402.822 L 1015.62,402.831 L 1015.42,402.803 L 1015.36,402.758 L 1015.29,402.578 L 1015.14,402.511 L 1014.93,402.387 L 1014.82,402.216 L 1014.58,401.969 L 1014.28,401.801 L 1013.95,401.689 L 1013.61,401.718 L 1013.6,401.948 L 1013.33,401.866 L 1013.28,401.504 L 1013.37,401.337 L 1013.3,401.228 L 1013.28,401.161 L 1013.17,401.247 L 1013.08,401.2 L 1013.04,401.114 L 1013.05,401.021 L 1013.27,400.757 L 1013.28,400.645 L 1013.42,400.368 L 1013.52,400.068"
       id="path15937"
       style="fill-rule:evenodd" />
    <path
       name="orleans" d="M 1012.98,401.894 L 1013.14,402.247 L 1013.15,402.318 L 1013.41,402.369 L 1013.5,402.351 L 1013.56,402.272 L 1013.59,402.199 L 1013.7,402.119 L 1013.74,402.03 L 1013.72,401.811 L 1013.84,401.776 L 1014.29,401.99 L 1014.38,402.027 L 1014.65,402.283 L 1014.71,402.393 L 1014.85,402.578 L 1014.97,402.978 L 1015.07,403.096 L 1015.07,403.158 L 1015.18,403.241 L 1015.35,403.333 L 1015.41,403.411 L 1015.43,403.529 L 1015.37,403.639 L 1015.09,403.747 L 1014.87,403.703 L 1014.74,403.763 L 1014.67,403.746 L 1014.44,403.61 L 1014.27,403.622 L 1014.18,403.82 L 1014.08,403.844 L 1014,403.831 L 1013.83,403.557 L 1013.81,403.275 L 1013.9,403.093 L 1013.89,402.997 L 1013.84,402.921 L 1013.69,402.86 L 1013.28,402.732 L 1012.72,402.522 L 1012.58,402.405 L 1012.62,402.116 L 1012.61,401.943 L 1012.55,401.864 L 1012.53,401.721 L 1012.63,401.65 L 1012.74,401.678 L 1012.96,401.824 L 1012.98,401.894"
       id="path15947"
       style="fill-rule:evenodd" />
    <path
       name="orleans" d="M 1010.9,408.267 L 1010.79,408.22 L 1010.55,408.019 L 1010.21,407.515 L 1010.02,406.953 L 1009.97,406.644 L 1009.82,406.347 L 1009.81,406.286 L 1009.86,406.232 L 1010.13,406.248 L 1010.36,406.164 L 1010.53,406.193 L 1010.61,406.256 L 1010.7,406.371 L 1010.73,406.488 L 1010.68,406.775 L 1010.62,407.202 L 1010.63,407.35 L 1010.73,407.577 L 1010.81,407.937 L 1010.88,408.094 L 1010.97,408.187 L 1010.9,408.267"
       id="path15949"
       style="fill-rule:evenodd" />              
    <path
       name="orleans" d="M 1012.14,409.369 L 1011.95,409.318 L 1011.8,408.966 L 1011.68,408.771 L 1011.68,408.684 L 1011.75,408.67 L 1011.85,408.493 L 1011.95,408.428 L 1012.09,408.418 L 1012.22,408.306 L 1012.32,408.138 L 1012.52,407.891 L 1012.65,407.784 L 1012.74,407.751 L 1013.11,407.92 L 1013.24,408.043 L 1013.26,408.151 L 1013.23,408.468 L 1013.11,408.878 L 1012.93,409.191 L 1012.69,409.194 L 1012.49,409.228 L 1012.3,409.32 L 1012.14,409.369"
       id="path15959"
       style="fill-rule:evenodd" />
    <path
       name="orleans" d="M 1011.52,409.319 L 1011.43,409.296 L 1011.28,409.087 L 1011.19,408.891 L 1011.23,408.716 L 1011.34,408.865 L 1011.65,409.175 L 1011.63,409.3 L 1011.52,409.319"
       id="path15961"
       style="fill-rule:evenodd" />
    <path
       name="orleans" d="M 1007.93,384.119 L 1007.89,384.08 L 1007.82,383.72 L 1007.94,383.44 L 1008.11,383.413 L 1008.26,383.452 L 1008.29,383.56 L 1008.27,383.657 L 1008.15,383.902 L 1008.05,384.069 L 1007.93,384.119"
       id="path15917"
       style="fill-rule:evenodd" />       
   </g>
</svg>