<svg
   xmlns:svg="http://www.w3.org/2000/svg"
   xmlns="http://www.w3.org/2000/svg"
   version="1.0"
   width="2100"
   height="1300"
   viewBox="0 0 2100 1300"
   id="svg14921">
   <g
     transform="matrix(2.2640019,0,0,2.2640019,-216.71416,-21.6991)"
     id="g14955"
     style="font-size:16.25px;font-style:normal;font-weight:400;fill:#fefee9;fill-opacity:1;fill-rule:evenodd;stroke:#000000;stroke-width:0.0984252;stroke-linecap:square;stroke-linejoin:bevel;stroke-opacity:1;font-family:Lucida Grande">
    <path
       name="otis" d="M 189.263,230.555 L 194.286,229.799 L 198.751,229.138 L 199.597,228.99 L 199.629,229.08 L 199.662,229.174 L 199.686,229.262 L 199.716,229.335 L 199.713,229.409 L 199.715,229.479 L 199.715,229.557 L 199.708,229.615 L 199.67,229.681 L 199.621,229.746 L 199.524,229.857 L 199.482,229.905 L 199.411,229.949 L 199.326,229.984 L 199.26,230.03 L 199.208,230.186 L 199.165,230.393 L 199.154,230.481 L 199.16,230.582 L 199.195,230.666 L 199.252,230.74 L 199.279,230.793 L 199.305,230.845 L 199.35,230.948 L 199.374,231.033 L 199.409,231.122 L 199.445,231.182 L 199.516,231.241 L 199.552,231.293 L 199.557,231.37 L 199.581,231.447 L 199.598,231.528 L 199.605,231.615 L 199.615,231.672 L 199.628,231.753 L 199.643,231.844 L 199.708,231.921 L 199.745,232.006 L 199.708,232.12 L 199.689,232.205 L 199.668,232.317 L 206.891,231.614 L 207.252,235.512 L 221.119,233.692 L 221.247,235.081 L 228.491,234.444 L 221.021,266.941 L 211.836,265.213 L 211.845,265.286 L 211.88,265.383 L 211.914,265.494 L 211.953,265.569 L 211.962,265.642 L 211.971,265.705 L 211.986,265.791 L 211.971,265.888 L 211.945,265.978 L 211.928,266.037 L 211.918,266.104 L 211.917,266.188 L 211.942,266.248 L 211.965,266.313 L 211.96,266.374 L 211.828,266.471 L 211.596,266.671 L 211.546,266.724 L 211.516,266.81 L 211.519,266.899 L 211.561,267.012 L 211.596,267.098 L 211.628,267.183 L 211.647,267.268 L 211.664,267.339 L 211.681,267.424 L 211.703,267.522 L 211.718,267.599 L 211.751,267.667 L 211.796,267.736 L 211.811,267.803 L 211.828,267.884 L 211.845,267.953 L 210.938,268.092 L 209.98,268.429 L 209.409,268.301 L 207.967,251.786 L 198.297,253.055 L 188.694,254.276 L 188.77,247.97 L 189.263,230.555"
       id="path15603"
       style="fill-rule:evenodd" />
   </g>
</svg>