<svg
   xmlns:svg="http://www.w3.org/2000/svg"
   xmlns="http://www.w3.org/2000/svg"
   version="1.0"
   width="2100"
   height="1300"
   viewBox="0 0 2100 1300"
   id="svg14921">
   <g
     transform="matrix(2.2640019,0,0,2.2640019,-216.71416,-21.6991)"
     id="g14955"
     style="font-size:16.25px;font-style:normal;font-weight:400;fill:#fefee9;fill-opacity:1;fill-rule:evenodd;stroke:#000000;stroke-width:0.0984252;stroke-linecap:square;stroke-linejoin:bevel;stroke-opacity:1;font-family:Lucida Grande">
    <path
       name="oxford" d="M 507.431,253.972 L 513.039,253.475 L 517.978,261.196 L 518.284,261.417 L 522.493,264.43 L 528.4,264.738 L 529.285,263.23 L 530.699,262.722 L 530.806,264.741 L 528.507,265.628 L 528.594,266.402 L 529.532,266.041 L 530.979,266.296 L 529.724,269.918 L 529.14,270.26 L 529.724,275.229 L 532.702,273.883 L 533.989,276.72 L 538.008,285.661 L 534.909,286.992 L 534.377,285.754 L 529.568,287.835 L 518.147,292.785 L 516.372,293.57 L 513.891,294.67 L 512.901,287.243 L 509.291,288.297 L 508.592,284.798 L 511.794,283.85 L 510.747,276.626 L 507.431,253.972"
       id="path15687"
       style="fill-rule:evenodd" />
   </g>
</svg>