<svg
   xmlns:svg="http://www.w3.org/2000/svg"
   xmlns="http://www.w3.org/2000/svg"
   version="1.0"
   width="2100"
   height="1300"
   viewBox="0 0 2100 1300"
   id="svg14921">
   <g
     transform="matrix(2.2640019,0,0,2.2640019,-216.71416,-21.6991)"
     id="g14955"
     style="font-size:16.25px;font-style:normal;font-weight:400;fill:#fefee9;fill-opacity:1;fill-rule:evenodd;stroke:#000000;stroke-width:0.0984252;stroke-linecap:square;stroke-linejoin:bevel;stroke-opacity:1;font-family:Lucida Grande">
    <path
       name="palmer" d="M 429.728,234.738 L 422.374,244.738 L 420.784,246.911 L 420.481,247.34 L 420.345,247.49 L 420.02,247.835 L 419.541,248.39 L 419.499,248.44 L 419.424,248.498 L 419.375,248.622 L 419.165,249.046 L 419.127,249.095 L 419.067,249.183 L 419.032,249.255 L 418.997,249.353 L 418.991,249.418 L 418.963,249.545 L 418.932,249.661 L 418.908,249.745 L 418.883,249.841 L 418.819,249.943 L 418.784,249.998 L 418.762,250.074 L 418.719,250.166 L 418.679,250.258 L 418.662,250.374 L 418.595,250.784 L 418.574,250.878 L 418.535,251.02 L 418.492,251.196 L 418.458,251.339 L 418.436,251.499 L 418.415,251.605 L 418.424,251.687 L 418.427,251.792 L 418.483,252.282 L 418.533,252.397 L 418.581,252.466 L 418.657,252.548 L 418.739,252.628 L 418.773,252.681 L 418.808,252.762 L 418.814,252.896 L 418.809,252.994 L 418.8,253.065 L 418.811,253.136 L 418.834,253.299 L 418.848,253.62 L 418.855,253.697 L 418.846,253.762 L 418.811,253.901 L 418.792,253.97 L 418.755,254.078 L 418.721,254.148 L 418.691,254.209 L 418.689,254.329 L 418.71,254.673 L 418.705,254.75 L 418.706,254.842 L 418.713,254.925 L 418.669,255.078 L 418.643,255.15 L 418.615,255.802 L 418.628,255.894 L 418.647,255.95 L 418.687,256.045 L 418.736,256.155 L 418.753,256.217 L 418.77,256.305 L 418.783,256.384 L 418.795,256.471 L 418.752,256.598 L 418.676,256.7 L 418.632,256.78 L 418.627,256.862 L 418.654,256.934 L 418.709,257.068 L 418.743,257.149 L 418.75,257.212 L 418.747,257.299 L 418.754,257.378 L 418.761,257.466 L 418.783,257.529 L 418.822,257.581 L 419.08,257.907 L 419.134,257.986 L 419.176,258.089 L 419.188,258.15 L 419.176,258.237 L 419.159,258.315 L 419.122,258.409 L 419.078,258.473 L 419.026,258.548 L 418.988,258.6 L 418.917,258.641 L 418.841,258.671 L 418.754,258.719 L 418.695,258.75 L 418.625,258.828 L 418.606,258.905 L 418.619,258.997 L 418.643,259.09 L 418.652,259.189 L 418.663,259.246 L 418.678,259.305 L 418.739,259.422 L 418.91,259.603 L 418.982,259.696 L 419.069,259.799 L 419.142,259.889 L 419.209,260.016 L 419.185,260.114 L 419.164,260.222 L 419.147,260.283 L 419.105,260.365 L 419.064,260.425 L 419.051,260.519 L 419.047,260.598 L 419.012,260.68 L 418.97,260.763 L 418.933,260.837 L 418.909,260.893 L 418.847,260.979 L 418.752,261.033 L 418.691,261.035 L 418.595,261.104 L 418.542,261.153 L 418.489,261.247 L 418.455,261.305 L 418.432,261.419 L 418.402,261.484 L 418.352,261.546 L 418.209,261.592 L 418.14,261.624 L 418.055,261.655 L 417.982,261.709 L 417.896,261.787 L 417.839,261.892 L 417.803,261.953 L 417.765,262.004 L 417.724,262.145 L 417.7,262.211 L 417.691,262.29 L 417.67,262.361 L 417.637,262.472 L 417.611,262.531 L 417.572,262.629 L 417.522,262.701 L 417.498,262.762 L 417.487,262.827 L 417.476,262.937 L 417.483,263.006 L 417.495,263.092 L 417.514,263.167 L 417.553,263.213 L 417.597,263.255 L 417.654,263.303 L 417.698,263.359 L 417.758,263.422 L 417.805,263.482 L 417.835,263.573 L 417.848,263.646 L 417.849,263.717 L 417.817,263.793 L 417.765,263.859 L 417.665,263.929 L 417.602,263.985 L 417.546,264.038 L 417.484,264.122 L 417.459,264.184 L 417.44,264.294 L 417.451,264.383 L 417.446,264.454 L 417.488,264.572 L 417.534,264.772 L 417.572,264.89 L 417.598,264.983 L 417.623,265.082 L 417.676,265.179 L 417.717,265.226 L 417.779,265.282 L 417.848,265.318 L 417.906,265.343 L 417.959,265.377 L 418.029,265.446 L 418.081,265.538 L 418.112,265.593 L 418.154,265.674 L 418.163,265.737 L 418.179,265.83 L 418.141,265.918 L 418.073,265.998 L 418.004,266.033 L 417.92,266.075 L 417.853,266.131 L 417.814,266.207 L 417.799,266.292 L 417.803,266.353 L 417.814,266.414 L 417.822,266.489 L 417.81,266.55 L 417.771,266.63 L 417.656,266.873 L 417.631,266.994 L 417.63,267.069 L 417.637,267.14 L 417.628,267.199 L 417.621,267.262 L 417.605,267.331 L 417.566,267.462 L 417.535,267.562 L 417.51,267.635 L 417.504,267.765 L 417.491,267.851 L 417.418,267.933 L 417.357,268.023 L 417.187,268.229 L 417.151,268.298 L 417.144,268.374 L 417.157,268.473 L 417.183,268.554 L 417.209,268.645 L 417.222,268.724 L 417.207,268.812 L 417.163,268.91 L 417.14,268.974 L 416.959,269.281 L 416.917,269.369 L 416.868,269.461 L 416.816,269.549 L 416.778,269.602 L 416.714,269.674 L 416.654,269.728 L 416.601,269.763 L 416.541,269.788 L 416.387,269.827 L 416.143,269.86 L 416.063,269.843 L 416.016,269.807 L 415.944,269.728 L 415.892,269.656 L 415.857,269.587 L 415.787,269.509 L 415.678,269.486 L 415.607,269.489 L 415.544,269.504 L 415.443,269.541 L 415.277,269.574 L 415.21,269.597 L 415.119,269.635 L 415.056,269.656 L 414.981,269.661 L 414.871,269.642 L 414.779,269.615 L 414.665,269.582 L 414.597,269.576 L 414.484,269.592 L 414.415,269.599 L 414.36,269.616 L 414.303,269.641 L 414.231,269.685 L 414.148,269.761 L 414.118,269.812 L 414.089,269.872 L 414.082,269.977 L 414.091,270.075 L 414.062,270.156 L 414.021,270.242 L 413.983,270.288 L 413.896,270.335 L 413.802,270.355 L 413.175,270.409 L 413.104,270.41 L 412.983,270.398 L 412.897,270.364 L 412.846,270.306 L 412.79,270.256 L 412.741,270.217 L 412.671,270.168 L 412.569,270.15 L 412.486,270.154 L 412.411,270.179 L 412.319,270.192 L 412.252,270.177 L 412.177,270.151 L 412.105,270.134 L 411.883,270.121 L 411.791,270.11 L 411.704,270.098 L 411.628,270.095 L 411.559,270.084 L 411.492,270.05 L 411.405,269.964 L 411.359,269.916 L 411.322,269.861 L 411.256,269.764 L 411.195,269.665 L 411.168,269.611 L 411.112,269.545 L 411.018,269.491 L 410.916,269.478 L 410.857,269.481 L 410.764,269.492 L 410.657,269.56 L 410.598,269.608 L 410.552,269.649 L 410.463,269.699 L 410.37,269.698 L 410.296,269.669 L 410.244,269.615 L 410.201,269.54 L 410.143,269.449 L 410.113,269.396 L 410.059,269.318 L 410.01,269.264 L 409.955,269.242 L 409.844,269.205 L 409.752,269.182 L 409.675,269.174 L 409.573,269.168 L 409.464,269.185 L 409.36,269.207 L 409.263,269.24 L 409.2,269.26 L 409.111,269.271 L 409.044,269.286 L 408.981,269.319 L 408.892,269.326 L 408.767,269.318 L 408.654,269.332 L 408.588,269.322 L 408.476,269.301 L 408.415,269.29 L 408.329,269.275 L 408.242,269.276 L 408.132,269.253 L 407.965,269.228 L 407.863,269.213 L 407.763,269.182 L 407.673,269.173 L 407.608,269.153 L 407.526,269.134 L 407.44,269.099 L 407.371,269.091 L 407.297,269.09 L 407.202,269.098 L 407.073,269.154 L 407.006,269.187 L 406.901,269.244 L 406.661,269.425 L 406.585,269.498 L 406.486,269.55 L 406.423,269.587 L 406.334,269.607 L 406.237,269.614 L 406.161,269.609 L 406.1,269.589 L 406.041,269.562 L 405.915,269.482 L 405.823,269.426 L 405.741,269.378 L 405.665,269.312 L 405.601,269.219 L 405.604,269.144 L 405.611,269.06 L 405.647,268.905 L 405.652,268.81 L 405.666,268.749 L 405.671,268.665 L 405.675,268.573 L 405.625,268.481 L 405.352,268.093 L 405.31,268.015 L 405.236,267.975 L 405.169,267.949 L 405.083,267.952 L 404.994,267.964 L 404.925,268.009 L 404.865,268.083 L 404.794,268.204 L 404.703,268.378 L 404.641,268.487 L 404.601,268.552 L 404.541,268.594 L 404.47,268.605 L 404.359,268.529 L 404.313,268.491 L 404.262,268.441 L 404.208,268.395 L 404.11,268.373 L 404.021,268.358 L 403.968,268.328 L 403.93,268.247 L 403.9,268.132 L 403.894,267.982 L 403.746,267.709 L 403.638,267.57 L 403.572,267.503 L 403.51,267.456 L 403.445,267.448 L 403.368,267.492 L 403.308,267.539 L 403.209,267.555 L 403.125,267.542 L 403.051,267.512 L 402.977,267.43 L 402.934,267.375 L 402.902,267.315 L 402.873,267.264 L 402.836,267.191 L 402.821,267.133 L 402.801,267.078 L 402.776,266.999 L 402.736,266.926 L 402.681,266.884 L 402.621,266.84 L 402.536,266.809 L 401.984,266.759 L 401.874,266.75 L 401.778,266.733 L 401.698,266.705 L 401.629,266.686 L 401.571,266.628 L 401.522,266.587 L 401.449,266.487 L 401.416,266.424 L 401.382,266.359 L 401.301,266.064 L 401.186,265.699 L 401.082,265.355 L 401.051,265.274 L 401.019,265.195 L 400.967,265.102 L 400.896,265.005 L 400.833,264.947 L 400.777,264.891 L 400.74,264.846 L 400.673,264.693 L 400.647,264.636 L 400.602,264.557 L 400.535,264.473 L 400.492,264.427 L 400.401,264.338 L 400.34,264.284 L 400.249,264.23 L 400.174,264.193 L 400.104,264.173 L 400.047,264.147 L 399.941,264.13 L 399.859,264.117 L 399.682,264.091 L 399.558,264.082 L 399.446,264.076 L 399.375,264.066 L 399.289,264.071 L 399.174,264.091 L 399.062,264.129 L 398.996,264.148 L 398.908,264.174 L 398.829,264.193 L 398.729,264.174 L 398.656,264.116 L 398.612,264.029 L 398.6,263.958 L 398.595,263.893 L 398.598,263.801 L 398.591,263.73 L 398.569,263.621 L 398.542,263.568 L 398.486,263.492 L 398.416,263.421 L 398.343,263.386 L 398.275,263.387 L 398.219,263.424 L 398.153,263.5 L 398.117,263.549 L 398.083,263.602 L 398.041,263.648 L 397.995,263.717 L 397.951,263.755 L 397.864,263.776 L 397.784,263.73 L 397.771,263.649 L 397.792,263.549 L 397.77,263.452 L 397.687,263.329 L 397.617,263.271 L 397.505,263.258 L 397.444,263.281 L 397.38,263.318 L 397.279,263.385 L 397.201,263.467 L 397.147,263.505 L 397.065,263.52 L 397.006,263.504 L 396.918,263.463 L 396.88,263.524 L 396.802,263.621 L 396.719,263.644 L 396.493,263.466 L 396.435,263.483 L 396.366,263.502 L 396.277,263.536 L 396.177,263.559 L 396.086,263.573 L 395.946,263.57 L 395.877,263.565 L 395.801,263.562 L 395.728,263.555 L 395.641,263.542 L 395.547,263.541 L 395.484,263.55 L 395.399,263.565 L 395.328,263.579 L 395.235,263.604 L 395.158,263.634 L 393.692,264.412 L 393.602,264.47 L 393.307,264.724 L 393.033,264.994 L 392.782,265.281 L 392.703,265.349 L 392.657,265.394 L 392.599,265.44 L 392.537,265.502 L 392.154,265.688 L 391.814,265.866 L 391.74,265.895 L 391.665,265.919 L 391.553,265.936 L 390.184,266.017 L 389.761,266.086 L 389.653,266.115 L 389.549,266.158 L 389.285,266.26 L 388.702,266.448 L 388.607,266.484 L 388.544,266.474 L 388.454,266.462 L 388.361,266.444 L 388.298,266.422 L 388.186,266.394 L 388.119,266.365 L 388.037,266.335 L 387.964,266.329 L 387.895,266.317 L 387.807,266.317 L 387.691,266.327 L 387.624,266.325 L 387.557,266.341 L 387.462,266.356 L 387.366,266.354 L 387.283,266.375 L 387.198,266.373 L 387.059,266.367 L 386.463,266.3 L 384.987,255.136 L 384.938,254.768 L 390.346,254.104 L 394.257,253.5 L 394.541,253.458 L 394.541,253.446 L 394.512,253.438 L 394.463,253.434 L 394.426,253.43 L 394.365,253.434 L 394.19,253.431 L 394.086,253.422 L 394.002,253.352 L 393.948,253.286 L 393.917,253.219 L 393.892,253.137 L 393.866,252.993 L 393.828,252.815 L 393.802,252.662 L 393.682,252.222 L 393.677,252.1 L 393.688,251.998 L 393.734,251.926 L 393.789,251.891 L 393.862,251.892 L 393.933,251.911 L 393.997,251.941 L 394.08,251.985 L 394.136,252.011 L 394.229,252.026 L 394.292,251.999 L 394.32,251.941 L 394.325,251.864 L 394.282,251.791 L 394.242,251.714 L 394.209,251.627 L 394.201,251.519 L 394.19,251.444 L 394.187,251.379 L 394.162,251.316 L 394.121,251.246 L 394.055,251.163 L 393.991,251.101 L 393.899,251.014 L 393.845,250.99 L 393.764,250.979 L 393.689,250.986 L 393.61,251.012 L 393.531,251.035 L 393.448,251.046 L 393.383,251.059 L 393.263,251.046 L 393.177,251.017 L 393.141,250.916 L 393.142,250.818 L 393.181,250.734 L 393.232,250.705 L 393.313,250.7 L 393.392,250.646 L 393.421,250.587 L 393.435,250.519 L 393.452,250.46 L 393.451,250.397 L 393.45,250.324 L 393.455,250.249 L 393.454,250.182 L 393.447,250.105 L 393.428,250.015 L 393.398,249.91 L 393.374,249.843 L 393.347,249.77 L 393.329,249.689 L 393.318,249.604 L 393.294,249.48 L 393.285,249.421 L 393.245,249.323 L 393.201,249.254 L 393.112,249.164 L 393.029,249.089 L 392.961,248.995 L 392.948,248.916 L 392.951,248.842 L 392.952,248.775 L 392.947,248.714 L 392.877,247.986 L 392.886,247.853 L 392.892,247.76 L 392.904,247.687 L 392.945,247.58 L 392.995,247.511 L 393.041,247.473 L 393.089,247.43 L 393.152,247.397 L 393.207,247.38 L 393.28,247.367 L 393.337,247.386 L 393.468,247.466 L 393.574,247.479 L 393.64,247.511 L 393.651,247.6 L 393.613,247.651 L 393.541,247.689 L 393.478,247.722 L 393.421,247.731 L 393.373,247.776 L 393.335,247.823 L 393.33,247.891 L 393.394,247.971 L 393.47,247.997 L 393.557,248.022 L 393.67,248.051 L 393.74,248.101 L 393.785,248.151 L 393.881,248.193 L 393.952,248.182 L 394.043,248.152 L 394.12,248.107 L 394.168,248.069 L 394.214,248.024 L 394.252,247.979 L 394.293,247.93 L 394.345,247.862 L 394.376,247.801 L 394.421,247.66 L 394.48,247.519 L 394.55,247.437 L 394.594,247.338 L 394.658,247.271 L 394.681,247.183 L 394.747,247.107 L 394.793,247.047 L 394.835,247 L 394.885,246.951 L 394.952,246.903 L 395.019,246.876 L 395.112,246.875 L 395.178,246.888 L 395.235,246.912 L 395.29,246.931 L 395.374,246.975 L 395.429,247.015 L 395.504,247.104 L 395.539,247.178 L 395.558,247.233 L 395.594,247.318 L 395.632,247.427 L 395.684,247.514 L 395.748,247.556 L 395.828,247.628 L 395.904,247.648 L 395.973,247.641 L 396.064,247.656 L 396.161,247.582 L 396.23,247.54 L 396.308,247.474 L 396.364,247.41 L 396.427,247.338 L 396.489,247.262 L 396.581,247.155 L 396.659,247.073 L 396.713,246.969 L 396.74,246.915 L 396.762,246.856 L 396.767,246.761 L 396.766,246.694 L 396.783,246.62 L 396.848,246.571 L 396.945,246.561 L 397.027,246.562 L 397.085,246.553 L 397.187,246.566 L 397.3,246.583 L 397.359,246.59 L 397.423,246.569 L 397.5,246.516 L 397.542,246.476 L 397.564,246.415 L 397.585,246.34 L 397.601,246.266 L 397.624,246.191 L 397.648,246.127 L 397.697,246.037 L 397.731,245.984 L 397.759,245.93 L 397.795,245.859 L 397.822,245.787 L 397.845,245.655 L 397.844,245.559 L 397.835,245.498 L 397.751,245.145 L 397.7,244.965 L 397.684,244.865 L 397.692,244.737 L 397.703,244.58 L 397.718,244.523 L 397.746,244.462 L 397.81,244.386 L 397.873,244.34 L 397.959,244.272 L 398.02,244.243 L 398.094,244.174 L 398.128,244.115 L 398.164,244.058 L 398.216,243.963 L 398.251,243.91 L 398.307,243.836 L 398.348,243.787 L 398.4,243.737 L 398.466,243.696 L 398.521,243.664 L 398.587,243.621 L 398.656,243.586 L 398.711,243.564 L 398.812,243.541 L 398.983,243.502 L 399.23,243.46 L 399.434,243.447 L 399.59,243.457 L 399.816,243.471 L 399.886,243.462 L 399.985,243.457 L 400.095,243.421 L 400.173,243.379 L 400.221,243.333 L 400.265,243.247 L 400.306,243.148 L 400.326,243.092 L 400.425,243.078 L 414.324,238.12 L 415.236,238.78 L 416.244,237.838 L 416.314,237.795 L 416.4,237.769 L 416.479,237.78 L 416.563,237.785 L 416.624,237.777 L 416.735,237.761 L 416.825,237.721 L 416.901,237.678 L 416.942,237.636 L 417.004,237.573 L 417.042,237.523 L 417.103,237.498 L 417.647,240.115 L 420.355,239.935 L 422.446,236.761 L 423.08,235.795 L 429.728,234.738"
       id="path15635"
       style="fill-rule:evenodd" />
   </g>
</svg>