<svg
   xmlns:svg="http://www.w3.org/2000/svg"
   xmlns="http://www.w3.org/2000/svg"
   version="1.0"
   width="2100"
   height="1300"
   viewBox="0 0 2100 1300"
   id="svg14921">
   <g
     transform="matrix(2.2640019,0,0,2.2640019,-216.71416,-21.6991)"
     id="g14955"
     style="font-size:16.25px;font-style:normal;font-weight:400;fill:#fefee9;fill-opacity:1;fill-rule:evenodd;stroke:#000000;stroke-width:0.0984252;stroke-linecap:square;stroke-linejoin:bevel;stroke-opacity:1;font-family:Lucida Grande">
    <path
       name="paxton" d="M 488.028,209.632 L 493.697,206.292 L 498.214,204.833 L 506.789,200.053 L 507.254,199.906 L 510.678,199.392 L 511.615,202.09 L 510.554,202.483 L 511.122,204.164 L 509.194,204.934 L 511.722,211.842 L 511.913,211.833 L 514.154,217.907 L 516.665,217.299 L 516.957,217.072 L 517.334,217.296 L 517.207,217.874 L 517.193,218.649 L 516.557,219.243 L 518.29,221.107 L 516.039,222.912 L 515.617,221.765 L 496.45,222.727 L 494.791,212.656 L 489.117,212.827 L 488.028,209.632"
       id="path15493"
       style="fill-rule:evenodd" />
   </g>
</svg>