<svg
   xmlns:svg="http://www.w3.org/2000/svg"
   xmlns="http://www.w3.org/2000/svg"
   version="1.0"
   width="2100"
   height="1300"
   viewBox="0 0 2100 1300"
   id="svg14921">
   <g
     transform="matrix(2.2640019,0,0,2.2640019,-216.71416,-21.6991)"
     id="g14955"
     style="font-size:16.25px;font-style:normal;font-weight:400;fill:#fefee9;fill-opacity:1;fill-rule:evenodd;stroke:#000000;stroke-width:0.0984252;stroke-linecap:square;stroke-linejoin:bevel;stroke-opacity:1;font-family:Lucida Grande">
    <path
       name="peabody" d="M 740.68,125.596 L 740.727,125.653 L 741.558,126.025 L 746.548,128.123 L 756.246,131.184 L 756.318,131.26 L 756.398,131.33 L 756.455,131.362 L 756.513,131.424 L 756.542,131.485 L 756.597,131.523 L 756.664,131.514 L 756.752,131.467 L 756.804,131.427 L 756.851,131.389 L 756.943,131.36 L 757.005,131.347 L 757.078,131.324 L 757.12,131.28 L 757.226,131.154 L 757.355,131.058 L 757.422,131.066 L 757.718,131.164 L 757.793,131.188 L 757.914,131.251 L 758.431,131.517 L 758.518,131.586 L 758.612,131.627 L 758.865,131.656 L 759.26,131.84 L 759.591,131.917 L 759.804,132.01 L 759.978,132.12 L 760.246,132.164 L 760.412,132.274 L 760.492,132.384 L 760.588,132.737 L 760.716,132.935 L 760.834,132.932 L 760.841,132.808 L 760.769,132.704 L 760.753,132.611 L 760.855,132.54 L 761.083,132.537 L 761.154,132.491 L 761.197,132.271 L 763.472,132.978 L 763.575,136.105 L 763.734,136.197 L 763.669,136.322 L 763.649,136.423 L 763.767,137.629 L 763.201,137.391 L 763.155,137.466 L 763.024,137.417 L 762.644,137.971 L 762.762,138.052 L 762.289,138.719 L 762.341,138.759 L 762.352,138.836 L 762.421,138.872 L 762.49,138.902 L 762.55,138.972 L 762.604,138.995 L 762.453,139.513 L 762.165,139.427 L 761.944,140.212 L 755.914,147.317 L 754.319,149.185 L 752.486,148.585 L 750.638,147.352 L 744.861,143.354 L 741.645,140.745 L 740.174,139.565 L 733.392,129.854 L 732.634,124.944 L 733.834,125.031 L 733.96,123.427 L 734.045,123.434 L 734.147,123.456 L 734.256,123.49 L 734.363,123.526 L 734.528,123.545 L 734.66,123.559 L 734.873,123.57 L 735.052,123.56 L 735.17,123.555 L 735.259,123.469 L 735.284,123.395 L 735.344,123.275 L 735.43,123.238 L 735.498,123.237 L 735.577,123.25 L 735.684,123.288 L 735.771,123.328 L 735.874,123.386 L 735.939,123.474 L 735.942,123.562 L 735.961,123.666 L 736.01,123.785 L 736.044,123.834 L 736.101,123.859 L 736.228,123.887 L 736.344,123.915 L 736.437,123.943 L 736.498,123.974 L 736.587,124 L 736.708,124.024 L 736.861,124.044 L 737.013,124.063 L 737.118,124.072 L 737.261,124.078 L 737.405,124.084 L 737.548,124.125 L 737.596,124.188 L 737.635,124.23 L 737.709,124.288 L 737.795,124.358 L 737.875,124.438 L 737.976,124.523 L 738.089,124.598 L 738.19,124.66 L 738.294,124.743 L 738.391,124.801 L 738.508,124.858 L 738.595,124.9 L 738.724,124.979 L 738.847,125.06 L 738.915,125.116 L 739.047,125.16 L 739.089,125.215 L 739.13,125.291 L 739.215,125.367 L 739.31,125.351 L 739.384,125.297 L 739.438,125.257 L 739.508,125.203 L 739.581,125.177 L 739.724,125.126 L 739.983,125.071 L 740.168,125.049 L 740.362,125.024 L 740.514,125.054 L 740.543,125.122 L 740.542,125.203 L 740.542,125.335 L 740.555,125.463 L 740.588,125.557 L 740.68,125.596"
       id="path15237"
       style="fill-rule:evenodd" />
   </g>
</svg>