<svg
   xmlns:svg="http://www.w3.org/2000/svg"
   xmlns="http://www.w3.org/2000/svg"
   version="1.0"
   width="2100"
   height="1300"
   viewBox="0 0 2100 1300"
   id="svg14921">
   <g
     transform="matrix(2.2640019,0,0,2.2640019,-216.71416,-21.6991)"
     id="g14955"
     style="font-size:16.25px;font-style:normal;font-weight:400;fill:#fefee9;fill-opacity:1;fill-rule:evenodd;stroke:#000000;stroke-width:0.0984252;stroke-linecap:square;stroke-linejoin:bevel;stroke-opacity:1;font-family:Lucida Grande">
    <path
       name="pelham" d="M 390.918,173.953 L 390.94,174.071 L 390.947,174.134 L 390.937,174.213 L 390.928,174.272 L 390.906,174.332 L 390.892,174.403 L 390.895,174.486 L 390.913,174.553 L 390.965,174.629 L 391.004,174.675 L 391.044,174.734 L 391.086,174.79 L 391.123,174.848 L 391.208,174.91 L 391.261,174.961 L 391.272,175.028 L 391.24,175.095 L 391.216,175.152 L 391.28,175.188 L 391.349,175.19 L 391.437,175.202 L 391.525,175.231 L 391.6,175.275 L 391.664,175.348 L 391.708,175.409 L 391.752,175.468 L 391.775,175.525 L 391.772,175.608 L 391.746,175.674 L 391.729,175.749 L 391.693,175.837 L 391.657,175.896 L 391.589,175.966 L 391.551,176.013 L 391.503,176.085 L 391.451,176.147 L 391.407,176.227 L 391.352,176.331 L 391.335,176.405 L 391.363,176.491 L 391.418,176.541 L 391.45,176.59 L 391.532,176.655 L 391.574,176.724 L 391.62,176.807 L 391.662,176.864 L 391.724,176.917 L 391.778,176.955 L 391.828,177.006 L 391.887,177.046 L 391.941,177.066 L 392.005,177.129 L 392.059,177.194 L 392.116,177.261 L 392.182,177.307 L 392.231,177.354 L 392.277,177.413 L 392.313,177.49 L 392.323,177.566 L 392.275,177.678 L 392.219,177.736 L 392.136,177.761 L 392.086,177.819 L 392.009,177.862 L 391.923,177.928 L 391.884,178.069 L 391.888,178.141 L 391.936,178.2 L 391.987,178.246 L 392.045,178.303 L 392.107,178.307 L 392.194,178.32 L 392.254,178.346 L 392.292,178.436 L 392.384,178.59 L 392.406,178.688 L 392.448,178.769 L 392.502,178.797 L 392.541,178.84 L 392.595,178.903 L 392.618,178.962 L 392.63,179.045 L 392.686,179.11 L 392.755,179.138 L 392.799,179.203 L 392.798,179.28 L 392.799,179.346 L 392.82,179.419 L 392.852,179.471 L 392.885,179.545 L 393.05,179.831 L 393.104,179.912 L 393.119,179.973 L 393.094,180.05 L 393.031,180.091 L 392.968,180.098 L 392.877,180.133 L 392.792,180.169 L 392.739,180.2 L 392.691,180.247 L 392.643,180.301 L 392.597,180.392 L 392.586,180.45 L 392.575,180.537 L 392.554,180.658 L 392.494,180.746 L 392.438,180.844 L 392.4,180.944 L 392.381,181.014 L 392.412,181.076 L 392.48,181.159 L 392.532,181.232 L 392.523,181.309 L 392.507,181.387 L 392.48,181.456 L 392.46,181.517 L 392.463,181.576 L 392.473,181.635 L 392.517,181.686 L 392.598,181.693 L 392.69,181.692 L 392.736,181.773 L 392.74,181.851 L 392.742,181.964 L 392.712,182.02 L 392.637,182.09 L 392.616,182.181 L 392.6,182.255 L 392.504,182.337 L 392.568,182.422 L 392.627,182.48 L 392.628,182.541 L 392.655,182.614 L 392.694,182.672 L 392.766,182.725 L 392.813,182.763 L 392.827,182.866 L 392.872,182.943 L 392.932,182.983 L 392.873,183.021 L 392.802,183.064 L 392.779,183.158 L 392.814,183.23 L 392.855,183.281 L 392.888,183.358 L 392.899,183.415 L 392.916,183.516 L 392.841,183.543 L 392.752,183.538 L 392.753,183.642 L 392.762,183.704 L 392.805,183.785 L 392.887,183.837 L 392.964,183.843 L 393.026,183.834 L 393.081,183.876 L 393.049,183.948 L 393.029,184.033 L 393.01,184.109 L 393.029,184.174 L 393.086,184.189 L 393.168,184.209 L 393.274,184.224 L 393.339,184.274 L 393.334,184.346 L 393.294,184.419 L 393.246,184.509 L 393.212,184.595 L 393.196,184.654 L 393.191,184.767 L 393.192,184.892 L 393.208,184.989 L 393.251,185.035 L 393.349,185.099 L 393.408,185.123 L 393.472,185.157 L 393.57,185.195 L 393.639,185.211 L 393.681,185.294 L 393.712,185.37 L 393.745,185.417 L 393.767,185.516 L 393.778,185.604 L 393.75,185.714 L 393.674,185.793 L 393.627,185.835 L 393.536,185.894 L 393.474,185.942 L 393.401,185.981 L 393.311,186.028 L 393.06,186.124 L 392.975,186.161 L 392.918,186.237 L 392.911,186.302 L 392.931,186.471 L 393.115,186.796 L 393.221,186.992 L 393.311,187.116 L 393.401,187.176 L 393.454,187.202 L 393.515,187.214 L 393.585,187.235 L 393.683,187.261 L 393.767,187.317 L 393.754,187.386 L 393.691,187.434 L 393.626,187.465 L 393.567,187.471 L 393.508,187.474 L 393.449,187.458 L 393.385,187.402 L 393.31,187.404 L 393.224,187.405 L 393.147,187.446 L 393.07,187.518 L 393.02,187.6 L 393.003,187.706 L 393.01,187.775 L 393.011,187.842 L 393.023,187.989 L 393.022,188.143 L 393.039,188.328 L 393.052,188.397 L 393.077,188.462 L 393.097,188.535 L 393.126,188.61 L 393.156,188.661 L 393.228,188.731 L 393.316,188.759 L 393.4,188.76 L 393.456,188.713 L 393.531,188.658 L 393.561,188.608 L 393.544,188.531 L 393.516,188.464 L 393.558,188.399 L 393.626,188.417 L 393.669,188.471 L 393.729,188.509 L 393.721,188.573 L 393.694,188.646 L 393.685,188.754 L 393.688,188.815 L 393.699,188.878 L 393.708,188.949 L 393.754,189.073 L 393.761,189.162 L 393.741,189.235 L 393.664,189.259 L 393.591,189.255 L 393.582,189.324 L 393.673,189.393 L 393.704,189.454 L 393.642,189.551 L 393.59,189.66 L 393.646,189.699 L 393.666,189.758 L 393.683,189.862 L 393.681,189.961 L 393.669,190.077 L 393.663,190.14 L 393.66,190.201 L 393.684,190.262 L 393.712,190.349 L 393.768,190.456 L 393.858,190.585 L 393.898,190.652 L 393.93,190.702 L 393.967,190.753 L 394.04,190.823 L 394.114,190.877 L 394.172,190.911 L 394.258,190.931 L 394.335,190.973 L 394.308,191.038 L 394.392,191.055 L 394.461,191.043 L 394.487,191.105 L 394.499,191.17 L 394.47,191.256 L 394.532,191.314 L 394.53,191.373 L 394.465,191.38 L 394.384,191.411 L 394.402,191.506 L 394.454,191.583 L 394.468,191.687 L 394.458,191.786 L 394.466,191.883 L 394.529,191.946 L 394.623,192.008 L 394.704,192.075 L 394.777,192.149 L 394.835,192.234 L 394.902,192.348 L 394.988,192.434 L 395.033,192.485 L 395.156,192.571 L 395.233,192.589 L 395.339,192.594 L 395.42,192.614 L 395.497,192.639 L 395.581,192.675 L 395.555,192.755 L 395.479,192.843 L 395.399,192.935 L 395.378,193.063 L 395.37,193.133 L 395.332,193.188 L 395.258,193.229 L 395.183,193.24 L 395.123,193.184 L 395.056,193.16 L 394.995,193.223 L 394.941,193.281 L 394.92,193.348 L 394.884,193.425 L 394.827,193.461 L 394.834,193.56 L 394.89,193.635 L 394.974,193.693 L 395.044,193.754 L 395.065,193.845 L 395.101,193.914 L 395.106,193.993 L 395.076,194.07 L 395.052,194.128 L 395.094,194.253 L 395.15,194.338 L 395.179,194.415 L 395.2,194.494 L 395.205,194.557 L 395.204,194.631 L 395.208,194.708 L 395.197,194.777 L 395.206,194.834 L 395.239,194.884 L 395.291,194.948 L 395.334,195.017 L 395.311,195.103 L 395.301,195.198 L 395.31,195.273 L 395.289,195.347 L 395.244,195.388 L 395.17,195.462 L 395.132,195.513 L 395.096,195.575 L 395.097,195.678 L 395.101,195.745 L 395.041,195.838 L 395.015,195.891 L 394.934,195.95 L 394.878,196.045 L 394.887,196.144 L 394.904,196.214 L 394.944,196.299 L 394.934,196.358 L 394.878,196.409 L 394.921,196.478 L 394.996,196.522 L 395.036,196.599 L 395.032,196.675 L 395.091,196.69 L 395.177,196.681 L 395.179,196.742 L 395.22,196.793 L 395.282,196.817 L 395.327,196.875 L 395.283,196.935 L 395.212,196.984 L 395.249,197.029 L 395.31,197.081 L 395.265,197.275 L 395.194,197.282 L 395.131,197.288 L 395.136,197.384 L 395.146,197.518 L 395.175,197.599 L 395.202,197.679 L 395.328,197.716 L 395.384,197.746 L 395.443,197.817 L 395.456,197.888 L 395.381,197.909 L 395.427,198.032 L 395.505,198.127 L 395.49,198.199 L 395.427,198.234 L 395.307,198.245 L 395.246,198.248 L 395.149,198.273 L 395.05,198.323 L 395.004,198.376 L 394.937,198.379 L 394.855,198.347 L 394.794,198.362 L 394.75,198.423 L 394.72,198.48 L 394.723,198.543 L 394.778,198.565 L 394.843,198.534 L 394.916,198.515 L 394.995,198.508 L 395.042,198.561 L 395.069,198.662 L 395.084,198.737 L 395.028,198.779 L 394.964,198.738 L 394.914,198.69 L 394.867,198.756 L 394.848,198.845 L 394.873,198.926 L 394.924,198.971 L 394.987,198.992 L 395.069,198.998 L 395.092,199.071 L 395.032,199.126 L 394.991,199.177 L 394.941,199.212 L 394.878,199.26 L 394.845,199.335 L 394.864,199.439 L 394.889,199.503 L 394.938,199.554 L 394.964,199.621 L 394.974,199.694 L 394.934,199.739 L 394.832,199.709 L 394.795,199.63 L 394.708,199.658 L 394.69,199.731 L 394.713,199.796 L 394.74,199.875 L 394.831,199.955 L 394.993,200.09 L 395.046,200.115 L 395.103,200.17 L 395.119,200.245 L 395.182,200.287 L 395.25,200.337 L 395.287,200.41 L 395.332,200.458 L 395.389,200.478 L 395.459,200.496 L 395.482,200.552 L 395.44,200.62 L 395.45,200.685 L 395.523,200.672 L 395.582,200.606 L 395.63,200.559 L 395.738,200.613 L 395.781,200.655 L 395.829,200.716 L 395.844,200.805 L 395.84,200.868 L 395.77,200.895 L 395.714,200.839 L 395.642,200.884 L 395.561,200.922 L 395.513,200.993 L 395.552,201.048 L 395.639,201.083 L 395.746,201.123 L 395.759,201.202 L 395.727,201.268 L 395.687,201.311 L 395.687,201.396 L 395.73,201.446 L 395.735,201.504 L 395.74,201.568 L 390.846,201.536 L 389.375,201.512 L 385.993,201.94 L 386.023,202.344 L 382.986,202.853 L 382.035,195.196 L 365.962,197.512 L 364.833,189.387 L 363.275,178.234 L 390.918,173.953"
       id="path15407"
       style="fill-rule:evenodd" />
   </g>
</svg>