<svg
   xmlns:svg="http://www.w3.org/2000/svg"
   xmlns="http://www.w3.org/2000/svg"
   version="1.0"
   width="2100"
   height="1300"
   viewBox="0 0 2100 1300"
   id="svg14921">
   <g
     transform="matrix(2.2640019,0,0,2.2640019,-216.71416,-21.6991)"
     id="g14955"
     style="font-size:16.25px;font-style:normal;font-weight:400;fill:#fefee9;fill-opacity:1;fill-rule:evenodd;stroke:#000000;stroke-width:0.0984252;stroke-linecap:square;stroke-linejoin:bevel;stroke-opacity:1;font-family:Lucida Grande">
    <path
       name="philipston" d="M 451.756,104.515 L 451.81,104.591 L 451.829,104.677 L 451.84,104.746 L 451.904,104.834 L 451.935,104.883 L 451.982,104.945 L 452.034,104.981 L 452.148,104.982 L 452.211,105.006 L 452.242,105.093 L 452.223,105.17 L 452.211,105.242 L 452.238,105.308 L 452.279,105.361 L 452.331,105.437 L 452.312,105.517 L 452.355,105.559 L 452.442,105.54 L 452.445,105.619 L 452.498,105.663 L 452.515,105.728 L 452.573,105.796 L 452.533,105.908 L 452.485,105.994 L 452.452,106.07 L 452.444,106.127 L 452.437,106.218 L 452.515,106.268 L 452.56,106.315 L 452.595,106.369 L 452.628,106.429 L 452.684,106.449 L 452.743,106.451 L 452.822,106.468 L 452.829,106.529 L 452.836,106.586 L 452.863,106.641 L 452.912,106.707 L 452.909,106.77 L 452.918,106.827 L 452.888,106.907 L 452.965,106.894 L 453.007,106.978 L 453.072,107.023 L 453.118,107.087 L 453.157,107.134 L 453.22,107.125 L 453.274,107.092 L 453.326,107.014 L 453.366,107.058 L 453.403,107.111 L 453.452,107.147 L 453.463,107.224 L 453.445,107.297 L 453.515,107.349 L 453.563,107.408 L 453.604,107.458 L 453.584,107.523 L 453.534,107.579 L 453.567,107.64 L 453.546,107.719 L 453.579,107.78 L 453.661,107.81 L 453.732,107.796 L 453.799,107.796 L 453.834,107.871 L 453.89,107.941 L 453.927,108.016 L 453.975,108.089 L 453.998,108.158 L 454.049,108.186 L 454.084,108.24 L 454.118,108.358 L 454.137,108.415 L 454.166,108.473 L 454.224,108.526 L 454.297,108.555 L 454.364,108.583 L 454.41,108.64 L 454.466,108.718 L 454.541,108.756 L 454.645,108.77 L 454.72,108.773 L 454.804,108.79 L 454.892,108.816 L 454.993,108.801 L 455.074,108.785 L 455.16,108.795 L 455.256,108.845 L 455.328,108.915 L 455.351,108.992 L 455.379,110.006 L 455.378,110.158 L 456.074,120.232 L 455.299,120.844 L 454.682,121.312 L 455.287,122.352 L 462.618,135.066 L 463.735,138.839 L 463.748,138.924 L 463.767,139.042 L 463.738,139.112 L 463.71,139.187 L 463.676,139.25 L 463.644,139.299 L 463.59,139.393 L 463.552,139.507 L 463.53,139.564 L 463.522,139.648 L 463.569,139.735 L 463.539,139.806 L 463.476,139.851 L 463.42,139.933 L 463.39,139.99 L 463.467,140.047 L 463.539,140.117 L 463.61,140.144 L 463.684,140.206 L 463.68,140.3 L 463.632,140.363 L 463.551,140.433 L 463.47,140.513 L 463.456,140.58 L 463.446,140.655 L 463.453,140.767 L 463.453,140.838 L 463.478,140.913 L 463.539,140.959 L 463.603,141.024 L 463.646,141.079 L 463.656,141.144 L 463.634,141.213 L 463.612,141.268 L 463.606,141.327 L 463.611,141.415 L 463.668,141.486 L 463.734,141.526 L 463.789,141.599 L 463.842,141.662 L 463.92,141.726 L 464.022,141.787 L 464.136,141.837 L 464.189,141.863 L 464.271,141.915 L 464.312,142.009 L 464.32,142.07 L 464.378,142.177 L 464.448,142.28 L 464.552,142.4 L 464.622,142.47 L 464.685,142.523 L 464.724,142.582 L 464.763,142.642 L 464.774,142.724 L 464.784,142.803 L 464.809,142.919 L 465.005,143.07 L 465.063,143.129 L 465.106,143.202 L 465.141,143.267 L 465.163,143.35 L 465.192,143.456 L 465.216,143.561 L 465.261,143.652 L 465.3,143.723 L 465.329,143.78 L 465.343,143.847 L 465.344,143.908 L 465.342,143.977 L 465.346,144.085 L 465.386,144.138 L 465.471,144.223 L 465.501,144.361 L 465.498,144.544 L 465.523,144.77 L 465.53,144.849 L 465.502,144.947 L 465.482,145.028 L 465.418,145.144 L 465.355,145.247 L 465.25,145.444 L 465.21,145.54 L 465.198,145.606 L 465.213,145.677 L 465.244,145.748 L 465.322,145.796 L 465.417,145.822 L 465.493,145.823 L 465.566,145.857 L 465.64,146.034 L 465.72,146.194 L 465.782,146.334 L 465.805,146.454 L 465.83,146.606 L 465.847,146.724 L 465.836,146.852 L 465.849,146.932 L 465.841,146.989 L 465.815,147.056 L 465.785,147.115 L 465.777,147.211 L 465.802,147.323 L 465.989,147.446 L 466.112,147.526 L 466.202,147.562 L 466.254,147.59 L 466.317,147.672 L 466.214,147.738 L 466.088,147.753 L 465.975,147.752 L 465.93,147.794 L 466.006,147.943 L 466.02,148.182 L 466.01,148.363 L 466.012,148.444 L 465.997,148.527 L 465.961,148.61 L 465.928,148.675 L 465.919,148.819 L 461.422,152.603 L 461.084,152.893 L 455.832,147.197 L 455.108,146.455 L 439.677,129.791 L 442.33,116.22 L 444.329,117.935 L 445.492,116.573 L 444.899,116.083 L 445.732,114.903 L 446.067,114.477 L 446.221,114.233 L 446.256,114.097 L 446.276,114.041 L 446.303,113.933 L 446.355,113.845 L 446.413,113.767 L 447.047,112.934 L 446.9,112.693 L 446.582,112.944 L 445.996,112.373 L 445.396,113.32 L 444.301,112.676 L 443.562,113.749 L 446.811,106.84 L 446.923,106.67 L 447.004,106.586 L 447.683,105.811 L 447.717,105.731 L 447.73,105.644 L 447.745,105.542 L 447.75,105.455 L 447.757,105.361 L 447.758,105.227 L 447.755,105.166 L 447.748,105.077 L 447.727,104.994 L 447.75,104.884 L 447.781,104.786 L 447.793,104.723 L 447.804,104.64 L 447.791,104.527 L 447.872,104.523 L 450.938,104.624 L 451.756,104.515"
       id="path15189"
       style="fill-rule:evenodd" />
   </g>
</svg>