<svg
   xmlns:svg="http://www.w3.org/2000/svg"
   xmlns="http://www.w3.org/2000/svg"
   version="1.0"
   width="2100"
   height="1300"
   viewBox="0 0 2100 1300"
   id="svg14921">
   <g
     transform="matrix(2.2640019,0,0,2.2640019,-216.71416,-21.6991)"
     id="g14955"
     style="font-size:16.25px;font-style:normal;font-weight:400;fill:#fefee9;fill-opacity:1;fill-rule:evenodd;stroke:#000000;stroke-width:0.0984252;stroke-linecap:square;stroke-linejoin:bevel;stroke-opacity:1;font-family:Lucida Grande">
    <path
       name="plympton" d="M 794.062,314.51 L 794.954,317.354 L 795.372,319.145 L 796.301,323.174 L 797.202,326.606 L 802.851,330.493 L 804.725,337.128 L 801.302,337.646 L 786.422,344.154 L 782.368,338.98 L 778.45,334.79 L 777.874,334.173 L 788.09,324.571 L 789.141,320.348 L 789.913,319.189 L 792.218,315.698 L 792.198,315.622 L 792.152,315.555 L 792.012,315.439 L 791.916,315.341 L 791.866,315.28 L 791.847,315.196 L 791.865,315.131 L 791.921,315.055 L 791.981,314.966 L 792.015,314.892 L 792.019,314.801 L 794.062,314.51"
       id="path15843"
       style="fill-rule:evenodd" />
   </g>
</svg>