<svg
   xmlns:svg="http://www.w3.org/2000/svg"
   xmlns="http://www.w3.org/2000/svg"
   version="1.0"
   width="2100"
   height="1300"
   viewBox="0 0 2100 1300"
   id="svg14921">
   <g
     transform="matrix(2.2640019,0,0,2.2640019,-216.71416,-21.6991)"
     id="g14955"
     style="font-size:16.25px;font-style:normal;font-weight:400;fill:#fefee9;fill-opacity:1;fill-rule:evenodd;stroke:#000000;stroke-width:0.0984252;stroke-linecap:square;stroke-linejoin:bevel;stroke-opacity:1;font-family:Lucida Grande">
    <path
       name="princeton" d="M 527.066,142.584 L 526.987,143.287 L 532.094,146.193 L 531.429,147.629 L 530.144,150.369 L 528.726,153.361 L 530.723,157.319 L 530.72,157.403 L 530.723,157.518 L 530.735,157.626 L 530.762,157.703 L 530.743,157.837 L 530.711,157.888 L 530.659,157.946 L 530.629,158.044 L 530.646,158.131 L 530.647,158.202 L 530.644,158.328 L 530.678,158.44 L 530.71,158.553 L 530.735,158.646 L 530.756,158.721 L 530.751,158.791 L 530.715,158.893 L 530.694,158.98 L 530.666,159.046 L 530.654,159.103 L 530.652,159.227 L 530.673,159.302 L 530.69,159.366 L 530.725,159.435 L 530.779,159.516 L 530.794,159.593 L 530.806,159.65 L 530.846,159.709 L 530.875,159.81 L 530.874,159.879 L 530.871,159.938 L 530.87,160.036 L 530.932,160.127 L 531,160.209 L 531.053,160.245 L 531.133,160.289 L 531.192,160.346 L 531.246,160.404 L 531.269,160.487 L 531.318,160.546 L 531.34,160.637 L 531.42,160.689 L 531.475,160.709 L 531.554,160.744 L 531.606,160.805 L 531.643,160.876 L 531.66,160.949 L 531.712,161.023 L 531.727,161.113 L 531.716,161.178 L 531.72,161.259 L 531.699,161.324 L 531.754,161.405 L 531.858,161.534 L 531.95,161.639 L 531.984,161.708 L 532.019,161.791 L 532.068,161.857 L 532.104,161.918 L 532.143,162.011 L 532.144,162.078 L 532.137,162.146 L 532.137,162.206 L 532.136,162.265 L 532.136,162.324 L 532.141,162.404 L 532.15,162.511 L 532.146,162.629 L 532.173,162.733 L 532.2,162.807 L 532.238,162.903 L 532.251,162.972 L 532.247,163.047 L 532.234,163.11 L 532.22,163.167 L 532.189,163.249 L 532.179,163.322 L 532.174,163.387 L 532.193,163.458 L 532.22,163.509 L 532.255,163.6 L 532.333,163.682 L 532.401,163.763 L 532.428,163.828 L 532.504,163.876 L 532.546,163.943 L 532.579,164.03 L 532.6,164.107 L 532.629,164.182 L 532.639,164.285 L 532.637,164.36 L 532.606,164.452 L 532.535,164.512 L 532.46,164.563 L 532.414,164.615 L 532.384,164.707 L 532.383,164.782 L 532.495,164.821 L 532.609,164.83 L 532.707,164.834 L 532.764,164.853 L 532.836,164.92 L 532.88,165.025 L 532.885,165.094 L 532.888,165.169 L 532.876,165.238 L 532.83,165.332 L 532.792,165.383 L 532.801,165.485 L 532.831,165.552 L 532.882,165.625 L 532.905,165.689 L 532.939,165.777 L 532.97,165.89 L 533.008,165.955 L 533.057,166.023 L 533.145,166.073 L 533.2,166.097 L 533.3,166.127 L 533.396,166.148 L 533.463,166.164 L 533.519,166.19 L 533.582,166.226 L 533.642,166.26 L 533.687,166.298 L 533.762,166.332 L 533.832,166.353 L 533.931,166.336 L 534.009,166.333 L 534.096,166.32 L 534.165,166.323 L 534.224,166.319 L 534.308,166.348 L 534.349,166.411 L 534.381,166.484 L 534.349,166.564 L 534.302,166.621 L 534.289,166.717 L 534.276,166.79 L 534.222,166.88 L 529.55,171.055 L 518.673,180.774 L 515.256,183.767 L 495.544,165.904 L 507.107,156.345 L 503.805,153.439 L 507.23,150.522 L 509.812,152.94 L 515.347,147.595 L 518.822,144.252 L 521.347,141.799 L 522.236,141.975 L 523.314,141.045 L 525.249,141.453 L 525.715,142.559 L 525.829,142.569 L 525.927,142.563 L 526.341,142.655 L 527.066,142.584"
       id="path15301"
       style="fill-rule:evenodd" />
   </g>
</svg>