<svg
   xmlns:svg="http://www.w3.org/2000/svg"
   xmlns="http://www.w3.org/2000/svg"
   version="1.0"
   width="2100"
   height="1300"
   viewBox="0 0 2100 1300"
   id="svg14921">
   <g
     transform="matrix(2.2640019,0,0,2.2640019,-216.71416,-21.6991)"
     id="g14955"
     style="font-size:16.25px;font-style:normal;font-weight:400;fill:#fefee9;fill-opacity:1;fill-rule:evenodd;stroke:#000000;stroke-width:0.0984252;stroke-linecap:square;stroke-linejoin:bevel;stroke-opacity:1;font-family:Lucida Grande">
    <path
       name="quincy" d="M 752.269,207.25 L 752.169,207.511 L 752.099,207.708 L 752.052,207.75 L 751.944,208.113 L 751.259,209.281 L 750.958,210.143 L 750.818,210.46 L 750.54,211.318 L 750.415,211.446 L 750.085,211.496 L 749.88,211.561 L 749.575,211.79 L 749.404,212.201 L 749.334,212.272 L 748.573,212.648 L 748.313,212.711 L 747.959,212.731 L 747.817,212.676 L 747.847,212.551 L 748.263,212.288 L 748.561,212.065 L 748.803,211.81 L 749.115,211.32 L 749.146,211.241 L 749.161,211.154 L 749.262,210.98 L 749.394,210.626 L 749.72,209.971 L 749.871,208.977 L 749.91,208.874 L 749.941,208.771 L 749.979,208.605 L 750.034,208.557 L 750.057,208.488 L 750.104,208.447 L 750.111,208.384 L 750.768,207.679 L 750.767,207.515 L 751.269,207.202 L 751.864,206.741 L 752.122,206.489 L 752.271,206.292 L 752.309,206.164 L 752.449,205.803 L 752.589,205.69 L 752.731,205.627 L 753.062,205.602 L 753.282,205.645 L 753.511,205.731 L 753.583,205.81 L 753.592,205.99 L 753.545,206.068 L 753.435,206.174 L 753.185,206.333 L 753.075,206.436 L 752.855,206.563 L 752.715,206.769 L 752.48,206.984 L 752.269,207.25"
       id="path15515"
       style="fill-rule:evenodd" />
    <path
       name="quincy" d="M 745.411,209.692 L 745.348,209.691 L 745.229,209.592 L 745.166,209.498 L 745.039,209.427 L 744.972,208.719 L 745.04,208.323 L 744.921,208.23 L 744.842,208.127 L 744.887,207.925 L 744.848,207.87 L 744.674,207.729 L 744.532,207.665 L 744.389,207.517 L 744.167,207.332 L 744.166,207.149 L 744.298,206.937 L 744.565,206.731 L 744.824,206.624 L 745.138,206.559 L 745.508,206.551 L 745.816,206.619 L 745.998,206.688 L 746.109,206.781 L 746.101,206.878 L 745.882,207.052 L 745.851,207.139 L 745.789,207.358 L 745.776,207.681 L 745.715,208.027 L 745.748,208.234 L 745.956,208.767 L 745.957,208.845 L 745.653,209.437 L 745.521,209.627 L 745.411,209.692"
       id="path15521"
       style="fill-rule:evenodd" />
    <path
       name="quincy" d="M 757.17,207.636 L 757.043,207.541 L 756.884,207.362 L 756.741,207.159 L 756.693,207.008 L 756.739,206.867 L 756.841,206.74 L 756.919,206.707 L 757.187,206.705 L 758.016,207.016 L 758.631,207.075 L 758.796,207.145 L 758.9,207.284 L 757.978,207.308 L 757.758,207.38 L 757.445,207.64 L 757.32,207.675 L 757.17,207.636"
       id="path15523"
       style="fill-rule:evenodd" />
    <path
       name="quincy" d="M 760.203,210.214 L 760.1,210.183 L 759.837,209.744 L 759.734,209.62 L 759.608,209.62 L 759.592,209.54 L 759.638,209.415 L 759.643,208.981 L 759.642,208.76 L 759.673,208.691 L 759.814,208.619 L 760.153,208.578 L 760.61,208.747 L 760.737,208.84 L 760.841,209.051 L 760.899,209.492 L 760.861,209.785 L 760.822,209.895 L 760.698,210.053 L 760.509,210.062 L 760.297,210.189 L 760.203,210.214"
       id="path15527"
       style="fill-rule:evenodd" />
    <path
       name="quincy" d="M 742.107,209.416 L 742.198,209.706 L 742.044,209.729 L 741.847,209.567 L 741.689,209.513 L 741.484,209.503 L 741.232,209.57 L 741.068,209.664 L 740.708,210.069 L 740.536,210.424 L 740.38,210.59 L 740.262,210.795 L 740.255,210.857 L 740.216,210.93 L 739.959,211.598 L 739.866,211.79 L 739.287,212.588 L 739.17,212.768 L 739.023,213.241 L 738.968,213.289 L 738.897,213.226 L 738.833,213.076 L 738.69,212.897 L 738.501,212.772 L 738.312,212.772 L 738.163,212.845 L 738.289,212.946 L 738.478,212.969 L 738.471,213.04 L 738.219,213.041 L 737.982,212.915 L 737.839,212.727 L 737.76,212.587 L 737.759,212.525 L 737.688,212.4 L 737.56,211.982 L 737.575,211.77 L 737.668,211.579 L 737.778,211.461 L 738.869,210.849 L 739.175,210.61 L 739.37,210.334 L 739.495,210.067 L 739.541,209.902 L 739.854,209.505 L 740.238,209.196 L 740.474,209.068 L 741.056,208.97 L 742.029,209.105 L 742.077,209.186 L 742.117,209.241 L 742.107,209.416"
       id="path15529"
       style="fill-rule:evenodd" />
    <path
       name="quincy" d="M 753.48,212.875 L 753.401,212.874 L 753.322,212.811 L 753.242,212.625 L 753.036,212.482 L 752.887,212.539 L 752.722,212.668 L 752.667,212.564 L 752.854,212.341 L 753.263,212.286 L 753.562,212.15 L 753.961,211.744 L 754.094,211.672 L 754.417,211.74 L 754.837,212.063 L 754.845,212.134 L 754.759,212.189 L 754.318,212.261 L 754.201,212.333 L 754.099,212.453 L 754.02,212.453 L 753.941,212.384 L 753.948,212.318 L 753.876,212.153 L 753.751,212.172 L 753.5,212.425 L 753.556,212.519 L 753.58,212.615 L 753.566,212.779 L 753.48,212.875"
       id="path15533"
       style="fill-rule:evenodd" />
    <path
       name="quincy" d="M 742.682,228.158 L 742.784,228.075 L 743.053,228.172 L 743.202,228.171 L 743.343,228.092 L 743.721,227.988 L 744.067,227.962 L 744.177,227.999 L 744.344,228.125 L 744.502,228.204 L 744.596,228.226 L 744.628,228.281 L 745.118,228.53 L 745.3,228.71 L 745.427,228.803 L 745.483,228.882 L 745.632,228.819 L 745.733,228.645 L 746.085,228.365 L 746.557,228.245 L 746.762,228.227 L 746.951,228.327 L 747.18,228.388 L 747.417,228.521 L 747.52,228.633 L 747.663,228.703 L 748.009,228.745 L 748.238,228.832 L 748.569,228.899 L 749.01,228.803 L 749.166,228.677 L 749.439,228.287 L 749.846,227.844 L 750.277,227.574 L 750.567,227.296 L 750.888,227.066 L 751.375,226.835 L 751.453,226.777 L 752.019,226.633 L 752.67,226.307 L 753.095,226.207 L 753.181,226.161 L 753.745,225.645 L 753.846,225.509 L 753.916,225.352 L 753.939,225.156 L 753.922,225.091 L 753.731,224.69 L 753.634,224.305 L 753.409,223.583 L 753.194,223.286 L 753.201,223.214 L 753.366,223.079 L 753.633,223.015 L 753.759,223.036 L 753.815,223.1 L 753.872,223.359 L 754.001,223.823 L 754.128,224.089 L 754.327,224.335 L 754.556,224.433 L 754.683,224.56 L 754.81,224.748 L 754.818,224.826 L 754.866,224.874 L 754.898,224.975 L 754.939,225.235 L 754.909,225.384 L 754.676,225.881 L 754.623,226.205 L 754.624,226.379 L 754.631,227.393 L 754.57,227.835 L 754.416,228.246 L 754.353,228.301 L 754.245,228.561 L 754.208,228.956 L 754.169,229.091 L 754.193,229.171 L 754.471,229.491 L 754.519,229.623 L 754.497,229.788 L 754.434,229.846 L 754.261,229.885 L 753.818,229.613 L 753.597,229.536 L 753.314,229.507 L 752.911,229.326 L 752.674,229.259 L 752.399,229.298 L 752.249,229.213 L 751.943,229.491 L 751.741,229.801 L 751.678,229.831 L 751.19,229.827 L 751.041,229.9 L 750.395,229.959 L 750.112,229.93 L 749.913,229.719 L 749.724,229.681 L 749.748,229.767 L 749.978,230.024 L 750.373,230.124 L 750.61,230.226 L 750.64,230.116 L 750.743,230.091 L 750.869,230.143 L 751.059,230.324 L 751.122,230.356 L 751.115,230.449 L 751.037,230.514 L 750.613,230.712 L 750.605,230.778 L 750.771,230.813 L 751.134,230.954 L 751.441,230.921 L 751.56,231.084 L 751.742,231.25 L 751.893,231.357 L 752.153,231.42 L 752.263,231.371 L 752.365,231.269 L 752.648,231.173 L 752.766,231.288 L 752.949,231.534 L 753.061,231.785 L 753.062,231.933 L 753,232.028 L 752.623,232.204 L 752.466,232.37 L 752.1,233.026 L 752.11,233.27 L 752.048,233.412 L 752.05,233.739 L 751.988,233.812 L 751.752,233.94 L 751.533,234.104 L 751.47,234.106 L 751.232,233.887 L 750.711,233.654 L 750.538,233.656 L 750.497,233.423 L 750.426,233.37 L 750.111,233.394 L 749.898,233.317 L 749.787,233.24 L 749.723,233.065 L 749.754,232.965 L 749.863,232.853 L 750.359,232.826 L 750.43,232.793 L 750.461,232.73 L 750.452,232.628 L 750.159,232.323 L 750.158,232.19 L 750.361,231.864 L 750.368,231.771 L 749.965,231.591 L 749.672,231.333 L 749.19,231.077 L 749.064,231.077 L 748.718,231.184 L 748.34,231.192 L 748.222,231.13 L 747.755,230.787 L 747.629,230.757 L 747.565,230.678 L 747.391,230.578 L 746.793,230.605 L 746.501,230.545 L 746.422,230.504 L 746.328,230.6 L 746.313,230.662 L 746.4,230.725 L 746.332,231.065 L 746.213,231.09 L 746.166,230.986 L 746.103,230.979 L 746.064,231.027 L 746.048,231.114 L 746.319,231.506 L 746.036,231.688 L 745.942,231.712 L 745.625,231.399 L 745.57,231.426 L 745.563,231.494 L 745.65,231.643 L 745.659,231.77 L 745.62,231.843 L 745.51,231.874 L 745.487,231.983 L 745.259,232.024 L 745.07,231.971 L 744.88,231.846 L 744.675,231.768 L 744.242,231.756 L 744.043,231.576 L 744.208,231.503 L 744.208,231.419 L 743.98,231.42 L 743.869,231.318 L 743.75,231.327 L 743.712,231.412 L 743.862,231.523 L 743.911,231.689 L 744.267,231.976 L 744.346,232.101 L 744.433,232.141 L 744.63,232.117 L 744.701,232.186 L 744.704,232.611 L 744.791,232.643 L 744.83,232.595 L 744.821,232.381 L 744.851,232.303 L 745.025,232.279 L 745.253,232.341 L 745.332,232.388 L 745.727,232.454 L 745.86,232.416 L 746.105,232.483 L 746.357,232.491 L 746.42,232.56 L 746.509,232.837 L 746.611,232.818 L 746.65,232.734 L 746.736,232.669 L 747.137,232.549 L 747.45,232.387 L 747.773,232.372 L 747.955,232.441 L 748.002,232.501 L 747.981,232.865 L 748.005,232.96 L 748.235,233.155 L 748.354,233.328 L 748.481,233.436 L 748.553,233.525 L 748.601,233.732 L 748.603,233.958 L 748.706,234.141 L 748.785,234.179 L 748.919,234.147 L 748.951,234.264 L 749.937,234.548 L 750.039,234.452 L 750.094,234.398 L 750.1,234.224 L 750.124,234.161 L 750.25,234.145 L 750.297,234.097 L 750.367,234.089 L 750.652,234.236 L 750.598,234.417 L 750.614,234.522 L 750.537,234.67 L 750.403,234.718 L 750.333,234.806 L 750.216,235.083 L 750.169,235.121 L 750.132,235.389 L 750.062,235.447 L 749.299,235.609 L 749.081,236.003 L 749.027,236.179 L 749.83,236.164 L 749.839,236.338 L 749.637,236.694 L 749.495,236.701 L 749.274,236.633 L 748.927,236.579 L 748.888,236.657 L 748.898,236.896 L 749.095,236.933 L 749.158,236.962 L 749.45,237.031 L 749.537,237.088 L 749.545,237.15 L 749.475,237.291 L 749.183,237.231 L 748.9,237.218 L 748.53,237.189 L 748.469,237.575 L 748.47,237.734 L 748.398,237.707 L 748.307,237.681 L 748.258,237.649 L 748.215,237.596 L 748.166,237.543 L 748.107,237.509 L 748.052,237.478 L 747.995,237.46 L 747.934,237.456 L 747.84,237.471 L 747.759,237.507 L 747.69,237.546 L 747.613,237.626 L 747.566,237.701 L 747.508,237.829 L 747.469,237.905 L 747.417,237.968 L 747.348,238.031 L 747.272,238.127 L 747.232,238.208 L 747.2,238.316 L 747.179,238.403 L 747.167,238.485 L 747.103,238.526 L 747.037,238.416 L 746.943,238.372 L 742.225,239.475 L 741.528,239.602 L 739.301,240.87 L 733.644,241.181 L 730.631,245.461 L 730.624,248.558 L 730.544,248.61 L 730.481,248.622 L 730.408,248.631 L 730.335,248.632 L 730.25,248.603 L 730.16,248.598 L 730.093,248.591 L 730.026,248.569 L 729.935,248.602 L 729.859,248.616 L 729.786,248.58 L 729.716,248.529 L 729.606,248.515 L 729.54,248.523 L 729.456,248.512 L 729.358,248.55 L 729.28,248.577 L 729.219,248.581 L 729.119,248.614 L 729.019,248.638 L 728.956,248.647 L 728.885,248.652 L 728.821,248.682 L 728.766,248.72 L 728.674,248.764 L 728.578,248.773 L 728.513,248.76 L 728.409,248.747 L 728.265,248.76 L 728.139,248.742 L 727.994,248.753 L 727.874,248.768 L 727.736,248.773 L 727.613,248.775 L 727.54,248.765 L 727.464,248.727 L 727.375,248.61 L 727.313,248.561 L 727.238,248.52 L 727.157,248.488 L 727.059,248.477 L 726.9,248.494 L 726.837,248.503 L 726.78,248.491 L 726.715,248.472 L 726.659,248.453 L 726.555,248.456 L 726.498,248.486 L 726.399,248.574 L 726.339,248.641 L 726.257,248.697 L 726.144,248.704 L 726.04,248.711 L 725.915,248.754 L 725.84,248.786 L 725.681,248.829 L 725.499,248.888 L 725.299,248.984 L 725.115,249.037 L 724.936,249.082 L 724.738,249.133 L 724.595,249.172 L 724.475,249.205 L 724.401,249.239 L 724.326,249.259 L 724.263,249.26 L 724.11,249.332 L 724.05,249.366 L 723.96,249.395 L 723.875,249.413 L 723.808,249.412 L 723.702,249.462 L 723.654,249.502 L 723.603,249.557 L 723.586,249.613 L 723.494,249.706 L 723.416,249.709 L 723.348,249.678 L 723.27,249.687 L 723.179,249.623 L 723.072,249.588 L 723.009,249.589 L 722.932,249.556 L 722.89,249.492 L 722.864,249.415 L 722.787,249.44 L 722.667,249.482 L 722.588,249.406 L 722.56,249.345 L 722.516,249.283 L 722.449,249.248 L 722.371,249.221 L 722.302,249.198 L 722.245,249.171 L 722.143,249.192 L 722.086,249.216 L 722.021,249.234 L 721.954,249.251 L 721.883,249.243 L 721.798,249.201 L 721.727,249.178 L 721.636,249.161 L 721.556,249.152 L 721.457,249.163 L 721.367,249.189 L 721.308,249.206 L 721.231,249.206 L 721.159,249.221 L 721.088,249.249 L 720.97,249.332 L 718.283,246.034 L 728.494,240.745 L 726.449,236.212 L 730.034,233.531 L 733.808,230.654 L 733.998,230.344 L 731.392,227.904 L 731.406,227.846 L 731.413,227.783 L 731.407,227.695 L 731.376,227.463 L 731.382,227.366 L 731.392,227.299 L 731.418,227.236 L 731.129,224.548 L 731.117,224.44 L 731.269,224.437 L 731.684,223.978 L 731.801,223.742 L 731.863,223.514 L 731.95,223.53 L 731.95,223.664 L 731.911,223.773 L 731.89,224.106 L 731.953,224.253 L 732.072,224.333 L 732.3,224.323 L 732.411,224.345 L 732.449,224.127 L 732.488,224.054 L 732.715,223.901 L 732.597,223.855 L 732.471,223.912 L 732.213,224.164 L 732.079,224.128 L 732.023,223.931 L 732.122,223.364 L 732.169,223.26 L 732.043,223.261 L 731.924,223.168 L 731.868,223.074 L 731.907,222.979 L 731.891,222.909 L 731.954,222.805 L 731.929,222.647 L 732.023,222.483 L 732.139,222.105 L 732.288,221.883 L 732.68,221.667 L 732.861,221.643 L 733.064,221.265 L 733.164,220.902 L 733.203,220.83 L 733.385,220.852 L 733.503,220.948 L 733.566,220.915 L 733.557,220.773 L 733.636,220.687 L 733.801,220.66 L 733.769,220.553 L 733.769,220.45 L 733.839,220.284 L 733.892,219.985 L 733.978,219.905 L 733.976,219.387 L 733.826,219.472 L 733.796,219.687 L 733.593,219.931 L 733.419,219.878 L 733.441,219.468 L 733.439,219.248 L 733.36,219.169 L 733.203,219.152 L 733.131,218.971 L 733.066,218.651 L 732.866,217.903 L 732.842,217.808 L 732.794,217.738 L 732.706,217.533 L 732.666,217.338 L 732.388,216.86 L 732.007,216.366 L 731.983,216.199 L 732.014,216.034 L 732.076,215.985 L 732.768,215.887 L 732.934,215.904 L 734.172,216.15 L 734.157,216.321 L 734.204,216.375 L 734.205,216.477 L 734.394,216.565 L 734.63,216.539 L 734.692,216.302 L 734.755,216.263 L 735.394,216.418 L 735.527,216.386 L 735.589,216.21 L 735.612,215.983 L 735.58,215.882 L 735.516,215.819 L 734.476,215.539 L 734.483,215.471 L 734.586,215.477 L 735.666,215.746 L 735.721,215.794 L 735.745,215.889 L 735.739,216.147 L 735.692,216.291 L 735.708,216.424 L 735.796,216.511 L 736.363,216.634 L 736.623,216.719 L 736.765,216.725 L 736.774,216.827 L 736.656,216.861 L 736.411,216.766 L 736.175,216.807 L 735.978,216.776 L 735.892,216.8 L 735.987,217.014 L 736.011,217.138 L 735.999,217.823 L 736.071,217.927 L 736.173,217.995 L 736.158,218.129 L 736.104,218.264 L 736.128,218.365 L 736.246,218.374 L 736.372,218.293 L 736.606,218.041 L 736.684,217.837 L 736.755,217.748 L 737.304,217.422 L 737.68,217.092 L 737.828,216.681 L 738.04,216.467 L 738.234,216.064 L 738.454,215.81 L 738.539,215.661 L 738.538,215.432 L 738.451,215.261 L 738.222,215.308 L 738.073,215.365 L 737.987,215.334 L 737.946,215.208 L 738.253,215.143 L 738.607,214.968 L 738.976,214.752 L 739.275,214.738 L 739.44,214.742 L 739.668,214.592 L 739.739,214.591 L 739.731,214.687 L 739.63,214.82 L 739.622,214.907 L 739.575,214.98 L 739.45,215.058 L 739.427,215.285 L 739.499,215.413 L 739.633,215.521 L 740.389,215.44 L 742.088,215.169 L 742.675,215.08 L 743.098,214.748 L 743.943,213.923 L 744.068,213.758 L 744.122,213.613 L 744.185,213.599 L 744.391,213.764 L 744.904,213.978 L 745.132,214.008 L 745.235,214.064 L 745.213,214.245 L 745.135,214.418 L 745.049,214.544 L 744.618,214.746 L 744.414,214.895 L 744.06,214.992 L 743.635,215.027 L 743.344,214.973 L 742.974,215.117 L 742.928,215.181 L 742.637,215.341 L 742.48,215.374 L 742.082,215.455 L 740.028,215.701 L 739.871,215.756 L 740.037,215.952 L 740.495,216.202 L 740.606,216.289 L 740.661,216.399 L 740.671,216.696 L 740.616,216.831 L 740.609,216.974 L 740.586,217.043 L 740.587,217.335 L 740.62,217.516 L 740.787,217.816 L 740.796,218.051 L 740.686,218.256 L 740.349,218.517 L 740.224,218.651 L 740.193,218.748 L 740.17,218.95 L 740.1,219.023 L 739.95,219.062 L 739.644,219.207 L 739.133,219.334 L 738.96,219.423 L 738.662,219.677 L 738.505,219.756 L 738.151,219.772 L 737.985,219.712 L 737.899,219.649 L 737.819,219.602 L 737.849,219.35 L 737.715,219.239 L 737.715,219.177 L 737.77,219.104 L 737.784,218.949 L 737.681,218.658 L 737.696,218.462 L 737.625,218.461 L 737.57,218.58 L 737.571,218.8 L 737.651,218.925 L 737.651,219.002 L 737.572,219.011 L 737.485,218.958 L 737.375,218.998 L 737.494,219.137 L 737.487,219.224 L 737.29,219.314 L 737.44,219.359 L 737.575,219.43 L 737.685,219.414 L 737.685,219.507 L 737.583,219.578 L 737.37,219.587 L 737.252,219.501 L 737.181,219.509 L 737.15,219.566 L 737.095,219.599 L 736.796,219.608 L 736.741,219.693 L 736.68,219.971 L 736.57,220.12 L 736.287,220.286 L 736.272,220.429 L 736.312,220.53 L 736.669,220.96 L 736.954,221.423 L 737.002,221.549 L 737.044,221.997 L 737.219,222.336 L 737.639,222.916 L 737.924,223.168 L 738.375,223.502 L 738.928,223.846 L 739.267,224.025 L 740.735,224.664 L 741.548,224.95 L 742.163,225.539 L 742.384,225.852 L 742.685,226.07 L 742.773,226.321 L 742.887,226.92 L 742.913,227.251 L 742.843,227.408 L 742.844,227.573 L 742.963,227.699 L 742.972,227.786 L 742.784,228.075 L 742.747,228.023 L 742.704,227.96 L 742.687,227.89 L 742.631,227.82 L 742.372,227.753 L 742.28,227.685 L 742.231,227.331 L 742.172,227.25 L 741.961,227.217 L 741.842,227.146 L 741.748,227.084 L 741.362,227.07 L 741.299,227.103 L 741.3,227.221 L 741.229,227.26 L 741.001,227.301 L 741.127,227.418 L 741.214,227.465 L 741.395,227.401 L 741.576,227.383 L 741.718,227.454 L 741.781,227.523 L 741.798,227.715 L 741.736,227.847 L 741.564,228.044 L 741.469,228.084 L 741.327,227.961 L 741.169,227.954 L 741.083,228.055 L 741.162,228.078 L 741.242,228.221 L 741.305,228.25 L 741.635,228.219 L 741.77,228.326 L 741.77,228.438 L 741.676,228.549 L 741.622,228.675 L 741.632,229.115 L 741.539,229.406 L 741.224,229.518 L 741.178,229.581 L 741.178,229.724 L 741.265,229.684 L 741.43,229.574 L 741.689,229.47 L 741.736,229.376 L 741.735,229.155 L 741.766,229.068 L 741.748,228.65 L 741.81,228.539 L 741.881,228.509 L 742.022,228.499 L 742.172,228.317 L 742.269,228.266 L 742.388,228.239 L 742.536,228.231 L 742.682,228.158"
       id="path15547"
       style="fill-rule:evenodd" />
    <path
       name="quincy" d="M 754.884,220.417 L 754.796,220.196 L 754.675,219.747 L 754.674,219.598 L 754.799,219.479 L 754.964,219.391 L 755.301,219.294 L 755.53,219.309 L 756.09,219.423 L 756.271,219.408 L 756.569,219.309 L 756.844,219.168 L 757.33,218.769 L 758.019,218.277 L 758.316,217.856 L 758.44,217.62 L 758.532,217.211 L 758.473,216.549 L 758.345,216.298 L 758.313,216.187 L 758.311,215.976 L 758.35,215.857 L 758.42,215.747 L 758.608,215.509 L 758.819,215.357 L 759.11,215.221 L 759.408,215.156 L 759.747,215.156 L 760.188,215.208 L 760.346,215.293 L 760.537,215.526 L 760.593,215.667 L 760.61,215.906 L 760.542,216.236 L 760.551,216.462 L 760.425,216.528 L 760.293,216.687 L 759.91,217.123 L 759.666,217.273 L 759.352,217.4 L 758.983,217.473 L 758.755,217.601 L 758.599,217.823 L 758.452,218.233 L 758.445,218.392 L 758.377,218.691 L 758.3,218.945 L 758.105,219.354 L 757.557,219.863 L 757.487,219.974 L 757.442,220.195 L 757.388,220.398 L 757.444,220.57 L 757.587,220.783 L 757.778,221.01 L 757.897,221.221 L 757.875,221.426 L 757.67,221.389 L 757.36,220.958 L 757.223,220.527 L 757.183,220.336 L 757.173,220.039 L 757.029,219.81 L 757.013,219.678 L 756.893,219.489 L 756.901,219.427 L 757.027,219.457 L 757.05,219.292 L 756.932,219.292 L 756.665,219.443 L 756.618,219.531 L 756.634,219.593 L 756.682,219.641 L 756.799,219.538 L 756.926,219.702 L 756.691,219.789 L 755.796,220.182 L 755.694,220.278 L 755.624,220.475 L 755.429,220.711 L 755.296,220.777 L 755.091,220.761 L 754.884,220.417"
       id="path15551"
       style="fill-rule:evenodd" />
    <path
       name="quincy" d="M 761.619,223.158 L 761.326,222.996 L 760.877,222.879 L 760.9,222.801 L 761.017,222.754 L 761.254,222.75 L 761.396,222.836 L 761.65,223.095 L 761.619,223.158"
       id="path15573"
       style="fill-rule:evenodd" />
    <path
       name="quincy" d="M 742.784,228.075 L 742.682,228.158 L 742.536,228.231 L 742.388,228.239 L 742.269,228.266 L 742.172,228.317 L 742.022,228.499 L 741.881,228.509 L 741.81,228.539 L 741.748,228.65 L 741.766,229.068 L 741.735,229.155 L 741.736,229.376 L 741.689,229.47 L 741.43,229.574 L 741.265,229.684 L 741.178,229.724 L 741.178,229.581 L 741.224,229.518 L 741.539,229.406 L 741.632,229.115 L 741.622,228.675 L 741.676,228.549 L 741.77,228.438 L 741.77,228.326 L 741.635,228.219 L 741.305,228.25 L 741.242,228.221 L 741.162,228.078 L 741.083,228.055 L 741.169,227.954 L 741.327,227.961 L 741.469,228.084 L 741.564,228.044 L 741.736,227.847 L 741.798,227.715 L 741.781,227.523 L 741.718,227.454 L 741.576,227.383 L 741.395,227.401 L 741.214,227.465 L 741.127,227.418 L 741.001,227.301 L 741.229,227.26 L 741.3,227.221 L 741.299,227.103 L 741.362,227.07 L 741.748,227.084 L 741.842,227.146 L 741.961,227.217 L 742.172,227.25 L 742.231,227.331 L 742.28,227.685 L 742.372,227.753 L 742.631,227.82 L 742.687,227.89 L 742.704,227.96 L 742.747,228.023 L 742.784,228.075"
       id="path15593"
       style="fill-rule:evenodd" />
    <path
       name="quincy" d="M 755.304,229.138 L 755.154,229.13 L 755.075,229.092 L 755.074,228.897 L 755.168,228.841 L 755.814,228.884 L 755.461,229.081 L 755.304,229.138"
       id="path15601"
       style="fill-rule:evenodd" />              
   </g>
</svg>