<svg
   xmlns:svg="http://www.w3.org/2000/svg"
   xmlns="http://www.w3.org/2000/svg"
   version="1.0"
   width="2100"
   height="1300"
   viewBox="0 0 2100 1300"
   id="svg14921">
   <g
     transform="matrix(2.2640019,0,0,2.2640019,-216.71416,-21.6991)"
     id="g14955"
     style="font-size:16.25px;font-style:normal;font-weight:400;fill:#fefee9;fill-opacity:1;fill-rule:evenodd;stroke:#000000;stroke-width:0.0984252;stroke-linecap:square;stroke-linejoin:bevel;stroke-opacity:1;font-family:Lucida Grande">
    <path
       name="raynham" d="M 728.526,324.79 L 728.667,325.6 L 729.915,332.333 L 731.345,333.28 L 739.964,340.189 L 742.797,343.815 L 742.741,343.908 L 742.741,344 L 742.819,344.098 L 743.263,344.283 L 743.402,344.343 L 743.495,344.396 L 743.556,344.456 L 743.655,344.631 L 743.748,344.815 L 743.816,345.001 L 743.849,345.13 L 743.857,345.245 L 743.862,345.353 L 743.857,345.471 L 743.831,345.564 L 743.761,345.656 L 743.668,345.737 L 743.596,345.804 L 743.539,345.877 L 743.491,345.96 L 743.461,346.047 L 743.46,346.142 L 743.457,346.241 L 743.49,346.38 L 743.517,346.474 L 743.546,346.568 L 743.548,346.63 L 743.552,346.767 L 743.509,347.024 L 743.453,347.368 L 743.426,347.617 L 743.425,347.848 L 743.441,348.069 L 743.48,348.228 L 743.535,348.363 L 743.601,348.472 L 743.683,348.585 L 743.755,348.673 L 743.811,348.727 L 743.908,348.785 L 744.007,348.825 L 744.111,348.845 L 744.182,348.844 L 744.239,348.804 L 744.253,348.732 L 744.258,348.629 L 744.273,348.529 L 744.3,348.462 L 744.395,348.409 L 744.507,348.396 L 744.576,348.407 L 744.64,348.434 L 744.721,348.47 L 744.774,348.511 L 744.814,348.557 L 744.848,348.626 L 744.884,348.81 L 744.945,349.112 L 744.97,349.418 L 745.009,349.709 L 745.057,349.964 L 745.105,350.198 L 745.116,350.32 L 745.132,350.487 L 745.12,350.652 L 745.085,350.846 L 745.071,350.986 L 745.045,351.097 L 745.022,351.186 L 744.986,351.285 L 744.934,351.386 L 744.893,351.46 L 744.839,351.529 L 744.775,351.599 L 744.683,351.671 L 744.609,351.737 L 744.533,351.805 L 744.477,351.859 L 744.428,351.914 L 744.382,352.003 L 744.354,352.088 L 744.337,352.161 L 744.316,352.22 L 744.276,352.293 L 744.206,352.384 L 744.144,352.453 L 744.076,352.529 L 743.985,352.643 L 743.903,352.752 L 743.801,352.943 L 743.695,353.239 L 743.511,353.727 L 743.362,354.068 L 743.262,354.275 L 743.094,354.572 L 742.981,354.778 L 742.904,354.899 L 742.832,355.045 L 742.905,355.058 L 744.201,354.972 L 744.422,355.903 L 744.379,356.561 L 744.394,357.005 L 744.832,357.481 L 744.09,359.098 L 743.645,359.264 L 743.375,359.396 L 742.931,359.494 L 742.725,359.509 L 741.955,359.809 L 741.905,359.663 L 741.895,359.602 L 741.913,359.515 L 741.887,359.446 L 741.906,359.375 L 741.919,359.312 L 741.942,359.243 L 741.981,359.144 L 741.399,359.311 L 740.555,357.25 L 739.739,357.417 L 739.423,356.614 L 739.311,356.617 L 739.184,356.628 L 739.054,356.667 L 738.98,356.728 L 738.895,356.853 L 738.812,357.007 L 738.774,357.102 L 738.73,357.231 L 738.656,357.371 L 738.557,357.508 L 738.505,357.557 L 738.435,357.601 L 738.36,357.648 L 738.288,357.684 L 738.176,357.714 L 738.061,357.735 L 737.964,357.746 L 737.854,357.743 L 737.74,357.732 L 737.605,357.718 L 737.506,357.709 L 737.416,357.741 L 737.313,357.806 L 737.223,357.893 L 737.149,357.99 L 737.07,358.111 L 736.985,358.222 L 736.839,358.424 L 736.744,358.514 L 736.644,358.582 L 736.537,358.64 L 736.437,358.666 L 736.302,358.711 L 736.176,358.732 L 736.092,358.735 L 735.958,358.736 L 735.819,358.757 L 735.597,358.789 L 735.407,358.832 L 735.27,358.875 L 735.121,358.849 L 734.987,358.805 L 734.835,358.73 L 734.637,358.637 L 734.521,358.603 L 734.391,358.594 L 734.244,358.631 L 734.09,358.727 L 733.954,358.839 L 733.821,358.976 L 733.757,359.027 L 733.65,359.168 L 733.466,359.444 L 733.365,359.574 L 733.28,359.683 L 733.198,359.73 L 733.125,359.744 L 733.056,359.672 L 733.042,359.603 L 733.049,359.524 L 733.083,359.436 L 733.116,359.327 L 733.132,359.171 L 733.109,359.077 L 733.069,359.015 L 733.02,358.958 L 732.947,358.931 L 732.862,358.924 L 732.801,358.931 L 732.709,358.947 L 732.562,358.978 L 732.419,359.011 L 732.306,359.073 L 732.252,359.18 L 732.167,359.327 L 732.046,359.485 L 731.941,359.583 L 731.884,359.573 L 731.825,359.57 L 731.774,359.543 L 731.722,359.457 L 731.714,359.4 L 731.733,359.339 L 731.761,359.203 L 731.803,359.065 L 731.876,358.908 L 731.885,358.806 L 731.821,358.718 L 731.756,358.713 L 731.678,358.763 L 731.632,358.807 L 731.551,358.969 L 731.408,359.065 L 731.32,359.085 L 731.241,359.084 L 731.131,359.044 L 731.052,358.995 L 730.927,358.902 L 730.763,358.799 L 730.634,358.694 L 730.545,358.611 L 730.495,358.519 L 730.424,358.409 L 730.389,358.268 L 730.306,358.027 L 730.288,357.926 L 730.296,357.814 L 730.327,357.761 L 730.374,357.713 L 730.446,357.685 L 730.532,357.629 L 730.585,357.569 L 730.625,357.484 L 730.656,357.374 L 730.682,357.263 L 730.711,357.198 L 730.752,357.143 L 730.838,357.095 L 730.928,357.072 L 731.032,357.065 L 731.158,357.066 L 731.289,357.017 L 731.28,356.931 L 731.228,356.847 L 731.158,356.692 L 731.1,356.573 L 731.019,356.506 L 730.944,356.474 L 730.849,356.445 L 730.676,356.449 L 730.627,356.375 L 730.644,356.298 L 730.688,356.258 L 730.866,356.171 L 730.974,356.127 L 731.028,356.077 L 731.085,356.018 L 731.153,355.934 L 731.233,355.845 L 731.33,355.773 L 731.416,355.715 L 731.512,355.707 L 731.546,355.773 L 731.549,356.078 L 731.606,356.121 L 731.681,356.1 L 731.741,356.064 L 731.812,356.03 L 731.902,355.98 L 731.988,355.924 L 732.048,355.863 L 732.077,355.805 L 732.08,355.742 L 732.064,355.666 L 732.025,355.556 L 731.888,355.392 L 731.732,355.246 L 731.521,355.008 L 731.249,354.635 L 731.14,354.388 L 731.114,354.296 L 731.117,354.229 L 731.179,353.862 L 731.193,353.716 L 731.193,353.567 L 731.169,353.461 L 731.115,353.404 L 731.046,353.328 L 730.892,353.214 L 730.826,353.124 L 730.766,353.036 L 730.728,352.918 L 730.665,352.757 L 730.605,352.626 L 730.557,352.554 L 730.496,352.486 L 730.434,352.443 L 730.369,352.424 L 730.261,352.411 L 730.077,352.391 L 729.902,352.375 L 729.595,352.337 L 729.459,352.317 L 729.239,352.333 L 729.086,352.356 L 729.008,352.38 L 728.92,352.434 L 728.846,352.516 L 728.794,352.64 L 728.776,352.78 L 728.769,352.92 L 728.78,353.034 L 728.754,353.186 L 728.732,353.326 L 728.705,353.401 L 728.67,353.48 L 728.642,353.543 L 728.601,353.62 L 728.55,353.67 L 728.492,353.694 L 728.431,353.687 L 728.371,353.654 L 728.285,353.596 L 728.156,353.497 L 728.059,353.421 L 727.946,353.341 L 727.826,353.258 L 727.707,353.192 L 727.65,353.161 L 727.583,353.152 L 726.452,352.949 L 718.88,340.684 L 719.079,340.375 L 719.091,340.196 L 719.252,339.98 L 719.385,339.917 L 719.512,339.812 L 719.616,339.624 L 719.853,339.147 L 720.52,338.181 L 720.612,337.704 L 720.685,336.9 L 720.93,336.25 L 721.218,335.293 L 721.517,334.731 L 721.958,333.601 L 721.967,333.542 L 721.957,333.485 L 721.944,333.416 L 721.924,333.34 L 721.788,333.024 L 721.169,331.612 L 721.137,331.5 L 721.238,330.597 L 721.265,330.473 L 721.295,330.371 L 721.799,329.23 L 721.833,329.139 L 721.892,328.93 L 721.939,328.688 L 721.978,328.414 L 721.988,328.284 L 721.989,328.091 L 722.003,327.986 L 721.999,327.904 L 721.986,327.8 L 721.965,327.658 L 721.942,327.566 L 721.912,327.46 L 721.426,326.603 L 721.24,326.465 L 720.689,325.747 L 720.229,322.88 L 728.526,324.79"
       id="path15853"
       style="fill-rule:evenodd" />
   </g>
</svg>