<svg
   xmlns:svg="http://www.w3.org/2000/svg"
   xmlns="http://www.w3.org/2000/svg"
   version="1.0"
   width="2100"
   height="1300"
   viewBox="0 0 2100 1300"
   id="svg14921">
   <g
     transform="matrix(2.2640019,0,0,2.2640019,-216.71416,-21.6991)"
     id="g14955"
     style="font-size:16.25px;font-style:normal;font-weight:400;fill:#fefee9;fill-opacity:1;fill-rule:evenodd;stroke:#000000;stroke-width:0.0984252;stroke-linecap:square;stroke-linejoin:bevel;stroke-opacity:1;font-family:Lucida Grande">
    <path
       name="rockport" d="M 832.478,82.5499 L 832.667,82.2758 L 832.895,82.1856 L 832.933,82.1005 L 832.877,82.006 L 833.018,81.8716 L 833.112,81.8377 L 833.314,81.5619 L 833.337,81.4588 L 833.632,81.0373 L 833.969,80.8599 L 834,80.7908 L 834.227,80.6445 L 834.463,80.6188 L 834.564,80.4917 L 835.018,80.2827 L 835.113,80.2738 L 835.737,80.4818 L 835.927,80.6281 L 836.015,80.7869 L 836.034,81.053 L 836.138,81.227 L 836.139,81.3819 L 836.093,81.4702 L 836.11,81.6372 L 836.143,81.7912 L 836.231,81.8787 L 836.547,82.0492 L 836.713,82.0949 L 836.879,82.118 L 836.9,81.9373 L 836.978,81.8729 L 837.127,81.8313 L 837.277,81.8547 L 837.592,81.8113 L 837.759,81.9833 L 837.792,82.0908 L 837.763,82.3771 L 837.793,82.9348 L 837.708,83.0705 L 837.694,83.2199 L 837.663,83.2828 L 837.406,83.5542 L 836.979,84.1004 L 836.91,84.236 L 836.952,84.4892 L 837.056,84.6536 L 837.104,84.7607 L 837.107,84.9841 L 837.156,85.1067 L 837.299,85.2731 L 837.38,85.4352 L 837.588,85.7796 L 837.591,85.9936 L 837.56,86.0503 L 837.434,86.0509 L 837.394,85.9961 L 837.376,85.7982 L 837.344,85.7371 L 837.224,85.626 L 837.168,85.5408 L 837.049,85.417 L 836.97,85.4162 L 836.854,85.6244 L 836.857,85.8663 L 836.984,85.968 L 837.032,86.0782 L 837.12,86.1625 L 837.193,86.3682 L 837.32,86.4918 L 837.369,86.5803 L 837.371,86.7912 L 837.571,87.0738 L 837.604,87.2218 L 837.55,87.3258 L 837.386,87.4515 L 837.312,87.8571 L 837.314,88.0214 L 837.388,88.3667 L 837.198,88.2825 L 837.033,88.2933 L 836.964,88.3886 L 836.988,88.512 L 837.108,88.6542 L 837.165,88.7797 L 837.65,89.2773 L 837.668,89.4195 L 837.558,89.4445 L 837.471,89.4067 L 837.336,89.3052 L 837.17,89.2978 L 837.003,89.1754 L 836.909,89.1843 L 836.904,89.4669 L 836.819,89.6184 L 836.82,89.7362 L 836.924,89.8448 L 837.153,89.8752 L 837.248,89.9128 L 837.319,89.9758 L 837.321,90.1712 L 837.164,90.2287 L 837.071,90.3461 L 837.073,90.4422 L 837.105,90.4972 L 837.105,90.5685 L 836.87,90.65 L 836.848,90.7438 L 836.987,91.2297 L 837.09,91.3322 L 837.39,91.3917 L 837.469,91.4296 L 837.473,91.7367 L 837.616,91.8689 L 837.822,91.9621 L 838.026,91.9747 L 838.2,91.9354 L 838.324,91.8387 L 838.362,91.7601 L 838.361,91.6019 L 838.712,91.3216 L 838.838,91.3055 L 838.901,91.3501 L 839.012,91.3498 L 839.089,91.2297 L 839.285,91.0936 L 839.505,91.0531 L 839.734,91.1362 L 839.822,91.2235 L 839.83,91.3008 L 839.752,91.3342 L 839.421,91.3533 L 839.304,91.4405 L 839.079,91.7202 L 838.93,91.8238 L 838.79,91.9677 L 838.823,92.0597 L 839.026,91.9265 L 839.112,91.9084 L 839.192,91.9929 L 839.193,92.0892 L 839.093,92.2565 L 839.086,92.3189 L 839.172,92.3474 L 839.282,92.3069 L 839.452,91.9916 L 839.648,91.8804 L 839.772,91.7523 L 839.857,91.5856 L 839.936,91.5771 L 839.991,91.6156 L 840.155,91.5023 L 840.336,91.469 L 840.4,91.554 L 840.409,91.6902 L 840.521,91.8296 L 840.862,91.9995 L 841.114,92.051 L 841.287,92.0491 L 841.444,91.9544 L 841.538,91.9298 L 841.727,91.9646 L 841.955,91.899 L 842.223,91.922 L 842.34,91.8503 L 842.371,91.7781 L 842.378,91.6507 L 842.447,91.4936 L 842.612,91.4606 L 842.698,91.3806 L 842.76,91.3725 L 842.834,91.5844 L 842.913,91.669 L 843.07,91.5898 L 843.314,91.5796 L 843.463,91.5224 L 843.532,91.3467 L 843.704,91.2114 L 843.734,91.1079 L 843.876,91.0822 L 843.987,91.1688 L 844.005,91.4289 L 843.944,91.5951 L 843.906,91.77 L 843.813,91.8626 L 843.547,91.9761 L 843.518,92.2066 L 843.59,92.3408 L 843.653,92.37 L 843.716,92.3681 L 843.794,92.2883 L 843.944,92.2714 L 844.015,92.2943 L 844.142,92.4206 L 844.162,92.8049 L 844.187,92.8692 L 844.189,93.0584 L 844.017,93.2093 L 843.839,93.4629 L 843.644,93.6453 L 843.605,93.718 L 843.608,93.994 L 843.523,94.1269 L 843.548,94.216 L 843.683,94.3548 L 843.7,94.441 L 843.763,94.4796 L 843.889,94.5038 L 844.07,94.4457 L 844.134,94.509 L 844.128,94.6953 L 844.2,94.8699 L 844.382,94.9297 L 844.571,94.8652 L 844.626,94.8947 L 844.643,95.0213 L 844.793,95.0293 L 844.888,95.0576 L 844.967,95.1358 L 845.008,95.2371 L 845.012,95.6154 L 844.936,95.8441 L 844.757,96.0138 L 844.757,96.0915 L 844.696,96.2174 L 844.596,96.4095 L 844.582,96.6302 L 844.139,97.1862 L 844.095,97.4295 L 844.078,98.0133 L 844.15,98.1228 L 844.261,98.2002 L 844.387,98.2461 L 844.6,98.2274 L 844.654,98.1731 L 844.73,97.8793 L 844.784,97.8001 L 844.933,97.7584 L 844.935,97.8793 L 845.008,98.1379 L 845.174,98.1671 L 845.23,98.2306 L 845.223,98.3486 L 844.983,98.7374 L 845.001,98.9632 L 845.019,99.1149 L 844.991,99.4227 L 844.96,99.4858 L 844.819,99.5582 L 844.679,99.7329 L 844.665,99.8885 L 844.487,100.105 L 844.096,100.361 L 843.946,100.394 L 843.937,100.214 L 843.668,100.113 L 843.572,100.045 L 843.311,99.9129 L 843.098,99.9007 L 842.698,99.959 L 842.156,100.13 L 841.89,100.253 L 841.723,100.183 L 841.511,100.193 L 841.103,100.363 L 840.336,100.742 L 840.219,100.876 L 840.215,101.239 L 840.09,101.271 L 840.028,101.375 L 839.926,101.406 L 839.862,101.352 L 839.885,101.283 L 839.882,101.054 L 839.725,101.04 L 839.56,101.119 L 839.311,101.384 L 839.178,101.478 L 838.93,101.749 L 838.664,101.964 L 838.143,102.554 L 838.013,102.893 L 837.987,103.076 L 836.757,102.524 L 832.027,100.405 L 831.674,90.0583 L 832.478,82.5499"
       id="path15083"
       style="fill-rule:evenodd" />
    <path
       name="rockport" d="M 845.373,91.9654 L 845.278,91.841 L 845.207,91.8339 L 845.121,91.9046 L 845.018,91.8736 L 844.907,91.8366 L 844.867,91.7417 L 844.568,91.7535 L 844.472,91.6447 L 844.51,91.5257 L 844.509,91.4542 L 844.406,91.3923 L 844.406,91.321 L 844.531,91.2117 L 844.561,91.13 L 844.67,91.0027 L 844.811,90.9863 L 845.08,91.0465 L 845.228,90.8871 L 845.384,90.7678 L 845.5,90.6246 L 845.602,90.5689 L 845.736,90.5433 L 845.988,90.5729 L 846.052,90.6332 L 846.053,90.7695 L 846,90.9572 L 845.62,91.4339 L 845.535,91.6319 L 845.507,91.9398 L 845.373,91.9654"
       id="path15109"
       style="fill-rule:evenodd" />
    <path
       name="rockport" d="M 848.282,100.132 L 848.156,100.055 L 848.084,99.9549 L 848.012,99.9013 L 848.002,99.7434 L 848.179,99.3378 L 848.327,99.1722 L 848.53,99.0515 L 848.889,98.7492 L 849.084,98.5169 L 849.686,98.1795 L 849.828,98.2033 L 849.814,98.3122 L 849.713,98.4333 L 849.556,98.5216 L 849.525,98.5752 L 849.526,98.6374 L 849.62,98.6066 L 849.691,98.6138 L 849.677,98.7476 L 849.53,99.0002 L 849.492,99.1129 L 849.508,99.1745 L 849.58,99.2375 L 849.581,99.3307 L 849.34,99.6417 L 849.191,99.7144 L 849.145,99.7841 L 849.14,100.039 L 849.085,100.102 L 848.952,100.119 L 848.722,99.9857 L 848.619,99.9888 L 848.525,100.029 L 848.385,100.123 L 848.282,100.132"
       id="path15159"
       style="fill-rule:evenodd" />
    <path
       name="rockport" d="M 845.915,103.239 L 845.811,103.146 L 845.866,103.083 L 845.873,102.996 L 845.683,102.942 L 845.524,102.764 L 845.057,102.579 L 844.938,102.511 L 844.938,102.446 L 845.086,102.343 L 845.099,102.116 L 845.201,102.091 L 845.486,102.204 L 845.619,102.147 L 845.727,101.902 L 845.836,101.784 L 845.938,101.75 L 846.048,101.749 L 846.12,101.834 L 846.145,101.93 L 846.1,102.151 L 846.094,102.316 L 846.229,102.495 L 846.224,102.663 L 846.04,103.174 L 845.915,103.239"
       id="path15181"
       style="fill-rule:evenodd" />              
   </g>
</svg>