<svg
   xmlns:svg="http://www.w3.org/2000/svg"
   xmlns="http://www.w3.org/2000/svg"
   version="1.0"
   width="2100"
   height="1300"
   viewBox="0 0 2100 1300"
   id="svg14921">
   <g
     transform="matrix(2.2640019,0,0,2.2640019,-216.71416,-21.6991)"
     id="g14955"
     style="font-size:16.25px;font-style:normal;font-weight:400;fill:#fefee9;fill-opacity:1;fill-rule:evenodd;stroke:#000000;stroke-width:0.0984252;stroke-linecap:square;stroke-linejoin:bevel;stroke-opacity:1;font-family:Lucida Grande">
    <path
       name="rowe" d="M 267.952,63.1942 L 270.271,82.018 L 268.871,82.0411 L 269.295,85.1841 L 265.016,85.282 L 255.084,85.5208 L 254.829,86.5274 L 251.039,86.5658 L 251.027,86.6461 L 251.008,86.7912 L 250.974,86.8829 L 250.944,86.9607 L 250.913,87.0268 L 250.878,87.1106 L 250.788,87.1517 L 250.691,87.1689 L 250.595,87.1724 L 250.532,87.1709 L 250.467,87.1693 L 250.381,87.1691 L 250.296,87.173 L 250.204,87.1707 L 250.116,87.198 L 250.057,87.2143 L 250.003,87.26 L 249.942,87.3373 L 249.906,87.4091 L 249.869,87.4771 L 249.846,87.5453 L 249.796,87.6385 L 249.752,87.6848 L 249.707,87.7289 L 249.643,87.7684 L 249.55,87.7957 L 249.445,87.8422 L 249.391,87.8645 L 249.303,87.9077 L 249.23,87.9393 L 249.164,87.9908 L 249.125,88.0489 L 249.077,88.1283 L 249.044,88.1905 L 249.015,88.2585 L 244.346,91.4918 L 244.322,91.4037 L 244.309,91.2855 L 244.316,91.0359 L 244.31,90.7976 L 244.321,90.2985 L 244.343,90.0748 L 244.363,89.906 L 244.38,89.7945 L 244.404,89.6868 L 244.412,89.6281 L 244.429,89.5576 L 244.453,89.4776 L 244.487,89.3703 L 244.518,89.257 L 244.535,89.2004 L 244.558,89.0927 L 244.579,89.0282 L 244.587,88.9498 L 244.614,88.8128 L 244.62,88.7344 L 244.622,88.6439 L 244.634,88.5792 L 244.638,88.5085 L 244.633,88.4041 L 244.622,88.2957 L 244.609,88.2383 L 244.597,88.1299 L 244.589,88.0315 L 244.58,87.9486 L 244.58,87.7125 L 244.563,87.6235 L 244.543,87.5679 L 244.491,87.4959 L 244.443,87.4494 L 244.395,87.4169 L 244.335,87.3799 L 244.267,87.3429 L 244.194,87.3057 L 244.1,87.2621 L 244.019,87.2267 L 243.941,87.1972 L 243.827,87.1846 L 243.733,87.1664 L 243.588,87.155 L 243.374,87.1459 L 243.294,87.1242 L 243.229,87.1048 L 243.163,87.0934 L 243.052,87.069 L 242.955,87.0607 L 242.89,87.0671 L 242.817,87.0868 L 242.763,87.1091 L 242.691,87.19 L 242.66,87.2462 L 242.62,87.32 L 242.593,87.394 L 242.549,87.4835 L 242.492,87.6315 L 242.446,87.7483 L 242.408,87.899 L 242.363,87.9706 L 242.325,88.0247 L 242.276,88.0826 L 242.214,88.1086 L 242.145,88.1324 L 242.05,88.1576 L 241.953,88.1611 L 241.843,88.1781 L 241.784,88.1845 L 241.701,88.1864 L 241.605,88.182 L 241.542,88.1766 L 241.471,88.1669 L 241.413,88.1556 L 241.29,88.125 L 241.231,88.1138 L 241.168,88.0985 L 241.051,88.0778 L 240.923,88.0906 L 240.866,88.1047 L 240.737,88.139 L 240.671,88.1589 L 240.578,88.1822 L 240.455,88.2323 L 240.387,88.2837 L 240.291,88.3363 L 240.215,88.3995 L 240.135,88.4545 L 240.062,88.5157 L 240.024,88.5599 L 239.793,88.8198 L 239.562,89.0875 L 239.475,89.1778 L 239.391,89.2229 L 239.31,89.2347 L 239.23,89.219 L 239.135,89.1733 L 239.069,89.1344 L 239.015,89.0956 L 238.961,89.0433 L 238.912,88.9908 L 238.832,88.8847 L 238.779,88.7967 L 238.705,88.6927 L 238.556,88.5258 L 238.491,88.4591 L 238.384,88.3486 L 238.334,88.2883 L 238.277,88.2257 L 238.237,88.1736 L 238.197,88.1235 L 238.155,88.0772 L 238.066,88.0121 L 237.982,87.9294 L 237.904,87.8804 L 237.843,87.8395 L 237.761,87.8041 L 237.64,87.7539 L 237.557,87.7221 L 237.465,87.6786 L 237.34,87.6482 L 237.128,87.5778 L 236.946,87.5261 L 236.781,87.4436 L 236.38,87.229 L 236.27,87.1693 L 236.194,87.1163 L 236.117,87.0673 L 236.059,87.0225 L 235.977,86.9475 L 235.921,86.8834 L 235.703,86.6498 L 235.179,86.0312 L 234.818,85.6229 L 234.425,85.1472 L 234.357,85.0569 L 234.255,84.8892 L 234.219,84.7762 L 234.238,84.7079 L 234.265,84.6554 L 234.306,84.5934 L 234.349,84.5453 L 234.435,84.4944 L 234.51,84.4785 L 234.588,84.4766 L 234.659,84.4803 L 234.778,84.5008 L 234.918,84.5043 L 235.108,84.5287 L 235.325,84.5674 L 235.542,84.6081 L 235.701,84.6182 L 235.789,84.5967 L 235.876,84.5634 L 235.96,84.5182 L 236.019,84.4313 L 236.043,84.3453 L 236.049,84.2569 L 236.032,84.164 L 235.989,83.9956 L 235.815,83.4525 L 235.781,83.375 L 235.756,83.3036 L 235.747,83.199 L 235.776,83.1409 L 235.862,83.0801 L 235.937,83.0661 L 235.998,83.0578 L 236.11,83.0467 L 236.171,83.0405 L 236.249,83.0227 L 236.306,83.0084 L 236.397,82.9849 L 236.492,82.954 L 236.548,82.9377 L 236.607,82.9135 L 236.682,82.8995 L 236.746,82.8716 L 236.872,82.8629 L 236.955,82.8571 L 237.038,82.8474 L 237.128,82.8476 L 237.23,82.8424 L 237.323,82.8348 L 237.449,82.8319 L 237.563,82.8368 L 237.669,82.8354 L 237.781,82.8441 L 237.895,82.8488 L 238.05,82.8644 L 238.183,82.8854 L 238.271,82.8916 L 238.342,82.8914 L 238.583,82.9189 L 238.869,82.9574 L 238.938,82.9631 L 239.005,82.9706 L 239.113,82.9555 L 239.2,82.9342 L 239.272,82.8985 L 239.32,82.8544 L 239.383,82.7753 L 239.367,82.718 L 239.381,82.6297 L 239.381,82.5452 L 239.376,82.4606 L 239.353,82.3715 L 239.334,82.3159 L 239.305,82.2346 L 239.268,82.1609 L 239.222,82.0436 L 239.174,81.9638 L 239.137,81.8824 L 239.079,81.7943 L 239.061,81.7112 L 239.041,81.6421 L 239.022,81.5667 L 239.013,81.4662 L 239.014,81.3935 L 239.021,81.3071 L 239.04,81.2407 L 239.07,81.1588 L 239.106,81.0691 L 239.139,80.9796 L 239.189,80.8983 L 239.241,80.7834 L 239.284,80.7156 L 239.327,80.6381 L 239.356,80.5758 L 239.38,80.49 L 239.408,80.404 L 239.425,80.3435 L 239.443,80.2769 L 239.447,80.1905 L 239.449,80.1119 L 239.462,80.0003 L 239.473,79.9356 L 239.493,79.8632 L 239.526,79.8031 L 239.561,79.739 L 239.61,79.6755 L 239.668,79.6356 L 239.738,79.5978 L 239.792,79.5658 L 239.867,79.5362 L 239.929,79.512 L 239.984,79.4957 L 240.063,79.4781 L 240.146,79.4762 L 240.211,79.4777 L 240.27,79.487 L 240.366,79.4973 L 240.46,79.5095 L 240.522,79.5228 L 240.606,79.5465 L 240.665,79.5616 L 240.725,79.5771 L 240.827,79.6011 L 240.944,79.6452 L 241.024,79.665 L 241.137,79.6894 L 241.285,79.7501 L 241.355,79.7715 L 241.431,79.8048 L 241.514,79.8521 L 241.598,79.8895 L 241.705,79.9375 L 241.787,79.9691 L 241.886,79.9912 L 241.97,80.0168 L 242.074,80.0429 L 242.18,80.0594 L 242.28,80.0658 L 242.366,80.0814 L 242.427,80.0813 L 242.523,80.0638 L 242.605,80.0421 L 242.684,80.0168 L 242.74,79.9984 L 242.809,79.9726 L 242.887,79.9311 L 242.961,79.8916 L 243.048,79.8387 L 243.125,79.7836 L 243.189,79.7322 L 243.257,79.6807 L 243.332,79.6057 L 243.38,79.5618 L 243.428,79.5236 L 243.484,79.4856 L 243.573,79.4033 L 243.646,79.3363 L 243.716,79.2809 L 243.8,79.2377 L 243.875,79.2259 L 243.967,79.2143 L 244.06,79.193 L 244.137,79.193 L 244.306,79.211 L 244.451,79.2323 L 244.559,79.2367 L 244.655,79.2352 L 244.744,79.2276 L 244.838,79.2182 L 244.91,79.1709 L 244.975,79.0956 L 245.046,79.0107 L 245.091,78.9451 L 245.134,78.8772 L 245.161,78.819 L 245.198,78.7589 L 245.231,78.7027 L 245.262,78.6502 L 245.325,78.5693 L 245.368,78.5133 L 245.43,78.4027 L 245.467,78.3152 L 245.501,78.2177 L 245.544,78.0986 L 245.57,78.0167 L 245.602,77.9113 L 245.625,77.7978 L 245.644,77.6527 L 245.631,77.5619 L 245.617,77.4888 L 245.593,77.4234 L 245.567,77.3538 L 245.542,77.2824 L 245.493,77.2045 L 245.45,77.1247 L 245.424,77.0612 L 245.376,76.9951 L 245.306,76.8991 L 245.226,76.8084 L 245.174,76.7443 L 245.13,76.698 L 245.062,76.6058 L 245.021,76.5241 L 245.009,76.453 L 245.013,76.3745 L 245.045,76.2827 L 245.084,76.2188 L 245.117,76.1665 L 245.179,76.1012 L 245.299,75.9743 L 245.372,75.8798 L 245.441,75.795 L 245.508,75.7119 L 245.579,75.6528 L 245.642,75.6189 L 245.714,75.5813 L 245.794,75.5401 L 245.864,75.4967 L 245.931,75.4254 L 245.983,75.3619 L 246.037,75.2767 L 246.084,75.2091 L 246.127,75.1234 L 246.174,75.0559 L 246.222,74.9743 L 246.255,74.8945 L 246.287,74.8048 L 246.31,74.7483 L 246.336,74.6545 L 246.356,74.5902 L 246.363,74.5197 L 246.356,74.4426 L 246.337,74.3833 L 246.312,74.3158 L 246.28,74.254 L 246.242,74.198 L 246.103,74.0372 L 246.012,73.9563 L 245.982,73.9043 L 245.929,73.8323 L 245.888,73.7486 L 245.857,73.6456 L 245.844,73.5568 L 245.834,73.4701 L 245.829,73.3184 L 245.819,73.2198 L 245.824,73.0371 L 245.825,72.9289 L 245.806,72.8398 L 245.781,72.5777 L 245.778,72.4851 L 245.784,72.377 L 245.79,72.3065 L 245.806,72.2262 L 245.811,72.1162 L 245.818,72.0575 L 245.82,71.9868 L 245.822,71.9081 L 245.815,71.8194 L 245.799,71.7423 L 245.782,71.6435 L 245.764,71.586 L 245.734,71.5263 L 245.685,71.4444 L 245.642,71.3569 L 245.536,71.071 L 245.51,71.0034 L 245.486,70.928 L 245.477,70.8159 L 245.468,70.7211 L 245.435,70.6181 L 245.338,70.3659 L 245.287,70.2625 L 245.253,70.1494 L 245.246,70.051 L 245.255,69.9863 L 245.253,69.9212 L 245.263,69.8507 L 245.279,69.7488 L 245.309,69.6 L 245.341,69.4908 L 245.36,69.3851 L 245.385,69.307 L 245.415,69.227 L 245.432,69.1663 L 245.461,69.0964 L 245.489,69.036 L 245.522,68.9818 L 245.584,68.9204 L 245.674,68.8754 L 245.763,68.8462 L 245.941,68.8073 L 246.026,68.7838 L 246.247,68.7716 L 246.465,68.7631 L 246.56,68.736 L 246.651,68.7067 L 246.71,68.663 L 246.792,68.606 L 246.877,68.5727 L 246.984,68.5301 L 247.099,68.5173 L 247.177,68.527 L 247.244,68.5326 L 247.328,68.5601 L 247.454,68.6145 L 247.684,68.7125 L 247.788,68.7821 L 248.005,68.8956 L 248.128,68.9399 L 248.206,68.9672 L 248.312,68.9562 L 248.392,68.9169 L 248.466,68.8636 L 248.532,68.8082 L 248.628,68.7476 L 248.694,68.6963 L 248.761,68.6192 L 248.814,68.5458 L 248.864,68.4625 L 248.899,68.3827 L 248.939,68.2223 L 248.969,68.0559 L 248.986,67.9304 L 249.038,67.7508 L 249.089,67.6596 L 249.119,67.5205 L 249.138,67.4661 L 249.175,67.3882 L 249.232,67.3346 L 249.3,67.2929 L 249.357,67.2767 L 249.422,67.2567 L 249.535,67.2201 L 249.662,67.188 L 249.84,67.1607 L 249.898,67.1229 L 249.999,67.0859 L 250.063,67.0442 L 250.116,66.9887 L 250.157,66.9209 L 250.185,66.831 L 250.2,66.7665 L 250.216,66.6704 L 250.237,66.5726 L 250.255,66.4786 L 250.299,66.3814 L 250.334,66.3057 L 250.409,66.2051 L 250.46,66.1532 L 250.524,66.094 L 250.705,65.9607 L 250.775,65.9034 L 250.856,65.8325 L 250.99,65.7475 L 251.115,65.6777 L 251.294,65.5543 L 251.445,65.4203 L 251.62,65.2555 L 251.697,65.1747 L 251.755,65.0465 L 251.797,64.9432 L 251.827,64.8456 L 251.844,64.7379 L 251.955,62.9803 L 252.018,62.6749 L 252.04,62.5773 L 252.097,62.4616 L 265.374,63.088 L 267.952,63.1942"
       id="path15017"
       style="fill-rule:evenodd" />
   </g>
</svg>