<svg
   xmlns:svg="http://www.w3.org/2000/svg"
   xmlns="http://www.w3.org/2000/svg"
   version="1.0"
   width="2100"
   height="1300"
   viewBox="0 0 2100 1300"
   id="svg14921">
   <g
     transform="matrix(2.2640019,0,0,2.2640019,-216.71416,-21.6991)"
     id="g14955"
     style="font-size:16.25px;font-style:normal;font-weight:400;fill:#fefee9;fill-opacity:1;fill-rule:evenodd;stroke:#000000;stroke-width:0.0984252;stroke-linecap:square;stroke-linejoin:bevel;stroke-opacity:1;font-family:Lucida Grande">
    <path
       name="rowley" d="M 781.052,60.9942 L 781.155,61.0564 L 781.296,60.9994 L 781.428,60.7875 L 781.592,60.5967 L 781.741,60.5549 L 781.865,60.5863 L 781.894,60.6754 L 781.916,60.7414 L 782.043,60.8842 L 782.193,60.9541 L 782.366,60.9117 L 782.429,60.8478 L 782.522,60.6899 L 782.647,60.5808 L 782.756,60.5156 L 783.094,60.4249 L 783.212,60.353 L 783.306,60.2603 L 783.461,59.9517 L 783.554,59.831 L 783.688,59.8239 L 783.751,59.8624 L 783.753,60.0517 L 783.616,60.6885 L 783.603,60.9587 L 783.682,61.0122 L 783.863,61.072 L 783.966,61.0875 L 784.414,61.068 L 784.509,61.0682 L 784.626,60.981 L 784.792,60.9483 L 785.382,60.9338 L 785.687,60.7199 L 785.852,60.6934 L 785.979,60.7796 L 785.995,60.8348 L 785.985,61.055 L 786.014,61.2185 L 786.102,61.3585 L 786.112,61.5941 L 786.358,61.8441 L 786.416,62.2704 L 786.456,62.3777 L 786.515,62.8103 L 786.563,62.8678 L 786.58,62.9697 L 786.659,63.0696 L 786.684,63.2271 L 786.829,63.6817 L 787.068,63.9569 L 787.227,64.1756 L 787.45,64.4265 L 787.53,64.6225 L 788.183,65.515 L 788.2,65.6882 L 787.942,65.9347 L 787.87,65.8096 L 787.861,65.6425 L 787.915,65.5478 L 787.922,65.4236 L 787.794,65.1791 L 787.62,65.0478 L 787.493,64.8903 L 787.295,64.7257 L 787.121,64.6812 L 786.861,64.7292 L 786.336,64.9556 L 785.95,64.998 L 785.967,65.1094 L 786.022,65.1542 L 786.33,65.207 L 786.903,64.9514 L 787.06,64.9248 L 787.265,65.018 L 787.416,65.1439 L 787.528,65.3079 L 787.625,65.6061 L 787.691,66.0847 L 787.748,66.2817 L 787.916,66.621 L 787.933,66.7537 L 787.997,66.941 L 788.087,67.3199 L 788.135,67.4146 L 788.176,67.5934 L 788.172,68.0121 L 788.228,68.1284 L 788.236,68.2614 L 788.199,68.4921 L 788.035,68.7141 L 787.757,68.3935 L 787.851,68.3596 L 787.994,68.4454 L 788.041,68.4069 L 788.015,68.1936 L 788.054,68.0685 L 787.951,68.0435 L 787.684,68.1661 L 787.598,68.2277 L 787.465,68.2378 L 787.409,68.1682 L 787.352,67.9403 L 787.383,67.8837 L 787.446,67.8661 L 787.557,67.9684 L 787.707,67.9918 L 787.738,67.904 L 787.634,67.7491 L 787.523,67.6468 L 787.498,67.4801 L 787.411,67.4578 L 787.348,67.4814 L 787.318,67.6497 L 787.121,67.6338 L 786.979,67.5327 L 786.97,67.4555 L 787.071,67.2569 L 787.212,67.2157 L 787.339,67.2769 L 787.457,67.2767 L 787.512,67.2532 L 787.606,67.1511 L 787.62,66.9522 L 787.588,66.8819 L 787.469,66.8668 L 787.432,67.119 L 787.314,67.1599 L 787.235,67.0504 L 787.124,67.0042 L 787.014,67.0136 L 786.872,67.052 L 786.826,67.1403 L 786.819,67.2893 L 786.773,67.3931 L 786.71,67.4258 L 786.361,67.12 L 785.429,66.7568 L 785.074,66.6681 L 784.948,66.6594 L 784.138,66.8385 L 783.202,66.9964 L 783.131,66.9489 L 783.09,66.7456 L 782.971,66.6747 L 782.838,66.7312 L 782.903,66.9278 L 782.904,67.1016 L 782.723,67.144 L 782.447,67.0809 L 782.046,67.155 L 781.864,67.0487 L 781.714,67.0098 L 781.621,67.0961 L 781.424,67.1206 L 781.014,67.046 L 780.817,67.0704 L 780.849,67.1595 L 780.874,67.2455 L 780.757,67.4041 L 780.616,67.4671 L 780.387,67.5081 L 780.229,67.4384 L 780.127,67.432 L 780.041,67.4562 L 780.049,67.5492 L 780.144,67.6362 L 780.397,67.728 L 780.617,67.6968 L 780.837,67.6001 L 781.323,67.3191 L 781.386,67.311 L 781.489,67.3824 L 781.514,67.5397 L 781.211,68.0451 L 781.117,68.1471 L 780.999,68.1816 L 780.527,68.2172 L 780.354,68.2659 L 780.111,68.4003 L 779.791,68.6641 L 779.572,68.9343 L 779.518,69.0817 L 779.432,69.1555 L 779.259,69.1884 L 778.998,69.0319 L 778.864,68.9707 L 778.706,68.963 L 778.353,69.0697 L 778.219,69.148 L 777.9,69.57 L 777.759,69.7106 L 777.43,69.9036 L 777.367,70.0198 L 777.377,70.1796 L 777.46,70.2602 L 777.525,70.3436 L 777.567,70.4215 L 777.582,70.4821 L 777.586,70.5588 L 777.552,70.6342 L 777.5,70.6923 L 777.437,70.7289 L 777.355,70.7481 L 777.255,70.7363 L 777.172,70.7279 L 777.111,70.725 L 777.048,70.744 L 776.955,70.787 L 776.899,70.849 L 776.879,70.9222 L 776.884,71.0107 L 776.926,71.1083 L 776.998,71.1798 L 777.074,71.2513 L 777.12,71.3231 L 777.154,71.4367 L 777.16,71.5211 L 777.149,71.5961 L 777.123,71.6536 L 777.084,71.6995 L 777.021,71.7894 L 776.977,71.8649 L 776.957,71.9263 L 776.948,71.9914 L 776.965,72.121 L 776.999,72.2738 L 776.993,72.3664 L 776.976,72.4258 L 776.907,72.4999 L 776.851,72.5403 L 776.767,72.589 L 776.664,72.6323 L 776.608,72.6885 L 776.537,72.798 L 776.499,72.895 L 776.497,72.962 L 776.508,73.0226 L 776.632,73.1464 L 776.699,73.1747 L 776.808,73.1884 L 776.881,73.191 L 777.008,73.1846 L 777.126,73.1727 L 777.189,73.1832 L 777.261,73.239 L 777.28,73.3252 L 777.272,73.4178 L 777.218,73.5723 L 777.149,73.7292 L 777.097,73.8009 L 777.017,73.8635 L 776.931,73.8826 L 776.842,73.8687 L 776.745,73.835 L 776.68,73.8245 L 776.602,73.8297 L 776.51,73.8433 L 776.377,73.9047 L 776.311,73.9374 L 776.25,73.915 L 776.144,73.8718 L 776.059,73.8359 L 775.984,73.8257 L 775.882,73.8491 L 775.84,73.8952 L 775.81,73.9921 L 775.794,74.0595 L 775.795,74.1186 L 775.82,74.2065 L 775.84,74.2849 L 775.821,74.358 L 775.769,74.4161 L 775.723,74.4503 L 775.663,74.487 L 775.62,74.5311 L 775.582,74.5927 L 775.544,74.6702 L 775.508,74.7359 L 775.483,74.7893 L 775.487,74.9055 L 775.52,74.9776 L 775.543,75.038 L 775.59,75.2201 L 772.983,74.0339 L 772.755,73.9156 L 771.427,76.1826 L 754.223,85.1264 L 747.144,80.4584 L 751.411,76.2759 L 751.58,76.1183 L 756.737,69.4672 L 760.33,66.0597 L 760.81,66.3109 L 766.331,64.0869 L 766.74,63.9378 L 766.778,63.8725 L 766.823,63.8049 L 766.871,63.7355 L 766.913,63.666 L 766.96,63.6003 L 767.027,63.4971 L 767.088,63.4905 L 767.212,63.4535 L 767.256,63.4096 L 767.296,63.2891 L 767.328,63.1705 L 767.347,62.9714 L 767.371,62.855 L 767.411,62.7758 L 767.422,62.7148 L 767.413,62.6202 L 767.404,62.5438 L 767.403,62.4355 L 767.417,62.3526 L 767.491,62.2553 L 767.522,62.2036 L 767.572,62.1381 L 767.636,62.094 L 767.741,62.1143 L 767.779,62.1709 L 767.789,62.2297 L 767.801,62.3241 L 767.808,62.4558 L 767.829,62.5323 L 767.907,62.6257 L 767.951,62.6664 L 768.034,62.7322 L 768.074,62.8105 L 768.075,62.8754 L 768.021,62.9528 L 767.972,63.0026 L 767.912,63.0429 L 767.894,63.1277 L 767.955,63.1583 L 768.018,63.1694 L 768.091,63.1703 L 768.165,63.1732 L 768.293,63.1696 L 768.338,63.1099 L 768.319,63.0216 L 768.308,62.9569 L 768.324,62.8366 L 768.389,62.8142 L 768.468,62.8503 L 768.571,62.9141 L 768.67,62.9639 L 768.723,62.9337 L 768.765,62.886 L 768.829,62.8163 L 768.885,62.7467 L 768.949,62.6278 L 768.981,62.5054 L 768.964,62.4289 L 768.905,62.4275 L 768.85,62.4461 L 768.792,62.4882 L 768.708,62.566 L 768.633,62.6731 L 768.533,62.7 L 768.478,62.6811 L 768.443,62.6226 L 768.444,62.5358 L 768.459,62.3193 L 768.458,62.2447 L 768.426,62.1899 L 768.374,62.1492 L 768.303,62.093 L 768.241,62.0427 L 768.211,61.982 L 768.237,61.8538 L 768.307,61.8038 L 768.364,61.7912 L 768.43,61.7903 L 768.531,61.7988 L 768.624,61.835 L 768.713,61.8772 L 768.784,61.9295 L 768.856,61.9855 L 768.94,62.067 L 768.993,62.1116 L 769.068,62.154 L 769.149,62.1784 L 769.232,62.1755 L 769.294,62.1176 L 769.326,62.0386 L 769.307,61.9266 L 769.235,61.835 L 769.18,61.7924 L 769.098,61.7188 L 769.04,61.6723 L 768.985,61.6159 L 768.949,61.5671 L 768.924,61.4534 L 768.972,61.3938 L 769.064,61.3415 L 769.119,61.3209 L 769.18,61.3262 L 769.267,61.3545 L 769.318,61.3874 L 769.378,61.4416 L 769.462,61.5135 L 769.523,61.5638 L 769.585,61.6065 L 769.654,61.6349 L 769.759,61.6553 L 769.863,61.6657 L 769.938,61.6903 L 769.991,61.7153 L 770.041,61.7481 L 770.083,61.7909 L 770.137,61.8569 L 770.208,61.9623 L 770.319,62.0239 L 770.421,62.0008 L 770.462,61.9197 L 770.453,61.8313 L 770.441,61.7585 L 770.432,61.682 L 770.426,61.6034 L 770.467,61.5104 L 770.527,61.4329 L 770.61,61.3825 L 770.687,61.3423 L 770.75,61.2921 L 770.79,61.2425 L 770.82,61.1518 L 770.831,60.9318 L 770.862,60.8408 L 770.955,60.7898 L 771.036,60.7782 L 771.154,60.7935 L 771.208,60.8319 L 771.27,60.9035 L 771.295,60.9679 L 771.321,61.0874 L 771.327,61.1484 L 771.348,61.2607 L 771.368,61.3273 L 771.401,61.38 L 771.437,61.4463 L 771.471,61.5187 L 771.496,61.6187 L 771.517,61.7029 L 771.525,61.809 L 771.547,61.9012 L 771.572,61.9677 L 771.622,62.0004 L 771.678,62.0173 L 771.742,62.0204 L 771.854,61.9832 L 771.912,61.9038 L 771.935,61.8387 L 771.956,61.7674 L 771.976,61.659 L 772.008,61.5718 L 772.089,61.4763 L 772.183,61.4591 L 772.241,61.5133 L 772.276,61.5679 L 772.319,61.6599 L 772.357,61.7635 L 772.388,61.8478 L 772.478,61.9371 L 772.547,61.9303 L 772.6,61.8902 L 772.635,61.8189 L 772.659,61.7199 L 772.684,61.6311 L 772.734,61.5181 L 772.803,61.4383 L 772.893,61.3781 L 773.299,61.2171 L 773.339,61.1734 L 773.4,61.0837 L 773.494,61.1333 L 774.133,61.5727 L 776.322,61.4567 L 777.751,61.0662 L 777.9,60.9361 L 778.075,60.7801 L 778.213,60.6975 L 778.336,60.6012 L 778.425,60.5074 L 778.52,60.4174 L 778.602,60.3474 L 778.827,60.171 L 778.879,60.0757 L 778.967,60.0468 L 779.06,60.0532 L 779.16,60.0518 L 779.264,60.0267 L 779.419,60.0125 L 779.483,60.0371 L 779.525,60.0976 L 779.534,60.1644 L 779.531,60.2647 L 779.536,60.3591 L 779.554,60.4433 L 779.582,60.5158 L 779.626,60.5859 L 779.701,60.6773 L 779.785,60.7745 L 779.845,60.8876 L 779.91,61.0263 L 779.931,61.0813 L 780.005,61.1296 L 780.081,61.1838 L 780.146,61.1968 L 780.213,61.1941 L 780.272,61.1735 L 780.326,61.1396 L 780.391,61.0724 L 780.477,61.0043 L 780.545,60.9717 L 780.633,60.9508 L 780.726,60.9632 L 780.84,60.9812 L 780.986,60.9928 L 781.052,60.9942"
       id="path15003"
       style="fill-rule:evenodd" />
    <path
       name="rowley" d="M 793.161,59.8802 L 793.341,60.6258 L 793.468,60.9692 L 793.671,61.565 L 793.872,62.0585 L 793.904,62.1846 L 793.96,62.2946 L 794.154,62.8285 L 794.202,62.9389 L 794.234,63.0776 L 794.291,63.2122 L 794.685,64.28 L 794.911,64.7718 L 792.25,66.6849 L 792.128,66.468 L 792.118,66.2451 L 792.078,66.1284 L 792.022,66.0494 L 792.004,65.7211 L 791.852,65.5549 L 791.82,65.4598 L 791.859,65.3285 L 792.007,65.2247 L 792.164,65.0556 L 792.557,65.0533 L 792.556,64.889 L 792.5,64.8193 L 792.249,64.8578 L 792.169,64.7888 L 792.12,64.5545 L 792.048,64.3581 L 791.921,64.2318 L 791.795,64.2634 L 791.607,64.4301 L 791.584,64.4867 L 791.609,64.6037 L 791.681,64.7536 L 791.879,64.9339 L 791.873,65.0986 L 791.747,65.1952 L 791.676,65.1788 L 791.542,65.0928 L 791.343,64.8599 L 791.015,64.2616 L 790.92,64.1682 L 790.778,64.1012 L 790.658,63.9031 L 790.783,63.7536 L 790.948,63.7115 L 791.035,63.7741 L 791.194,63.9399 L 791.312,63.9767 L 791.463,64.1646 L 791.509,63.9926 L 791.437,63.8334 L 791.445,63.7712 L 791.538,63.6691 L 791.514,63.6141 L 791.435,63.6133 L 791.349,63.6685 L 791.342,63.734 L 791.049,63.538 L 790.844,63.5628 L 790.641,63.6835 L 790.562,63.6827 L 790.466,63.4498 L 790.479,63.1951 L 790.542,63.1405 L 790.668,63.1399 L 790.857,63.2087 L 790.967,63.1837 L 790.959,63.1219 L 790.895,63.0431 L 790.635,62.9919 L 790.431,63.0382 L 790.322,63.2122 L 790.259,63.2606 L 790.188,63.247 L 790.084,62.9865 L 790.143,62.4668 L 790.181,62.4192 L 790.078,62.2548 L 790.108,62.1205 L 789.958,62.0599 L 789.933,61.9334 L 789.688,61.8166 L 789.664,61.7397 L 789.663,61.6591 L 789.742,61.5793 L 789.725,61.5177 L 789.529,61.536 L 789.504,61.4561 L 789.63,61.4089 L 789.598,61.3386 L 789.456,61.2992 L 789.423,61.167 L 789.457,61.0213 L 789.469,60.9485 L 793.161,59.8802"
       id="path15005"
       style="fill-rule:evenodd" />
    <path
       name="rowley" d="M 789.529,61.536 L 789.53,61.6601 L 789.57,61.7798 L 789.532,61.8739 L 789.437,61.8583 L 789.34,61.5911 L 789.529,61.536"
       id="path15013"
       style="fill-rule:evenodd" />
    <path
       name="rowley" d="M 789.926,62.9013 L 789.702,62.573 L 789.607,62.4796 L 789.559,62.3849 L 789.509,62.0545 L 789.572,62 L 789.666,61.9909 L 789.777,62.0436 L 789.921,62.2873 L 789.947,62.6805 L 789.996,62.7845 L 789.996,62.8775 L 789.926,62.9013"
       id="path15015"
       style="fill-rule:evenodd" />
    <path
       name="rowley" d="M 788.549,67.0332 L 788.502,66.985 L 788.509,66.9135 L 788.477,66.812 L 788.23,66.5 L 788.198,66.4202 L 788.181,66.247 L 788.273,65.9311 L 788.335,65.8362 L 788.437,65.8207 L 788.493,65.8501 L 788.604,66.0485 L 788.606,66.284 L 788.654,66.3601 L 788.666,66.881 L 788.628,66.9906 L 788.549,67.0332"
       id="path15029"
       style="fill-rule:evenodd" />    
    <path
       name="rowley" d="M 788.868,67.4301 L 788.768,66.85 L 788.799,66.7219 L 788.853,66.6055 L 788.924,66.5786 L 788.964,66.6425 L 789.015,67.162 L 788.985,67.3274 L 788.868,67.4301"
       id="path15037"
       style="fill-rule:evenodd" />                 
   </g>
</svg>