<svg
   xmlns:svg="http://www.w3.org/2000/svg"
   xmlns="http://www.w3.org/2000/svg"
   version="1.0"
   width="2100"
   height="1300"
   viewBox="0 0 2100 1300"
   id="svg14921">
   <g
     transform="matrix(2.2640019,0,0,2.2640019,-216.71416,-21.6991)"
     id="g14955"
     style="font-size:16.25px;font-style:normal;font-weight:400;fill:#fefee9;fill-opacity:1;fill-rule:evenodd;stroke:#000000;stroke-width:0.0984252;stroke-linecap:square;stroke-linejoin:bevel;stroke-opacity:1;font-family:Lucida Grande">
    <path
       name="royalston" d="M 459.066,72.4654 L 457.424,103.67 L 455.409,103.971 L 454.29,104.166 L 451.756,104.515 L 450.938,104.624 L 447.872,104.523 L 447.791,104.527 L 447.73,104.529 L 447.258,104.608 L 447.183,104.108 L 446.816,101.305 L 445.294,101.501 L 444.545,96.7272 L 429.926,99.2026 L 428.834,91.0169 L 425.629,91.3405 L 425.298,88.7342 L 423.763,88.8928 L 421.762,89.1361 L 421.516,86.5811 L 418.099,86.8922 L 418.089,86.8048 L 415.436,70.6135 L 423.922,70.9972 L 435.565,71.444 L 455.638,72.2959 L 459.066,72.4654"
       id="path15057"
       style="fill-rule:evenodd" />
   </g>
</svg>