<svg
   xmlns:svg="http://www.w3.org/2000/svg"
   xmlns="http://www.w3.org/2000/svg"
   version="1.0"
   width="2100"
   height="1300"
   viewBox="0 0 2100 1300"
   id="svg14921">
   <g
     transform="matrix(2.2640019,0,0,2.2640019,-216.71416,-21.6991)"
     id="g14955"
     style="font-size:16.25px;font-style:normal;font-weight:400;fill:#fefee9;fill-opacity:1;fill-rule:evenodd;stroke:#000000;stroke-width:0.0984252;stroke-linecap:square;stroke-linejoin:bevel;stroke-opacity:1;font-family:Lucida Grande">
    <path
       name="russell" d="M 264.104,240.129 L 264.177,240.169 L 264.271,240.228 L 264.395,240.289 L 264.483,240.344 L 264.579,240.431 L 264.69,240.488 L 264.809,240.562 L 264.908,240.619 L 264.988,240.674 L 265.087,240.7 L 265.152,240.713 L 265.244,240.723 L 265.325,240.74 L 265.459,240.732 L 265.528,240.725 L 265.627,240.704 L 265.85,240.673 L 265.915,240.675 L 266.028,240.693 L 266.209,240.705 L 266.292,240.778 L 266.354,240.84 L 266.404,240.908 L 266.511,241.048 L 266.589,241.144 L 266.688,241.217 L 266.76,241.25 L 266.802,241.294 L 266.813,241.357 L 266.779,241.457 L 266.742,241.544 L 266.756,241.633 L 266.776,241.706 L 266.746,241.827 L 266.657,241.945 L 266.58,242.042 L 266.459,242.175 L 266.36,242.28 L 266.333,242.36 L 266.312,242.45 L 266.324,242.519 L 266.354,242.585 L 266.392,242.637 L 266.434,242.689 L 266.501,242.767 L 266.569,242.896 L 266.605,242.962 L 266.645,243.031 L 266.684,243.144 L 266.717,243.246 L 266.74,243.309 L 266.76,243.386 L 266.771,243.494 L 266.813,243.741 L 266.836,243.869 L 266.857,243.966 L 266.891,244.059 L 266.917,244.125 L 266.97,244.221 L 267.104,244.468 L 267.144,244.543 L 267.213,244.659 L 267.266,244.733 L 267.29,244.814 L 267.337,244.908 L 267.397,245.043 L 267.436,245.179 L 267.473,245.255 L 267.578,245.537 L 267.619,245.613 L 267.645,245.682 L 267.669,245.785 L 267.667,245.846 L 267.666,245.932 L 267.658,246.023 L 267.638,246.134 L 267.609,246.193 L 267.588,246.247 L 267.539,246.352 L 267.486,246.42 L 267.422,246.491 L 267.369,246.547 L 267.304,246.642 L 267.252,246.69 L 267.196,246.762 L 267.153,246.808 L 267.123,246.861 L 267.082,246.94 L 267.059,247.005 L 267.051,247.097 L 267.087,247.167 L 267.133,247.203 L 267.231,247.231 L 267.493,247.292 L 267.597,247.314 L 267.885,247.384 L 267.965,247.4 L 268.245,247.467 L 268.325,247.483 L 268.614,247.525 L 268.712,247.537 L 268.99,247.592 L 269.066,247.602 L 269.247,247.638 L 269.309,247.665 L 269.359,247.707 L 269.405,247.767 L 269.697,248.199 L 278.455,260.972 L 277.931,263.687 L 277.573,264.23 L 274.046,269.657 L 273.828,270.02 L 273.751,270.137 L 273.697,270.08 L 273.514,269.892 L 273.457,269.827 L 273.416,269.785 L 273.358,269.725 L 273.281,269.688 L 273.171,269.674 L 273.078,269.67 L 272.905,269.706 L 272.808,269.725 L 272.686,269.74 L 272.589,269.77 L 272.49,269.793 L 272.401,269.829 L 272.264,269.875 L 272.119,269.937 L 272.016,270.002 L 271.957,270.057 L 271.909,270.112 L 271.898,270.168 L 271.89,270.284 L 271.904,270.353 L 271.922,270.444 L 271.943,270.541 L 271.963,270.618 L 271.983,270.699 L 271.993,270.76 L 271.988,270.849 L 271.958,270.931 L 271.918,270.983 L 271.883,271.034 L 271.831,271.103 L 271.786,271.158 L 271.722,271.209 L 271.659,271.245 L 271.597,271.264 L 271.475,271.289 L 271.41,271.301 L 271.323,271.321 L 271.238,271.337 L 271.145,271.364 L 271.073,271.404 L 271.023,271.442 L 270.961,271.512 L 270.92,271.586 L 270.859,271.661 L 270.809,271.713 L 270.735,271.761 L 270.643,271.771 L 270.566,271.763 L 270.492,271.746 L 270.412,271.723 L 270.206,271.669 L 270.105,271.645 L 270.028,271.654 L 269.957,271.66 L 269.889,271.7 L 269.852,271.764 L 269.821,271.852 L 269.792,271.903 L 269.793,271.991 L 269.797,272.062 L 269.811,272.157 L 269.823,272.241 L 269.838,272.336 L 269.855,272.461 L 269.865,272.571 L 269.867,272.671 L 269.9,272.764 L 269.93,272.84 L 269.94,272.923 L 270.005,273.028 L 270.057,273.136 L 270.079,273.209 L 270.106,273.271 L 270.141,273.342 L 270.168,273.412 L 270.168,273.478 L 270.135,273.531 L 270.118,273.609 L 270.077,273.675 L 270.015,273.743 L 269.945,273.785 L 269.882,273.795 L 269.809,273.799 L 269.727,273.79 L 269.654,273.778 L 269.584,273.765 L 269.51,273.744 L 269.397,273.69 L 269.318,273.675 L 269.24,273.673 L 269.163,273.685 L 269.092,273.702 L 268.962,273.789 L 268.823,273.93 L 268.709,274.012 L 268.622,274.062 L 268.568,274.098 L 268.524,274.14 L 268.462,274.174 L 268.397,274.175 L 268.336,274.184 L 268.277,274.186 L 268.137,274.199 L 268.06,274.223 L 268.008,274.277 L 267.978,274.351 L 267.974,274.412 L 267.955,274.488 L 267.946,274.598 L 267.932,274.698 L 267.911,274.779 L 267.887,274.832 L 267.821,274.901 L 267.759,275.002 L 267.217,277.562 L 261.946,275.954 L 256.691,274.38 L 256.571,274.349 L 256.647,273.949 L 262.446,245.923 L 263.109,242.611 L 264.104,240.129"
       id="path15661"
       style="fill-rule:evenodd" />
   </g>
</svg>