<svg
   xmlns:svg="http://www.w3.org/2000/svg"
   xmlns="http://www.w3.org/2000/svg"
   version="1.0"
   width="2100"
   height="1300"
   viewBox="0 0 2100 1300"
   id="svg14921">
   <g
     transform="matrix(2.2640019,0,0,2.2640019,-216.71416,-21.6991)"
     id="g14955"
     style="font-size:16.25px;font-style:normal;font-weight:400;fill:#fefee9;fill-opacity:1;fill-rule:evenodd;stroke:#000000;stroke-width:0.0984252;stroke-linecap:square;stroke-linejoin:bevel;stroke-opacity:1;font-family:Lucida Grande">
    <path
       name="salem" d="M 764.123,133.182 L 764.227,133.214 L 764.406,133.271 L 764.502,133.301 L 764.507,133.459 L 764.366,133.633 L 764.319,133.743 L 764.313,133.911 L 764.369,134.012 L 764.464,134.105 L 764.55,134.081 L 764.509,133.831 L 764.54,133.672 L 764.594,133.562 L 764.751,133.498 L 764.874,133.417 L 764.939,133.384 L 765.041,133.331 L 765.12,133.354 L 765.231,133.456 L 765.224,133.558 L 765.154,133.691 L 765.163,133.787 L 765.313,133.928 L 765.384,133.941 L 765.446,133.856 L 765.453,133.626 L 765.421,133.546 L 765.411,133.264 L 765.174,133.116 L 765.15,133.036 L 765.015,132.898 L 764.912,132.842 L 764.618,132.513 L 764.595,132.436 L 764.585,132.222 L 764.686,131.921 L 764.779,131.779 L 764.928,131.715 L 765.108,131.549 L 765.234,131.527 L 765.321,131.595 L 765.71,132.114 L 765.878,132.364 L 766.059,132.473 L 766.241,132.48 L 766.508,132.429 L 766.665,132.436 L 766.753,132.524 L 766.753,132.642 L 766.707,132.767 L 766.708,132.838 L 767.071,133.026 L 767.182,133.125 L 767.215,133.323 L 767.31,133.425 L 767.271,133.56 L 767.177,133.631 L 767.194,133.773 L 767.462,133.824 L 767.494,133.873 L 767.502,133.975 L 767.362,134.18 L 767.347,134.283 L 767.474,134.441 L 767.624,134.542 L 767.774,134.51 L 767.829,134.467 L 768.001,134.435 L 768.073,134.498 L 768.23,134.53 L 768.318,134.614 L 768.436,134.716 L 768.406,134.826 L 768.233,134.868 L 768.123,134.946 L 768.124,135.144 L 768.031,135.293 L 768.071,135.403 L 768.261,135.528 L 768.308,135.598 L 768.318,135.765 L 768.452,135.929 L 768.461,136.04 L 768.241,136.096 L 768.139,136.223 L 768.124,136.301 L 768.03,136.397 L 767.794,136.453 L 767.732,136.524 L 767.741,136.762 L 767.578,137.108 L 767.563,137.267 L 767.636,137.485 L 767.661,137.651 L 767.655,137.999 L 767.617,138.155 L 767.508,138.376 L 767.257,138.591 L 767.266,138.739 L 767.345,138.765 L 767.471,138.74 L 767.871,138.445 L 768.035,138.254 L 768.526,137.573 L 769.032,136.665 L 769.179,136.223 L 769.17,136.059 L 769.122,135.924 L 769.066,135.839 L 769.096,135.658 L 769.292,135.497 L 769.448,135.276 L 769.647,134.426 L 769.686,134.344 L 769.725,134.281 L 769.835,134.29 L 769.93,134.337 L 769.932,134.542 L 769.785,135.086 L 769.895,135.076 L 770.059,134.721 L 770.096,134.36 L 770.387,134.333 L 770.426,134.387 L 770.461,134.898 L 770.501,135.002 L 770.549,135.103 L 770.755,135.299 L 770.953,135.361 L 771.197,135.335 L 771.385,135.224 L 771.472,135.231 L 771.535,135.27 L 771.543,135.381 L 771.356,135.594 L 771.288,136.058 L 771.148,136.289 L 770.943,136.391 L 770.747,136.385 L 770.692,136.457 L 770.678,136.622 L 770.443,136.884 L 770.397,137.003 L 770.382,137.143 L 770.327,137.216 L 770.186,137.304 L 770.1,137.406 L 770.093,137.579 L 770.18,137.688 L 770.481,137.869 L 770.986,138.102 L 771.065,138.069 L 771.572,137.405 L 771.602,137.175 L 771.688,137.027 L 771.978,136.882 L 771.993,136.676 L 772.111,136.645 L 772.237,136.722 L 772.387,136.674 L 772.583,136.563 L 772.582,136.492 L 772.487,136.414 L 772.455,136.343 L 772.47,136.256 L 772.541,136.145 L 772.681,135.996 L 772.979,135.804 L 773.443,135.727 L 773.528,135.662 L 773.575,135.598 L 773.598,135.496 L 773.722,135.3 L 774.351,135.073 L 774.421,134.987 L 774.474,134.828 L 774.529,134.733 L 774.85,134.525 L 775,134.548 L 775.047,134.593 L 775.08,134.704 L 775.128,134.799 L 775.223,134.861 L 775.522,134.812 L 775.554,134.867 L 775.596,135.198 L 775.668,135.363 L 775.96,135.509 L 776.024,135.588 L 776.033,135.743 L 775.689,136.023 L 775.563,136.07 L 775.311,136.09 L 774.908,135.826 L 774.711,135.804 L 774.546,135.883 L 774.413,136.017 L 774.336,136.159 L 774.321,136.256 L 774.345,136.311 L 774.448,136.379 L 774.605,136.393 L 775.164,136.302 L 775.338,136.474 L 775.551,136.545 L 775.607,136.63 L 775.6,136.739 L 775.178,137.074 L 775.173,137.478 L 775.221,137.532 L 775.475,137.733 L 775.546,137.836 L 775.555,137.954 L 775.423,138.153 L 775.257,138.121 L 775.163,138.161 L 775.03,138.264 L 775.007,138.32 L 774.92,138.354 L 774.77,138.203 L 774.675,138.206 L 774.432,138.325 L 774.29,138.342 L 774.195,138.295 L 774.186,138.171 L 774.239,137.887 L 774.503,137.405 L 774.502,137.2 L 774.54,137.096 L 774.65,137 L 774.639,136.724 L 774.552,136.662 L 774.308,136.641 L 774.19,136.666 L 774.082,136.88 L 774.077,137.281 L 773.928,137.307 L 773.785,137.243 L 773.668,137.283 L 773.558,137.386 L 773.567,137.513 L 773.568,137.625 L 773.458,137.687 L 773.401,137.708 L 773.363,137.842 L 773.403,137.934 L 773.405,138.226 L 773.374,138.4 L 773.172,138.763 L 773.109,138.827 L 772.992,138.883 L 772.953,138.931 L 772.937,139.024 L 773.001,139.103 L 773.436,139.391 L 773.437,139.456 L 773.398,139.519 L 773.271,139.52 L 773.042,139.387 L 772.766,139.324 L 772.696,139.366 L 772.493,139.633 L 772.352,139.746 L 771.942,139.755 L 771.705,139.523 L 771.539,139.546 L 771.604,139.727 L 771.407,139.777 L 771.353,139.909 L 771.054,139.998 L 770.843,140.135 L 770.646,140.215 L 770.671,140.338 L 770.95,140.928 L 770.95,141 L 771.038,141.109 L 771.27,141.667 L 771.144,141.692 L 770.97,141.486 L 770.835,141.292 L 770.778,141.104 L 770.706,140.991 L 770.706,140.93 L 770.379,140.248 L 770.276,140.207 L 770.221,140.24 L 770.365,140.515 L 770.381,140.61 L 770.318,140.634 L 770.223,140.454 L 770.096,140.476 L 770.121,140.643 L 770.051,140.657 L 769.948,140.605 L 769.751,140.567 L 769.452,140.57 L 768.917,140.713 L 769.027,140.744 L 769.666,140.771 L 770.052,140.862 L 770.454,140.909 L 770.653,141.238 L 770.662,141.412 L 770.694,141.519 L 770.956,141.84 L 771.012,141.959 L 771.005,142.124 L 770.857,142.259 L 770.653,142.364 L 770.487,142.381 L 770.266,142.335 L 770.109,142.352 L 770.078,142.415 L 770.095,142.604 L 770.191,142.896 L 770.28,143.194 L 770.446,143.263 L 770.494,143.318 L 770.479,143.476 L 770.18,143.507 L 770.078,143.572 L 769.992,143.776 L 770.024,143.825 L 770.206,143.934 L 770.262,144.044 L 770.286,144.177 L 770.374,144.295 L 770.516,144.356 L 771.02,144.446 L 770.99,144.63 L 771.148,144.731 L 771.244,144.825 L 771.299,144.956 L 771.56,145.113 L 771.671,145.215 L 771.672,145.293 L 771.594,145.413 L 771.46,145.46 L 771.406,145.555 L 771.399,145.698 L 771.336,145.73 L 771.029,145.786 L 770.943,145.857 L 770.613,145.829 L 770.558,145.868 L 770.519,146.003 L 770.475,146.445 L 770.318,146.555 L 770.28,146.714 L 770.217,146.775 L 770.21,146.98 L 770.039,147.233 L 770.005,147.293 L 770.062,147.428 L 770.088,147.52 L 769.987,147.796 L 770.017,147.898 L 770.14,148.017 L 770.471,148.059 L 770.68,147.963 L 770.735,148.303 L 770.579,148.545 L 770.524,148.595 L 770.476,148.68 L 770.456,148.77 L 770.435,148.831 L 770.393,148.876 L 770.333,148.921 L 770.085,149.039 L 770.037,149.078 L 770.01,149.151 L 769.931,149.168 L 769.871,149.249 L 769.848,149.333 L 769.857,149.396 L 769.866,149.461 L 769.816,149.494 L 769.747,149.472 L 769.664,149.472 L 769.573,149.493 L 769.504,149.514 L 769.511,149.577 L 769.513,149.636 L 769.432,149.622 L 769.373,149.635 L 769.602,150.664 L 769.415,151.141 L 768.514,152.119 L 767.319,152.554 L 767.184,152.545 L 767.072,152.523 L 766.925,152.463 L 766.723,152.373 L 766.613,152.364 L 766.391,152.378 L 766.212,152.426 L 765.852,152.477 L 765.763,152.496 L 765.704,152.521 L 765.598,152.591 L 765.406,152.689 L 758.378,150.515 L 754.319,149.185 L 755.914,147.317 L 761.944,140.212 L 762.165,139.427 L 762.453,139.513 L 762.604,138.995 L 762.55,138.972 L 762.49,138.902 L 762.421,138.872 L 762.352,138.836 L 762.341,138.759 L 762.289,138.719 L 762.762,138.052 L 762.644,137.971 L 763.024,137.417 L 763.155,137.466 L 763.201,137.391 L 763.767,137.629 L 763.649,136.423 L 763.669,136.322 L 763.734,136.197 L 763.575,136.105 L 763.472,132.978 L 764.123,133.182"
       id="path15269"
       style="fill-rule:evenodd" />
   </g>
</svg>