<svg
   xmlns:svg="http://www.w3.org/2000/svg"
   xmlns="http://www.w3.org/2000/svg"
   version="1.0"
   width="2100"
   height="1300"
   viewBox="0 0 2100 1300"
   id="svg14921">
   <g
     transform="matrix(2.2640019,0,0,2.2640019,-216.71416,-21.6991)"
     id="g14955"
     style="font-size:16.25px;font-style:normal;font-weight:400;fill:#fefee9;fill-opacity:1;fill-rule:evenodd;stroke:#000000;stroke-width:0.0984252;stroke-linecap:square;stroke-linejoin:bevel;stroke-opacity:1;font-family:Lucida Grande">
    <path
       name="sandwich" d="M 866.628,396.063 L 866.798,389.779 L 867.298,390.434 L 867.585,390.732 L 868.062,391.159 L 868.372,391.391 L 869.236,391.949 L 869.879,392.43 L 870.714,393.106 L 871.66,393.968 L 871.965,394.139 L 872.845,394.616 L 873.177,394.755 L 873.209,394.816 L 872.521,395.14 L 872.412,395.268 L 872.279,395.355 L 871.982,395.494 L 871.678,395.59 L 870.946,395.608 L 870.679,395.666 L 870.436,395.763 L 869.635,395.975 L 869.399,396.019 L 869.11,396.211 L 868.875,396.323 L 868.71,396.341 L 866.628,396.063"
       id="path15923"
       style="fill-rule:evenodd" />
    <path
       name="sandwich" d="M 866.61,396.72 L 867.423,396.819 L 867.621,396.896 L 867.773,397.106 L 867.876,397.153 L 868.727,397.215 L 868.969,397 L 869.071,396.95 L 870.832,396.694 L 870.977,397 L 870.932,397.15 L 870.822,397.2 L 870.761,397.381 L 870.77,397.499 L 870.818,397.553 L 870.888,397.529 L 871.254,397.141 L 871.315,396.99 L 871.307,396.888 L 871.266,396.793 L 871.116,396.717 L 871.084,396.652 L 871.114,396.528 L 871.99,396.204 L 873.064,395.794 L 873.127,395.817 L 873.215,395.911 L 873.385,396.241 L 873.774,396.512 L 874.296,396.717 L 874.573,396.864 L 875.065,397.172 L 875.201,397.295 L 875.354,397.548 L 875.76,397.952 L 876.094,398.205 L 876.65,398.561 L 877.086,398.784 L 878.067,399.165 L 878.154,399.237 L 878.139,399.305 L 878.039,399.442 L 877.908,399.703 L 877.798,399.712 L 877.671,399.62 L 877.355,399.514 L 876.997,399.258 L 876.783,399.175 L 876.523,399.17 L 876.453,399.172 L 876.351,399.227 L 876.32,399.315 L 876.604,399.294 L 876.778,399.333 L 876.992,399.472 L 877.056,399.557 L 877.058,399.722 L 876.786,400.002 L 876.653,400.065 L 876.244,400.111 L 875.759,400.383 L 875.508,400.465 L 875.509,400.545 L 875.754,400.628 L 875.847,400.532 L 876.076,400.529 L 876.2,400.339 L 876.302,400.324 L 876.612,400.569 L 876.723,400.593 L 876.769,400.53 L 876.95,400.519 L 877.084,400.555 L 877.29,400.673 L 877.657,401.028 L 877.69,401.139 L 877.855,401.168 L 878.078,401.354 L 878.38,401.565 L 878.397,401.658 L 878.46,401.681 L 878.546,401.61 L 878.82,401.478 L 879.23,401.475 L 879.427,401.535 L 879.522,401.597 L 879.595,401.728 L 879.604,401.84 L 879.685,402.061 L 879.796,402.104 L 879.867,402.089 L 879.881,401.962 L 879.785,401.791 L 879.775,401.689 L 879.909,401.663 L 880.399,401.807 L 880.485,401.805 L 880.783,401.675 L 880.972,401.651 L 881.106,401.703 L 881.226,401.805 L 881.391,401.84 L 881.559,402.021 L 881.859,402.072 L 881.923,402.166 L 882.034,402.197 L 882.303,402.341 L 882.5,402.316 L 882.491,402.252 L 882.246,402.138 L 882.063,402.013 L 881.088,401.505 L 880.891,401.477 L 880.317,401.555 L 879.765,401.475 L 879.259,401.31 L 879.007,401.305 L 878.801,401.243 L 878.337,401.266 L 878.25,401.234 L 878.123,401.132 L 877.979,400.938 L 877.365,400.355 L 877.294,400.31 L 877.213,400.154 L 877.211,400.043 L 877.313,399.956 L 877.595,399.889 L 878.091,399.874 L 878.201,399.825 L 878.341,399.69 L 878.427,399.651 L 878.467,399.696 L 878.492,399.822 L 878.605,399.987 L 878.875,400.221 L 879.232,400.412 L 880.505,400.812 L 883.006,401.883 L 884.557,402.501 L 885.452,402.894 L 887.121,403.549 L 889.058,404.178 L 889.303,404.23 L 889.88,404.427 L 890.157,404.564 L 890.268,404.673 L 890.301,404.743 L 890.337,405.09 L 890.415,405.066 L 890.555,404.897 L 890.625,404.873 L 890.704,404.896 L 890.982,405.058 L 891.346,405.234 L 891.979,405.448 L 893.512,405.837 L 894.531,406.13 L 897.603,406.825 L 899.118,407.097 L 900.452,407.381 L 902.098,407.618 L 883.675,432.981 L 882.943,433.962 L 879.704,433.305 L 879.656,433.461 L 879.604,433.716 L 879.516,433.9 L 879.453,433.958 L 879.383,434.049 L 879.322,434.168 L 879.291,434.261 L 879.215,434.443 L 879.146,434.589 L 879.076,434.724 L 878.995,434.867 L 878.893,435.049 L 878.828,435.174 L 878.756,435.293 L 878.684,435.493 L 877.345,435.058 L 876.888,433.392 L 877.035,433.063 L 878.487,429.6 L 878.68,429.589 L 878.681,429.439 L 878.692,429.344 L 878.729,429.19 L 878.756,429.092 L 878.77,429.033 L 878.773,428.936 L 878.745,428.805 L 878.717,428.731 L 878.68,428.667 L 878.637,428.602 L 878.585,428.53 L 878.535,427.664 L 877.901,426.75 L 872.955,427.347 L 873.082,429.216 L 873.8,429.586 L 873.847,429.64 L 873.849,429.77 L 873.864,429.87 L 873.874,429.946 L 873.87,430.007 L 873.858,430.086 L 873.84,430.178 L 873.828,430.257 L 873.832,430.339 L 873.85,430.447 L 873.872,430.547 L 873.909,430.654 L 873.901,430.772 L 873.881,431.084 L 873.861,431.159 L 873.799,431.242 L 873.696,431.28 L 873.608,431.324 L 873.535,431.387 L 873.478,431.454 L 873.363,431.486 L 873.241,431.501 L 873.141,431.516 L 873.063,431.528 L 873.006,431.539 L 872.941,431.598 L 872.925,431.727 L 872.399,431.47 L 869.335,429.951 L 869.279,430.067 L 869.21,430.167 L 868.834,430.653 L 868.351,432.266 L 868.29,432.476 L 868.256,432.619 L 868.093,433.593 L 868.067,433.769 L 868.06,433.875 L 868.064,433.968 L 868.063,434.06 L 868.047,434.145 L 867.984,434.377 L 867.822,434.86 L 867.64,435.473 L 867.512,435.927 L 867.354,436.566 L 867.316,436.674 L 867.204,436.917 L 867.154,437.02 L 866.961,437.238 L 866.367,438.814 L 864.715,440.703 L 864.354,441.053 L 863.951,441.446 L 863.859,441.521 L 863.409,441.775 L 863.296,441.841 L 863.2,441.91 L 863.117,441.979 L 863.06,442.061 L 862.973,442.203 L 862.84,442.457 L 862.688,442.642 L 862.587,442.762 L 862.463,442.937 L 862.149,443.407 L 854.871,440.619 L 854.797,440.59 L 854.969,439.288 L 855.058,439.016 L 855.18,438.698 L 855.229,438.542 L 855.23,438.449 L 855.221,438.333 L 855.208,438.214 L 855.17,438.051 L 855.136,437.958 L 855.097,437.803 L 855.07,437.684 L 855.051,437.59 L 855.052,437.46 L 855.075,437.302 L 855.074,437.194 L 855.066,437.038 L 855.092,436.906 L 855.128,436.783 L 855.185,436.681 L 855.324,436.457 L 855.433,436.242 L 855.52,436.1 L 855.591,435.991 L 855.719,435.839 L 855.865,435.687 L 856.014,435.516 L 856.132,435.365 L 856.26,435.212 L 856.36,435.129 L 856.519,434.987 L 856.627,434.906 L 856.754,434.767 L 856.85,434.634 L 856.927,434.541 L 857.011,434.38 L 857.125,434.164 L 857.163,434.087 L 857.236,433.967 L 857.488,433.614 L 857.544,433.567 L 857.627,433.504 L 857.734,433.434 L 857.944,433.116 L 858.12,432.932 L 858.302,432.76 L 858.453,432.597 L 858.707,432.306 L 859.041,431.973 L 859.339,431.621 L 859.904,430.467 L 860.016,430.237 L 860.149,429.98 L 860.192,429.875 L 860.371,428.935 L 860.403,428.814 L 860.417,428.753 L 860.485,428.617 L 860.539,428.504 L 860.555,428.442 L 860.563,428.322 L 860.583,428.085 L 860.684,427.689 L 860.705,427.573 L 861.179,426.399 L 861.572,425.253 L 861.617,425.106 L 861.616,424.758 L 861.639,424.655 L 861.664,424.564 L 861.681,424.491 L 861.684,424.376 L 861.687,424.02 L 861.719,423.525 L 861.716,423.439 L 861.705,423.382 L 861.684,423.322 L 861.647,423.222 L 861.592,423.068 L 861.543,422.908 L 861.492,422.691 L 861.448,422.521 L 861.414,422.37 L 861.391,422.245 L 861.376,421.997 L 861.359,421.856 L 861.337,421.688 L 861.332,421.524 L 861.349,421.325 L 861.475,421.04 L 861.536,420.917 L 861.565,420.824 L 861.592,420.73 L 861.631,420.546 L 861.687,420.309 L 861.709,420.237 L 861.733,420.166 L 861.772,420.072 L 861.818,419.949 L 861.845,419.878 L 861.874,419.79 L 861.909,419.681 L 861.953,419.546 L 861.985,419.443 L 862.016,419.348 L 862.036,419.276 L 862.069,419.193 L 862.108,419.109 L 862.151,419.019 L 862.199,418.882 L 862.255,418.725 L 862.288,418.548 L 862.316,418.432 L 862.333,418.3 L 862.33,418.184 L 862.295,417.331 L 862.288,417.215 L 862.249,417.074 L 862.209,416.924 L 862.176,416.779 L 862.161,416.663 L 862.168,416.581 L 862.187,416.48 L 864.599,404.522 L 865.922,398.303 L 866.597,397.196 L 866.61,396.72"
       id="path15933"
       style="fill-rule:evenodd" />       
   </g>
</svg>