<svg
   xmlns:svg="http://www.w3.org/2000/svg"
   xmlns="http://www.w3.org/2000/svg"
   version="1.0"
   width="2100"
   height="1300"
   viewBox="0 0 2100 1300"
   id="svg14921">
   <g
     transform="matrix(2.2640019,0,0,2.2640019,-216.71416,-21.6991)"
     id="g14955"
     style="font-size:16.25px;font-style:normal;font-weight:400;fill:#fefee9;fill-opacity:1;fill-rule:evenodd;stroke:#000000;stroke-width:0.0984252;stroke-linecap:square;stroke-linejoin:bevel;stroke-opacity:1;font-family:Lucida Grande">
    <path
       name="saugus" d="M 738.591,146.909 L 739.22,147.426 L 740.788,148.69 L 741.711,151.84 L 744.471,161.298 L 744.256,161.201 L 743.893,161.165 L 743.791,161.18 L 743.595,161.254 L 743.359,161.286 L 743.163,161.475 L 743.068,161.391 L 743.059,161.193 L 743.168,161.05 L 743.042,161.029 L 742.909,161.116 L 742.57,161.117 L 742.437,161.189 L 742.375,161.331 L 742.25,161.437 L 742.234,161.536 L 742.306,161.584 L 742.384,161.482 L 742.478,161.473 L 742.597,161.56 L 742.849,161.58 L 742.912,161.65 L 742.953,161.81 L 743.04,161.888 L 743.142,161.879 L 743.221,161.823 L 743.439,161.498 L 743.509,161.443 L 743.722,161.424 L 744.123,161.328 L 744.359,161.381 L 744.534,161.521 L 744.606,161.696 L 744.661,161.75 L 744.732,161.763 L 744.822,161.643 L 744.904,161.556 L 744.936,161.489 L 744.987,161.38 L 745.194,161.393 L 745.163,161.487 L 744.929,161.748 L 744.781,162.041 L 744.691,162.664 L 744.629,162.805 L 744.622,162.939 L 744.733,163.016 L 744.812,163.119 L 744.883,163.167 L 745.009,163.172 L 745.103,163.132 L 745.252,162.982 L 745.283,162.864 L 745.281,162.541 L 745.318,162.248 L 745.451,162.043 L 745.599,161.883 L 745.717,161.83 L 745.827,161.883 L 745.899,161.971 L 746.018,162.175 L 746.312,162.439 L 746.651,162.547 L 746.683,162.617 L 746.62,162.666 L 746.172,162.747 L 745.921,162.876 L 745.757,163.073 L 745.655,163.231 L 745.588,163.744 L 745.732,164.035 L 746.025,164.37 L 746.041,164.447 L 746.632,164.523 L 746.742,164.411 L 746.852,164.374 L 746.963,164.436 L 746.877,164.593 L 746.862,164.656 L 747.249,164.936 L 747.488,165.257 L 747.789,165.54 L 748.065,165.671 L 748.136,165.725 L 748.129,165.828 L 748.035,165.868 L 747.87,165.91 L 747.641,165.792 L 747.539,165.786 L 747.523,165.849 L 747.641,165.901 L 747.65,165.981 L 747.5,165.989 L 747.232,165.866 L 747.051,165.921 L 746.916,165.773 L 746.837,165.72 L 746.751,165.751 L 746.759,165.831 L 746.823,165.916 L 747.052,166.089 L 747.076,166.15 L 747.021,166.174 L 747.007,166.323 L 746.708,166.443 L 746.606,166.53 L 746.544,166.64 L 746.537,166.814 L 746.562,166.91 L 746.712,167.057 L 747.052,167.23 L 746.997,167.3 L 746.469,167.139 L 746.318,167.044 L 746.325,166.904 L 746.205,166.635 L 746.189,166.567 L 746.07,166.44 L 745.976,166.456 L 746.103,166.622 L 746.183,166.834 L 746.192,166.936 L 746.114,167.078 L 746.083,167.212 L 746.1,167.33 L 746.211,167.422 L 746.265,167.359 L 746.218,167.289 L 746.209,167.187 L 746.28,167.163 L 746.612,167.373 L 746.817,167.491 L 747.022,167.504 L 747.024,167.733 L 747.072,167.865 L 747.151,167.835 L 747.181,167.756 L 747.268,167.769 L 747.348,167.95 L 747.667,167.407 L 747.531,167.061 L 747.525,167.374 L 747.503,167.508 L 747.433,167.634 L 747.329,167.51 L 747.226,167.386 L 747.225,167.188 L 747.098,167.055 L 746.782,166.838 L 746.781,166.773 L 746.883,166.726 L 747.158,166.669 L 747.229,166.605 L 747.275,166.504 L 747.393,166.51 L 747.401,166.438 L 747.369,166.377 L 747.376,166.29 L 747.51,166.258 L 747.644,166.319 L 747.77,166.294 L 747.99,166.167 L 748.108,166.238 L 748.093,166.316 L 747.968,166.418 L 747.968,166.499 L 748.064,166.617 L 748.126,166.59 L 748.259,166.37 L 748.531,165.896 L 748.586,165.873 L 748.665,165.911 L 748.666,165.989 L 748.487,166.298 L 748.488,166.425 L 748.552,166.628 L 748.68,166.872 L 748.696,166.958 L 748.515,166.982 L 748.319,167.18 L 748.086,167.655 L 748.025,167.877 L 747.922,167.812 L 747.796,167.766 L 747.909,168.278 L 747.935,168.584 L 747.896,168.697 L 747.567,168.958 L 747.208,169.455 L 747.138,169.513 L 746.936,169.891 L 746.841,169.916 L 746.596,169.721 L 746.557,169.784 L 746.715,169.941 L 746.74,170.064 L 746.701,170.199 L 746.639,170.293 L 746.036,170.851 L 745.895,170.889 L 745.824,170.835 L 745.768,170.685 L 745.19,170.225 L 744.778,169.914 L 744.525,169.789 L 744.021,169.673 L 743.743,169.424 L 743.656,169.371 L 743.475,169.348 L 743.246,169.191 L 743.348,169.088 L 743.347,168.955 L 743.252,168.948 L 743.166,169.041 L 743.01,169.303 L 742.853,169.391 L 742.838,169.463 L 742.886,169.502 L 742.996,169.493 L 743.137,169.414 L 743.286,169.372 L 743.374,169.466 L 743.634,169.576 L 743.392,169.819 L 743.251,170.025 L 743.134,170.106 L 742.931,170.344 L 742.814,170.62 L 742.658,170.848 L 742.458,171.165 L 742.338,171.214 L 742.278,171.132 L 742.344,170.954 L 742.075,170.828 L 741.822,170.796 L 741.475,170.882 L 741.365,171.006 L 741.027,171.205 L 740.973,171.355 L 740.918,171.41 L 740.485,171.429 L 740.423,171.412 L 740.389,171.328 L 740.388,171.25 L 740.468,171.168 L 740.632,171.107 L 740.782,171.092 L 740.937,171.047 L 740.985,170.996 L 740.995,170.931 L 740.966,170.86 L 740.9,170.756 L 740.846,170.692 L 740.739,170.61 L 740.659,170.572 L 740.544,170.544 L 740.428,170.527 L 740.335,170.524 L 740.261,170.513 L 740.193,170.49 L 740.126,170.449 L 740.072,170.379 L 740.011,170.297 L 739.967,170.256 L 739.853,170.225 L 739.756,170.185 L 739.631,170.098 L 739.566,170.035 L 739.5,169.987 L 739.435,169.995 L 739.377,170.039 L 739.342,170.105 L 739.339,170.221 L 739.348,170.35 L 739.341,170.41 L 739.318,170.465 L 739.273,170.522 L 739.198,170.478 L 739.187,170.317 L 739.18,170.191 L 739.165,170.132 L 739.117,170.067 L 739.044,170.001 L 739.006,169.947 L 738.977,169.833 L 738.957,169.733 L 738.815,169.482 L 738.796,169.37 L 738.785,169.293 L 738.82,169.226 L 738.884,169.178 L 738.897,169.119 L 738.948,169.065 L 738.967,168.973 L 738.988,168.917 L 738.983,168.815 L 739.022,168.752 L 739.06,168.699 L 738.957,168.552 L 738.889,168.488 L 738.828,168.461 L 738.721,168.428 L 738.662,168.397 L 738.602,168.329 L 738.554,168.237 L 738.634,168.181 L 738.722,168.11 L 738.816,168.065 L 738.883,168.023 L 738.972,167.948 L 739.087,167.874 L 739.269,167.748 L 738.659,167.347 L 736.892,164.658 L 735.043,166.529 L 728.007,155.797 L 727.796,155.445 L 728.166,152.304 L 728.796,152.155 L 730.068,151.371 L 731.347,148.962 L 731.402,148.845 L 731.29,148.711 L 731.291,148.634 L 731.269,148.56 L 731.23,148.485 L 731.181,148.432 L 730.975,148.228 L 730.895,148.14 L 730.679,147.779 L 730.621,147.728 L 730.545,147.66 L 730.511,147.613 L 730.481,147.523 L 730.434,147.469 L 730.386,147.093 L 730.43,147.024 L 730.498,146.939 L 730.604,146.878 L 730.594,146.784 L 730.655,146.765 L 730.718,146.76 L 730.739,146.695 L 730.787,146.624 L 730.866,146.605 L 730.974,146.605 L 731.066,146.594 L 731.145,146.556 L 731.205,146.537 L 731.264,146.519 L 731.327,146.518 L 731.445,146.483 L 731.516,146.492 L 731.577,146.519 L 731.653,146.565 L 731.721,146.576 L 731.788,146.53 L 731.81,146.449 L 731.847,146.383 L 731.915,146.341 L 731.975,146.391 L 732.035,146.353 L 732.082,146.307 L 732.154,146.239 L 732.22,146.146 L 732.279,146.041 L 732.273,145.976 L 732.323,145.91 L 732.363,145.823 L 732.392,145.712 L 738.591,146.909"
       id="path15321"
       style="fill-rule:evenodd" />
    <path
       name="saugus" d="M 743.168,161.05 L 743.059,161.193 L 743.068,161.391 L 743.163,161.475 L 743.359,161.286 L 743.595,161.254 L 743.791,161.18 L 743.893,161.165 L 744.256,161.201 L 744.471,161.298 L 744.667,161.387 L 744.704,161.459 L 744.675,161.547 L 744.71,161.656 L 744.822,161.643 L 744.732,161.763 L 744.661,161.75 L 744.606,161.696 L 744.534,161.521 L 744.359,161.381 L 744.123,161.328 L 743.722,161.424 L 743.509,161.443 L 743.439,161.498 L 743.221,161.823 L 743.142,161.879 L 743.04,161.888 L 742.953,161.81 L 742.912,161.65 L 742.849,161.58 L 742.597,161.56 L 742.478,161.473 L 742.384,161.482 L 742.306,161.584 L 742.234,161.536 L 742.25,161.437 L 742.375,161.331 L 742.437,161.189 L 742.57,161.117 L 742.909,161.116 L 743.042,161.029 L 743.168,161.05"
       id="path15359"
       style="fill-rule:evenodd" />
    <path
       name="saugus" d="M 745.05,161.777 L 745.152,161.691 L 745.368,161.509 L 745.463,161.5 L 745.471,161.586 L 745.198,161.895 L 745.05,162.157 L 745.061,162.622 L 745.007,162.85 L 744.96,162.92 L 744.858,162.888 L 744.848,162.523 L 744.843,162.37 L 744.858,162.311 L 744.873,162.235 L 744.903,162.157 L 744.944,162.037 L 745.028,161.831 L 745.05,161.777"
       id="path15361"
       style="fill-rule:evenodd" />       
   </g>
</svg>