<svg
   xmlns:svg="http://www.w3.org/2000/svg"
   xmlns="http://www.w3.org/2000/svg"
   version="1.0"
   width="2100"
   height="1300"
   viewBox="0 0 2100 1300"
   id="svg14921">
   <g
     transform="matrix(2.2640019,0,0,2.2640019,-216.71416,-21.6991)"
     id="g14955"
     style="font-size:16.25px;font-style:normal;font-weight:400;fill:#fefee9;fill-opacity:1;fill-rule:evenodd;stroke:#000000;stroke-width:0.0984252;stroke-linecap:square;stroke-linejoin:bevel;stroke-opacity:1;font-family:Lucida Grande">
    <path
       name="seekonk" d="M 665.455,353.051 L 665.946,362.866 L 665.938,363.135 L 667.662,397.296 L 661.505,397.136 L 661.143,396.933 L 658.483,395.435 L 658.422,395.398 L 658.38,395.351 L 658.341,395.284 L 658.327,395.218 L 658.317,395.143 L 658.304,394.999 L 658.298,394.86 L 658.198,394.686 L 658.172,394.862 L 658.164,394.927 L 658.113,394.976 L 658.072,394.931 L 658.04,394.839 L 658.022,394.766 L 658.041,394.644 L 658.065,394.538 L 658.047,394.475 L 658.023,394.41 L 658.03,394.316 L 658.038,394.206 L 658.02,394.141 L 658.004,394.052 L 657.958,393.937 L 657.928,393.811 L 657.912,393.705 L 657.922,393.644 L 657.959,393.569 L 658.018,393.46 L 658.025,393.364 L 658.074,393.201 L 658.083,393.081 L 658.083,392.969 L 658.084,392.894 L 658.104,392.839 L 658.129,392.778 L 658.06,392.695 L 657.96,392.66 L 657.906,392.596 L 657.888,392.538 L 657.861,392.481 L 657.796,392.466 L 657.748,392.421 L 657.768,392.352 L 657.715,392.327 L 657.65,392.374 L 657.585,392.307 L 657.533,392.268 L 657.456,392.231 L 657.385,392.123 L 657.363,392.041 L 657.401,391.98 L 657.455,391.944 L 657.53,391.883 L 657.493,391.832 L 657.424,391.797 L 657.376,391.761 L 657.345,391.712 L 657.303,391.648 L 657.232,391.616 L 657.214,391.557 L 657.263,391.504 L 657.292,391.435 L 657.233,391.4 L 657.265,391.351 L 657.256,391.288 L 657.205,391.26 L 657.217,391.194 L 657.222,391.127 L 657.161,391.127 L 657.098,391.07 L 657.082,390.98 L 657.037,390.905 L 657.011,390.838 L 656.942,390.785 L 656.932,390.717 L 656.92,390.624 L 656.88,390.569 L 656.811,390.55 L 656.73,390.491 L 656.681,390.436 L 656.606,390.407 L 656.504,390.421 L 656.441,390.429 L 656.341,390.426 L 656.278,390.42 L 656.22,390.4 L 656.173,390.363 L 656.104,390.318 L 655.954,390.205 L 655.877,390.189 L 655.795,390.189 L 655.726,390.146 L 655.67,390.111 L 655.57,390.094 L 655.538,390.029 L 655.491,389.966 L 655.438,389.923 L 655.392,389.872 L 655.357,389.825 L 655.323,389.772 L 655.291,389.676 L 655.297,389.603 L 655.294,389.499 L 655.253,389.456 L 655.188,389.411 L 655.103,389.346 L 655.087,389.289 L 655.103,389.216 L 655.144,389.155 L 655.185,389.094 L 655.191,389.029 L 655.149,388.965 L 655.107,388.88 L 655.109,388.815 L 655.087,388.744 L 655.063,388.676 L 655.077,388.589 L 655.098,388.516 L 655.098,388.451 L 655.135,388.327 L 655.184,388.246 L 655.221,388.17 L 655.211,388.113 L 655.171,388.054 L 655.167,387.979 L 655.189,387.922 L 655.204,387.855 L 655.249,387.747 L 655.314,387.674 L 655.359,387.607 L 655.458,387.248 L 655.471,387.101 L 655.485,387.016 L 655.494,386.939 L 655.468,386.879 L 655.45,386.804 L 655.491,386.698 L 655.456,386.627 L 655.467,386.558 L 655.52,386.497 L 655.553,386.424 L 655.61,386.229 L 655.617,386.109 L 655.588,386.054 L 655.554,385.991 L 655.569,385.903 L 655.571,385.822 L 653.468,380.749 L 654.047,379.238 L 656.567,376.48 L 654.754,373.401 L 656.782,367.567 L 656.903,367.218 L 655.744,362.886 L 655.123,360.583 L 655.656,354.804 L 665.455,353.051"
       id="path15873"
       style="fill-rule:evenodd" />
   </g>
</svg>