<svg
   xmlns:svg="http://www.w3.org/2000/svg"
   xmlns="http://www.w3.org/2000/svg"
   version="1.0"
   width="2100"
   height="1300"
   viewBox="0 0 2100 1300"
   id="svg14921">
   <g
     transform="matrix(2.2640019,0,0,2.2640019,-216.71416,-21.6991)"
     id="g14955"
     style="font-size:16.25px;font-style:normal;font-weight:400;fill:#fefee9;fill-opacity:1;fill-rule:evenodd;stroke:#000000;stroke-width:0.0984252;stroke-linecap:square;stroke-linejoin:bevel;stroke-opacity:1;font-family:Lucida Grande">
    <path
       name="shirley" d="M 573.404,101.246 L 573.458,101.314 L 573.539,101.397 L 573.602,101.483 L 573.634,101.538 L 573.673,101.585 L 573.726,101.617 L 573.811,101.615 L 573.864,101.549 L 573.905,101.506 L 573.974,101.49 L 574.033,101.539 L 574.053,101.616 L 574.053,101.707 L 574.063,101.763 L 574.086,101.818 L 574.151,101.915 L 574.198,101.952 L 574.265,101.997 L 574.344,102.056 L 574.44,102.134 L 574.74,102.364 L 575.031,102.611 L 575.194,102.784 L 575.261,102.841 L 575.342,102.866 L 575.45,102.883 L 575.533,102.909 L 575.596,102.944 L 575.663,102.989 L 575.737,103.066 L 575.802,103.119 L 575.859,103.181 L 575.893,103.254 L 575.903,103.325 L 575.94,103.39 L 576.005,103.38 L 576.029,103.462 L 576.045,103.559 L 576.062,103.62 L 576.092,103.692 L 576.119,103.753 L 576.171,103.82 L 576.228,103.9 L 576.214,103.96 L 576.151,103.995 L 576.059,104.031 L 576.039,104.1 L 576.096,104.174 L 576.145,104.212 L 576.236,104.282 L 576.291,104.347 L 576.293,104.416 L 576.274,104.489 L 576.325,104.522 L 576.401,104.561 L 576.447,104.6 L 576.488,104.642 L 576.553,104.714 L 576.694,104.781 L 576.808,104.763 L 576.842,104.656 L 576.824,104.586 L 576.869,104.499 L 576.85,104.444 L 576.779,104.363 L 576.765,104.291 L 576.8,104.23 L 576.897,104.259 L 576.928,104.31 L 576.954,104.371 L 577.001,104.426 L 577.078,104.459 L 577.157,104.516 L 577.182,104.591 L 577.159,104.644 L 577.112,104.715 L 577.097,104.793 L 577.092,104.866 L 577.118,104.962 L 577.155,105.016 L 577.246,104.992 L 577.349,104.965 L 577.388,104.898 L 577.395,104.833 L 577.411,104.77 L 577.495,104.811 L 577.505,104.9 L 577.51,104.971 L 577.51,105.05 L 577.467,105.146 L 577.478,105.217 L 577.536,105.258 L 577.546,105.349 L 577.487,105.347 L 577.392,105.283 L 577.331,105.228 L 577.242,105.234 L 577.211,105.291 L 577.21,105.362 L 577.223,105.419 L 577.261,105.486 L 577.328,105.522 L 577.392,105.528 L 577.475,105.524 L 577.561,105.536 L 577.586,105.62 L 577.567,105.727 L 577.444,105.784 L 577.356,105.872 L 577.381,105.941 L 577.474,105.919 L 577.541,105.929 L 577.608,105.957 L 577.667,105.985 L 577.727,106.04 L 577.75,106.109 L 577.759,106.192 L 577.747,106.28 L 577.726,106.392 L 577.73,106.477 L 577.729,106.56 L 577.715,106.638 L 577.649,106.697 L 577.596,106.794 L 577.571,106.884 L 577.53,106.951 L 577.519,107.008 L 577.513,107.085 L 577.507,107.178 L 577.502,107.268 L 577.539,107.365 L 577.612,107.369 L 577.7,107.377 L 577.769,107.387 L 577.838,107.438 L 577.82,107.511 L 577.751,107.552 L 577.672,107.605 L 577.648,107.67 L 577.677,107.753 L 577.699,107.845 L 577.747,107.926 L 577.795,107.977 L 577.873,108.046 L 577.936,108.131 L 577.983,108.209 L 578.012,108.294 L 578.067,108.343 L 578.14,108.351 L 578.215,108.373 L 578.27,108.399 L 578.36,108.442 L 578.521,108.502 L 578.588,108.496 L 578.684,108.49 L 578.771,108.557 L 578.84,108.632 L 578.897,108.677 L 578.993,108.701 L 579.072,108.677 L 579.162,108.703 L 579.229,108.76 L 579.276,108.843 L 579.323,108.89 L 579.398,108.926 L 579.481,108.937 L 579.579,108.951 L 579.662,108.989 L 579.785,109.052 L 579.848,109.074 L 579.953,109.017 L 580.053,108.997 L 580.193,109.011 L 580.228,109.086 L 580.226,109.149 L 580.196,109.223 L 580.137,109.304 L 580.092,109.377 L 580.062,109.438 L 580.021,109.483 L 579.954,109.532 L 579.842,109.553 L 579.753,109.664 L 579.761,109.74 L 579.79,109.815 L 579.831,109.902 L 579.871,109.959 L 579.908,110.032 L 579.947,110.118 L 579.994,110.191 L 580.047,110.268 L 580.11,110.331 L 580.173,110.402 L 580.232,110.443 L 580.303,110.489 L 580.362,110.522 L 580.417,110.577 L 580.439,110.646 L 580.513,110.719 L 580.57,110.729 L 580.641,110.745 L 580.712,110.731 L 580.793,110.719 L 580.897,110.735 L 580.968,110.753 L 581.033,110.791 L 581.111,110.873 L 581.107,110.936 L 581.083,111.003 L 581.072,111.08 L 581.064,111.149 L 581.069,111.259 L 581.134,111.332 L 581.154,111.42 L 581.16,111.485 L 581.159,111.566 L 581.143,111.629 L 581.11,111.717 L 581.092,111.833 L 581.064,111.967 L 581.066,112.134 L 581.119,112.233 L 581.198,112.325 L 581.221,112.43 L 581.268,112.485 L 581.347,112.526 L 581.404,112.544 L 581.459,112.485 L 581.487,112.424 L 581.495,112.357 L 581.524,112.288 L 581.566,112.233 L 581.727,112.204 L 581.735,112.294 L 581.735,112.375 L 581.74,112.436 L 581.74,112.499 L 581.679,112.69 L 581.604,112.922 L 581.56,113.046 L 581.535,113.136 L 581.576,113.209 L 581.635,113.251 L 581.737,113.312 L 581.814,113.402 L 581.861,113.487 L 581.914,113.633 L 581.957,113.694 L 582.039,113.776 L 582.063,113.837 L 582.071,113.912 L 582.063,113.999 L 582.049,114.144 L 582.056,114.339 L 582.095,114.55 L 582.107,114.656 L 582.091,114.725 L 582.059,114.784 L 582.045,114.843 L 582.041,114.904 L 582.02,114.969 L 581.974,115.107 L 581.937,115.205 L 581.925,115.334 L 581.944,115.429 L 582.027,115.528 L 582.084,115.553 L 582.178,115.573 L 582.306,115.589 L 582.404,115.605 L 582.514,115.659 L 582.587,115.69 L 582.666,115.727 L 582.741,115.77 L 582.794,115.836 L 582.816,115.925 L 582.816,116.037 L 582.805,116.153 L 582.764,116.291 L 582.721,116.35 L 582.682,116.411 L 582.657,116.512 L 582.679,116.571 L 582.722,116.669 L 582.983,116.978 L 583.35,117.323 L 583.645,117.693 L 583.718,117.722 L 583.844,117.718 L 583.96,117.739 L 583.993,117.799 L 584.023,117.868 L 584.021,117.937 L 583.953,118.024 L 583.907,118.211 L 583.966,118.256 L 584.056,118.204 L 584.134,118.133 L 584.187,118.099 L 584.244,118.087 L 584.317,118.123 L 584.416,118.167 L 584.536,118.174 L 584.634,118.184 L 584.685,118.154 L 584.763,118.108 L 584.846,118.12 L 584.927,118.088 L 585.021,118.105 L 585.22,118.385 L 585.229,118.474 L 585.184,118.537 L 585.127,118.572 L 585.054,118.624 L 585.007,118.668 L 584.996,118.752 L 585.016,118.848 L 585.069,118.941 L 585.116,119.019 L 585.201,119.081 L 585.289,119.134 L 585.384,119.177 L 585.441,119.261 L 585.427,119.328 L 585.367,119.415 L 585.336,119.507 L 585.346,119.617 L 585.395,119.649 L 585.479,119.621 L 585.542,119.591 L 585.619,119.557 L 585.693,119.554 L 585.795,119.513 L 585.875,119.475 L 586.029,119.429 L 586.196,119.444 L 586.247,119.524 L 586.234,119.626 L 586.108,119.717 L 585.975,119.879 L 586.017,119.926 L 586.097,119.91 L 586.325,119.866 L 586.357,119.993 L 586.306,120.092 L 586.28,120.222 L 586.27,120.332 L 586.275,120.494 L 586.314,120.651 L 586.34,120.822 L 586.327,120.907 L 586.279,121.009 L 586.171,121.075 L 585.939,121.131 L 585.684,121.182 L 585.545,121.238 L 585.457,121.283 L 585.377,121.363 L 585.328,121.416 L 585.301,121.473 L 585.272,121.578 L 585.265,121.733 L 585.255,121.814 L 585.228,121.902 L 585.075,121.935 L 584.922,121.938 L 584.837,121.946 L 584.768,121.974 L 584.698,122.025 L 584.661,122.116 L 584.657,122.179 L 584.677,122.24 L 584.742,122.34 L 584.823,122.414 L 584.896,122.457 L 584.954,122.484 L 585.011,122.527 L 585.048,122.576 L 585.074,122.649 L 585.094,122.726 L 585.156,122.88 L 585.182,122.939 L 585.3,122.99 L 585.458,123.009 L 585.527,123.032 L 585.601,123.057 L 585.643,123.104 L 585.71,123.196 L 585.734,123.255 L 585.744,123.316 L 585.743,123.407 L 585.731,123.501 L 585.73,123.6 L 585.808,123.963 L 585.858,124.095 L 585.884,124.154 L 585.949,124.238 L 586.83,124.631 L 586.95,124.693 L 587.013,124.762 L 587.077,124.821 L 587.094,124.876 L 587.095,124.964 L 587.04,125.047 L 586.972,125.083 L 586.897,125.101 L 586.793,125.139 L 586.726,125.163 L 586.647,125.2 L 586.581,125.303 L 586.562,125.47 L 586.556,125.584 L 586.539,125.653 L 586.52,125.708 L 586.475,125.781 L 586.41,125.853 L 586.334,125.927 L 586.243,125.995 L 586.183,126.074 L 586.093,126.18 L 586.034,126.261 L 585.999,126.315 L 585.968,126.401 L 585.625,127.335 L 585.575,127.457 L 585.566,127.607 L 585.582,127.713 L 585.652,127.992 L 585.745,128.309 L 585.813,128.458 L 585.91,128.656 L 585.974,128.874 L 585.996,128.947 L 585.991,129.025 L 585.977,129.112 L 585.958,129.173 L 585.922,129.236 L 585.883,129.287 L 585.805,129.316 L 585.681,129.316 L 585.47,129.343 L 585.311,129.348 L 585.082,129.349 L 584.898,129.346 L 584.628,129.42 L 584.348,129.496 L 584.232,129.541 L 584.053,129.576 L 583.821,129.639 L 583.627,129.758 L 583.227,130.022 L 582.909,130.251 L 582.76,130.354 L 582.499,130.456 L 582.337,130.564 L 582.179,130.711 L 582.011,130.845 L 581.812,130.992 L 581.533,131.191 L 581.479,131.275 L 581.422,131.425 L 581.327,131.617 L 581.227,131.769 L 581.126,131.91 L 581.029,132.016 L 580.884,132.138 L 580.789,132.23 L 580.726,132.293 L 580.661,132.374 L 580.598,132.462 L 580.552,132.586 L 580.519,132.726 L 580.469,132.883 L 580.41,133.066 L 580.331,133.255 L 580.214,133.455 L 580.112,133.619 L 580.062,133.691 L 579.984,133.752 L 579.883,133.815 L 579.798,133.841 L 579.659,133.878 L 579.59,133.944 L 579.548,133.998 L 579.519,134.076 L 579.493,134.2 L 579.471,134.379 L 579.465,134.56 L 579.44,134.889 L 579.414,135.095 L 579.398,135.274 L 579.407,135.92 L 579.397,136.191 L 579.387,136.28 L 579.336,136.354 L 579.2,136.488 L 579.064,136.608 L 578.959,136.698 L 578.859,136.79 L 578.778,136.873 L 578.726,136.995 L 578.722,137.07 L 578.716,137.184 L 578.722,137.306 L 578.757,137.786 L 578.776,137.878 L 578.858,138.012 L 579.029,138.327 L 579.139,138.507 L 579.423,138.991 L 579.553,139.225 L 579.59,139.341 L 579.623,139.418 L 579.617,139.517 L 568.632,137.263 L 572.327,109.313 L 572.951,104.706 L 573.404,101.246"
       id="path15177"
       style="fill-rule:evenodd" />
   </g>
</svg>