<svg
   xmlns:svg="http://www.w3.org/2000/svg"
   xmlns="http://www.w3.org/2000/svg"
   version="1.0"
   width="2100"
   height="1300"
   viewBox="0 0 2100 1300"
   id="svg14921">
   <g
     transform="matrix(2.2640019,0,0,2.2640019,-216.71416,-21.6991)"
     id="g14955"
     style="font-size:16.25px;font-style:normal;font-weight:400;fill:#fefee9;fill-opacity:1;fill-rule:evenodd;stroke:#000000;stroke-width:0.0984252;stroke-linecap:square;stroke-linejoin:bevel;stroke-opacity:1;font-family:Lucida Grande">
    <path
       name="somerset" d="M 711.067,391.918 L 711.006,392.093 L 710.999,392.273 L 710.929,392.517 L 710.921,392.598 L 710.994,392.847 L 711.002,392.974 L 711.034,393.076 L 711.209,393.384 L 711.209,393.502 L 711.266,393.683 L 711.392,393.856 L 711.416,393.942 L 711.403,394.389 L 711.743,394.736 L 711.783,394.806 L 711.77,395.38 L 711.74,395.657 L 711.765,395.932 L 711.797,396.009 L 712.384,396.786 L 712.377,396.919 L 712.245,397.447 L 712.097,397.632 L 712.027,397.773 L 712.012,397.978 L 712.036,398.033 L 712.037,398.238 L 711.95,398.253 L 711.871,398.199 L 711.832,398.095 L 711.799,397.829 L 711.727,397.639 L 711.553,397.564 L 711.435,397.651 L 711.365,397.783 L 711.344,398.218 L 711.195,398.424 L 711.149,398.549 L 710.961,398.747 L 710.869,398.881 L 710.886,399.188 L 710.753,399.44 L 710.714,399.575 L 710.652,399.7 L 710.432,399.946 L 710.433,400.079 L 710.48,400.158 L 710.449,400.317 L 710.261,400.497 L 710.23,400.594 L 710.199,400.812 L 710.168,400.909 L 710.089,400.948 L 709.837,400.987 L 709.451,400.793 L 709.294,400.785 L 708.396,400.929 L 708.35,401.033 L 708.328,401.459 L 708.454,401.703 L 708.471,402.031 L 708.551,402.227 L 708.575,402.307 L 708.647,402.718 L 708.57,403.102 L 708.594,403.237 L 708.579,403.473 L 708.408,404.086 L 708.197,404.592 L 708.174,404.757 L 708.198,404.843 L 708.262,405.008 L 708.294,405.175 L 708.287,405.364 L 708.232,405.45 L 707.973,405.594 L 707.926,405.766 L 707.951,406.342 L 707.904,406.492 L 707.834,406.587 L 707.638,406.723 L 707.363,406.976 L 707.341,407.321 L 707.301,407.384 L 706.979,407.521 L 706.877,407.648 L 706.855,408.055 L 706.683,408.261 L 706.423,408.39 L 706.487,408.552 L 706.503,408.735 L 705.643,410.314 L 705.541,410.447 L 705.494,410.572 L 705.4,410.715 L 705.117,410.906 L 704.819,411.166 L 704.583,411.263 L 703.985,411.32 L 703.914,411.437 L 703.885,411.903 L 703.621,412.975 L 703.553,413.628 L 703.459,413.745 L 703.239,413.919 L 703.066,414.095 L 702.91,414.425 L 702.824,414.521 L 702.588,414.649 L 702.384,414.828 L 702.251,414.993 L 702.078,415.287 L 701.874,415.476 L 701.466,415.745 L 700.658,416.473 L 700.462,416.757 L 700.234,417.003 L 700.149,417.371 L 700.063,417.507 L 699.882,417.664 L 699.56,417.848 L 699.356,418.021 L 699.152,418.148 L 698.641,418.284 L 698.499,418.356 L 698.429,418.426 L 698.343,418.671 L 698.076,419.026 L 697.864,419.209 L 697.416,419.368 L 697.315,419.55 L 697.205,419.675 L 697.063,419.747 L 696.772,419.765 L 696.339,419.694 L 696.118,419.586 L 695.628,419.224 L 695.178,418.983 L 694.761,418.89 L 694.249,419.01 L 694.14,419.097 L 694.132,419.293 L 694.18,419.49 L 694.346,419.584 L 694.574,419.621 L 694.654,419.718 L 694.701,419.85 L 694.71,420.101 L 694.514,420.268 L 694.152,420.269 L 693.836,420.207 L 693.726,420.161 L 693.624,420.201 L 693.334,420.541 L 693.224,420.613 L 693.035,420.637 L 692.963,420.446 L 692.946,420.069 L 692.906,419.983 L 692.794,419.543 L 692.785,419.038 L 692.863,418.716 L 692.972,418.558 L 693.184,418.338 L 693.412,418.216 L 693.537,417.964 L 693.628,417.161 L 693.689,416.601 L 693.847,416.553 L 693.965,416.553 L 694.201,416.664 L 694.257,416.724 L 694.257,416.821 L 693.741,417.853 L 693.742,417.949 L 693.789,418.01 L 693.868,418.01 L 694.525,416.85 L 694.501,416.758 L 694.501,416.686 L 694.343,416.536 L 694.114,416.388 L 693.728,416.287 L 693.507,416.281 L 693.405,416.405 L 693.338,417.471 L 693.307,417.571 L 693.165,417.494 L 693.015,417.328 L 692.943,417.163 L 692.935,416.937 L 692.965,416.635 L 693.027,416.432 L 693.066,416.384 L 693.058,416.139 L 692.844,415.904 L 692.852,415.81 L 692.993,415.784 L 693.214,415.871 L 693.332,415.88 L 693.411,415.84 L 693.489,415.751 L 693.497,415.612 L 693.354,415.408 L 693.354,415.225 L 693.471,415.184 L 693.566,415.25 L 694.103,415.758 L 694.301,415.811 L 694.268,415.592 L 694.109,415.16 L 694.062,415.08 L 693.935,415.034 L 693.872,414.965 L 693.895,414.853 L 694.029,414.765 L 694.059,414.482 L 694.02,414.365 L 693.925,414.247 L 693.877,414.112 L 693.868,413.774 L 693.741,413.579 L 693.576,413.485 L 693.693,413.215 L 693.842,413.217 L 693.833,412.894 L 693.77,412.816 L 693.667,412.75 L 693.635,412.664 L 693.776,412.288 L 693.965,412.357 L 694.028,412.309 L 694.073,411.672 L 694.174,411.489 L 694.504,411.175 L 694.606,411.023 L 694.684,410.835 L 694.755,410.787 L 694.802,410.819 L 694.834,410.89 L 694.952,410.961 L 694.96,411.078 L 694.992,411.133 L 695.086,411.124 L 695.126,411.07 L 695.092,410.668 L 695.116,410.525 L 695.303,410.122 L 695.334,409.802 L 695.184,409.738 L 695.057,409.621 L 694.963,409.565 L 694.923,409.504 L 694.932,409.407 L 694.943,409.298 L 694.953,409.186 L 694.96,409.119 L 694.95,408.986 L 695.118,408.968 L 695.125,408.84 L 694.991,408.683 L 694.982,408.55 L 694.88,408.416 L 694.824,408.251 L 694.831,408.117 L 694.878,407.951 L 694.79,407.855 L 702.798,409.461 L 702.993,405.773 L 703.513,392.183 L 710.813,391.877 L 710.804,391.689 L 710.917,391.688 L 711.013,391.684 L 711.067,391.918"
       id="path15929"
       style="fill-rule:evenodd" />
    <path
       name="somerset" d="M 694.163,407.729 L 694.035,407.765 L 694.017,407.7 L 694.163,407.729"
       id="path15955"
       style="fill-rule:evenodd" />
    <path
       name="somerset" d="M 694.79,407.855 L 694.705,407.991 L 694.413,407.953 L 694.319,407.921 L 694.222,407.741 L 694.79,407.855"
       id="path15957"
       style="fill-rule:evenodd" />       
   </g>
</svg>