<svg
   xmlns:svg="http://www.w3.org/2000/svg"
   xmlns="http://www.w3.org/2000/svg"
   version="1.0"
   width="2100"
   height="1300"
   viewBox="0 0 2100 1300"
   id="svg14921">
   <g
     transform="matrix(2.2640019,0,0,2.2640019,-216.71416,-21.6991)"
     id="g14955"
     style="font-size:16.25px;font-style:normal;font-weight:400;fill:#fefee9;fill-opacity:1;fill-rule:evenodd;stroke:#000000;stroke-width:0.0984252;stroke-linecap:square;stroke-linejoin:bevel;stroke-opacity:1;font-family:Lucida Grande">
    <path
       name="southbridge" d="M 475.503,282.749 L 476.707,282.276 L 485.234,286.306 L 486.128,285.997 L 486.483,285.866 L 486.982,289.513 L 487.545,289.45 L 487.85,290.96 L 486.837,291.301 L 487.042,292.902 L 487.875,292.662 L 487.767,294.595 L 487.632,297.071 L 488.096,299.805 L 488.855,300.635 L 488.698,304.233 L 487.226,308.902 L 487.628,310.333 L 485.976,310.284 L 460.274,309.49 L 466.82,299.297 L 468.905,294.711 L 469.169,294.628 L 469.269,294.583 L 469.513,294.473 L 469.614,294.449 L 469.697,294.456 L 469.774,294.471 L 469.836,294.495 L 469.896,294.521 L 469.988,294.574 L 470.253,294.739 L 470.395,294.81 L 470.447,294.769 L 470.512,294.629 L 470.573,294.519 L 470.676,294.311 L 470.716,294.181 L 470.733,294.115 L 470.766,294.002 L 470.783,293.923 L 470.767,293.845 L 470.741,293.756 L 470.687,293.696 L 470.622,293.623 L 470.521,293.485 L 470.465,293.387 L 470.412,293.301 L 470.356,293.178 L 470.314,293.102 L 470.287,293.041 L 470.272,292.955 L 470.268,292.881 L 470.285,292.776 L 470.464,292.161 L 470.518,292.055 L 470.574,291.925 L 470.629,291.805 L 470.707,291.695 L 470.763,291.632 L 470.844,291.577 L 470.941,291.525 L 471.034,291.451 L 471.196,291.294 L 471.312,291.183 L 471.503,291.011 L 471.607,290.975 L 471.711,290.972 L 471.909,291.005 L 471.998,291.033 L 472.136,291.111 L 472.248,291.174 L 472.611,289.043 L 474.026,283.877 L 475.617,283.649 L 475.503,282.749"
       id="path15767"
       style="fill-rule:evenodd" />
   </g>
</svg>