<svg
   xmlns:svg="http://www.w3.org/2000/svg"
   xmlns="http://www.w3.org/2000/svg"
   version="1.0"
   width="2100"
   height="1300"
   viewBox="0 0 2100 1300"
   id="svg14921">
   <g
     transform="matrix(2.2640019,0,0,2.2640019,-216.71416,-21.6991)"
     id="g14955"
     style="font-size:16.25px;font-style:normal;font-weight:400;fill:#fefee9;fill-opacity:1;fill-rule:evenodd;stroke:#000000;stroke-width:0.0984252;stroke-linecap:square;stroke-linejoin:bevel;stroke-opacity:1;font-family:Lucida Grande">
    <path
       name="stoughton" d="M 727.764,266.7 L 726.052,271.042 L 725.9,271.38 L 725.732,271.709 L 725.511,272.059 L 724.141,274.17 L 724.885,276.587 L 726.865,282.84 L 726.616,284.154 L 721.716,286.789 L 710.488,292.772 L 706.854,294.674 L 706.747,293.916 L 706.909,293.372 L 706.808,293.297 L 706.783,293.227 L 706.743,293.166 L 706.709,293.065 L 706.668,292.979 L 706.646,292.891 L 706.63,292.804 L 706.618,292.721 L 706.62,292.631 L 706.626,292.483 L 706.635,292.361 L 706.633,292.264 L 706.631,292.162 L 706.615,292.083 L 706.599,291.983 L 706.581,291.894 L 706.561,291.811 L 706.58,291.725 L 706.609,291.555 L 706.649,291.439 L 706.694,291.297 L 706.758,291.177 L 706.803,290.922 L 706.781,290.818 L 706.686,290.671 L 706.656,290.608 L 706.642,290.523 L 706.654,290.407 L 706.695,290.235 L 706.773,290.066 L 706.865,289.845 L 706.948,289.675 L 707.09,289.06 L 707.155,288.985 L 707.225,288.931 L 707.294,288.836 L 707.394,288.72 L 707.43,288.653 L 707.482,288.491 L 707.666,287.931 L 707.756,287.562 L 707.855,287.255 L 707.926,287.095 L 708.01,286.874 L 708.09,286.659 L 708.165,286.52 L 708.233,286.392 L 708.271,286.305 L 708.3,286.185 L 708.339,286.025 L 708.374,285.797 L 708.411,285.649 L 708.434,285.56 L 708.503,285.44 L 708.568,285.258 L 708.66,285.047 L 708.706,284.889 L 708.728,284.741 L 708.73,284.668 L 708.708,284.523 L 708.692,284.324 L 708.616,283.946 L 708.58,283.656 L 708.597,283.197 L 708.526,282.955 L 708.606,282.943 L 708.574,282.794 L 708.525,282.682 L 708.495,282.569 L 708.43,282.438 L 708.361,282.239 L 708.305,282.082 L 708.232,281.82 L 708.186,281.593 L 708.147,281.45 L 708.111,281.369 L 708.052,281.291 L 708.019,281.238 L 707.957,281.181 L 707.669,280.843 L 707.545,280.694 L 707.523,280.637 L 707.492,280.55 L 707.468,280.428 L 707.446,280.251 L 707.404,280.115 L 707.333,279.862 L 707.182,279.441 L 707.036,279.084 L 706.905,278.762 L 706.801,278.574 L 706.713,278.415 L 706.605,278.237 L 706.529,278.136 L 706.435,278.042 L 706.336,277.933 L 704.972,276.693 L 704.637,276.307 L 704.595,276.244 L 704.271,275.573 L 704.26,275.41 L 704.263,275.033 L 704.261,274.811 L 704.247,274.744 L 704.217,274.618 L 704.1,274.252 L 703.882,273.651 L 703.847,273.386 L 703.817,273.096 L 703.809,272.838 L 704.057,272.053 L 705.221,272.367 L 706.181,272.251 L 706.412,271.618 L 706.693,271.511 L 706.703,271.42 L 706.714,271.328 L 706.724,271.231 L 706.718,271.163 L 706.688,271.108 L 706.717,271.025 L 706.742,270.899 L 706.84,270.837 L 706.88,270.782 L 706.952,270.711 L 707.61,270.913 L 707.736,270.263 L 708.658,270.585 L 708.666,270.68 L 708.467,271.755 L 708.491,271.81 L 710.378,271.192 L 717.811,268.766 L 725.184,263.172 L 727.764,266.7"
       id="path15725"
       style="fill-rule:evenodd" />
   </g>
</svg>