<svg
   xmlns:svg="http://www.w3.org/2000/svg"
   xmlns="http://www.w3.org/2000/svg"
   version="1.0"
   width="2100"
   height="1300"
   viewBox="0 0 2100 1300"
   id="svg14921">
   <g
     transform="matrix(2.2640019,0,0,2.2640019,-216.71416,-21.6991)"
     id="g14955"
     style="font-size:16.25px;font-style:normal;font-weight:400;fill:#fefee9;fill-opacity:1;fill-rule:evenodd;stroke:#000000;stroke-width:0.0984252;stroke-linecap:square;stroke-linejoin:bevel;stroke-opacity:1;font-family:Lucida Grande">
    <path
       name="sutton" d="M 556.96,253.954 L 558.22,260.336 L 564.217,259.357 L 565.161,263.718 L 564.588,264.4 L 564.911,266.729 L 565.161,268.517 L 564.55,272.993 L 561.729,276.767 L 561.797,276.807 L 564.999,278.467 L 560.935,285.502 L 566.645,282.971 L 568.064,284.291 L 568.066,285.416 L 563.807,286.433 L 563.81,287.075 L 550.214,290.501 L 545.425,291.682 L 543.778,285.276 L 539.222,285.14 L 538.008,285.661 L 533.989,276.72 L 532.702,273.883 L 529.724,275.229 L 529.14,270.26 L 529.724,269.918 L 550.304,257.839 L 551.655,257.016 L 552.567,258.146 L 554.32,256.679 L 554.287,255.559 L 556.96,253.954"
       id="path15689"
       style="fill-rule:evenodd" />
   </g>
</svg>