<svg
   xmlns:svg="http://www.w3.org/2000/svg"
   xmlns="http://www.w3.org/2000/svg"
   version="1.0"
   width="2100"
   height="1300"
   viewBox="0 0 2100 1300"
   id="svg14921">
   <g
     transform="matrix(2.2640019,0,0,2.2640019,-216.71416,-21.6991)"
     id="g14955"
     style="font-size:16.25px;font-style:normal;font-weight:400;fill:#fefee9;fill-opacity:1;fill-rule:evenodd;stroke:#000000;stroke-width:0.0984252;stroke-linecap:square;stroke-linejoin:bevel;stroke-opacity:1;font-family:Lucida Grande">
    <path
       name="swampscott" d="M 767.319,152.554 L 772.284,154.541 L 772.183,154.651 L 771.66,155.355 L 771.364,155.829 L 771.015,156.596 L 770.671,157.111 L 770.228,157.878 L 770.127,158.114 L 770.129,158.38 L 770.193,158.571 L 770.287,158.593 L 770.438,158.672 L 770.454,158.78 L 770.415,158.908 L 770.589,158.978 L 770.653,159.047 L 770.654,159.159 L 770.567,159.23 L 770.505,159.371 L 770.419,159.364 L 770.387,159.294 L 770.088,159.436 L 769.86,159.455 L 769.751,159.564 L 769.641,159.62 L 769.578,159.715 L 769.476,159.805 L 769.446,159.92 L 769.367,159.938 L 769.319,159.89 L 769.154,159.876 L 769.068,159.956 L 768.975,160.114 L 768.944,160.279 L 768.827,160.413 L 768.52,160.44 L 768.473,160.504 L 768.458,160.603 L 768.553,160.731 L 768.554,160.802 L 768.475,160.864 L 768.216,160.859 L 768.16,160.836 L 768.088,160.639 L 767.915,160.626 L 767.82,160.498 L 767.725,160.501 L 767.488,160.353 L 767.038,160.149 L 767.052,159.954 L 767.058,159.739 L 766.995,159.695 L 766.467,159.555 L 766.309,159.563 L 766.137,159.621 L 766.066,159.691 L 765.798,159.687 L 765.587,159.798 L 765.533,159.98 L 765.454,160.044 L 765.171,160.077 L 765.052,159.975 L 765.043,159.833 L 765.066,159.77 L 765.347,159.39 L 765.44,159.105 L 765.4,159.019 L 765.226,158.807 L 765.083,158.716 L 764.618,158.614 L 763.94,158.548 L 763.815,158.66 L 763.705,158.762 L 763.209,158.774 L 762.807,158.659 L 762.633,158.558 L 762.592,158.336 L 762.529,158.307 L 762.348,158.306 L 761.821,158.461 L 761.497,158.697 L 758.378,150.515 L 765.406,152.689 L 765.598,152.591 L 765.704,152.521 L 765.763,152.496 L 765.852,152.477 L 766.212,152.426 L 766.391,152.378 L 766.613,152.364 L 766.723,152.373 L 766.925,152.463 L 767.072,152.523 L 767.184,152.545 L 767.319,152.554"
       id="path15333"
       style="fill-rule:evenodd" />
   </g>
</svg>