<svg
   xmlns:svg="http://www.w3.org/2000/svg"
   xmlns="http://www.w3.org/2000/svg"
   version="1.0"
   width="2100"
   height="1300"
   viewBox="0 0 2100 1300"
   id="svg14921">
   <g
     transform="matrix(2.2640019,0,0,2.2640019,-216.71416,-21.6991)"
     id="g14955"
     style="font-size:16.25px;font-style:normal;font-weight:400;fill:#fefee9;fill-opacity:1;fill-rule:evenodd;stroke:#000000;stroke-width:0.0984252;stroke-linecap:square;stroke-linejoin:bevel;stroke-opacity:1;font-family:Lucida Grande">
    <path
       name="swansea" d="M 703.513,392.183 L 702.993,405.773 L 702.798,409.461 L 694.79,407.855 L 694.222,407.741 L 694.163,407.729 L 694.017,407.7 L 694.035,407.765 L 693.972,407.807 L 694.004,408.048 L 694.107,408.129 L 694.351,408.252 L 694.557,408.417 L 694.699,408.676 L 694.897,408.921 L 694.846,409.175 L 694.765,409.471 L 694.664,409.874 L 694.461,410.165 L 694.281,410.614 L 694.179,410.695 L 694.077,410.704 L 693.99,410.647 L 693.907,409.515 L 693.97,409.38 L 694,409.097 L 693.851,409.067 L 693.811,409.114 L 693.71,409.421 L 693.704,409.862 L 693.657,410.012 L 693.65,410.254 L 693.667,410.446 L 693.62,410.618 L 693.621,410.878 L 693.779,411.082 L 693.819,411.217 L 693.804,411.366 L 693.475,411.909 L 693.484,412.061 L 693.553,412.115 L 693.402,412.618 L 693.218,412.611 L 693.101,412.857 L 693.125,412.943 L 693.387,413.064 L 693.376,413.436 L 693.26,413.407 L 693.261,413.668 L 693.191,413.896 L 693.176,414.014 L 693.129,414.131 L 692.847,414.433 L 692.745,414.582 L 692.628,414.899 L 692.638,415.519 L 692.618,415.686 L 692.608,415.766 L 692.596,415.871 L 692.584,415.973 L 692.546,416.291 L 692.492,416.416 L 692.382,416.553 L 692.132,416.979 L 691.348,418.013 L 691.309,418.225 L 691.123,418.81 L 691.037,419.179 L 690.731,419.423 L 690.637,419.596 L 690.512,419.693 L 689.961,419.954 L 689.489,420.129 L 689.222,420.156 L 689.096,420.116 L 688.993,419.973 L 688.968,419.707 L 688.905,419.635 L 688.755,419.564 L 688.211,419.425 L 687.541,419.076 L 687.438,418.893 L 687.287,418.736 L 687.264,418.659 L 687.255,418.476 L 687.302,418.397 L 687.397,418.373 L 687.428,418.443 L 687.515,418.54 L 687.508,418.711 L 687.689,418.758 L 687.925,418.562 L 688.057,418.292 L 688.049,418.096 L 687.931,418.01 L 687.82,418.01 L 687.663,418.136 L 687.506,418.215 L 687.459,418.176 L 687.466,418.005 L 687.497,417.917 L 687.654,417.782 L 687.859,417.773 L 688.158,417.867 L 688.261,417.82 L 688.409,417.528 L 688.613,417.227 L 688.903,417.005 L 689.202,416.928 L 689.367,416.824 L 689.673,416.436 L 689.798,416.16 L 689.875,415.649 L 689.826,415.365 L 689.771,415.326 L 689.645,415.296 L 689.585,416.02 L 689.538,416.099 L 689.459,416.114 L 688.78,415.51 L 688.235,415.142 L 686.878,414.511 L 686.539,414.447 L 686.192,414.197 L 685.364,413.932 L 685.317,413.893 L 685.348,413.713 L 685.584,413.774 L 685.655,413.759 L 685.694,413.665 L 685.701,413.476 L 685.653,413.372 L 685.7,413.231 L 685.81,413.159 L 685.897,413.175 L 685.953,413.428 L 685.955,413.797 L 686.01,413.882 L 686.183,413.97 L 686.373,414.03 L 686.64,413.945 L 687.254,413.855 L 687.372,413.799 L 687.482,413.815 L 687.522,413.863 L 687.522,414.027 L 687.57,414.159 L 687.775,414.333 L 687.799,414.395 L 687.886,414.389 L 688.105,414.175 L 688.498,413.928 L 688.655,413.88 L 688.907,413.723 L 688.915,413.658 L 688.655,413.694 L 688.253,413.569 L 688.182,413.465 L 687.976,413.31 L 687.55,412.932 L 687.549,412.721 L 687.627,412.514 L 687.737,412.412 L 687.72,412.059 L 687.656,411.964 L 687.616,411.727 L 687.537,411.664 L 687.615,411.491 L 687.803,411.287 L 687.914,411.324 L 688.016,411.284 L 688.275,411.04 L 688.534,410.89 L 688.801,410.588 L 688.927,410.55 L 689.005,410.573 L 689.361,410.848 L 689.81,411.049 L 689.96,411.026 L 690.282,410.821 L 690.432,410.779 L 690.566,410.828 L 690.668,410.794 L 690.667,410.707 L 690.856,410.59 L 690.966,410.447 L 691.052,410.47 L 691.139,410.532 L 691.194,410.509 L 691.413,410.059 L 691.491,409.79 L 691.481,409.328 L 691.41,409.194 L 691.401,408.806 L 691.369,408.73 L 691.187,408.54 L 691.116,408.409 L 691.075,408.078 L 690.988,408.046 L 690.902,408.046 L 690.8,408.126 L 690.737,408.237 L 690.73,408.423 L 690.935,408.652 L 691.039,409.037 L 691.056,409.226 L 690.978,409.644 L 690.783,410.037 L 690.792,410.189 L 690.815,410.25 L 690.887,410.345 L 690.802,410.508 L 690.555,410.631 L 690.131,410.341 L 689.753,410.309 L 689.697,410.28 L 689.681,410.097 L 689.61,410.034 L 689.46,409.995 L 689.216,410.052 L 689.129,410.045 L 689.051,410.007 L 688.979,409.888 L 688.963,409.771 L 688.884,409.652 L 688.758,409.628 L 688.625,409.936 L 688.469,410.353 L 688.32,410.614 L 688.195,410.758 L 687.881,410.978 L 687.748,411.137 L 687.748,411.208 L 687.559,411.438 L 687.416,411.643 L 687.269,411.619 L 687.262,411.762 L 687.294,411.817 L 687.286,411.935 L 687.239,412.066 L 687.09,412.195 L 686.76,412.353 L 686.303,412.379 L 686.076,412.575 L 685.911,412.654 L 685.69,412.664 L 685.438,412.578 L 685.257,412.596 L 685.194,412.486 L 685.06,412.453 L 684.895,412.557 L 684.856,412.651 L 684.865,412.988 L 684.748,413.345 L 684.74,413.485 L 685.23,413.668 L 685.185,413.863 L 684.915,413.799 L 684.963,413.91 L 684.971,414.012 L 684.94,414.14 L 684.964,414.297 L 684.918,414.603 L 684.817,414.872 L 684.809,414.997 L 684.873,415.11 L 684.928,415.297 L 684.961,415.597 L 685.043,416.565 L 685.194,416.886 L 685.179,417.02 L 685.054,417.21 L 685.055,417.533 L 684.9,418.306 L 684.877,418.518 L 684.901,418.604 L 684.867,418.813 L 682.251,414.958 L 678.783,409.773 L 676.254,405.857 L 675.78,405.17 L 669.911,401.867 L 670.253,401.357 L 670.315,401.222 L 670.331,400.964 L 670.299,400.916 L 670.307,400.798 L 670.33,400.782 L 670.408,400.531 L 670.4,400.429 L 670.298,400.296 L 670.297,400.076 L 670.321,400.004 L 670.486,399.807 L 670.517,399.728 L 670.517,399.524 L 670.477,399.444 L 670.492,399.279 L 670.562,398.949 L 670.523,398.782 L 670.293,398.389 L 670.144,398.359 L 670.073,398.43 L 670.042,398.517 L 670.05,398.604 L 670.153,398.759 L 670.169,398.942 L 670.154,399.342 L 670.115,399.405 L 669.988,399.396 L 669.902,399.312 L 669.862,399.248 L 669.713,399.187 L 669.563,399.375 L 669.556,399.456 L 669.666,399.579 L 669.721,399.699 L 669.722,399.965 L 669.33,400.91 L 669.244,401.241 L 669.254,401.497 L 661.505,397.136 L 667.662,397.296 L 669.968,397.356 L 678.732,396.35 L 694.623,394.421 L 693.985,389.452 L 693.62,386.733 L 693.419,385.13 L 693.306,384.345 L 693.252,383.921 L 693.188,383.573 L 693.111,382.924 L 697.556,383.122 L 697.734,384.487 L 698.189,387.597 L 698.917,392.262 L 703.513,392.183"
       id="path15915"
       style="fill-rule:evenodd" />
    <path
       name="swansea" d="M 687.79,414.026 L 687.735,414.003 L 687.663,413.899 L 687.654,413.577 L 687.812,413.482 L 687.82,413.569 L 688.049,413.711 L 688.065,413.835 L 687.947,413.962 L 687.79,414.026"
       id="path15991"
       style="fill-rule:evenodd" />       
   </g>
</svg>