<svg
   xmlns:svg="http://www.w3.org/2000/svg"
   xmlns="http://www.w3.org/2000/svg"
   version="1.0"
   width="2100"
   height="1300"
   viewBox="0 0 2100 1300"
   id="svg14921">
   <g
     transform="matrix(2.2640019,0,0,2.2640019,-216.71416,-21.6991)"
     id="g14955"
     style="font-size:16.25px;font-style:normal;font-weight:400;fill:#fefee9;fill-opacity:1;fill-rule:evenodd;stroke:#000000;stroke-width:0.0984252;stroke-linecap:square;stroke-linejoin:bevel;stroke-opacity:1;font-family:Lucida Grande">
    <path
       name="topsfield" d="M 765.729,92.279 L 765.589,92.2947 L 765.511,92.3135 L 765.449,92.3516 L 765.376,92.388 L 765.32,92.4438 L 765.27,92.5076 L 765.227,92.5829 L 765.199,92.6521 L 765.207,92.7131 L 765.386,94.9148 L 766.2,94.6364 L 767.091,96.2817 L 766.611,96.4632 L 767.195,97.4491 L 767.626,97.7722 L 767.593,98.4259 L 767.695,98.5839 L 767.708,99.2843 L 765.503,99.7151 L 764.882,100.68 L 764.858,100.757 L 764.877,100.841 L 764.883,100.9 L 764.967,100.96 L 765.078,101.051 L 765.128,101.107 L 765.2,101.232 L 765.275,101.357 L 765.322,101.406 L 765.359,101.478 L 765.44,101.475 L 765.516,101.435 L 765.65,101.502 L 765.69,101.547 L 765.673,101.602 L 765.613,101.658 L 765.51,101.74 L 765.418,101.824 L 765.339,101.921 L 765.248,102.035 L 765.202,102.108 L 765.175,102.191 L 765.171,102.282 L 765.13,102.339 L 765.07,102.382 L 765.007,102.382 L 764.908,102.348 L 764.841,102.323 L 764.803,102.414 L 764.723,102.465 L 764.666,102.481 L 764.605,102.525 L 764.531,102.581 L 764.479,102.629 L 764.415,102.707 L 764.319,102.726 L 764.273,102.67 L 764.237,102.607 L 764.142,102.598 L 764.044,102.641 L 763.979,102.756 L 763.931,102.802 L 763.837,102.738 L 763.809,102.684 L 763.814,102.583 L 763.773,102.519 L 763.718,102.49 L 763.626,102.481 L 763.595,102.548 L 763.631,102.619 L 763.669,102.67 L 763.701,102.722 L 763.665,102.788 L 763.6,102.812 L 763.56,102.748 L 763.514,102.697 L 763.47,102.796 L 763.456,102.877 L 763.425,102.964 L 763.391,103.059 L 763.319,103.091 L 763.279,103.049 L 763.209,103.103 L 763.134,103.137 L 763.039,103.068 L 762.968,103.011 L 762.893,102.993 L 762.865,103.121 L 762.876,103.215 L 762.815,103.232 L 762.775,103.174 L 762.7,103.141 L 762.627,103.16 L 762.527,103.143 L 762.443,103.168 L 762.436,103.241 L 762.525,103.314 L 762.61,103.357 L 762.639,103.431 L 762.57,103.453 L 762.482,103.443 L 762.397,103.448 L 762.311,103.483 L 762.231,103.529 L 762.196,103.6 L 762.252,103.653 L 762.245,103.722 L 762.117,103.804 L 762.003,103.861 L 761.927,103.928 L 761.917,103.999 L 761.814,103.971 L 761.753,103.962 L 761.726,104.016 L 761.729,104.091 L 761.681,104.158 L 761.63,104.232 L 761.675,104.292 L 761.76,104.346 L 761.824,104.393 L 761.857,104.442 L 761.907,104.493 L 761.973,104.486 L 762.016,104.412 L 762.107,104.451 L 762.136,104.506 L 762.172,104.572 L 762.172,104.679 L 762.133,104.785 L 762.094,104.869 L 762.063,104.922 L 761.967,104.978 L 761.906,104.919 L 761.945,104.828 L 761.964,104.766 L 761.96,104.705 L 761.892,104.672 L 761.814,104.713 L 761.761,104.819 L 761.703,104.896 L 761.623,104.894 L 761.495,104.784 L 761.425,104.728 L 761.362,104.683 L 761.288,104.673 L 761.137,104.77 L 761.046,104.843 L 760.932,104.868 L 760.842,104.852 L 760.775,104.84 L 760.677,104.792 L 760.596,104.748 L 760.518,104.732 L 760.175,105.006 L 759.94,105.943 L 759.765,107.059 L 758.858,108.649 L 758.708,108.618 L 758.513,108.369 L 755.609,109.647 L 752.862,111.116 L 750.392,113.118 L 750.345,113.068 L 750.293,113.028 L 750.228,113.01 L 750.131,112.992 L 750.076,113.014 L 749.984,113.022 L 749.895,112.978 L 749.361,112.646 L 749.265,112.564 L 749.209,112.513 L 749.227,112.446 L 749.201,112.378 L 748.885,112.05 L 748.835,112 L 748.753,111.96 L 748.684,111.949 L 748.624,111.952 L 748.541,111.966 L 748.472,111.933 L 748.36,111.959 L 748.288,111.991 L 748.156,111.976 L 748.087,111.953 L 748.039,111.921 L 748.003,111.862 L 747.978,111.784 L 747.912,111.703 L 747.897,111.638 L 747.856,111.536 L 747.784,111.463 L 747.705,111.352 L 747.608,111.277 L 747.533,111.252 L 747.434,111.222 L 747.325,111.205 L 747.249,111.196 L 747.17,111.178 L 747.083,111.142 L 746.995,111.098 L 746.934,111.052 L 746.884,111.005 L 746.837,110.943 L 746.752,110.897 L 746.64,110.886 L 746.567,110.881 L 746.459,110.857 L 746.329,110.773 L 746.282,110.736 L 746.215,110.613 L 746.19,110.555 L 746.057,110.498 L 745.982,110.468 L 745.918,110.4 L 745.931,110.323 L 745.912,110.248 L 745.869,110.153 L 745.857,110.039 L 745.874,109.976 L 745.868,109.858 L 745.834,109.795 L 745.767,109.698 L 745.733,109.635 L 745.686,109.569 L 745.568,109.449 L 745.489,109.366 L 745.403,109.285 L 745.321,109.198 L 745.269,109.147 L 745.238,109.097 L 745.21,109.009 L 745.146,108.964 L 745.079,108.857 L 745.07,108.781 L 745.109,108.719 L 745.175,108.682 L 745.217,108.607 L 745.301,108.464 L 745.326,108.406 L 745.418,108.367 L 745.45,108.28 L 745.463,108.217 L 745.507,108.167 L 745.562,108.127 L 745.549,108.035 L 745.532,107.955 L 745.568,107.895 L 745.652,107.799 L 745.69,107.724 L 745.707,107.625 L 745.723,107.526 L 745.779,107.402 L 745.803,107.301 L 747.413,105.739 L 747.457,105.663 L 747.437,105.587 L 747.414,105.532 L 747.385,105.478 L 747.373,105.386 L 747.307,105.316 L 747.326,105.252 L 747.401,105.178 L 747.391,105.116 L 747.333,105.093 L 747.25,105.061 L 747.216,105.002 L 747.255,104.923 L 747.321,104.865 L 747.393,104.797 L 747.477,104.764 L 747.571,104.755 L 747.666,104.792 L 747.701,104.851 L 747.788,104.9 L 747.862,104.891 L 747.941,104.866 L 748.042,104.794 L 748.103,104.704 L 748.156,104.583 L 748.229,104.57 L 748.287,104.62 L 748.36,104.668 L 748.439,104.693 L 748.478,104.625 L 748.47,104.545 L 748.473,104.456 L 748.533,104.41 L 748.588,104.369 L 748.652,104.333 L 748.696,104.296 L 748.772,104.248 L 748.843,104.239 L 748.917,104.274 L 748.963,104.331 L 749.029,104.405 L 749.09,104.384 L 749.114,104.325 L 749.203,104.258 L 749.206,104.177 L 749.23,104.083 L 749.368,103.963 L 749.421,103.921 L 749.53,103.805 L 749.472,103.774 L 749.401,103.74 L 749.379,103.683 L 749.325,103.633 L 749.206,103.581 L 749.113,103.561 L 749.028,103.528 L 748.949,103.468 L 748.812,103.364 L 748.717,103.357 L 748.65,103.331 L 748.513,103.224 L 748.34,103.071 L 748.31,103.014 L 748.289,102.96 L 748.19,102.908 L 748.137,102.847 L 748.126,102.79 L 748.09,102.74 L 748.06,102.683 L 748.039,102.622 L 748.014,102.538 L 747.959,102.472 L 747.873,102.378 L 747.897,102.307 L 747.944,102.242 L 748.006,102.178 L 748.039,102.13 L 748.036,102.054 L 748.003,101.979 L 747.917,101.811 L 747.832,101.681 L 747.754,101.53 L 747.747,101.465 L 747.777,101.4 L 747.806,101.34 L 747.745,101.29 L 747.7,101.328 L 747.644,101.398 L 747.581,101.402 L 747.582,101.32 L 747.593,101.249 L 747.609,101.162 L 747.674,101.137 L 747.695,101.078 L 747.668,101 L 747.646,100.941 L 747.645,100.87 L 747.665,100.795 L 747.752,100.69 L 747.797,100.648 L 747.816,100.579 L 747.886,100.521 L 748.016,100.393 L 747.976,100.329 L 747.997,100.269 L 747.963,100.209 L 747.993,100.155 L 747.947,100.11 L 747.923,100.054 L 747.936,99.9964 L 747.898,99.9301 L 747.932,99.8432 L 747.877,99.8025 L 747.815,99.7285 L 747.782,99.6522 L 747.738,99.5976 L 747.696,99.5077 L 747.636,99.4672 L 747.563,99.4287 L 747.543,99.374 L 747.514,99.3053 L 747.462,99.2687 L 747.403,99.2204 L 747.361,99.1776 L 747.321,99.1151 L 747.289,99.0467 L 747.27,98.9562 L 747.503,98.4515 L 751.344,96.0568 L 749.107,87.7895 L 750.012,88.2219 L 757.488,91.0537 L 761.388,88.739 L 762.466,91.9522 L 765.365,91.5066 L 765.719,92.1021 L 765.729,92.279"
       id="path15099"
       style="fill-rule:evenodd" />
   </g>
</svg>