<svg
   xmlns:svg="http://www.w3.org/2000/svg"
   xmlns="http://www.w3.org/2000/svg"
   version="1.0"
   width="2100"
   height="1300"
   viewBox="0 0 2100 1300"
   id="svg14921">
   <g
     transform="matrix(2.2640019,0,0,2.2640019,-216.71416,-21.6991)"
     id="g14955"
     style="font-size:16.25px;font-style:normal;font-weight:400;fill:#fefee9;fill-opacity:1;fill-rule:evenodd;stroke:#000000;stroke-width:0.0984252;stroke-linecap:square;stroke-linejoin:bevel;stroke-opacity:1;font-family:Lucida Grande">
    <path
       name="truro" d="M 959.302,290.713 L 959.652,290.826 L 960.734,291.021 L 961.288,291.203 L 961.816,291.241 L 962.689,291.652 L 963.283,291.864 L 963.63,291.922 L 963.939,292.044 L 964.526,292.324 L 965.168,292.55 L 966.267,292.866 L 966.962,293.003 L 967.417,293.147 L 967.798,293.306 L 969.152,293.769 L 969.613,293.997 L 970.041,294.15 L 970.469,294.354 L 971.495,294.944 L 972.755,295.388 L 973.455,295.768 L 973.882,295.895 L 974.026,296.027 L 974.337,296.235 L 974.805,296.463 L 977.016,297.726 L 977.778,298.098 L 978.646,298.658 L 979.459,299.243 L 980.137,299.775 L 981.572,300.806 L 981.909,301.131 L 982.491,301.554 L 982.731,301.795 L 983.05,302.056 L 984.041,302.914 L 984.812,303.769 L 985.933,304.868 L 987.009,306.118 L 987.225,306.304 L 987.852,307.079 L 988.615,307.957 L 988.849,308.291 L 989.147,308.648 L 989.429,309.046 L 990.597,310.594 L 991.235,311.527 L 991.617,312.239 L 992.279,313.187 L 992.845,314.067 L 993.577,315.457 L 994.329,316.61 L 994.354,316.7 L 994.67,317.23 L 995.288,318.369 L 995.883,319.558 L 996.31,320.141 L 996.546,320.593 L 996.809,321.249 L 997.192,321.991 L 997.751,322.887 L 997.937,323.185 L 997.978,323.308 L 998.417,324.136 L 998.476,324.311 L 998.524,324.372 L 998.656,324.765 L 998.811,325.067 L 998.89,325.09 L 999.031,325.024 L 999.141,325.479 L 999.283,325.95 L 999.549,326.314 L 999.614,326.464 L 999.705,326.682 L 999.842,326.854 L 1000.26,327.642 L 1000.35,327.96 L 992.273,329.081 L 989.536,329.493 L 979.924,331.372 L 979.689,331.428 L 979.629,331.22 L 979.585,330.905 L 979.612,330.659 L 979.698,330.179 L 979.77,329.287 L 979.78,327.578 L 979.752,326.831 L 979.707,326.516 L 979.642,324.983 L 979.637,324.227 L 979.552,323.37 L 979.514,323.024 L 979.511,321.883 L 979.466,321.537 L 979.382,321.269 L 979.078,320.487 L 978.945,320.063 L 978.951,319.945 L 979.146,319.881 L 979.226,319.909 L 979.481,320.094 L 979.653,320.061 L 979.856,319.931 L 980.44,319.998 L 980.449,320.078 L 980.309,320.151 L 980.224,320.246 L 980.241,320.363 L 980.327,320.339 L 980.436,320.243 L 980.555,320.274 L 980.565,320.431 L 980.724,320.498 L 980.837,320.647 L 980.962,320.606 L 981.072,320.612 L 981.175,320.649 L 981.179,320.404 L 981.139,320.359 L 980.941,320.275 L 980.861,320.196 L 980.81,319.984 L 980.744,319.837 L 980.75,319.734 L 980.812,319.661 L 981.423,319.454 L 981.68,319.27 L 981.984,319.084 L 982.17,318.899 L 982.214,318.755 L 982.359,318.487 L 982.53,318.358 L 983.008,318.167 L 982.991,318.112 L 982.888,318.069 L 982.684,318.102 L 982.48,318.192 L 982.302,318.331 L 982.025,318.73 L 981.94,318.81 L 980.949,319.353 L 980.736,319.372 L 980.319,318.922 L 980.109,318.587 L 979.948,318.369 L 979.869,318.38 L 979.793,318.568 L 979.667,318.507 L 979.549,318.076 L 979.473,317.787 L 979.399,317.591 L 979.326,317.481 L 979.239,317.474 L 979.21,317.602 L 979.225,317.996 L 979.313,318.555 L 979.337,319.025 L 979.441,319.143 L 979.536,319.181 L 979.757,319.208 L 979.758,319.27 L 979.704,319.303 L 979.358,319.372 L 979.242,319.493 L 979.212,319.587 L 979.15,319.66 L 978.938,319.648 L 978.944,319.561 L 978.991,319.513 L 979.02,319.394 L 978.943,318.568 L 978.892,318.34 L 978.79,317.435 L 978.687,316.957 L 978.678,316.865 L 978.668,316.789 L 978.649,316.607 L 978.448,315.902 L 978.314,315.376 L 978.295,315.212 L 978.254,315.108 L 978.192,314.685 L 978.116,314.401 L 977.9,313.722 L 977.726,312.772 L 977.619,312.459 L 977.609,312.394 L 977.526,312.09 L 977.22,311.227 L 977.114,311.032 L 977.063,310.791 L 976.882,310.368 L 976.881,310.272 L 976.773,309.937 L 976.717,309.874 L 976.566,309.373 L 976.41,308.974 L 976.164,308.37 L 975.391,306.945 L 974.865,306.085 L 974.574,305.666 L 973.842,304.757 L 973.288,304.128 L 972.95,303.685 L 972.469,303.156 L 971.732,302.452 L 971.315,302.012 L 970.565,301.41 L 969.043,300.357 L 968.669,300.135 L 967.426,299.297 L 967.056,299.083 L 966.564,298.831 L 964.01,297.69 L 963.7,297.504 L 963.109,296.947 L 962.894,296.807 L 962.093,296.428 L 961.774,296.195 L 961.489,296.067 L 961.124,295.942 L 961.124,295.295 L 961.147,295.188 L 961.33,294.694 L 959.302,290.713"
       id="path15799"
       style="fill-rule:evenodd" />
   </g>
</svg>