<svg
   xmlns:svg="http://www.w3.org/2000/svg"
   xmlns="http://www.w3.org/2000/svg"
   version="1.0"
   width="2100"
   height="1300"
   viewBox="0 0 2100 1300"
   id="svg14921">
   <g
     transform="matrix(2.2640019,0,0,2.2640019,-216.71416,-21.6991)"
     id="g14955"
     style="font-size:16.25px;font-style:normal;font-weight:400;fill:#fefee9;fill-opacity:1;fill-rule:evenodd;stroke:#000000;stroke-width:0.0984252;stroke-linecap:square;stroke-linejoin:bevel;stroke-opacity:1;font-family:Lucida Grande">
    <path
       name="uxbridge" d="M 590.423,280.54 L 590.611,297.991 L 590.799,315.248 L 586.818,315.372 L 582.219,315.518 L 567.77,315.917 L 568.211,294.391 L 563.849,295.433 L 563.81,287.075 L 563.807,286.433 L 568.066,285.416 L 568.064,284.291 L 575.52,287.036 L 582.272,283.855 L 587.636,281.312 L 587.74,281.376 L 587.781,281.423 L 587.835,281.464 L 587.896,281.493 L 587.957,281.513 L 588.038,281.524 L 588.185,281.537 L 588.313,281.53 L 588.401,281.512 L 588.462,281.486 L 588.549,281.452 L 588.631,281.422 L 588.714,281.407 L 588.774,281.403 L 588.863,281.4 L 588.946,281.378 L 589.005,281.352 L 589.072,281.326 L 589.209,281.267 L 589.341,281.197 L 589.449,281.147 L 590.423,280.54"
       id="path15761"
       style="fill-rule:evenodd" />
   </g>
</svg>