<svg
   xmlns:svg="http://www.w3.org/2000/svg"
   xmlns="http://www.w3.org/2000/svg"
   version="1.0"
   width="2100"
   height="1300"
   viewBox="0 0 2100 1300"
   id="svg14921">
   <g
     transform="matrix(2.2640019,0,0,2.2640019,-216.71416,-21.6991)"
     id="g14955"
     style="font-size:16.25px;font-style:normal;font-weight:400;fill:#fefee9;fill-opacity:1;fill-rule:evenodd;stroke:#000000;stroke-width:0.0984252;stroke-linecap:square;stroke-linejoin:bevel;stroke-opacity:1;font-family:Lucida Grande">
    <path
       name="walpole" d="M 677.805,250.036 L 678.165,250.551 L 678.222,250.618 L 678.273,250.664 L 678.437,250.798 L 678.589,250.906 L 678.677,251.005 L 678.785,251.091 L 678.898,251.198 L 678.927,251.263 L 679.031,251.389 L 679.142,251.484 L 679.273,251.623 L 679.416,251.75 L 679.618,251.956 L 679.755,252.126 L 679.82,252.256 L 679.864,252.363 L 679.898,252.49 L 679.955,252.666 L 680.002,252.813 L 680.09,253.018 L 680.127,253.126 L 680.211,253.333 L 680.288,253.489 L 680.322,253.607 L 680.359,253.701 L 680.338,253.839 L 680.333,253.991 L 680.331,254.176 L 680.307,254.443 L 680.321,254.626 L 680.279,254.752 L 680.254,254.91 L 680.293,255.083 L 680.339,255.149 L 680.392,255.198 L 680.475,255.235 L 680.528,255.284 L 680.588,255.346 L 680.637,255.425 L 680.661,255.515 L 680.673,255.658 L 680.664,255.759 L 680.627,255.863 L 680.545,255.973 L 680.517,256.054 L 680.515,256.125 L 680.551,256.221 L 680.605,256.358 L 680.65,256.464 L 680.719,256.55 L 680.789,256.621 L 680.852,256.689 L 680.919,256.752 L 680.994,256.773 L 681.067,256.794 L 681.147,256.839 L 681.224,256.854 L 681.321,256.906 L 681.378,256.953 L 681.441,257.037 L 681.465,257.104 L 681.481,257.173 L 681.515,257.309 L 681.551,257.387 L 681.632,257.387 L 681.742,257.363 L 681.811,257.412 L 681.855,257.455 L 681.922,257.522 L 681.988,257.5 L 682.069,257.484 L 682.126,257.476 L 682.205,257.452 L 682.242,257.387 L 682.303,257.379 L 682.395,257.365 L 684.538,260.996 L 685.436,260.921 L 685.933,261.802 L 686.224,261.76 L 686.379,261.794 L 687.4,261.652 L 687.605,261.736 L 687.818,262.012 L 687.74,262.144 L 688.097,262.357 L 689.682,264.354 L 689.773,264.332 L 689.791,264.395 L 689.795,264.456 L 689.87,264.493 L 689.946,264.505 L 689.951,264.57 L 689.921,264.623 L 690.016,264.654 L 690.092,264.638 L 690.173,264.673 L 690.256,264.694 L 690.327,264.686 L 690.399,264.664 L 692.463,268.202 L 684.418,273.218 L 684.22,273.473 L 684.095,273.621 L 684.042,273.692 L 684.005,273.761 L 683.952,273.848 L 683.862,273.937 L 683.73,274.002 L 683.661,274.032 L 683.604,274.052 L 683.508,274.054 L 683.441,274.041 L 683.262,274.17 L 683.231,274.26 L 683.174,274.319 L 683.094,274.339 L 683.011,274.373 L 682.947,274.407 L 682.888,274.451 L 682.829,274.516 L 682.77,274.746 L 682.759,274.913 L 682.734,274.975 L 682.573,275.288 L 682.493,275.409 L 682.477,275.47 L 682.456,275.801 L 682.482,276.078 L 682.484,276.234 L 682.479,276.363 L 682.503,276.472 L 682.53,276.59 L 682.654,276.761 L 683.078,277.399 L 682.865,277.463 L 682.578,277.49 L 682.568,277.346 L 681.356,277.977 L 681.33,278.067 L 681.271,278.156 L 681.206,278.231 L 681.175,278.306 L 681.126,278.364 L 681.045,278.431 L 681.061,278.532 L 681.073,278.59 L 681.111,278.671 L 681.166,278.734 L 681.186,278.822 L 681.137,278.897 L 681.115,278.96 L 681.135,279.061 L 681.173,279.19 L 681.195,279.302 L 681.193,279.381 L 681.191,279.458 L 681.167,279.515 L 681.132,279.586 L 681.097,279.667 L 681.07,279.764 L 681.048,279.841 L 681.027,279.908 L 681.023,279.969 L 681.035,280.042 L 681.035,280.114 L 681.084,280.181 L 681.096,280.252 L 681.122,280.386 L 681.169,280.467 L 681.213,280.545 L 681.227,280.63 L 681.26,280.722 L 681.284,280.842 L 681.29,280.915 L 681.282,280.992 L 681.249,281.062 L 681.16,281.135 L 681.131,281.218 L 681.183,282.152 L 681.162,283.225 L 678.393,283.5 L 677.376,283.62 L 676.822,283.994 L 672.721,285.962 L 670.525,289.412 L 666.501,279.752 L 666.356,279.253 L 666.166,278.386 L 665.494,276.814 L 665.358,276.513 L 665.703,276.309 L 665.462,275.354 L 664.981,272.94 L 664.951,272.874 L 664.896,272.802 L 664.91,272.715 L 664.993,272.694 L 665.084,272.656 L 665.072,272.587 L 665.098,272.529 L 665.117,272.444 L 665.198,272.436 L 665.263,272.371 L 665.275,272.287 L 665.319,272.241 L 665.352,272.171 L 665.419,272.198 L 665.502,272.204 L 665.526,272.13 L 665.593,272.136 L 665.656,272.128 L 665.685,272.046 L 665.682,271.986 L 665.664,271.878 L 665.648,271.778 L 665.656,271.715 L 665.692,271.634 L 665.696,271.538 L 665.641,271.459 L 665.556,271.404 L 665.499,271.352 L 665.517,271.258 L 665.58,271.23 L 665.598,271.175 L 665.594,271.097 L 665.537,271.061 L 665.466,271.061 L 665.421,271.01 L 665.374,270.931 L 665.384,270.846 L 665.356,270.761 L 665.311,270.704 L 665.344,270.631 L 665.378,270.543 L 665.431,270.484 L 665.465,270.39 L 665.451,270.301 L 665.408,270.248 L 665.349,270.181 L 665.357,270.12 L 665.337,270.051 L 665.298,269.996 L 665.292,269.933 L 665.326,269.874 L 665.351,269.769 L 665.405,269.73 L 665.411,269.667 L 665.387,269.596 L 665.318,269.535 L 665.334,269.462 L 665.364,269.391 L 665.354,269.334 L 665.39,269.285 L 665.433,269.23 L 665.437,269.157 L 665.384,269.122 L 665.299,269.096 L 665.24,269.07 L 665.258,269.013 L 665.286,268.96 L 665.26,268.907 L 665.207,268.866 L 665.128,268.848 L 665.033,268.867 L 664.982,268.824 L 664.951,268.735 L 664.935,268.674 L 664.902,268.611 L 664.839,268.575 L 664.791,268.61 L 664.74,268.738 L 664.669,268.748 L 664.588,268.705 L 664.539,268.671 L 664.519,268.607 L 664.486,268.519 L 664.467,268.411 L 671.797,268.695 L 671.62,257.336 L 673.164,250.871 L 673.777,250.709 L 674.655,249.907 L 674.767,249.87 L 675.092,249.729 L 675.226,249.678 L 675.301,249.649 L 675.384,249.634 L 675.492,249.63 L 675.571,249.634 L 675.65,249.638 L 675.737,249.654 L 675.857,249.674 L 676.013,249.698 L 676.046,249.596 L 676.119,249.61 L 676.29,249.651 L 676.426,249.695 L 676.621,249.798 L 676.738,249.849 L 676.84,249.887 L 677.1,249.98 L 677.212,250.014 L 677.348,250.032 L 677.805,250.036"
       id="path15679"
       style="fill-rule:evenodd" />
   </g>
</svg>