<svg
   xmlns:svg="http://www.w3.org/2000/svg"
   xmlns="http://www.w3.org/2000/svg"
   version="1.0"
   width="2100"
   height="1300"
   viewBox="0 0 2100 1300"
   id="svg14921">
   <g
     transform="matrix(2.2640019,0,0,2.2640019,-216.71416,-21.6991)"
     id="g14955"
     style="font-size:16.25px;font-style:normal;font-weight:400;fill:#fefee9;fill-opacity:1;fill-rule:evenodd;stroke:#000000;stroke-width:0.0984252;stroke-linecap:square;stroke-linejoin:bevel;stroke-opacity:1;font-family:Lucida Grande">
    <path
       name="waltham" d="M 687.858,180.043 L 690.065,180.878 L 690.09,180.951 L 690.134,181.017 L 690.175,181.076 L 690.211,181.133 L 690.235,181.198 L 690.247,181.263 L 690.259,181.333 L 690.286,181.508 L 690.302,181.642 L 690.322,181.768 L 690.342,181.886 L 690.386,181.976 L 690.461,182.068 L 690.588,182.229 L 690.74,182.356 L 690.775,182.407 L 690.815,182.468 L 690.849,182.541 L 690.867,182.653 L 690.871,182.731 L 690.885,182.849 L 690.913,182.983 L 690.949,183.083 L 691.003,183.179 L 691.084,183.285 L 691.165,183.356 L 691.24,183.412 L 691.35,183.496 L 691.496,183.602 L 691.558,183.681 L 691.597,183.747 L 691.627,183.802 L 691.645,183.861 L 691.657,183.956 L 691.663,184.081 L 691.619,184.174 L 691.544,184.257 L 691.405,184.362 L 691.269,184.583 L 691.277,184.64 L 691.299,184.695 L 691.328,184.746 L 691.378,184.807 L 691.437,184.865 L 691.473,184.918 L 691.498,184.991 L 691.611,185.644 L 691.667,185.71 L 691.734,185.767 L 691.797,185.845 L 691.896,185.957 L 691.975,186.114 L 691.982,186.254 L 691.931,186.339 L 691.862,186.394 L 692.236,186.92 L 688.984,190.689 L 686.468,193.595 L 686.383,193.641 L 678.147,196.973 L 677.215,197.333 L 677.153,197.418 L 677.112,197.488 L 677.079,197.555 L 677.027,197.625 L 676.961,197.712 L 676.878,197.839 L 676.78,197.919 L 676.659,197.989 L 676.542,198.032 L 676.443,198.031 L 676.397,197.985 L 676.375,197.912 L 676.368,197.806 L 676.362,197.639 L 675.373,198.076 L 675.271,198.085 L 675.155,198.089 L 675.051,198.06 L 674.967,198.012 L 674.882,197.964 L 674.815,197.955 L 674.738,197.936 L 674.653,197.89 L 674.554,197.83 L 674.431,197.732 L 674.375,197.685 L 674.318,197.617 L 674.259,197.535 L 674.191,197.418 L 673.895,196.939 L 673.769,196.805 L 673.595,196.532 L 673.384,196.28 L 673.315,196.171 L 673.281,196.097 L 673.217,195.942 L 673.168,195.799 L 673.124,195.626 L 673.111,195.504 L 673.106,195.404 L 673.105,195.32 L 673.098,195.235 L 673.074,195.141 L 673.025,195.01 L 672.997,194.959 L 672.929,194.893 L 672.739,194.801 L 672.585,194.72 L 672.211,194.415 L 671.975,194.21 L 671.901,194.12 L 671.888,194 L 671.912,193.923 L 671.937,193.848 L 671.975,193.757 L 672.025,193.662 L 672.074,193.603 L 672.128,193.555 L 672.191,193.52 L 672.313,193.491 L 672.379,193.489 L 672.496,193.483 L 672.574,193.474 L 672.634,193.499 L 672.683,193.532 L 672.739,193.559 L 672.807,193.497 L 672.81,193.432 L 672.799,193.356 L 672.766,193.236 L 672.777,193.155 L 672.81,193.108 L 672.823,193.027 L 672.816,192.964 L 672.783,192.872 L 672.73,192.691 L 672.665,192.553 L 672.531,192.338 L 672.458,192.213 L 672.451,192.12 L 672.42,192.067 L 672.366,192.019 L 672.325,191.966 L 672.332,191.893 L 672.319,191.828 L 672.269,191.774 L 672.206,191.698 L 672.171,191.627 L 672.186,191.523 L 672.131,191.441 L 672.057,191.395 L 671.972,191.315 L 671.955,191.256 L 671.918,191.176 L 671.869,191.141 L 671.789,191.095 L 671.687,191.031 L 671.605,190.971 L 671.503,190.917 L 671.438,190.918 L 671.361,190.889 L 671.206,190.806 L 671.251,190.742 L 673.438,185.566 L 671.31,184.603 L 670.411,182.616 L 669.588,182.274 L 669.996,181.255 L 668.764,180.786 L 669.937,177.994 L 671.73,178.776 L 672.634,176.502 L 672.404,176.417 L 673.549,173.774 L 678.081,175.735 L 687.858,180.043"
       id="path15405"
       style="fill-rule:evenodd" />
   </g>
</svg>