<svg
   xmlns:svg="http://www.w3.org/2000/svg"
   xmlns="http://www.w3.org/2000/svg"
   version="1.0"
   width="2100"
   height="1300"
   viewBox="0 0 2100 1300"
   id="svg14921">
   <g
     transform="matrix(2.2640019,0,0,2.2640019,-216.71416,-21.6991)"
     id="g14955"
     style="font-size:16.25px;font-style:normal;font-weight:400;fill:#fefee9;fill-opacity:1;fill-rule:evenodd;stroke:#000000;stroke-width:0.0984252;stroke-linecap:square;stroke-linejoin:bevel;stroke-opacity:1;font-family:Lucida Grande">
    <path
       name="ware" d="M 412.843,197.808 L 413.947,197.816 L 414.028,198.448 L 414.638,203.293 L 415.381,203.185 L 415.705,205.616 L 414.95,205.712 L 416.236,215.097 L 419.496,213.978 L 419.592,214.64 L 422.681,213.997 L 432.53,212.008 L 432.432,212.114 L 432.386,212.183 L 432.35,212.231 L 432.248,212.386 L 432.206,212.533 L 432.185,212.612 L 432.174,212.761 L 432.152,212.832 L 432.137,212.896 L 432.095,213.02 L 432.08,213.081 L 432.046,213.242 L 432.045,213.303 L 432.054,213.364 L 432.06,213.431 L 432.069,213.51 L 432.077,213.622 L 432.064,213.759 L 432.063,213.856 L 432.056,213.978 L 432.026,214.099 L 432.007,214.221 L 431.988,214.369 L 431.983,214.483 L 431.996,214.597 L 432.012,214.69 L 432.067,214.786 L 432.141,214.836 L 432.174,214.937 L 432.191,215.023 L 432.168,215.137 L 432.139,215.224 L 432.101,215.351 L 432.051,215.404 L 432.001,215.457 L 431.948,215.492 L 431.887,215.536 L 431.829,215.577 L 431.781,215.636 L 431.564,215.701 L 431.469,215.735 L 431.404,215.778 L 431.335,215.832 L 431.281,215.887 L 431.229,215.973 L 431.199,216.053 L 431.166,216.195 L 431.161,216.264 L 431.132,216.407 L 431.105,216.84 L 431.094,216.901 L 431.066,216.993 L 431.03,217.101 L 431.017,217.207 L 431.026,217.315 L 431.048,217.478 L 431.066,217.602 L 431.048,217.693 L 431.025,217.777 L 430.989,217.881 L 430.975,217.948 L 431.073,217.957 L 431.716,217.891 L 432.541,217.818 L 434.439,218.97 L 434.266,219.764 L 433.442,221.01 L 432.188,221.888 L 431.962,226.314 L 430.667,226.175 L 431.061,230.978 L 432.337,231.188 L 432.256,232.303 L 432.302,232.392 L 432.351,232.716 L 432.465,234.098 L 431.422,233.959 L 431.383,233.444 L 430.54,233.592 L 429.728,234.738 L 423.08,235.795 L 422.446,236.761 L 420.355,239.935 L 417.647,240.115 L 417.103,237.498 L 417.042,237.523 L 417.004,237.573 L 416.942,237.636 L 416.901,237.678 L 416.825,237.721 L 416.735,237.761 L 416.624,237.777 L 416.563,237.785 L 416.479,237.78 L 416.4,237.769 L 416.314,237.795 L 416.244,237.838 L 415.236,238.78 L 414.324,238.12 L 400.425,243.078 L 400.326,243.092 L 400.331,243.017 L 400.384,242.914 L 400.41,242.829 L 400.433,242.749 L 400.448,242.643 L 400.434,242.529 L 400.415,242.464 L 400.359,242.394 L 400.309,242.334 L 400.263,242.267 L 400.207,242.186 L 400.159,242.11 L 400.136,242.029 L 400.126,241.921 L 400.137,241.862 L 400.146,241.779 L 400.148,241.717 L 400.183,241.605 L 400.212,241.513 L 400.259,241.371 L 400.294,241.271 L 400.355,241.134 L 400.379,241.081 L 400.448,240.958 L 400.479,240.872 L 400.49,240.776 L 400.473,240.703 L 400.455,240.604 L 400.448,240.512 L 400.469,240.457 L 400.507,240.394 L 400.543,240.345 L 400.595,240.277 L 400.731,240.149 L 400.787,240.057 L 400.824,239.953 L 400.839,239.835 L 400.846,239.764 L 400.84,239.67 L 400.831,239.609 L 400.83,239.542 L 400.821,239.48 L 400.81,239.378 L 400.771,239.11 L 400.77,239.027 L 400.783,238.957 L 400.81,238.86 L 400.823,238.776 L 400.788,238.685 L 400.8,238.591 L 400.83,238.518 L 400.888,238.441 L 400.942,238.386 L 400.988,238.333 L 401.028,238.259 L 401.055,238.197 L 401.095,238.104 L 401.098,238.026 L 401.107,237.959 L 401.068,237.914 L 401.064,237.821 L 401.061,237.693 L 401.075,237.595 L 401.104,237.487 L 401.134,237.401 L 401.151,237.297 L 401.141,237.194 L 401.128,237.096 L 401.114,237.005 L 400.99,236.384 L 400.958,236.225 L 400.931,236.155 L 400.807,235.996 L 400.741,235.909 L 400.712,235.811 L 400.701,235.747 L 400.727,235.641 L 400.726,235.571 L 400.725,235.47 L 400.709,235.371 L 400.688,235.202 L 400.675,235.125 L 400.657,235.064 L 400.634,235.01 L 400.608,234.937 L 400.596,234.87 L 400.594,234.807 L 400.608,234.742 L 400.627,234.665 L 400.643,234.602 L 400.68,234.545 L 400.738,234.515 L 400.793,234.492 L 400.864,234.477 L 400.931,234.454 L 400.992,234.405 L 401.001,234.32 L 400.979,234.253 L 400.938,234.183 L 400.87,234.093 L 400.816,234.01 L 400.748,233.912 L 400.71,233.823 L 400.674,233.763 L 400.646,233.704 L 400.645,233.642 L 400.639,233.567 L 400.637,233.453 L 400.648,233.394 L 400.67,233.339 L 400.687,233.264 L 400.707,233.187 L 400.713,233.107 L 400.726,233.018 L 400.732,232.936 L 400.731,232.873 L 400.737,232.794 L 400.749,232.567 L 400.736,232.435 L 400.706,232.339 L 400.701,232.262 L 400.684,232.183 L 400.563,231.812 L 400.452,231.462 L 400.42,231.324 L 400.37,231.2 L 400.334,231.042 L 400.344,230.912 L 400.345,230.796 L 400.322,230.676 L 400.257,230.508 L 400.252,230.419 L 400.262,230.349 L 400.287,230.227 L 400.264,230.15 L 400.218,230.068 L 400.163,230.037 L 400.091,230.004 L 399.894,229.924 L 399.816,229.88 L 399.803,229.797 L 399.826,229.709 L 399.85,229.65 L 399.907,229.619 L 399.99,229.614 L 400.055,229.614 L 400.181,229.615 L 400.227,229.563 L 400.176,229.521 L 400.094,229.457 L 400.051,229.4 L 400.026,229.346 L 399.989,229.283 L 399.959,229.188 L 399.966,229.098 L 399.978,229.023 L 400.01,228.964 L 400.062,228.88 L 400.11,228.815 L 400.168,228.751 L 400.263,228.637 L 400.398,228.536 L 400.524,228.529 L 400.595,228.532 L 400.668,228.554 L 400.753,228.565 L 400.819,228.569 L 400.886,228.574 L 400.958,228.541 L 401.004,228.478 L 401.02,228.404 L 401.042,228.327 L 401.039,228.262 L 401.044,228.169 L 401.037,228.057 L 401.02,227.973 L 400.994,227.862 L 400.967,227.791 L 400.928,227.732 L 400.883,227.666 L 400.858,227.605 L 400.833,227.53 L 400.836,227.463 L 400.831,227.384 L 400.857,227.298 L 400.926,227.149 L 400.974,227.09 L 401.012,227.029 L 401.087,226.967 L 401.177,226.844 L 401.217,226.773 L 401.303,226.609 L 401.372,226.424 L 401.577,225.765 L 401.588,225.653 L 401.589,225.588 L 401.587,225.515 L 401.572,225.446 L 401.533,225.381 L 401.501,225.264 L 401.448,225.209 L 401.406,225.147 L 401.345,225.074 L 401.255,225.008 L 401.189,224.961 L 401.093,224.92 L 401.034,224.906 L 400.947,224.901 L 400.823,224.887 L 400.643,224.84 L 400.466,224.795 L 400.358,224.743 L 400.252,224.711 L 400.087,224.637 L 399.985,224.573 L 399.909,224.501 L 399.835,224.412 L 399.777,224.282 L 399.755,224.199 L 399.752,224.036 L 399.744,223.819 L 399.756,223.599 L 399.768,223.414 L 399.787,223.284 L 399.822,223.088 L 399.843,222.931 L 399.87,222.797 L 399.852,222.64 L 399.8,222.535 L 399.694,222.426 L 399.646,222.327 L 399.598,222.242 L 399.551,222.179 L 399.489,222.133 L 399.422,222.085 L 399.344,222.037 L 399.249,222.009 L 399.177,221.977 L 399.029,221.96 L 398.96,221.969 L 398.844,221.966 L 398.724,221.95 L 398.636,221.915 L 398.532,221.854 L 398.417,221.743 L 398.294,221.604 L 398.071,221.429 L 397.934,221.341 L 397.85,221.291 L 397.785,221.257 L 397.728,221.237 L 397.664,221.221 L 397.569,221.206 L 397.479,221.188 L 397.378,221.183 L 397.319,221.167 L 397.247,221.135 L 397.192,221.099 L 397.127,221.071 L 396.99,221.027 L 396.894,221 L 396.809,220.941 L 396.751,220.856 L 396.724,220.781 L 396.715,220.722 L 396.702,220.605 L 396.723,220.517 L 396.738,220.417 L 396.826,220.217 L 396.861,220.097 L 396.875,220.027 L 396.892,219.93 L 396.907,219.819 L 396.927,219.728 L 396.95,219.642 L 396.99,219.487 L 397.079,219.24 L 397.135,219.014 L 397.22,218.736 L 397.241,218.653 L 397.251,218.567 L 397.257,218.367 L 397.267,218.166 L 397.304,217.754 L 397.333,217.587 L 397.309,217.451 L 397.207,217.434 L 397.122,217.42 L 397.033,217.435 L 396.953,217.426 L 396.874,217.369 L 396.808,217.3 L 396.749,217.27 L 396.683,217.238 L 396.594,217.211 L 396.529,217.193 L 396.4,217.151 L 396.341,217.121 L 396.287,217.042 L 396.289,216.977 L 396.294,216.904 L 396.314,216.826 L 396.331,216.757 L 396.343,216.668 L 396.366,216.584 L 396.394,216.478 L 396.444,216.367 L 396.469,216.304 L 396.518,216.259 L 396.627,216.226 L 396.708,216.207 L 396.779,216.181 L 396.776,216.121 L 396.701,216.084 L 396.64,216.085 L 396.581,216.084 L 396.49,216.094 L 396.394,216.038 L 396.318,216.014 L 396.206,215.977 L 396.115,215.969 L 396.005,215.97 L 395.897,215.961 L 395.826,215.923 L 395.766,215.846 L 395.726,215.745 L 395.731,215.608 L 395.746,215.513 L 395.773,215.366 L 395.797,215.258 L 395.828,215.158 L 395.878,215.074 L 395.934,214.949 L 396.002,214.859 L 396.054,214.765 L 396.027,214.698 L 395.974,214.662 L 395.917,214.628 L 395.833,214.596 L 395.772,214.57 L 395.684,214.545 L 395.589,214.525 L 395.507,214.477 L 395.451,214.438 L 395.668,213.976 L 395.768,213.806 L 395.863,213.687 L 395.921,213.617 L 395.99,213.572 L 396.121,213.496 L 396.208,213.473 L 396.277,213.439 L 396.337,213.408 L 396.437,213.367 L 396.516,213.372 L 396.555,213.419 L 396.574,213.486 L 396.591,213.569 L 396.585,213.638 L 396.574,213.74 L 396.562,214.112 L 396.593,214.189 L 396.664,214.235 L 396.736,214.235 L 396.819,214.204 L 396.905,214.148 L 396.976,214.08 L 397.014,214.029 L 397.046,213.974 L 397.09,213.871 L 397.109,213.814 L 397.115,213.749 L 397.12,213.674 L 397.119,213.591 L 397.112,213.509 L 397.075,213.373 L 397.01,213.254 L 396.955,213.181 L 396.899,213.116 L 396.834,213.038 L 396.758,213.008 L 396.695,213 L 396.622,213.034 L 396.57,213.071 L 396.493,213.112 L 396.403,213.103 L 396.334,213.055 L 396.293,213.012 L 396.296,212.933 L 396.349,212.9 L 396.423,212.846 L 396.527,212.839 L 396.614,212.838 L 396.714,212.84 L 396.805,212.841 L 396.885,212.844 L 396.966,212.831 L 397.033,212.816 L 397.078,212.733 L 397.11,212.679 L 397.12,212.61 L 397.062,212.558 L 396.995,212.55 L 396.908,212.565 L 396.816,212.513 L 396.769,212.459 L 396.73,212.38 L 396.705,212.327 L 396.657,212.244 L 396.64,212.143 L 396.666,212.074 L 396.714,212.022 L 396.773,212.014 L 396.831,212.007 L 396.915,212.014 L 396.972,212.034 L 397.052,212.097 L 397.105,212.169 L 397.132,212.222 L 397.172,212.289 L 397.219,212.349 L 397.282,212.398 L 397.352,212.429 L 397.439,212.427 L 397.51,212.41 L 397.967,212.229 L 398.062,212.163 L 398.096,212.114 L 398.148,212.039 L 398.17,211.961 L 398.236,211.883 L 398.319,211.793 L 398.371,211.762 L 398.428,211.723 L 398.496,211.674 L 398.544,211.635 L 398.609,211.571 L 398.653,211.516 L 398.688,211.398 L 398.92,210.803 L 398.99,210.706 L 399.047,210.671 L 399.106,210.651 L 399.183,210.636 L 399.25,210.635 L 399.323,210.641 L 399.396,210.654 L 399.546,210.667 L 399.618,210.667 L 399.689,210.666 L 399.786,210.653 L 399.912,210.654 L 400.03,210.641 L 400.091,210.628 L 400.168,210.611 L 400.248,210.576 L 400.327,210.539 L 400.445,210.477 L 400.513,210.452 L 400.601,210.451 L 400.716,210.43 L 400.799,210.409 L 400.858,210.348 L 400.885,210.272 L 400.872,210.195 L 400.853,210.106 L 400.868,210 L 400.913,209.938 L 400.944,209.873 L 400.952,209.781 L 400.944,209.657 L 400.943,209.558 L 400.977,209.49 L 401.022,209.451 L 401.11,209.388 L 401.203,209.281 L 401.244,209.193 L 401.28,209.138 L 401.317,209.091 L 401.367,209.044 L 401.431,209.006 L 401.488,208.982 L 401.565,208.947 L 401.678,208.915 L 401.802,208.883 L 401.916,208.862 L 402.029,208.857 L 402.086,208.841 L 402.186,208.835 L 402.285,208.835 L 402.379,208.86 L 402.451,208.953 L 402.446,209.051 L 402.44,209.132 L 402.439,209.218 L 402.494,209.25 L 402.576,209.251 L 402.632,209.186 L 402.668,209.133 L 402.686,209.065 L 402.74,209.006 L 402.78,208.914 L 402.799,208.832 L 402.829,208.728 L 402.854,208.657 L 402.866,208.596 L 402.865,208.523 L 402.872,208.427 L 402.854,208.228 L 402.846,208.041 L 402.857,207.892 L 402.854,207.752 L 402.838,207.589 L 402.808,207.472 L 402.775,207.362 L 402.749,207.277 L 402.714,207.181 L 402.672,207.09 L 402.628,206.948 L 402.617,206.875 L 402.617,206.792 L 402.64,206.669 L 402.664,206.612 L 402.689,206.553 L 402.728,206.5 L 402.788,206.43 L 402.857,206.397 L 402.922,206.39 L 403.005,206.412 L 403.036,206.477 L 403.061,206.538 L 403.064,206.605 L 403.067,206.688 L 403.085,206.883 L 403.139,206.984 L 403.208,206.97 L 403.264,206.947 L 403.331,206.903 L 403.375,206.862 L 403.425,206.817 L 403.484,206.745 L 403.514,206.684 L 403.572,206.596 L 403.565,206.511 L 403.538,206.434 L 403.48,206.357 L 403.437,206.296 L 403.355,206.199 L 403.258,206.102 L 403.202,206.024 L 403.183,205.922 L 403.192,205.841 L 403.238,205.718 L 403.286,205.624 L 403.318,205.549 L 403.347,205.455 L 403.363,205.389 L 403.384,205.312 L 403.41,205.214 L 403.438,205.153 L 403.468,205.099 L 403.51,205.032 L 403.582,204.993 L 403.672,204.996 L 403.747,204.997 L 403.849,205.007 L 403.963,205 L 404.05,204.968 L 404.084,204.911 L 404.114,204.86 L 404.125,204.776 L 404.134,204.713 L 404.15,204.599 L 404.13,204.503 L 404.097,204.42 L 404.032,204.378 L 403.984,204.313 L 403.949,204.255 L 403.941,204.196 L 403.946,204.112 L 403.967,204.043 L 404.003,203.951 L 404.035,203.871 L 404.105,203.775 L 404.179,203.658 L 404.281,203.521 L 404.456,203.318 L 404.581,203.199 L 404.678,203.108 L 404.717,203.014 L 404.779,202.922 L 404.828,202.848 L 404.954,202.658 L 405.38,202.025 L 405.457,201.986 L 405.542,201.965 L 405.638,201.972 L 405.734,202.02 L 405.81,202.074 L 405.877,202.1 L 405.932,202.122 L 406.037,202.105 L 406.081,202.035 L 406.105,201.956 L 406.128,201.872 L 406.144,201.787 L 406.151,201.728 L 406.151,201.664 L 406.152,201.597 L 406.149,201.506 L 406.14,201.433 L 406.132,201.368 L 406.104,201.219 L 406.087,201.158 L 406.092,201.079 L 406.081,200.992 L 406.089,200.914 L 406.09,200.845 L 406.095,200.778 L 406.121,200.699 L 406.255,200.636 L 406.33,200.63 L 406.391,200.696 L 406.433,200.806 L 406.476,200.87 L 406.529,200.845 L 406.635,200.859 L 406.68,200.913 L 406.784,200.945 L 406.838,200.912 L 406.897,200.842 L 406.959,200.82 L 407.025,200.847 L 407.136,200.842 L 407.19,200.751 L 407.23,200.677 L 407.303,200.631 L 407.378,200.662 L 407.443,200.655 L 407.494,200.622 L 407.485,200.543 L 407.476,200.433 L 407.525,200.347 L 407.596,200.277 L 407.65,200.232 L 407.732,200.258 L 407.765,200.323 L 407.727,200.368 L 407.636,200.411 L 407.643,200.503 L 407.702,200.517 L 407.777,200.473 L 407.849,200.44 L 407.931,200.462 L 408.004,200.475 L 408.079,200.471 L 408.16,200.448 L 408.227,200.398 L 408.261,200.333 L 408.232,200.274 L 408.134,200.248 L 408.083,200.188 L 408.115,200.127 L 408.185,200.095 L 408.25,200.081 L 408.308,200.005 L 408.275,199.934 L 408.252,199.875 L 408.284,199.826 L 408.351,199.815 L 408.441,199.829 L 408.628,199.895 L 408.694,199.924 L 408.66,199.986 L 408.599,199.999 L 408.54,200.025 L 408.547,200.099 L 408.62,200.133 L 408.712,200.101 L 408.778,200.062 L 408.855,200.013 L 408.942,199.949 L 409.014,199.861 L 409.066,199.775 L 409.12,199.691 L 409.158,199.632 L 409.236,199.556 L 409.283,199.519 L 409.347,199.478 L 409.416,199.412 L 409.464,199.363 L 409.502,199.273 L 409.521,199.206 L 409.553,199.102 L 409.623,199.032 L 409.706,199.009 L 409.798,198.979 L 409.901,198.928 L 409.961,198.864 L 410.032,198.837 L 410.089,198.816 L 410.177,198.765 L 410.234,198.733 L 410.295,198.737 L 410.365,198.793 L 410.448,198.795 L 410.754,198.721 L 410.807,198.694 L 410.863,198.634 L 410.913,198.567 L 410.951,198.474 L 410.987,198.407 L 411.025,198.36 L 411.095,198.311 L 411.175,198.3 L 411.274,198.276 L 411.329,198.257 L 411.377,198.202 L 411.456,198.171 L 411.529,198.166 L 411.585,198.107 L 411.66,198.088 L 411.741,198.085 L 411.804,198.058 L 411.854,197.992 L 411.916,197.911 L 411.969,197.886 L 412.044,197.893 L 412.134,197.919 L 412.141,197.982 L 412.143,198.057 L 412.15,198.132 L 412.216,198.162 L 412.289,198.157 L 412.351,198.102 L 412.397,198.012 L 412.395,197.878 L 412.344,197.826 L 412.402,197.794 L 412.485,197.807 L 412.568,197.852 L 412.626,197.865 L 412.735,197.852 L 412.843,197.808"
       id="path15481"
       style="fill-rule:evenodd" />
   </g>
</svg>