<svg
   xmlns:svg="http://www.w3.org/2000/svg"
   xmlns="http://www.w3.org/2000/svg"
   version="1.0"
   width="2100"
   height="1300"
   viewBox="0 0 2100 1300"
   id="svg14921">
   <g
     transform="matrix(2.2640019,0,0,2.2640019,-216.71416,-21.6991)"
     id="g14955"
     style="font-size:16.25px;font-style:normal;font-weight:400;fill:#fefee9;fill-opacity:1;fill-rule:evenodd;stroke:#000000;stroke-width:0.0984252;stroke-linecap:square;stroke-linejoin:bevel;stroke-opacity:1;font-family:Lucida Grande">
    <path
       name="wareham" d="M 802.105,379.107 L 807.467,385.255 L 809.709,387.795 L 815.683,387.295 L 837.793,385.449 L 839.664,385.588 L 841.69,385.719 L 839.713,390.186 L 839.037,391.808 L 839.003,391.899 L 838.98,391.989 L 838.915,392.006 L 838.857,392.065 L 838.794,392.088 L 838.705,392.061 L 838.621,392.083 L 838.544,392.108 L 838.489,392.086 L 838.404,392.079 L 838.335,392.06 L 838.264,392.051 L 838.231,392.098 L 838.147,392.152 L 838.122,392.253 L 838.147,392.379 L 838.182,392.501 L 838.247,392.553 L 838.305,392.592 L 838.319,392.694 L 838.359,392.755 L 838.344,392.822 L 838.291,392.868 L 838.274,392.925 L 838.227,392.975 L 838.171,393.042 L 838.158,393.129 L 838.135,393.184 L 838.169,393.231 L 838.181,393.3 L 838.18,393.367 L 838.186,393.449 L 838.132,393.546 L 838.117,393.643 L 838.12,393.745 L 838.078,393.82 L 838.11,393.883 L 838.136,393.965 L 838.129,394.039 L 838.124,394.123 L 838.171,394.18 L 838.18,394.243 L 838.216,394.307 L 838.211,394.366 L 838.225,394.426 L 838.29,394.484 L 838.407,394.516 L 838.488,394.527 L 838.547,394.596 L 838.58,394.723 L 838.567,394.798 L 838.577,394.883 L 838.556,394.966 L 838.535,395.035 L 838.497,395.086 L 838.483,395.171 L 838.482,395.277 L 838.457,395.335 L 838.437,395.41 L 838.394,395.501 L 838.348,395.444 L 838.294,395.492 L 838.255,395.557 L 838.198,395.585 L 838.169,395.658 L 838.168,395.739 L 838.163,395.841 L 838.191,395.918 L 838.253,395.973 L 838.255,396.041 L 838.301,396.124 L 838.316,396.19 L 838.281,396.273 L 838.282,396.348 L 838.334,396.417 L 838.245,396.658 L 838.169,396.704 L 838.113,396.779 L 838.024,396.811 L 837.922,396.867 L 837.854,396.931 L 837.805,396.967 L 837.767,397.016 L 837.674,397.07 L 837.575,397.126 L 837.559,397.193 L 837.572,397.254 L 837.587,397.366 L 837.544,397.451 L 837.496,397.538 L 837.469,397.61 L 837.42,397.667 L 837.359,397.707 L 837.309,397.741 L 837.225,397.826 L 837.146,397.866 L 837.038,397.885 L 836.986,397.911 L 836.929,397.949 L 836.88,397.987 L 836.831,398.037 L 836.8,398.096 L 836.786,398.206 L 836.812,398.31 L 836.862,398.367 L 836.948,398.504 L 836.965,398.657 L 836.998,398.876 L 837.023,398.952 L 837.112,399.095 L 837.214,399.214 L 837.234,399.277 L 837.241,399.366 L 837.234,399.446 L 837.26,399.549 L 837.31,399.597 L 837.379,399.648 L 837.415,399.716 L 837.447,399.773 L 837.474,399.862 L 837.519,399.92 L 837.567,399.975 L 837.623,400.037 L 837.672,400.078 L 837.716,400.125 L 837.74,400.194 L 837.739,400.292 L 837.735,400.44 L 837.798,400.52 L 837.858,400.528 L 837.936,400.527 L 837.99,400.554 L 838.002,400.627 L 838.07,400.705 L 838.092,400.783 L 838.166,400.881 L 838.271,400.947 L 838.352,401.001 L 838.41,401.105 L 838.508,401.351 L 838.294,401.298 L 838.295,401.375 L 838.464,401.792 L 838.533,402.342 L 838.375,402.368 L 838.313,402.448 L 838.229,402.739 L 838.225,403.117 L 838.275,403.422 L 838.222,403.654 L 838.035,403.78 L 838.067,403.906 L 838.13,403.913 L 838.342,403.849 L 838.713,403.9 L 838.956,403.793 L 839.09,403.771 L 839.2,403.817 L 839.272,403.877 L 839.337,404.089 L 839.355,404.287 L 839.342,404.666 L 839.43,404.8 L 839.533,404.902 L 839.867,405.117 L 840.018,405.268 L 840.581,405.614 L 840.582,405.692 L 840.419,405.932 L 840.279,406.091 L 840.154,406.117 L 839.876,405.954 L 839.637,405.829 L 839.226,405.739 L 838.768,405.563 L 838.539,405.446 L 838.325,405.387 L 838.2,405.403 L 838.044,405.569 L 838.045,405.721 L 838.109,405.812 L 838.252,405.944 L 838.965,406.404 L 839.241,406.48 L 839.227,406.589 L 839.071,406.804 L 838.946,406.916 L 838.876,406.946 L 838.608,406.936 L 837.575,406.78 L 837.15,406.798 L 836.71,406.954 L 836.632,407.04 L 836.633,407.117 L 836.697,407.19 L 836.683,407.411 L 836.583,407.646 L 836.461,408.04 L 836.454,408.137 L 836.385,408.381 L 836.418,408.532 L 836.641,408.718 L 836.751,408.717 L 836.71,408.598 L 836.623,408.504 L 836.598,408.443 L 836.661,408.394 L 836.763,408.394 L 836.93,408.495 L 836.986,408.667 L 836.948,408.792 L 836.66,409.157 L 836.662,409.346 L 836.79,409.55 L 837.117,409.972 L 837.141,410.036 L 837.143,410.17 L 837.048,410.21 L 836.726,410.213 L 836.591,410.152 L 836.227,409.927 L 836.093,409.903 L 835.667,409.893 L 835.674,409.791 L 835.799,409.685 L 835.877,409.543 L 836.01,409.496 L 836.017,409.399 L 835.733,409.287 L 835.56,409.326 L 835.126,409.329 L 834.907,409.419 L 834.812,409.413 L 834.77,409.154 L 834.587,408.973 L 833.904,408.342 L 833.746,408.266 L 833.501,408.211 L 832.801,408.219 L 832.573,408.316 L 832.393,408.435 L 832.314,408.398 L 832.329,408.295 L 832.545,407.882 L 832.551,407.64 L 832.51,407.489 L 832.455,407.42 L 832.277,406.966 L 832.18,406.684 L 832.178,406.516 L 832.287,406.352 L 832.67,406.064 L 833.14,405.877 L 833.257,405.718 L 833.262,405.452 L 833.23,405.397 L 833.235,405.096 L 833.296,404.861 L 833.413,404.7 L 832.986,404.529 L 832.774,404.579 L 832.695,404.619 L 832.594,404.739 L 832.525,404.868 L 832.424,405.026 L 832.229,405.234 L 832.033,405.37 L 831.941,405.574 L 831.87,405.638 L 831.673,405.591 L 831.459,405.461 L 831.379,405.367 L 831.225,404.879 L 831.145,404.735 L 831.019,404.668 L 830.822,404.661 L 830.758,404.629 L 830.883,404.51 L 831.41,404.451 L 831.575,404.394 L 831.597,404.229 L 831.541,404.159 L 831.532,403.961 L 831.436,403.821 L 831.435,403.741 L 832.11,403.451 L 832.125,403.389 L 831.943,403.288 L 831.833,403.32 L 831.755,403.378 L 831.385,403.41 L 831.29,403.382 L 831.196,403.413 L 831.119,403.595 L 831.04,403.579 L 830.945,403.485 L 830.85,403.519 L 830.788,403.614 L 830.79,403.843 L 830.887,404.126 L 830.873,404.219 L 830.519,404.347 L 830.425,404.341 L 830.393,404.28 L 830.351,404.027 L 830.287,403.951 L 830.209,403.975 L 830.221,404.399 L 830.253,404.46 L 830.246,404.578 L 830.16,404.668 L 830.209,404.846 L 830.533,404.958 L 830.771,405.09 L 830.851,405.215 L 830.867,405.308 L 830.844,405.38 L 830.743,405.476 L 830.744,405.538 L 831.012,405.607 L 831.274,405.857 L 831.361,405.864 L 831.643,405.741 L 831.786,405.873 L 831.851,406.039 L 831.852,406.197 L 831.884,406.261 L 831.854,406.417 L 831.8,406.521 L 831.66,406.702 L 831.818,406.731 L 831.913,406.778 L 832.048,406.92 L 832.176,407.161 L 832.21,407.353 L 832.22,407.625 L 832.088,407.768 L 831.876,407.905 L 831.711,407.947 L 831.326,407.974 L 831.232,408.054 L 831.13,408.069 L 831.035,408.001 L 830.987,407.915 L 830.695,407.939 L 830.389,408.014 L 830.264,408.085 L 830.115,408.223 L 830.03,408.35 L 829.729,408.966 L 829.699,409.163 L 829.628,409.171 L 829.461,408.999 L 829.158,408.577 L 829.078,408.412 L 829.06,408.177 L 829.105,407.986 L 829.205,407.741 L 829.36,407.448 L 829.351,407.355 L 829.265,407.38 L 828.993,407.785 L 828.9,407.887 L 828.742,407.882 L 828.733,407.78 L 828.772,407.723 L 828.941,407.25 L 829.104,407.034 L 829.165,406.883 L 829.259,406.822 L 829.394,406.883 L 829.496,406.858 L 829.472,406.788 L 829.36,406.66 L 829.335,406.522 L 829.16,406.341 L 829.066,406.359 L 829.061,406.703 L 829.023,406.822 L 828.82,407.021 L 828.226,407.413 L 828.124,407.444 L 828.005,407.351 L 827.871,407.371 L 827.831,407.323 L 827.774,407.166 L 827.443,407.058 L 827.276,406.957 L 827.164,406.808 L 827.046,406.772 L 826.769,406.578 L 826.524,406.523 L 826.414,406.589 L 826.32,406.598 L 826.176,406.394 L 826.105,406.393 L 826.043,406.441 L 825.927,406.702 L 825.921,406.854 L 825.985,406.924 L 826.317,407.084 L 826.373,407.204 L 826.413,407.258 L 826.547,407.273 L 826.805,407.033 L 826.962,407.032 L 827.256,407.265 L 827.477,407.302 L 827.54,407.365 L 827.565,407.451 L 827.575,407.727 L 827.541,408.277 L 827.647,408.609 L 827.885,408.85 L 828.138,409.004 L 828.636,409.119 L 829.179,409.168 L 829.274,409.215 L 829.268,409.371 L 829.206,409.459 L 829.064,409.507 L 829.018,409.564 L 828.933,409.768 L 828.935,409.926 L 829.03,410.051 L 829.173,410.167 L 829.411,410.291 L 829.735,410.39 L 829.899,410.366 L 830.229,410.18 L 830.431,409.966 L 830.538,409.563 L 830.536,409.389 L 830.574,409.224 L 830.628,409.169 L 830.755,409.169 L 830.921,409.239 L 831.096,409.426 L 831.368,409.917 L 831.718,410.285 L 831.918,410.654 L 832.157,410.886 L 832.561,411.119 L 833.747,411.627 L 834.015,411.703 L 834.513,411.903 L 834.814,412.074 L 834.862,412.137 L 834.871,412.215 L 834.84,412.364 L 834.755,412.435 L 834.542,412.485 L 834.127,412.664 L 834.065,412.744 L 834.059,412.924 L 834.107,413.003 L 834.21,413.065 L 834.541,413.179 L 834.645,413.294 L 834.772,413.374 L 835.119,413.494 L 835.311,413.793 L 835.304,413.926 L 834.761,413.893 L 834.564,413.926 L 834.327,413.818 L 833.969,413.485 L 833.913,413.396 L 833.887,413.115 L 833.847,413.036 L 833.593,412.77 L 833.213,412.626 L 833.008,412.604 L 832.898,412.635 L 832.805,412.771 L 832.798,412.889 L 832.823,412.997 L 833.007,413.28 L 832.977,413.446 L 832.82,413.462 L 832.48,413.404 L 832.189,413.397 L 831.953,413.417 L 831.975,413.252 L 831.461,413.003 L 831.374,412.996 L 831.319,413.038 L 831.313,413.187 L 831.345,413.304 L 831.425,413.423 L 831.813,413.632 L 832.168,413.683 L 832.255,413.761 L 832.504,414.247 L 832.861,414.519 L 832.893,414.589 L 833.092,414.776 L 832.999,415.005 L 833.002,415.209 L 833.184,415.412 L 833.264,415.546 L 833.582,415.809 L 833.592,416.085 L 833.255,416.222 L 833.201,416.286 L 833.133,416.617 L 833.072,416.767 L 832.707,417.345 L 832.723,417.441 L 832.732,417.518 L 832.678,417.647 L 831.429,419.557 L 830.891,420.19 L 830.496,420.849 L 830.123,421.356 L 829.702,421.815 L 829.245,422.57 L 828.988,422.903 L 828.6,423.497 L 828.21,423.903 L 828.093,423.98 L 828.015,424.039 L 827.859,424.229 L 827.221,425.091 L 827.095,425.132 L 826.985,425.117 L 826.928,424.852 L 827.036,424.622 L 827.058,424.51 L 828.056,423.414 L 830.333,420.321 L 831.483,418.634 L 832.478,417.324 L 832.533,417.239 L 832.609,416.945 L 832.599,416.725 L 832.487,416.632 L 832.203,416.557 L 832.03,416.574 L 831.789,416.858 L 831.687,416.947 L 831.507,417.018 L 831.263,417.047 L 830.695,416.917 L 830.055,416.688 L 829.682,416.469 L 829.183,416.137 L 828.651,415.653 L 828.587,415.537 L 828.513,415.276 L 828.417,415.126 L 828.131,414.815 L 828.051,414.681 L 827.992,414.249 L 827.919,414.102 L 827.515,413.838 L 827.317,413.658 L 827.085,413.345 L 826.855,413.129 L 826.3,412.732 L 825.889,412.577 L 825.738,412.47 L 825.634,412.225 L 825.607,411.918 L 825.677,411.848 L 826.063,411.858 L 826.064,411.924 L 825.962,412.017 L 825.939,412.089 L 825.981,412.286 L 826.068,412.379 L 826.139,412.355 L 826.294,412.118 L 826.373,412.101 L 826.406,412.335 L 826.518,412.453 L 826.574,412.588 L 826.662,412.672 L 826.883,412.74 L 827.166,412.769 L 827.229,412.73 L 827.203,412.464 L 826.928,412.553 L 826.826,412.546 L 826.77,412.489 L 826.722,412.357 L 826.728,412.224 L 826.868,412.049 L 826.899,411.936 L 826.984,411.773 L 826.983,411.692 L 826.935,411.622 L 826.636,411.649 L 826.596,411.586 L 826.587,411.428 L 826.397,411.353 L 826.198,411.126 L 825.905,411.004 L 825.733,411.037 L 825.678,411.101 L 825.625,411.298 L 825.562,411.361 L 825.493,411.494 L 825.338,411.812 L 825.244,411.796 L 825.211,411.725 L 825.194,411.552 L 825.129,411.355 L 825.026,411.262 L 824.955,411.264 L 824.999,411.713 L 825.414,412.284 L 825.511,412.557 L 825.537,412.77 L 825.514,412.848 L 825.428,412.938 L 825.278,412.923 L 824.236,412.681 L 824.109,412.548 L 824.013,412.359 L 823.861,412.196 L 823.553,412.041 L 823.481,411.884 L 823.02,411.488 L 822.917,411.442 L 822.712,411.426 L 822.633,411.397 L 822.42,411.376 L 822.349,411.319 L 822.254,411.306 L 822.105,411.329 L 822.09,411.41 L 822.305,411.621 L 822.321,411.683 L 822.456,411.815 L 822.907,412.016 L 823.114,412.212 L 823.439,412.459 L 823.471,412.524 L 823.44,412.618 L 823.141,412.62 L 823.134,412.698 L 823.206,412.792 L 823.603,413.112 L 823.832,413.22 L 823.966,413.194 L 824.082,412.974 L 824.176,412.956 L 824.232,413.01 L 824.147,413.239 L 824.164,413.365 L 824.212,413.435 L 824.474,413.608 L 824.545,413.692 L 824.546,413.779 L 824.27,413.734 L 824.089,413.762 L 823.697,413.906 L 823.389,413.869 L 823.106,413.911 L 823.072,413.676 L 822.945,413.55 L 822.66,413.372 L 822.08,412.788 L 821.858,412.648 L 821.613,412.563 L 820.998,412.484 L 820.618,412.328 L 820.224,412.262 L 819.767,412.266 L 819.288,412.336 L 818.965,412.321 L 818.766,412.174 L 818.471,411.798 L 818.47,411.64 L 818.666,411.591 L 818.869,411.393 L 818.868,411.316 L 818.663,411.207 L 818.521,411.217 L 818.365,411.343 L 818.2,411.409 L 817.964,411.41 L 817.262,411.347 L 817.065,411.3 L 816.654,411.138 L 816.811,411.1 L 817.821,411.278 L 818.002,411.27 L 818.127,411.213 L 818.228,411.03 L 818.258,410.88 L 818.262,410.446 L 818.52,410.247 L 818.621,410.113 L 818.651,409.985 L 818.592,409.618 L 818.511,409.351 L 818.517,409.167 L 818.563,409.042 L 818.68,408.914 L 819.056,408.708 L 819.126,408.66 L 819.742,407.944 L 819.82,407.889 L 819.907,407.911 L 820.24,408.143 L 820.484,408.189 L 820.541,408.37 L 820.621,408.479 L 820.747,408.525 L 820.975,408.484 L 821.101,408.403 L 821.147,408.349 L 821.154,408.191 L 821.239,408.102 L 821.514,407.935 L 821.718,407.861 L 821.717,407.799 L 821.473,407.8 L 821.262,407.968 L 821.065,408.026 L 820.868,408.035 L 820.577,407.991 L 820.355,407.876 L 820.141,407.656 L 820.184,407.286 L 820.137,407.241 L 820.05,407.219 L 819.814,407.275 L 819.542,407.608 L 819.511,407.678 L 819.347,407.822 L 819.26,407.821 L 819.212,407.736 L 819.146,407.437 L 819.176,407.281 L 819.159,407.139 L 818.967,406.835 L 818.989,406.676 L 819.144,406.414 L 819.277,406.255 L 819.683,405.883 L 819.816,405.786 L 819.91,405.762 L 820.674,405.777 L 820.673,405.659 L 820.537,405.418 L 820.369,405.199 L 820.21,404.987 L 820.082,404.842 L 819.93,404.623 L 819.477,404.125 L 819.022,403.468 L 818.863,403.302 L 818.777,403.33 L 818.667,403.438 L 818.424,403.514 L 818.266,403.515 L 818.124,403.476 L 817.958,403.391 L 817.831,403.252 L 817.688,403.166 L 817.315,402.799 L 817.313,402.635 L 817.375,402.524 L 817.665,402.401 L 817.696,402.338 L 817.672,402.283 L 817.49,402.177 L 817.496,402.049 L 817.535,401.977 L 817.542,401.859 L 817.762,401.818 L 817.809,401.749 L 817.807,401.628 L 817.767,401.558 L 817.569,401.452 L 817.506,401.379 L 817.489,401.318 L 817.598,401.119 L 817.738,400.969 L 817.871,400.913 L 818.328,400.915 L 818.501,400.86 L 818.61,400.764 L 818.717,400.392 L 818.819,400.336 L 819,400.365 L 819.334,400.684 L 819.547,400.786 L 819.847,400.846 L 820.061,400.985 L 820.282,401.053 L 820.425,401.133 L 820.653,401.123 L 820.794,401.05 L 820.944,401.055 L 821.187,400.943 L 821.287,400.729 L 821.405,400.657 L 821.515,400.679 L 821.808,400.866 L 821.903,400.888 L 822.178,400.815 L 822.279,400.687 L 822.403,400.427 L 822.449,400.379 L 822.606,400.325 L 823.204,400.254 L 823.243,400.197 L 823.258,400.119 L 823.179,400.091 L 822.912,400.123 L 822.533,400.026 L 822.43,400.026 L 822.313,400.138 L 822.074,400.659 L 821.98,400.684 L 821.773,400.504 L 821.717,400.394 L 821.323,400.303 L 821.11,400.297 L 820.985,400.353 L 820.946,400.426 L 820.908,400.622 L 820.846,400.717 L 820.752,400.726 L 820.317,400.59 L 819.558,400.28 L 819.448,400.299 L 819.33,400.284 L 819.25,400.119 L 819.154,400.035 L 818.925,399.958 L 818.807,399.958 L 818.534,400.174 L 818.464,400.26 L 818.356,400.56 L 818.232,400.697 L 817.83,400.715 L 817.194,400.833 L 816.929,401.148 L 816.898,401.245 L 816.829,401.464 L 816.775,401.577 L 816.72,401.607 L 816.634,401.594 L 816.53,401.399 L 816.434,401.28 L 816.355,401.298 L 816.308,401.343 L 816.237,401.33 L 816.227,401.029 L 816.044,400.82 L 815.766,400.624 L 815.692,400.325 L 815.589,400.179 L 815.516,400.005 L 815.429,399.927 L 814.994,399.744 L 814.907,399.737 L 814.933,399.941 L 815.069,400.192 L 815.308,400.52 L 815.857,401.096 L 816.057,401.353 L 816.43,401.73 L 816.51,401.846 L 817.114,402.408 L 817.146,402.469 L 817.117,402.746 L 817.174,402.887 L 817.437,403.254 L 817.939,403.872 L 818.011,404.022 L 818.18,404.333 L 818.204,404.429 L 818.112,404.689 L 818.138,404.877 L 818.186,405.006 L 818.267,405.202 L 818.268,405.304 L 818.221,405.408 L 818.05,405.574 L 817.956,405.624 L 817.649,405.648 L 817.594,405.69 L 817.65,405.785 L 818.124,405.92 L 818.283,406.061 L 818.316,406.243 L 818.286,406.361 L 818.192,406.448 L 818.02,406.543 L 817.823,406.536 L 817.673,406.491 L 817.419,406.337 L 816.958,405.916 L 816.839,405.815 L 816.523,405.725 L 816.001,405.47 L 815.953,405.382 L 815.96,405.242 L 816.139,405.026 L 816.303,404.963 L 816.423,405.034 L 816.613,405.106 L 816.733,405.13 L 816.8,405.015 L 816.713,404.922 L 816.358,404.901 L 816.287,404.848 L 816.236,404.511 L 815.942,404.247 L 815.785,404.208 L 815.768,404.075 L 815.649,403.979 L 815.515,404.014 L 815.34,403.864 L 815.125,403.576 L 814.815,403.318 L 814.615,402.983 L 814.536,402.889 L 814.449,402.858 L 814.315,402.915 L 814.316,402.977 L 814.412,403.104 L 814.739,403.532 L 814.86,403.832 L 814.861,403.965 L 814.814,404.029 L 814.618,404.099 L 814.485,404.181 L 814.147,404.309 L 814.125,404.412 L 814.315,404.598 L 814.45,404.597 L 814.606,404.503 L 814.771,404.445 L 815.158,404.592 L 815.505,404.588 L 815.655,404.714 L 815.892,404.726 L 815.9,404.797 L 815.838,404.885 L 815.564,405.033 L 815.494,405.113 L 815.503,405.205 L 815.86,405.564 L 816.122,405.774 L 816.124,405.925 L 816.054,406.011 L 815.881,406.1 L 815.834,406.154 L 815.854,406.541 L 815.793,406.707 L 815.668,406.872 L 815.669,406.943 L 815.992,406.95 L 816.134,406.97 L 816.181,407.009 L 816.198,407.105 L 816.254,407.144 L 816.552,407.094 L 816.748,406.98 L 816.882,406.973 L 816.945,407.033 L 816.954,407.098 L 817.034,407.192 L 817.152,407.223 L 817.362,406.943 L 817.519,406.886 L 817.715,406.846 L 817.928,406.853 L 817.96,406.907 L 817.963,407.205 L 817.995,407.306 L 818.211,407.573 L 818.156,407.606 L 817.747,407.695 L 817.426,407.841 L 817.05,408.088 L 816.822,408.163 L 816.689,408.235 L 816.424,408.512 L 816.425,408.59 L 816.504,408.628 L 816.552,408.754 L 816.492,408.985 L 816.328,409.135 L 816.139,409.225 L 816,409.415 L 815.725,409.55 L 814.94,409.809 L 814.847,409.914 L 814.872,410.062 L 814.881,410.22 L 814.771,410.229 L 814.629,410.159 L 814.359,409.934 L 814.232,409.873 L 814.096,409.684 L 813.826,409.395 L 813.448,409.446 L 813.133,409.424 L 813.047,409.483 L 812.97,409.6 L 812.71,409.635 L 812.552,409.565 L 812.402,409.566 L 812.269,409.592 L 812.008,409.501 L 812.009,409.587 L 812.104,409.65 L 812.389,409.756 L 813.444,410.603 L 813.619,410.784 L 813.621,410.957 L 813.582,411.052 L 813.592,411.272 L 813.616,411.342 L 813.651,411.713 L 813.772,411.964 L 813.875,412.042 L 814.603,412.364 L 814.706,412.458 L 814.778,412.598 L 814.811,412.74 L 814.735,413.055 L 814.736,413.167 L 814.881,413.494 L 814.939,413.763 L 815.123,414.046 L 815.116,414.154 L 815.069,414.211 L 814.818,414.3 L 814.684,414.31 L 814.621,414.287 L 814.406,414.082 L 814.247,413.879 L 813.985,413.66 L 813.514,413.051 L 813.388,412.958 L 813.117,412.653 L 812.95,412.521 L 812.84,412.506 L 812.683,412.532 L 812.581,412.588 L 812.518,412.581 L 812.493,412.448 L 812.414,412.385 L 812.248,412.402 L 812.084,412.466 L 811.989,412.413 L 811.925,412.344 L 811.877,412.233 L 811.695,412.133 L 811.676,411.873 L 811.652,411.809 L 811.533,411.71 L 811.375,411.64 L 811.296,411.633 L 811.176,411.476 L 811.025,411.272 L 810.842,411.095 L 810.691,410.984 L 810.587,410.789 L 810.492,410.664 L 810.526,410.127 L 810.61,409.898 L 810.783,409.89 L 810.719,409.734 L 810.777,409.236 L 810.752,409.047 L 810.748,408.654 L 810.708,408.605 L 810.614,408.648 L 810.62,409.262 L 810.589,409.387 L 810.21,410.021 L 810.18,410.218 L 810.081,410.59 L 810.084,410.881 L 810.022,410.982 L 809.962,411.266 L 809.876,411.362 L 809.585,411.389 L 809.356,411.312 L 809.166,411.221 L 809.126,411.157 L 809.148,411.033 L 809.389,410.721 L 809.491,410.657 L 809.686,410.452 L 809.779,410.26 L 809.784,409.969 L 809.608,409.648 L 809.353,409.377 L 809.091,409.149 L 808.885,409.059 L 808.688,409.012 L 808.585,408.943 L 808.426,408.762 L 808.441,408.699 L 808.527,408.644 L 808.653,408.634 L 808.708,408.586 L 808.715,408.484 L 808.445,408.299 L 808.552,407.952 L 808.707,407.659 L 808.777,407.617 L 808.84,407.624 L 808.904,407.672 L 808.976,407.772 L 809.002,408.041 L 809.065,408.111 L 809.183,408.07 L 809.221,407.976 L 809.205,407.843 L 809.053,407.599 L 809.035,407.395 L 809.117,406.937 L 809.187,406.851 L 809.414,406.699 L 809.452,406.502 L 809.211,406.047 L 809.186,405.93 L 809.174,405.456 L 809.141,405.355 L 809.108,405.095 L 808.969,404.587 L 808.958,404.312 L 809.012,404.155 L 809.001,403.886 L 809.111,403.768 L 809.258,403.537 L 809.375,403.413 L 809.405,403.269 L 809.365,403.183 L 809.371,403.034 L 809.496,402.913 L 809.7,402.811 L 810.022,402.711 L 810.138,402.466 L 810.12,402.318 L 809.904,401.949 L 809.864,401.817 L 809.87,401.597 L 809.922,401.366 L 810.023,401.17 L 810.014,401.065 L 809.95,400.996 L 809.76,400.871 L 809.578,400.693 L 809.545,400.607 L 809.362,400.38 L 809.228,400.335 L 809.23,400.57 L 809.533,400.946 L 809.763,401.162 L 809.788,401.267 L 809.601,401.552 L 809.58,401.825 L 809.638,402.155 L 809.335,402.546 L 809.139,402.666 L 808.906,402.942 L 808.821,403.085 L 808.745,403.394 L 808.716,403.677 L 808.51,404.325 L 808.46,404.869 L 808.499,404.93 L 808.509,405.1 L 808.497,405.485 L 808.412,405.698 L 808.432,406.085 L 808.409,406.179 L 808.191,406.396 L 808.067,406.592 L 808.054,406.924 L 807.907,407.192 L 807.858,407.783 L 807.938,407.973 L 807.86,408.084 L 807.822,408.209 L 807.809,408.47 L 807.725,408.77 L 807.721,409.133 L 807.675,409.243 L 807.59,409.254 L 807.368,409.052 L 807.154,408.894 L 807.017,408.551 L 806.961,408.472 L 806.848,408.109 L 806.745,407.986 L 806.602,407.884 L 806.333,407.762 L 806.057,407.692 L 805.805,407.718 L 805.74,407.745 L 805.609,407.77 L 805.45,407.825 L 805.351,407.864 L 805.257,407.897 L 805.198,407.901 L 805.137,407.928 L 805.081,407.964 L 805.028,408.016 L 804.988,408.069 L 804.949,408.145 L 804.931,408.218 L 804.924,408.305 L 804.931,408.383 L 804.953,408.454 L 805.002,408.536 L 805.08,408.68 L 805.109,408.733 L 805.119,408.794 L 804.995,408.92 L 804.91,408.994 L 804.861,409.037 L 804.767,409.047 L 804.713,409.016 L 804.642,408.956 L 804.586,408.937 L 804.509,408.928 L 804.449,408.943 L 804.392,408.965 L 804.337,408.989 L 804.241,409.018 L 804.161,409.037 L 804.095,409.073 L 804.048,409.131 L 804.055,409.235 L 804.066,409.312 L 804.029,409.363 L 803.967,409.376 L 803.883,409.405 L 803.832,409.464 L 803.806,409.559 L 803.776,409.666 L 803.724,409.722 L 803.67,409.823 L 803.653,409.888 L 803.52,410.09 L 803.462,410.16 L 803.396,410.22 L 803.329,410.235 L 803.264,410.235 L 803.178,410.27 L 803.13,410.34 L 803.027,410.589 L 802.969,410.659 L 802.913,410.716 L 802.868,410.76 L 802.812,410.775 L 802.602,410.85 L 802.463,410.874 L 802.365,410.889 L 802.231,410.891 L 802.143,410.896 L 802.045,410.917 L 801.956,410.912 L 801.849,410.864 L 801.78,410.826 L 801.697,410.782 L 801.623,410.724 L 801.613,410.667 L 801.626,410.608 L 801.688,410.573 L 801.739,410.527 L 801.761,410.417 L 801.738,410.362 L 801.652,410.383 L 801.582,410.411 L 801.499,410.41 L 801.417,410.478 L 801.41,410.542 L 801.313,410.592 L 801.248,410.614 L 801.146,410.618 L 801.139,410.531 L 801.14,410.447 L 801.177,410.129 L 801.211,409.898 L 801.246,409.733 L 801.312,409.372 L 801.328,409.236 L 801.34,409.1 L 801.348,408.995 L 801.347,408.905 L 801.336,408.808 L 801.317,408.718 L 801.303,408.661 L 801.266,408.573 L 800.891,408.141 L 800.797,408.026 L 800.609,407.895 L 800.446,407.746 L 800.324,407.609 L 800.266,407.516 L 800.228,407.459 L 800.149,407.226 L 800.071,407.103 L 800.011,406.97 L 799.846,406.46 L 799.732,406.442 L 799.328,405.169 L 799.317,405.109 L 799.294,405.017 L 799.28,404.856 L 799.312,404.653 L 799.392,404.305 L 799.523,403.863 L 799.556,403.703 L 799.591,403.541 L 799.59,403.474 L 799.584,403.366 L 799.577,403.237 L 799.587,403.032 L 799.659,402.417 L 799.684,402.285 L 800.046,401.296 L 800.213,400.815 L 800.33,400.564 L 800.436,400.346 L 800.588,400.064 L 800.654,399.898 L 800.777,399.56 L 800.99,398.947 L 801.167,398.401 L 801.176,398.326 L 801.168,398.244 L 801.062,397.974 L 800.982,397.735 L 800.886,397.392 L 800.87,397.095 L 800.855,396.484 L 800.866,396.32 L 800.854,395.976 L 800.782,395.769 L 800.709,395.402 L 800.646,395.124 L 800.598,394.792 L 800.463,392.853 L 800.536,392.848 L 800.486,392.526 L 800.434,392.243 L 800.351,392.038 L 800.308,391.93 L 800.217,391.78 L 800.166,391.661 L 800.157,391.463 L 800.098,390.807 L 800.12,390.413 L 800.195,390.004 L 800.259,389.872 L 800.28,389.777 L 800.242,389.508 L 800.296,389.049 L 800.632,388.721 L 800.758,388.483 L 801.143,387.785 L 801.34,387.53 L 801.463,387.349 L 801.517,387.11 L 801.562,386.838 L 801.621,386.617 L 801.702,386.372 L 801.745,386.226 L 801.751,385.925 L 801.748,385.085 L 801.762,384.879 L 803.979,384.573 L 802.105,379.107"
       id="path15897"
       style="fill-rule:evenodd" />
    <path
       name="wareham" d="M 832.396,409.561 L 832.317,409.492 L 832.285,409.437 L 832.259,409.233 L 832.298,409.155 L 832.384,409.106 L 832.486,409.097 L 832.613,409.173 L 832.677,409.258 L 832.655,409.426 L 832.53,409.529 L 832.396,409.561"
       id="path15963"
       style="fill-rule:evenodd" />
    <path
       name="wareham" d="M 834.954,411.096 L 834.905,410.908 L 834.77,410.745 L 834.673,410.462 L 834.67,410.186 L 834.708,410.089 L 834.795,410.089 L 834.806,410.381 L 834.846,410.445 L 834.916,410.418 L 834.986,410.245 L 835.08,410.246 L 835.499,410.413 L 835.595,410.537 L 835.588,410.634 L 835.417,410.847 L 835.237,411.007 L 835.057,411.087 L 834.954,411.096"
       id="path15967"
       style="fill-rule:evenodd" />
   </g>
</svg>