<svg
   xmlns:svg="http://www.w3.org/2000/svg"
   xmlns="http://www.w3.org/2000/svg"
   version="1.0"
   width="2100"
   height="1300"
   viewBox="0 0 2100 1300"
   id="svg14921">
   <g
     transform="matrix(2.2640019,0,0,2.2640019,-216.71416,-21.6991)"
     id="g14955"
     style="font-size:16.25px;font-style:normal;font-weight:400;fill:#fefee9;fill-opacity:1;fill-rule:evenodd;stroke:#000000;stroke-width:0.0984252;stroke-linecap:square;stroke-linejoin:bevel;stroke-opacity:1;font-family:Lucida Grande">
    <path
       name="warren" d="M 432.351,232.716 L 439.619,232.712 L 439.677,233.141 L 439.732,233.862 L 439.966,234.54 L 440.378,234.477 L 440.409,234.59 L 440.392,234.68 L 440.411,234.751 L 440.408,234.833 L 440.376,234.905 L 440.385,234.964 L 440.436,235.016 L 440.457,235.077 L 440.472,235.14 L 440.483,235.219 L 440.472,235.28 L 440.499,235.355 L 440.498,235.42 L 440.509,235.51 L 440.531,235.642 L 440.54,235.703 L 440.583,235.765 L 440.644,235.813 L 440.621,235.877 L 440.583,235.971 L 440.605,236.07 L 440.636,236.135 L 440.606,236.209 L 440.628,236.265 L 440.671,236.366 L 440.689,236.46 L 440.692,236.541 L 440.705,236.64 L 440.734,236.703 L 440.744,236.785 L 440.726,236.856 L 440.709,236.919 L 440.716,236.986 L 440.774,237.073 L 440.801,237.168 L 440.831,237.237 L 440.866,237.31 L 440.875,237.369 L 440.896,237.456 L 440.903,237.523 L 440.92,237.614 L 440.96,237.674 L 441.037,237.68 L 441.111,237.703 L 441.19,237.704 L 441.285,237.699 L 441.359,237.711 L 441.44,237.72 L 441.502,237.76 L 441.573,237.799 L 441.621,237.839 L 441.658,237.908 L 441.641,237.992 L 441.672,238.069 L 441.723,238.101 L 441.803,238.165 L 441.855,238.205 L 441.904,238.241 L 441.97,238.301 L 442.019,238.363 L 442.122,238.403 L 442.199,238.424 L 442.251,238.479 L 442.314,238.514 L 442.408,238.54 L 442.463,238.582 L 442.486,238.651 L 442.523,238.776 L 442.581,238.9 L 442.755,239.204 L 446.849,247.964 L 448.48,256.839 L 449.806,263.897 L 435.052,266.301 L 434.728,263.684 L 422.274,257.554 L 418.615,255.802 L 418.643,255.15 L 418.669,255.078 L 418.713,254.925 L 418.706,254.842 L 418.705,254.75 L 418.71,254.673 L 418.689,254.329 L 418.691,254.209 L 418.721,254.148 L 418.755,254.078 L 418.792,253.97 L 418.811,253.901 L 418.846,253.762 L 418.855,253.697 L 418.848,253.62 L 418.834,253.299 L 418.811,253.136 L 418.8,253.065 L 418.809,252.994 L 418.814,252.896 L 418.808,252.762 L 418.773,252.681 L 418.739,252.628 L 418.657,252.548 L 418.581,252.466 L 418.533,252.397 L 418.483,252.282 L 418.427,251.792 L 418.424,251.687 L 418.415,251.605 L 418.436,251.499 L 418.458,251.339 L 418.492,251.196 L 418.535,251.02 L 418.574,250.878 L 418.595,250.784 L 418.662,250.374 L 418.679,250.258 L 418.719,250.166 L 418.762,250.074 L 418.784,249.998 L 418.819,249.943 L 418.883,249.841 L 418.908,249.745 L 418.932,249.661 L 418.963,249.545 L 418.991,249.418 L 418.997,249.353 L 419.032,249.255 L 419.067,249.183 L 419.127,249.095 L 419.165,249.046 L 419.375,248.622 L 419.424,248.498 L 419.499,248.44 L 419.541,248.39 L 420.02,247.835 L 420.345,247.49 L 420.481,247.34 L 420.784,246.911 L 422.374,244.738 L 429.728,234.738 L 430.54,233.592 L 431.383,233.444 L 431.422,233.959 L 432.465,234.098 L 432.351,232.716"
       id="path15621"
       style="fill-rule:evenodd" />
   </g>
</svg>