<svg
   xmlns:svg="http://www.w3.org/2000/svg"
   xmlns="http://www.w3.org/2000/svg"
   version="1.0"
   width="2100"
   height="1300"
   viewBox="0 0 2100 1300"
   id="svg14921">
   <g
     transform="matrix(2.2640019,0,0,2.2640019,-216.71416,-21.6991)"
     id="g14955"
     style="font-size:16.25px;font-style:normal;font-weight:400;fill:#fefee9;fill-opacity:1;fill-rule:evenodd;stroke:#000000;stroke-width:0.0984252;stroke-linecap:square;stroke-linejoin:bevel;stroke-opacity:1;font-family:Lucida Grande">
    <path
       name="watertown" d="M 702.432,190.638 L 703.414,190.814 L 703.449,190.901 L 704.428,190.607 L 704.562,190.573 L 704.777,190.553 L 704.944,190.548 L 705.109,190.547 L 705.049,190.979 L 706.059,191.132 L 705.97,192.157 L 705.945,192.253 L 705.401,193.406 L 705.33,193.478 L 705.002,193.576 L 705.155,194.124 L 705.085,194.154 L 704.973,194.195 L 704.896,194.237 L 704.836,194.298 L 704.753,194.395 L 704.714,194.466 L 704.675,194.551 L 704.652,194.638 L 704.621,194.709 L 704.576,194.837 L 704.533,194.931 L 704.51,194.987 L 704.428,195.101 L 704.355,195.202 L 704.254,195.293 L 704.173,195.368 L 704.11,195.418 L 704.03,195.463 L 703.965,195.483 L 703.89,195.505 L 703.796,195.5 L 703.695,195.512 L 703.569,195.523 L 703.398,195.535 L 703.25,195.554 L 703.107,195.576 L 702.973,195.624 L 702.844,195.684 L 702.681,195.765 L 702.496,195.846 L 702.356,195.902 L 702.262,195.93 L 702.167,195.939 L 702.081,195.941 L 701.967,195.932 L 701.874,195.911 L 701.783,195.887 L 701.704,195.874 L 701.629,195.855 L 701.533,195.853 L 701.409,195.86 L 701.277,195.88 L 701.175,195.9 L 701.049,195.944 L 700.845,196.038 L 700.741,196.101 L 700.66,196.176 L 700.568,196.273 L 700.482,196.343 L 700.348,196.375 L 700.1,196.368 L 699.995,196.343 L 699.917,196.308 L 699.828,196.255 L 699.482,195.954 L 699.418,195.909 L 699.247,195.876 L 699.067,195.847 L 698.943,195.815 L 698.837,195.774 L 698.77,195.752 L 698.701,195.745 L 698.607,195.769 L 698.426,195.851 L 698.115,195.978 L 697.923,196.042 L 697.736,196.082 L 697.551,196.101 L 697.427,196.123 L 697.214,196.136 L 697.064,196.136 L 696.929,196.121 L 696.777,196.112 L 696.637,196.101 L 696.54,196.08 L 696.434,196.049 L 696.306,196.02 L 696.152,195.975 L 696.03,195.927 L 695.807,195.847 L 695.582,195.75 L 695.327,195.649 L 694.942,196.272 L 691.706,195.261 L 692.702,194.079 L 692.771,194.014 L 692.637,193.918 L 692.473,193.799 L 692.419,193.734 L 692.332,193.648 L 692.238,193.607 L 692.165,193.56 L 692.107,193.507 L 692.073,193.409 L 692.057,193.299 L 691.993,193.211 L 691.938,193.179 L 691.879,193.191 L 691.828,193.225 L 691.789,193.286 L 691.74,193.348 L 691.707,193.403 L 691.668,193.456 L 691.585,193.484 L 691.526,193.475 L 691.447,193.43 L 691.398,193.387 L 691.275,193.321 L 691.142,193.333 L 691.034,193.393 L 690.936,193.482 L 690.836,193.573 L 690.724,193.652 L 690.634,193.694 L 690.523,193.745 L 690.392,193.797 L 690.246,193.837 L 690.124,193.861 L 690.032,193.886 L 689.947,193.892 L 689.762,193.891 L 689.628,193.899 L 689.502,193.882 L 689.406,193.952 L 689.324,194.129 L 689.226,194.222 L 689.132,194.299 L 689.042,194.359 L 688.922,194.422 L 688.819,194.432 L 688.741,194.393 L 688.673,194.346 L 688.608,194.315 L 688.498,194.298 L 688.421,194.334 L 688.327,194.397 L 688.231,194.441 L 688.172,194.457 L 688.079,194.449 L 687.972,194.436 L 687.9,194.412 L 687.803,194.361 L 687.71,194.305 L 687.562,194.244 L 687.449,194.215 L 687.276,194.145 L 687.193,194.082 L 687.143,194.047 L 687.098,194.011 L 687.011,193.99 L 686.891,193.977 L 686.8,193.96 L 686.739,193.954 L 686.65,193.907 L 686.383,193.641 L 686.468,193.595 L 688.984,190.689 L 692.236,186.92 L 693.521,188.726 L 694.078,188.869 L 694.491,188.841 L 695.975,188.919 L 696.991,189.188 L 698.415,189.717 L 698.585,189.773 L 699.748,190.033 L 700.769,190.161 L 702.025,190.574 L 702.185,190.605 L 702.432,190.638"
       id="path15449"
       style="fill-rule:evenodd" />
   </g>
</svg>