<svg
   xmlns:svg="http://www.w3.org/2000/svg"
   xmlns="http://www.w3.org/2000/svg"
   version="1.0"
   width="2100"
   height="1300"
   viewBox="0 0 2100 1300"
   id="svg14921">
   <g
     transform="matrix(2.2640019,0,0,2.2640019,-216.71416,-21.6991)"
     id="g14955"
     style="font-size:16.25px;font-style:normal;font-weight:400;fill:#fefee9;fill-opacity:1;fill-rule:evenodd;stroke:#000000;stroke-width:0.0984252;stroke-linecap:square;stroke-linejoin:bevel;stroke-opacity:1;font-family:Lucida Grande">
    <path
       name="wayland" d="M 648.229,177.846 L 656.896,182.402 L 656.408,183.531 L 656.085,184.279 L 656.607,190.762 L 657.965,205.71 L 656.648,205.449 L 655.435,208.607 L 653.56,211.513 L 651.191,210.724 L 651.08,210.711 L 650.722,210.708 L 650.006,210.716 L 649.127,211.185 L 648.897,211.144 L 647.786,212.212 L 647.667,212.396 L 647.562,212.607 L 647.465,212.796 L 647.404,212.92 L 647.354,213.004 L 647.308,213.063 L 647.242,213.11 L 647.137,213.16 L 647.055,213.195 L 646.966,213.216 L 646.79,213.239 L 646.651,213.224 L 646.555,213.2 L 646.259,212.752 L 645.447,211.582 L 644.383,206.823 L 642.618,204.182 L 642.638,204.094 L 642.675,204.001 L 642.69,203.928 L 642.68,203.867 L 642.649,203.816 L 642.562,203.761 L 642.458,203.738 L 642.391,203.734 L 642.326,203.738 L 642.257,203.748 L 642.192,203.786 L 642.126,203.819 L 642.049,203.886 L 641.98,203.963 L 641.918,204.03 L 641.863,204.09 L 641.81,204.16 L 641.749,204.21 L 641.688,204.259 L 641.631,204.303 L 641.56,204.329 L 641.507,204.352 L 641.415,204.384 L 641.325,204.384 L 641.252,204.373 L 641.142,204.341 L 641.067,204.273 L 641.037,204.18 L 641.017,204.125 L 641.017,204.011 L 641.042,203.733 L 641.047,203.578 L 641.061,203.475 L 641.061,203.369 L 641.001,203.257 L 640.847,203.005 L 640.614,202.521 L 640.548,202.403 L 640.453,202.218 L 640.374,202.08 L 640.285,201.953 L 640.234,201.886 L 640.259,201.791 L 640.316,201.75 L 640.546,201.712 L 640.997,201.6 L 641.258,201.519 L 641.69,201.37 L 641.738,201.319 L 641.785,201.246 L 641.81,201.183 L 641.879,201.116 L 641.953,201.08 L 642.054,201.076 L 642.182,201.099 L 642.351,201.111 L 642.504,201.136 L 642.679,201.173 L 642.799,201.206 L 642.88,201.223 L 641.84,195.353 L 642.275,194.212 L 642.532,194.371 L 643.144,195.492 L 643.313,195.532 L 643.961,195.009 L 643.789,194.004 L 642.998,194.098 L 642.834,194.195 L 642.553,194.271 L 642.222,194.126 L 642.572,193.798 L 642.499,193.608 L 642.222,193.39 L 642.243,193.227 L 642.305,193.137 L 642.434,192.985 L 642.533,192.889 L 642.664,192.775 L 642.824,192.643 L 642.928,192.56 L 642.57,192.05 L 642.67,191.893 L 642.8,191.603 L 642.991,191.524 L 643.085,191.492 L 643.051,191.39 L 643.006,191.283 L 642.964,191.151 L 642.938,191.059 L 642.925,190.986 L 642.911,190.929 L 642.871,190.854 L 642.845,190.8 L 642.817,190.74 L 642.896,190.675 L 643.67,190.281 L 643.888,190.332 L 643.896,190.263 L 643.914,190.157 L 643.952,190.027 L 643.94,189.913 L 643.948,189.838 L 643.96,189.738 L 643.968,189.632 L 643.948,189.541 L 643.93,189.484 L 643.803,189.285 L 643.747,189.177 L 643.738,189.105 L 643.759,188.99 L 643.791,188.898 L 643.815,188.843 L 644.122,188.412 L 644.327,188.13 L 644.398,188.028 L 644.455,187.957 L 644.558,187.882 L 644.664,187.796 L 644.776,187.75 L 644.889,187.691 L 644.967,187.656 L 645.035,187.618 L 645.084,187.567 L 645.115,187.516 L 645.137,187.457 L 645.174,187.335 L 645.18,187.17 L 645.21,187.065 L 645.263,187.014 L 645.35,186.939 L 645.443,186.861 L 645.456,186.772 L 645.456,186.689 L 645.439,186.607 L 645.457,186.538 L 645.498,186.491 L 645.555,186.477 L 645.644,186.49 L 645.709,186.49 L 645.782,186.449 L 645.86,186.374 L 645.926,186.262 L 646.012,186.172 L 646.077,186.154 L 646.13,186.179 L 646.205,186.217 L 646.295,186.296 L 646.326,186.352 L 646.378,186.416 L 646.433,186.474 L 646.524,186.523 L 646.606,186.48 L 646.667,186.401 L 646.704,186.332 L 646.749,186.212 L 646.721,186.109 L 646.703,185.974 L 646.705,185.849 L 646.74,185.77 L 646.83,185.749 L 646.899,185.808 L 646.957,185.863 L 647.044,185.954 L 647.138,186.035 L 647.196,186.079 L 647.253,186.072 L 647.34,186.028 L 647.379,185.955 L 647.418,185.864 L 647.436,185.803 L 647.463,185.735 L 647.514,185.653 L 647.562,185.597 L 647.634,185.55 L 647.757,185.516 L 647.818,185.506 L 647.885,185.511 L 647.987,185.549 L 648.056,185.584 L 648.179,185.654 L 648.289,185.705 L 648.461,185.761 L 648.539,185.741 L 648.618,185.706 L 648.671,185.667 L 648.73,185.616 L 648.799,185.525 L 648.751,185.47 L 648.662,185.396 L 648.634,185.28 L 648.67,185.213 L 648.75,185.063 L 648.797,184.949 L 648.845,184.835 L 648.922,184.794 L 648.985,184.849 L 649.038,184.906 L 649.127,184.955 L 649.221,184.964 L 649.306,184.934 L 649.386,184.858 L 649.415,184.751 L 649.405,184.673 L 649.379,184.559 L 649.357,184.421 L 649.357,184.315 L 649.382,184.169 L 649.407,184.057 L 649.444,183.95 L 649.465,183.854 L 649.47,183.702 L 649.437,183.604 L 649.373,183.508 L 649.277,183.439 L 649.178,183.432 L 649.082,183.448 L 649.017,183.462 L 648.925,183.476 L 648.819,183.463 L 648.62,183.412 L 648.477,183.366 L 648.372,183.321 L 648.244,183.258 L 648.085,183.194 L 647.861,183.155 L 647.748,183.13 L 647.595,183.058 L 647.449,182.976 L 647.382,182.907 L 647.338,182.821 L 647.356,182.727 L 647.469,182.616 L 647.618,182.495 L 647.838,182.333 L 647.916,182.282 L 647.985,182.179 L 647.953,182.09 L 647.894,182.034 L 647.837,181.992 L 647.748,181.928 L 647.644,181.907 L 647.54,181.931 L 647.449,181.925 L 647.412,181.88 L 647.411,181.78 L 647.438,181.701 L 647.503,181.565 L 647.581,181.432 L 647.638,181.326 L 647.678,181.235 L 647.719,181.119 L 647.756,181.001 L 647.748,180.918 L 647.724,180.847 L 647.673,180.804 L 647.497,180.691 L 647.338,180.587 L 647.245,180.535 L 647.049,180.476 L 646.395,180.272 L 646.342,180.21 L 646.2,179.969 L 646.17,179.918 L 646.147,179.859 L 646.121,179.788 L 646.106,179.692 L 646.125,179.589 L 646.163,179.507 L 646.199,179.453 L 646.308,179.379 L 646.39,179.333 L 646.508,179.285 L 646.567,179.261 L 646.638,179.233 L 646.816,179.134 L 647.15,178.926 L 647.47,178.741 L 647.584,178.684 L 647.829,178.609 L 647.918,178.571 L 647.973,178.518 L 648.002,178.446 L 648.004,178.384 L 648.005,178.303 L 648.001,178.179 L 647.995,178.11 L 648.02,178.048 L 648.059,177.991 L 648.102,177.938 L 648.171,177.884 L 648.229,177.846"
       id="path15421"
       style="fill-rule:evenodd" />
   </g>
</svg>