<svg
   xmlns:svg="http://www.w3.org/2000/svg"
   xmlns="http://www.w3.org/2000/svg"
   version="1.0"
   width="2100"
   height="1300"
   viewBox="0 0 2100 1300"
   id="svg14921">
   <g
     transform="matrix(2.2640019,0,0,2.2640019,-216.71416,-21.6991)"
     id="g14955"
     style="font-size:16.25px;font-style:normal;font-weight:400;fill:#fefee9;fill-opacity:1;fill-rule:evenodd;stroke:#000000;stroke-width:0.0984252;stroke-linecap:square;stroke-linejoin:bevel;stroke-opacity:1;font-family:Lucida Grande">
    <path
       name="webster" d="M 529.568,287.835 L 536.003,311.682 L 518.07,311.37 L 515.788,311.295 L 515.633,311.157 L 515.543,311.094 L 515.443,311.006 L 515.346,310.9 L 515.269,310.809 L 515.194,310.725 L 515.135,310.637 L 515.067,310.505 L 514.864,309.965 L 514.871,309.849 L 514.897,309.797 L 514.922,309.69 L 514.936,309.621 L 514.92,309.5 L 514.874,309.408 L 514.829,309.34 L 514.772,309.251 L 514.695,309.141 L 514.664,309.02 L 514.659,308.955 L 514.667,308.872 L 514.703,308.804 L 514.729,308.751 L 514.741,308.687 L 514.741,308.615 L 514.724,308.554 L 514.681,308.486 L 514.6,308.366 L 514.544,308.255 L 514.501,308.17 L 514.445,308.047 L 514.404,307.893 L 514.374,307.811 L 514.335,307.637 L 514.307,307.523 L 514.299,307.463 L 514.291,307.368 L 514.283,307.266 L 514.303,307.11 L 514.338,306.95 L 514.38,306.699 L 514.418,306.334 L 514.662,305.727 L 514.874,304.466 L 514.921,304.215 L 514.974,304.098 L 515,304.023 L 515.059,303.889 L 515.064,303.828 L 515.024,303.743 L 514.982,303.698 L 514.926,303.67 L 514.86,303.613 L 514.819,303.464 L 514.773,303.253 L 514.779,303.009 L 514.779,302.857 L 514.774,302.726 L 514.778,302.617 L 514.786,302.483 L 514.807,302.367 L 514.871,302.237 L 514.958,302.186 L 515.058,302.146 L 515.135,302.154 L 515.743,302.268 L 515.825,302.23 L 515.892,302.17 L 515.972,302.123 L 516.074,302.118 L 516.147,302.118 L 516.21,302.123 L 516.283,302.129 L 516.389,302.13 L 516.467,302.093 L 516.571,302.012 L 516.604,301.964 L 516.61,301.901 L 516.618,301.832 L 516.575,301.758 L 516.538,301.688 L 516.542,301.615 L 516.619,301.357 L 516.675,301.232 L 516.693,301.165 L 516.698,301.029 L 516.69,300.962 L 516.64,300.826 L 516.596,300.713 L 516.57,300.613 L 516.738,299.804 L 516.705,299.746 L 516.667,299.702 L 516.591,299.65 L 516.521,299.611 L 516.44,299.605 L 516.278,299.585 L 516.167,299.556 L 516.13,299.484 L 516.126,299.376 L 516.159,299.299 L 516.197,299.231 L 516.244,299.149 L 516.29,299.077 L 516.325,298.968 L 516.194,298.403 L 516.184,298.342 L 516.213,298.243 L 516.251,298.187 L 516.316,298.101 L 516.382,298.036 L 516.473,297.979 L 516.601,297.913 L 516.692,297.862 L 516.776,297.83 L 516.826,297.79 L 516.88,297.72 L 517.077,296.92 L 517.081,296.808 L 517.039,296.394 L 516.897,295.791 L 516.372,293.57 L 518.147,292.785 L 529.568,287.835"
       id="path15791"
       style="fill-rule:evenodd" />
   </g>
</svg>