<svg
   xmlns:svg="http://www.w3.org/2000/svg"
   xmlns="http://www.w3.org/2000/svg"
   version="1.0"
   width="2100"
   height="1300"
   viewBox="0 0 2100 1300"
   id="svg14921">
   <g
     transform="matrix(2.2640019,0,0,2.2640019,-216.71416,-21.6991)"
     id="g14955"
     style="font-size:16.25px;font-style:normal;font-weight:400;fill:#fefee9;fill-opacity:1;fill-rule:evenodd;stroke:#000000;stroke-width:0.0984252;stroke-linecap:square;stroke-linejoin:bevel;stroke-opacity:1;font-family:Lucida Grande">
    <path
       name="wellfleet" d="M 1000.35,327.96 L 1000.44,328.031 L 1000.5,328.221 L 1000.67,328.523 L 1000.75,328.75 L 1001.03,329.288 L 1001.05,329.384 L 1001.22,329.624 L 1001.46,330.085 L 1001.54,330.185 L 1001.53,330.272 L 1001.91,330.965 L 1001.98,331.059 L 1002.02,331.191 L 1002.25,331.684 L 1002.4,332.154 L 1002.5,332.309 L 1002.71,332.858 L 1002.99,333.315 L 1003.09,333.638 L 1003.18,333.834 L 1003.37,333.949 L 1003.47,334.396 L 1003.64,334.769 L 1003.79,335.168 L 1003.8,335.27 L 1003.91,335.583 L 1004.01,335.788 L 1004.03,335.89 L 1004.1,335.99 L 1004.19,336.263 L 1004.42,336.66 L 1004.43,336.756 L 1004.77,337.568 L 1004.76,337.773 L 1004.96,338.179 L 1005.08,338.594 L 1005.18,338.709 L 1005.26,339.079 L 1005.34,339.26 L 1005.63,340.027 L 1005.94,341.035 L 1005.98,341.223 L 1006.13,341.56 L 1006.17,341.865 L 1006.26,342.077 L 1006.28,342.172 L 1006.37,342.384 L 1006.52,342.844 L 1006.6,342.969 L 1006.75,343.533 L 1006.84,343.735 L 1006.96,344.15 L 1006.95,344.373 L 1007.24,344.917 L 1007.31,345.262 L 1007.4,345.458 L 1007.4,345.616 L 1007.49,345.843 L 1007.59,345.927 L 1007.91,346.795 L 1008.13,347.539 L 1008.14,347.753 L 1008.52,348.762 L 1008.58,348.95 L 1008.63,349.333 L 1008.79,349.7 L 1008.89,350.147 L 1009.04,350.509 L 1009.17,350.843 L 1009.19,350.994 L 1009.5,351.735 L 1009.51,351.838 L 1009.63,352.299 L 1009.66,352.677 L 1009.83,352.942 L 1009.92,353.169 L 1009.92,353.531 L 1010.02,353.835 L 1010.38,354.579 L 1010.39,354.91 L 1010.53,355.198 L 1010.74,356.258 L 1010.86,356.531 L 1010.87,356.797 L 1011.03,357.174 L 1011.17,357.359 L 1011.23,357.509 L 1011.24,357.628 L 1010.88,357.718 L 1005.26,358.709 L 1005.2,358.73 L 1005.15,358.751 L 1005.03,358.775 L 1004.96,358.78 L 1004.88,358.778 L 1004.79,358.764 L 1004.62,358.705 L 1004.53,358.675 L 1004.43,358.66 L 1004.36,358.669 L 1004.3,358.684 L 1004.2,358.732 L 1004.09,358.754 L 1003.95,358.745 L 1003.81,358.75 L 1003.63,358.714 L 1003.31,358.658 L 1003.21,358.676 L 1002.94,358.747 L 1002.84,358.739 L 1002.76,358.733 L 1002.66,358.741 L 1002.59,358.768 L 1002.39,358.898 L 1002.24,359.004 L 1002.14,359.041 L 1002.05,359.069 L 1001.98,359.1 L 1001.85,359.126 L 1001.75,359.106 L 1001.65,359.069 L 1001.58,359.041 L 1001.48,359.014 L 1001.42,359.007 L 1001.35,359.026 L 1001.21,359.083 L 1001.14,359.116 L 1001.02,359.098 L 1000.84,359.047 L 1000.77,359.013 L 1000.78,358.946 L 1000.71,358.95 L 1000.58,358.903 L 1000.57,358.974 L 1000.55,359.043 L 1000.48,359.045 L 1000.43,358.975 L 1000.38,358.964 L 1000.29,359.047 L 1000.27,358.961 L 1000.29,358.886 L 1000.2,358.819 L 1000.07,358.784 L 999.994,358.742 L 999.944,358.7 L 999.868,358.739 L 999.79,358.76 L 999.712,358.795 L 999.629,358.805 L 999.555,358.742 L 999.511,358.682 L 999.448,358.706 L 999.416,358.772 L 999.352,358.743 L 999.321,358.845 L 999.243,358.776 L 999.202,358.71 L 999.099,358.749 L 999.051,358.711 L 998.993,358.673 L 998.902,358.679 L 998.854,358.615 L 998.827,358.56 L 998.76,358.479 L 998.711,358.405 L 998.706,358.346 L 998.773,358.158 L 998.77,358.082 L 998.873,358.079 L 998.935,358.024 L 999.103,357.722 L 999.107,357.492 L 998.939,357.36 L 998.929,357.221 L 998.974,357.086 L 998.813,356.843 L 998.819,356.756 L 998.912,356.691 L 999.178,356.584 L 999.31,356.45 L 999.677,355.807 L 999.939,355.461 L 1000.13,355.341 L 1000.34,355.251 L 1000.36,355.32 L 1000.32,355.506 L 1000.17,355.615 L 1000.1,355.783 L 1000.07,355.87 L 1000.09,355.974 L 1000.14,356.05 L 1000.32,356.015 L 1000.39,356.021 L 1000.41,356.131 L 1000.34,356.258 L 1000.41,356.385 L 1000.57,356.478 L 1000.6,356.536 L 1000.6,356.64 L 1000.61,356.762 L 1000.73,356.733 L 1000.8,356.495 L 1000.88,356.455 L 1000.88,356.38 L 1000.73,356.235 L 1000.63,356.229 L 1000.58,356.189 L 1000.55,356.131 L 1000.58,356.061 L 1000.58,356.003 L 1000.61,355.552 L 1000.77,355.407 L 1000.87,355.21 L 1000.96,355.153 L 1001.03,355.037 L 1001.2,354.759 L 1001.38,354.655 L 1001.35,354.574 L 1001.21,354.4 L 1001.12,354.411 L 1001.01,354.342 L 1000.97,354.388 L 1000.84,354.464 L 1000.74,354.441 L 1000.68,354.394 L 1000.57,354.4 L 1000.4,354.516 L 1000.28,354.441 L 1000.11,354.2 L 999.874,353.974 L 999.611,353.774 L 999.413,353.73 L 999.174,353.539 L 999.102,353.445 L 999.138,353.255 L 999.191,353.114 L 999.219,352.924 L 999.249,352.842 L 999.485,352.801 L 999.617,352.71 L 999.862,352.312 L 999.947,352.186 L 999.992,351.611 L 1000.05,351.522 L 1000.14,351.465 L 1000.18,351.372 L 1000.15,351.257 L 1000.2,351.187 L 1000.26,351.187 L 1000.39,351.332 L 1000.58,351.303 L 1000.58,351.245 L 1000.48,351.083 L 1000.47,350.996 L 1000.24,350.979 L 1000.16,350.933 L 1000.04,350.933 L 999.973,350.948 L 999.92,351.067 L 999.47,351.012 L 999.088,350.806 L 999.064,350.751 L 999.07,350.648 L 999.108,350.564 L 999.216,350.433 L 999.285,350.307 L 999.267,350.196 L 999.211,350.142 L 999.133,350.144 L 999,350.241 L 998.707,350.594 L 998.645,350.624 L 998.511,350.618 L 998.439,350.589 L 998.382,350.473 L 998.45,349.842 L 998.413,349.039 L 998.505,348.91 L 998.646,348.868 L 998.675,349.128 L 998.739,349.207 L 998.913,349.288 L 999.11,349.264 L 999.328,349.14 L 999.419,348.936 L 999.551,348.774 L 999.699,348.701 L 1000.01,348.735 L 1000.21,348.802 L 1000.32,348.93 L 1000.42,348.935 L 1000.59,348.82 L 1000.83,348.576 L 1000.99,348.298 L 1001.25,347.98 L 1001.31,347.87 L 1001.37,347.586 L 1001.4,347.471 L 1001.53,347.488 L 1001.59,347.795 L 1001.62,347.905 L 1001.73,347.94 L 1001.73,347.621 L 1001.79,347.511 L 1001.92,347.517 L 1002.08,347.702 L 1002.16,347.726 L 1002.17,347.621 L 1002.05,347.39 L 1001.98,347.338 L 1001.95,347.245 L 1002.12,347.106 L 1002.18,346.967 L 1002.31,346.921 L 1002.49,346.95 L 1002.57,346.915 L 1002.6,346.822 L 1002.49,346.793 L 1002.41,346.666 L 1002.57,346.643 L 1002.66,346.62 L 1002.75,346.527 L 1002.72,346.463 L 1002.72,346.296 L 1002.56,346.365 L 1002.56,346.423 L 1002.49,346.452 L 1002.37,346.458 L 1002.2,346.568 L 1002.12,346.602 L 1002.01,346.585 L 1001.93,346.423 L 1001.76,346.626 L 1001.74,346.765 L 1001.93,346.84 L 1001.84,346.956 L 1001.61,347.019 L 1001.36,346.984 L 1001.15,346.77 L 1000.95,346.539 L 1000.95,346.463 L 1001.13,346.417 L 1001.19,346.371 L 1001.28,346.232 L 1001.43,345.896 L 1001.35,345.699 L 1001.1,345.479 L 1000.22,345.723 L 999.959,345.893 L 999.687,346.127 L 999.573,346.397 L 999.553,346.587 L 999.618,346.709 L 999.973,346.783 L 1000.19,346.793 L 1000.39,346.99 L 1000.7,347.147 L 1000.82,347.285 L 1000.9,347.291 L 1000.96,347.419 L 1000.91,347.476 L 1000.74,347.476 L 1000.59,347.401 L 1000.41,347.239 L 1000.26,347.262 L 1000.1,347.372 L 999.984,347.406 L 999.544,347.437 L 999.561,347.523 L 999.673,347.638 L 999.674,347.719 L 999.369,347.817 L 999.117,347.822 L 998.698,347.704 L 998.414,347.731 L 998.273,347.716 L 997.972,347.644 L 997.576,347.476 L 997.192,347.131 L 996.97,347.032 L 996.796,347.003 L 996.497,347.045 L 996.294,347.154 L 996.108,347.33 L 996.045,347.313 L 995.973,347.228 L 995.833,346.891 L 995.714,346.854 L 995.652,346.897 L 995.653,346.974 L 995.758,347.114 L 995.841,347.35 L 995.929,347.443 L 995.987,347.6 L 996.344,347.757 L 996.425,347.876 L 996.324,348.009 L 996.311,348.146 L 996.367,348.2 L 996.732,348.382 L 997.041,348.494 L 997.043,348.58 L 996.847,348.608 L 996.609,348.503 L 996.523,348.549 L 996.635,348.642 L 996.651,348.713 L 996.092,348.667 L 996.085,348.763 L 995.991,348.788 L 995.596,348.685 L 995.462,348.685 L 995.448,348.804 L 995.322,348.783 L 994.749,348.477 L 994.11,347.922 L 993.269,347.053 L 993.051,346.743 L 992.921,346.517 L 992.863,346.352 L 992.735,346.244 L 992.212,345.568 L 992.146,345.427 L 991.608,344.342 L 991.478,344.085 L 991.384,343.629 L 991.378,343.291 L 991.502,342.72 L 991.759,342.551 L 991.854,342.542 L 991.91,342.587 L 992.015,343.247 L 992.139,343.554 L 992.212,343.701 L 992.238,343.858 L 992.218,344.048 L 992.291,344.179 L 992.468,344.406 L 992.724,344.628 L 992.742,344.755 L 992.843,344.73 L 992.96,344.659 L 993.582,344.647 L 993.778,344.563 L 993.948,344.397 L 993.994,344.284 L 993.982,344.058 L 993.932,343.892 L 993.763,343.668 L 993.5,343.483 L 993.459,343.419 L 993.686,342.408 L 993.699,342.258 L 993.745,342.155 L 993.963,342.018 L 994.028,341.678 L 993.956,341.113 L 993.906,340.971 L 993.63,340.465 L 993.605,340.369 L 993.599,340.025 L 993.515,339.758 L 992.748,339.566 L 992.425,339.554 L 992.35,339.745 L 992.347,340.021 L 992.379,340.076 L 992.537,340.087 L 992.733,340.063 L 992.805,340.101 L 992.807,340.241 L 992.746,340.329 L 992.393,340.461 L 992.293,340.556 L 992.295,340.693 L 993.36,340.823 L 993.347,340.982 L 992.409,340.91 L 992.205,340.984 L 992.143,341.042 L 992.083,341.183 L 991.989,341.217 L 991.884,341.068 L 991.756,340.985 L 991.384,340.856 L 991.068,340.782 L 990.374,340.74 L 989.95,340.771 L 988.163,340.823 L 987.19,341.063 L 986.58,341.276 L 985.792,341.761 L 984.911,342.258 L 984.747,342.316 L 984.377,342.361 L 984.146,342.206 L 983.427,341.582 L 983.229,341.507 L 982.865,341.419 L 982.77,341.372 L 982.753,341.316 L 982.98,341.266 L 983.135,341.107 L 983.258,340.892 L 983.192,340.752 L 983.159,340.666 L 983.054,340.501 L 982.999,340.472 L 982.888,340.472 L 982.403,340.613 L 982.145,340.745 L 981.982,340.895 L 981.596,341.36 L 981.499,341.66 L 981.526,342.36 L 981.559,342.424 L 981.572,342.722 L 981.774,343.02 L 981.783,343.106 L 981.863,343.206 L 982.023,343.292 L 982.479,343.25 L 982.794,343.284 L 982.962,343.432 L 983.088,343.437 L 983.556,343.138 L 983.745,343.142 L 984.924,343.966 L 985.153,344.016 L 985.505,343.847 L 985.762,343.669 L 985.834,343.779 L 985.853,343.958 L 985.808,344.102 L 985.671,344.363 L 985.447,344.612 L 984.833,345.117 L 983.728,345.884 L 983.402,346.166 L 983.116,346.454 L 982.901,346.842 L 982.8,346.907 L 982.636,346.949 L 982.543,347.054 L 982.569,347.186 L 982.869,347.252 L 982.956,347.243 L 983.041,347.179 L 983.198,347.168 L 983.106,347.76 L 983.101,347.959 L 982.893,349.614 L 982.782,350.049 L 982.781,350.427 L 983.017,350.882 L 983.082,350.998 L 983.051,351.061 L 982.951,351.151 L 982.558,351.212 L 982.486,351.174 L 982.468,351.032 L 982.232,351.045 L 982.202,351.129 L 982.038,351.212 L 981.852,351.382 L 981.698,351.619 L 981.722,352.077 L 982.036,353.411 L 982.147,353.919 L 982.147,354.384 L 982.078,355.001 L 982.095,355.533 L 982.2,356.154 L 982.24,356.667 L 982.206,356.951 L 982.248,357.138 L 982.314,357.273 L 982.892,358.394 L 983.039,358.74 L 983.036,358.982 L 982.9,358.89 L 982.728,358.492 L 982.184,357.525 L 981.972,357.097 L 981.947,357.033 L 981.959,355.379 L 981.926,355.303 L 981.928,354.49 L 981.956,354.263 L 981.941,353.829 L 981.802,353.073 L 981.619,352.486 L 981.472,351.759 L 981.359,348.791 L 981.333,348.618 L 981.307,346.138 L 981.201,345.471 L 981.159,345.336 L 981.099,345.021 L 981.049,344.843 L 981.004,344.087 L 980.99,342.308 L 980.936,341.884 L 980.881,341.442 L 980.837,339.766 L 980.781,338.785 L 980.657,337.991 L 980.542,337.709 L 980.404,337.474 L 980.075,337.078 L 979.952,336.821 L 979.934,336.694 L 979.771,336.336 L 979.754,336.241 L 979.72,335.643 L 979.775,335.161 L 979.841,333.949 L 979.752,333.825 L 979.759,333.319 L 979.825,332.57 L 979.82,331.798 L 979.762,331.61 L 979.721,331.54 L 979.689,331.428 L 979.924,331.372 L 989.536,329.493 L 992.273,329.081 L 1000.35,327.96"
       id="path15859"
       style="fill-rule:evenodd" />
    <path
       name="wellfleet" d="M 995.902,350.955 L 996.495,350.662 L 996.606,350.668 L 996.93,350.748 L 997.481,350.738 L 997.718,350.766 L 997.854,350.907 L 997.856,351.01 L 997.794,351.058 L 996.893,350.883 L 996.634,350.965 L 996.647,351.256 L 996.843,351.672 L 996.996,351.857 L 997.204,352.021 L 997.473,352.125 L 997.773,352.2 L 998.239,352.229 L 998.619,352.383 L 998.763,352.527 L 999.063,352.571 L 999.127,352.616 L 999.083,352.822 L 998.934,353.298 L 998.843,353.496 L 998.845,353.614 L 998.988,353.684 L 999.37,353.927 L 999.426,354.006 L 999.412,354.109 L 999.366,354.197 L 999.234,354.309 L 999.101,354.335 L 998.911,354.275 L 998.528,353.958 L 998.21,353.815 L 998.129,353.69 L 998.058,353.689 L 997.957,353.748 L 997.525,353.779 L 996.833,353.893 L 996.591,353.99 L 996.331,354.01 L 995.906,353.979 L 995.757,354.014 L 995.551,353.977 L 995.471,353.908 L 995.42,353.68 L 995.232,353.707 L 995.152,353.685 L 994.635,353.361 L 994.3,353.086 L 993.891,352.673 L 993.564,351.979 L 993.551,351.647 L 993.581,351.559 L 993.658,351.48 L 993.846,351.415 L 994.351,351.469 L 994.626,351.442 L 995.134,351.204 L 995.55,351.096 L 995.902,350.955"
       id="path15867"
       style="fill-rule:evenodd" />
    <path
       name="wellfleet" d="M 999.641,351.813 L 999.514,351.73 L 999.44,351.549 L 999.435,351.28 L 999.466,351.226 L 999.552,351.183 L 999.623,351.175 L 999.781,351.266 L 999.862,351.369 L 999.865,351.534 L 999.72,351.805 L 999.641,351.813"
       id="path15869"
       style="fill-rule:evenodd" />       
   </g>
</svg>