<svg
   xmlns:svg="http://www.w3.org/2000/svg"
   xmlns="http://www.w3.org/2000/svg"
   version="1.0"
   width="2100"
   height="1300"
   viewBox="0 0 2100 1300"
   id="svg14921">
   <g
     transform="matrix(2.2640019,0,0,2.2640019,-216.71416,-21.6991)"
     id="g14955"
     style="font-size:16.25px;font-style:normal;font-weight:400;fill:#fefee9;fill-opacity:1;fill-rule:evenodd;stroke:#000000;stroke-width:0.0984252;stroke-linecap:square;stroke-linejoin:bevel;stroke-opacity:1;font-family:Lucida Grande">
    <path
       name="wenham" d="M 761.967,104.978 L 761.99,105.112 L 773.244,109.499 L 788.547,114.96 L 789.693,118.127 L 788.905,119.515 L 787.445,119.832 L 787.108,120.349 L 785.229,118.527 L 783.251,115.949 L 773.297,115.907 L 766.464,115.946 L 761.097,115.81 L 759.8,115.591 L 758.165,113.056 L 759.268,109.86 L 758.858,108.649 L 759.765,107.059 L 759.94,105.943 L 760.175,105.006 L 760.518,104.732 L 760.596,104.748 L 760.677,104.792 L 760.775,104.84 L 760.842,104.852 L 760.932,104.868 L 761.046,104.843 L 761.137,104.77 L 761.288,104.673 L 761.362,104.683 L 761.425,104.728 L 761.495,104.784 L 761.623,104.894 L 761.703,104.896 L 761.761,104.819 L 761.814,104.713 L 761.892,104.672 L 761.96,104.705 L 761.964,104.766 L 761.945,104.828 L 761.906,104.919 L 761.967,104.978"
       id="path15191"
       style="fill-rule:evenodd" />
   </g>
</svg>