<svg
   xmlns:svg="http://www.w3.org/2000/svg"
   xmlns="http://www.w3.org/2000/svg"
   version="1.0"
   width="2100"
   height="1300"
   viewBox="0 0 2100 1300"
   id="svg14921">
   <g
     transform="matrix(2.2640019,0,0,2.2640019,-216.71416,-21.6991)"
     id="g14955"
     style="font-size:16.25px;font-style:normal;font-weight:400;fill:#fefee9;fill-opacity:1;fill-rule:evenodd;stroke:#000000;stroke-width:0.0984252;stroke-linecap:square;stroke-linejoin:bevel;stroke-opacity:1;font-family:Lucida Grande">
    <path
       name="west-newbury" d="M 756.037,36.3091 L 756.143,36.4885 L 756.441,36.9392 L 756.813,37.4335 L 757.067,37.7157 L 757.114,37.8505 L 757.176,37.9654 L 757.244,38.0152 L 757.316,38.0177 L 757.39,37.971 L 757.469,37.8945 L 757.553,37.8418 L 757.628,37.8461 L 757.645,37.9344 L 757.621,38.0018 L 757.545,38.1233 L 757.504,38.2227 L 757.487,38.3017 L 757.493,38.3724 L 757.522,38.4328 L 757.719,38.667 L 757.861,38.7979 L 757.925,38.8322 L 758.051,38.8415 L 758.178,38.8192 L 758.33,38.8357 L 758.431,38.8909 L 758.474,38.9432 L 758.521,39.023 L 758.538,39.0875 L 758.537,39.1485 L 758.487,39.1967 L 758.405,39.2417 L 758.35,39.3116 L 758.333,39.3711 L 758.305,39.5192 L 758.273,39.7069 L 758.267,39.8861 L 758.282,39.9585 L 758.309,40.0426 L 758.346,40.0951 L 758.424,40.1741 L 758.48,40.2241 L 758.602,40.2847 L 758.683,40.3422 L 758.732,40.3982 L 758.801,40.5425 L 758.841,40.6735 L 758.86,40.8168 L 758.868,41.0134 L 758.851,41.124 L 758.815,41.1858 L 758.774,41.2396 L 758.699,41.3198 L 758.533,41.4748 L 758.406,41.615 L 758.307,41.745 L 758.256,41.8327 L 758.228,41.9081 L 758.236,42.0121 L 758.256,42.1574 L 758.496,43.1208 L 761.939,48.344 L 759.703,50.5947 L 759.494,50.6875 L 759.385,50.7528 L 758.165,51.4404 L 758.065,51.4758 L 757.941,51.4685 L 757.81,51.4927 L 757.685,51.5485 L 755.899,52.5702 L 755.829,52.6169 L 755.726,52.6938 L 755.372,53.061 L 754.808,53.6312 L 754.56,53.8567 L 754.487,53.8916 L 754.41,53.9168 L 754.344,53.9514 L 753.372,54.7642 L 753.316,54.8066 L 753.234,54.8397 L 753.142,54.8535 L 753.04,54.7983 L 751.944,55.4423 L 751.573,55.9515 L 751.281,55.7232 L 750.283,56.0465 L 749.511,57.8232 L 749.343,58.4917 L 741.895,53.9131 L 741.131,53.3917 L 735.631,49.5427 L 735.645,49.4279 L 735.745,49.0469 L 735.817,48.7509 L 735.857,48.5694 L 735.879,48.4137 L 735.92,48.0687 L 735.957,47.826 L 736.003,47.6091 L 736.051,47.4667 L 736.086,47.3681 L 736.147,47.2455 L 736.225,47.0834 L 736.405,46.7983 L 736.477,46.7032 L 736.645,46.501 L 736.81,46.3204 L 736.925,46.1953 L 737.052,46.0603 L 737.163,45.9493 L 737.378,45.7564 L 737.598,45.5598 L 737.837,45.3746 L 738.128,45.1753 L 738.347,45.0258 L 739.551,44.244 L 739.859,43.9973 L 739.965,43.9039 L 740.056,43.8206 L 740.132,43.7174 L 740.239,43.5905 L 740.352,43.4301 L 740.438,43.3013 L 740.548,43.139 L 740.63,43.0104 L 740.756,42.8163 L 740.853,42.6521 L 740.921,42.5372 L 740.983,42.4305 L 741.024,42.3336 L 741.066,42.2472 L 741.079,42.1705 L 741.114,42.1192 L 741.145,42.0582 L 741.194,41.9398 L 741.254,41.7663 L 741.291,41.5712 L 741.286,41.3884 L 741.267,41.1937 L 741.245,41.0659 L 741.195,40.9204 L 741.165,40.834 L 741.105,40.7281 L 741.031,40.5365 L 740.944,40.3785 L 740.842,40.1685 L 740.764,39.9899 L 740.712,39.8584 L 740.682,39.7679 L 740.668,39.6816 L 740.639,39.5516 L 740.619,39.4435 L 740.604,39.3137 L 740.593,39.17 L 740.578,39.0224 L 740.575,38.8963 L 740.58,38.7328 L 740.592,38.5792 L 740.599,38.4117 L 740.608,38.3112 L 740.623,38.2244 L 740.648,38.1374 L 740.671,38.0487 L 740.694,37.9796 L 740.727,37.9044 L 740.779,37.8211 L 740.832,37.7459 L 740.886,37.6687 L 740.972,37.5656 L 741.038,37.4887 L 741.176,37.3361 L 741.359,37.1288 L 741.525,36.9716 L 741.662,36.8606 L 741.808,36.7726 L 741.968,36.6942 L 742.159,36.6326 L 742.243,36.6194 L 742.393,36.6078 L 742.54,36.6144 L 742.755,36.6128 L 742.98,36.578 L 743.137,36.5379 L 743.304,36.4778 L 743.562,36.3512 L 743.924,36.1673 L 744.154,36.0695 L 744.423,35.9754 L 744.683,35.9186 L 745.062,35.8599 L 745.273,35.8104 L 745.533,35.7364 L 745.878,35.6864 L 746.07,35.6746 L 746.294,35.6682 L 746.608,35.6936 L 746.943,35.7362 L 747.349,35.7852 L 747.759,35.8501 L 747.892,35.8809 L 748.02,35.9355 L 748.169,36.0073 L 748.303,36.0893 L 748.456,36.1945 L 748.721,36.3852 L 749.245,36.6919 L 749.589,36.8778 L 750.142,37.1089 L 750.678,37.2575 L 751.582,37.3142 L 752.22,37.2778 L 752.811,37.2284 L 753.594,37.1478 L 754.084,37.0711 L 754.298,37.0334 L 754.658,36.9611 L 754.838,36.9084 L 754.965,36.8585 L 755.152,36.7663 L 755.541,36.5675 L 756.037,36.3091"
       id="path14967"
       style="fill-rule:evenodd" />
   </g>
</svg>