<svg
   xmlns:svg="http://www.w3.org/2000/svg"
   xmlns="http://www.w3.org/2000/svg"
   version="1.0"
   width="2100"
   height="1300"
   viewBox="0 0 2100 1300"
   id="svg14921">
   <g
     transform="matrix(2.2640019,0,0,2.2640019,-216.71416,-21.6991)"
     id="g14955"
     style="font-size:16.25px;font-style:normal;font-weight:400;fill:#fefee9;fill-opacity:1;fill-rule:evenodd;stroke:#000000;stroke-width:0.0984252;stroke-linecap:square;stroke-linejoin:bevel;stroke-opacity:1;font-family:Lucida Grande">
    <path
       name="west-brookfield" d="M 451.953,222.556 L 454.543,223.035 L 456.369,223.402 L 454.515,228.263 L 454.506,228.859 L 457.35,232.495 L 457.102,233.283 L 456.268,235.822 L 457.828,237.266 L 457.418,239.099 L 455.884,239.876 L 455.564,245.752 L 455.464,245.71 L 455.357,245.664 L 455.23,245.601 L 455.092,245.532 L 454.967,245.453 L 454.892,245.413 L 454.837,245.379 L 454.785,245.34 L 454.674,245.25 L 454.585,245.171 L 454.519,245.097 L 454.44,245.004 L 454.386,244.944 L 453.038,243.147 L 449.792,251.335 L 450.417,257.513 L 448.48,256.839 L 446.849,247.964 L 442.755,239.204 L 442.581,238.9 L 442.523,238.776 L 442.486,238.651 L 442.463,238.582 L 442.408,238.54 L 442.314,238.514 L 442.251,238.479 L 442.199,238.424 L 442.122,238.403 L 442.019,238.363 L 441.97,238.301 L 441.904,238.241 L 441.855,238.205 L 441.803,238.165 L 441.723,238.101 L 441.672,238.069 L 441.641,237.992 L 441.658,237.908 L 441.621,237.839 L 441.573,237.799 L 441.502,237.76 L 441.44,237.72 L 441.359,237.711 L 441.285,237.699 L 441.19,237.704 L 441.111,237.703 L 441.037,237.68 L 440.96,237.674 L 440.92,237.614 L 440.903,237.523 L 440.896,237.456 L 440.875,237.369 L 440.866,237.31 L 440.831,237.237 L 440.801,237.168 L 440.774,237.073 L 440.716,236.986 L 440.709,236.919 L 440.726,236.856 L 440.744,236.785 L 440.734,236.703 L 440.705,236.64 L 440.692,236.541 L 440.689,236.46 L 440.671,236.366 L 440.628,236.265 L 440.606,236.209 L 440.636,236.135 L 440.605,236.07 L 440.583,235.971 L 440.621,235.877 L 440.644,235.813 L 440.583,235.765 L 440.54,235.703 L 440.531,235.642 L 440.509,235.51 L 440.498,235.42 L 440.499,235.355 L 440.472,235.28 L 440.483,235.219 L 440.472,235.14 L 440.457,235.077 L 440.436,235.016 L 440.385,234.964 L 440.376,234.905 L 440.408,234.833 L 440.411,234.751 L 440.392,234.68 L 440.409,234.59 L 440.378,234.477 L 439.966,234.54 L 439.732,233.862 L 439.677,233.141 L 439.619,232.712 L 432.351,232.716 L 432.302,232.392 L 432.256,232.303 L 432.337,231.188 L 431.061,230.978 L 430.667,226.175 L 431.962,226.314 L 432.188,221.888 L 433.442,221.01 L 434.266,219.764 L 434.439,218.97 L 432.541,217.818 L 443.224,216.752 L 442.852,218.039 L 442.83,218.921 L 444.311,218.991 L 444.313,218.831 L 445.077,218.814 L 445.121,220.027 L 449.373,219.079 L 449.143,223.926 L 451.953,222.556"
       id="path15555"
       style="fill-rule:evenodd" />
   </g>
</svg>