<svg
   xmlns:svg="http://www.w3.org/2000/svg"
   xmlns="http://www.w3.org/2000/svg"
   version="1.0"
   width="2100"
   height="1300"
   viewBox="0 0 2100 1300"
   id="svg14921">
   <g
     transform="matrix(2.2640019,0,0,2.2640019,-216.71416,-21.6991)"
     id="g14955"
     style="font-size:16.25px;font-style:normal;font-weight:400;fill:#fefee9;fill-opacity:1;fill-rule:evenodd;stroke:#000000;stroke-width:0.0984252;stroke-linecap:square;stroke-linejoin:bevel;stroke-opacity:1;font-family:Lucida Grande">
    <path
       name="westminster" d="M 523.025,103.188 L 522.962,104.563 L 521.957,127.77 L 522.071,127.704 L 522.14,127.659 L 522.209,127.617 L 522.278,127.59 L 522.345,127.562 L 522.41,127.543 L 522.506,127.525 L 522.571,127.511 L 522.675,127.504 L 522.803,127.519 L 522.927,127.555 L 523.069,127.576 L 523.275,127.626 L 523.372,127.626 L 523.466,127.63 L 523.578,127.616 L 523.676,127.594 L 523.791,127.567 L 523.666,129.736 L 521.903,129.572 L 521.776,132.252 L 528.191,132.586 L 527.066,142.584 L 526.341,142.655 L 525.927,142.563 L 525.829,142.569 L 525.715,142.559 L 525.249,141.453 L 523.314,141.045 L 522.236,141.975 L 521.347,141.799 L 518.822,144.252 L 515.347,147.595 L 509.812,152.94 L 507.23,150.522 L 504.035,147.531 L 491.995,136.415 L 493.111,135.134 L 493.884,135.04 L 497.236,131.549 L 496.086,130.492 L 499.188,126.752 L 506.491,114.706 L 505.358,112.455 L 509.231,110.425 L 509.204,110.567 L 509.589,110.42 L 509.773,110.819 L 513.679,109.14 L 513.513,108.759 L 514.311,108.408 L 514.498,108.854 L 516.808,107.891 L 516.662,107.533 L 517.444,107.198 L 517.084,106.308 L 518.987,105.311 L 520.476,104.554 L 523.025,103.188"
       id="path15185"
       style="fill-rule:evenodd" />
   </g>
</svg>