<svg
   xmlns:svg="http://www.w3.org/2000/svg"
   xmlns="http://www.w3.org/2000/svg"
   version="1.0"
   width="2100"
   height="1300"
   viewBox="0 0 2100 1300"
   id="svg14921">
   <g
     transform="matrix(2.2640019,0,0,2.2640019,-216.71416,-21.6991)"
     id="g14955"
     style="font-size:16.25px;font-style:normal;font-weight:400;fill:#fefee9;fill-opacity:1;fill-rule:evenodd;stroke:#000000;stroke-width:0.0984252;stroke-linecap:square;stroke-linejoin:bevel;stroke-opacity:1;font-family:Lucida Grande">
    <path
       name="westfield" d="M 310.339,254.693 L 310.732,261.728 L 310.571,264.505 L 310.243,265.938 L 309.897,266.447 L 309.591,267.434 L 310.224,268.279 L 310.084,268.713 L 310.239,271.017 L 309.438,273.048 L 309.385,273.159 L 309.366,273.234 L 309.342,273.291 L 309.284,273.463 L 309.202,273.788 L 309.143,274.061 L 309.046,274.545 L 309.034,274.736 L 309.038,275.476 L 308.979,275.869 L 308.597,277.507 L 308.454,278.983 L 308.038,281.096 L 307.907,281.395 L 307.773,281.694 L 307.708,282.285 L 307.545,282.527 L 307.329,283.073 L 306.411,285.622 L 306.052,286.397 L 305.792,287.532 L 305.047,289.466 L 304.946,289.914 L 293.81,287.315 L 271.434,282.078 L 270.912,278.8 L 269.522,278.321 L 267.217,277.562 L 267.759,275.002 L 267.821,274.901 L 267.887,274.832 L 267.911,274.779 L 267.932,274.698 L 267.946,274.598 L 267.955,274.488 L 267.974,274.412 L 267.978,274.351 L 268.008,274.277 L 268.06,274.223 L 268.137,274.199 L 268.277,274.186 L 268.336,274.184 L 268.397,274.175 L 268.462,274.174 L 268.524,274.14 L 268.568,274.098 L 268.622,274.062 L 268.709,274.012 L 268.823,273.93 L 268.962,273.789 L 269.092,273.702 L 269.163,273.685 L 269.24,273.673 L 269.318,273.675 L 269.397,273.69 L 269.51,273.744 L 269.584,273.765 L 269.654,273.778 L 269.727,273.79 L 269.809,273.799 L 269.882,273.795 L 269.945,273.785 L 270.015,273.743 L 270.077,273.675 L 270.118,273.609 L 270.135,273.531 L 270.168,273.478 L 270.168,273.412 L 270.141,273.342 L 270.106,273.271 L 270.079,273.209 L 270.057,273.136 L 270.005,273.028 L 269.94,272.923 L 269.93,272.84 L 269.9,272.764 L 269.867,272.671 L 269.865,272.571 L 269.855,272.461 L 269.838,272.336 L 269.823,272.241 L 269.811,272.157 L 269.797,272.062 L 269.793,271.991 L 269.792,271.903 L 269.821,271.852 L 269.852,271.764 L 269.889,271.7 L 269.957,271.66 L 270.028,271.654 L 270.105,271.645 L 270.206,271.669 L 270.412,271.723 L 270.492,271.746 L 270.566,271.763 L 270.643,271.771 L 270.735,271.761 L 270.809,271.713 L 270.859,271.661 L 270.92,271.586 L 270.961,271.512 L 271.023,271.442 L 271.073,271.404 L 271.145,271.364 L 271.238,271.337 L 271.323,271.321 L 271.41,271.301 L 271.475,271.289 L 271.597,271.264 L 271.659,271.245 L 271.722,271.209 L 271.786,271.158 L 271.831,271.103 L 271.883,271.034 L 271.918,270.983 L 271.958,270.931 L 271.988,270.849 L 271.993,270.76 L 271.983,270.699 L 271.963,270.618 L 271.943,270.541 L 271.922,270.444 L 271.904,270.353 L 271.89,270.284 L 271.898,270.168 L 271.909,270.112 L 271.957,270.057 L 272.016,270.002 L 272.119,269.937 L 272.264,269.875 L 272.401,269.829 L 272.49,269.793 L 272.589,269.77 L 272.686,269.74 L 272.808,269.725 L 272.905,269.706 L 273.078,269.67 L 273.171,269.674 L 273.281,269.688 L 273.358,269.725 L 273.416,269.785 L 273.457,269.827 L 273.514,269.892 L 273.697,270.08 L 273.751,270.137 L 273.828,270.02 L 274.046,269.657 L 277.573,264.23 L 277.931,263.687 L 279.278,263.192 L 280.599,261.292 L 281.802,260.285 L 285.123,248.446 L 286.309,248.73 L 294.332,250.653 L 295.597,250.973 L 300.675,252.281 L 307.526,253.975 L 310.339,254.693"
       id="path15675"
       style="fill-rule:evenodd" />
   </g>
</svg>