<svg
   xmlns:svg="http://www.w3.org/2000/svg"
   xmlns="http://www.w3.org/2000/svg"
   version="1.0"
   width="2100"
   height="1300"
   viewBox="0 0 2100 1300"
   id="svg14921">
   <g
     transform="matrix(2.2640019,0,0,2.2640019,-216.71416,-21.6991)"
     id="g14955"
     style="font-size:16.25px;font-style:normal;font-weight:400;fill:#fefee9;fill-opacity:1;fill-rule:evenodd;stroke:#000000;stroke-width:0.0984252;stroke-linecap:square;stroke-linejoin:bevel;stroke-opacity:1;font-family:Lucida Grande">
    <path
       name="whately" d="M 337.622,157.495 L 337.092,158.76 L 337.008,159.01 L 336.893,159.502 L 336.634,160.679 L 336.565,161.049 L 336.51,161.542 L 336.463,161.982 L 336.435,162.391 L 336.43,162.657 L 336.452,163.336 L 336.467,163.736 L 336.596,164.485 L 336.809,165.541 L 336.933,166.092 L 337.121,166.957 L 337.359,168.025 L 337.375,168.141 L 337.393,168.23 L 337.677,169.338 L 337.675,169.437 L 337.696,169.51 L 337.712,169.622 L 337.861,170.347 L 337.982,170.968 L 338.035,171.101 L 338.076,171.228 L 338.104,171.33 L 338.13,171.415 L 338.131,171.496 L 338.154,171.626 L 338.17,171.733 L 338.196,171.822 L 338.459,172.723 L 337.299,172.51 L 327.938,175.168 L 327.34,175.171 L 326.172,175.232 L 326.169,175.407 L 315.958,176.882 L 306.952,178.179 L 308.054,161.866 L 319.181,160.151 L 319.577,159.161 L 319.193,157.572 L 319.522,156.155 L 325.595,155.25 L 325.798,156.837 L 327.584,156.616 L 327.79,156.587 L 327.77,156.305 L 331.023,155.932 L 331.474,158.392 L 337.622,157.495"
       id="path15349"
       style="fill-rule:evenodd" />
   </g>
</svg>