<svg
   xmlns:svg="http://www.w3.org/2000/svg"
   xmlns="http://www.w3.org/2000/svg"
   version="1.0"
   width="2100"
   height="1300"
   viewBox="0 0 2100 1300"
   id="svg14921">
   <g
     transform="matrix(2.2640019,0,0,2.2640019,-216.71416,-21.6991)"
     id="g14955"
     style="font-size:16.25px;font-style:normal;font-weight:400;fill:#fefee9;fill-opacity:1;fill-rule:evenodd;stroke:#000000;stroke-width:0.0984252;stroke-linecap:square;stroke-linejoin:bevel;stroke-opacity:1;font-family:Lucida Grande">
    <path
       name="winchester" d="M 711.216,163.637 L 710.727,165.263 L 710.051,166.836 L 710.485,168.145 L 710.539,168.351 L 709.939,168.531 L 709.31,168.668 L 709.189,168.91 L 708.792,169.838 L 703.472,169.753 L 695.206,169.622 L 696.293,168.273 L 695.133,167.094 L 694.829,166.759 L 694.335,166.632 L 694.145,166.432 L 693.867,165.843 L 693.301,164.954 L 700.104,161.333 L 701.79,162.483 L 702.789,160.117 L 709.889,156.843 L 710.057,156.757 L 713.039,156.608 L 713.71,156.573 L 712.485,159.959 L 711.216,163.637"
       id="path15353"
       style="fill-rule:evenodd" />
   </g>
</svg>