<svg
   xmlns:svg="http://www.w3.org/2000/svg"
   xmlns="http://www.w3.org/2000/svg"
   version="1.0"
   width="2100"
   height="1300"
   viewBox="0 0 2100 1300"
   id="svg14921">
   <g
     transform="matrix(2.2640019,0,0,2.2640019,-216.71416,-21.6991)"
     id="g14955"
     style="font-size:16.25px;font-style:normal;font-weight:400;fill:#fefee9;fill-opacity:1;fill-rule:evenodd;stroke:#000000;stroke-width:0.0984252;stroke-linecap:square;stroke-linejoin:bevel;stroke-opacity:1;font-family:Lucida Grande">
    <path
       name="woburn" d="M 707,137.317 L 709.829,144.401 L 709.908,144.605 L 710.039,144.961 L 709.91,145.028 L 710.346,146.186 L 710.515,146.152 L 711.035,147.493 L 710.989,147.566 L 710.589,148.084 L 711.78,149.439 L 713.039,156.608 L 710.057,156.757 L 709.889,156.843 L 702.789,160.117 L 701.79,162.483 L 700.104,161.333 L 693.301,164.954 L 693.08,164.735 L 692.234,163.826 L 691.836,163.658 L 691.433,163.086 L 688.856,160.213 L 689.533,159.422 L 693.928,154.284 L 694.549,153.964 L 694.959,153.819 L 695.384,153.396 L 695.338,153.298 L 698.558,152.103 L 698.084,151.171 L 698.552,150.913 L 698.642,148.314 L 698.584,147.617 L 698.211,142.309 L 707,137.317"
       id="path15285"
       style="fill-rule:evenodd" />
   </g>
</svg>